<?xml version="1.0" standalone="no"?>
 <!DOCTYPE svg PUBLIC "-//W3C//DTD SVG 1.1//EN" 
 "http://www.w3.org/Graphics/SVG/1.1/DTD/svg11.dtd"> 
<svg
  xmlns:svg="http://www.w3.org/2000/svg"
  xmlns="http://www.w3.org/2000/svg"
  xmlns:xlink="http://www.w3.org/1999/xlink"
  version="1.1"
  width="29.700220cm" height="21.000720cm" viewBox="0 0 297002200 210007200">
<title>SVG Picture created as phoenix45_alpha-rounded-F_Silkscreen.svg date 2022/08/11 09:25:09 </title>
  <desc>Picture generated by PCBNEW </desc>
<g style="fill:#000000; fill-opacity:1.000000;stroke:#000000; stroke-opacity:1.000000;
stroke-linecap:round; stroke-linejoin:round;"
 transform="translate(0 0) scale(1 1)">
</g>
<g style="fill:#000000; fill-opacity:0.0; 
stroke:#000000; stroke-width:0.000000; stroke-opacity:1; 
stroke-linecap:round; stroke-linejoin:round;">
</g>
<g style="fill:#000000; fill-opacity:0.0; 
stroke:#000000; stroke-width:21200.000000; stroke-opacity:1; 
stroke-linecap:round; stroke-linejoin:round;">
</g>
<g style="fill:#000000; fill-opacity:0.0; 
stroke:#000000; stroke-width:150000.000000; stroke-opacity:1; 
stroke-linecap:round; stroke-linejoin:round;">
<rect x="177002200.000000" y="166007200.000000" width="108000000.000000" height="32000000.000000" rx="0.000000" />
</g>
<g style="fill:#000000; fill-opacity:0.0; 
stroke:#000000; stroke-width:21200.000000; stroke-opacity:1; 
stroke-linecap:round; stroke-linejoin:round;">
</g>
<g style="fill:#000000; fill-opacity:0.0; 
stroke:#000000; stroke-width:150000.000000; stroke-opacity:1; 
stroke-linecap:round; stroke-linejoin:round;">
<rect x="10000000.000000" y="10000000.000000" width="277002200.000000" height="190007200.000000" rx="0.000000" />
</g>
<g style="fill:#000000; fill-opacity:0.0; 
stroke:#000000; stroke-width:21200.000000; stroke-opacity:1; 
stroke-linecap:round; stroke-linejoin:round;">
</g>
<g style="fill:#000000; fill-opacity:0.0; 
stroke:#000000; stroke-width:150000.000000; stroke-opacity:1; 
stroke-linecap:round; stroke-linejoin:round;">
<rect x="12000000.000000" y="12000000.000000" width="273002200.000000" height="186007200.000000" rx="0.000000" />
</g>
<g style="fill:#000000; fill-opacity:0.0; 
stroke:#000000; stroke-width:21200.000000; stroke-opacity:1; 
stroke-linecap:round; stroke-linejoin:round;">
</g>
<g style="fill:#000000; fill-opacity:0.0; 
stroke:#000000; stroke-width:150000.000000; stroke-opacity:1; 
stroke-linecap:round; stroke-linejoin:round;">
<path d="M60000000 12000000
L60000000 10000000
" />
</g>
<g style="fill:#000000; fill-opacity:0.0; 
stroke:#000000; stroke-width:21200.000000; stroke-opacity:1; 
stroke-linecap:round; stroke-linejoin:round;">
</g>
<g style="fill:#000000; fill-opacity:0.0; 
stroke:#000000; stroke-width:150000.000000; stroke-opacity:1; 
stroke-linecap:round; stroke-linejoin:round;">
<path d="M110000000 12000000
L110000000 10000000
" />
</g>
<g style="fill:#000000; fill-opacity:0.0; 
stroke:#000000; stroke-width:21200.000000; stroke-opacity:1; 
stroke-linecap:round; stroke-linejoin:round;">
</g>
<g style="fill:#000000; fill-opacity:0.0; 
stroke:#000000; stroke-width:150000.000000; stroke-opacity:1; 
stroke-linecap:round; stroke-linejoin:round;">
<path d="M160000000 12000000
L160000000 10000000
" />
</g>
<g style="fill:#000000; fill-opacity:0.0; 
stroke:#000000; stroke-width:21200.000000; stroke-opacity:1; 
stroke-linecap:round; stroke-linejoin:round;">
</g>
<g style="fill:#000000; fill-opacity:0.0; 
stroke:#000000; stroke-width:150000.000000; stroke-opacity:1; 
stroke-linecap:round; stroke-linejoin:round;">
<path d="M210000000 12000000
L210000000 10000000
" />
</g>
<g style="fill:#000000; fill-opacity:0.0; 
stroke:#000000; stroke-width:21200.000000; stroke-opacity:1; 
stroke-linecap:round; stroke-linejoin:round;">
</g>
<g style="fill:#000000; fill-opacity:0.0; 
stroke:#000000; stroke-width:150000.000000; stroke-opacity:1; 
stroke-linecap:round; stroke-linejoin:round;">
<path d="M260000000 12000000
L260000000 10000000
" />
</g>
<g style="fill:#000000; fill-opacity:0.0; 
stroke:#000000; stroke-width:21200.000000; stroke-opacity:1; 
stroke-linecap:round; stroke-linejoin:round;">
</g>
<g style="fill:#000000; fill-opacity:0.0; 
stroke:#000000; stroke-width:150000.000000; stroke-opacity:1; 
stroke-linecap:round; stroke-linejoin:round;">
<text x="35000000.000000" y="11650000.000000"
textLength="1433095.000000" font-size="1733333.000000" lengthAdjust="spacingAndGlyphs"
text-anchor="start" opacity="0">1</text>
<g class="stroked-text"><desc>1</desc>
<path d="M36065476 11588095
L35322619 11588095
" />
<path d="M35694047 11588095
L35694047 10288095
L35570238 10473809
L35446428 10597619
L35322619 10659523
" />
</g></g>
<g style="fill:#000000; fill-opacity:0.0; 
stroke:#000000; stroke-width:21200.000000; stroke-opacity:1; 
stroke-linecap:round; stroke-linejoin:round;">
</g>
<g style="fill:#000000; fill-opacity:0.0; 
stroke:#000000; stroke-width:150000.000000; stroke-opacity:1; 
stroke-linecap:round; stroke-linejoin:round;">
<text x="85000000.000000" y="11650000.000000"
textLength="1388095.000000" font-size="1733333.000000" lengthAdjust="spacingAndGlyphs"
text-anchor="start" opacity="0">2</text>
<g class="stroked-text"><desc>2</desc>
<path d="M85322619 10411904
L85384523 10350000
L85508333 10288095
L85817857 10288095
L85941666 10350000
L86003571 10411904
L86065476 10535714
L86065476 10659523
L86003571 10845238
L85260714 11588095
L86065476 11588095
" />
</g></g>
<g style="fill:#000000; fill-opacity:0.0; 
stroke:#000000; stroke-width:21200.000000; stroke-opacity:1; 
stroke-linecap:round; stroke-linejoin:round;">
</g>
<g style="fill:#000000; fill-opacity:0.0; 
stroke:#000000; stroke-width:150000.000000; stroke-opacity:1; 
stroke-linecap:round; stroke-linejoin:round;">
<text x="135000000.000000" y="11650000.000000"
textLength="1388095.000000" font-size="1733333.000000" lengthAdjust="spacingAndGlyphs"
text-anchor="start" opacity="0">3</text>
<g class="stroked-text"><desc>3</desc>
<path d="M135260714 10288095
L136065476 10288095
L135632142 10783333
L135817857 10783333
L135941666 10845238
L136003571 10907142
L136065476 11030952
L136065476 11340476
L136003571 11464285
L135941666 11526190
L135817857 11588095
L135446428 11588095
L135322619 11526190
L135260714 11464285
" />
</g></g>
<g style="fill:#000000; fill-opacity:0.0; 
stroke:#000000; stroke-width:21200.000000; stroke-opacity:1; 
stroke-linecap:round; stroke-linejoin:round;">
</g>
<g style="fill:#000000; fill-opacity:0.0; 
stroke:#000000; stroke-width:150000.000000; stroke-opacity:1; 
stroke-linecap:round; stroke-linejoin:round;">
<text x="185000000.000000" y="11650000.000000"
textLength="1388095.000000" font-size="1733333.000000" lengthAdjust="spacingAndGlyphs"
text-anchor="start" opacity="0">4</text>
<g class="stroked-text"><desc>4</desc>
<path d="M185941666 10721428
L185941666 11588095
" />
<path d="M185632142 10226190
L185322619 11154761
L186127380 11154761
" />
</g></g>
<g style="fill:#000000; fill-opacity:0.0; 
stroke:#000000; stroke-width:21200.000000; stroke-opacity:1; 
stroke-linecap:round; stroke-linejoin:round;">
</g>
<g style="fill:#000000; fill-opacity:0.0; 
stroke:#000000; stroke-width:150000.000000; stroke-opacity:1; 
stroke-linecap:round; stroke-linejoin:round;">
<text x="235000000.000000" y="11650000.000000"
textLength="1388095.000000" font-size="1733333.000000" lengthAdjust="spacingAndGlyphs"
text-anchor="start" opacity="0">5</text>
<g class="stroked-text"><desc>5</desc>
<path d="M236003571 10288095
L235384523 10288095
L235322619 10907142
L235384523 10845238
L235508333 10783333
L235817857 10783333
L235941666 10845238
L236003571 10907142
L236065476 11030952
L236065476 11340476
L236003571 11464285
L235941666 11526190
L235817857 11588095
L235508333 11588095
L235384523 11526190
L235322619 11464285
" />
</g></g>
<g style="fill:#000000; fill-opacity:0.0; 
stroke:#000000; stroke-width:21200.000000; stroke-opacity:1; 
stroke-linecap:round; stroke-linejoin:round;">
</g>
<g style="fill:#000000; fill-opacity:0.0; 
stroke:#000000; stroke-width:150000.000000; stroke-opacity:1; 
stroke-linecap:round; stroke-linejoin:round;">
<text x="285000000.000000" y="11650000.000000"
textLength="1388095.000000" font-size="1733333.000000" lengthAdjust="spacingAndGlyphs"
text-anchor="start" opacity="0">6</text>
<g class="stroked-text"><desc>6</desc>
<path d="M285941666 10288095
L285694047 10288095
L285570238 10350000
L285508333 10411904
L285384523 10597619
L285322619 10845238
L285322619 11340476
L285384523 11464285
L285446428 11526190
L285570238 11588095
L285817857 11588095
L285941666 11526190
L286003571 11464285
L286065476 11340476
L286065476 11030952
L286003571 10907142
L285941666 10845238
L285817857 10783333
L285570238 10783333
L285446428 10845238
L285384523 10907142
L285322619 11030952
" />
</g></g>
<g style="fill:#000000; fill-opacity:0.0; 
stroke:#000000; stroke-width:21200.000000; stroke-opacity:1; 
stroke-linecap:round; stroke-linejoin:round;">
</g>
<g style="fill:#000000; fill-opacity:0.0; 
stroke:#000000; stroke-width:150000.000000; stroke-opacity:1; 
stroke-linecap:round; stroke-linejoin:round;">
<path d="M60000000 198007200
L60000000 200007200
" />
</g>
<g style="fill:#000000; fill-opacity:0.0; 
stroke:#000000; stroke-width:21200.000000; stroke-opacity:1; 
stroke-linecap:round; stroke-linejoin:round;">
</g>
<g style="fill:#000000; fill-opacity:0.0; 
stroke:#000000; stroke-width:150000.000000; stroke-opacity:1; 
stroke-linecap:round; stroke-linejoin:round;">
<path d="M110000000 198007200
L110000000 200007200
" />
</g>
<g style="fill:#000000; fill-opacity:0.0; 
stroke:#000000; stroke-width:21200.000000; stroke-opacity:1; 
stroke-linecap:round; stroke-linejoin:round;">
</g>
<g style="fill:#000000; fill-opacity:0.0; 
stroke:#000000; stroke-width:150000.000000; stroke-opacity:1; 
stroke-linecap:round; stroke-linejoin:round;">
<path d="M160000000 198007200
L160000000 200007200
" />
</g>
<g style="fill:#000000; fill-opacity:0.0; 
stroke:#000000; stroke-width:21200.000000; stroke-opacity:1; 
stroke-linecap:round; stroke-linejoin:round;">
</g>
<g style="fill:#000000; fill-opacity:0.0; 
stroke:#000000; stroke-width:150000.000000; stroke-opacity:1; 
stroke-linecap:round; stroke-linejoin:round;">
<path d="M210000000 198007200
L210000000 200007200
" />
</g>
<g style="fill:#000000; fill-opacity:0.0; 
stroke:#000000; stroke-width:21200.000000; stroke-opacity:1; 
stroke-linecap:round; stroke-linejoin:round;">
</g>
<g style="fill:#000000; fill-opacity:0.0; 
stroke:#000000; stroke-width:150000.000000; stroke-opacity:1; 
stroke-linecap:round; stroke-linejoin:round;">
<path d="M260000000 198007200
L260000000 200007200
" />
</g>
<g style="fill:#000000; fill-opacity:0.0; 
stroke:#000000; stroke-width:21200.000000; stroke-opacity:1; 
stroke-linecap:round; stroke-linejoin:round;">
</g>
<g style="fill:#000000; fill-opacity:0.0; 
stroke:#000000; stroke-width:150000.000000; stroke-opacity:1; 
stroke-linecap:round; stroke-linejoin:round;">
<text x="35000000.000000" y="199657200.000000"
textLength="1388095.000000" font-size="1733333.000000" lengthAdjust="spacingAndGlyphs"
text-anchor="start" opacity="0">1</text>
<g class="stroked-text"><desc>1</desc>
<path d="M36065476 199595295
L35322619 199595295
" />
<path d="M35694047 199595295
L35694047 198295295
L35570238 198481009
L35446428 198604819
L35322619 198666723
" />
</g></g>
<g style="fill:#000000; fill-opacity:0.0; 
stroke:#000000; stroke-width:21200.000000; stroke-opacity:1; 
stroke-linecap:round; stroke-linejoin:round;">
</g>
<g style="fill:#000000; fill-opacity:0.0; 
stroke:#000000; stroke-width:150000.000000; stroke-opacity:1; 
stroke-linecap:round; stroke-linejoin:round;">
<text x="85000000.000000" y="199657200.000000"
textLength="1388095.000000" font-size="1733333.000000" lengthAdjust="spacingAndGlyphs"
text-anchor="start" opacity="0">2</text>
<g class="stroked-text"><desc>2</desc>
<path d="M85322619 198419104
L85384523 198357200
L85508333 198295295
L85817857 198295295
L85941666 198357200
L86003571 198419104
L86065476 198542914
L86065476 198666723
L86003571 198852438
L85260714 199595295
L86065476 199595295
" />
</g></g>
<g style="fill:#000000; fill-opacity:0.0; 
stroke:#000000; stroke-width:21200.000000; stroke-opacity:1; 
stroke-linecap:round; stroke-linejoin:round;">
</g>
<g style="fill:#000000; fill-opacity:0.0; 
stroke:#000000; stroke-width:150000.000000; stroke-opacity:1; 
stroke-linecap:round; stroke-linejoin:round;">
<text x="135000000.000000" y="199657200.000000"
textLength="1388095.000000" font-size="1733333.000000" lengthAdjust="spacingAndGlyphs"
text-anchor="start" opacity="0">3</text>
<g class="stroked-text"><desc>3</desc>
<path d="M135260714 198295295
L136065476 198295295
L135632142 198790533
L135817857 198790533
L135941666 198852438
L136003571 198914342
L136065476 199038152
L136065476 199347676
L136003571 199471485
L135941666 199533390
L135817857 199595295
L135446428 199595295
L135322619 199533390
L135260714 199471485
" />
</g></g>
<g style="fill:#000000; fill-opacity:0.0; 
stroke:#000000; stroke-width:21200.000000; stroke-opacity:1; 
stroke-linecap:round; stroke-linejoin:round;">
</g>
<g style="fill:#000000; fill-opacity:0.0; 
stroke:#000000; stroke-width:150000.000000; stroke-opacity:1; 
stroke-linecap:round; stroke-linejoin:round;">
<text x="185000000.000000" y="199657200.000000"
textLength="1388095.000000" font-size="1733333.000000" lengthAdjust="spacingAndGlyphs"
text-anchor="start" opacity="0">4</text>
<g class="stroked-text"><desc>4</desc>
<path d="M185941666 198728628
L185941666 199595295
" />
<path d="M185632142 198233390
L185322619 199161961
L186127380 199161961
" />
</g></g>
<g style="fill:#000000; fill-opacity:0.0; 
stroke:#000000; stroke-width:21200.000000; stroke-opacity:1; 
stroke-linecap:round; stroke-linejoin:round;">
</g>
<g style="fill:#000000; fill-opacity:0.0; 
stroke:#000000; stroke-width:150000.000000; stroke-opacity:1; 
stroke-linecap:round; stroke-linejoin:round;">
<text x="235000000.000000" y="199657200.000000"
textLength="1388095.000000" font-size="1733333.000000" lengthAdjust="spacingAndGlyphs"
text-anchor="start" opacity="0">5</text>
<g class="stroked-text"><desc>5</desc>
<path d="M236003571 198295295
L235384523 198295295
L235322619 198914342
L235384523 198852438
L235508333 198790533
L235817857 198790533
L235941666 198852438
L236003571 198914342
L236065476 199038152
L236065476 199347676
L236003571 199471485
L235941666 199533390
L235817857 199595295
L235508333 199595295
L235384523 199533390
L235322619 199471485
" />
</g></g>
<g style="fill:#000000; fill-opacity:0.0; 
stroke:#000000; stroke-width:21200.000000; stroke-opacity:1; 
stroke-linecap:round; stroke-linejoin:round;">
</g>
<g style="fill:#000000; fill-opacity:0.0; 
stroke:#000000; stroke-width:150000.000000; stroke-opacity:1; 
stroke-linecap:round; stroke-linejoin:round;">
<text x="285000000.000000" y="199657200.000000"
textLength="1388095.000000" font-size="1733333.000000" lengthAdjust="spacingAndGlyphs"
text-anchor="start" opacity="0">6</text>
<g class="stroked-text"><desc>6</desc>
<path d="M285941666 198295295
L285694047 198295295
L285570238 198357200
L285508333 198419104
L285384523 198604819
L285322619 198852438
L285322619 199347676
L285384523 199471485
L285446428 199533390
L285570238 199595295
L285817857 199595295
L285941666 199533390
L286003571 199471485
L286065476 199347676
L286065476 199038152
L286003571 198914342
L285941666 198852438
L285817857 198790533
L285570238 198790533
L285446428 198852438
L285384523 198914342
L285322619 199038152
" />
</g></g>
<g style="fill:#000000; fill-opacity:0.0; 
stroke:#000000; stroke-width:21200.000000; stroke-opacity:1; 
stroke-linecap:round; stroke-linejoin:round;">
</g>
<g style="fill:#000000; fill-opacity:0.0; 
stroke:#000000; stroke-width:150000.000000; stroke-opacity:1; 
stroke-linecap:round; stroke-linejoin:round;">
<path d="M10000000 60000000
L12000000 60000000
" />
</g>
<g style="fill:#000000; fill-opacity:0.0; 
stroke:#000000; stroke-width:21200.000000; stroke-opacity:1; 
stroke-linecap:round; stroke-linejoin:round;">
</g>
<g style="fill:#000000; fill-opacity:0.0; 
stroke:#000000; stroke-width:150000.000000; stroke-opacity:1; 
stroke-linecap:round; stroke-linejoin:round;">
<path d="M10000000 110000000
L12000000 110000000
" />
</g>
<g style="fill:#000000; fill-opacity:0.0; 
stroke:#000000; stroke-width:21200.000000; stroke-opacity:1; 
stroke-linecap:round; stroke-linejoin:round;">
</g>
<g style="fill:#000000; fill-opacity:0.0; 
stroke:#000000; stroke-width:150000.000000; stroke-opacity:1; 
stroke-linecap:round; stroke-linejoin:round;">
<path d="M10000000 160000000
L12000000 160000000
" />
</g>
<g style="fill:#000000; fill-opacity:0.0; 
stroke:#000000; stroke-width:21200.000000; stroke-opacity:1; 
stroke-linecap:round; stroke-linejoin:round;">
</g>
<g style="fill:#000000; fill-opacity:0.0; 
stroke:#000000; stroke-width:150000.000000; stroke-opacity:1; 
stroke-linecap:round; stroke-linejoin:round;">
<text x="11000000.000000" y="35650000.000000"
textLength="1264286.000000" font-size="1733333.000000" lengthAdjust="spacingAndGlyphs"
text-anchor="middle" opacity="0">A</text>
<g class="stroked-text"><desc>A</desc>
<path d="M10690476 35216666
L11309523 35216666
" />
<path d="M10566666 35588095
L11000000 34288095
L11433333 35588095
" />
</g></g>
<g style="fill:#000000; fill-opacity:0.0; 
stroke:#000000; stroke-width:21200.000000; stroke-opacity:1; 
stroke-linecap:round; stroke-linejoin:round;">
</g>
<g style="fill:#000000; fill-opacity:0.0; 
stroke:#000000; stroke-width:150000.000000; stroke-opacity:1; 
stroke-linecap:round; stroke-linejoin:round;">
<text x="11000000.000000" y="85650000.000000"
textLength="1450000.000000" font-size="1733333.000000" lengthAdjust="spacingAndGlyphs"
text-anchor="middle" opacity="0">B</text>
<g class="stroked-text"><desc>B</desc>
<path d="M11092857 84907142
L11278571 84969047
L11340476 85030952
L11402380 85154761
L11402380 85340476
L11340476 85464285
L11278571 85526190
L11154761 85588095
L10659523 85588095
L10659523 84288095
L11092857 84288095
L11216666 84350000
L11278571 84411904
L11340476 84535714
L11340476 84659523
L11278571 84783333
L11216666 84845238
L11092857 84907142
L10659523 84907142
" />
</g></g>
<g style="fill:#000000; fill-opacity:0.0; 
stroke:#000000; stroke-width:21200.000000; stroke-opacity:1; 
stroke-linecap:round; stroke-linejoin:round;">
</g>
<g style="fill:#000000; fill-opacity:0.0; 
stroke:#000000; stroke-width:150000.000000; stroke-opacity:1; 
stroke-linecap:round; stroke-linejoin:round;">
<text x="11000000.000000" y="135650000.000000"
textLength="1450000.000000" font-size="1733333.000000" lengthAdjust="spacingAndGlyphs"
text-anchor="middle" opacity="0">C</text>
<g class="stroked-text"><desc>C</desc>
<path d="M11402380 135464285
L11340476 135526190
L11154761 135588095
L11030952 135588095
L10845238 135526190
L10721428 135402380
L10659523 135278571
L10597619 135030952
L10597619 134845238
L10659523 134597619
L10721428 134473809
L10845238 134350000
L11030952 134288095
L11154761 134288095
L11340476 134350000
L11402380 134411904
" />
</g></g>
<g style="fill:#000000; fill-opacity:0.0; 
stroke:#000000; stroke-width:21200.000000; stroke-opacity:1; 
stroke-linecap:round; stroke-linejoin:round;">
</g>
<g style="fill:#000000; fill-opacity:0.0; 
stroke:#000000; stroke-width:150000.000000; stroke-opacity:1; 
stroke-linecap:round; stroke-linejoin:round;">
<text x="11000000.000000" y="185650000.000000"
textLength="1450000.000000" font-size="1733333.000000" lengthAdjust="spacingAndGlyphs"
text-anchor="middle" opacity="0">D</text>
<g class="stroked-text"><desc>D</desc>
<path d="M10659523 185588095
L10659523 184288095
L10969047 184288095
L11154761 184350000
L11278571 184473809
L11340476 184597619
L11402380 184845238
L11402380 185030952
L11340476 185278571
L11278571 185402380
L11154761 185526190
L10969047 185588095
L10659523 185588095
" />
</g></g>
<g style="fill:#000000; fill-opacity:0.0; 
stroke:#000000; stroke-width:21200.000000; stroke-opacity:1; 
stroke-linecap:round; stroke-linejoin:round;">
</g>
<g style="fill:#000000; fill-opacity:0.0; 
stroke:#000000; stroke-width:150000.000000; stroke-opacity:1; 
stroke-linecap:round; stroke-linejoin:round;">
<path d="M287002200 60000000
L285002200 60000000
" />
</g>
<g style="fill:#000000; fill-opacity:0.0; 
stroke:#000000; stroke-width:21200.000000; stroke-opacity:1; 
stroke-linecap:round; stroke-linejoin:round;">
</g>
<g style="fill:#000000; fill-opacity:0.0; 
stroke:#000000; stroke-width:150000.000000; stroke-opacity:1; 
stroke-linecap:round; stroke-linejoin:round;">
<path d="M287002200 110000000
L285002200 110000000
" />
</g>
<g style="fill:#000000; fill-opacity:0.0; 
stroke:#000000; stroke-width:21200.000000; stroke-opacity:1; 
stroke-linecap:round; stroke-linejoin:round;">
</g>
<g style="fill:#000000; fill-opacity:0.0; 
stroke:#000000; stroke-width:150000.000000; stroke-opacity:1; 
stroke-linecap:round; stroke-linejoin:round;">
<path d="M287002200 160000000
L285002200 160000000
" />
</g>
<g style="fill:#000000; fill-opacity:0.0; 
stroke:#000000; stroke-width:21200.000000; stroke-opacity:1; 
stroke-linecap:round; stroke-linejoin:round;">
</g>
<g style="fill:#000000; fill-opacity:0.0; 
stroke:#000000; stroke-width:150000.000000; stroke-opacity:1; 
stroke-linecap:round; stroke-linejoin:round;">
<text x="286002200.000000" y="35650000.000000"
textLength="1264286.000000" font-size="1733333.000000" lengthAdjust="spacingAndGlyphs"
text-anchor="middle" opacity="0">A</text>
<g class="stroked-text"><desc>A</desc>
<path d="M285692676 35216666
L286311723 35216666
" />
<path d="M285568866 35588095
L286002200 34288095
L286435533 35588095
" />
</g></g>
<g style="fill:#000000; fill-opacity:0.0; 
stroke:#000000; stroke-width:21200.000000; stroke-opacity:1; 
stroke-linecap:round; stroke-linejoin:round;">
</g>
<g style="fill:#000000; fill-opacity:0.0; 
stroke:#000000; stroke-width:150000.000000; stroke-opacity:1; 
stroke-linecap:round; stroke-linejoin:round;">
<text x="286002200.000000" y="85650000.000000"
textLength="1450000.000000" font-size="1733333.000000" lengthAdjust="spacingAndGlyphs"
text-anchor="middle" opacity="0">B</text>
<g class="stroked-text"><desc>B</desc>
<path d="M286095057 84907142
L286280771 84969047
L286342676 85030952
L286404580 85154761
L286404580 85340476
L286342676 85464285
L286280771 85526190
L286156961 85588095
L285661723 85588095
L285661723 84288095
L286095057 84288095
L286218866 84350000
L286280771 84411904
L286342676 84535714
L286342676 84659523
L286280771 84783333
L286218866 84845238
L286095057 84907142
L285661723 84907142
" />
</g></g>
<g style="fill:#000000; fill-opacity:0.0; 
stroke:#000000; stroke-width:21200.000000; stroke-opacity:1; 
stroke-linecap:round; stroke-linejoin:round;">
</g>
<g style="fill:#000000; fill-opacity:0.0; 
stroke:#000000; stroke-width:150000.000000; stroke-opacity:1; 
stroke-linecap:round; stroke-linejoin:round;">
<text x="286002200.000000" y="135650000.000000"
textLength="1450000.000000" font-size="1733333.000000" lengthAdjust="spacingAndGlyphs"
text-anchor="middle" opacity="0">C</text>
<g class="stroked-text"><desc>C</desc>
<path d="M286404580 135464285
L286342676 135526190
L286156961 135588095
L286033152 135588095
L285847438 135526190
L285723628 135402380
L285661723 135278571
L285599819 135030952
L285599819 134845238
L285661723 134597619
L285723628 134473809
L285847438 134350000
L286033152 134288095
L286156961 134288095
L286342676 134350000
L286404580 134411904
" />
</g></g>
<g style="fill:#000000; fill-opacity:0.0; 
stroke:#000000; stroke-width:21200.000000; stroke-opacity:1; 
stroke-linecap:round; stroke-linejoin:round;">
</g>
<g style="fill:#000000; fill-opacity:0.0; 
stroke:#000000; stroke-width:150000.000000; stroke-opacity:1; 
stroke-linecap:round; stroke-linejoin:round;">
<text x="286002200.000000" y="185650000.000000"
textLength="1450000.000000" font-size="1733333.000000" lengthAdjust="spacingAndGlyphs"
text-anchor="middle" opacity="0">D</text>
<g class="stroked-text"><desc>D</desc>
<path d="M285661723 185588095
L285661723 184288095
L285971247 184288095
L286156961 184350000
L286280771 184473809
L286342676 184597619
L286404580 184845238
L286404580 185030952
L286342676 185278571
L286280771 185402380
L286156961 185526190
L285971247 185588095
L285661723 185588095
" />
</g></g>
<g style="fill:#000000; fill-opacity:0.0; 
stroke:#000000; stroke-width:21200.000000; stroke-opacity:1; 
stroke-linecap:round; stroke-linejoin:round;">
</g>
<g style="fill:#000000; fill-opacity:0.0; 
stroke:#000000; stroke-width:150000.000000; stroke-opacity:1; 
stroke-linecap:round; stroke-linejoin:round;">
<text x="200002200.000000" y="193857200.000000"
textLength="7007143.000000" font-size="2000000.000000" lengthAdjust="spacingAndGlyphs"
text-anchor="start" opacity="0">Date: </text>
<g class="stroked-text"><desc>Date: </desc>
<path d="M200434342 193785771
L200434342 192285771
L200791485 192285771
L201005771 192357200
L201148628 192500057
L201220057 192642914
L201291485 192928628
L201291485 193142914
L201220057 193428628
L201148628 193571485
L201005771 193714342
L200791485 193785771
L200434342 193785771
" />
<path d="M202577200 193785771
L202577200 193000057
L202505771 192857200
L202362914 192785771
L202077200 192785771
L201934342 192857200
" />
<path d="M202577200 193714342
L202434342 193785771
L202077200 193785771
L201934342 193714342
L201862914 193571485
L201862914 193428628
L201934342 193285771
L202077200 193214342
L202434342 193214342
L202577200 193142914
" />
<path d="M203077200 192785771
L203648628 192785771
" />
<path d="M203291485 192285771
L203291485 193571485
L203362914 193714342
L203505771 193785771
L203648628 193785771
" />
<path d="M204720057 193714342
L204577200 193785771
L204291485 193785771
L204148628 193714342
L204077200 193571485
L204077200 193000057
L204148628 192857200
L204291485 192785771
L204577200 192785771
L204720057 192857200
L204791485 193000057
L204791485 193142914
L204077200 193285771
" />
<path d="M205434342 193642914
L205505771 193714342
L205434342 193785771
L205362914 193714342
L205434342 193642914
L205434342 193785771
" />
<path d="M205434342 192857200
L205505771 192928628
L205434342 193000057
L205362914 192928628
L205434342 192857200
L205434342 193000057
" />
</g></g>
<g style="fill:#000000; fill-opacity:0.0; 
stroke:#000000; stroke-width:21200.000000; stroke-opacity:1; 
stroke-linecap:round; stroke-linejoin:round;">
</g>
<g style="fill:#000000; fill-opacity:0.0; 
stroke:#000000; stroke-width:150000.000000; stroke-opacity:1; 
stroke-linecap:round; stroke-linejoin:round;">
<path d="M177002200 194507200
L285002200 194507200
" />
</g>
<g style="fill:#000000; fill-opacity:0.0; 
stroke:#000000; stroke-width:21200.000000; stroke-opacity:1; 
stroke-linecap:round; stroke-linejoin:round;">
</g>
<g style="fill:#000000; fill-opacity:0.0; 
stroke:#000000; stroke-width:150000.000000; stroke-opacity:1; 
stroke-linecap:round; stroke-linejoin:round;">
<text x="178002200.000000" y="196657200.000000"
textLength="33364286.000000" font-size="2000000.000000" lengthAdjust="spacingAndGlyphs"
text-anchor="start" opacity="0">KiCad E.D.A.  pcbnew (6.0.5)</text>
<g class="stroked-text"><desc>KiCad E.D.A.  pcbnew (6.0.5)</desc>
<path d="M178434342 196585771
L178434342 195085771
" />
<path d="M179291485 196585771
L178648628 195728628
" />
<path d="M179291485 195085771
L178434342 195942914
" />
<path d="M179934342 196585771
L179934342 195585771
" />
<path d="M179934342 195085771
L179862914 195157200
L179934342 195228628
L180005771 195157200
L179934342 195085771
L179934342 195228628
" />
<path d="M181505771 196442914
L181434342 196514342
L181220057 196585771
L181077200 196585771
L180862914 196514342
L180720057 196371485
L180648628 196228628
L180577200 195942914
L180577200 195728628
L180648628 195442914
L180720057 195300057
L180862914 195157200
L181077200 195085771
L181220057 195085771
L181434342 195157200
L181505771 195228628
" />
<path d="M182791485 196585771
L182791485 195800057
L182720057 195657200
L182577200 195585771
L182291485 195585771
L182148628 195657200
" />
<path d="M182791485 196514342
L182648628 196585771
L182291485 196585771
L182148628 196514342
L182077200 196371485
L182077200 196228628
L182148628 196085771
L182291485 196014342
L182648628 196014342
L182791485 195942914
" />
<path d="M184148628 196585771
L184148628 195085771
" />
<path d="M184148628 196514342
L184005771 196585771
L183720057 196585771
L183577200 196514342
L183505771 196442914
L183434342 196300057
L183434342 195871485
L183505771 195728628
L183577200 195657200
L183720057 195585771
L184005771 195585771
L184148628 195657200
" />
<path d="M186005771 195800057
L186505771 195800057
" />
<path d="M186720057 196585771
L186005771 196585771
L186005771 195085771
L186720057 195085771
" />
<path d="M187362914 196442914
L187434342 196514342
L187362914 196585771
L187291485 196514342
L187362914 196442914
L187362914 196585771
" />
<path d="M188077200 196585771
L188077200 195085771
L188434342 195085771
L188648628 195157200
L188791485 195300057
L188862914 195442914
L188934342 195728628
L188934342 195942914
L188862914 196228628
L188791485 196371485
L188648628 196514342
L188434342 196585771
L188077200 196585771
" />
<path d="M189577200 196442914
L189648628 196514342
L189577200 196585771
L189505771 196514342
L189577200 196442914
L189577200 196585771
" />
<path d="M190220057 196157200
L190934342 196157200
" />
<path d="M190077200 196585771
L190577200 195085771
L191077200 196585771
" />
<path d="M191577200 196442914
L191648628 196514342
L191577200 196585771
L191505771 196514342
L191577200 196442914
L191577200 196585771
" />
<path d="M194577200 195585771
L194577200 197085771
" />
<path d="M194577200 195657200
L194720057 195585771
L195005771 195585771
L195148628 195657200
L195220057 195728628
L195291485 195871485
L195291485 196300057
L195220057 196442914
L195148628 196514342
L195005771 196585771
L194720057 196585771
L194577200 196514342
" />
<path d="M196577200 196514342
L196434342 196585771
L196148628 196585771
L196005771 196514342
L195934342 196442914
L195862914 196300057
L195862914 195871485
L195934342 195728628
L196005771 195657200
L196148628 195585771
L196434342 195585771
L196577200 195657200
" />
<path d="M197220057 196585771
L197220057 195085771
" />
<path d="M197220057 195657200
L197362914 195585771
L197648628 195585771
L197791485 195657200
L197862914 195728628
L197934342 195871485
L197934342 196300057
L197862914 196442914
L197791485 196514342
L197648628 196585771
L197362914 196585771
L197220057 196514342
" />
<path d="M198577200 195585771
L198577200 196585771
" />
<path d="M198577200 195728628
L198648628 195657200
L198791485 195585771
L199005771 195585771
L199148628 195657200
L199220057 195800057
L199220057 196585771
" />
<path d="M200505771 196514342
L200362914 196585771
L200077200 196585771
L199934342 196514342
L199862914 196371485
L199862914 195800057
L199934342 195657200
L200077200 195585771
L200362914 195585771
L200505771 195657200
L200577200 195800057
L200577200 195942914
L199862914 196085771
" />
<path d="M201077200 195585771
L201362914 196585771
L201648628 195871485
L201934342 196585771
L202220057 195585771
" />
<path d="M204362914 197157200
L204291485 197085771
L204148628 196871485
L204077200 196728628
L204005771 196514342
L203934342 196157200
L203934342 195871485
L204005771 195514342
L204077200 195300057
L204148628 195157200
L204291485 194942914
L204362914 194871485
" />
<path d="M205577200 195085771
L205291485 195085771
L205148628 195157200
L205077200 195228628
L204934342 195442914
L204862914 195728628
L204862914 196300057
L204934342 196442914
L205005771 196514342
L205148628 196585771
L205434342 196585771
L205577200 196514342
L205648628 196442914
L205720057 196300057
L205720057 195942914
L205648628 195800057
L205577200 195728628
L205434342 195657200
L205148628 195657200
L205005771 195728628
L204934342 195800057
L204862914 195942914
" />
<path d="M206362914 196442914
L206434342 196514342
L206362914 196585771
L206291485 196514342
L206362914 196442914
L206362914 196585771
" />
<path d="M207362914 195085771
L207505771 195085771
L207648628 195157200
L207720057 195228628
L207791485 195371485
L207862914 195657200
L207862914 196014342
L207791485 196300057
L207720057 196442914
L207648628 196514342
L207505771 196585771
L207362914 196585771
L207220057 196514342
L207148628 196442914
L207077200 196300057
L207005771 196014342
L207005771 195657200
L207077200 195371485
L207148628 195228628
L207220057 195157200
L207362914 195085771
" />
<path d="M208505771 196442914
L208577200 196514342
L208505771 196585771
L208434342 196514342
L208505771 196442914
L208505771 196585771
" />
<path d="M209934342 195085771
L209220057 195085771
L209148628 195800057
L209220057 195728628
L209362914 195657200
L209720057 195657200
L209862914 195728628
L209934342 195800057
L210005771 195942914
L210005771 196300057
L209934342 196442914
L209862914 196514342
L209720057 196585771
L209362914 196585771
L209220057 196514342
L209148628 196442914
" />
<path d="M210505771 197157200
L210577200 197085771
L210720057 196871485
L210791485 196728628
L210862914 196514342
L210934342 196157200
L210934342 195871485
L210862914 195514342
L210791485 195300057
L210720057 195157200
L210577200 194942914
L210505771 194871485
" />
</g></g>
<g style="fill:#000000; fill-opacity:0.0; 
stroke:#000000; stroke-width:21200.000000; stroke-opacity:1; 
stroke-linecap:round; stroke-linejoin:round;">
</g>
<g style="fill:#000000; fill-opacity:0.0; 
stroke:#000000; stroke-width:150000.000000; stroke-opacity:1; 
stroke-linecap:round; stroke-linejoin:round;">
<path d="M177002200 191507200
L285002200 191507200
" />
</g>
<g style="fill:#000000; fill-opacity:0.0; 
stroke:#000000; stroke-width:21200.000000; stroke-opacity:1; 
stroke-linecap:round; stroke-linejoin:round;">
</g>
<g style="fill:#000000; fill-opacity:0.0; 
stroke:#000000; stroke-width:300000.000000; stroke-opacity:1; 
stroke-linecap:round; stroke-linejoin:round;">
<text x="263002200.000000" y="193857200.000000"
textLength="5935714.000000" font-size="2000000.000000" lengthAdjust="spacingAndGlyphs"
text-anchor="start" opacity="0">Rev: </text>
<g class="stroked-text"><desc>Rev: </desc>
<path d="M264411485 193785771
L263911485 193071485
" />
<path d="M263554342 193785771
L263554342 192285771
L264125771 192285771
L264268628 192357200
L264340057 192428628
L264411485 192571485
L264411485 192785771
L264340057 192928628
L264268628 193000057
L264125771 193071485
L263554342 193071485
" />
<path d="M265625771 193714342
L265482914 193785771
L265197200 193785771
L265054342 193714342
L264982914 193571485
L264982914 193000057
L265054342 192857200
L265197200 192785771
L265482914 192785771
L265625771 192857200
L265697200 193000057
L265697200 193142914
L264982914 193285771
" />
<path d="M266197200 192785771
L266554342 193785771
L266911485 192785771
" />
<path d="M267482914 193642914
L267554342 193714342
L267482914 193785771
L267411485 193714342
L267482914 193642914
L267482914 193785771
" />
<path d="M267482914 192857200
L267554342 192928628
L267482914 193000057
L267411485 192928628
L267482914 192857200
L267482914 193000057
" />
</g></g>
<g style="fill:#000000; fill-opacity:0.0; 
stroke:#000000; stroke-width:21200.000000; stroke-opacity:1; 
stroke-linecap:round; stroke-linejoin:round;">
</g>
<g style="fill:#000000; fill-opacity:0.0; 
stroke:#000000; stroke-width:150000.000000; stroke-opacity:1; 
stroke-linecap:round; stroke-linejoin:round;">
<text x="178002200.000000" y="193857200.000000"
textLength="9604286.000000" font-size="2000000.000000" lengthAdjust="spacingAndGlyphs"
text-anchor="start" opacity="0">Size: A4</text>
<g class="stroked-text"><desc>Size: A4</desc>
<path d="M178362914 193714342
L178577200 193785771
L178934342 193785771
L179077200 193714342
L179148628 193642914
L179220057 193500057
L179220057 193357200
L179148628 193214342
L179077200 193142914
L178934342 193071485
L178648628 193000057
L178505771 192928628
L178434342 192857200
L178362914 192714342
L178362914 192571485
L178434342 192428628
L178505771 192357200
L178648628 192285771
L179005771 192285771
L179220057 192357200
" />
<path d="M179862914 193785771
L179862914 192785771
" />
<path d="M179862914 192285771
L179791485 192357200
L179862914 192428628
L179934342 192357200
L179862914 192285771
L179862914 192428628
" />
<path d="M180434342 192785771
L181220057 192785771
L180434342 193785771
L181220057 193785771
" />
<path d="M182362914 193714342
L182220057 193785771
L181934342 193785771
L181791485 193714342
L181720057 193571485
L181720057 193000057
L181791485 192857200
L181934342 192785771
L182220057 192785771
L182362914 192857200
L182434342 193000057
L182434342 193142914
L181720057 193285771
" />
<path d="M183077200 193642914
L183148628 193714342
L183077200 193785771
L183005771 193714342
L183077200 193642914
L183077200 193785771
" />
<path d="M183077200 192857200
L183148628 192928628
L183077200 193000057
L183005771 192928628
L183077200 192857200
L183077200 193000057
" />
<path d="M184862914 193357200
L185577200 193357200
" />
<path d="M184720057 193785771
L185220057 192285771
L185720057 193785771
" />
<path d="M186862914 192785771
L186862914 193785771
" />
<path d="M186505771 192214342
L186148628 193285771
L187077200 193285771
" />
</g></g>
<g style="fill:#000000; fill-opacity:0.0; 
stroke:#000000; stroke-width:21200.000000; stroke-opacity:1; 
stroke-linecap:round; stroke-linejoin:round;">
</g>
<g style="fill:#000000; fill-opacity:0.0; 
stroke:#000000; stroke-width:150000.000000; stroke-opacity:1; 
stroke-linecap:round; stroke-linejoin:round;">
<text x="263002200.000000" y="196657200.000000"
textLength="8507143.000000" font-size="2000000.000000" lengthAdjust="spacingAndGlyphs"
text-anchor="start" opacity="0">Id: 1/1</text>
<g class="stroked-text"><desc>Id: 1/1</desc>
<path d="M263434342 196585771
L263434342 195085771
" />
<path d="M264791485 196585771
L264791485 195085771
" />
<path d="M264791485 196514342
L264648628 196585771
L264362914 196585771
L264220057 196514342
L264148628 196442914
L264077200 196300057
L264077200 195871485
L264148628 195728628
L264220057 195657200
L264362914 195585771
L264648628 195585771
L264791485 195657200
" />
<path d="M265505771 196442914
L265577200 196514342
L265505771 196585771
L265434342 196514342
L265505771 196442914
L265505771 196585771
" />
<path d="M265505771 195657200
L265577200 195728628
L265505771 195800057
L265434342 195728628
L265505771 195657200
L265505771 195800057
" />
<path d="M268148628 196585771
L267291485 196585771
" />
<path d="M267720057 196585771
L267720057 195085771
L267577200 195300057
L267434342 195442914
L267291485 195514342
" />
<path d="M269862914 195014342
L268577200 196942914
" />
<path d="M271148628 196585771
L270291485 196585771
" />
<path d="M270720057 196585771
L270720057 195085771
L270577200 195300057
L270434342 195442914
L270291485 195514342
" />
</g></g>
<g style="fill:#000000; fill-opacity:0.0; 
stroke:#000000; stroke-width:21200.000000; stroke-opacity:1; 
stroke-linecap:round; stroke-linejoin:round;">
</g>
<g style="fill:#000000; fill-opacity:0.0; 
stroke:#000000; stroke-width:150000.000000; stroke-opacity:1; 
stroke-linecap:round; stroke-linejoin:round;">
<path d="M177002200 187507200
L285002200 187507200
" />
</g>
<g style="fill:#000000; fill-opacity:0.0; 
stroke:#000000; stroke-width:21200.000000; stroke-opacity:1; 
stroke-linecap:round; stroke-linejoin:round;">
</g>
<g style="fill:#000000; fill-opacity:0.0; 
stroke:#000000; stroke-width:400000.000000; stroke-opacity:1; 
stroke-linecap:round; stroke-linejoin:round;">
<text x="178002200.000000" y="190307200.000000"
textLength="9409643.000000" font-size="2666666.000000" lengthAdjust="spacingAndGlyphs"
text-anchor="start" opacity="0">Title: </text>
<g class="stroked-text"><desc>Title: </desc>
<path d="M178714580 188211961
L179857438 188211961
" />
<path d="M179036009 190211961
L179286009 188211961
" />
<path d="M180274104 190211961
L180440771 188878628
" />
<path d="M180524104 188211961
L180416961 188307200
L180500295 188402438
L180607438 188307200
L180524104 188211961
L180500295 188402438
" />
<path d="M181107438 188878628
L181869342 188878628
" />
<path d="M181476485 188211961
L181262200 189926247
L181333628 190116723
L181512200 190211961
L181702676 190211961
" />
<path d="M182655057 190211961
L182476485 190116723
L182405057 189926247
L182619342 188211961
" />
<path d="M184190771 190116723
L183988390 190211961
L183607438 190211961
L183428866 190116723
L183357438 189926247
L183452676 189164342
L183571723 188973866
L183774104 188878628
L184155057 188878628
L184333628 188973866
L184405057 189164342
L184381247 189354819
L183405057 189545295
" />
<path d="M185155057 190021485
L185238390 190116723
L185131247 190211961
L185047914 190116723
L185155057 190021485
L185131247 190211961
" />
<path d="M185286009 188973866
L185369342 189069104
L185262200 189164342
L185178866 189069104
L185286009 188973866
L185262200 189164342
" />
</g></g>
<g style="fill:#000000; fill-opacity:0.0; 
stroke:#000000; stroke-width:21200.000000; stroke-opacity:1; 
stroke-linecap:round; stroke-linejoin:round;">
</g>
<g style="fill:#000000; fill-opacity:0.0; 
stroke:#000000; stroke-width:150000.000000; stroke-opacity:1; 
stroke-linecap:round; stroke-linejoin:round;">
<text x="178002200.000000" y="186457200.000000"
textLength="47948571.000000" font-size="2000000.000000" lengthAdjust="spacingAndGlyphs"
text-anchor="start" opacity="0">File: phoenix45_alpha-rounded.kicad_pcb</text>
<g class="stroked-text"><desc>File: phoenix45_alpha-rounded.kicad_pcb</desc>
<path d="M178934342 185600057
L178434342 185600057
" />
<path d="M178434342 186385771
L178434342 184885771
L179148628 184885771
" />
<path d="M179720057 186385771
L179720057 185385771
" />
<path d="M179720057 184885771
L179648628 184957200
L179720057 185028628
L179791485 184957200
L179720057 184885771
L179720057 185028628
" />
<path d="M180648628 186385771
L180505771 186314342
L180434342 186171485
L180434342 184885771
" />
<path d="M181791485 186314342
L181648628 186385771
L181362914 186385771
L181220057 186314342
L181148628 186171485
L181148628 185600057
L181220057 185457200
L181362914 185385771
L181648628 185385771
L181791485 185457200
L181862914 185600057
L181862914 185742914
L181148628 185885771
" />
<path d="M182505771 186242914
L182577200 186314342
L182505771 186385771
L182434342 186314342
L182505771 186242914
L182505771 186385771
" />
<path d="M182505771 185457200
L182577200 185528628
L182505771 185600057
L182434342 185528628
L182505771 185457200
L182505771 185600057
" />
<path d="M184362914 185385771
L184362914 186885771
" />
<path d="M184362914 185457200
L184505771 185385771
L184791485 185385771
L184934342 185457200
L185005771 185528628
L185077200 185671485
L185077200 186100057
L185005771 186242914
L184934342 186314342
L184791485 186385771
L184505771 186385771
L184362914 186314342
" />
<path d="M185720057 186385771
L185720057 184885771
" />
<path d="M186362914 186385771
L186362914 185600057
L186291485 185457200
L186148628 185385771
L185934342 185385771
L185791485 185457200
L185720057 185528628
" />
<path d="M187291485 186385771
L187148628 186314342
L187077200 186242914
L187005771 186100057
L187005771 185671485
L187077200 185528628
L187148628 185457200
L187291485 185385771
L187505771 185385771
L187648628 185457200
L187720057 185528628
L187791485 185671485
L187791485 186100057
L187720057 186242914
L187648628 186314342
L187505771 186385771
L187291485 186385771
" />
<path d="M189005771 186314342
L188862914 186385771
L188577200 186385771
L188434342 186314342
L188362914 186171485
L188362914 185600057
L188434342 185457200
L188577200 185385771
L188862914 185385771
L189005771 185457200
L189077200 185600057
L189077200 185742914
L188362914 185885771
" />
<path d="M189720057 185385771
L189720057 186385771
" />
<path d="M189720057 185528628
L189791485 185457200
L189934342 185385771
L190148628 185385771
L190291485 185457200
L190362914 185600057
L190362914 186385771
" />
<path d="M191077200 186385771
L191077200 185385771
" />
<path d="M191077200 184885771
L191005771 184957200
L191077200 185028628
L191148628 184957200
L191077200 184885771
L191077200 185028628
" />
<path d="M191648628 186385771
L192434342 185385771
" />
<path d="M191648628 185385771
L192434342 186385771
" />
<path d="M193648628 185385771
L193648628 186385771
" />
<path d="M193291485 184814342
L192934342 185885771
L193862914 185885771
" />
<path d="M195148628 184885771
L194434342 184885771
L194362914 185600057
L194434342 185528628
L194577200 185457200
L194934342 185457200
L195077200 185528628
L195148628 185600057
L195220057 185742914
L195220057 186100057
L195148628 186242914
L195077200 186314342
L194934342 186385771
L194577200 186385771
L194434342 186314342
L194362914 186242914
" />
<path d="M195505771 186528628
L196648628 186528628
" />
<path d="M197648628 186385771
L197648628 185600057
L197577200 185457200
L197434342 185385771
L197148628 185385771
L197005771 185457200
" />
<path d="M197648628 186314342
L197505771 186385771
L197148628 186385771
L197005771 186314342
L196934342 186171485
L196934342 186028628
L197005771 185885771
L197148628 185814342
L197505771 185814342
L197648628 185742914
" />
<path d="M198577200 186385771
L198434342 186314342
L198362914 186171485
L198362914 184885771
" />
<path d="M199148628 185385771
L199148628 186885771
" />
<path d="M199148628 185457200
L199291485 185385771
L199577200 185385771
L199720057 185457200
L199791485 185528628
L199862914 185671485
L199862914 186100057
L199791485 186242914
L199720057 186314342
L199577200 186385771
L199291485 186385771
L199148628 186314342
" />
<path d="M200505771 186385771
L200505771 184885771
" />
<path d="M201148628 186385771
L201148628 185600057
L201077200 185457200
L200934342 185385771
L200720057 185385771
L200577200 185457200
L200505771 185528628
" />
<path d="M202505771 186385771
L202505771 185600057
L202434342 185457200
L202291485 185385771
L202005771 185385771
L201862914 185457200
" />
<path d="M202505771 186314342
L202362914 186385771
L202005771 186385771
L201862914 186314342
L201791485 186171485
L201791485 186028628
L201862914 185885771
L202005771 185814342
L202362914 185814342
L202505771 185742914
" />
<path d="M203220057 185814342
L204362914 185814342
" />
<path d="M205077200 186385771
L205077200 185385771
" />
<path d="M205077200 185671485
L205148628 185528628
L205220057 185457200
L205362914 185385771
L205505771 185385771
" />
<path d="M206220057 186385771
L206077200 186314342
L206005771 186242914
L205934342 186100057
L205934342 185671485
L206005771 185528628
L206077200 185457200
L206220057 185385771
L206434342 185385771
L206577200 185457200
L206648628 185528628
L206720057 185671485
L206720057 186100057
L206648628 186242914
L206577200 186314342
L206434342 186385771
L206220057 186385771
" />
<path d="M208005771 185385771
L208005771 186385771
" />
<path d="M207362914 185385771
L207362914 186171485
L207434342 186314342
L207577200 186385771
L207791485 186385771
L207934342 186314342
L208005771 186242914
" />
<path d="M208720057 185385771
L208720057 186385771
" />
<path d="M208720057 185528628
L208791485 185457200
L208934342 185385771
L209148628 185385771
L209291485 185457200
L209362914 185600057
L209362914 186385771
" />
<path d="M210720057 186385771
L210720057 184885771
" />
<path d="M210720057 186314342
L210577200 186385771
L210291485 186385771
L210148628 186314342
L210077200 186242914
L210005771 186100057
L210005771 185671485
L210077200 185528628
L210148628 185457200
L210291485 185385771
L210577200 185385771
L210720057 185457200
" />
<path d="M212005771 186314342
L211862914 186385771
L211577200 186385771
L211434342 186314342
L211362914 186171485
L211362914 185600057
L211434342 185457200
L211577200 185385771
L211862914 185385771
L212005771 185457200
L212077200 185600057
L212077200 185742914
L211362914 185885771
" />
<path d="M213362914 186385771
L213362914 184885771
" />
<path d="M213362914 186314342
L213220057 186385771
L212934342 186385771
L212791485 186314342
L212720057 186242914
L212648628 186100057
L212648628 185671485
L212720057 185528628
L212791485 185457200
L212934342 185385771
L213220057 185385771
L213362914 185457200
" />
<path d="M214077200 186242914
L214148628 186314342
L214077200 186385771
L214005771 186314342
L214077200 186242914
L214077200 186385771
" />
<path d="M214791485 186385771
L214791485 184885771
" />
<path d="M214934342 185814342
L215362914 186385771
" />
<path d="M215362914 185385771
L214791485 185957200
" />
<path d="M216005771 186385771
L216005771 185385771
" />
<path d="M216005771 184885771
L215934342 184957200
L216005771 185028628
L216077200 184957200
L216005771 184885771
L216005771 185028628
" />
<path d="M217362914 186314342
L217220057 186385771
L216934342 186385771
L216791485 186314342
L216720057 186242914
L216648628 186100057
L216648628 185671485
L216720057 185528628
L216791485 185457200
L216934342 185385771
L217220057 185385771
L217362914 185457200
" />
<path d="M218648628 186385771
L218648628 185600057
L218577200 185457200
L218434342 185385771
L218148628 185385771
L218005771 185457200
" />
<path d="M218648628 186314342
L218505771 186385771
L218148628 186385771
L218005771 186314342
L217934342 186171485
L217934342 186028628
L218005771 185885771
L218148628 185814342
L218505771 185814342
L218648628 185742914
" />
<path d="M220005771 186385771
L220005771 184885771
" />
<path d="M220005771 186314342
L219862914 186385771
L219577200 186385771
L219434342 186314342
L219362914 186242914
L219291485 186100057
L219291485 185671485
L219362914 185528628
L219434342 185457200
L219577200 185385771
L219862914 185385771
L220005771 185457200
" />
<path d="M220362914 186528628
L221505771 186528628
" />
<path d="M221862914 185385771
L221862914 186885771
" />
<path d="M221862914 185457200
L222005771 185385771
L222291485 185385771
L222434342 185457200
L222505771 185528628
L222577200 185671485
L222577200 186100057
L222505771 186242914
L222434342 186314342
L222291485 186385771
L222005771 186385771
L221862914 186314342
" />
<path d="M223862914 186314342
L223720057 186385771
L223434342 186385771
L223291485 186314342
L223220057 186242914
L223148628 186100057
L223148628 185671485
L223220057 185528628
L223291485 185457200
L223434342 185385771
L223720057 185385771
L223862914 185457200
" />
<path d="M224505771 186385771
L224505771 184885771
" />
<path d="M224505771 185457200
L224648628 185385771
L224934342 185385771
L225077200 185457200
L225148628 185528628
L225220057 185671485
L225220057 186100057
L225148628 186242914
L225077200 186314342
L224934342 186385771
L224648628 186385771
L224505771 186314342
" />
</g></g>
<g style="fill:#000000; fill-opacity:0.0; 
stroke:#000000; stroke-width:21200.000000; stroke-opacity:1; 
stroke-linecap:round; stroke-linejoin:round;">
</g>
<g style="fill:#000000; fill-opacity:0.0; 
stroke:#000000; stroke-width:150000.000000; stroke-opacity:1; 
stroke-linecap:round; stroke-linejoin:round;">
<path d="M177002200 181507200
L285002200 181507200
" />
</g>
<g style="fill:#000000; fill-opacity:0.0; 
stroke:#000000; stroke-width:21200.000000; stroke-opacity:1; 
stroke-linecap:round; stroke-linejoin:round;">
</g>
<g style="fill:#000000; fill-opacity:0.0; 
stroke:#000000; stroke-width:150000.000000; stroke-opacity:1; 
stroke-linecap:round; stroke-linejoin:round;">
<text x="178002200.000000" y="183757200.000000"
textLength="8221429.000000" font-size="2000000.000000" lengthAdjust="spacingAndGlyphs"
text-anchor="start" opacity="0">Sheet: </text>
<g class="stroked-text"><desc>Sheet: </desc>
<path d="M178362914 183614342
L178577200 183685771
L178934342 183685771
L179077200 183614342
L179148628 183542914
L179220057 183400057
L179220057 183257200
L179148628 183114342
L179077200 183042914
L178934342 182971485
L178648628 182900057
L178505771 182828628
L178434342 182757200
L178362914 182614342
L178362914 182471485
L178434342 182328628
L178505771 182257200
L178648628 182185771
L179005771 182185771
L179220057 182257200
" />
<path d="M179862914 183685771
L179862914 182185771
" />
<path d="M180505771 183685771
L180505771 182900057
L180434342 182757200
L180291485 182685771
L180077200 182685771
L179934342 182757200
L179862914 182828628
" />
<path d="M181791485 183614342
L181648628 183685771
L181362914 183685771
L181220057 183614342
L181148628 183471485
L181148628 182900057
L181220057 182757200
L181362914 182685771
L181648628 182685771
L181791485 182757200
L181862914 182900057
L181862914 183042914
L181148628 183185771
" />
<path d="M183077200 183614342
L182934342 183685771
L182648628 183685771
L182505771 183614342
L182434342 183471485
L182434342 182900057
L182505771 182757200
L182648628 182685771
L182934342 182685771
L183077200 182757200
L183148628 182900057
L183148628 183042914
L182434342 183185771
" />
<path d="M183577200 182685771
L184148628 182685771
" />
<path d="M183791485 182185771
L183791485 183471485
L183862914 183614342
L184005771 183685771
L184148628 183685771
" />
<path d="M184648628 183542914
L184720057 183614342
L184648628 183685771
L184577200 183614342
L184648628 183542914
L184648628 183685771
" />
<path d="M184648628 182757200
L184720057 182828628
L184648628 182900057
L184577200 182828628
L184648628 182757200
L184648628 182900057
" />
</g></g>
<g style="fill:#000000; fill-opacity:0.0; 
stroke:#000000; stroke-width:21200.000000; stroke-opacity:1; 
stroke-linecap:round; stroke-linejoin:round;">
</g>
<g style="fill:#000000; fill-opacity:0.0; 
stroke:#000000; stroke-width:300000.000000; stroke-opacity:1; 
stroke-linecap:round; stroke-linejoin:round;">
<text x="178002200.000000" y="180757200.000000"
textLength="150000.000000" font-size="2000000.000000" lengthAdjust="spacingAndGlyphs"
text-anchor="start" opacity="0"></text>
<g class="stroked-text"><desc></desc>
</g></g>
<g style="fill:#000000; fill-opacity:0.0; 
stroke:#000000; stroke-width:21200.000000; stroke-opacity:1; 
stroke-linecap:round; stroke-linejoin:round;">
</g>
<g style="fill:#000000; fill-opacity:0.0; 
stroke:#000000; stroke-width:150000.000000; stroke-opacity:1; 
stroke-linecap:round; stroke-linejoin:round;">
<text x="178002200.000000" y="177757200.000000"
textLength="300000.000000" font-size="2000000.000000" lengthAdjust="spacingAndGlyphs"
text-anchor="start" opacity="0"></text>
<g class="stroked-text"><desc></desc>
</g></g>
<g style="fill:#000000; fill-opacity:0.0; 
stroke:#000000; stroke-width:21200.000000; stroke-opacity:1; 
stroke-linecap:round; stroke-linejoin:round;">
</g>
<g style="fill:#000000; fill-opacity:0.0; 
stroke:#000000; stroke-width:150000.000000; stroke-opacity:1; 
stroke-linecap:round; stroke-linejoin:round;">
<text x="178002200.000000" y="174757200.000000"
textLength="150000.000000" font-size="2000000.000000" lengthAdjust="spacingAndGlyphs"
text-anchor="start" opacity="0"></text>
<g class="stroked-text"><desc></desc>
</g></g>
<g style="fill:#000000; fill-opacity:0.0; 
stroke:#000000; stroke-width:21200.000000; stroke-opacity:1; 
stroke-linecap:round; stroke-linejoin:round;">
</g>
<g style="fill:#000000; fill-opacity:0.0; 
stroke:#000000; stroke-width:150000.000000; stroke-opacity:1; 
stroke-linecap:round; stroke-linejoin:round;">
<text x="178002200.000000" y="171757200.000000"
textLength="150000.000000" font-size="2000000.000000" lengthAdjust="spacingAndGlyphs"
text-anchor="start" opacity="0"></text>
<g class="stroked-text"><desc></desc>
</g></g>
<g style="fill:#000000; fill-opacity:0.0; 
stroke:#000000; stroke-width:21200.000000; stroke-opacity:1; 
stroke-linecap:round; stroke-linejoin:round;">
</g>
<g style="fill:#000000; fill-opacity:0.0; 
stroke:#000000; stroke-width:150000.000000; stroke-opacity:1; 
stroke-linecap:round; stroke-linejoin:round;">
<text x="178002200.000000" y="168757200.000000"
textLength="150000.000000" font-size="2000000.000000" lengthAdjust="spacingAndGlyphs"
text-anchor="start" opacity="0"></text>
<g class="stroked-text"><desc></desc>
</g></g>
<g style="fill:#000000; fill-opacity:0.0; 
stroke:#000000; stroke-width:21200.000000; stroke-opacity:1; 
stroke-linecap:round; stroke-linejoin:round;">
</g>
<g style="fill:#000000; fill-opacity:0.0; 
stroke:#000000; stroke-width:150000.000000; stroke-opacity:1; 
stroke-linecap:round; stroke-linejoin:round;">
<path d="M197002200 191507200
L197002200 194507200
" />
</g>
<g style="fill:#000000; fill-opacity:0.0; 
stroke:#000000; stroke-width:21200.000000; stroke-opacity:1; 
stroke-linecap:round; stroke-linejoin:round;">
</g>
<g style="fill:#000000; fill-opacity:0.0; 
stroke:#000000; stroke-width:150000.000000; stroke-opacity:1; 
stroke-linecap:round; stroke-linejoin:round;">
<path d="M261002200 191507200
L261002200 198007200
" />
</g>
<g style="fill:#F2EDA1; fill-opacity:0.0; 
stroke:#F2EDA1; stroke-width:150000.000000; stroke-opacity:1; 
stroke-linecap:round; stroke-linejoin:round;">
<text x="82550000.000000" y="33043750.000000"
textLength="3197619.000000" font-size="1333333.000000" lengthAdjust="spacingAndGlyphs"
text-anchor="middle" opacity="0">SW2</text>
<g class="stroked-text"><desc>SW2</desc>
<path d="M81216666 32948511
L81359523 32996130
L81597619 32996130
L81692857 32948511
L81740476 32900892
L81788095 32805654
L81788095 32710416
L81740476 32615178
L81692857 32567559
L81597619 32519940
L81407142 32472321
L81311904 32424702
L81264285 32377083
L81216666 32281845
L81216666 32186607
L81264285 32091369
L81311904 32043750
L81407142 31996130
L81645238 31996130
L81788095 32043750
" />
<path d="M82121428 31996130
L82359523 32996130
L82550000 32281845
L82740476 32996130
L82978571 31996130
" />
<path d="M83311904 32091369
L83359523 32043750
L83454761 31996130
L83692857 31996130
L83788095 32043750
L83835714 32091369
L83883333 32186607
L83883333 32281845
L83835714 32424702
L83264285 32996130
L83883333 32996130
" />
</g><g transform="rotate(-90.000000 149100284.000000 68406106.000000)">
<text x="149100284.000000" y="68906106.000000"
textLength="4766429.000000" font-size="1333333.000000" lengthAdjust="spacingAndGlyphs"
text-anchor="middle" opacity="0">TPCLK</text>
</g>
<g class="stroked-text"><desc>TPCLK</desc>
<path d="M148552664 70596582
L148552664 70025153
" />
<path d="M149552664 70310867
L148552664 70310867
" />
<path d="M149552664 69691820
L148552664 69691820
L148552664 69310867
L148600284 69215629
L148647903 69168010
L148743141 69120391
L148885998 69120391
L148981236 69168010
L149028855 69215629
L149076474 69310867
L149076474 69691820
" />
<path d="M149457426 68120391
L149505045 68168010
L149552664 68310867
L149552664 68406106
L149505045 68548963
L149409807 68644201
L149314569 68691820
L149124093 68739439
L148981236 68739439
L148790760 68691820
L148695522 68644201
L148600284 68548963
L148552664 68406106
L148552664 68310867
L148600284 68168010
L148647903 68120391
" />
<path d="M149552664 67215629
L149552664 67691820
L148552664 67691820
" />
<path d="M149552664 66882296
L148552664 66882296
" />
<path d="M149552664 66310867
L148981236 66739439
" />
<path d="M148552664 66310867
L149124093 66882296
" />
</g><g transform="rotate(-90.000000 146751574.000000 68475477.000000)">
<text x="146751574.000000" y="68975477.000000"
textLength="5004524.000000" font-size="1333333.000000" lengthAdjust="spacingAndGlyphs"
text-anchor="middle" opacity="0">TPGND</text>
</g>
<g class="stroked-text"><desc>TPGND</desc>
<path d="M146203954 70785000
L146203954 70213572
" />
<path d="M147203954 70499286
L146203954 70499286
" />
<path d="M147203954 69880238
L146203954 69880238
L146203954 69499286
L146251574 69404048
L146299193 69356429
L146394431 69308810
L146537288 69308810
L146632526 69356429
L146680145 69404048
L146727764 69499286
L146727764 69880238
" />
<path d="M146251574 68356429
L146203954 68451667
L146203954 68594524
L146251574 68737381
L146346812 68832619
L146442050 68880238
L146632526 68927857
L146775383 68927857
L146965859 68880238
L147061097 68832619
L147156335 68737381
L147203954 68594524
L147203954 68499286
L147156335 68356429
L147108716 68308810
L146775383 68308810
L146775383 68499286
" />
<path d="M147203954 67880238
L146203954 67880238
L147203954 67308810
L146203954 67308810
" />
<path d="M147203954 66832619
L146203954 66832619
L146203954 66594524
L146251574 66451667
L146346812 66356429
L146442050 66308810
L146632526 66261191
L146775383 66261191
L146965859 66308810
L147061097 66356429
L147156335 66451667
L147203954 66594524
L147203954 66832619
" />
</g><g transform="rotate(-90.000000 144293851.000000 68366465.000000)">
<text x="144293851.000000" y="68866465.000000"
textLength="4814048.000000" font-size="1333333.000000" lengthAdjust="spacingAndGlyphs"
text-anchor="middle" opacity="0">TPVCC</text>
</g>
<g class="stroked-text"><desc>TPVCC</desc>
<path d="M143746231 70580750
L143746231 70009322
" />
<path d="M144746231 70295036
L143746231 70295036
" />
<path d="M144746231 69675988
L143746231 69675988
L143746231 69295036
L143793851 69199798
L143841470 69152179
L143936708 69104560
L144079565 69104560
L144174803 69152179
L144222422 69199798
L144270041 69295036
L144270041 69675988
" />
<path d="M143746231 68818845
L144746231 68485512
L143746231 68152179
" />
<path d="M144650993 67247417
L144698612 67295036
L144746231 67437893
L144746231 67533131
L144698612 67675988
L144603374 67771226
L144508136 67818845
L144317660 67866465
L144174803 67866465
L143984327 67818845
L143889089 67771226
L143793851 67675988
L143746231 67533131
L143746231 67437893
L143793851 67295036
L143841470 67247417
" />
<path d="M144650993 66247417
L144698612 66295036
L144746231 66437893
L144746231 66533131
L144698612 66675988
L144603374 66771226
L144508136 66818845
L144317660 66866465
L144174803 66866465
L143984327 66818845
L143889089 66771226
L143793851 66675988
L143746231 66533131
L143746231 66437893
L143793851 66295036
L143841470 66247417
" />
</g><text x="144462500.000000" y="63206250.000000"
textLength="2147381.000000" font-size="1333333.000000" lengthAdjust="spacingAndGlyphs"
text-anchor="middle" opacity="0">C9</text>
<g class="stroked-text"><desc>C9</desc>
<path d="M144295833 63063392
L144248214 63111011
L144105357 63158630
L144010119 63158630
L143867261 63111011
L143772023 63015773
L143724404 62920535
L143676785 62730059
L143676785 62587202
L143724404 62396726
L143772023 62301488
L143867261 62206250
L144010119 62158630
L144105357 62158630
L144248214 62206250
L144295833 62253869
" />
<path d="M144772023 63158630
L144962500 63158630
L145057738 63111011
L145105357 63063392
L145200595 62920535
L145248214 62730059
L145248214 62349107
L145200595 62253869
L145152976 62206250
L145057738 62158630
L144867261 62158630
L144772023 62206250
L144724404 62253869
L144676785 62349107
L144676785 62587202
L144724404 62682440
L144772023 62730059
L144867261 62777678
L145057738 62777678
L145152976 62730059
L145200595 62682440
L145248214 62587202
" />
</g><text x="153987500.000000" y="63206250.000000"
textLength="3195000.000000" font-size="1333333.000000" lengthAdjust="spacingAndGlyphs"
text-anchor="middle" opacity="0">UR8</text>
<g class="stroked-text"><desc>UR8</desc>
<path d="M152725595 62158630
L152725595 62968154
L152773214 63063392
L152820833 63111011
L152916071 63158630
L153106547 63158630
L153201785 63111011
L153249404 63063392
L153297023 62968154
L153297023 62158630
" />
<path d="M154344642 63158630
L154011309 62682440
" />
<path d="M153773214 63158630
L153773214 62158630
L154154166 62158630
L154249404 62206250
L154297023 62253869
L154344642 62349107
L154344642 62491964
L154297023 62587202
L154249404 62634821
L154154166 62682440
L153773214 62682440
" />
<path d="M154916071 62587202
L154820833 62539583
L154773214 62491964
L154725595 62396726
L154725595 62349107
L154773214 62253869
L154820833 62206250
L154916071 62158630
L155106547 62158630
L155201785 62206250
L155249404 62253869
L155297023 62349107
L155297023 62396726
L155249404 62491964
L155201785 62539583
L155106547 62587202
L154916071 62587202
L154820833 62634821
L154773214 62682440
L154725595 62777678
L154725595 62968154
L154773214 63063392
L154820833 63111011
L154916071 63158630
L155106547 63158630
L155201785 63111011
L155249404 63063392
L155297023 62968154
L155297023 62777678
L155249404 62682440
L155201785 62634821
L155106547 62587202
" />
</g><g transform="rotate(-90.000000 151508456.000000 68564668.000000)">
<text x="151508456.000000" y="69064668.000000"
textLength="4671190.000000" font-size="1333333.000000" lengthAdjust="spacingAndGlyphs"
text-anchor="middle" opacity="0">TPRST</text>
</g>
<g class="stroked-text"><desc>TPRST</desc>
<path d="M150960836 70707525
L150960836 70136096
" />
<path d="M151960836 70421810
L150960836 70421810
" />
<path d="M151960836 69802763
L150960836 69802763
L150960836 69421810
L151008456 69326572
L151056075 69278953
L151151313 69231334
L151294170 69231334
L151389408 69278953
L151437027 69326572
L151484646 69421810
L151484646 69802763
" />
<path d="M151960836 68231334
L151484646 68564668
" />
<path d="M151960836 68802763
L150960836 68802763
L150960836 68421810
L151008456 68326572
L151056075 68278953
L151151313 68231334
L151294170 68231334
L151389408 68278953
L151437027 68326572
L151484646 68421810
L151484646 68802763
" />
<path d="M151913217 67850382
L151960836 67707525
L151960836 67469429
L151913217 67374191
L151865598 67326572
L151770360 67278953
L151675122 67278953
L151579884 67326572
L151532265 67374191
L151484646 67469429
L151437027 67659906
L151389408 67755144
L151341789 67802763
L151246551 67850382
L151151313 67850382
L151056075 67802763
L151008456 67755144
L150960836 67659906
L150960836 67421810
L151008456 67278953
" />
<path d="M150960836 66993239
L150960836 66421810
" />
<path d="M151960836 66707525
L150960836 66707525
" />
</g><g transform="rotate(-90.000000 153916628.000000 68891704.000000)">
<text x="153916628.000000" y="69391704.000000"
textLength="5433095.000000" font-size="1333333.000000" lengthAdjust="spacingAndGlyphs"
text-anchor="middle" opacity="0">TPDATA</text>
</g>
<g class="stroked-text"><desc>TPDATA</desc>
<path d="M153369008 71415513
L153369008 70844084
" />
<path d="M154369008 71129799
L153369008 71129799
" />
<path d="M154369008 70510751
L153369008 70510751
L153369008 70129799
L153416628 70034561
L153464247 69986942
L153559485 69939323
L153702342 69939323
L153797580 69986942
L153845199 70034561
L153892818 70129799
L153892818 70510751
" />
<path d="M154369008 69510751
L153369008 69510751
L153369008 69272656
L153416628 69129799
L153511866 69034561
L153607104 68986942
L153797580 68939323
L153940437 68939323
L154130913 68986942
L154226151 69034561
L154321389 69129799
L154369008 69272656
L154369008 69510751
" />
<path d="M154083294 68558370
L154083294 68082180
" />
<path d="M154369008 68653608
L153369008 68320275
L154369008 67986942
" />
<path d="M153369008 67796465
L153369008 67225037
" />
<path d="M154369008 67510751
L153369008 67510751
" />
<path d="M154083294 66939323
L154083294 66463132
" />
<path d="M154369008 67034561
L153369008 66701227
L154369008 66367894
" />
</g><text x="154098196.000000" y="60031250.000000"
textLength="3195000.000000" font-size="1333333.000000" lengthAdjust="spacingAndGlyphs"
text-anchor="middle" opacity="0">UR7</text>
<g class="stroked-text"><desc>UR7</desc>
<path d="M152836291 58983630
L152836291 59793154
L152883910 59888392
L152931529 59936011
L153026767 59983630
L153217243 59983630
L153312481 59936011
L153360100 59888392
L153407719 59793154
L153407719 58983630
" />
<path d="M154455338 59983630
L154122005 59507440
" />
<path d="M153883910 59983630
L153883910 58983630
L154264862 58983630
L154360100 59031250
L154407719 59078869
L154455338 59174107
L154455338 59316964
L154407719 59412202
L154360100 59459821
L154264862 59507440
L153883910 59507440
" />
<path d="M154788672 58983630
L155455338 58983630
L155026767 59983630
" />
</g><text x="149225000.000000" y="31151250.000000"
textLength="3956905.000000" font-size="1333333.000000" lengthAdjust="spacingAndGlyphs"
text-anchor="middle" opacity="0">OLED</text>
<g class="stroked-text"><desc>OLED</desc>
<path d="M147772619 30103630
L147963095 30103630
L148058333 30151250
L148153571 30246488
L148201190 30436964
L148201190 30770297
L148153571 30960773
L148058333 31056011
L147963095 31103630
L147772619 31103630
L147677380 31056011
L147582142 30960773
L147534523 30770297
L147534523 30436964
L147582142 30246488
L147677380 30151250
L147772619 30103630
" />
<path d="M149105952 31103630
L148629761 31103630
L148629761 30103630
" />
<path d="M149439285 30579821
L149772619 30579821
" />
<path d="M149915476 31103630
L149439285 31103630
L149439285 30103630
L149915476 30103630
" />
<path d="M150344047 31103630
L150344047 30103630
L150582142 30103630
L150725000 30151250
L150820238 30246488
L150867857 30341726
L150915476 30532202
L150915476 30675059
L150867857 30865535
L150820238 30960773
L150725000 31056011
L150582142 31103630
L150344047 31103630
" />
</g><text x="144337035.000000" y="60031250.000000"
textLength="3195000.000000" font-size="1333333.000000" lengthAdjust="spacingAndGlyphs"
text-anchor="middle" opacity="0">UR6</text>
<g class="stroked-text"><desc>UR6</desc>
<path d="M143075130 58983630
L143075130 59793154
L143122749 59888392
L143170368 59936011
L143265606 59983630
L143456082 59983630
L143551320 59936011
L143598939 59888392
L143646558 59793154
L143646558 58983630
" />
<path d="M144694177 59983630
L144360844 59507440
" />
<path d="M144122749 59983630
L144122749 58983630
L144503701 58983630
L144598939 59031250
L144646558 59078869
L144694177 59174107
L144694177 59316964
L144646558 59412202
L144598939 59459821
L144503701 59507440
L144122749 59507440
" />
<path d="M145551320 58983630
L145360844 58983630
L145265606 59031250
L145217987 59078869
L145122749 59221726
L145075130 59412202
L145075130 59793154
L145122749 59888392
L145170368 59936011
L145265606 59983630
L145456082 59983630
L145551320 59936011
L145598939 59888392
L145646558 59793154
L145646558 59555059
L145598939 59459821
L145551320 59412202
L145456082 59364583
L145265606 59364583
L145170368 59412202
L145122749 59459821
L145075130 59555059
" />
</g></g>
<g style="fill:#F2EDA1; fill-opacity:0.0; 
stroke:#F2EDA1; stroke-width:120000.000000; stroke-opacity:1; 
stroke-linecap:round; stroke-linejoin:round;">
<path d="M83590000 40026250
L81510000 40026250
" />
<path d="M79830000 38756250
L79830000 35856250
" />
<path d="M85270000 38756250
L84780000 39246250
" />
<path d="M83590000 34586250
L81510000 34586250
" />
<path d="M79830000 35856250
L80320000 35366250
" />
<path d="M85270000 35856250
L84780000 35366250
" />
<path d="M85270000 38756250
L85270000 35856250
" />
<path d="M79830000 38756250
L80320000 39246250
" />
<path d="M148373636 65825839
L148373636 64425839
" />
<path d="M148373636 64425839
L149773636 64425839
" />
<path d="M149773636 64425839
L149773636 65825839
" />
<path d="M149773636 65825839
L148373636 65825839
" />
<path d="M147392386 64425839
L147392386 65825839
" />
<path d="M147392386 65825839
L145992386 65825839
" />
<path d="M145992386 64425839
L147392386 64425839
" />
<path d="M145992386 65825839
L145992386 64425839
" />
<path d="M145011136 64425839
L145011136 65825839
" />
<path d="M143611136 64425839
L145011136 64425839
" />
<path d="M143611136 65825839
L143611136 64425839
" />
<path d="M145011136 65825839
L143611136 65825839
" />
<path d="M149812817 63793044
L148972817 63793044
" />
<path d="M149145817 64393044
L147119817 64393044
" />
<path d="M150199817 62792044
L148972817 62792044
" />
<path d="M149684817 63953044
L148972817 63953044
" />
<path d="M149648817 63993044
L148972817 63993044
" />
<path d="M147292817 62672044
L146055817 62672044
" />
<path d="M147292817 63072044
L146116817 63072044
" />
<path d="M150137817 63112044
L148972817 63112044
" />
<path d="M148669817 64593044
L147595817 64593044
" />
<path d="M150157817 63032044
L148972817 63032044
" />
<path d="M149782817 63833044
L148972817 63833044
" />
<path d="M150212817 62592044
L148972817 62592044
" />
<path d="M147292817 62872044
L146076817 62872044
" />
<path d="M147292817 63032044
L146107817 63032044
" />
<path d="M150182817 62912044
L148972817 62912044
" />
<path d="M150203817 62752044
L148972817 62752044
" />
<path d="M148991817 64473044
L147273817 64473044
" />
<path d="M147292817 63793044
L146452817 63793044
" />
<path d="M149327817 60282243
L149327817 60682243
" />
<path d="M148502817 64633044
L147762817 64633044
" />
<path d="M150212817 62552044
L148972817 62552044
" />
<path d="M149332817 64273044
L146932817 64273044
" />
<path d="M150188817 62872044
L148972817 62872044
" />
<path d="M149528817 64113044
L148972817 64113044
" />
<path d="M149483817 64153044
L146781817 64153044
" />
<path d="M147292817 63112044
L146127817 63112044
" />
<path d="M149940817 63593044
L148972817 63593044
" />
<path d="M149072817 64433044
L147192817 64433044
" />
<path d="M147292817 62592044
L146052817 62592044
" />
<path d="M150194817 62832044
L148972817 62832044
" />
<path d="M150039817 63393044
L148972817 63393044
" />
<path d="M147292817 62712044
L146058817 62712044
" />
<path d="M147292817 63473044
L146262817 63473044
" />
<path d="M147292817 63313044
L146192817 63313044
" />
<path d="M147292817 63753044
L146424817 63753044
" />
<path d="M150211817 62632044
L148972817 62632044
" />
<path d="M148796817 64553044
L147468817 64553044
" />
<path d="M149386817 64233044
L146878817 64233044
" />
<path d="M150126817 63152044
L148972817 63152044
" />
<path d="M147292817 62552044
L146052817 62552044
" />
<path d="M149212817 64353044
L147052817 64353044
" />
<path d="M150206817 62712044
L148972817 62712044
" />
<path d="M147292817 63273044
L146178817 63273044
" />
<path d="M149892817 63673044
L148972817 63673044
" />
<path d="M149274817 64313044
L146990817 64313044
" />
<path d="M147292817 62792044
L146065817 62792044
" />
<path d="M149867817 63713044
L148972817 63713044
" />
<path d="M150021817 63433044
L148972817 63433044
" />
<path d="M148900817 64513044
L147364817 64513044
" />
<path d="M147292817 63673044
L146372817 63673044
" />
<path d="M147292817 63152044
L146138817 63152044
" />
<path d="M147292817 62912044
L146082817 62912044
" />
<path d="M147292817 63232044
L146164817 63232044
" />
<path d="M147292817 62832044
L146070817 62832044
" />
<path d="M149840817 63753044
L148972817 63753044
" />
<path d="M150174817 62952044
L148972817 62952044
" />
<path d="M147292817 63393044
L146225817 63393044
" />
<path d="M150166817 62992044
L148972817 62992044
" />
<path d="M147292817 64113044
L146736817 64113044
" />
<path d="M147292817 64033044
L146654817 64033044
" />
<path d="M149719817 63913044
L148972817 63913044
" />
<path d="M150100817 63232044
L148972817 63232044
" />
<path d="M150114817 63192044
L148972817 63192044
" />
<path d="M147292817 63873044
L146513817 63873044
" />
<path d="M149527817 60482243
L149127817 60482243
" />
<path d="M147292817 62952044
L146090817 62952044
" />
<path d="M147292817 63713044
L146397817 63713044
" />
<path d="M150148817 63072044
L148972817 63072044
" />
<path d="M147292817 62992044
L146098817 62992044
" />
<path d="M147292817 63833044
L146482817 63833044
" />
<path d="M147292817 62752044
L146061817 62752044
" />
<path d="M149436817 64193044
L146828817 64193044
" />
<path d="M147292817 63353044
L146208817 63353044
" />
<path d="M147292817 63953044
L146580817 63953044
" />
<path d="M147292817 63593044
L146324817 63593044
" />
<path d="M150086817 63273044
L148972817 63273044
" />
<path d="M147292817 63633044
L146347817 63633044
" />
<path d="M147292817 63433044
L146243817 63433044
" />
<path d="M147292817 63553044
L146302817 63553044
" />
<path d="M149917817 63633044
L148972817 63633044
" />
<path d="M149570817 64073044
L148972817 64073044
" />
<path d="M149610817 64033044
L148972817 64033044
" />
<path d="M147292817 63913044
L146545817 63913044
" />
<path d="M150002817 63473044
L148972817 63473044
" />
<path d="M147292817 63192044
L146150817 63192044
" />
<path d="M149962817 63553044
L148972817 63553044
" />
<path d="M147292817 63993044
L146616817 63993044
" />
<path d="M147292817 62632044
L146053817 62632044
" />
<path d="M150072817 63313044
L148972817 63313044
" />
<path d="M149983817 63513044
L148972817 63513044
" />
<path d="M147292817 63513044
L146281817 63513044
" />
<path d="M147292817 64073044
L146694817 64073044
" />
<path d="M150056817 63353044
L148972817 63353044
" />
<path d="M150209817 62672044
L148972817 62672044
" />
<path d="M149751817 63873044
L148972817 63873044
" />
<circle cx="148132817.000000" cy="62552044.000000" r="2120000.000000" /> 
<path d="M150847081 61197507
L157387081 61197507
" />
<path d="M150847081 63937507
L157387081 63937507
" />
<path d="M150847081 63607507
L150847081 63937507
" />
<path d="M157387081 61197507
L157387081 61527507
" />
<path d="M157387081 63937507
L157387081 63607507
" />
<path d="M150847081 61527507
L150847081 61197507
" />
<path d="M152154886 64425839
L152154886 65825839
" />
<path d="M150754886 65825839
L150754886 64425839
" />
<path d="M150754886 64425839
L152154886 64425839
" />
<path d="M152154886 65825839
L150754886 65825839
" />
<path d="M154536136 64425839
L154536136 65825839
" />
<path d="M153136136 65825839
L153136136 64425839
" />
<path d="M153136136 64425839
L154536136 64425839
" />
<path d="M154536136 65825839
L153136136 65825839
" />
<path d="M157368196 58422814
L157368196 58092814
" />
<path d="M150828196 60832814
L150828196 60502814
" />
<path d="M157368196 58092814
L150828196 58092814
" />
<path d="M157368196 60832814
L150828196 60832814
" />
<path d="M150828196 58092814
L150828196 58422814
" />
<path d="M157368196 60502814
L157368196 60832814
" />
<path d="M147607035 58422814
L147607035 58092814
" />
<path d="M141067035 60832814
L141067035 60502814
" />
<path d="M147607035 60502814
L147607035 60832814
" />
<path d="M147607035 58092814
L141067035 58092814
" />
<path d="M141067035 58092814
L141067035 58422814
" />
<path d="M147607035 60832814
L141067035 60832814
" />
<g >
</g>
<g >
</g>
<g >
</g>
<g >
</g>
<g >
</g>
<g >
</g>
<g >
</g>
<g >
</g>
<g >
</g>
<g >
</g>
<g >
</g>
<g >
</g>
<g >
</g>
<g >
</g>
<g >
</g>
<g >
</g>
<g >
</g>
<g >
</g>
<g >
</g>
<g >
</g>
<g >
</g>
<g >
</g>
<g >
</g>
<g >
</g>
<g >
</g>
<g >
</g>
<g >
</g>
<g >
</g>
<g >
</g>
<g >
</g>
<g >
</g>
<g >
</g>
<g >
</g>
<g >
</g>
<g >
</g>
<g >
</g>
<g >
</g>
<g >
</g>
<g >
</g>
<g >
</g>
<g >
</g>
<g >
</g>
<g >
</g>
<g >
</g>
<g >
</g>
<g >
</g>
<g style="fill:#000000; fill-opacity:0.0; 
stroke:#000000; stroke-width:120000.000000; stroke-opacity:1; 
stroke-linecap:round; stroke-linejoin:round;">
</g>
<g style="fill:#000000; fill-opacity:1.0; 
stroke:#000000; stroke-width:1.000000; stroke-opacity:1; 
stroke-linecap:round; stroke-linejoin:round;">
<circle cx="153035000.000000" cy="29101250.000000" r="698500.000000" /> 
</g>
<g style="fill:#000000; fill-opacity:1.0; 
stroke:#000000; stroke-width:21200.000000; stroke-opacity:1; 
stroke-linecap:round; stroke-linejoin:round;">
</g>
<g style="fill:#000000; fill-opacity:1.0; 
stroke:#000000; stroke-width:1.000000; stroke-opacity:1; 
stroke-linecap:round; stroke-linejoin:round;">
<circle cx="150495000.000000" cy="29101250.000000" r="698500.000000" /> 
</g>
<g style="fill:#000000; fill-opacity:1.0; 
stroke:#000000; stroke-width:21200.000000; stroke-opacity:1; 
stroke-linecap:round; stroke-linejoin:round;">
</g>
<g style="fill:#000000; fill-opacity:1.0; 
stroke:#000000; stroke-width:1.000000; stroke-opacity:1; 
stroke-linecap:round; stroke-linejoin:round;">
<circle cx="147955000.000000" cy="29101250.000000" r="698500.000000" /> 
</g>
<g style="fill:#000000; fill-opacity:1.0; 
stroke:#000000; stroke-width:21200.000000; stroke-opacity:1; 
stroke-linecap:round; stroke-linejoin:round;">
</g>
<g style="fill:#000000; fill-opacity:1.0; 
stroke:#000000; stroke-width:1.000000; stroke-opacity:1; 
stroke-linecap:round; stroke-linejoin:round;">
<circle cx="145415000.000000" cy="29101250.000000" r="698500.000000" /> 
</g>
<g style="fill:#000000; fill-opacity:1.0; 
stroke:#000000; stroke-width:21200.000000; stroke-opacity:1; 
stroke-linecap:round; stroke-linejoin:round;">
</g>
<g >
</g>
<g >
</g>
<g >
</g>
<g >
</g>
<g >
</g>
<g >
</g>
<g >
</g>
<g >
</g>
<g >
</g>
<g >
</g>
<g >
</g>
<g >
</g>
<g >
</g>
<g >
</g>
<g >
</g>
<g >
</g>
<g >
</g>
<g >
</g>
<g >
</g>
<g >
</g>
<g >
</g>
<g >
</g>
<g >
</g>
<g >
</g>
<g >
</g>
<g >
</g>
<g >
</g>
<g >
</g>
<g >
</g>
<g >
</g>
<g >
</g>
<g >
</g>
<g >
</g>
<g >
</g>
<g >
</g>
<g >
</g>
<g >
</g>
<g >
</g>
<g >
</g>
<g >
</g>
<g >
</g>
<g >
</g>
<g >
</g>
<g >
</g>
<g >
</g>
<g >
</g>
<g >
</g>
<g >
</g>
<g >
</g>
<g >
</g>
<g >
</g>
<g >
</g>
<g >
</g>
<g >
</g>
<g >
</g>
<g >
</g>
<g >
</g>
<g >
</g>
<g >
</g>
<g >
</g>
<g >
</g>
<g >
</g>
<g >
</g>
<g >
</g>
<g >
</g>
<g >
</g>
<g >
</g>
<g >
</g>
<g >
</g>
<g >
</g>
<g >
</g>
<g >
</g>
<g >
</g>
<g >
</g>
<g >
</g>
<g >
</g>
<g >
</g>
<g >
</g>
<g >
</g>
<g >
</g>
<g >
</g>
<g >
</g>
</g>
<g style="fill:#000000; fill-opacity:1.0; 
stroke:#000000; stroke-width:21200.000000; stroke-opacity:1; 
stroke-linecap:round; stroke-linejoin:round;">
</g>
<g style="fill:#D0D2CD; fill-opacity:1.0; 
stroke:#D0D2CD; stroke-width:21200.000000; stroke-opacity:1; 
stroke-linecap:round; stroke-linejoin:round;">
</g>
<g style="fill:#D0D2CD; fill-opacity:0.0; 
stroke:#D0D2CD; stroke-width:90000.000000; stroke-opacity:1; 
stroke-linecap:round; stroke-linejoin:round;">
<path d="M48713455.000000,26405375.000000 C48713455.000000,26405375.000000 40213436.000000,26405375.000000 40213436.000000,26405375.000000" />
<path d="M271063342.000000,103905382.000000 C271063342.000000,103905382.000000 271063449.000000,103905382.000000 271063449.000000,103905382.000000" />
<path d="M273063435.000000,101905375.000000 C273063435.000000,101905375.000000 273063435.000000,29705367.000000 273063435.000000,29705367.000000" />
<path d="M27413334.000000,103905382.000000 C27413334.000000,103905382.000000 27413442.000000,103905382.000000 27413442.000000,103905382.000000" />
<path d="M25413327.000000,101905375.000000 C25413327.000000,103009937.000000 26308772.000000,103905382.000000 27413334.000000,103905382.000000" />
<path d="M39713445.000000,27546751.000000 C39712010.000000,27561194.000000 39705107.000000,27612951.000000 39661407.000000,27655579.000000" />
<path d="M49213446.000000,27550433.000000 C49213446.000000,27550433.000000 49213446.000000,26905366.000000 49213446.000000,26905366.000000" />
<path d="M271063449.000000,103905382.000000 C272168012.000000,103905382.000000 273063435.000000,103009937.000000 273063435.000000,101905375.000000" />
<path d="M49362102.000000,27705382.000000 C49350841.000000,27704569.000000 49294387.000000,27699331.000000 49252352.000000,27650966.000000" />
<path d="M25413327.000000,29705367.000000 C25413327.000000,29705367.000000 25413327.000000,101905375.000000 25413327.000000,101905375.000000" />
<path d="M271063342.000000,27705382.000000 C271063342.000000,27705382.000000 49362102.000000,27705382.000000 49362102.000000,27705382.000000" />
<path d="M40213436.000000,26405375.000000 C39937312.000000,26405375.000000 39713445.000000,26629242.000000 39713445.000000,26905366.000000" />
<path d="M27413334.000000,27705382.000000 C26308772.000000,27705382.000000 25413327.000000,28600805.000000 25413327.000000,29705367.000000" />
<path d="M273063435.000000,29705367.000000 C273063435.000000,28600805.000000 272168012.000000,27705382.000000 271063449.000000,27705382.000000" />
<path d="M49252352.000000,27650966.000000 C49216787.000000,27610044.000000 49213826.000000,27563891.000000 49213446.000000,27550433.000000" />
<path d="M27413442.000000,27705382.000000 C27413442.000000,27705382.000000 27413334.000000,27705382.000000 27413334.000000,27705382.000000" />
<path d="M39713445.000000,26905366.000000 C39713445.000000,26905366.000000 39713445.000000,27546751.000000 39713445.000000,27546751.000000" />
<path d="M39535971.000000,27705382.000000 C39535971.000000,27705382.000000 27413442.000000,27705382.000000 27413442.000000,27705382.000000" />
<path d="M271063449.000000,27705382.000000 C271063449.000000,27705382.000000 271063342.000000,27705382.000000 271063342.000000,27705382.000000" />
<path d="M49213446.000000,26905366.000000 C49213446.000000,26629242.000000 48989580.000000,26405375.000000 48713455.000000,26405375.000000" />
<path d="M27413442.000000,103905382.000000 C27413442.000000,103905382.000000 271063342.000000,103905382.000000 271063342.000000,103905382.000000" />
<path d="M39661407.000000,27655579.000000 C39610791.000000,27704951.000000 39548296.000000,27705522.000000 39535971.000000,27705382.000000" />
<g >
</g>
<g >
</g>
<g >
</g>
<g >
</g>
<g >
</g>
<g >
</g>
<g >
</g>
<g >
</g>
<g >
</g>
<g >
</g>
<g >
</g>
<g >
</g>
<g >
</g>
<g >
</g>
<g >
</g>
<g >
</g>
<g >
</g>
<g >
</g>
<g >
</g>
<g >
</g>
<g >
</g>
<g >
</g>
<g >
</g>
<g >
</g>
<g >
</g>
<g >
</g>
<g >
</g>
<g >
</g>
<g >
</g>
<g >
</g>
<g >
</g>
<g >
</g>
<g >
</g>
<g >
</g>
<g >
</g>
<g >
</g>
<g >
</g>
<g >
</g>
<g >
</g>
<g >
</g>
<g >
</g>
<g >
</g>
<g >
</g>
<g >
</g>
<g >
</g>
<g >
</g>
<g >
</g>
<g >
</g>
<g >
</g>
<g >
</g>
<g >
</g>
<g >
</g>
<g >
</g>
<g >
</g>
<g >
</g>
<g >
</g>
<g >
</g>
<g >
</g>
<g >
</g>
<g >
</g>
<g >
</g>
<g >
</g>
<g >
</g>
<g >
</g>
<g >
</g>
<g >
</g>
<g >
</g>
<g >
</g>
<g >
</g>
<g >
</g>
<g >
</g>
<g >
</g>
<g >
</g>
<g >
</g>
<g >
</g>
<g >
</g>
<g >
</g>
<g >
</g>
<g >
</g>
<g >
</g>
<g >
</g>
<g >
</g>
<g >
</g>
<g >
</g>
<g >
</g>
<g >
</g>
<g >
</g>
<g >
</g>
<g >
</g>
<g >
</g>
<g >
</g>
<g >
</g>
<g >
</g>
<g >
</g>
<g >
</g>
<g >
</g>
<g >
</g>
<g >
</g>
<g >
</g>
<g >
</g>
<g >
</g>
<g >
</g>
<g >
</g>
<g >
</g>
<g >
</g>
<g >
</g>
<g >
</g>
<g >
</g>
<g >
</g>
<g >
</g>
<g >
</g>
<g >
</g>
<g >
</g>
<g >
</g>
<g >
</g>
<g >
</g>
<g >
</g>
<g >
</g>
<g >
</g>
<g >
</g>
<g >
</g>
<g >
</g>
<g >
</g>
<g >
</g>
<g >
</g>
<g >
</g>
<g >
</g>
<g >
</g>
</g> 
</svg>
