<?xml version="1.0" standalone="no"?>
 <!DOCTYPE svg PUBLIC "-//W3C//DTD SVG 1.1//EN" 
 "http://www.w3.org/Graphics/SVG/1.1/DTD/svg11.dtd"> 
<svg
  xmlns:svg="http://www.w3.org/2000/svg"
  xmlns="http://www.w3.org/2000/svg"
  xmlns:xlink="http://www.w3.org/1999/xlink"
  version="1.1"
  width="29.700220cm" height="21.000720cm" viewBox="0 0 297002200 210007200">
<title>SVG Picture created as phoenix45_alpha-rounded-B_Silkscreen.svg date 2022/08/11 09:25:09 </title>
  <desc>Picture generated by PCBNEW </desc>
<g style="fill:#000000; fill-opacity:1.000000;stroke:#000000; stroke-opacity:1.000000;
stroke-linecap:round; stroke-linejoin:round;"
 transform="translate(0 0) scale(1 1)">
</g>
<g style="fill:#000000; fill-opacity:0.0; 
stroke:#000000; stroke-width:0.000000; stroke-opacity:1; 
stroke-linecap:round; stroke-linejoin:round;">
</g>
<g style="fill:#000000; fill-opacity:0.0; 
stroke:#000000; stroke-width:21200.000000; stroke-opacity:1; 
stroke-linecap:round; stroke-linejoin:round;">
</g>
<g style="fill:#000000; fill-opacity:0.0; 
stroke:#000000; stroke-width:150000.000000; stroke-opacity:1; 
stroke-linecap:round; stroke-linejoin:round;">
<rect x="177002200.000000" y="166007200.000000" width="108000000.000000" height="32000000.000000" rx="0.000000" />
</g>
<g style="fill:#000000; fill-opacity:0.0; 
stroke:#000000; stroke-width:21200.000000; stroke-opacity:1; 
stroke-linecap:round; stroke-linejoin:round;">
</g>
<g style="fill:#000000; fill-opacity:0.0; 
stroke:#000000; stroke-width:150000.000000; stroke-opacity:1; 
stroke-linecap:round; stroke-linejoin:round;">
<rect x="10000000.000000" y="10000000.000000" width="277002200.000000" height="190007200.000000" rx="0.000000" />
</g>
<g style="fill:#000000; fill-opacity:0.0; 
stroke:#000000; stroke-width:21200.000000; stroke-opacity:1; 
stroke-linecap:round; stroke-linejoin:round;">
</g>
<g style="fill:#000000; fill-opacity:0.0; 
stroke:#000000; stroke-width:150000.000000; stroke-opacity:1; 
stroke-linecap:round; stroke-linejoin:round;">
<rect x="12000000.000000" y="12000000.000000" width="273002200.000000" height="186007200.000000" rx="0.000000" />
</g>
<g style="fill:#000000; fill-opacity:0.0; 
stroke:#000000; stroke-width:21200.000000; stroke-opacity:1; 
stroke-linecap:round; stroke-linejoin:round;">
</g>
<g style="fill:#000000; fill-opacity:0.0; 
stroke:#000000; stroke-width:150000.000000; stroke-opacity:1; 
stroke-linecap:round; stroke-linejoin:round;">
<path d="M60000000 12000000
L60000000 10000000
" />
</g>
<g style="fill:#000000; fill-opacity:0.0; 
stroke:#000000; stroke-width:21200.000000; stroke-opacity:1; 
stroke-linecap:round; stroke-linejoin:round;">
</g>
<g style="fill:#000000; fill-opacity:0.0; 
stroke:#000000; stroke-width:150000.000000; stroke-opacity:1; 
stroke-linecap:round; stroke-linejoin:round;">
<path d="M110000000 12000000
L110000000 10000000
" />
</g>
<g style="fill:#000000; fill-opacity:0.0; 
stroke:#000000; stroke-width:21200.000000; stroke-opacity:1; 
stroke-linecap:round; stroke-linejoin:round;">
</g>
<g style="fill:#000000; fill-opacity:0.0; 
stroke:#000000; stroke-width:150000.000000; stroke-opacity:1; 
stroke-linecap:round; stroke-linejoin:round;">
<path d="M160000000 12000000
L160000000 10000000
" />
</g>
<g style="fill:#000000; fill-opacity:0.0; 
stroke:#000000; stroke-width:21200.000000; stroke-opacity:1; 
stroke-linecap:round; stroke-linejoin:round;">
</g>
<g style="fill:#000000; fill-opacity:0.0; 
stroke:#000000; stroke-width:150000.000000; stroke-opacity:1; 
stroke-linecap:round; stroke-linejoin:round;">
<path d="M210000000 12000000
L210000000 10000000
" />
</g>
<g style="fill:#000000; fill-opacity:0.0; 
stroke:#000000; stroke-width:21200.000000; stroke-opacity:1; 
stroke-linecap:round; stroke-linejoin:round;">
</g>
<g style="fill:#000000; fill-opacity:0.0; 
stroke:#000000; stroke-width:150000.000000; stroke-opacity:1; 
stroke-linecap:round; stroke-linejoin:round;">
<path d="M260000000 12000000
L260000000 10000000
" />
</g>
<g style="fill:#000000; fill-opacity:0.0; 
stroke:#000000; stroke-width:21200.000000; stroke-opacity:1; 
stroke-linecap:round; stroke-linejoin:round;">
</g>
<g style="fill:#000000; fill-opacity:0.0; 
stroke:#000000; stroke-width:150000.000000; stroke-opacity:1; 
stroke-linecap:round; stroke-linejoin:round;">
<text x="35000000.000000" y="11650000.000000"
textLength="1388095.000000" font-size="1733333.000000" lengthAdjust="spacingAndGlyphs"
text-anchor="start" opacity="0">1</text>
<g class="stroked-text"><desc>1</desc>
<path d="M36065476 11588095
L35322619 11588095
" />
<path d="M35694047 11588095
L35694047 10288095
L35570238 10473809
L35446428 10597619
L35322619 10659523
" />
</g></g>
<g style="fill:#000000; fill-opacity:0.0; 
stroke:#000000; stroke-width:21200.000000; stroke-opacity:1; 
stroke-linecap:round; stroke-linejoin:round;">
</g>
<g style="fill:#000000; fill-opacity:0.0; 
stroke:#000000; stroke-width:150000.000000; stroke-opacity:1; 
stroke-linecap:round; stroke-linejoin:round;">
<text x="85000000.000000" y="11650000.000000"
textLength="1388095.000000" font-size="1733333.000000" lengthAdjust="spacingAndGlyphs"
text-anchor="start" opacity="0">2</text>
<g class="stroked-text"><desc>2</desc>
<path d="M85322619 10411904
L85384523 10350000
L85508333 10288095
L85817857 10288095
L85941666 10350000
L86003571 10411904
L86065476 10535714
L86065476 10659523
L86003571 10845238
L85260714 11588095
L86065476 11588095
" />
</g></g>
<g style="fill:#000000; fill-opacity:0.0; 
stroke:#000000; stroke-width:21200.000000; stroke-opacity:1; 
stroke-linecap:round; stroke-linejoin:round;">
</g>
<g style="fill:#000000; fill-opacity:0.0; 
stroke:#000000; stroke-width:150000.000000; stroke-opacity:1; 
stroke-linecap:round; stroke-linejoin:round;">
<text x="135000000.000000" y="11650000.000000"
textLength="1388095.000000" font-size="1733333.000000" lengthAdjust="spacingAndGlyphs"
text-anchor="start" opacity="0">3</text>
<g class="stroked-text"><desc>3</desc>
<path d="M135260714 10288095
L136065476 10288095
L135632142 10783333
L135817857 10783333
L135941666 10845238
L136003571 10907142
L136065476 11030952
L136065476 11340476
L136003571 11464285
L135941666 11526190
L135817857 11588095
L135446428 11588095
L135322619 11526190
L135260714 11464285
" />
</g></g>
<g style="fill:#000000; fill-opacity:0.0; 
stroke:#000000; stroke-width:21200.000000; stroke-opacity:1; 
stroke-linecap:round; stroke-linejoin:round;">
</g>
<g style="fill:#000000; fill-opacity:0.0; 
stroke:#000000; stroke-width:150000.000000; stroke-opacity:1; 
stroke-linecap:round; stroke-linejoin:round;">
<text x="185000000.000000" y="11650000.000000"
textLength="1388095.000000" font-size="1733333.000000" lengthAdjust="spacingAndGlyphs"
text-anchor="start" opacity="0">4</text>
<g class="stroked-text"><desc>4</desc>
<path d="M185941666 10721428
L185941666 11588095
" />
<path d="M185632142 10226190
L185322619 11154761
L186127380 11154761
" />
</g></g>
<g style="fill:#000000; fill-opacity:0.0; 
stroke:#000000; stroke-width:21200.000000; stroke-opacity:1; 
stroke-linecap:round; stroke-linejoin:round;">
</g>
<g style="fill:#000000; fill-opacity:0.0; 
stroke:#000000; stroke-width:150000.000000; stroke-opacity:1; 
stroke-linecap:round; stroke-linejoin:round;">
<text x="235000000.000000" y="11650000.000000"
textLength="1388095.000000" font-size="1733333.000000" lengthAdjust="spacingAndGlyphs"
text-anchor="start" opacity="0">5</text>
<g class="stroked-text"><desc>5</desc>
<path d="M236003571 10288095
L235384523 10288095
L235322619 10907142
L235384523 10845238
L235508333 10783333
L235817857 10783333
L235941666 10845238
L236003571 10907142
L236065476 11030952
L236065476 11340476
L236003571 11464285
L235941666 11526190
L235817857 11588095
L235508333 11588095
L235384523 11526190
L235322619 11464285
" />
</g></g>
<g style="fill:#000000; fill-opacity:0.0; 
stroke:#000000; stroke-width:21200.000000; stroke-opacity:1; 
stroke-linecap:round; stroke-linejoin:round;">
</g>
<g style="fill:#000000; fill-opacity:0.0; 
stroke:#000000; stroke-width:150000.000000; stroke-opacity:1; 
stroke-linecap:round; stroke-linejoin:round;">
<text x="285000000.000000" y="11650000.000000"
textLength="1388095.000000" font-size="1733333.000000" lengthAdjust="spacingAndGlyphs"
text-anchor="start" opacity="0">6</text>
<g class="stroked-text"><desc>6</desc>
<path d="M285941666 10288095
L285694047 10288095
L285570238 10350000
L285508333 10411904
L285384523 10597619
L285322619 10845238
L285322619 11340476
L285384523 11464285
L285446428 11526190
L285570238 11588095
L285817857 11588095
L285941666 11526190
L286003571 11464285
L286065476 11340476
L286065476 11030952
L286003571 10907142
L285941666 10845238
L285817857 10783333
L285570238 10783333
L285446428 10845238
L285384523 10907142
L285322619 11030952
" />
</g></g>
<g style="fill:#000000; fill-opacity:0.0; 
stroke:#000000; stroke-width:21200.000000; stroke-opacity:1; 
stroke-linecap:round; stroke-linejoin:round;">
</g>
<g style="fill:#000000; fill-opacity:0.0; 
stroke:#000000; stroke-width:150000.000000; stroke-opacity:1; 
stroke-linecap:round; stroke-linejoin:round;">
<path d="M60000000 198007200
L60000000 200007200
" />
</g>
<g style="fill:#000000; fill-opacity:0.0; 
stroke:#000000; stroke-width:21200.000000; stroke-opacity:1; 
stroke-linecap:round; stroke-linejoin:round;">
</g>
<g style="fill:#000000; fill-opacity:0.0; 
stroke:#000000; stroke-width:150000.000000; stroke-opacity:1; 
stroke-linecap:round; stroke-linejoin:round;">
<path d="M110000000 198007200
L110000000 200007200
" />
</g>
<g style="fill:#000000; fill-opacity:0.0; 
stroke:#000000; stroke-width:21200.000000; stroke-opacity:1; 
stroke-linecap:round; stroke-linejoin:round;">
</g>
<g style="fill:#000000; fill-opacity:0.0; 
stroke:#000000; stroke-width:150000.000000; stroke-opacity:1; 
stroke-linecap:round; stroke-linejoin:round;">
<path d="M160000000 198007200
L160000000 200007200
" />
</g>
<g style="fill:#000000; fill-opacity:0.0; 
stroke:#000000; stroke-width:21200.000000; stroke-opacity:1; 
stroke-linecap:round; stroke-linejoin:round;">
</g>
<g style="fill:#000000; fill-opacity:0.0; 
stroke:#000000; stroke-width:150000.000000; stroke-opacity:1; 
stroke-linecap:round; stroke-linejoin:round;">
<path d="M210000000 198007200
L210000000 200007200
" />
</g>
<g style="fill:#000000; fill-opacity:0.0; 
stroke:#000000; stroke-width:21200.000000; stroke-opacity:1; 
stroke-linecap:round; stroke-linejoin:round;">
</g>
<g style="fill:#000000; fill-opacity:0.0; 
stroke:#000000; stroke-width:150000.000000; stroke-opacity:1; 
stroke-linecap:round; stroke-linejoin:round;">
<path d="M260000000 198007200
L260000000 200007200
" />
</g>
<g style="fill:#000000; fill-opacity:0.0; 
stroke:#000000; stroke-width:21200.000000; stroke-opacity:1; 
stroke-linecap:round; stroke-linejoin:round;">
</g>
<g style="fill:#000000; fill-opacity:0.0; 
stroke:#000000; stroke-width:150000.000000; stroke-opacity:1; 
stroke-linecap:round; stroke-linejoin:round;">
<text x="35000000.000000" y="199657200.000000"
textLength="1388095.000000" font-size="1733333.000000" lengthAdjust="spacingAndGlyphs"
text-anchor="start" opacity="0">1</text>
<g class="stroked-text"><desc>1</desc>
<path d="M36065476 199595295
L35322619 199595295
" />
<path d="M35694047 199595295
L35694047 198295295
L35570238 198481009
L35446428 198604819
L35322619 198666723
" />
</g></g>
<g style="fill:#000000; fill-opacity:0.0; 
stroke:#000000; stroke-width:21200.000000; stroke-opacity:1; 
stroke-linecap:round; stroke-linejoin:round;">
</g>
<g style="fill:#000000; fill-opacity:0.0; 
stroke:#000000; stroke-width:150000.000000; stroke-opacity:1; 
stroke-linecap:round; stroke-linejoin:round;">
<text x="85000000.000000" y="199657200.000000"
textLength="1388095.000000" font-size="1733333.000000" lengthAdjust="spacingAndGlyphs"
text-anchor="start" opacity="0">2</text>
<g class="stroked-text"><desc>2</desc>
<path d="M85322619 198419104
L85384523 198357200
L85508333 198295295
L85817857 198295295
L85941666 198357200
L86003571 198419104
L86065476 198542914
L86065476 198666723
L86003571 198852438
L85260714 199595295
L86065476 199595295
" />
</g></g>
<g style="fill:#000000; fill-opacity:0.0; 
stroke:#000000; stroke-width:21200.000000; stroke-opacity:1; 
stroke-linecap:round; stroke-linejoin:round;">
</g>
<g style="fill:#000000; fill-opacity:0.0; 
stroke:#000000; stroke-width:150000.000000; stroke-opacity:1; 
stroke-linecap:round; stroke-linejoin:round;">
<text x="135000000.000000" y="199657200.000000"
textLength="1388095.000000" font-size="1733333.000000" lengthAdjust="spacingAndGlyphs"
text-anchor="start" opacity="0">3</text>
<g class="stroked-text"><desc>3</desc>
<path d="M135260714 198295295
L136065476 198295295
L135632142 198790533
L135817857 198790533
L135941666 198852438
L136003571 198914342
L136065476 199038152
L136065476 199347676
L136003571 199471485
L135941666 199533390
L135817857 199595295
L135446428 199595295
L135322619 199533390
L135260714 199471485
" />
</g></g>
<g style="fill:#000000; fill-opacity:0.0; 
stroke:#000000; stroke-width:21200.000000; stroke-opacity:1; 
stroke-linecap:round; stroke-linejoin:round;">
</g>
<g style="fill:#000000; fill-opacity:0.0; 
stroke:#000000; stroke-width:150000.000000; stroke-opacity:1; 
stroke-linecap:round; stroke-linejoin:round;">
<text x="185000000.000000" y="199657200.000000"
textLength="1388095.000000" font-size="1733333.000000" lengthAdjust="spacingAndGlyphs"
text-anchor="start" opacity="0">4</text>
<g class="stroked-text"><desc>4</desc>
<path d="M185941666 198728628
L185941666 199595295
" />
<path d="M185632142 198233390
L185322619 199161961
L186127380 199161961
" />
</g></g>
<g style="fill:#000000; fill-opacity:0.0; 
stroke:#000000; stroke-width:21200.000000; stroke-opacity:1; 
stroke-linecap:round; stroke-linejoin:round;">
</g>
<g style="fill:#000000; fill-opacity:0.0; 
stroke:#000000; stroke-width:150000.000000; stroke-opacity:1; 
stroke-linecap:round; stroke-linejoin:round;">
<text x="235000000.000000" y="199657200.000000"
textLength="1388095.000000" font-size="1733333.000000" lengthAdjust="spacingAndGlyphs"
text-anchor="start" opacity="0">5</text>
<g class="stroked-text"><desc>5</desc>
<path d="M236003571 198295295
L235384523 198295295
L235322619 198914342
L235384523 198852438
L235508333 198790533
L235817857 198790533
L235941666 198852438
L236003571 198914342
L236065476 199038152
L236065476 199347676
L236003571 199471485
L235941666 199533390
L235817857 199595295
L235508333 199595295
L235384523 199533390
L235322619 199471485
" />
</g></g>
<g style="fill:#000000; fill-opacity:0.0; 
stroke:#000000; stroke-width:21200.000000; stroke-opacity:1; 
stroke-linecap:round; stroke-linejoin:round;">
</g>
<g style="fill:#000000; fill-opacity:0.0; 
stroke:#000000; stroke-width:150000.000000; stroke-opacity:1; 
stroke-linecap:round; stroke-linejoin:round;">
<text x="285000000.000000" y="199657200.000000"
textLength="1388095.000000" font-size="1733333.000000" lengthAdjust="spacingAndGlyphs"
text-anchor="start" opacity="0">6</text>
<g class="stroked-text"><desc>6</desc>
<path d="M285941666 198295295
L285694047 198295295
L285570238 198357200
L285508333 198419104
L285384523 198604819
L285322619 198852438
L285322619 199347676
L285384523 199471485
L285446428 199533390
L285570238 199595295
L285817857 199595295
L285941666 199533390
L286003571 199471485
L286065476 199347676
L286065476 199038152
L286003571 198914342
L285941666 198852438
L285817857 198790533
L285570238 198790533
L285446428 198852438
L285384523 198914342
L285322619 199038152
" />
</g></g>
<g style="fill:#000000; fill-opacity:0.0; 
stroke:#000000; stroke-width:21200.000000; stroke-opacity:1; 
stroke-linecap:round; stroke-linejoin:round;">
</g>
<g style="fill:#000000; fill-opacity:0.0; 
stroke:#000000; stroke-width:150000.000000; stroke-opacity:1; 
stroke-linecap:round; stroke-linejoin:round;">
<path d="M10000000 60000000
L12000000 60000000
" />
</g>
<g style="fill:#000000; fill-opacity:0.0; 
stroke:#000000; stroke-width:21200.000000; stroke-opacity:1; 
stroke-linecap:round; stroke-linejoin:round;">
</g>
<g style="fill:#000000; fill-opacity:0.0; 
stroke:#000000; stroke-width:150000.000000; stroke-opacity:1; 
stroke-linecap:round; stroke-linejoin:round;">
<path d="M10000000 110000000
L12000000 110000000
" />
</g>
<g style="fill:#000000; fill-opacity:0.0; 
stroke:#000000; stroke-width:21200.000000; stroke-opacity:1; 
stroke-linecap:round; stroke-linejoin:round;">
</g>
<g style="fill:#000000; fill-opacity:0.0; 
stroke:#000000; stroke-width:150000.000000; stroke-opacity:1; 
stroke-linecap:round; stroke-linejoin:round;">
<path d="M10000000 160000000
L12000000 160000000
" />
</g>
<g style="fill:#000000; fill-opacity:0.0; 
stroke:#000000; stroke-width:21200.000000; stroke-opacity:1; 
stroke-linecap:round; stroke-linejoin:round;">
</g>
<g style="fill:#000000; fill-opacity:0.0; 
stroke:#000000; stroke-width:150000.000000; stroke-opacity:1; 
stroke-linecap:round; stroke-linejoin:round;">
<text x="11000000.000000" y="35650000.000000"
textLength="1264286.000000" font-size="1733333.000000" lengthAdjust="spacingAndGlyphs"
text-anchor="middle" opacity="0">A</text>
<g class="stroked-text"><desc>A</desc>
<path d="M10690476 35216666
L11309523 35216666
" />
<path d="M10566666 35588095
L11000000 34288095
L11433333 35588095
" />
</g></g>
<g style="fill:#000000; fill-opacity:0.0; 
stroke:#000000; stroke-width:21200.000000; stroke-opacity:1; 
stroke-linecap:round; stroke-linejoin:round;">
</g>
<g style="fill:#000000; fill-opacity:0.0; 
stroke:#000000; stroke-width:150000.000000; stroke-opacity:1; 
stroke-linecap:round; stroke-linejoin:round;">
<text x="11000000.000000" y="85650000.000000"
textLength="1450000.000000" font-size="1733333.000000" lengthAdjust="spacingAndGlyphs"
text-anchor="middle" opacity="0">B</text>
<g class="stroked-text"><desc>B</desc>
<path d="M11092857 84907142
L11278571 84969047
L11340476 85030952
L11402380 85154761
L11402380 85340476
L11340476 85464285
L11278571 85526190
L11154761 85588095
L10659523 85588095
L10659523 84288095
L11092857 84288095
L11216666 84350000
L11278571 84411904
L11340476 84535714
L11340476 84659523
L11278571 84783333
L11216666 84845238
L11092857 84907142
L10659523 84907142
" />
</g></g>
<g style="fill:#000000; fill-opacity:0.0; 
stroke:#000000; stroke-width:21200.000000; stroke-opacity:1; 
stroke-linecap:round; stroke-linejoin:round;">
</g>
<g style="fill:#000000; fill-opacity:0.0; 
stroke:#000000; stroke-width:150000.000000; stroke-opacity:1; 
stroke-linecap:round; stroke-linejoin:round;">
<text x="11000000.000000" y="135650000.000000"
textLength="1450000.000000" font-size="1733333.000000" lengthAdjust="spacingAndGlyphs"
text-anchor="middle" opacity="0">C</text>
<g class="stroked-text"><desc>C</desc>
<path d="M11402380 135464285
L11340476 135526190
L11154761 135588095
L11030952 135588095
L10845238 135526190
L10721428 135402380
L10659523 135278571
L10597619 135030952
L10597619 134845238
L10659523 134597619
L10721428 134473809
L10845238 134350000
L11030952 134288095
L11154761 134288095
L11340476 134350000
L11402380 134411904
" />
</g></g>
<g style="fill:#000000; fill-opacity:0.0; 
stroke:#000000; stroke-width:21200.000000; stroke-opacity:1; 
stroke-linecap:round; stroke-linejoin:round;">
</g>
<g style="fill:#000000; fill-opacity:0.0; 
stroke:#000000; stroke-width:150000.000000; stroke-opacity:1; 
stroke-linecap:round; stroke-linejoin:round;">
<text x="11000000.000000" y="185650000.000000"
textLength="1450000.000000" font-size="1733333.000000" lengthAdjust="spacingAndGlyphs"
text-anchor="middle" opacity="0">D</text>
<g class="stroked-text"><desc>D</desc>
<path d="M10659523 185588095
L10659523 184288095
L10969047 184288095
L11154761 184350000
L11278571 184473809
L11340476 184597619
L11402380 184845238
L11402380 185030952
L11340476 185278571
L11278571 185402380
L11154761 185526190
L10969047 185588095
L10659523 185588095
" />
</g></g>
<g style="fill:#000000; fill-opacity:0.0; 
stroke:#000000; stroke-width:21200.000000; stroke-opacity:1; 
stroke-linecap:round; stroke-linejoin:round;">
</g>
<g style="fill:#000000; fill-opacity:0.0; 
stroke:#000000; stroke-width:150000.000000; stroke-opacity:1; 
stroke-linecap:round; stroke-linejoin:round;">
<path d="M287002200 60000000
L285002200 60000000
" />
</g>
<g style="fill:#000000; fill-opacity:0.0; 
stroke:#000000; stroke-width:21200.000000; stroke-opacity:1; 
stroke-linecap:round; stroke-linejoin:round;">
</g>
<g style="fill:#000000; fill-opacity:0.0; 
stroke:#000000; stroke-width:150000.000000; stroke-opacity:1; 
stroke-linecap:round; stroke-linejoin:round;">
<path d="M287002200 110000000
L285002200 110000000
" />
</g>
<g style="fill:#000000; fill-opacity:0.0; 
stroke:#000000; stroke-width:21200.000000; stroke-opacity:1; 
stroke-linecap:round; stroke-linejoin:round;">
</g>
<g style="fill:#000000; fill-opacity:0.0; 
stroke:#000000; stroke-width:150000.000000; stroke-opacity:1; 
stroke-linecap:round; stroke-linejoin:round;">
<path d="M287002200 160000000
L285002200 160000000
" />
</g>
<g style="fill:#000000; fill-opacity:0.0; 
stroke:#000000; stroke-width:21200.000000; stroke-opacity:1; 
stroke-linecap:round; stroke-linejoin:round;">
</g>
<g style="fill:#000000; fill-opacity:0.0; 
stroke:#000000; stroke-width:150000.000000; stroke-opacity:1; 
stroke-linecap:round; stroke-linejoin:round;">
<text x="286002200.000000" y="35650000.000000"
textLength="1264286.000000" font-size="1733333.000000" lengthAdjust="spacingAndGlyphs"
text-anchor="middle" opacity="0">A</text>
<g class="stroked-text"><desc>A</desc>
<path d="M285692676 35216666
L286311723 35216666
" />
<path d="M285568866 35588095
L286002200 34288095
L286435533 35588095
" />
</g></g>
<g style="fill:#000000; fill-opacity:0.0; 
stroke:#000000; stroke-width:21200.000000; stroke-opacity:1; 
stroke-linecap:round; stroke-linejoin:round;">
</g>
<g style="fill:#000000; fill-opacity:0.0; 
stroke:#000000; stroke-width:150000.000000; stroke-opacity:1; 
stroke-linecap:round; stroke-linejoin:round;">
<text x="286002200.000000" y="85650000.000000"
textLength="1450000.000000" font-size="1733333.000000" lengthAdjust="spacingAndGlyphs"
text-anchor="middle" opacity="0">B</text>
<g class="stroked-text"><desc>B</desc>
<path d="M286095057 84907142
L286280771 84969047
L286342676 85030952
L286404580 85154761
L286404580 85340476
L286342676 85464285
L286280771 85526190
L286156961 85588095
L285661723 85588095
L285661723 84288095
L286095057 84288095
L286218866 84350000
L286280771 84411904
L286342676 84535714
L286342676 84659523
L286280771 84783333
L286218866 84845238
L286095057 84907142
L285661723 84907142
" />
</g></g>
<g style="fill:#000000; fill-opacity:0.0; 
stroke:#000000; stroke-width:21200.000000; stroke-opacity:1; 
stroke-linecap:round; stroke-linejoin:round;">
</g>
<g style="fill:#000000; fill-opacity:0.0; 
stroke:#000000; stroke-width:150000.000000; stroke-opacity:1; 
stroke-linecap:round; stroke-linejoin:round;">
<text x="286002200.000000" y="135650000.000000"
textLength="1450000.000000" font-size="1733333.000000" lengthAdjust="spacingAndGlyphs"
text-anchor="middle" opacity="0">C</text>
<g class="stroked-text"><desc>C</desc>
<path d="M286404580 135464285
L286342676 135526190
L286156961 135588095
L286033152 135588095
L285847438 135526190
L285723628 135402380
L285661723 135278571
L285599819 135030952
L285599819 134845238
L285661723 134597619
L285723628 134473809
L285847438 134350000
L286033152 134288095
L286156961 134288095
L286342676 134350000
L286404580 134411904
" />
</g></g>
<g style="fill:#000000; fill-opacity:0.0; 
stroke:#000000; stroke-width:21200.000000; stroke-opacity:1; 
stroke-linecap:round; stroke-linejoin:round;">
</g>
<g style="fill:#000000; fill-opacity:0.0; 
stroke:#000000; stroke-width:150000.000000; stroke-opacity:1; 
stroke-linecap:round; stroke-linejoin:round;">
<text x="286002200.000000" y="185650000.000000"
textLength="1450000.000000" font-size="1733333.000000" lengthAdjust="spacingAndGlyphs"
text-anchor="middle" opacity="0">D</text>
<g class="stroked-text"><desc>D</desc>
<path d="M285661723 185588095
L285661723 184288095
L285971247 184288095
L286156961 184350000
L286280771 184473809
L286342676 184597619
L286404580 184845238
L286404580 185030952
L286342676 185278571
L286280771 185402380
L286156961 185526190
L285971247 185588095
L285661723 185588095
" />
</g></g>
<g style="fill:#000000; fill-opacity:0.0; 
stroke:#000000; stroke-width:21200.000000; stroke-opacity:1; 
stroke-linecap:round; stroke-linejoin:round;">
</g>
<g style="fill:#000000; fill-opacity:0.0; 
stroke:#000000; stroke-width:150000.000000; stroke-opacity:1; 
stroke-linecap:round; stroke-linejoin:round;">
<text x="200002200.000000" y="193857200.000000"
textLength="7007143.000000" font-size="2000000.000000" lengthAdjust="spacingAndGlyphs"
text-anchor="start" opacity="0">Date: </text>
<g class="stroked-text"><desc>Date: </desc>
<path d="M200434342 193785771
L200434342 192285771
L200791485 192285771
L201005771 192357200
L201148628 192500057
L201220057 192642914
L201291485 192928628
L201291485 193142914
L201220057 193428628
L201148628 193571485
L201005771 193714342
L200791485 193785771
L200434342 193785771
" />
<path d="M202577200 193785771
L202577200 193000057
L202505771 192857200
L202362914 192785771
L202077200 192785771
L201934342 192857200
" />
<path d="M202577200 193714342
L202434342 193785771
L202077200 193785771
L201934342 193714342
L201862914 193571485
L201862914 193428628
L201934342 193285771
L202077200 193214342
L202434342 193214342
L202577200 193142914
" />
<path d="M203077200 192785771
L203648628 192785771
" />
<path d="M203291485 192285771
L203291485 193571485
L203362914 193714342
L203505771 193785771
L203648628 193785771
" />
<path d="M204720057 193714342
L204577200 193785771
L204291485 193785771
L204148628 193714342
L204077200 193571485
L204077200 193000057
L204148628 192857200
L204291485 192785771
L204577200 192785771
L204720057 192857200
L204791485 193000057
L204791485 193142914
L204077200 193285771
" />
<path d="M205434342 193642914
L205505771 193714342
L205434342 193785771
L205362914 193714342
L205434342 193642914
L205434342 193785771
" />
<path d="M205434342 192857200
L205505771 192928628
L205434342 193000057
L205362914 192928628
L205434342 192857200
L205434342 193000057
" />
</g></g>
<g style="fill:#000000; fill-opacity:0.0; 
stroke:#000000; stroke-width:21200.000000; stroke-opacity:1; 
stroke-linecap:round; stroke-linejoin:round;">
</g>
<g style="fill:#000000; fill-opacity:0.0; 
stroke:#000000; stroke-width:150000.000000; stroke-opacity:1; 
stroke-linecap:round; stroke-linejoin:round;">
<path d="M177002200 194507200
L285002200 194507200
" />
</g>
<g style="fill:#000000; fill-opacity:0.0; 
stroke:#000000; stroke-width:21200.000000; stroke-opacity:1; 
stroke-linecap:round; stroke-linejoin:round;">
</g>
<g style="fill:#000000; fill-opacity:0.0; 
stroke:#000000; stroke-width:150000.000000; stroke-opacity:1; 
stroke-linecap:round; stroke-linejoin:round;">
<text x="178002200.000000" y="196657200.000000"
textLength="33364286.000000" font-size="2000000.000000" lengthAdjust="spacingAndGlyphs"
text-anchor="start" opacity="0">KiCad E.D.A.  pcbnew (6.0.5)</text>
<g class="stroked-text"><desc>KiCad E.D.A.  pcbnew (6.0.5)</desc>
<path d="M178434342 196585771
L178434342 195085771
" />
<path d="M179291485 196585771
L178648628 195728628
" />
<path d="M179291485 195085771
L178434342 195942914
" />
<path d="M179934342 196585771
L179934342 195585771
" />
<path d="M179934342 195085771
L179862914 195157200
L179934342 195228628
L180005771 195157200
L179934342 195085771
L179934342 195228628
" />
<path d="M181505771 196442914
L181434342 196514342
L181220057 196585771
L181077200 196585771
L180862914 196514342
L180720057 196371485
L180648628 196228628
L180577200 195942914
L180577200 195728628
L180648628 195442914
L180720057 195300057
L180862914 195157200
L181077200 195085771
L181220057 195085771
L181434342 195157200
L181505771 195228628
" />
<path d="M182791485 196585771
L182791485 195800057
L182720057 195657200
L182577200 195585771
L182291485 195585771
L182148628 195657200
" />
<path d="M182791485 196514342
L182648628 196585771
L182291485 196585771
L182148628 196514342
L182077200 196371485
L182077200 196228628
L182148628 196085771
L182291485 196014342
L182648628 196014342
L182791485 195942914
" />
<path d="M184148628 196585771
L184148628 195085771
" />
<path d="M184148628 196514342
L184005771 196585771
L183720057 196585771
L183577200 196514342
L183505771 196442914
L183434342 196300057
L183434342 195871485
L183505771 195728628
L183577200 195657200
L183720057 195585771
L184005771 195585771
L184148628 195657200
" />
<path d="M186005771 195800057
L186505771 195800057
" />
<path d="M186720057 196585771
L186005771 196585771
L186005771 195085771
L186720057 195085771
" />
<path d="M187362914 196442914
L187434342 196514342
L187362914 196585771
L187291485 196514342
L187362914 196442914
L187362914 196585771
" />
<path d="M188077200 196585771
L188077200 195085771
L188434342 195085771
L188648628 195157200
L188791485 195300057
L188862914 195442914
L188934342 195728628
L188934342 195942914
L188862914 196228628
L188791485 196371485
L188648628 196514342
L188434342 196585771
L188077200 196585771
" />
<path d="M189577200 196442914
L189648628 196514342
L189577200 196585771
L189505771 196514342
L189577200 196442914
L189577200 196585771
" />
<path d="M190220057 196157200
L190934342 196157200
" />
<path d="M190077200 196585771
L190577200 195085771
L191077200 196585771
" />
<path d="M191577200 196442914
L191648628 196514342
L191577200 196585771
L191505771 196514342
L191577200 196442914
L191577200 196585771
" />
<path d="M194577200 195585771
L194577200 197085771
" />
<path d="M194577200 195657200
L194720057 195585771
L195005771 195585771
L195148628 195657200
L195220057 195728628
L195291485 195871485
L195291485 196300057
L195220057 196442914
L195148628 196514342
L195005771 196585771
L194720057 196585771
L194577200 196514342
" />
<path d="M196577200 196514342
L196434342 196585771
L196148628 196585771
L196005771 196514342
L195934342 196442914
L195862914 196300057
L195862914 195871485
L195934342 195728628
L196005771 195657200
L196148628 195585771
L196434342 195585771
L196577200 195657200
" />
<path d="M197220057 196585771
L197220057 195085771
" />
<path d="M197220057 195657200
L197362914 195585771
L197648628 195585771
L197791485 195657200
L197862914 195728628
L197934342 195871485
L197934342 196300057
L197862914 196442914
L197791485 196514342
L197648628 196585771
L197362914 196585771
L197220057 196514342
" />
<path d="M198577200 195585771
L198577200 196585771
" />
<path d="M198577200 195728628
L198648628 195657200
L198791485 195585771
L199005771 195585771
L199148628 195657200
L199220057 195800057
L199220057 196585771
" />
<path d="M200505771 196514342
L200362914 196585771
L200077200 196585771
L199934342 196514342
L199862914 196371485
L199862914 195800057
L199934342 195657200
L200077200 195585771
L200362914 195585771
L200505771 195657200
L200577200 195800057
L200577200 195942914
L199862914 196085771
" />
<path d="M201077200 195585771
L201362914 196585771
L201648628 195871485
L201934342 196585771
L202220057 195585771
" />
<path d="M204362914 197157200
L204291485 197085771
L204148628 196871485
L204077200 196728628
L204005771 196514342
L203934342 196157200
L203934342 195871485
L204005771 195514342
L204077200 195300057
L204148628 195157200
L204291485 194942914
L204362914 194871485
" />
<path d="M205577200 195085771
L205291485 195085771
L205148628 195157200
L205077200 195228628
L204934342 195442914
L204862914 195728628
L204862914 196300057
L204934342 196442914
L205005771 196514342
L205148628 196585771
L205434342 196585771
L205577200 196514342
L205648628 196442914
L205720057 196300057
L205720057 195942914
L205648628 195800057
L205577200 195728628
L205434342 195657200
L205148628 195657200
L205005771 195728628
L204934342 195800057
L204862914 195942914
" />
<path d="M206362914 196442914
L206434342 196514342
L206362914 196585771
L206291485 196514342
L206362914 196442914
L206362914 196585771
" />
<path d="M207362914 195085771
L207505771 195085771
L207648628 195157200
L207720057 195228628
L207791485 195371485
L207862914 195657200
L207862914 196014342
L207791485 196300057
L207720057 196442914
L207648628 196514342
L207505771 196585771
L207362914 196585771
L207220057 196514342
L207148628 196442914
L207077200 196300057
L207005771 196014342
L207005771 195657200
L207077200 195371485
L207148628 195228628
L207220057 195157200
L207362914 195085771
" />
<path d="M208505771 196442914
L208577200 196514342
L208505771 196585771
L208434342 196514342
L208505771 196442914
L208505771 196585771
" />
<path d="M209934342 195085771
L209220057 195085771
L209148628 195800057
L209220057 195728628
L209362914 195657200
L209720057 195657200
L209862914 195728628
L209934342 195800057
L210005771 195942914
L210005771 196300057
L209934342 196442914
L209862914 196514342
L209720057 196585771
L209362914 196585771
L209220057 196514342
L209148628 196442914
" />
<path d="M210505771 197157200
L210577200 197085771
L210720057 196871485
L210791485 196728628
L210862914 196514342
L210934342 196157200
L210934342 195871485
L210862914 195514342
L210791485 195300057
L210720057 195157200
L210577200 194942914
L210505771 194871485
" />
</g></g>
<g style="fill:#000000; fill-opacity:0.0; 
stroke:#000000; stroke-width:21200.000000; stroke-opacity:1; 
stroke-linecap:round; stroke-linejoin:round;">
</g>
<g style="fill:#000000; fill-opacity:0.0; 
stroke:#000000; stroke-width:150000.000000; stroke-opacity:1; 
stroke-linecap:round; stroke-linejoin:round;">
<path d="M177002200 191507200
L285002200 191507200
" />
</g>
<g style="fill:#000000; fill-opacity:0.0; 
stroke:#000000; stroke-width:21200.000000; stroke-opacity:1; 
stroke-linecap:round; stroke-linejoin:round;">
</g>
<g style="fill:#000000; fill-opacity:0.0; 
stroke:#000000; stroke-width:300000.000000; stroke-opacity:1; 
stroke-linecap:round; stroke-linejoin:round;">
<text x="263002200.000000" y="193857200.000000"
textLength="5935714.000000" font-size="2000000.000000" lengthAdjust="spacingAndGlyphs"
text-anchor="start" opacity="0">Rev: </text>
<g class="stroked-text"><desc>Rev: </desc>
<path d="M264411485 193785771
L263911485 193071485
" />
<path d="M263554342 193785771
L263554342 192285771
L264125771 192285771
L264268628 192357200
L264340057 192428628
L264411485 192571485
L264411485 192785771
L264340057 192928628
L264268628 193000057
L264125771 193071485
L263554342 193071485
" />
<path d="M265625771 193714342
L265482914 193785771
L265197200 193785771
L265054342 193714342
L264982914 193571485
L264982914 193000057
L265054342 192857200
L265197200 192785771
L265482914 192785771
L265625771 192857200
L265697200 193000057
L265697200 193142914
L264982914 193285771
" />
<path d="M266197200 192785771
L266554342 193785771
L266911485 192785771
" />
<path d="M267482914 193642914
L267554342 193714342
L267482914 193785771
L267411485 193714342
L267482914 193642914
L267482914 193785771
" />
<path d="M267482914 192857200
L267554342 192928628
L267482914 193000057
L267411485 192928628
L267482914 192857200
L267482914 193000057
" />
</g></g>
<g style="fill:#000000; fill-opacity:0.0; 
stroke:#000000; stroke-width:21200.000000; stroke-opacity:1; 
stroke-linecap:round; stroke-linejoin:round;">
</g>
<g style="fill:#000000; fill-opacity:0.0; 
stroke:#000000; stroke-width:150000.000000; stroke-opacity:1; 
stroke-linecap:round; stroke-linejoin:round;">
<text x="178002200.000000" y="193857200.000000"
textLength="9604286.000000" font-size="2000000.000000" lengthAdjust="spacingAndGlyphs"
text-anchor="start" opacity="0">Size: A4</text>
<g class="stroked-text"><desc>Size: A4</desc>
<path d="M178362914 193714342
L178577200 193785771
L178934342 193785771
L179077200 193714342
L179148628 193642914
L179220057 193500057
L179220057 193357200
L179148628 193214342
L179077200 193142914
L178934342 193071485
L178648628 193000057
L178505771 192928628
L178434342 192857200
L178362914 192714342
L178362914 192571485
L178434342 192428628
L178505771 192357200
L178648628 192285771
L179005771 192285771
L179220057 192357200
" />
<path d="M179862914 193785771
L179862914 192785771
" />
<path d="M179862914 192285771
L179791485 192357200
L179862914 192428628
L179934342 192357200
L179862914 192285771
L179862914 192428628
" />
<path d="M180434342 192785771
L181220057 192785771
L180434342 193785771
L181220057 193785771
" />
<path d="M182362914 193714342
L182220057 193785771
L181934342 193785771
L181791485 193714342
L181720057 193571485
L181720057 193000057
L181791485 192857200
L181934342 192785771
L182220057 192785771
L182362914 192857200
L182434342 193000057
L182434342 193142914
L181720057 193285771
" />
<path d="M183077200 193642914
L183148628 193714342
L183077200 193785771
L183005771 193714342
L183077200 193642914
L183077200 193785771
" />
<path d="M183077200 192857200
L183148628 192928628
L183077200 193000057
L183005771 192928628
L183077200 192857200
L183077200 193000057
" />
<path d="M184862914 193357200
L185577200 193357200
" />
<path d="M184720057 193785771
L185220057 192285771
L185720057 193785771
" />
<path d="M186862914 192785771
L186862914 193785771
" />
<path d="M186505771 192214342
L186148628 193285771
L187077200 193285771
" />
</g></g>
<g style="fill:#000000; fill-opacity:0.0; 
stroke:#000000; stroke-width:21200.000000; stroke-opacity:1; 
stroke-linecap:round; stroke-linejoin:round;">
</g>
<g style="fill:#000000; fill-opacity:0.0; 
stroke:#000000; stroke-width:150000.000000; stroke-opacity:1; 
stroke-linecap:round; stroke-linejoin:round;">
<text x="263002200.000000" y="196657200.000000"
textLength="8507143.000000" font-size="2000000.000000" lengthAdjust="spacingAndGlyphs"
text-anchor="start" opacity="0">Id: 1/1</text>
<g class="stroked-text"><desc>Id: 1/1</desc>
<path d="M263434342 196585771
L263434342 195085771
" />
<path d="M264791485 196585771
L264791485 195085771
" />
<path d="M264791485 196514342
L264648628 196585771
L264362914 196585771
L264220057 196514342
L264148628 196442914
L264077200 196300057
L264077200 195871485
L264148628 195728628
L264220057 195657200
L264362914 195585771
L264648628 195585771
L264791485 195657200
" />
<path d="M265505771 196442914
L265577200 196514342
L265505771 196585771
L265434342 196514342
L265505771 196442914
L265505771 196585771
" />
<path d="M265505771 195657200
L265577200 195728628
L265505771 195800057
L265434342 195728628
L265505771 195657200
L265505771 195800057
" />
<path d="M268148628 196585771
L267291485 196585771
" />
<path d="M267720057 196585771
L267720057 195085771
L267577200 195300057
L267434342 195442914
L267291485 195514342
" />
<path d="M269862914 195014342
L268577200 196942914
" />
<path d="M271148628 196585771
L270291485 196585771
" />
<path d="M270720057 196585771
L270720057 195085771
L270577200 195300057
L270434342 195442914
L270291485 195514342
" />
</g></g>
<g style="fill:#000000; fill-opacity:0.0; 
stroke:#000000; stroke-width:21200.000000; stroke-opacity:1; 
stroke-linecap:round; stroke-linejoin:round;">
</g>
<g style="fill:#000000; fill-opacity:0.0; 
stroke:#000000; stroke-width:150000.000000; stroke-opacity:1; 
stroke-linecap:round; stroke-linejoin:round;">
<path d="M177002200 187507200
L285002200 187507200
" />
</g>
<g style="fill:#000000; fill-opacity:0.0; 
stroke:#000000; stroke-width:21200.000000; stroke-opacity:1; 
stroke-linecap:round; stroke-linejoin:round;">
</g>
<g style="fill:#000000; fill-opacity:0.0; 
stroke:#000000; stroke-width:400000.000000; stroke-opacity:1; 
stroke-linecap:round; stroke-linejoin:round;">
<text x="178002200.000000" y="190307200.000000"
textLength="9409643.000000" font-size="2666666.000000" lengthAdjust="spacingAndGlyphs"
text-anchor="start" opacity="0">Title: </text>
<g class="stroked-text"><desc>Title: </desc>
<path d="M178714580 188211961
L179857438 188211961
" />
<path d="M179036009 190211961
L179286009 188211961
" />
<path d="M180274104 190211961
L180440771 188878628
" />
<path d="M180524104 188211961
L180416961 188307200
L180500295 188402438
L180607438 188307200
L180524104 188211961
L180500295 188402438
" />
<path d="M181107438 188878628
L181869342 188878628
" />
<path d="M181476485 188211961
L181262200 189926247
L181333628 190116723
L181512200 190211961
L181702676 190211961
" />
<path d="M182655057 190211961
L182476485 190116723
L182405057 189926247
L182619342 188211961
" />
<path d="M184190771 190116723
L183988390 190211961
L183607438 190211961
L183428866 190116723
L183357438 189926247
L183452676 189164342
L183571723 188973866
L183774104 188878628
L184155057 188878628
L184333628 188973866
L184405057 189164342
L184381247 189354819
L183405057 189545295
" />
<path d="M185155057 190021485
L185238390 190116723
L185131247 190211961
L185047914 190116723
L185155057 190021485
L185131247 190211961
" />
<path d="M185286009 188973866
L185369342 189069104
L185262200 189164342
L185178866 189069104
L185286009 188973866
L185262200 189164342
" />
</g></g>
<g style="fill:#000000; fill-opacity:0.0; 
stroke:#000000; stroke-width:21200.000000; stroke-opacity:1; 
stroke-linecap:round; stroke-linejoin:round;">
</g>
<g style="fill:#000000; fill-opacity:0.0; 
stroke:#000000; stroke-width:150000.000000; stroke-opacity:1; 
stroke-linecap:round; stroke-linejoin:round;">
<text x="178002200.000000" y="186457200.000000"
textLength="47948571.000000" font-size="2000000.000000" lengthAdjust="spacingAndGlyphs"
text-anchor="start" opacity="0">File: phoenix45_alpha-rounded.kicad_pcb</text>
<g class="stroked-text"><desc>File: phoenix45_alpha-rounded.kicad_pcb</desc>
<path d="M178934342 185600057
L178434342 185600057
" />
<path d="M178434342 186385771
L178434342 184885771
L179148628 184885771
" />
<path d="M179720057 186385771
L179720057 185385771
" />
<path d="M179720057 184885771
L179648628 184957200
L179720057 185028628
L179791485 184957200
L179720057 184885771
L179720057 185028628
" />
<path d="M180648628 186385771
L180505771 186314342
L180434342 186171485
L180434342 184885771
" />
<path d="M181791485 186314342
L181648628 186385771
L181362914 186385771
L181220057 186314342
L181148628 186171485
L181148628 185600057
L181220057 185457200
L181362914 185385771
L181648628 185385771
L181791485 185457200
L181862914 185600057
L181862914 185742914
L181148628 185885771
" />
<path d="M182505771 186242914
L182577200 186314342
L182505771 186385771
L182434342 186314342
L182505771 186242914
L182505771 186385771
" />
<path d="M182505771 185457200
L182577200 185528628
L182505771 185600057
L182434342 185528628
L182505771 185457200
L182505771 185600057
" />
<path d="M184362914 185385771
L184362914 186885771
" />
<path d="M184362914 185457200
L184505771 185385771
L184791485 185385771
L184934342 185457200
L185005771 185528628
L185077200 185671485
L185077200 186100057
L185005771 186242914
L184934342 186314342
L184791485 186385771
L184505771 186385771
L184362914 186314342
" />
<path d="M185720057 186385771
L185720057 184885771
" />
<path d="M186362914 186385771
L186362914 185600057
L186291485 185457200
L186148628 185385771
L185934342 185385771
L185791485 185457200
L185720057 185528628
" />
<path d="M187291485 186385771
L187148628 186314342
L187077200 186242914
L187005771 186100057
L187005771 185671485
L187077200 185528628
L187148628 185457200
L187291485 185385771
L187505771 185385771
L187648628 185457200
L187720057 185528628
L187791485 185671485
L187791485 186100057
L187720057 186242914
L187648628 186314342
L187505771 186385771
L187291485 186385771
" />
<path d="M189005771 186314342
L188862914 186385771
L188577200 186385771
L188434342 186314342
L188362914 186171485
L188362914 185600057
L188434342 185457200
L188577200 185385771
L188862914 185385771
L189005771 185457200
L189077200 185600057
L189077200 185742914
L188362914 185885771
" />
<path d="M189720057 185385771
L189720057 186385771
" />
<path d="M189720057 185528628
L189791485 185457200
L189934342 185385771
L190148628 185385771
L190291485 185457200
L190362914 185600057
L190362914 186385771
" />
<path d="M191077200 186385771
L191077200 185385771
" />
<path d="M191077200 184885771
L191005771 184957200
L191077200 185028628
L191148628 184957200
L191077200 184885771
L191077200 185028628
" />
<path d="M191648628 186385771
L192434342 185385771
" />
<path d="M191648628 185385771
L192434342 186385771
" />
<path d="M193648628 185385771
L193648628 186385771
" />
<path d="M193291485 184814342
L192934342 185885771
L193862914 185885771
" />
<path d="M195148628 184885771
L194434342 184885771
L194362914 185600057
L194434342 185528628
L194577200 185457200
L194934342 185457200
L195077200 185528628
L195148628 185600057
L195220057 185742914
L195220057 186100057
L195148628 186242914
L195077200 186314342
L194934342 186385771
L194577200 186385771
L194434342 186314342
L194362914 186242914
" />
<path d="M195505771 186528628
L196648628 186528628
" />
<path d="M197648628 186385771
L197648628 185600057
L197577200 185457200
L197434342 185385771
L197148628 185385771
L197005771 185457200
" />
<path d="M197648628 186314342
L197505771 186385771
L197148628 186385771
L197005771 186314342
L196934342 186171485
L196934342 186028628
L197005771 185885771
L197148628 185814342
L197505771 185814342
L197648628 185742914
" />
<path d="M198577200 186385771
L198434342 186314342
L198362914 186171485
L198362914 184885771
" />
<path d="M199148628 185385771
L199148628 186885771
" />
<path d="M199148628 185457200
L199291485 185385771
L199577200 185385771
L199720057 185457200
L199791485 185528628
L199862914 185671485
L199862914 186100057
L199791485 186242914
L199720057 186314342
L199577200 186385771
L199291485 186385771
L199148628 186314342
" />
<path d="M200505771 186385771
L200505771 184885771
" />
<path d="M201148628 186385771
L201148628 185600057
L201077200 185457200
L200934342 185385771
L200720057 185385771
L200577200 185457200
L200505771 185528628
" />
<path d="M202505771 186385771
L202505771 185600057
L202434342 185457200
L202291485 185385771
L202005771 185385771
L201862914 185457200
" />
<path d="M202505771 186314342
L202362914 186385771
L202005771 186385771
L201862914 186314342
L201791485 186171485
L201791485 186028628
L201862914 185885771
L202005771 185814342
L202362914 185814342
L202505771 185742914
" />
<path d="M203220057 185814342
L204362914 185814342
" />
<path d="M205077200 186385771
L205077200 185385771
" />
<path d="M205077200 185671485
L205148628 185528628
L205220057 185457200
L205362914 185385771
L205505771 185385771
" />
<path d="M206220057 186385771
L206077200 186314342
L206005771 186242914
L205934342 186100057
L205934342 185671485
L206005771 185528628
L206077200 185457200
L206220057 185385771
L206434342 185385771
L206577200 185457200
L206648628 185528628
L206720057 185671485
L206720057 186100057
L206648628 186242914
L206577200 186314342
L206434342 186385771
L206220057 186385771
" />
<path d="M208005771 185385771
L208005771 186385771
" />
<path d="M207362914 185385771
L207362914 186171485
L207434342 186314342
L207577200 186385771
L207791485 186385771
L207934342 186314342
L208005771 186242914
" />
<path d="M208720057 185385771
L208720057 186385771
" />
<path d="M208720057 185528628
L208791485 185457200
L208934342 185385771
L209148628 185385771
L209291485 185457200
L209362914 185600057
L209362914 186385771
" />
<path d="M210720057 186385771
L210720057 184885771
" />
<path d="M210720057 186314342
L210577200 186385771
L210291485 186385771
L210148628 186314342
L210077200 186242914
L210005771 186100057
L210005771 185671485
L210077200 185528628
L210148628 185457200
L210291485 185385771
L210577200 185385771
L210720057 185457200
" />
<path d="M212005771 186314342
L211862914 186385771
L211577200 186385771
L211434342 186314342
L211362914 186171485
L211362914 185600057
L211434342 185457200
L211577200 185385771
L211862914 185385771
L212005771 185457200
L212077200 185600057
L212077200 185742914
L211362914 185885771
" />
<path d="M213362914 186385771
L213362914 184885771
" />
<path d="M213362914 186314342
L213220057 186385771
L212934342 186385771
L212791485 186314342
L212720057 186242914
L212648628 186100057
L212648628 185671485
L212720057 185528628
L212791485 185457200
L212934342 185385771
L213220057 185385771
L213362914 185457200
" />
<path d="M214077200 186242914
L214148628 186314342
L214077200 186385771
L214005771 186314342
L214077200 186242914
L214077200 186385771
" />
<path d="M214791485 186385771
L214791485 184885771
" />
<path d="M214934342 185814342
L215362914 186385771
" />
<path d="M215362914 185385771
L214791485 185957200
" />
<path d="M216005771 186385771
L216005771 185385771
" />
<path d="M216005771 184885771
L215934342 184957200
L216005771 185028628
L216077200 184957200
L216005771 184885771
L216005771 185028628
" />
<path d="M217362914 186314342
L217220057 186385771
L216934342 186385771
L216791485 186314342
L216720057 186242914
L216648628 186100057
L216648628 185671485
L216720057 185528628
L216791485 185457200
L216934342 185385771
L217220057 185385771
L217362914 185457200
" />
<path d="M218648628 186385771
L218648628 185600057
L218577200 185457200
L218434342 185385771
L218148628 185385771
L218005771 185457200
" />
<path d="M218648628 186314342
L218505771 186385771
L218148628 186385771
L218005771 186314342
L217934342 186171485
L217934342 186028628
L218005771 185885771
L218148628 185814342
L218505771 185814342
L218648628 185742914
" />
<path d="M220005771 186385771
L220005771 184885771
" />
<path d="M220005771 186314342
L219862914 186385771
L219577200 186385771
L219434342 186314342
L219362914 186242914
L219291485 186100057
L219291485 185671485
L219362914 185528628
L219434342 185457200
L219577200 185385771
L219862914 185385771
L220005771 185457200
" />
<path d="M220362914 186528628
L221505771 186528628
" />
<path d="M221862914 185385771
L221862914 186885771
" />
<path d="M221862914 185457200
L222005771 185385771
L222291485 185385771
L222434342 185457200
L222505771 185528628
L222577200 185671485
L222577200 186100057
L222505771 186242914
L222434342 186314342
L222291485 186385771
L222005771 186385771
L221862914 186314342
" />
<path d="M223862914 186314342
L223720057 186385771
L223434342 186385771
L223291485 186314342
L223220057 186242914
L223148628 186100057
L223148628 185671485
L223220057 185528628
L223291485 185457200
L223434342 185385771
L223720057 185385771
L223862914 185457200
" />
<path d="M224505771 186385771
L224505771 184885771
" />
<path d="M224505771 185457200
L224648628 185385771
L224934342 185385771
L225077200 185457200
L225148628 185528628
L225220057 185671485
L225220057 186100057
L225148628 186242914
L225077200 186314342
L224934342 186385771
L224648628 186385771
L224505771 186314342
" />
</g></g>
<g style="fill:#000000; fill-opacity:0.0; 
stroke:#000000; stroke-width:21200.000000; stroke-opacity:1; 
stroke-linecap:round; stroke-linejoin:round;">
</g>
<g style="fill:#000000; fill-opacity:0.0; 
stroke:#000000; stroke-width:150000.000000; stroke-opacity:1; 
stroke-linecap:round; stroke-linejoin:round;">
<path d="M177002200 181507200
L285002200 181507200
" />
</g>
<g style="fill:#000000; fill-opacity:0.0; 
stroke:#000000; stroke-width:21200.000000; stroke-opacity:1; 
stroke-linecap:round; stroke-linejoin:round;">
</g>
<g style="fill:#000000; fill-opacity:0.0; 
stroke:#000000; stroke-width:150000.000000; stroke-opacity:1; 
stroke-linecap:round; stroke-linejoin:round;">
<text x="178002200.000000" y="183757200.000000"
textLength="8221429.000000" font-size="2000000.000000" lengthAdjust="spacingAndGlyphs"
text-anchor="start" opacity="0">Sheet: </text>
<g class="stroked-text"><desc>Sheet: </desc>
<path d="M178362914 183614342
L178577200 183685771
L178934342 183685771
L179077200 183614342
L179148628 183542914
L179220057 183400057
L179220057 183257200
L179148628 183114342
L179077200 183042914
L178934342 182971485
L178648628 182900057
L178505771 182828628
L178434342 182757200
L178362914 182614342
L178362914 182471485
L178434342 182328628
L178505771 182257200
L178648628 182185771
L179005771 182185771
L179220057 182257200
" />
<path d="M179862914 183685771
L179862914 182185771
" />
<path d="M180505771 183685771
L180505771 182900057
L180434342 182757200
L180291485 182685771
L180077200 182685771
L179934342 182757200
L179862914 182828628
" />
<path d="M181791485 183614342
L181648628 183685771
L181362914 183685771
L181220057 183614342
L181148628 183471485
L181148628 182900057
L181220057 182757200
L181362914 182685771
L181648628 182685771
L181791485 182757200
L181862914 182900057
L181862914 183042914
L181148628 183185771
" />
<path d="M183077200 183614342
L182934342 183685771
L182648628 183685771
L182505771 183614342
L182434342 183471485
L182434342 182900057
L182505771 182757200
L182648628 182685771
L182934342 182685771
L183077200 182757200
L183148628 182900057
L183148628 183042914
L182434342 183185771
" />
<path d="M183577200 182685771
L184148628 182685771
" />
<path d="M183791485 182185771
L183791485 183471485
L183862914 183614342
L184005771 183685771
L184148628 183685771
" />
<path d="M184648628 183542914
L184720057 183614342
L184648628 183685771
L184577200 183614342
L184648628 183542914
L184648628 183685771
" />
<path d="M184648628 182757200
L184720057 182828628
L184648628 182900057
L184577200 182828628
L184648628 182757200
L184648628 182900057
" />
</g></g>
<g style="fill:#000000; fill-opacity:0.0; 
stroke:#000000; stroke-width:21200.000000; stroke-opacity:1; 
stroke-linecap:round; stroke-linejoin:round;">
</g>
<g style="fill:#000000; fill-opacity:0.0; 
stroke:#000000; stroke-width:300000.000000; stroke-opacity:1; 
stroke-linecap:round; stroke-linejoin:round;">
<text x="178002200.000000" y="180757200.000000"
textLength="150000.000000" font-size="2000000.000000" lengthAdjust="spacingAndGlyphs"
text-anchor="start" opacity="0"></text>
<g class="stroked-text"><desc></desc>
</g></g>
<g style="fill:#000000; fill-opacity:0.0; 
stroke:#000000; stroke-width:21200.000000; stroke-opacity:1; 
stroke-linecap:round; stroke-linejoin:round;">
</g>
<g style="fill:#000000; fill-opacity:0.0; 
stroke:#000000; stroke-width:150000.000000; stroke-opacity:1; 
stroke-linecap:round; stroke-linejoin:round;">
<text x="178002200.000000" y="177757200.000000"
textLength="300000.000000" font-size="2000000.000000" lengthAdjust="spacingAndGlyphs"
text-anchor="start" opacity="0"></text>
<g class="stroked-text"><desc></desc>
</g></g>
<g style="fill:#000000; fill-opacity:0.0; 
stroke:#000000; stroke-width:21200.000000; stroke-opacity:1; 
stroke-linecap:round; stroke-linejoin:round;">
</g>
<g style="fill:#000000; fill-opacity:0.0; 
stroke:#000000; stroke-width:150000.000000; stroke-opacity:1; 
stroke-linecap:round; stroke-linejoin:round;">
<text x="178002200.000000" y="174757200.000000"
textLength="150000.000000" font-size="2000000.000000" lengthAdjust="spacingAndGlyphs"
text-anchor="start" opacity="0"></text>
<g class="stroked-text"><desc></desc>
</g></g>
<g style="fill:#000000; fill-opacity:0.0; 
stroke:#000000; stroke-width:21200.000000; stroke-opacity:1; 
stroke-linecap:round; stroke-linejoin:round;">
</g>
<g style="fill:#000000; fill-opacity:0.0; 
stroke:#000000; stroke-width:150000.000000; stroke-opacity:1; 
stroke-linecap:round; stroke-linejoin:round;">
<text x="178002200.000000" y="171757200.000000"
textLength="150000.000000" font-size="2000000.000000" lengthAdjust="spacingAndGlyphs"
text-anchor="start" opacity="0"></text>
<g class="stroked-text"><desc></desc>
</g></g>
<g style="fill:#000000; fill-opacity:0.0; 
stroke:#000000; stroke-width:21200.000000; stroke-opacity:1; 
stroke-linecap:round; stroke-linejoin:round;">
</g>
<g style="fill:#000000; fill-opacity:0.0; 
stroke:#000000; stroke-width:150000.000000; stroke-opacity:1; 
stroke-linecap:round; stroke-linejoin:round;">
<text x="178002200.000000" y="168757200.000000"
textLength="150000.000000" font-size="2000000.000000" lengthAdjust="spacingAndGlyphs"
text-anchor="start" opacity="0"></text>
<g class="stroked-text"><desc></desc>
</g></g>
<g style="fill:#000000; fill-opacity:0.0; 
stroke:#000000; stroke-width:21200.000000; stroke-opacity:1; 
stroke-linecap:round; stroke-linejoin:round;">
</g>
<g style="fill:#000000; fill-opacity:0.0; 
stroke:#000000; stroke-width:150000.000000; stroke-opacity:1; 
stroke-linecap:round; stroke-linejoin:round;">
<path d="M197002200 191507200
L197002200 194507200
" />
</g>
<g style="fill:#000000; fill-opacity:0.0; 
stroke:#000000; stroke-width:21200.000000; stroke-opacity:1; 
stroke-linecap:round; stroke-linejoin:round;">
</g>
<g style="fill:#000000; fill-opacity:0.0; 
stroke:#000000; stroke-width:150000.000000; stroke-opacity:1; 
stroke-linecap:round; stroke-linejoin:round;">
<path d="M261002200 191507200
L261002200 198007200
" />
</g>
<g style="fill:#E8B2A7; fill-opacity:0.0; 
stroke:#E8B2A7; stroke-width:150000.000000; stroke-opacity:1; 
stroke-linecap:round; stroke-linejoin:round;">
<text x="136525000.000000" y="47331250.000000"
transform="scale(-1 1) translate(-273050000.000000 0)"
textLength="2850000.000000" font-size="1333333.000000" lengthAdjust="spacingAndGlyphs"
text-anchor="middle" opacity="0">UR2</text>
<g class="stroked-text"><desc>UR2</desc>
<path d="M137786904 46283630
L137786904 47093154
L137739285 47188392
L137691666 47236011
L137596428 47283630
L137405952 47283630
L137310714 47236011
L137263095 47188392
L137215476 47093154
L137215476 46283630
" />
<path d="M136167857 47283630
L136501190 46807440
" />
<path d="M136739285 47283630
L136739285 46283630
L136358333 46283630
L136263095 46331250
L136215476 46378869
L136167857 46474107
L136167857 46616964
L136215476 46712202
L136263095 46759821
L136358333 46807440
L136739285 46807440
" />
<path d="M135786904 46378869
L135739285 46331250
L135644047 46283630
L135405952 46283630
L135310714 46331250
L135263095 46378869
L135215476 46474107
L135215476 46569345
L135263095 46712202
L135834523 47283630
L135215476 47283630
" />
</g><g transform="rotate(-45.000000 151104944.000000 37490703.000000)">
<text x="151104944.000000" y="37990703.000000"
transform="scale(-1 1) translate(-302209888.000000 0)"
textLength="1709762.000000" font-size="1333333.000000" lengthAdjust="spacingAndGlyphs"
text-anchor="middle" opacity="0">X1</text>
</g>
<g class="stroked-text"><desc>X1</desc>
<path d="M151290138 36531058
L151525840 37709569
" />
<path d="M150818734 37002462
L151997245 37238164
" />
<path d="M150886077 38349332
L151290138 37945271
" />
<path d="M151088108 38147302
L150381001 37440195
L150549360 37473867
L150684047 37473867
L150785062 37440195
" />
</g></g>
<g style="fill:#E8B2A7; fill-opacity:0.0; 
stroke:#E8B2A7; stroke-width:125000.000000; stroke-opacity:1; 
stroke-linecap:round; stroke-linejoin:round;">
<g transform="rotate(-45.000000 147244849.000000 38519999.000000)">
<text x="147244849.000000" y="38769999.000000"
transform="scale(-1 1) translate(-294489698.000000 0)"
textLength="281190.000000" font-size="666666.000000" lengthAdjust="spacingAndGlyphs"
text-anchor="middle" opacity="0">2</text>
</g>
<g class="stroked-text"><desc>2</desc>
<path d="M147185923 38259042
L147152251 38259042
L147101744 38275878
L147017564 38360058
L147000728 38410565
L147000728 38444237
L147017564 38494745
L147051236 38528416
L147118579 38562088
L147522640 38562088
L147303774 38780955
" />
</g><g transform="rotate(-45.000000 145106128.000000 36114868.000000)">
<text x="145106128.000000" y="36364868.000000"
transform="scale(-1 1) translate(-290212256.000000 0)"
textLength="313690.000000" font-size="666666.000000" lengthAdjust="spacingAndGlyphs"
text-anchor="middle" opacity="0">3</text>
</g>
<g class="stroked-text"><desc>3</desc>
<path d="M145030366 35803404
L144811500 36022270
L145064038 36039106
L145013530 36089614
L144996694 36140121
L144996694 36173793
L145013530 36224301
L145097710 36308480
L145148217 36325316
L145181889 36325316
L145232397 36308480
L145333412 36207465
L145350248 36156957
L145350248 36123285
" />
</g><g transform="rotate(-45.000000 149734755.000000 31375494.000000)">
<text x="149734755.000000" y="31625494.000000"
transform="scale(-1 1) translate(-299469510.000000 0)"
textLength="313690.000000" font-size="666666.000000" lengthAdjust="spacingAndGlyphs"
text-anchor="middle" opacity="0">4</text>
</g>
<g class="stroked-text"><desc>4</desc>
<path d="M149591650 31367076
L149827352 31602778
" />
<path d="M149541142 31148209
L149877859 31316568
L149658993 31535434
" />
</g><g transform="rotate(-45.000000 152476933.000000 34445730.000000)">
<text x="152476933.000000" y="34695730.000000"
transform="scale(-1 1) translate(-304953866.000000 0)"
textLength="313690.000000" font-size="666666.000000" lengthAdjust="spacingAndGlyphs"
text-anchor="middle" opacity="0">1</text>
</g>
<g class="stroked-text"><desc>1</desc>
<path d="M152535858 34706686
L152737889 34504655
" />
<path d="M152636873 34605670
L152283320 34252117
L152367499 34268953
L152434843 34268953
L152485350 34252117
" />
</g></g>
<g style="fill:#E8B2A7; fill-opacity:0.0; 
stroke:#E8B2A7; stroke-width:150000.000000; stroke-opacity:1; 
stroke-linecap:round; stroke-linejoin:round;">
<text x="50850487.000000" y="28958886.000000"
transform="scale(-1 1) translate(-101700974.000000 0)"
textLength="1789881.000000" font-size="1333333.000000" lengthAdjust="spacingAndGlyphs"
text-anchor="middle" opacity="0">C0</text>
<g class="stroked-text"><desc>C0</desc>
<path d="M51017153 28816028
L51064772 28863647
L51207629 28911266
L51302867 28911266
L51445725 28863647
L51540963 28768409
L51588582 28673171
L51636201 28482695
L51636201 28339838
L51588582 28149362
L51540963 28054124
L51445725 27958886
L51302867 27911266
L51207629 27911266
L51064772 27958886
L51017153 28006505
" />
<path d="M50398106 27911266
L50302867 27911266
L50207629 27958886
L50160010 28006505
L50112391 28101743
L50064772 28292219
L50064772 28530314
L50112391 28720790
L50160010 28816028
L50207629 28863647
L50302867 28911266
L50398106 28911266
L50493344 28863647
L50540963 28816028
L50588582 28720790
L50636201 28530314
L50636201 28292219
L50588582 28101743
L50540963 28006505
L50493344 27958886
L50398106 27911266
" />
</g><text x="143299729.000000" y="56155000.000000"
transform="scale(-1 1) translate(-286599458.000000 0)"
textLength="1757381.000000" font-size="1333333.000000" lengthAdjust="spacingAndGlyphs"
text-anchor="middle" opacity="0">C2</text>
<g class="stroked-text"><desc>C2</desc>
<path d="M143466395 56012142
L143514014 56059761
L143656871 56107380
L143752109 56107380
L143894967 56059761
L143990205 55964523
L144037824 55869285
L144085443 55678809
L144085443 55535952
L144037824 55345476
L143990205 55250238
L143894967 55155000
L143752109 55107380
L143656871 55107380
L143514014 55155000
L143466395 55202619
" />
<path d="M143085443 55202619
L143037824 55155000
L142942586 55107380
L142704490 55107380
L142609252 55155000
L142561633 55202619
L142514014 55297857
L142514014 55393095
L142561633 55535952
L143133062 56107380
L142514014 56107380
" />
</g><g transform="rotate(-90.000000 158812500.000000 50800000.000000)">
<text x="158812500.000000" y="51300000.000000"
transform="scale(-1 1) translate(-317625000.000000 0)"
textLength="1757381.000000" font-size="1333333.000000" lengthAdjust="spacingAndGlyphs"
text-anchor="middle" opacity="0">R2</text>
</g>
<g class="stroked-text"><desc>R2</desc>
<path d="M159264880 50633333
L158788690 50300000
" />
<path d="M159264880 50061904
L158264880 50061904
L158264880 50442857
L158312500 50538095
L158360119 50585714
L158455357 50633333
L158598214 50633333
L158693452 50585714
L158741071 50538095
L158788690 50442857
L158788690 50061904
" />
<path d="M158360119 51014285
L158312500 51061904
L158264880 51157142
L158264880 51395238
L158312500 51490476
L158360119 51538095
L158455357 51585714
L158550595 51585714
L158693452 51538095
L159264880 50966666
L159264880 51585714
" />
</g><text x="149166587.000000" y="55507536.000000"
transform="scale(-1 1) translate(-298333174.000000 0)"
textLength="1805000.000000" font-size="1333333.000000" lengthAdjust="spacingAndGlyphs"
text-anchor="middle" opacity="0">U2</text>
<g class="stroked-text"><desc>U2</desc>
<path d="M149928491 54459916
L149928491 55269440
L149880872 55364678
L149833253 55412297
L149738015 55459916
L149547539 55459916
L149452301 55412297
L149404682 55364678
L149357063 55269440
L149357063 54459916
" />
<path d="M148928491 54555155
L148880872 54507536
L148785634 54459916
L148547539 54459916
L148452301 54507536
L148404682 54555155
L148357063 54650393
L148357063 54745631
L148404682 54888488
L148976110 55459916
L148357063 55459916
" />
</g><text x="82550000.000000" y="33043750.000000"
transform="scale(-1 1) translate(-165100000.000000 0)"
textLength="2852619.000000" font-size="1333333.000000" lengthAdjust="spacingAndGlyphs"
text-anchor="middle" opacity="0">SW1</text>
<g class="stroked-text"><desc>SW1</desc>
<path d="M83883333 32948511
L83740476 32996130
L83502380 32996130
L83407142 32948511
L83359523 32900892
L83311904 32805654
L83311904 32710416
L83359523 32615178
L83407142 32567559
L83502380 32519940
L83692857 32472321
L83788095 32424702
L83835714 32377083
L83883333 32281845
L83883333 32186607
L83835714 32091369
L83788095 32043750
L83692857 31996130
L83454761 31996130
L83311904 32043750
" />
<path d="M82978571 31996130
L82740476 32996130
L82550000 32281845
L82359523 32996130
L82121428 31996130
" />
<path d="M81216666 32996130
L81788095 32996130
" />
<path d="M81502380 32996130
L81502380 31996130
L81597619 32138988
L81692857 32234226
L81788095 32281845
" />
</g><g transform="rotate(-45.000000 144869500.000000 31849870.000000)">
<text x="144869500.000000" y="32349870.000000"
transform="scale(-1 1) translate(-289739000.000000 0)"
textLength="1757381.000000" font-size="1333333.000000" lengthAdjust="spacingAndGlyphs"
text-anchor="middle" opacity="0">C8</text>
</g>
<g class="stroked-text"><desc>C8</desc>
<path d="M145239889 31984557
L145307232 31984557
L145441919 31917213
L145509263 31849869
L145576606 31715182
L145576606 31580495
L145542935 31479480
L145441919 31311121
L145340904 31210106
L145172545 31109091
L145071530 31075419
L144936843 31075419
L144802156 31142763
L144734812 31210106
L144667469 31344793
L144667469 31412137
" />
<path d="M144499110 32051900
L144532782 31950885
L144532782 31883541
L144499110 31782526
L144465438 31748854
L144364423 31715182
L144297080 31715182
L144196064 31748854
L144061377 31883541
L144027706 31984557
L144027706 32051900
L144061377 32152915
L144095049 32186587
L144196064 32220259
L144263408 32220259
L144364423 32186587
L144499110 32051900
L144600125 32018228
L144667469 32018228
L144768484 32051900
L144903171 32186587
L144936843 32287602
L144936843 32354946
L144903171 32455961
L144768484 32590648
L144667469 32624320
L144600125 32624320
L144499110 32590648
L144364423 32455961
L144330751 32354946
L144330751 32287602
L144364423 32186587
" />
</g><text x="139700000.000000" y="43918902.000000"
transform="scale(-1 1) translate(-279400000.000000 0)"
textLength="1757381.000000" font-size="1333333.000000" lengthAdjust="spacingAndGlyphs"
text-anchor="middle" opacity="0">C6</text>
<g class="stroked-text"><desc>C6</desc>
<path d="M139866666 43776044
L139914285 43823663
L140057142 43871282
L140152380 43871282
L140295238 43823663
L140390476 43728425
L140438095 43633187
L140485714 43442711
L140485714 43299854
L140438095 43109378
L140390476 43014140
L140295238 42918902
L140152380 42871282
L140057142 42871282
L139914285 42918902
L139866666 42966521
" />
<path d="M139009523 42871282
L139200000 42871282
L139295238 42918902
L139342857 42966521
L139438095 43109378
L139485714 43299854
L139485714 43680806
L139438095 43776044
L139390476 43823663
L139295238 43871282
L139104761 43871282
L139009523 43823663
L138961904 43776044
L138914285 43680806
L138914285 43442711
L138961904 43347473
L139009523 43299854
L139104761 43252235
L139295238 43252235
L139390476 43299854
L139438095 43347473
L139485714 43442711
" />
</g><text x="53189287.000000" y="34161726.000000"
transform="scale(-1 1) translate(-106378574.000000 0)"
textLength="2805000.000000" font-size="1333333.000000" lengthAdjust="spacingAndGlyphs"
text-anchor="middle" opacity="0">UR3</text>
<g class="stroked-text"><desc>UR3</desc>
<path d="M54451191 33114106
L54451191 33923630
L54403572 34018868
L54355953 34066487
L54260715 34114106
L54070239 34114106
L53975001 34066487
L53927382 34018868
L53879763 33923630
L53879763 33114106
" />
<path d="M52832144 34114106
L53165477 33637916
" />
<path d="M53403572 34114106
L53403572 33114106
L53022620 33114106
L52927382 33161726
L52879763 33209345
L52832144 33304583
L52832144 33447440
L52879763 33542678
L52927382 33590297
L53022620 33637916
L53403572 33637916
" />
<path d="M52498810 33114106
L51879763 33114106
L52213096 33495059
L52070239 33495059
L51975001 33542678
L51927382 33590297
L51879763 33685535
L51879763 33923630
L51927382 34018868
L51975001 34066487
L52070239 34114106
L52355953 34114106
L52451191 34066487
L52498810 34018868
" />
</g><g transform="rotate(-90.000000 158872500.000000 40969456.000000)">
<text x="158872500.000000" y="41469456.000000"
transform="scale(-1 1) translate(-317745000.000000 0)"
textLength="1757381.000000" font-size="1333333.000000" lengthAdjust="spacingAndGlyphs"
text-anchor="middle" opacity="0">C4</text>
</g>
<g class="stroked-text"><desc>C4</desc>
<path d="M159229642 40802789
L159277261 40755170
L159324880 40612313
L159324880 40517075
L159277261 40374217
L159182023 40278979
L159086785 40231360
L158896309 40183741
L158753452 40183741
L158562976 40231360
L158467738 40278979
L158372500 40374217
L158324880 40517075
L158324880 40612313
L158372500 40755170
L158420119 40802789
" />
<path d="M158658214 41659932
L159324880 41659932
" />
<path d="M158277261 41421836
L158991547 41183741
L158991547 41802789
" />
</g><g transform="rotate(-90.000000 65180000.000000 42868364.000000)">
<text x="65180000.000000" y="43368364.000000"
transform="scale(-1 1) translate(-130360000.000000 0)"
textLength="1757381.000000" font-size="1333333.000000" lengthAdjust="spacingAndGlyphs"
text-anchor="middle" opacity="0">C1</text>
</g>
<g class="stroked-text"><desc>C1</desc>
<path d="M65537142 42701697
L65584761 42654078
L65632380 42511221
L65632380 42415983
L65584761 42273125
L65489523 42177887
L65394285 42130268
L65203809 42082649
L65060952 42082649
L64870476 42130268
L64775238 42177887
L64680000 42273125
L64632380 42415983
L64632380 42511221
L64680000 42654078
L64727619 42701697
" />
<path d="M65632380 43654078
L65632380 43082649
" />
<path d="M65632380 43368364
L64632380 43368364
L64775238 43273125
L64870476 43177887
L64918095 43082649
" />
</g><g transform="rotate(-90.000000 30100000.000000 30956250.000000)">
<text x="30100000.000000" y="31456250.000000"
transform="scale(-1 1) translate(-60200000.000000 0)"
textLength="2805000.000000" font-size="1333333.000000" lengthAdjust="spacingAndGlyphs"
text-anchor="middle" opacity="0">UR4</text>
</g>
<g class="stroked-text"><desc>UR4</desc>
<path d="M29552380 29694345
L30361904 29694345
L30457142 29741964
L30504761 29789583
L30552380 29884821
L30552380 30075297
L30504761 30170535
L30457142 30218154
L30361904 30265773
L29552380 30265773
" />
<path d="M30552380 31313392
L30076190 30980059
" />
<path d="M30552380 30741964
L29552380 30741964
L29552380 31122916
L29600000 31218154
L29647619 31265773
L29742857 31313392
L29885714 31313392
L29980952 31265773
L30028571 31218154
L30076190 31122916
L30076190 30741964
" />
<path d="M29885714 32170535
L30552380 32170535
" />
<path d="M29504761 31932440
L30219047 31694345
L30219047 32313392
" />
</g><text x="34148314.000000" y="34105569.000000"
transform="scale(-1 1) translate(-68296628.000000 0)"
textLength="2805000.000000" font-size="1333333.000000" lengthAdjust="spacingAndGlyphs"
text-anchor="middle" opacity="0">UR5</text>
<g class="stroked-text"><desc>UR5</desc>
<path d="M35410218 33057949
L35410218 33867473
L35362599 33962711
L35314980 34010330
L35219742 34057949
L35029266 34057949
L34934028 34010330
L34886409 33962711
L34838790 33867473
L34838790 33057949
" />
<path d="M33791171 34057949
L34124504 33581759
" />
<path d="M34362599 34057949
L34362599 33057949
L33981647 33057949
L33886409 33105569
L33838790 33153188
L33791171 33248426
L33791171 33391283
L33838790 33486521
L33886409 33534140
L33981647 33581759
L34362599 33581759
" />
<path d="M32886409 33057949
L33362599 33057949
L33410218 33534140
L33362599 33486521
L33267361 33438902
L33029266 33438902
L32934028 33486521
L32886409 33534140
L32838790 33629378
L32838790 33867473
L32886409 33962711
L32934028 34010330
L33029266 34057949
L33267361 34057949
L33362599 34010330
L33410218 33962711
" />
</g><text x="44450000.000000" y="36188600.000000"
transform="scale(-1 1) translate(-88900000.000000 0)"
textLength="3757381.000000" font-size="1333333.000000" lengthAdjust="spacingAndGlyphs"
text-anchor="middle" opacity="0">USB1</text>
<g class="stroked-text"><desc>USB1</desc>
<path d="M46188095 35140980
L46188095 35950504
L46140476 36045742
L46092857 36093361
L45997619 36140980
L45807142 36140980
L45711904 36093361
L45664285 36045742
L45616666 35950504
L45616666 35140980
" />
<path d="M45188095 36093361
L45045238 36140980
L44807142 36140980
L44711904 36093361
L44664285 36045742
L44616666 35950504
L44616666 35855266
L44664285 35760028
L44711904 35712409
L44807142 35664790
L44997619 35617171
L45092857 35569552
L45140476 35521933
L45188095 35426695
L45188095 35331457
L45140476 35236219
L45092857 35188600
L44997619 35140980
L44759523 35140980
L44616666 35188600
" />
<path d="M43854761 35617171
L43711904 35664790
L43664285 35712409
L43616666 35807647
L43616666 35950504
L43664285 36045742
L43711904 36093361
L43807142 36140980
L44188095 36140980
L44188095 35140980
L43854761 35140980
L43759523 35188600
L43711904 35236219
L43664285 35331457
L43664285 35426695
L43711904 35521933
L43759523 35569552
L43854761 35617171
L44188095 35617171
" />
<path d="M42664285 36140980
L43235714 36140980
" />
<path d="M42950000 36140980
L42950000 35140980
L43045238 35283838
L43140476 35379076
L43235714 35426695
" />
</g></g>
<g style="fill:#E8B2A7; fill-opacity:0.0; 
stroke:#E8B2A7; stroke-width:125000.000000; stroke-opacity:1; 
stroke-linecap:round; stroke-linejoin:round;">
<g transform="rotate(-180.000000 48498428.000000 34535396.000000)">
<text x="48498428.000000" y="34785396.000000"
transform="scale(-1 1) translate(-96996856.000000 0)"
textLength="757381.000000" font-size="666666.000000" lengthAdjust="spacingAndGlyphs"
text-anchor="middle" opacity="0">12</text>
</g>
<g class="stroked-text"><desc>12</desc>
<path d="M48403189 34309205
L48117475 34309205
" />
<path d="M48260332 34309205
L48260332 34809205
L48212713 34737776
L48165094 34690157
L48117475 34666348
" />
<path d="M48593666 34761586
L48617475 34785396
L48665094 34809205
L48784142 34809205
L48831761 34785396
L48855570 34761586
L48879380 34713967
L48879380 34666348
L48855570 34594919
L48569856 34309205
L48879380 34309205
" />
</g><g transform="rotate(-180.000000 40305753.000000 34493020.000000)">
<text x="40305753.000000" y="34743020.000000"
transform="scale(-1 1) translate(-80611506.000000 0)"
textLength="313690.000000" font-size="666666.000000" lengthAdjust="spacingAndGlyphs"
text-anchor="middle" opacity="0">1</text>
</g>
<g class="stroked-text"><desc>1</desc>
<path d="M40448610 34266829
L40162895 34266829
" />
<path d="M40305753 34266829
L40305753 34766829
L40258133 34695400
L40210514 34647781
L40162895 34623972
" />
</g></g>
<g style="fill:#E8B2A7; fill-opacity:0.0; 
stroke:#E8B2A7; stroke-width:150000.000000; stroke-opacity:1; 
stroke-linecap:round; stroke-linejoin:round;">
<text x="44450000.000000" y="43751474.000000"
transform="scale(-1 1) translate(-88900000.000000 0)"
textLength="1837500.000000" font-size="1333333.000000" lengthAdjust="spacingAndGlyphs"
text-anchor="middle" opacity="0">U1</text>
<g class="stroked-text"><desc>U1</desc>
<path d="M45211904 42703854
L45211904 43513378
L45164285 43608616
L45116666 43656235
L45021428 43703854
L44830952 43703854
L44735714 43656235
L44688095 43608616
L44640476 43513378
L44640476 42703854
" />
<path d="M43640476 43703854
L44211904 43703854
" />
<path d="M43926190 43703854
L43926190 42703854
L44021428 42846712
L44116666 42941950
L44211904 42989569
" />
</g><text x="149225000.000000" y="54146072.000000"
transform="scale(-1 1) translate(-298450000.000000 0)"
textLength="1805000.000000" font-size="1333333.000000" lengthAdjust="spacingAndGlyphs"
text-anchor="middle" opacity="0">U3</text>
<g class="stroked-text"><desc>U3</desc>
<path d="M149986904 53098452
L149986904 53907976
L149939285 54003214
L149891666 54050833
L149796428 54098452
L149605952 54098452
L149510714 54050833
L149463095 54003214
L149415476 53907976
L149415476 53098452
" />
<path d="M149034523 53098452
L148415476 53098452
L148748809 53479405
L148605952 53479405
L148510714 53527024
L148463095 53574643
L148415476 53669881
L148415476 53907976
L148463095 54003214
L148510714 54050833
L148605952 54098452
L148891666 54098452
L148986904 54050833
L149034523 54003214
" />
</g><g transform="rotate(-135.000000 152964634.000000 31418265.000000)">
<text x="152964634.000000" y="31918265.000000"
transform="scale(-1 1) translate(-305929268.000000 0)"
textLength="1757381.000000" font-size="1333333.000000" lengthAdjust="spacingAndGlyphs"
text-anchor="middle" opacity="0">C7</text>
</g>
<g class="stroked-text"><desc>C7</desc>
<path d="M153099321 31047875
L153099321 30980532
L153031977 30845845
L152964634 30778501
L152829946 30711158
L152695259 30711158
L152594244 30744829
L152425885 30845845
L152324870 30946860
L152223855 31115219
L152190183 31216234
L152190183 31350921
L152257527 31485608
L152324870 31552952
L152459557 31620295
L152526901 31620295
" />
<path d="M152695259 31923341
L153166664 32394745
L153570725 31384593
" />
</g><text x="48585040.000000" y="44401819.000000"
transform="scale(-1 1) translate(-97170080.000000 0)"
textLength="1614524.000000" font-size="1333333.000000" lengthAdjust="spacingAndGlyphs"
text-anchor="middle" opacity="0">F1</text>
<g class="stroked-text"><desc>F1</desc>
<path d="M48918373 43830390
L49251706 43830390
" />
<path d="M49251706 44354199
L49251706 43354199
L48775516 43354199
" />
<path d="M47870754 44354199
L48442182 44354199
" />
<path d="M48156468 44354199
L48156468 43354199
L48251706 43497057
L48346944 43592295
L48442182 43639914
" />
</g><text x="139700000.000000" y="51362500.000000"
transform="scale(-1 1) translate(-279400000.000000 0)"
textLength="2805000.000000" font-size="1333333.000000" lengthAdjust="spacingAndGlyphs"
text-anchor="middle" opacity="0">UR1</text>
<g class="stroked-text"><desc>UR1</desc>
<path d="M140961904 50314880
L140961904 51124404
L140914285 51219642
L140866666 51267261
L140771428 51314880
L140580952 51314880
L140485714 51267261
L140438095 51219642
L140390476 51124404
L140390476 50314880
" />
<path d="M139342857 51314880
L139676190 50838690
" />
<path d="M139914285 51314880
L139914285 50314880
L139533333 50314880
L139438095 50362500
L139390476 50410119
L139342857 50505357
L139342857 50648214
L139390476 50743452
L139438095 50791071
L139533333 50838690
L139914285 50838690
" />
<path d="M138390476 51314880
L138961904 51314880
" />
<path d="M138676190 51314880
L138676190 50314880
L138771428 50457738
L138866666 50552976
L138961904 50600595
" />
</g><text x="80678790.000000" y="43202708.000000"
transform="scale(-1 1) translate(-161357580.000000 0)"
textLength="1757381.000000" font-size="1333333.000000" lengthAdjust="spacingAndGlyphs"
text-anchor="middle" opacity="0">R1</text>
<g class="stroked-text"><desc>R1</desc>
<path d="M80845456 43155088
L81178790 42678898
" />
<path d="M81416885 43155088
L81416885 42155088
L81035932 42155088
L80940694 42202708
L80893075 42250327
L80845456 42345565
L80845456 42488422
L80893075 42583660
L80940694 42631279
L81035932 42678898
L81416885 42678898
" />
<path d="M79893075 43155088
L80464504 43155088
" />
<path d="M80178790 43155088
L80178790 42155088
L80274028 42297946
L80369266 42393184
L80464504 42440803
" />
</g><text x="140174535.000000" y="38694847.000000"
transform="scale(-1 1) translate(-280349070.000000 0)"
textLength="1757381.000000" font-size="1333333.000000" lengthAdjust="spacingAndGlyphs"
text-anchor="middle" opacity="0">C5</text>
<g class="stroked-text"><desc>C5</desc>
<path d="M140341201 38551989
L140388820 38599608
L140531677 38647227
L140626915 38647227
L140769773 38599608
L140865011 38504370
L140912630 38409132
L140960249 38218656
L140960249 38075799
L140912630 37885323
L140865011 37790085
L140769773 37694847
L140626915 37647227
L140531677 37647227
L140388820 37694847
L140341201 37742466
" />
<path d="M139436439 37647227
L139912630 37647227
L139960249 38123418
L139912630 38075799
L139817392 38028180
L139579296 38028180
L139484058 38075799
L139436439 38123418
L139388820 38218656
L139388820 38456751
L139436439 38551989
L139484058 38599608
L139579296 38647227
L139817392 38647227
L139912630 38599608
L139960249 38551989
" />
</g><text x="156046655.000000" y="56203353.000000"
transform="scale(-1 1) translate(-312093310.000000 0)"
textLength="1757381.000000" font-size="1333333.000000" lengthAdjust="spacingAndGlyphs"
text-anchor="middle" opacity="0">C3</text>
<g class="stroked-text"><desc>C3</desc>
<path d="M156213321 56060495
L156260940 56108114
L156403797 56155733
L156499035 56155733
L156641893 56108114
L156737131 56012876
L156784750 55917638
L156832369 55727162
L156832369 55584305
L156784750 55393829
L156737131 55298591
L156641893 55203353
L156499035 55155733
L156403797 55155733
L156260940 55203353
L156213321 55250972
" />
<path d="M155879988 55155733
L155260940 55155733
L155594274 55536686
L155451416 55536686
L155356178 55584305
L155308559 55631924
L155260940 55727162
L155260940 55965257
L155308559 56060495
L155356178 56108114
L155451416 56155733
L155737131 56155733
L155832369 56108114
L155879988 56060495
" />
</g></g>
<g style="fill:#E8B2A7; fill-opacity:0.0; 
stroke:#E8B2A7; stroke-width:120000.000000; stroke-opacity:1; 
stroke-linecap:round; stroke-linejoin:round;">
<path d="M86650630 78450000
L84650630 78450000
" />
<path d="M86650630 78450000
L86650630 74550000
" />
<path d="M84650630 78450000
L84650630 74550000
" />
<path d="M139472936 46445500
L139927064 46445500
" />
<path d="M139472936 47915500
L139927064 47915500
" />
<path d="M149041892 31609274
L152223873 34791255
" />
<path d="M152223873 34791255
L148405496 38609632
" />
<path d="M51535000 31217502
L51535000 30694998
" />
<path d="M50065000 31217502
L50065000 30694998
" />
<path d="M105701418 78450000
L103701418 78450000
" />
<path d="M105701418 78450000
L105701418 74550000
" />
<path d="M103701418 78450000
L103701418 74550000
" />
<path d="M169995262 97500000
L167995262 97500000
" />
<path d="M169995262 97500000
L169995262 93600000
" />
<path d="M167995262 97500000
L167995262 93600000
" />
<path d="M265626512 59400000
L265626512 55500000
" />
<path d="M267626512 59400000
L265626512 59400000
" />
<path d="M267626512 59400000
L267626512 55500000
" />
<path d="M191426512 59400000
L191426512 55500000
" />
<path d="M189426512 59400000
L189426512 55500000
" />
<path d="M191426512 59400000
L189426512 59400000
" />
<path d="M75118439 59400000
L75118439 55500000
" />
<path d="M77118439 59400000
L77118439 55500000
" />
<path d="M77118439 59400000
L75118439 59400000
" />
<path d="M267626512 40350000
L267626512 36450000
" />
<path d="M267626512 40350000
L265626512 40350000
" />
<path d="M265626512 40350000
L265626512 36450000
" />
<path d="M136651081 97500000
L134651081 97500000
" />
<path d="M136651081 97500000
L136651081 93600000
" />
<path d="M134651081 97500000
L134651081 93600000
" />
<path d="M198564834 97500000
L196564834 97500000
" />
<path d="M196564834 97500000
L196564834 93600000
" />
<path d="M198564834 97500000
L198564834 93600000
" />
<path d="M143038477 54710000
L143560981 54710000
" />
<path d="M143038477 53240000
L143560981 53240000
" />
<path d="M156427500 51027064
L156427500 50572936
" />
<path d="M157897500 51027064
L157897500 50572936
" />
<path d="M246576512 59400000
L246576512 55500000
" />
<path d="M248576512 59400000
L248576512 55500000
" />
<path d="M248576512 59400000
L246576512 59400000
" />
<path d="M152835000 49806072
L152835000 49081072
" />
<path d="M152110000 42586072
L152835000 42586072
" />
<path d="M146340000 49806072
L145615000 49806072
" />
<path d="M146340000 42586072
L145615000 42586072
" />
<path d="M152835000 42586072
L152835000 43311072
" />
<path d="M145615000 42586072
L145615000 43311072
" />
<path d="M152110000 49806072
L152835000 49806072
" />
<path d="M67599842 78450000
L67599842 74550000
" />
<path d="M65599842 78450000
L65599842 74550000
" />
<path d="M67599842 78450000
L65599842 78450000
" />
<path d="M262848144 78450000
L262848144 74550000
" />
<path d="M260848144 78450000
L260848144 74550000
" />
<path d="M262848144 78450000
L260848144 78450000
" />
<path d="M85270000 35856250
L85270000 38756250
" />
<path d="M79830000 35856250
L79830000 38756250
" />
<path d="M85270000 38756250
L84780000 39246250
" />
<path d="M79830000 35856250
L80320000 35366250
" />
<path d="M79830000 38756250
L80320000 39246250
" />
<path d="M85270000 35856250
L84780000 35366250
" />
<path d="M83590000 34586250
L81510000 34586250
" />
<path d="M83590000 40026250
L81510000 40026250
" />
<path d="M146677434 33432660
L147046901 33063193
" />
<path d="M145637987 32393213
L146007454 32023746
" />
<path d="M58069135 40350000
L56069135 40350000
" />
<path d="M56069135 40350000
L56069135 36450000
" />
<path d="M58069135 40350000
L58069135 36450000
" />
<path d="M139961252 44363902
L139438748 44363902
" />
<path d="M139961252 45833902
L139438748 45833902
" />
<path d="M39019831 59400000
L37019831 59400000
" />
<path d="M39019831 59400000
L39019831 55500000
" />
<path d="M37019831 59400000
L37019831 55500000
" />
<path d="M53916250 30729186
L53916250 31183314
" />
<path d="M52446250 30729186
L52446250 31183314
" />
<path d="M217991491 97500000
L217991491 93600000
" />
<path d="M219991491 97500000
L217991491 97500000
" />
<path d="M219991491 97500000
L219991491 93600000
" />
<path d="M227526512 40350000
L227526512 36450000
" />
<path d="M229526512 40350000
L227526512 40350000
" />
<path d="M229526512 40350000
L229526512 36450000
" />
<path d="M156457500 41230708
L156457500 40708204
" />
<path d="M157927500 41230708
L157927500 40708204
" />
<path d="M96167743 40350000
L96167743 36450000
" />
<path d="M94167743 40350000
L94167743 36450000
" />
<path d="M96167743 40350000
L94167743 40350000
" />
<path d="M172376512 40350000
L172376512 36450000
" />
<path d="M172376512 40350000
L170376512 40350000
" />
<path d="M170376512 40350000
L170376512 36450000
" />
<path d="M64235000 43129616
L64235000 42607112
" />
<path d="M62765000 43129616
L62765000 42607112
" />
<path d="M134266352 59400000
L132266352 59400000
" />
<path d="M132266352 59400000
L132266352 55500000
" />
<path d="M134266352 59400000
L134266352 55500000
" />
<path d="M108081092 97500000
L106081092 97500000
" />
<path d="M106081092 97500000
L106081092 93600000
" />
<path d="M108081092 97500000
L108081092 93600000
" />
<path d="M31015000 30729186
L31015000 31183314
" />
<path d="M32485000 30729186
L32485000 31183314
" />
<path d="M248576512 40350000
L248576512 36450000
" />
<path d="M248576512 40350000
L246576512 40350000
" />
<path d="M246576512 40350000
L246576512 36450000
" />
<path d="M208476512 59400000
L208476512 55500000
" />
<path d="M210476512 59400000
L210476512 55500000
" />
<path d="M210476512 59400000
L208476512 59400000
" />
<path d="M162853782 78450000
L162853782 74550000
" />
<path d="M160853782 78450000
L160853782 74550000
" />
<path d="M162853782 78450000
L160853782 78450000
" />
<path d="M200955358 78450000
L198955358 78450000
" />
<path d="M198955358 78450000
L198955358 74550000
" />
<path d="M200955358 78450000
L200955358 74550000
" />
<path d="M33396250 30729186
L33396250 31183314
" />
<path d="M34866250 30729186
L34866250 31183314
" />
<path d="M143802994 78450000
L143802994 74550000
" />
<path d="M143802994 78450000
L141802994 78450000
" />
<path d="M141802994 78450000
L141802994 74550000
" />
<path d="M77118439 40350000
L77118439 36450000
" />
<path d="M75118439 40350000
L75118439 36450000
" />
<path d="M77118439 40350000
L75118439 40350000
" />
<path d="M227526512 59400000
L227526512 55500000
" />
<path d="M229526512 59400000
L227526512 59400000
" />
<path d="M229526512 59400000
L229526512 55500000
" />
<path d="M122752206 78450000
L122752206 74550000
" />
<path d="M124752206 78450000
L124752206 74550000
" />
<path d="M124752206 78450000
L122752206 78450000
" />
<path d="M220006146 78450000
L220006146 74550000
" />
<path d="M220006146 78450000
L218006146 78450000
" />
<path d="M218006146 78450000
L218006146 74550000
" />
<path d="M43550000 38741474
L45350000 38741474
" />
<path d="M45350000 41961474
L42400000 41961474
" />
</g>
<g style="fill:#E8B2A7; fill-opacity:0.0; 
stroke:#E8B2A7; stroke-width:150000.000000; stroke-opacity:1; 
stroke-linecap:round; stroke-linejoin:round;">
<path d="M144050000 50796072
L142775000 50796072
" />
<path d="M154400000 51371072
L153725000 51371072
" />
<path d="M144050000 51371072
L144050000 50796072
" />
<path d="M144050000 41021072
L144725000 41021072
" />
<path d="M144050000 41021072
L144050000 41696072
" />
<path d="M154400000 41021072
L153725000 41021072
" />
<path d="M154400000 51371072
L154400000 50696072
" />
<path d="M154400000 41021072
L154400000 41696072
" />
<path d="M144050000 51371072
L144725000 51371072
" />
</g>
<g style="fill:#E8B2A7; fill-opacity:0.0; 
stroke:#E8B2A7; stroke-width:120000.000000; stroke-opacity:1; 
stroke-linecap:round; stroke-linejoin:round;">
<path d="M151441705 33310661
L151072238 32941194
" />
<path d="M152481152 32271214
L152111685 31901747
" />
<path d="M239056940 78450000
L239056940 74550000
" />
<path d="M239056940 78450000
L237056940 78450000
" />
<path d="M237056940 78450000
L237056940 74550000
" />
<path d="M208476512 40350000
L208476512 36450000
" />
<path d="M210476512 40350000
L210476512 36450000
" />
<path d="M210476512 40350000
L208476512 40350000
" />
<path d="M134266352 40350000
L134266352 36450000
" />
<path d="M132266352 40350000
L132266352 36450000
" />
<path d="M134266352 40350000
L132266352 40350000
" />
<path d="M51951726 42991819
L53155854 42991819
" />
<path d="M51951726 44811819
L53155854 44811819
" />
<path d="M115217047 40350000
L115217047 36450000
" />
<path d="M113217047 40350000
L113217047 36450000
" />
<path d="M115217047 40350000
L113217047 40350000
" />
<path d="M48548589 78450000
L48548589 74550000
" />
<path d="M46548589 78450000
L46548589 74550000
" />
<path d="M48548589 78450000
L46548589 78450000
" />
<path d="M84666961 97500000
L84666961 93600000
" />
<path d="M86666961 97500000
L84666961 97500000
" />
<path d="M86666961 97500000
L86666961 93600000
" />
<path d="M181904570 78450000
L179904570 78450000
" />
<path d="M181904570 78450000
L181904570 74550000
" />
<path d="M179904570 78450000
L179904570 74550000
" />
<path d="M172376512 59400000
L170376512 59400000
" />
<path d="M170376512 59400000
L170376512 55500000
" />
<path d="M172376512 59400000
L172376512 55500000
" />
<path d="M115217047 59400000
L113217047 59400000
" />
<path d="M115217047 59400000
L115217047 55500000
" />
<path d="M113217047 59400000
L113217047 55500000
" />
<path d="M189426512 40350000
L189426512 36450000
" />
<path d="M191426512 40350000
L189426512 40350000
" />
<path d="M191426512 40350000
L191426512 36450000
" />
<path d="M139472936 49947500
L139927064 49947500
" />
<path d="M139472936 48477500
L139927064 48477500
" />
<path d="M83777064 41923741
L83322936 41923741
" />
<path d="M83777064 43393741
L83322936 43393741
" />
<path d="M96167743 59400000
L94167743 59400000
" />
<path d="M96167743 59400000
L96167743 55500000
" />
<path d="M94167743 59400000
L94167743 55500000
" />
<path d="M58069135 59400000
L58069135 55500000
" />
<path d="M56069135 59400000
L56069135 55500000
" />
<path d="M58069135 59400000
L56069135 59400000
" />
<path d="M39019831 40350000
L39019831 36450000
" />
<path d="M37019831 40350000
L37019831 36450000
" />
<path d="M39019831 40350000
L37019831 40350000
" />
<path d="M143136252 37365000
L142613748 37365000
" />
<path d="M143136252 38835000
L142613748 38835000
" />
<path d="M155836252 53199251
L155313748 53199251
" />
<path d="M155836252 54669251
L155313748 54669251
" />
<path d="M65212329 97500000
L65212329 93600000
" />
<path d="M65212329 97500000
L63212329 97500000
" />
<path d="M63212329 97500000
L63212329 93600000
" />
<path d="M241412720 97500000
L241412720 93600000
" />
<path d="M239412720 97500000
L239412720 93600000
" />
<path d="M241412720 97500000
L239412720 97500000
" />
<g >
</g>
<g >
</g>
<g >
</g>
<g >
</g>
<g >
</g>
<g >
</g>
<g >
</g>
<g >
</g>
<g >
</g>
<g >
</g>
<g >
</g>
<g >
</g>
<g >
</g>
<g >
</g>
<g >
</g>
<g >
</g>
<g >
</g>
<g >
</g>
<g >
</g>
<g >
</g>
<g >
</g>
<g >
</g>
<g >
</g>
<g >
</g>
<g >
</g>
<g >
</g>
<g >
</g>
<g >
</g>
<g >
</g>
<g >
</g>
<g >
</g>
<g >
</g>
<g >
</g>
<g >
</g>
<g >
</g>
<g >
</g>
<g >
</g>
<g >
</g>
<g >
</g>
<g >
</g>
<g >
</g>
<g >
</g>
<g >
</g>
<g >
</g>
<g >
</g>
<g >
</g>
<g >
</g>
<g >
</g>
<g >
</g>
<g >
</g>
<g >
</g>
<g >
</g>
<g >
</g>
<g >
</g>
<g >
</g>
<g >
</g>
<g >
</g>
<g >
</g>
<g >
</g>
<g >
</g>
<g >
</g>
<g >
</g>
<g >
</g>
<g >
</g>
<g >
</g>
<g >
</g>
<g >
</g>
<g >
</g>
<g >
</g>
<g >
</g>
<g >
</g>
<g >
</g>
<g >
</g>
<g >
</g>
<g >
</g>
<g >
</g>
<g >
</g>
<g >
</g>
<g >
</g>
<g >
</g>
<g >
</g>
<g >
</g>
<g >
</g>
<g >
</g>
<g >
</g>
<g >
</g>
<g >
</g>
<g >
</g>
<g >
</g>
<g >
</g>
<g >
</g>
<g >
</g>
<g >
</g>
<g >
</g>
<g >
</g>
<g >
</g>
<g >
</g>
<g >
</g>
<g >
</g>
<g >
</g>
<g >
</g>
<g >
</g>
<g >
</g>
<g >
</g>
<g >
</g>
<g >
</g>
<g >
</g>
<g >
</g>
<g >
</g>
<g >
</g>
<g >
</g>
<g >
</g>
<g >
</g>
<g >
</g>
<g >
</g>
<g >
</g>
<g >
</g>
<g >
</g>
<g >
</g>
<g >
</g>
<g >
</g>
<g >
</g>
<g >
</g>
<g >
</g>
<g >
</g>
<g >
</g>
<g >
</g>
<g >
</g>
</g>
<g style="fill:#000000; fill-opacity:0.0; 
stroke:#000000; stroke-width:120000.000000; stroke-opacity:1; 
stroke-linecap:round; stroke-linejoin:round;">
</g>
<g style="fill:#D0D2CD; fill-opacity:0.0; 
stroke:#D0D2CD; stroke-width:120000.000000; stroke-opacity:1; 
stroke-linecap:round; stroke-linejoin:round;">
</g>
<g style="fill:#D0D2CD; fill-opacity:0.0; 
stroke:#D0D2CD; stroke-width:90000.000000; stroke-opacity:1; 
stroke-linecap:round; stroke-linejoin:round;">
<path d="M48713455.000000,26405375.000000 C48713455.000000,26405375.000000 40213436.000000,26405375.000000 40213436.000000,26405375.000000" />
<path d="M271063342.000000,103905382.000000 C271063342.000000,103905382.000000 271063449.000000,103905382.000000 271063449.000000,103905382.000000" />
<path d="M273063435.000000,101905375.000000 C273063435.000000,101905375.000000 273063435.000000,29705367.000000 273063435.000000,29705367.000000" />
<path d="M27413334.000000,103905382.000000 C27413334.000000,103905382.000000 27413442.000000,103905382.000000 27413442.000000,103905382.000000" />
<path d="M25413327.000000,101905375.000000 C25413327.000000,103009937.000000 26308772.000000,103905382.000000 27413334.000000,103905382.000000" />
<path d="M39713445.000000,27546751.000000 C39712010.000000,27561194.000000 39705107.000000,27612951.000000 39661407.000000,27655579.000000" />
<path d="M49213446.000000,27550433.000000 C49213446.000000,27550433.000000 49213446.000000,26905366.000000 49213446.000000,26905366.000000" />
<path d="M271063449.000000,103905382.000000 C272168012.000000,103905382.000000 273063435.000000,103009937.000000 273063435.000000,101905375.000000" />
<path d="M49362102.000000,27705382.000000 C49350841.000000,27704569.000000 49294387.000000,27699331.000000 49252352.000000,27650966.000000" />
<path d="M25413327.000000,29705367.000000 C25413327.000000,29705367.000000 25413327.000000,101905375.000000 25413327.000000,101905375.000000" />
<path d="M271063342.000000,27705382.000000 C271063342.000000,27705382.000000 49362102.000000,27705382.000000 49362102.000000,27705382.000000" />
<path d="M40213436.000000,26405375.000000 C39937312.000000,26405375.000000 39713445.000000,26629242.000000 39713445.000000,26905366.000000" />
<path d="M27413334.000000,27705382.000000 C26308772.000000,27705382.000000 25413327.000000,28600805.000000 25413327.000000,29705367.000000" />
<path d="M273063435.000000,29705367.000000 C273063435.000000,28600805.000000 272168012.000000,27705382.000000 271063449.000000,27705382.000000" />
<path d="M49252352.000000,27650966.000000 C49216787.000000,27610044.000000 49213826.000000,27563891.000000 49213446.000000,27550433.000000" />
<path d="M27413442.000000,27705382.000000 C27413442.000000,27705382.000000 27413334.000000,27705382.000000 27413334.000000,27705382.000000" />
<path d="M39713445.000000,26905366.000000 C39713445.000000,26905366.000000 39713445.000000,27546751.000000 39713445.000000,27546751.000000" />
<path d="M39535971.000000,27705382.000000 C39535971.000000,27705382.000000 27413442.000000,27705382.000000 27413442.000000,27705382.000000" />
<path d="M271063449.000000,27705382.000000 C271063449.000000,27705382.000000 271063342.000000,27705382.000000 271063342.000000,27705382.000000" />
<path d="M49213446.000000,26905366.000000 C49213446.000000,26629242.000000 48989580.000000,26405375.000000 48713455.000000,26405375.000000" />
<path d="M27413442.000000,103905382.000000 C27413442.000000,103905382.000000 271063342.000000,103905382.000000 271063342.000000,103905382.000000" />
<path d="M39661407.000000,27655579.000000 C39610791.000000,27704951.000000 39548296.000000,27705522.000000 39535971.000000,27705382.000000" />
<g >
</g>
<g >
</g>
<g >
</g>
<g >
</g>
<g >
</g>
<g >
</g>
<g >
</g>
<g >
</g>
<g >
</g>
<g >
</g>
<g >
</g>
<g >
</g>
<g >
</g>
<g >
</g>
<g >
</g>
<g >
</g>
<g >
</g>
<g >
</g>
<g >
</g>
<g >
</g>
<g >
</g>
<g >
</g>
<g >
</g>
<g >
</g>
<g >
</g>
<g >
</g>
<g >
</g>
<g >
</g>
<g >
</g>
<g >
</g>
<g >
</g>
<g >
</g>
<g >
</g>
<g >
</g>
<g >
</g>
<g >
</g>
<g >
</g>
<g >
</g>
<g >
</g>
<g >
</g>
<g >
</g>
<g >
</g>
<g >
</g>
<g >
</g>
<g >
</g>
<g >
</g>
<g >
</g>
<g >
</g>
<g >
</g>
<g >
</g>
<g >
</g>
<g >
</g>
<g >
</g>
<g >
</g>
<g >
</g>
<g >
</g>
<g >
</g>
<g >
</g>
<g >
</g>
<g >
</g>
<g >
</g>
<g >
</g>
<g >
</g>
<g >
</g>
<g >
</g>
<g >
</g>
<g >
</g>
<g >
</g>
<g >
</g>
<g >
</g>
<g >
</g>
<g >
</g>
<g >
</g>
<g >
</g>
<g >
</g>
<g >
</g>
<g >
</g>
<g >
</g>
<g >
</g>
<g >
</g>
<g >
</g>
<g >
</g>
<g >
</g>
<g >
</g>
<g >
</g>
<g >
</g>
<g >
</g>
<g >
</g>
<g >
</g>
<g >
</g>
<g >
</g>
<g >
</g>
<g >
</g>
<g >
</g>
<g >
</g>
<g >
</g>
<g >
</g>
<g >
</g>
<g >
</g>
<g >
</g>
<g >
</g>
<g >
</g>
<g >
</g>
<g >
</g>
<g >
</g>
<g >
</g>
<g >
</g>
<g >
</g>
<g >
</g>
<g >
</g>
<g >
</g>
<g >
</g>
<g >
</g>
<g >
</g>
<g >
</g>
<g >
</g>
<g >
</g>
<g >
</g>
<g >
</g>
<g >
</g>
<g >
</g>
<g >
</g>
<g >
</g>
<g >
</g>
<g >
</g>
<g >
</g>
<g >
</g>
<g >
</g>
</g> 
</svg>
