  0
SECTION
  2
HEADER
  9
$ANGBASE
  50
0.0
  9
$ANGDIR
  70
1
  9
$MEASUREMENT
  70
1
  0
ENDSEC
  0
SECTION
  2
TABLES
  0
TABLE
  2
LTYPE
  70
4
  0
LTYPE
  5
40F
  2
CONTINUOUS
  70
0
  3
Solid line
  72
65
  73
0
  40
0.0
  0
LTYPE
  5
410
  2
DASHDOT
 70
0
  3
Dash Dot ____ _ ____ _
 72
65
 73
4
 40
2.0
 49
1.25
 49
-0.25
 49
0.25
 49
-0.25
  0
LTYPE
  5
411
  2
DASHED
 70
0
  3
Dashed __ __ __ __ __
 72
65
 73
2
 40
0.75
 49
0.5
 49
-0.25
  0
LTYPE
  5
43B
  2
DOTTED
 70
0
  3
Dotted .  .  .  .
 72
65
 73
2
 40
0.2
 49
0.0
 49
-0.2
  0
ENDTAB
  0
TABLE
  2
STYLE
  70
4
  0
STYLE
  2
KICAD
  70
0
  40
0
  41
1
  42
1
  50
0
  71
0
  3
isocp.shx
  0
STYLE
  2
KICADB
  70
0
  40
0
  41
1
  42
1
  50
0
  71
0
  3
isocp.shx
  0
STYLE
  2
KICADI
  70
0
  40
0
  41
1
  42
1
  50
15
  71
0
  3
isocp.shx
  0
STYLE
  2
KICADBI
  70
0
  40
0
  41
1
  42
1
  50
15
  71
0
  3
isocp.shx
  0
ENDTAB
  0
TABLE
  2
LAYER
  70
1
  0
LAYER
  2
BLACK
  70
0
  62
7
  6
CONTINUOUS
  0
ENDTAB
  0
ENDSEC
  0
SECTION
  2
ENTITIES
0
LINE
8
BLACK
6
CONTINUOUS
10
306.914
20
-38.1318
11
306.918
21
-38.1319
0
LINE
8
BLACK
6
CONTINUOUS
10
306.918
20
-38.1319
11
306.92
21
-38.1319
0
LINE
8
BLACK
6
CONTINUOUS
10
306.92
20
-38.1319
11
306.92
21
-38.132
0
LINE
8
BLACK
6
CONTINUOUS
10
306.92
20
-38.132
11
306.924
21
-38.1321
0
LINE
8
BLACK
6
CONTINUOUS
10
306.924
20
-38.1321
11
306.925
21
-38.1325
0
LINE
8
BLACK
6
CONTINUOUS
10
306.925
20
-38.1325
11
306.927
21
-38.1326
0
LINE
8
BLACK
6
CONTINUOUS
10
306.927
20
-38.1326
11
306.93
21
-38.1335
0
LINE
8
BLACK
6
CONTINUOUS
10
306.93
20
-38.1335
11
306.931
21
-38.1337
0
LINE
8
BLACK
6
CONTINUOUS
10
306.931
20
-38.1337
11
306.932
21
-38.1341
0
LINE
8
BLACK
6
CONTINUOUS
10
306.932
20
-38.1341
11
307.041
21
-38.1359
0
LINE
8
BLACK
6
CONTINUOUS
10
307.041
20
-38.1359
11
307.042
21
-38.1358
0
LINE
8
BLACK
6
CONTINUOUS
10
307.042
20
-38.1358
11
307.046
21
-38.136
0
LINE
8
BLACK
6
CONTINUOUS
10
307.046
20
-38.136
11
307.047
21
-38.136
0
LINE
8
BLACK
6
CONTINUOUS
10
307.047
20
-38.136
11
307.048
21
-38.1362
0
LINE
8
BLACK
6
CONTINUOUS
10
307.048
20
-38.1362
11
307.05
21
-38.1363
0
LINE
8
BLACK
6
CONTINUOUS
10
307.05
20
-38.1363
11
307.051
21
-38.1365
0
LINE
8
BLACK
6
CONTINUOUS
10
307.051
20
-38.1365
11
307.055
21
-38.1369
0
LINE
8
BLACK
6
CONTINUOUS
10
307.055
20
-38.1369
11
307.056
21
-38.1373
0
LINE
8
BLACK
6
CONTINUOUS
10
307.056
20
-38.1373
11
307.298
21
-38.177
0
LINE
8
BLACK
6
CONTINUOUS
10
307.298
20
-38.177
11
307.299
21
-38.177
0
LINE
8
BLACK
6
CONTINUOUS
10
307.299
20
-38.177
11
307.303
21
-38.1777
0
LINE
8
BLACK
6
CONTINUOUS
10
307.303
20
-38.1777
11
307.304
21
-38.1779
0
LINE
8
BLACK
6
CONTINUOUS
10
307.304
20
-38.1779
11
307.305
21
-38.1783
0
LINE
8
BLACK
6
CONTINUOUS
10
307.305
20
-38.1783
11
307.306
21
-38.1786
0
LINE
8
BLACK
6
CONTINUOUS
10
307.306
20
-38.1786
11
307.308
21
-38.1789
0
LINE
8
BLACK
6
CONTINUOUS
10
307.308
20
-38.1789
11
307.311
21
-38.1798
0
LINE
8
BLACK
6
CONTINUOUS
10
307.311
20
-38.1798
11
307.312
21
-38.1804
0
LINE
8
BLACK
6
CONTINUOUS
10
307.312
20
-38.1804
11
307.545
21
-38.2559
0
LINE
8
BLACK
6
CONTINUOUS
10
307.545
20
-38.2559
11
307.546
21
-38.2562
0
LINE
8
BLACK
6
CONTINUOUS
10
307.546
20
-38.2562
11
307.549
21
-38.2574
0
LINE
8
BLACK
6
CONTINUOUS
10
307.549
20
-38.2574
11
307.55
21
-38.2577
0
LINE
8
BLACK
6
CONTINUOUS
10
307.55
20
-38.2577
11
307.552
21
-38.2584
0
LINE
8
BLACK
6
CONTINUOUS
10
307.552
20
-38.2584
11
307.553
21
-38.2589
0
LINE
8
BLACK
6
CONTINUOUS
10
307.553
20
-38.2589
11
307.554
21
-38.2593
0
LINE
8
BLACK
6
CONTINUOUS
10
307.554
20
-38.2593
11
307.557
21
-38.2607
0
LINE
8
BLACK
6
CONTINUOUS
10
307.557
20
-38.2607
11
307.558
21
-38.2616
0
LINE
8
BLACK
6
CONTINUOUS
10
307.558
20
-38.2616
11
307.777
21
-38.3728
0
LINE
8
BLACK
6
CONTINUOUS
10
307.777
20
-38.3728
11
307.778
21
-38.3732
0
LINE
8
BLACK
6
CONTINUOUS
10
307.778
20
-38.3732
11
307.781
21
-38.375
0
LINE
8
BLACK
6
CONTINUOUS
10
307.781
20
-38.375
11
307.782
21
-38.3756
0
LINE
8
BLACK
6
CONTINUOUS
10
307.782
20
-38.3756
11
307.783
21
-38.3763
0
LINE
8
BLACK
6
CONTINUOUS
10
307.783
20
-38.3763
11
307.784
21
-38.3769
0
LINE
8
BLACK
6
CONTINUOUS
10
307.784
20
-38.3769
11
307.785
21
-38.3776
0
LINE
8
BLACK
6
CONTINUOUS
10
307.785
20
-38.3776
11
307.788
21
-38.3795
0
LINE
8
BLACK
6
CONTINUOUS
10
307.788
20
-38.3795
11
307.789
21
-38.3804
0
LINE
8
BLACK
6
CONTINUOUS
10
307.789
20
-38.3804
11
307.99
21
-38.5237
0
LINE
8
BLACK
6
CONTINUOUS
10
307.99
20
-38.5237
11
307.992
21
-38.5246
0
LINE
8
BLACK
6
CONTINUOUS
10
307.992
20
-38.5246
11
307.994
21
-38.5265
0
LINE
8
BLACK
6
CONTINUOUS
10
307.994
20
-38.5265
11
307.995
21
-38.5269
0
LINE
8
BLACK
6
CONTINUOUS
10
307.995
20
-38.5269
11
307.996
21
-38.5281
0
LINE
8
BLACK
6
CONTINUOUS
10
307.996
20
-38.5281
11
307.998
21
-38.5293
0
LINE
8
BLACK
6
CONTINUOUS
10
307.998
20
-38.5293
11
307.998
21
-38.5297
0
LINE
8
BLACK
6
CONTINUOUS
10
307.998
20
-38.5297
11
308
21
-38.5317
0
LINE
8
BLACK
6
CONTINUOUS
10
308
20
-38.5317
11
308.002
21
-38.5332
0
LINE
8
BLACK
6
CONTINUOUS
10
308.002
20
-38.5332
11
308.175
21
-38.7083
0
LINE
8
BLACK
6
CONTINUOUS
10
308.175
20
-38.7083
11
308.176
21
-38.7091
0
LINE
8
BLACK
6
CONTINUOUS
10
308.176
20
-38.7091
11
308.178
21
-38.7118
0
LINE
8
BLACK
6
CONTINUOUS
10
308.178
20
-38.7118
11
308.179
21
-38.7126
0
LINE
8
BLACK
6
CONTINUOUS
10
308.179
20
-38.7126
11
308.18
21
-38.7137
0
LINE
8
BLACK
6
CONTINUOUS
10
308.18
20
-38.7137
11
308.181
21
-38.7146
0
LINE
8
BLACK
6
CONTINUOUS
10
308.181
20
-38.7146
11
308.181
21
-38.7155
0
LINE
8
BLACK
6
CONTINUOUS
10
308.181
20
-38.7155
11
308.184
21
-38.7184
0
LINE
8
BLACK
6
CONTINUOUS
10
308.184
20
-38.7184
11
308.184
21
-38.7195
0
LINE
8
BLACK
6
CONTINUOUS
10
308.184
20
-38.7195
11
308.329
21
-38.9183
0
LINE
8
BLACK
6
CONTINUOUS
10
308.329
20
-38.9183
11
308.33
21
-38.9194
0
LINE
8
BLACK
6
CONTINUOUS
10
308.33
20
-38.9194
11
308.332
21
-38.9222
0
LINE
8
BLACK
6
CONTINUOUS
10
308.332
20
-38.9222
11
308.333
21
-38.923
0
LINE
8
BLACK
6
CONTINUOUS
10
308.333
20
-38.923
11
308.333
21
-38.9243
0
LINE
8
BLACK
6
CONTINUOUS
10
308.333
20
-38.9243
11
308.334
21
-38.9256
0
LINE
8
BLACK
6
CONTINUOUS
10
308.334
20
-38.9256
11
308.335
21
-38.9264
0
LINE
8
BLACK
6
CONTINUOUS
10
308.335
20
-38.9264
11
308.336
21
-38.9293
0
LINE
8
BLACK
6
CONTINUOUS
10
308.336
20
-38.9293
11
308.337
21
-38.9308
0
LINE
8
BLACK
6
CONTINUOUS
10
308.337
20
-38.9308
11
308.448
21
-39.1495
0
LINE
8
BLACK
6
CONTINUOUS
10
308.448
20
-39.1495
11
308.449
21
-39.1508
0
LINE
8
BLACK
6
CONTINUOUS
10
308.449
20
-39.1508
11
308.451
21
-39.1539
0
LINE
8
BLACK
6
CONTINUOUS
10
308.451
20
-39.1539
11
308.451
21
-39.1548
0
LINE
8
BLACK
6
CONTINUOUS
10
308.451
20
-39.1548
11
308.452
21
-39.1562
0
LINE
8
BLACK
6
CONTINUOUS
10
308.452
20
-39.1562
11
308.452
21
-39.1575
0
LINE
8
BLACK
6
CONTINUOUS
10
308.452
20
-39.1575
11
308.452
21
-39.1585
0
LINE
8
BLACK
6
CONTINUOUS
10
308.452
20
-39.1585
11
308.454
21
-39.1617
0
LINE
8
BLACK
6
CONTINUOUS
10
308.454
20
-39.1617
11
308.454
21
-39.1631
0
LINE
8
BLACK
6
CONTINUOUS
10
308.454
20
-39.1631
11
308.53
21
-39.3958
0
LINE
8
BLACK
6
CONTINUOUS
10
308.53
20
-39.3958
11
308.53
21
-39.3972
0
LINE
8
BLACK
6
CONTINUOUS
10
308.53
20
-39.3972
11
308.531
21
-39.4004
0
LINE
8
BLACK
6
CONTINUOUS
10
308.531
20
-39.4004
11
308.531
21
-39.4013
0
LINE
8
BLACK
6
CONTINUOUS
10
308.531
20
-39.4013
11
308.532
21
-39.4029
0
LINE
8
BLACK
6
CONTINUOUS
10
308.532
20
-39.4029
11
308.532
21
-39.4043
0
LINE
8
BLACK
6
CONTINUOUS
10
308.532
20
-39.4043
11
308.532
21
-39.4052
0
LINE
8
BLACK
6
CONTINUOUS
10
308.532
20
-39.4052
11
308.533
21
-39.4085
0
LINE
8
BLACK
6
CONTINUOUS
10
308.533
20
-39.4085
11
308.533
21
-39.4101
0
LINE
8
BLACK
6
CONTINUOUS
10
308.533
20
-39.4101
11
308.571
21
-39.6522
0
LINE
8
BLACK
6
CONTINUOUS
10
308.571
20
-39.6522
11
308.571
21
-39.6532
0
LINE
8
BLACK
6
CONTINUOUS
10
308.571
20
-39.6532
11
308.571
21
-39.6571
0
LINE
8
BLACK
6
CONTINUOUS
10
308.571
20
-39.6571
11
308.572
21
-39.6585
0
LINE
8
BLACK
6
CONTINUOUS
10
308.572
20
-39.6585
11
308.572
21
-39.6595
0
LINE
8
BLACK
6
CONTINUOUS
10
308.572
20
-39.6595
11
308.572
21
-39.6605
0
LINE
8
BLACK
6
CONTINUOUS
10
308.572
20
-39.6605
11
308.572
21
-39.662
0
LINE
8
BLACK
6
CONTINUOUS
10
308.572
20
-39.662
11
308.572
21
-39.6659
0
LINE
8
BLACK
6
CONTINUOUS
10
308.572
20
-39.6659
11
308.572
21
-39.6669
0
LINE
8
BLACK
6
CONTINUOUS
10
308.572
20
-39.6669
11
308.574
21
-39.7759
0
LINE
8
BLACK
6
CONTINUOUS
10
308.574
20
-39.7759
11
308.574
21
-39.7771
0
LINE
8
BLACK
6
CONTINUOUS
10
308.574
20
-39.7771
11
308.574
21
-39.7777
0
LINE
8
BLACK
6
CONTINUOUS
10
308.574
20
-39.7777
11
308.575
21
-39.7807
0
LINE
8
BLACK
6
CONTINUOUS
10
308.575
20
-39.7807
11
308.575
21
-39.7825
0
LINE
8
BLACK
6
CONTINUOUS
10
308.575
20
-39.7825
11
308.576
21
-39.7843
0
LINE
8
BLACK
6
CONTINUOUS
10
308.576
20
-39.7843
11
308.576
21
-39.7874
0
LINE
8
BLACK
6
CONTINUOUS
10
308.576
20
-39.7874
11
308.576
21
-39.7881
0
LINE
8
BLACK
6
CONTINUOUS
10
308.576
20
-39.7881
11
308.576
21
-39.7899
0
LINE
8
BLACK
6
CONTINUOUS
10
308.576
20
-39.7899
11
308.576
21
-39.7941
0
LINE
8
BLACK
6
CONTINUOUS
10
308.576
20
-39.7941
11
308.576
21
-39.7948
0
LINE
8
BLACK
6
CONTINUOUS
10
308.576
20
-39.7948
11
308.601
21
-112.452
0
LINE
8
BLACK
6
CONTINUOUS
10
308.601
20
-112.452
11
308.601
21
-112.453
0
LINE
8
BLACK
6
CONTINUOUS
10
308.601
20
-112.453
11
308.601
21
-112.457
0
LINE
8
BLACK
6
CONTINUOUS
10
308.601
20
-112.457
11
308.601
21
-112.459
0
LINE
8
BLACK
6
CONTINUOUS
10
308.601
20
-112.459
11
308.601
21
-112.46
0
LINE
8
BLACK
6
CONTINUOUS
10
308.601
20
-112.46
11
308.601
21
-112.463
0
LINE
8
BLACK
6
CONTINUOUS
10
308.601
20
-112.463
11
308.601
21
-112.465
0
LINE
8
BLACK
6
CONTINUOUS
10
308.601
20
-112.465
11
308.601
21
-112.466
0
LINE
8
BLACK
6
CONTINUOUS
10
308.601
20
-112.466
11
308.6
21
-112.469
0
LINE
8
BLACK
6
CONTINUOUS
10
308.6
20
-112.469
11
308.6
21
-112.47
0
LINE
8
BLACK
6
CONTINUOUS
10
308.6
20
-112.47
11
308.599
21
-112.471
0
LINE
8
BLACK
6
CONTINUOUS
10
308.599
20
-112.471
11
308.597
21
-112.58
0
LINE
8
BLACK
6
CONTINUOUS
10
308.597
20
-112.58
11
308.597
21
-112.581
0
LINE
8
BLACK
6
CONTINUOUS
10
308.597
20
-112.581
11
308.597
21
-112.585
0
LINE
8
BLACK
6
CONTINUOUS
10
308.597
20
-112.585
11
308.597
21
-112.587
0
LINE
8
BLACK
6
CONTINUOUS
10
308.597
20
-112.587
11
308.597
21
-112.588
0
LINE
8
BLACK
6
CONTINUOUS
10
308.597
20
-112.588
11
308.597
21
-112.589
0
LINE
8
BLACK
6
CONTINUOUS
10
308.597
20
-112.589
11
308.597
21
-112.59
0
LINE
8
BLACK
6
CONTINUOUS
10
308.597
20
-112.59
11
308.596
21
-112.594
0
LINE
8
BLACK
6
CONTINUOUS
10
308.596
20
-112.594
11
308.596
21
-112.595
0
LINE
8
BLACK
6
CONTINUOUS
10
308.596
20
-112.595
11
308.558
21
-112.837
0
LINE
8
BLACK
6
CONTINUOUS
10
308.558
20
-112.837
11
308.558
21
-112.839
0
LINE
8
BLACK
6
CONTINUOUS
10
308.558
20
-112.839
11
308.558
21
-112.842
0
LINE
8
BLACK
6
CONTINUOUS
10
308.558
20
-112.842
11
308.557
21
-112.843
0
LINE
8
BLACK
6
CONTINUOUS
10
308.557
20
-112.843
11
308.557
21
-112.844
0
LINE
8
BLACK
6
CONTINUOUS
10
308.557
20
-112.844
11
308.557
21
-112.846
0
LINE
8
BLACK
6
CONTINUOUS
10
308.557
20
-112.846
11
308.556
21
-112.847
0
LINE
8
BLACK
6
CONTINUOUS
10
308.556
20
-112.847
11
308.556
21
-112.85
0
LINE
8
BLACK
6
CONTINUOUS
10
308.556
20
-112.85
11
308.555
21
-112.851
0
LINE
8
BLACK
6
CONTINUOUS
10
308.555
20
-112.851
11
308.479
21
-113.084
0
LINE
8
BLACK
6
CONTINUOUS
10
308.479
20
-113.084
11
308.479
21
-113.086
0
LINE
8
BLACK
6
CONTINUOUS
10
308.479
20
-113.086
11
308.478
21
-113.089
0
LINE
8
BLACK
6
CONTINUOUS
10
308.478
20
-113.089
11
308.478
21
-113.09
0
LINE
8
BLACK
6
CONTINUOUS
10
308.478
20
-113.09
11
308.477
21
-113.091
0
LINE
8
BLACK
6
CONTINUOUS
10
308.477
20
-113.091
11
308.476
21
-113.092
0
LINE
8
BLACK
6
CONTINUOUS
10
308.476
20
-113.092
11
308.476
21
-113.093
0
LINE
8
BLACK
6
CONTINUOUS
10
308.476
20
-113.093
11
308.475
21
-113.096
0
LINE
8
BLACK
6
CONTINUOUS
10
308.475
20
-113.096
11
308.474
21
-113.098
0
LINE
8
BLACK
6
CONTINUOUS
10
308.474
20
-113.098
11
308.362
21
-113.316
0
LINE
8
BLACK
6
CONTINUOUS
10
308.362
20
-113.316
11
308.362
21
-113.318
0
LINE
8
BLACK
6
CONTINUOUS
10
308.362
20
-113.318
11
308.36
21
-113.321
0
LINE
8
BLACK
6
CONTINUOUS
10
308.36
20
-113.321
11
308.36
21
-113.322
0
LINE
8
BLACK
6
CONTINUOUS
10
308.36
20
-113.322
11
308.359
21
-113.323
0
LINE
8
BLACK
6
CONTINUOUS
10
308.359
20
-113.323
11
308.358
21
-113.324
0
LINE
8
BLACK
6
CONTINUOUS
10
308.358
20
-113.324
11
308.358
21
-113.325
0
LINE
8
BLACK
6
CONTINUOUS
10
308.358
20
-113.325
11
308.356
21
-113.328
0
LINE
8
BLACK
6
CONTINUOUS
10
308.356
20
-113.328
11
308.355
21
-113.329
0
LINE
8
BLACK
6
CONTINUOUS
10
308.355
20
-113.329
11
308.21
21
-113.528
0
LINE
8
BLACK
6
CONTINUOUS
10
308.21
20
-113.528
11
308.209
21
-113.529
0
LINE
8
BLACK
6
CONTINUOUS
10
308.209
20
-113.529
11
308.207
21
-113.532
0
LINE
8
BLACK
6
CONTINUOUS
10
308.207
20
-113.532
11
308.206
21
-113.533
0
LINE
8
BLACK
6
CONTINUOUS
10
308.206
20
-113.533
11
308.205
21
-113.534
0
LINE
8
BLACK
6
CONTINUOUS
10
308.205
20
-113.534
11
308.204
21
-113.535
0
LINE
8
BLACK
6
CONTINUOUS
10
308.204
20
-113.535
11
308.203
21
-113.535
0
LINE
8
BLACK
6
CONTINUOUS
10
308.203
20
-113.535
11
308.201
21
-113.538
0
LINE
8
BLACK
6
CONTINUOUS
10
308.201
20
-113.538
11
308.2
21
-113.539
0
LINE
8
BLACK
6
CONTINUOUS
10
308.2
20
-113.539
11
308.027
21
-113.714
0
LINE
8
BLACK
6
CONTINUOUS
10
308.027
20
-113.714
11
308.026
21
-113.715
0
LINE
8
BLACK
6
CONTINUOUS
10
308.026
20
-113.715
11
308.023
21
-113.717
0
LINE
8
BLACK
6
CONTINUOUS
10
308.023
20
-113.717
11
308.023
21
-113.718
0
LINE
8
BLACK
6
CONTINUOUS
10
308.023
20
-113.718
11
308.022
21
-113.719
0
LINE
8
BLACK
6
CONTINUOUS
10
308.022
20
-113.719
11
308.02
21
-113.72
0
LINE
8
BLACK
6
CONTINUOUS
10
308.02
20
-113.72
11
308.02
21
-113.721
0
LINE
8
BLACK
6
CONTINUOUS
10
308.02
20
-113.721
11
308.017
21
-113.723
0
LINE
8
BLACK
6
CONTINUOUS
10
308.017
20
-113.723
11
308.016
21
-113.723
0
LINE
8
BLACK
6
CONTINUOUS
10
308.016
20
-113.723
11
307.815
21
-113.867
0
LINE
8
BLACK
6
CONTINUOUS
10
307.815
20
-113.867
11
307.814
21
-113.868
0
LINE
8
BLACK
6
CONTINUOUS
10
307.814
20
-113.868
11
307.811
21
-113.87
0
LINE
8
BLACK
6
CONTINUOUS
10
307.811
20
-113.87
11
307.81
21
-113.87
0
LINE
8
BLACK
6
CONTINUOUS
10
307.81
20
-113.87
11
307.809
21
-113.871
0
LINE
8
BLACK
6
CONTINUOUS
10
307.809
20
-113.871
11
307.808
21
-113.872
0
LINE
8
BLACK
6
CONTINUOUS
10
307.808
20
-113.872
11
307.807
21
-113.872
0
LINE
8
BLACK
6
CONTINUOUS
10
307.807
20
-113.872
11
307.803
21
-113.874
0
LINE
8
BLACK
6
CONTINUOUS
10
307.803
20
-113.874
11
307.802
21
-113.874
0
LINE
8
BLACK
6
CONTINUOUS
10
307.802
20
-113.874
11
307.584
21
-113.986
0
LINE
8
BLACK
6
CONTINUOUS
10
307.584
20
-113.986
11
307.582
21
-113.986
0
LINE
8
BLACK
6
CONTINUOUS
10
307.582
20
-113.986
11
307.579
21
-113.988
0
LINE
8
BLACK
6
CONTINUOUS
10
307.579
20
-113.988
11
307.578
21
-113.988
0
LINE
8
BLACK
6
CONTINUOUS
10
307.578
20
-113.988
11
307.577
21
-113.989
0
LINE
8
BLACK
6
CONTINUOUS
10
307.577
20
-113.989
11
307.576
21
-113.989
0
LINE
8
BLACK
6
CONTINUOUS
10
307.576
20
-113.989
11
307.575
21
-113.99
0
LINE
8
BLACK
6
CONTINUOUS
10
307.575
20
-113.99
11
307.572
21
-113.991
0
LINE
8
BLACK
6
CONTINUOUS
10
307.572
20
-113.991
11
307.57
21
-113.991
0
LINE
8
BLACK
6
CONTINUOUS
10
307.57
20
-113.991
11
307.338
21
-114.067
0
LINE
8
BLACK
6
CONTINUOUS
10
307.338
20
-114.067
11
307.336
21
-114.067
0
LINE
8
BLACK
6
CONTINUOUS
10
307.336
20
-114.067
11
307.333
21
-114.068
0
LINE
8
BLACK
6
CONTINUOUS
10
307.333
20
-114.068
11
307.332
21
-114.069
0
LINE
8
BLACK
6
CONTINUOUS
10
307.332
20
-114.069
11
307.331
21
-114.069
0
LINE
8
BLACK
6
CONTINUOUS
10
307.331
20
-114.069
11
307.329
21
-114.069
0
LINE
8
BLACK
6
CONTINUOUS
10
307.329
20
-114.069
11
307.328
21
-114.069
0
LINE
8
BLACK
6
CONTINUOUS
10
307.328
20
-114.069
11
307.325
21
-114.07
0
LINE
8
BLACK
6
CONTINUOUS
10
307.325
20
-114.07
11
307.323
21
-114.07
0
LINE
8
BLACK
6
CONTINUOUS
10
307.323
20
-114.07
11
307.081
21
-114.11
0
LINE
8
BLACK
6
CONTINUOUS
10
307.081
20
-114.11
11
307.08
21
-114.11
0
LINE
8
BLACK
6
CONTINUOUS
10
307.08
20
-114.11
11
307.076
21
-114.111
0
LINE
8
BLACK
6
CONTINUOUS
10
307.076
20
-114.111
11
307.075
21
-114.111
0
LINE
8
BLACK
6
CONTINUOUS
10
307.075
20
-114.111
11
307.074
21
-114.111
0
LINE
8
BLACK
6
CONTINUOUS
10
307.074
20
-114.111
11
307.073
21
-114.111
0
LINE
8
BLACK
6
CONTINUOUS
10
307.073
20
-114.111
11
307.071
21
-114.111
0
LINE
8
BLACK
6
CONTINUOUS
10
307.071
20
-114.111
11
307.068
21
-114.111
0
LINE
8
BLACK
6
CONTINUOUS
10
307.068
20
-114.111
11
307.067
21
-114.111
0
LINE
8
BLACK
6
CONTINUOUS
10
307.067
20
-114.111
11
306.957
21
-114.113
0
LINE
8
BLACK
6
CONTINUOUS
10
306.957
20
-114.113
11
306.956
21
-114.113
0
LINE
8
BLACK
6
CONTINUOUS
10
306.956
20
-114.113
11
306.956
21
-114.114
0
LINE
8
BLACK
6
CONTINUOUS
10
306.956
20
-114.114
11
306.952
21
-114.115
0
LINE
8
BLACK
6
CONTINUOUS
10
306.952
20
-114.115
11
306.951
21
-114.115
0
LINE
8
BLACK
6
CONTINUOUS
10
306.951
20
-114.115
11
306.949
21
-114.115
0
LINE
8
BLACK
6
CONTINUOUS
10
306.949
20
-114.115
11
306.946
21
-114.115
0
LINE
8
BLACK
6
CONTINUOUS
10
306.946
20
-114.115
11
306.945
21
-114.115
0
LINE
8
BLACK
6
CONTINUOUS
10
306.945
20
-114.115
11
306.943
21
-114.115
0
LINE
8
BLACK
6
CONTINUOUS
10
306.943
20
-114.115
11
306.939
21
-114.115
0
LINE
8
BLACK
6
CONTINUOUS
10
306.939
20
-114.115
11
306.938
21
-114.115
0
LINE
8
BLACK
6
CONTINUOUS
10
306.938
20
-114.115
11
62.8408
21
-114.115
0
LINE
8
BLACK
6
CONTINUOUS
10
62.8408
20
-114.115
11
62.8402
21
-114.115
0
LINE
8
BLACK
6
CONTINUOUS
10
62.8402
20
-114.115
11
62.8359
21
-114.115
0
LINE
8
BLACK
6
CONTINUOUS
10
62.8359
20
-114.115
11
62.8341
21
-114.115
0
LINE
8
BLACK
6
CONTINUOUS
10
62.8341
20
-114.115
11
62.8335
21
-114.115
0
LINE
8
BLACK
6
CONTINUOUS
10
62.8335
20
-114.115
11
62.8303
21
-114.115
0
LINE
8
BLACK
6
CONTINUOUS
10
62.8303
20
-114.115
11
62.8286
21
-114.115
0
LINE
8
BLACK
6
CONTINUOUS
10
62.8286
20
-114.115
11
62.8268
21
-114.115
0
LINE
8
BLACK
6
CONTINUOUS
10
62.8268
20
-114.115
11
62.8238
21
-114.114
0
LINE
8
BLACK
6
CONTINUOUS
10
62.8238
20
-114.114
11
62.8231
21
-114.113
0
LINE
8
BLACK
6
CONTINUOUS
10
62.8231
20
-114.113
11
62.8219
21
-114.113
0
LINE
8
BLACK
6
CONTINUOUS
10
62.8219
20
-114.113
11
62.7148
21
-114.111
0
LINE
8
BLACK
6
CONTINUOUS
10
62.7148
20
-114.111
11
62.7136
21
-114.111
0
LINE
8
BLACK
6
CONTINUOUS
10
62.7136
20
-114.111
11
62.7099
21
-114.111
0
LINE
8
BLACK
6
CONTINUOUS
10
62.7099
20
-114.111
11
62.7086
21
-114.111
0
LINE
8
BLACK
6
CONTINUOUS
10
62.7086
20
-114.111
11
62.7074
21
-114.111
0
LINE
8
BLACK
6
CONTINUOUS
10
62.7074
20
-114.111
11
62.7062
21
-114.111
0
LINE
8
BLACK
6
CONTINUOUS
10
62.7062
20
-114.111
11
62.705
21
-114.111
0
LINE
8
BLACK
6
CONTINUOUS
10
62.705
20
-114.111
11
62.7013
21
-114.11
0
LINE
8
BLACK
6
CONTINUOUS
10
62.7013
20
-114.11
11
62.7001
21
-114.11
0
LINE
8
BLACK
6
CONTINUOUS
10
62.7001
20
-114.11
11
62.458
21
-114.07
0
LINE
8
BLACK
6
CONTINUOUS
10
62.458
20
-114.07
11
62.4568
21
-114.07
0
LINE
8
BLACK
6
CONTINUOUS
10
62.4568
20
-114.07
11
62.4532
21
-114.069
0
LINE
8
BLACK
6
CONTINUOUS
10
62.4532
20
-114.069
11
62.452
21
-114.069
0
LINE
8
BLACK
6
CONTINUOUS
10
62.452
20
-114.069
11
62.4508
21
-114.069
0
LINE
8
BLACK
6
CONTINUOUS
10
62.4508
20
-114.069
11
62.4495
21
-114.069
0
LINE
8
BLACK
6
CONTINUOUS
10
62.4495
20
-114.069
11
62.4484
21
-114.068
0
LINE
8
BLACK
6
CONTINUOUS
10
62.4484
20
-114.068
11
62.4449
21
-114.067
0
LINE
8
BLACK
6
CONTINUOUS
10
62.4449
20
-114.067
11
62.4437
21
-114.067
0
LINE
8
BLACK
6
CONTINUOUS
10
62.4437
20
-114.067
11
62.2092
21
-113.991
0
LINE
8
BLACK
6
CONTINUOUS
10
62.2092
20
-113.991
11
62.2077
21
-113.991
0
LINE
8
BLACK
6
CONTINUOUS
10
62.2077
20
-113.991
11
62.2046
21
-113.99
0
LINE
8
BLACK
6
CONTINUOUS
10
62.2046
20
-113.99
11
62.2037
21
-113.989
0
LINE
8
BLACK
6
CONTINUOUS
10
62.2037
20
-113.989
11
62.2023
21
-113.989
0
LINE
8
BLACK
6
CONTINUOUS
10
62.2023
20
-113.989
11
62.2008
21
-113.988
0
LINE
8
BLACK
6
CONTINUOUS
10
62.2008
20
-113.988
11
62.2
21
-113.988
0
LINE
8
BLACK
6
CONTINUOUS
10
62.2
20
-113.988
11
62.1969
21
-113.987
0
LINE
8
BLACK
6
CONTINUOUS
10
62.1969
20
-113.987
11
62.1956
21
-113.986
0
LINE
8
BLACK
6
CONTINUOUS
10
62.1956
20
-113.986
11
61.977
21
-113.874
0
LINE
8
BLACK
6
CONTINUOUS
10
61.977
20
-113.874
11
61.9757
21
-113.874
0
LINE
8
BLACK
6
CONTINUOUS
10
61.9757
20
-113.874
11
61.9726
21
-113.872
0
LINE
8
BLACK
6
CONTINUOUS
10
61.9726
20
-113.872
11
61.9716
21
-113.872
0
LINE
8
BLACK
6
CONTINUOUS
10
61.9716
20
-113.872
11
61.9705
21
-113.871
0
LINE
8
BLACK
6
CONTINUOUS
10
61.9705
20
-113.871
11
61.9693
21
-113.87
0
LINE
8
BLACK
6
CONTINUOUS
10
61.9693
20
-113.87
11
61.9684
21
-113.87
0
LINE
8
BLACK
6
CONTINUOUS
10
61.9684
20
-113.87
11
61.9654
21
-113.868
0
LINE
8
BLACK
6
CONTINUOUS
10
61.9654
20
-113.868
11
61.9644
21
-113.867
0
LINE
8
BLACK
6
CONTINUOUS
10
61.9644
20
-113.867
11
61.7655
21
-113.723
0
LINE
8
BLACK
6
CONTINUOUS
10
61.7655
20
-113.723
11
61.7639
21
-113.723
0
LINE
8
BLACK
6
CONTINUOUS
10
61.7639
20
-113.723
11
61.7615
21
-113.721
0
LINE
8
BLACK
6
CONTINUOUS
10
61.7615
20
-113.721
11
61.7609
21
-113.72
0
LINE
8
BLACK
6
CONTINUOUS
10
61.7609
20
-113.72
11
61.7596
21
-113.719
0
LINE
8
BLACK
6
CONTINUOUS
10
61.7596
20
-113.719
11
61.7583
21
-113.718
0
LINE
8
BLACK
6
CONTINUOUS
10
61.7583
20
-113.718
11
61.7577
21
-113.717
0
LINE
8
BLACK
6
CONTINUOUS
10
61.7577
20
-113.717
11
61.7554
21
-113.715
0
LINE
8
BLACK
6
CONTINUOUS
10
61.7554
20
-113.715
11
61.7543
21
-113.714
0
LINE
8
BLACK
6
CONTINUOUS
10
61.7543
20
-113.714
11
61.5813
21
-113.539
0
LINE
8
BLACK
6
CONTINUOUS
10
61.5813
20
-113.539
11
61.5802
21
-113.538
0
LINE
8
BLACK
6
CONTINUOUS
10
61.5802
20
-113.538
11
61.5778
21
-113.535
0
LINE
8
BLACK
6
CONTINUOUS
10
61.5778
20
-113.535
11
61.577
21
-113.535
0
LINE
8
BLACK
6
CONTINUOUS
10
61.577
20
-113.535
11
61.5762
21
-113.534
0
LINE
8
BLACK
6
CONTINUOUS
10
61.5762
20
-113.534
11
61.5753
21
-113.533
0
LINE
8
BLACK
6
CONTINUOUS
10
61.5753
20
-113.533
11
61.5746
21
-113.532
0
LINE
8
BLACK
6
CONTINUOUS
10
61.5746
20
-113.532
11
61.5723
21
-113.529
0
LINE
8
BLACK
6
CONTINUOUS
10
61.5723
20
-113.529
11
61.5717
21
-113.528
0
LINE
8
BLACK
6
CONTINUOUS
10
61.5717
20
-113.528
11
61.4267
21
-113.329
0
LINE
8
BLACK
6
CONTINUOUS
10
61.4267
20
-113.329
11
61.4256
21
-113.328
0
LINE
8
BLACK
6
CONTINUOUS
10
61.4256
20
-113.328
11
61.4238
21
-113.325
0
LINE
8
BLACK
6
CONTINUOUS
10
61.4238
20
-113.325
11
61.4232
21
-113.324
0
LINE
8
BLACK
6
CONTINUOUS
10
61.4232
20
-113.324
11
61.4225
21
-113.323
0
LINE
8
BLACK
6
CONTINUOUS
10
61.4225
20
-113.323
11
61.4216
21
-113.322
0
LINE
8
BLACK
6
CONTINUOUS
10
61.4216
20
-113.322
11
61.4212
21
-113.321
0
LINE
8
BLACK
6
CONTINUOUS
10
61.4212
20
-113.321
11
61.4195
21
-113.318
0
LINE
8
BLACK
6
CONTINUOUS
10
61.4195
20
-113.318
11
61.419
21
-113.316
0
LINE
8
BLACK
6
CONTINUOUS
10
61.419
20
-113.316
11
61.3076
21
-113.098
0
LINE
8
BLACK
6
CONTINUOUS
10
61.3076
20
-113.098
11
61.3068
21
-113.096
0
LINE
8
BLACK
6
CONTINUOUS
10
61.3068
20
-113.096
11
61.3054
21
-113.093
0
LINE
8
BLACK
6
CONTINUOUS
10
61.3054
20
-113.093
11
61.3049
21
-113.092
0
LINE
8
BLACK
6
CONTINUOUS
10
61.3049
20
-113.092
11
61.3044
21
-113.091
0
LINE
8
BLACK
6
CONTINUOUS
10
61.3044
20
-113.091
11
61.3038
21
-113.09
0
LINE
8
BLACK
6
CONTINUOUS
10
61.3038
20
-113.09
11
61.3035
21
-113.089
0
LINE
8
BLACK
6
CONTINUOUS
10
61.3035
20
-113.089
11
61.3022
21
-113.086
0
LINE
8
BLACK
6
CONTINUOUS
10
61.3022
20
-113.086
11
61.302
21
-113.084
0
LINE
8
BLACK
6
CONTINUOUS
10
61.302
20
-113.084
11
61.2264
21
-112.851
0
LINE
8
BLACK
6
CONTINUOUS
10
61.2264
20
-112.851
11
61.2257
21
-112.85
0
LINE
8
BLACK
6
CONTINUOUS
10
61.2257
20
-112.85
11
61.2249
21
-112.847
0
LINE
8
BLACK
6
CONTINUOUS
10
61.2249
20
-112.847
11
61.2246
21
-112.846
0
LINE
8
BLACK
6
CONTINUOUS
10
61.2246
20
-112.846
11
61.2243
21
-112.844
0
LINE
8
BLACK
6
CONTINUOUS
10
61.2243
20
-112.844
11
61.2239
21
-112.843
0
LINE
8
BLACK
6
CONTINUOUS
10
61.2239
20
-112.843
11
61.2237
21
-112.842
0
LINE
8
BLACK
6
CONTINUOUS
10
61.2237
20
-112.842
11
61.223
21
-112.839
0
LINE
8
BLACK
6
CONTINUOUS
10
61.223
20
-112.839
11
61.223
21
-112.837
0
LINE
8
BLACK
6
CONTINUOUS
10
61.223
20
-112.837
11
61.1853
21
-112.595
0
LINE
8
BLACK
6
CONTINUOUS
10
61.1853
20
-112.595
11
61.1852
21
-112.595
0
LINE
8
BLACK
6
CONTINUOUS
10
61.1852
20
-112.595
11
61.1846
21
-112.591
0
LINE
8
BLACK
6
CONTINUOUS
10
61.1846
20
-112.591
11
61.1843
21
-112.589
0
LINE
8
BLACK
6
CONTINUOUS
10
61.1843
20
-112.589
11
61.1843
21
-112.588
0
LINE
8
BLACK
6
CONTINUOUS
10
61.1843
20
-112.588
11
61.1842
21
-112.588
0
LINE
8
BLACK
6
CONTINUOUS
10
61.1842
20
-112.588
11
61.1841
21
-112.586
0
LINE
8
BLACK
6
CONTINUOUS
10
61.1841
20
-112.586
11
61.1839
21
-112.581
0
LINE
8
BLACK
6
CONTINUOUS
10
61.1839
20
-112.581
11
61.184
21
-112.581
0
LINE
8
BLACK
6
CONTINUOUS
10
61.184
20
-112.581
11
61.1801
21
-112.466
0
LINE
8
BLACK
6
CONTINUOUS
10
61.1801
20
-112.466
11
61.18
21
-112.465
0
LINE
8
BLACK
6
CONTINUOUS
10
61.18
20
-112.465
11
61.18
21
-112.464
0
LINE
8
BLACK
6
CONTINUOUS
10
61.18
20
-112.464
11
61.1799
21
-112.462
0
LINE
8
BLACK
6
CONTINUOUS
10
61.1799
20
-112.462
11
61.18
21
-112.461
0
LINE
8
BLACK
6
CONTINUOUS
10
61.18
20
-112.461
11
61.1526
21
-39.7948
0
LINE
8
BLACK
6
CONTINUOUS
10
61.1526
20
-39.7948
11
61.1524
21
-39.7941
0
LINE
8
BLACK
6
CONTINUOUS
10
61.1524
20
-39.7941
11
61.1525
21
-39.7899
0
LINE
8
BLACK
6
CONTINUOUS
10
61.1525
20
-39.7899
11
61.1525
21
-39.7881
0
LINE
8
BLACK
6
CONTINUOUS
10
61.1525
20
-39.7881
11
61.1526
21
-39.7874
0
LINE
8
BLACK
6
CONTINUOUS
10
61.1526
20
-39.7874
11
61.1527
21
-39.7843
0
LINE
8
BLACK
6
CONTINUOUS
10
61.1527
20
-39.7843
11
61.1531
21
-39.7825
0
LINE
8
BLACK
6
CONTINUOUS
10
61.1531
20
-39.7825
11
61.1533
21
-39.7808
0
LINE
8
BLACK
6
CONTINUOUS
10
61.1533
20
-39.7808
11
61.1542
21
-39.7777
0
LINE
8
BLACK
6
CONTINUOUS
10
61.1542
20
-39.7777
11
61.1543
21
-39.7771
0
LINE
8
BLACK
6
CONTINUOUS
10
61.1543
20
-39.7771
11
61.1549
21
-39.7755
0
LINE
8
BLACK
6
CONTINUOUS
10
61.1549
20
-39.7755
11
61.1586
21
-39.6665
0
LINE
8
BLACK
6
CONTINUOUS
10
61.1586
20
-39.6665
11
61.1585
21
-39.6659
0
LINE
8
BLACK
6
CONTINUOUS
10
61.1585
20
-39.6659
11
61.1587
21
-39.6616
0
LINE
8
BLACK
6
CONTINUOUS
10
61.1587
20
-39.6616
11
61.1588
21
-39.6597
0
LINE
8
BLACK
6
CONTINUOUS
10
61.1588
20
-39.6597
11
61.1589
21
-39.6591
0
LINE
8
BLACK
6
CONTINUOUS
10
61.1589
20
-39.6591
11
61.1589
21
-39.6585
0
LINE
8
BLACK
6
CONTINUOUS
10
61.1589
20
-39.6585
11
61.1592
21
-39.6566
0
LINE
8
BLACK
6
CONTINUOUS
10
61.1592
20
-39.6566
11
61.1598
21
-39.6524
0
LINE
8
BLACK
6
CONTINUOUS
10
61.1598
20
-39.6524
11
61.1599
21
-39.6518
0
LINE
8
BLACK
6
CONTINUOUS
10
61.1599
20
-39.6518
11
61.1976
21
-39.4101
0
LINE
8
BLACK
6
CONTINUOUS
10
61.1976
20
-39.4101
11
61.1976
21
-39.4086
0
LINE
8
BLACK
6
CONTINUOUS
10
61.1976
20
-39.4086
11
61.1983
21
-39.4053
0
LINE
8
BLACK
6
CONTINUOUS
10
61.1983
20
-39.4053
11
61.1985
21
-39.4043
0
LINE
8
BLACK
6
CONTINUOUS
10
61.1985
20
-39.4043
11
61.1989
21
-39.4028
0
LINE
8
BLACK
6
CONTINUOUS
10
61.1989
20
-39.4028
11
61.1992
21
-39.4013
0
LINE
8
BLACK
6
CONTINUOUS
10
61.1992
20
-39.4013
11
61.1995
21
-39.4005
0
LINE
8
BLACK
6
CONTINUOUS
10
61.1995
20
-39.4005
11
61.2003
21
-39.3972
0
LINE
8
BLACK
6
CONTINUOUS
10
61.2003
20
-39.3972
11
61.201
21
-39.3958
0
LINE
8
BLACK
6
CONTINUOUS
10
61.201
20
-39.3958
11
61.2766
21
-39.1631
0
LINE
8
BLACK
6
CONTINUOUS
10
61.2766
20
-39.1631
11
61.2768
21
-39.1617
0
LINE
8
BLACK
6
CONTINUOUS
10
61.2768
20
-39.1617
11
61.2781
21
-39.1585
0
LINE
8
BLACK
6
CONTINUOUS
10
61.2781
20
-39.1585
11
61.2784
21
-39.1575
0
LINE
8
BLACK
6
CONTINUOUS
10
61.2784
20
-39.1575
11
61.279
21
-39.1561
0
LINE
8
BLACK
6
CONTINUOUS
10
61.279
20
-39.1561
11
61.2795
21
-39.1548
0
LINE
8
BLACK
6
CONTINUOUS
10
61.2795
20
-39.1548
11
61.28
21
-39.1539
0
LINE
8
BLACK
6
CONTINUOUS
10
61.28
20
-39.1539
11
61.2814
21
-39.1508
0
LINE
8
BLACK
6
CONTINUOUS
10
61.2814
20
-39.1508
11
61.2822
21
-39.1495
0
LINE
8
BLACK
6
CONTINUOUS
10
61.2822
20
-39.1495
11
61.3936
21
-38.9308
0
LINE
8
BLACK
6
CONTINUOUS
10
61.3936
20
-38.9308
11
61.3941
21
-38.9293
0
LINE
8
BLACK
6
CONTINUOUS
10
61.3941
20
-38.9293
11
61.3958
21
-38.9264
0
LINE
8
BLACK
6
CONTINUOUS
10
61.3958
20
-38.9264
11
61.3962
21
-38.9256
0
LINE
8
BLACK
6
CONTINUOUS
10
61.3962
20
-38.9256
11
61.3971
21
-38.9243
0
LINE
8
BLACK
6
CONTINUOUS
10
61.3971
20
-38.9243
11
61.3978
21
-38.923
0
LINE
8
BLACK
6
CONTINUOUS
10
61.3978
20
-38.923
11
61.3984
21
-38.9222
0
LINE
8
BLACK
6
CONTINUOUS
10
61.3984
20
-38.9222
11
61.4002
21
-38.9194
0
LINE
8
BLACK
6
CONTINUOUS
10
61.4002
20
-38.9194
11
61.4013
21
-38.9182
0
LINE
8
BLACK
6
CONTINUOUS
10
61.4013
20
-38.9182
11
61.5463
21
-38.7195
0
LINE
8
BLACK
6
CONTINUOUS
10
61.5463
20
-38.7195
11
61.5469
21
-38.7184
0
LINE
8
BLACK
6
CONTINUOUS
10
61.5469
20
-38.7184
11
61.5492
21
-38.7156
0
LINE
8
BLACK
6
CONTINUOUS
10
61.5492
20
-38.7156
11
61.5499
21
-38.7146
0
LINE
8
BLACK
6
CONTINUOUS
10
61.5499
20
-38.7146
11
61.5508
21
-38.7136
0
LINE
8
BLACK
6
CONTINUOUS
10
61.5508
20
-38.7136
11
61.5516
21
-38.7126
0
LINE
8
BLACK
6
CONTINUOUS
10
61.5516
20
-38.7126
11
61.5524
21
-38.7118
0
LINE
8
BLACK
6
CONTINUOUS
10
61.5524
20
-38.7118
11
61.5548
21
-38.7091
0
LINE
8
BLACK
6
CONTINUOUS
10
61.5548
20
-38.7091
11
61.5559
21
-38.7083
0
LINE
8
BLACK
6
CONTINUOUS
10
61.5559
20
-38.7083
11
61.7289
21
-38.5333
0
LINE
8
BLACK
6
CONTINUOUS
10
61.7289
20
-38.5333
11
61.73
21
-38.5319
0
LINE
8
BLACK
6
CONTINUOUS
10
61.73
20
-38.5319
11
61.7323
21
-38.5298
0
LINE
8
BLACK
6
CONTINUOUS
10
61.7323
20
-38.5298
11
61.7329
21
-38.5293
0
LINE
8
BLACK
6
CONTINUOUS
10
61.7329
20
-38.5293
11
61.7342
21
-38.5282
0
LINE
8
BLACK
6
CONTINUOUS
10
61.7342
20
-38.5282
11
61.7355
21
-38.527
0
LINE
8
BLACK
6
CONTINUOUS
10
61.7355
20
-38.527
11
61.7361
21
-38.5266
0
LINE
8
BLACK
6
CONTINUOUS
10
61.7361
20
-38.5266
11
61.7385
21
-38.5246
0
LINE
8
BLACK
6
CONTINUOUS
10
61.7385
20
-38.5246
11
61.7401
21
-38.5237
0
LINE
8
BLACK
6
CONTINUOUS
10
61.7401
20
-38.5237
11
61.939
21
-38.3805
0
LINE
8
BLACK
6
CONTINUOUS
10
61.939
20
-38.3805
11
61.94
21
-38.3795
0
LINE
8
BLACK
6
CONTINUOUS
10
61.94
20
-38.3795
11
61.943
21
-38.3776
0
LINE
8
BLACK
6
CONTINUOUS
10
61.943
20
-38.3776
11
61.9439
21
-38.377
0
LINE
8
BLACK
6
CONTINUOUS
10
61.9439
20
-38.377
11
61.9451
21
-38.3763
0
LINE
8
BLACK
6
CONTINUOUS
10
61.9451
20
-38.3763
11
61.9462
21
-38.3756
0
LINE
8
BLACK
6
CONTINUOUS
10
61.9462
20
-38.3756
11
61.9472
21
-38.3751
0
LINE
8
BLACK
6
CONTINUOUS
10
61.9472
20
-38.3751
11
61.9503
21
-38.3733
0
LINE
8
BLACK
6
CONTINUOUS
10
61.9503
20
-38.3733
11
61.9516
21
-38.3728
0
LINE
8
BLACK
6
CONTINUOUS
10
61.9516
20
-38.3728
11
62.1702
21
-38.2615
0
LINE
8
BLACK
6
CONTINUOUS
10
62.1702
20
-38.2615
11
62.1715
21
-38.2606
0
LINE
8
BLACK
6
CONTINUOUS
10
62.1715
20
-38.2606
11
62.1746
21
-38.2593
0
LINE
8
BLACK
6
CONTINUOUS
10
62.1746
20
-38.2593
11
62.1754
21
-38.2589
0
LINE
8
BLACK
6
CONTINUOUS
10
62.1754
20
-38.2589
11
62.1769
21
-38.2583
0
LINE
8
BLACK
6
CONTINUOUS
10
62.1769
20
-38.2583
11
62.1783
21
-38.2577
0
LINE
8
BLACK
6
CONTINUOUS
10
62.1783
20
-38.2577
11
62.1792
21
-38.2574
0
LINE
8
BLACK
6
CONTINUOUS
10
62.1792
20
-38.2574
11
62.1823
21
-38.2562
0
LINE
8
BLACK
6
CONTINUOUS
10
62.1823
20
-38.2562
11
62.1838
21
-38.2559
0
LINE
8
BLACK
6
CONTINUOUS
10
62.1838
20
-38.2559
11
62.4183
21
-38.1804
0
LINE
8
BLACK
6
CONTINUOUS
10
62.4183
20
-38.1804
11
62.4195
21
-38.1798
0
LINE
8
BLACK
6
CONTINUOUS
10
62.4195
20
-38.1798
11
62.423
21
-38.1789
0
LINE
8
BLACK
6
CONTINUOUS
10
62.423
20
-38.1789
11
62.4241
21
-38.1785
0
LINE
8
BLACK
6
CONTINUOUS
10
62.4241
20
-38.1785
11
62.4254
21
-38.1783
0
LINE
8
BLACK
6
CONTINUOUS
10
62.4254
20
-38.1783
11
62.4266
21
-38.1779
0
LINE
8
BLACK
6
CONTINUOUS
10
62.4266
20
-38.1779
11
62.4278
21
-38.1777
0
LINE
8
BLACK
6
CONTINUOUS
10
62.4278
20
-38.1777
11
62.4314
21
-38.177
0
LINE
8
BLACK
6
CONTINUOUS
10
62.4314
20
-38.177
11
62.4326
21
-38.1769
0
LINE
8
BLACK
6
CONTINUOUS
10
62.4326
20
-38.1769
11
62.6747
21
-38.1373
0
LINE
8
BLACK
6
CONTINUOUS
10
62.6747
20
-38.1373
11
62.6759
21
-38.1369
0
LINE
8
BLACK
6
CONTINUOUS
10
62.6759
20
-38.1369
11
62.6796
21
-38.1365
0
LINE
8
BLACK
6
CONTINUOUS
10
62.6796
20
-38.1365
11
62.6808
21
-38.1363
0
LINE
8
BLACK
6
CONTINUOUS
10
62.6808
20
-38.1363
11
62.682
21
-38.1362
0
LINE
8
BLACK
6
CONTINUOUS
10
62.682
20
-38.1362
11
62.6832
21
-38.136
0
LINE
8
BLACK
6
CONTINUOUS
10
62.6832
20
-38.136
11
62.6845
21
-38.136
0
LINE
8
BLACK
6
CONTINUOUS
10
62.6845
20
-38.136
11
62.6882
21
-38.1358
0
LINE
8
BLACK
6
CONTINUOUS
10
62.6882
20
-38.1358
11
62.6894
21
-38.1359
0
LINE
8
BLACK
6
CONTINUOUS
10
62.6894
20
-38.1359
11
62.7962
21
-38.1341
0
LINE
8
BLACK
6
CONTINUOUS
10
62.7962
20
-38.1341
11
62.7979
21
-38.1334
0
LINE
8
BLACK
6
CONTINUOUS
10
62.7979
20
-38.1334
11
62.7997
21
-38.1331
0
LINE
8
BLACK
6
CONTINUOUS
10
62.7997
20
-38.1331
11
62.8014
21
-38.1326
0
LINE
8
BLACK
6
CONTINUOUS
10
62.8014
20
-38.1326
11
62.8045
21
-38.1323
0
LINE
8
BLACK
6
CONTINUOUS
10
62.8045
20
-38.1323
11
62.8076
21
-38.1318
0
LINE
8
BLACK
6
CONTINUOUS
10
62.8076
20
-38.1318
11
62.8118
21
-38.1319
0
LINE
8
BLACK
6
CONTINUOUS
10
62.8118
20
-38.1319
11
74.597
21
-38.1339
0
LINE
8
BLACK
6
CONTINUOUS
10
74.597
20
-38.1339
11
74.6737
21
-38.132
0
LINE
8
BLACK
6
CONTINUOUS
10
74.6737
20
-38.132
11
74.6738
21
-38.132
0
LINE
8
BLACK
6
CONTINUOUS
10
74.6738
20
-38.132
11
74.6762
21
-38.1319
0
LINE
8
BLACK
6
CONTINUOUS
10
74.6762
20
-38.1319
11
74.6785
21
-38.1319
0
LINE
8
BLACK
6
CONTINUOUS
10
74.6785
20
-38.1319
11
74.6786
21
-38.1319
0
LINE
8
BLACK
6
CONTINUOUS
10
74.6786
20
-38.1319
11
74.9505
21
-38.1262
0
LINE
8
BLACK
6
CONTINUOUS
10
74.9505
20
-38.1262
11
74.9652
21
-38.1259
0
LINE
8
BLACK
6
CONTINUOUS
10
74.9652
20
-38.1259
11
75.0359
21
-38.1158
0
LINE
8
BLACK
6
CONTINUOUS
10
75.0359
20
-38.1158
11
75.1015
21
-38.0929
0
LINE
8
BLACK
6
CONTINUOUS
10
75.1015
20
-38.0929
11
75.1614
21
-38.0576
0
LINE
8
BLACK
6
CONTINUOUS
10
75.1614
20
-38.0576
11
75.2133
21
-38.0113
0
LINE
8
BLACK
6
CONTINUOUS
10
75.2133
20
-38.0113
11
75.2553
21
-37.9559
0
LINE
8
BLACK
6
CONTINUOUS
10
75.2553
20
-37.9559
11
75.2856
21
-37.8934
0
LINE
8
BLACK
6
CONTINUOUS
10
75.2856
20
-37.8934
11
75.3033
21
-37.8261
0
LINE
8
BLACK
6
CONTINUOUS
10
75.3033
20
-37.8261
11
75.3078
21
-37.7519
0
LINE
8
BLACK
6
CONTINUOUS
10
75.3078
20
-37.7519
11
75.3079
21
-37.7512
0
LINE
8
BLACK
6
CONTINUOUS
10
75.3079
20
-37.7512
11
75.3081
21
-37.7499
0
LINE
8
BLACK
6
CONTINUOUS
10
75.3081
20
-37.7499
11
75.31
21
-37.6493
0
LINE
8
BLACK
6
CONTINUOUS
10
75.31
20
-37.6493
11
75.31
21
-37.6485
0
LINE
8
BLACK
6
CONTINUOUS
10
75.31
20
-37.6485
11
75.31
21
-37.6468
0
LINE
8
BLACK
6
CONTINUOUS
10
75.31
20
-37.6468
11
75.3101
21
-37.6451
0
LINE
8
BLACK
6
CONTINUOUS
10
75.3101
20
-37.6451
11
75.3102
21
-37.6444
0
LINE
8
BLACK
6
CONTINUOUS
10
75.3102
20
-37.6444
11
75.314
21
-37.5653
0
LINE
8
BLACK
6
CONTINUOUS
10
75.314
20
-37.5653
11
75.3139
21
-37.5634
0
LINE
8
BLACK
6
CONTINUOUS
10
75.3139
20
-37.5634
11
75.3143
21
-37.5604
0
LINE
8
BLACK
6
CONTINUOUS
10
75.3143
20
-37.5604
11
75.3143
21
-37.5598
0
LINE
8
BLACK
6
CONTINUOUS
10
75.3143
20
-37.5598
11
75.3146
21
-37.5579
0
LINE
8
BLACK
6
CONTINUOUS
10
75.3146
20
-37.5579
11
75.3148
21
-37.556
0
LINE
8
BLACK
6
CONTINUOUS
10
75.3148
20
-37.556
11
75.3149
21
-37.5555
0
LINE
8
BLACK
6
CONTINUOUS
10
75.3149
20
-37.5555
11
75.3154
21
-37.5525
0
LINE
8
BLACK
6
CONTINUOUS
10
75.3154
20
-37.5525
11
75.316
21
-37.5507
0
LINE
8
BLACK
6
CONTINUOUS
10
75.316
20
-37.5507
11
75.3558
21
-37.3756
0
LINE
8
BLACK
6
CONTINUOUS
10
75.3558
20
-37.3756
11
75.3563
21
-37.3726
0
LINE
8
BLACK
6
CONTINUOUS
10
75.3563
20
-37.3726
11
75.3577
21
-37.3685
0
LINE
8
BLACK
6
CONTINUOUS
10
75.3577
20
-37.3685
11
75.3591
21
-37.3644
0
LINE
8
BLACK
6
CONTINUOUS
10
75.3591
20
-37.3644
11
75.3606
21
-37.3617
0
LINE
8
BLACK
6
CONTINUOUS
10
75.3606
20
-37.3617
11
75.4368
21
-37.2013
0
LINE
8
BLACK
6
CONTINUOUS
10
75.4368
20
-37.2013
11
75.4381
21
-37.1982
0
LINE
8
BLACK
6
CONTINUOUS
10
75.4381
20
-37.1982
11
75.4403
21
-37.1948
0
LINE
8
BLACK
6
CONTINUOUS
10
75.4403
20
-37.1948
11
75.4424
21
-37.1913
0
LINE
8
BLACK
6
CONTINUOUS
10
75.4424
20
-37.1913
11
75.4446
21
-37.1888
0
LINE
8
BLACK
6
CONTINUOUS
10
75.4446
20
-37.1888
11
75.557
21
-37.0484
0
LINE
8
BLACK
6
CONTINUOUS
10
75.557
20
-37.0484
11
75.5587
21
-37.0459
0
LINE
8
BLACK
6
CONTINUOUS
10
75.5587
20
-37.0459
11
75.5618
21
-37.0429
0
LINE
8
BLACK
6
CONTINUOUS
10
75.5618
20
-37.0429
11
75.5648
21
-37.0398
0
LINE
8
BLACK
6
CONTINUOUS
10
75.5648
20
-37.0398
11
75.5673
21
-37.0381
0
LINE
8
BLACK
6
CONTINUOUS
10
75.5673
20
-37.0381
11
75.7077
21
-36.9258
0
LINE
8
BLACK
6
CONTINUOUS
10
75.7077
20
-36.9258
11
75.71
21
-36.9236
0
LINE
8
BLACK
6
CONTINUOUS
10
75.71
20
-36.9236
11
75.7136
21
-36.9215
0
LINE
8
BLACK
6
CONTINUOUS
10
75.7136
20
-36.9215
11
75.7171
21
-36.9192
0
LINE
8
BLACK
6
CONTINUOUS
10
75.7171
20
-36.9192
11
75.7201
21
-36.918
0
LINE
8
BLACK
6
CONTINUOUS
10
75.7201
20
-36.918
11
75.8825
21
-36.8398
0
LINE
8
BLACK
6
CONTINUOUS
10
75.8825
20
-36.8398
11
75.8852
21
-36.8382
0
LINE
8
BLACK
6
CONTINUOUS
10
75.8852
20
-36.8382
11
75.8892
21
-36.8369
0
LINE
8
BLACK
6
CONTINUOUS
10
75.8892
20
-36.8369
11
75.8932
21
-36.8354
0
LINE
8
BLACK
6
CONTINUOUS
10
75.8932
20
-36.8354
11
75.8963
21
-36.8349
0
LINE
8
BLACK
6
CONTINUOUS
10
75.8963
20
-36.8349
11
76.0702
21
-36.795
0
LINE
8
BLACK
6
CONTINUOUS
10
76.0702
20
-36.795
11
76.0726
21
-36.7942
0
LINE
8
BLACK
6
CONTINUOUS
10
76.0726
20
-36.7942
11
76.0773
21
-36.7936
0
LINE
8
BLACK
6
CONTINUOUS
10
76.0773
20
-36.7936
11
76.0821
21
-36.793
0
LINE
8
BLACK
6
CONTINUOUS
10
76.0821
20
-36.793
11
76.0847
21
-36.7931
0
LINE
8
BLACK
6
CONTINUOUS
10
76.0847
20
-36.7931
11
76.1664
21
-36.7912
0
LINE
8
BLACK
6
CONTINUOUS
10
76.1664
20
-36.7912
11
76.167
21
-36.7911
0
LINE
8
BLACK
6
CONTINUOUS
10
76.167
20
-36.7911
11
76.1689
21
-36.7911
0
LINE
8
BLACK
6
CONTINUOUS
10
76.1689
20
-36.7911
11
76.1707
21
-36.7911
0
LINE
8
BLACK
6
CONTINUOUS
10
76.1707
20
-36.7911
11
76.1713
21
-36.7911
0
LINE
8
BLACK
6
CONTINUOUS
10
76.1713
20
-36.7911
11
84.1004
21
-36.7911
0
LINE
8
BLACK
6
CONTINUOUS
10
84.1004
20
-36.7911
11
84.101
21
-36.7911
0
LINE
8
BLACK
6
CONTINUOUS
10
84.101
20
-36.7911
11
84.1029
21
-36.7911
0
LINE
8
BLACK
6
CONTINUOUS
10
84.1029
20
-36.7911
11
84.1047
21
-36.7911
0
LINE
8
BLACK
6
CONTINUOUS
10
84.1047
20
-36.7911
11
84.1053
21
-36.7912
0
LINE
8
BLACK
6
CONTINUOUS
10
84.1053
20
-36.7912
11
84.187
21
-36.7931
0
LINE
8
BLACK
6
CONTINUOUS
10
84.187
20
-36.7931
11
84.1896
21
-36.793
0
LINE
8
BLACK
6
CONTINUOUS
10
84.1896
20
-36.793
11
84.1944
21
-36.7936
0
LINE
8
BLACK
6
CONTINUOUS
10
84.1944
20
-36.7936
11
84.1991
21
-36.7942
0
LINE
8
BLACK
6
CONTINUOUS
10
84.1991
20
-36.7942
11
84.2016
21
-36.795
0
LINE
8
BLACK
6
CONTINUOUS
10
84.2016
20
-36.795
11
84.3754
21
-36.8349
0
LINE
8
BLACK
6
CONTINUOUS
10
84.3754
20
-36.8349
11
84.3785
21
-36.8354
0
LINE
8
BLACK
6
CONTINUOUS
10
84.3785
20
-36.8354
11
84.3825
21
-36.8369
0
LINE
8
BLACK
6
CONTINUOUS
10
84.3825
20
-36.8369
11
84.3866
21
-36.8382
0
LINE
8
BLACK
6
CONTINUOUS
10
84.3866
20
-36.8382
11
84.3893
21
-36.8398
0
LINE
8
BLACK
6
CONTINUOUS
10
84.3893
20
-36.8398
11
84.5519
21
-36.9181
0
LINE
8
BLACK
6
CONTINUOUS
10
84.5519
20
-36.9181
11
84.555
21
-36.9193
0
LINE
8
BLACK
6
CONTINUOUS
10
84.555
20
-36.9193
11
84.5583
21
-36.9215
0
LINE
8
BLACK
6
CONTINUOUS
10
84.5583
20
-36.9215
11
84.5617
21
-36.9236
0
LINE
8
BLACK
6
CONTINUOUS
10
84.5617
20
-36.9236
11
84.5642
21
-36.9259
0
LINE
8
BLACK
6
CONTINUOUS
10
84.5642
20
-36.9259
11
84.7025
21
-37.0382
0
LINE
8
BLACK
6
CONTINUOUS
10
84.7025
20
-37.0382
11
84.7049
21
-37.0398
0
LINE
8
BLACK
6
CONTINUOUS
10
84.7049
20
-37.0398
11
84.708
21
-37.043
0
LINE
8
BLACK
6
CONTINUOUS
10
84.708
20
-37.043
11
84.7112
21
-37.0462
0
LINE
8
BLACK
6
CONTINUOUS
10
84.7112
20
-37.0462
11
84.7129
21
-37.0486
0
LINE
8
BLACK
6
CONTINUOUS
10
84.7129
20
-37.0486
11
84.825
21
-37.1887
0
LINE
8
BLACK
6
CONTINUOUS
10
84.825
20
-37.1887
11
84.827
21
-37.1909
0
LINE
8
BLACK
6
CONTINUOUS
10
84.827
20
-37.1909
11
84.8293
21
-37.1946
0
LINE
8
BLACK
6
CONTINUOUS
10
84.8293
20
-37.1946
11
84.8316
21
-37.1982
0
LINE
8
BLACK
6
CONTINUOUS
10
84.8316
20
-37.1982
11
84.8328
21
-37.2011
0
LINE
8
BLACK
6
CONTINUOUS
10
84.8328
20
-37.2011
11
84.911
21
-37.3615
0
LINE
8
BLACK
6
CONTINUOUS
10
84.911
20
-37.3615
11
84.9126
21
-37.3644
0
LINE
8
BLACK
6
CONTINUOUS
10
84.9126
20
-37.3644
11
84.9139
21
-37.3682
0
LINE
8
BLACK
6
CONTINUOUS
10
84.9139
20
-37.3682
11
84.9153
21
-37.3721
0
LINE
8
BLACK
6
CONTINUOUS
10
84.9153
20
-37.3721
11
84.9159
21
-37.3753
0
LINE
8
BLACK
6
CONTINUOUS
10
84.9159
20
-37.3753
11
84.9559
21
-37.5515
0
LINE
8
BLACK
6
CONTINUOUS
10
84.9559
20
-37.5515
11
84.9567
21
-37.554
0
LINE
8
BLACK
6
CONTINUOUS
10
84.9567
20
-37.554
11
84.9573
21
-37.5587
0
LINE
8
BLACK
6
CONTINUOUS
10
84.9573
20
-37.5587
11
84.9579
21
-37.5634
0
LINE
8
BLACK
6
CONTINUOUS
10
84.9579
20
-37.5634
11
84.9577
21
-37.566
0
LINE
8
BLACK
6
CONTINUOUS
10
84.9577
20
-37.566
11
84.9597
21
-37.6718
0
LINE
8
BLACK
6
CONTINUOUS
10
84.9597
20
-37.6718
11
84.9638
21
-37.7552
0
LINE
8
BLACK
6
CONTINUOUS
10
84.9638
20
-37.7552
11
84.9638
21
-37.7568
0
LINE
8
BLACK
6
CONTINUOUS
10
84.9638
20
-37.7568
11
84.9636
21
-37.7706
0
LINE
8
BLACK
6
CONTINUOUS
10
84.9636
20
-37.7706
11
84.971
21
-37.8414
0
LINE
8
BLACK
6
CONTINUOUS
10
84.971
20
-37.8414
11
84.9916
21
-37.9075
0
LINE
8
BLACK
6
CONTINUOUS
10
84.9916
20
-37.9075
11
85.0246
21
-37.9684
0
LINE
8
BLACK
6
CONTINUOUS
10
85.0246
20
-37.9684
11
85.0687
21
-38.0218
0
LINE
8
BLACK
6
CONTINUOUS
10
85.0687
20
-38.0218
11
85.1224
21
-38.0655
0
LINE
8
BLACK
6
CONTINUOUS
10
85.1224
20
-38.0655
11
85.1836
21
-38.098
0
LINE
8
BLACK
6
CONTINUOUS
10
85.1836
20
-38.098
11
85.2499
21
-38.1179
0
LINE
8
BLACK
6
CONTINUOUS
10
85.2499
20
-38.1179
11
85.3221
21
-38.125
0
LINE
8
BLACK
6
CONTINUOUS
10
85.3221
20
-38.125
11
85.5933
21
-38.1319
0
LINE
8
BLACK
6
CONTINUOUS
10
85.5933
20
-38.1319
11
85.5933
21
-38.1319
0
LINE
8
BLACK
6
CONTINUOUS
10
85.5933
20
-38.1319
11
85.597
21
-38.132
0
LINE
8
BLACK
6
CONTINUOUS
10
85.597
20
-38.132
11
85.5981
21
-38.132
0
LINE
8
BLACK
6
CONTINUOUS
10
85.5981
20
-38.132
11
85.5981
21
-38.132
0
LINE
8
BLACK
6
CONTINUOUS
10
85.5981
20
-38.132
11
85.6743
21
-38.1339
0
LINE
8
BLACK
6
CONTINUOUS
10
85.6743
20
-38.1339
11
85.779
21
-38.132
0
LINE
8
BLACK
6
CONTINUOUS
10
85.779
20
-38.132
11
85.7794
21
-38.1319
0
LINE
8
BLACK
6
CONTINUOUS
10
85.7794
20
-38.1319
11
85.7814
21
-38.1319
0
LINE
8
BLACK
6
CONTINUOUS
10
85.7814
20
-38.1319
11
85.7834
21
-38.1319
0
LINE
8
BLACK
6
CONTINUOUS
10
85.7834
20
-38.1319
11
85.7838
21
-38.1319
0
LINE
8
BLACK
6
CONTINUOUS
10
85.7838
20
-38.1319
11
306.913
21
-38.1319
0
LINE
8
BLACK
6
CONTINUOUS
10
306.913
20
-38.1319
11
306.914
21
-38.1318
0
LINE
8
BLACK
6
CONTINUOUS
10
306.935
20
-114.015
11
306.936
21
-114.015
0
LINE
8
BLACK
6
CONTINUOUS
10
306.936
20
-114.015
11
306.938
21
-114.014
0
LINE
8
BLACK
6
CONTINUOUS
10
306.938
20
-114.014
11
306.94
21
-114.014
0
LINE
8
BLACK
6
CONTINUOUS
10
306.94
20
-114.014
11
306.943
21
-114.013
0
LINE
8
BLACK
6
CONTINUOUS
10
306.943
20
-114.013
11
306.945
21
-114.013
0
LINE
8
BLACK
6
CONTINUOUS
10
306.945
20
-114.013
11
306.946
21
-114.013
0
LINE
8
BLACK
6
CONTINUOUS
10
306.946
20
-114.013
11
306.948
21
-114.013
0
LINE
8
BLACK
6
CONTINUOUS
10
306.948
20
-114.013
11
306.952
21
-114.013
0
LINE
8
BLACK
6
CONTINUOUS
10
306.952
20
-114.013
11
306.953
21
-114.013
0
LINE
8
BLACK
6
CONTINUOUS
10
306.953
20
-114.013
11
307.065
21
-114.011
0
LINE
8
BLACK
6
CONTINUOUS
10
307.065
20
-114.011
11
307.307
21
-113.972
0
LINE
8
BLACK
6
CONTINUOUS
10
307.307
20
-113.972
11
307.539
21
-113.896
0
LINE
8
BLACK
6
CONTINUOUS
10
307.539
20
-113.896
11
307.757
21
-113.785
0
LINE
8
BLACK
6
CONTINUOUS
10
307.757
20
-113.785
11
307.957
21
-113.643
0
LINE
8
BLACK
6
CONTINUOUS
10
307.957
20
-113.643
11
308.129
21
-113.469
0
LINE
8
BLACK
6
CONTINUOUS
10
308.129
20
-113.469
11
308.274
21
-113.27
0
LINE
8
BLACK
6
CONTINUOUS
10
308.274
20
-113.27
11
308.384
21
-113.053
0
LINE
8
BLACK
6
CONTINUOUS
10
308.384
20
-113.053
11
308.46
21
-112.821
0
LINE
8
BLACK
6
CONTINUOUS
10
308.46
20
-112.821
11
308.497
21
-112.579
0
LINE
8
BLACK
6
CONTINUOUS
10
308.497
20
-112.579
11
308.499
21
-112.467
0
LINE
8
BLACK
6
CONTINUOUS
10
308.499
20
-112.467
11
308.499
21
-112.466
0
LINE
8
BLACK
6
CONTINUOUS
10
308.499
20
-112.466
11
308.499
21
-112.462
0
LINE
8
BLACK
6
CONTINUOUS
10
308.499
20
-112.462
11
308.499
21
-112.459
0
LINE
8
BLACK
6
CONTINUOUS
10
308.499
20
-112.459
11
308.499
21
-112.459
0
LINE
8
BLACK
6
CONTINUOUS
10
308.499
20
-112.459
11
308.499
21
-112.456
0
LINE
8
BLACK
6
CONTINUOUS
10
308.499
20
-112.456
11
308.5
21
-112.454
0
LINE
8
BLACK
6
CONTINUOUS
10
308.5
20
-112.454
11
308.5
21
-112.452
0
LINE
8
BLACK
6
CONTINUOUS
10
308.5
20
-112.452
11
308.501
21
-112.45
0
LINE
8
BLACK
6
CONTINUOUS
10
308.501
20
-112.45
11
308.501
21
-112.449
0
LINE
8
BLACK
6
CONTINUOUS
10
308.501
20
-112.449
11
308.501
21
-112.449
0
LINE
8
BLACK
6
CONTINUOUS
10
308.501
20
-112.449
11
308.476
21
-39.7987
0
LINE
8
BLACK
6
CONTINUOUS
10
308.476
20
-39.7987
11
308.476
21
-39.7979
0
LINE
8
BLACK
6
CONTINUOUS
10
308.476
20
-39.7979
11
308.476
21
-39.7976
0
LINE
8
BLACK
6
CONTINUOUS
10
308.476
20
-39.7976
11
308.475
21
-39.7951
0
LINE
8
BLACK
6
CONTINUOUS
10
308.475
20
-39.7951
11
308.475
21
-39.7929
0
LINE
8
BLACK
6
CONTINUOUS
10
308.475
20
-39.7929
11
308.474
21
-39.7907
0
LINE
8
BLACK
6
CONTINUOUS
10
308.474
20
-39.7907
11
308.474
21
-39.788
0
LINE
8
BLACK
6
CONTINUOUS
10
308.474
20
-39.788
11
308.474
21
-39.7877
0
LINE
8
BLACK
6
CONTINUOUS
10
308.474
20
-39.7877
11
308.474
21
-39.7854
0
LINE
8
BLACK
6
CONTINUOUS
10
308.474
20
-39.7854
11
308.474
21
-39.7809
0
LINE
8
BLACK
6
CONTINUOUS
10
308.474
20
-39.7809
11
308.474
21
-39.7806
0
LINE
8
BLACK
6
CONTINUOUS
10
308.474
20
-39.7806
11
308.472
21
-39.6681
0
LINE
8
BLACK
6
CONTINUOUS
10
308.472
20
-39.6681
11
308.434
21
-39.4261
0
LINE
8
BLACK
6
CONTINUOUS
10
308.434
20
-39.4261
11
308.359
21
-39.1945
0
LINE
8
BLACK
6
CONTINUOUS
10
308.359
20
-39.1945
11
308.248
21
-38.9767
0
LINE
8
BLACK
6
CONTINUOUS
10
308.248
20
-38.9767
11
308.103
21
-38.7786
0
LINE
8
BLACK
6
CONTINUOUS
10
308.103
20
-38.7786
11
307.931
21
-38.6044
0
LINE
8
BLACK
6
CONTINUOUS
10
307.931
20
-38.6044
11
307.731
21
-38.4619
0
LINE
8
BLACK
6
CONTINUOUS
10
307.731
20
-38.4619
11
307.513
21
-38.3509
0
LINE
8
BLACK
6
CONTINUOUS
10
307.513
20
-38.3509
11
307.282
21
-38.2756
0
LINE
8
BLACK
6
CONTINUOUS
10
307.282
20
-38.2756
11
307.04
21
-38.2359
0
LINE
8
BLACK
6
CONTINUOUS
10
307.04
20
-38.2359
11
306.927
21
-38.234
0
LINE
8
BLACK
6
CONTINUOUS
10
306.927
20
-38.234
11
306.927
21
-38.2341
0
LINE
8
BLACK
6
CONTINUOUS
10
306.927
20
-38.2341
11
306.922
21
-38.2339
0
LINE
8
BLACK
6
CONTINUOUS
10
306.922
20
-38.2339
11
306.92
21
-38.2339
0
LINE
8
BLACK
6
CONTINUOUS
10
306.92
20
-38.2339
11
306.92
21
-38.2339
0
LINE
8
BLACK
6
CONTINUOUS
10
306.92
20
-38.2339
11
306.917
21
-38.2338
0
LINE
8
BLACK
6
CONTINUOUS
10
306.917
20
-38.2338
11
306.915
21
-38.2333
0
LINE
8
BLACK
6
CONTINUOUS
10
306.915
20
-38.2333
11
306.913
21
-38.2331
0
LINE
8
BLACK
6
CONTINUOUS
10
306.913
20
-38.2331
11
306.91
21
-38.2322
0
LINE
8
BLACK
6
CONTINUOUS
10
306.91
20
-38.2322
11
306.91
21
-38.2322
0
LINE
8
BLACK
6
CONTINUOUS
10
306.91
20
-38.2322
11
306.909
21
-38.2319
0
LINE
8
BLACK
6
CONTINUOUS
10
306.909
20
-38.2319
11
85.7823
21
-38.2319
0
LINE
8
BLACK
6
CONTINUOUS
10
85.7823
20
-38.2319
11
85.6764
21
-38.2339
0
LINE
8
BLACK
6
CONTINUOUS
10
85.6764
20
-38.2339
11
85.6753
21
-38.234
0
LINE
8
BLACK
6
CONTINUOUS
10
85.6753
20
-38.234
11
85.674
21
-38.234
0
LINE
8
BLACK
6
CONTINUOUS
10
85.674
20
-38.234
11
85.6726
21
-38.234
0
LINE
8
BLACK
6
CONTINUOUS
10
85.6726
20
-38.234
11
85.6715
21
-38.2339
0
LINE
8
BLACK
6
CONTINUOUS
10
85.6715
20
-38.2339
11
85.5956
21
-38.232
0
LINE
8
BLACK
6
CONTINUOUS
10
85.5956
20
-38.232
11
85.5956
21
-38.232
0
LINE
8
BLACK
6
CONTINUOUS
10
85.5956
20
-38.232
11
85.3149
21
-38.2248
0
LINE
8
BLACK
6
CONTINUOUS
10
85.3149
20
-38.2248
11
85.3121
21
-38.2245
0
LINE
8
BLACK
6
CONTINUOUS
10
85.3121
20
-38.2245
11
85.2354
21
-38.217
0
LINE
8
BLACK
6
CONTINUOUS
10
85.2354
20
-38.217
11
85.2347
21
-38.2169
0
LINE
8
BLACK
6
CONTINUOUS
10
85.2347
20
-38.2169
11
85.2303
21
-38.216
0
LINE
8
BLACK
6
CONTINUOUS
10
85.2303
20
-38.216
11
85.2258
21
-38.2151
0
LINE
8
BLACK
6
CONTINUOUS
10
85.2258
20
-38.2151
11
85.1501
21
-38.1923
0
LINE
8
BLACK
6
CONTINUOUS
10
85.1501
20
-38.1923
11
85.1501
21
-38.1923
0
LINE
8
BLACK
6
CONTINUOUS
10
85.1501
20
-38.1923
11
85.1501
21
-38.1923
0
LINE
8
BLACK
6
CONTINUOUS
10
85.1501
20
-38.1923
11
85.1494
21
-38.1921
0
LINE
8
BLACK
6
CONTINUOUS
10
85.1494
20
-38.1921
11
85.1453
21
-38.1903
0
LINE
8
BLACK
6
CONTINUOUS
10
85.1453
20
-38.1903
11
85.1411
21
-38.1886
0
LINE
8
BLACK
6
CONTINUOUS
10
85.1411
20
-38.1886
11
85.0712
21
-38.1515
0
LINE
8
BLACK
6
CONTINUOUS
10
85.0712
20
-38.1515
11
85.0706
21
-38.1512
0
LINE
8
BLACK
6
CONTINUOUS
10
85.0706
20
-38.1512
11
85.0669
21
-38.1486
0
LINE
8
BLACK
6
CONTINUOUS
10
85.0669
20
-38.1486
11
85.0631
21
-38.1461
0
LINE
8
BLACK
6
CONTINUOUS
10
85.0631
20
-38.1461
11
85.0018
21
-38.0962
0
LINE
8
BLACK
6
CONTINUOUS
10
85.0018
20
-38.0962
11
85.0013
21
-38.0958
0
LINE
8
BLACK
6
CONTINUOUS
10
85.0013
20
-38.0958
11
84.9981
21
-38.0925
0
LINE
8
BLACK
6
CONTINUOUS
10
84.9981
20
-38.0925
11
84.9949
21
-38.0893
0
LINE
8
BLACK
6
CONTINUOUS
10
84.9949
20
-38.0893
11
84.9444
21
-38.0285
0
LINE
8
BLACK
6
CONTINUOUS
10
84.9444
20
-38.0285
11
84.9444
21
-38.0285
0
LINE
8
BLACK
6
CONTINUOUS
10
84.9444
20
-38.0285
11
84.9444
21
-38.0285
0
LINE
8
BLACK
6
CONTINUOUS
10
84.9444
20
-38.0285
11
84.944
21
-38.0279
0
LINE
8
BLACK
6
CONTINUOUS
10
84.944
20
-38.0279
11
84.9415
21
-38.0242
0
LINE
8
BLACK
6
CONTINUOUS
10
84.9415
20
-38.0242
11
84.939
21
-38.0204
0
LINE
8
BLACK
6
CONTINUOUS
10
84.939
20
-38.0204
11
84.9013
21
-37.9509
0
LINE
8
BLACK
6
CONTINUOUS
10
84.9013
20
-37.9509
11
84.901
21
-37.9502
0
LINE
8
BLACK
6
CONTINUOUS
10
84.901
20
-37.9502
11
84.8993
21
-37.946
0
LINE
8
BLACK
6
CONTINUOUS
10
84.8993
20
-37.946
11
84.8975
21
-37.9419
0
LINE
8
BLACK
6
CONTINUOUS
10
84.8975
20
-37.9419
11
84.8741
21
-37.8664
0
LINE
8
BLACK
6
CONTINUOUS
10
84.8741
20
-37.8664
11
84.8739
21
-37.8657
0
LINE
8
BLACK
6
CONTINUOUS
10
84.8739
20
-37.8657
11
84.873
21
-37.8612
0
LINE
8
BLACK
6
CONTINUOUS
10
84.873
20
-37.8612
11
84.8721
21
-37.8568
0
LINE
8
BLACK
6
CONTINUOUS
10
84.8721
20
-37.8568
11
84.8638
21
-37.7782
0
LINE
8
BLACK
6
CONTINUOUS
10
84.8638
20
-37.7782
11
84.8637
21
-37.7775
0
LINE
8
BLACK
6
CONTINUOUS
10
84.8637
20
-37.7775
11
84.8637
21
-37.7748
0
LINE
8
BLACK
6
CONTINUOUS
10
84.8637
20
-37.7748
11
84.8635
21
-37.7722
0
LINE
8
BLACK
6
CONTINUOUS
10
84.8635
20
-37.7722
11
84.8638
21
-37.7561
0
LINE
8
BLACK
6
CONTINUOUS
10
84.8638
20
-37.7561
11
84.8598
21
-37.6777
0
LINE
8
BLACK
6
CONTINUOUS
10
84.8598
20
-37.6777
11
84.8597
21
-37.6769
0
LINE
8
BLACK
6
CONTINUOUS
10
84.8597
20
-37.6769
11
84.8597
21
-37.6752
0
LINE
8
BLACK
6
CONTINUOUS
10
84.8597
20
-37.6752
11
84.8596
21
-37.6735
0
LINE
8
BLACK
6
CONTINUOUS
10
84.8596
20
-37.6735
11
84.8597
21
-37.6728
0
LINE
8
BLACK
6
CONTINUOUS
10
84.8597
20
-37.6728
11
84.8577
21
-37.5708
0
LINE
8
BLACK
6
CONTINUOUS
10
84.8577
20
-37.5708
11
84.8193
21
-37.4016
0
LINE
8
BLACK
6
CONTINUOUS
10
84.8193
20
-37.4016
11
84.7445
21
-37.2482
0
LINE
8
BLACK
6
CONTINUOUS
10
84.7445
20
-37.2482
11
84.6369
21
-37.1137
0
LINE
8
BLACK
6
CONTINUOUS
10
84.6369
20
-37.1137
11
84.5046
21
-37.0063
0
LINE
8
BLACK
6
CONTINUOUS
10
84.5046
20
-37.0063
11
84.3493
21
-36.9315
0
LINE
8
BLACK
6
CONTINUOUS
10
84.3493
20
-36.9315
11
84.1819
21
-36.893
0
LINE
8
BLACK
6
CONTINUOUS
10
84.1819
20
-36.893
11
84.1017
21
-36.8911
0
LINE
8
BLACK
6
CONTINUOUS
10
84.1017
20
-36.8911
11
76.17
21
-36.8911
0
LINE
8
BLACK
6
CONTINUOUS
10
76.17
20
-36.8911
11
76.0899
21
-36.893
0
LINE
8
BLACK
6
CONTINUOUS
10
76.0899
20
-36.893
11
75.9224
21
-36.9315
0
LINE
8
BLACK
6
CONTINUOUS
10
75.9224
20
-36.9315
11
75.767
21
-37.0064
0
LINE
8
BLACK
6
CONTINUOUS
10
75.767
20
-37.0064
11
75.6327
21
-37.1138
0
LINE
8
BLACK
6
CONTINUOUS
10
75.6327
20
-37.1138
11
75.5253
21
-37.248
0
LINE
8
BLACK
6
CONTINUOUS
10
75.5253
20
-37.248
11
75.4525
21
-37.4013
0
LINE
8
BLACK
6
CONTINUOUS
10
75.4525
20
-37.4013
11
75.4138
21
-37.5715
0
LINE
8
BLACK
6
CONTINUOUS
10
75.4138
20
-37.5715
11
75.41
21
-37.6502
0
LINE
8
BLACK
6
CONTINUOUS
10
75.41
20
-37.6502
11
75.4079
21
-37.7587
0
LINE
8
BLACK
6
CONTINUOUS
10
75.4079
20
-37.7587
11
75.4072
21
-37.7649
0
LINE
8
BLACK
6
CONTINUOUS
10
75.4072
20
-37.7649
11
75.4028
21
-37.8371
0
LINE
8
BLACK
6
CONTINUOUS
10
75.4028
20
-37.8371
11
75.4027
21
-37.8378
0
LINE
8
BLACK
6
CONTINUOUS
10
75.4027
20
-37.8378
11
75.4019
21
-37.8423
0
LINE
8
BLACK
6
CONTINUOUS
10
75.4019
20
-37.8423
11
75.4012
21
-37.8468
0
LINE
8
BLACK
6
CONTINUOUS
10
75.4012
20
-37.8468
11
75.3811
21
-37.9235
0
LINE
8
BLACK
6
CONTINUOUS
10
75.3811
20
-37.9235
11
75.3811
21
-37.9235
0
LINE
8
BLACK
6
CONTINUOUS
10
75.3811
20
-37.9235
11
75.3811
21
-37.9235
0
LINE
8
BLACK
6
CONTINUOUS
10
75.3811
20
-37.9235
11
75.3809
21
-37.9242
0
LINE
8
BLACK
6
CONTINUOUS
10
75.3809
20
-37.9242
11
75.3793
21
-37.9283
0
LINE
8
BLACK
6
CONTINUOUS
10
75.3793
20
-37.9283
11
75.3777
21
-37.9326
0
LINE
8
BLACK
6
CONTINUOUS
10
75.3777
20
-37.9326
11
75.3431
21
-38.004
0
LINE
8
BLACK
6
CONTINUOUS
10
75.3431
20
-38.004
11
75.3428
21
-38.0046
0
LINE
8
BLACK
6
CONTINUOUS
10
75.3428
20
-38.0046
11
75.3403
21
-38.0084
0
LINE
8
BLACK
6
CONTINUOUS
10
75.3403
20
-38.0084
11
75.338
21
-38.0123
0
LINE
8
BLACK
6
CONTINUOUS
10
75.338
20
-38.0123
11
75.2901
21
-38.0756
0
LINE
8
BLACK
6
CONTINUOUS
10
75.2901
20
-38.0756
11
75.2901
21
-38.0756
0
LINE
8
BLACK
6
CONTINUOUS
10
75.2901
20
-38.0756
11
75.2901
21
-38.0756
0
LINE
8
BLACK
6
CONTINUOUS
10
75.2901
20
-38.0756
11
75.2897
21
-38.0761
0
LINE
8
BLACK
6
CONTINUOUS
10
75.2897
20
-38.0761
11
75.2866
21
-38.0794
0
LINE
8
BLACK
6
CONTINUOUS
10
75.2866
20
-38.0794
11
75.2835
21
-38.0827
0
LINE
8
BLACK
6
CONTINUOUS
10
75.2835
20
-38.0827
11
75.2243
21
-38.1355
0
LINE
8
BLACK
6
CONTINUOUS
10
75.2243
20
-38.1355
11
75.2243
21
-38.1355
0
LINE
8
BLACK
6
CONTINUOUS
10
75.2243
20
-38.1355
11
75.2243
21
-38.1355
0
LINE
8
BLACK
6
CONTINUOUS
10
75.2243
20
-38.1355
11
75.2238
21
-38.136
0
LINE
8
BLACK
6
CONTINUOUS
10
75.2238
20
-38.136
11
75.2201
21
-38.1386
0
LINE
8
BLACK
6
CONTINUOUS
10
75.2201
20
-38.1386
11
75.2164
21
-38.1412
0
LINE
8
BLACK
6
CONTINUOUS
10
75.2164
20
-38.1412
11
75.1481
21
-38.1815
0
LINE
8
BLACK
6
CONTINUOUS
10
75.1481
20
-38.1815
11
75.1481
21
-38.1815
0
LINE
8
BLACK
6
CONTINUOUS
10
75.1481
20
-38.1815
11
75.1481
21
-38.1815
0
LINE
8
BLACK
6
CONTINUOUS
10
75.1481
20
-38.1815
11
75.1475
21
-38.1819
0
LINE
8
BLACK
6
CONTINUOUS
10
75.1475
20
-38.1819
11
75.1434
21
-38.1837
0
LINE
8
BLACK
6
CONTINUOUS
10
75.1434
20
-38.1837
11
75.1392
21
-38.1856
0
LINE
8
BLACK
6
CONTINUOUS
10
75.1392
20
-38.1856
11
75.0644
21
-38.2118
0
LINE
8
BLACK
6
CONTINUOUS
10
75.0644
20
-38.2118
11
75.0637
21
-38.2121
0
LINE
8
BLACK
6
CONTINUOUS
10
75.0637
20
-38.2121
11
75.0593
21
-38.2131
0
LINE
8
BLACK
6
CONTINUOUS
10
75.0593
20
-38.2131
11
75.0549
21
-38.2141
0
LINE
8
BLACK
6
CONTINUOUS
10
75.0549
20
-38.2141
11
74.9764
21
-38.2253
0
LINE
8
BLACK
6
CONTINUOUS
10
74.9764
20
-38.2253
11
74.9757
21
-38.2254
0
LINE
8
BLACK
6
CONTINUOUS
10
74.9757
20
-38.2254
11
74.973
21
-38.2255
0
LINE
8
BLACK
6
CONTINUOUS
10
74.973
20
-38.2255
11
74.9704
21
-38.2258
0
LINE
8
BLACK
6
CONTINUOUS
10
74.9704
20
-38.2258
11
74.9551
21
-38.2261
0
LINE
8
BLACK
6
CONTINUOUS
10
74.9551
20
-38.2261
11
74.9551
21
-38.2261
0
LINE
8
BLACK
6
CONTINUOUS
10
74.9551
20
-38.2261
11
74.9528
21
-38.2262
0
LINE
8
BLACK
6
CONTINUOUS
10
74.9528
20
-38.2262
11
74.9527
21
-38.2262
0
LINE
8
BLACK
6
CONTINUOUS
10
74.9527
20
-38.2262
11
74.9526
21
-38.2262
0
LINE
8
BLACK
6
CONTINUOUS
10
74.9526
20
-38.2262
11
74.6783
21
-38.2319
0
LINE
8
BLACK
6
CONTINUOUS
10
74.6783
20
-38.2319
11
74.6007
21
-38.2339
0
LINE
8
BLACK
6
CONTINUOUS
10
74.6007
20
-38.2339
11
74.6
21
-38.234
0
LINE
8
BLACK
6
CONTINUOUS
10
74.6
20
-38.234
11
74.5982
21
-38.234
0
LINE
8
BLACK
6
CONTINUOUS
10
74.5982
20
-38.234
11
74.5964
21
-38.234
0
LINE
8
BLACK
6
CONTINUOUS
10
74.5964
20
-38.234
11
74.5958
21
-38.2339
0
LINE
8
BLACK
6
CONTINUOUS
10
74.5958
20
-38.2339
11
62.8217
21
-38.2319
0
LINE
8
BLACK
6
CONTINUOUS
10
62.8217
20
-38.2319
11
62.8204
21
-38.2324
0
LINE
8
BLACK
6
CONTINUOUS
10
62.8204
20
-38.2324
11
62.8107
21
-38.2341
0
LINE
8
BLACK
6
CONTINUOUS
10
62.8107
20
-38.2341
11
62.8061
21
-38.2339
0
LINE
8
BLACK
6
CONTINUOUS
10
62.8061
20
-38.2339
11
62.691
21
-38.2359
0
LINE
8
BLACK
6
CONTINUOUS
10
62.691
20
-38.2359
11
62.4489
21
-38.2756
0
LINE
8
BLACK
6
CONTINUOUS
10
62.4489
20
-38.2756
11
62.2151
21
-38.3509
0
LINE
8
BLACK
6
CONTINUOUS
10
62.2151
20
-38.3509
11
61.9972
21
-38.4618
0
LINE
8
BLACK
6
CONTINUOUS
10
61.9972
20
-38.4618
11
61.7993
21
-38.6043
0
LINE
8
BLACK
6
CONTINUOUS
10
61.7993
20
-38.6043
11
61.6271
21
-38.7785
0
LINE
8
BLACK
6
CONTINUOUS
10
61.6271
20
-38.7785
11
61.4824
21
-38.9767
0
LINE
8
BLACK
6
CONTINUOUS
10
61.4824
20
-38.9767
11
61.3715
21
-39.1945
0
LINE
8
BLACK
6
CONTINUOUS
10
61.3715
20
-39.1945
11
61.2963
21
-39.4261
0
LINE
8
BLACK
6
CONTINUOUS
10
61.2963
20
-39.4261
11
61.2585
21
-39.6685
0
LINE
8
BLACK
6
CONTINUOUS
10
61.2585
20
-39.6685
11
61.2546
21
-39.786
0
LINE
8
BLACK
6
CONTINUOUS
10
61.2546
20
-39.786
11
61.2544
21
-39.7907
0
LINE
8
BLACK
6
CONTINUOUS
10
61.2544
20
-39.7907
11
61.2539
21
-39.7933
0
LINE
8
BLACK
6
CONTINUOUS
10
61.2539
20
-39.7933
11
61.2535
21
-39.7959
0
LINE
8
BLACK
6
CONTINUOUS
10
61.2535
20
-39.7959
11
61.2526
21
-39.7987
0
LINE
8
BLACK
6
CONTINUOUS
10
61.2526
20
-39.7987
11
61.28
21
-112.462
0
LINE
8
BLACK
6
CONTINUOUS
10
61.28
20
-112.462
11
61.2839
21
-112.579
0
LINE
8
BLACK
6
CONTINUOUS
10
61.2839
20
-112.579
11
61.3217
21
-112.821
0
LINE
8
BLACK
6
CONTINUOUS
10
61.3217
20
-112.821
11
61.3969
21
-113.053
0
LINE
8
BLACK
6
CONTINUOUS
10
61.3969
20
-113.053
11
61.5078
21
-113.27
0
LINE
8
BLACK
6
CONTINUOUS
10
61.5078
20
-113.27
11
61.6525
21
-113.469
0
LINE
8
BLACK
6
CONTINUOUS
10
61.6525
20
-113.469
11
61.8247
21
-113.643
0
LINE
8
BLACK
6
CONTINUOUS
10
61.8247
20
-113.643
11
62.0226
21
-113.785
0
LINE
8
BLACK
6
CONTINUOUS
10
62.0226
20
-113.785
11
62.2405
21
-113.896
0
LINE
8
BLACK
6
CONTINUOUS
10
62.2405
20
-113.896
11
62.4743
21
-113.972
0
LINE
8
BLACK
6
CONTINUOUS
10
62.4743
20
-113.972
11
62.7164
21
-114.011
0
LINE
8
BLACK
6
CONTINUOUS
10
62.7164
20
-114.011
11
62.8267
21
-114.013
0
LINE
8
BLACK
6
CONTINUOUS
10
62.8267
20
-114.013
11
62.8269
21
-114.013
0
LINE
8
BLACK
6
CONTINUOUS
10
62.8269
20
-114.013
11
62.8315
21
-114.013
0
LINE
8
BLACK
6
CONTINUOUS
10
62.8315
20
-114.013
11
62.8338
21
-114.013
0
LINE
8
BLACK
6
CONTINUOUS
10
62.8338
20
-114.013
11
62.834
21
-114.013
0
LINE
8
BLACK
6
CONTINUOUS
10
62.834
20
-114.013
11
62.8367
21
-114.013
0
LINE
8
BLACK
6
CONTINUOUS
10
62.8367
20
-114.013
11
62.8389
21
-114.014
0
LINE
8
BLACK
6
CONTINUOUS
10
62.8389
20
-114.014
11
62.8411
21
-114.014
0
LINE
8
BLACK
6
CONTINUOUS
10
62.8411
20
-114.014
11
62.8437
21
-114.015
0
LINE
8
BLACK
6
CONTINUOUS
10
62.8437
20
-114.015
11
62.8439
21
-114.015
0
LINE
8
BLACK
6
CONTINUOUS
10
62.8439
20
-114.015
11
62.8447
21
-114.015
0
LINE
8
BLACK
6
CONTINUOUS
10
62.8447
20
-114.015
11
306.935
21
-114.015
0
LINE
8
BLACK
6
CONTINUOUS
10
306.935
20
-114.015
11
306.935
21
-114.015
  0
ENDSEC
  0
EOF
