<?xml version="1.0" encoding="utf-8"?>
<!-- Generator: Adobe Illustrator 26.5.0, SVG Export Plug-In . SVG Version: 6.00 Build 0)  -->
<svg version="1.1" xmlns="http://www.w3.org/2000/svg" xmlns:xlink="http://www.w3.org/1999/xlink" x="0px" y="0px"
	 viewBox="0 0 792 612" style="enable-background:new 0 0 792 612;" xml:space="preserve">
<style type="text/css">
	.st0{fill:none;stroke:#010101;stroke-width:0.142;stroke-linecap:round;stroke-linejoin:round;stroke-miterlimit:10;}
	.st1{fill:none;stroke:#010101;stroke-width:0.142;stroke-miterlimit:10;}
	.st2{fill:none;stroke:#010101;stroke-width:0.1417;stroke-linecap:round;stroke-linejoin:round;stroke-miterlimit:10;}
</style>
<g id="insdie">
	<g id="LWPOLYLINE_00000013874067902240064860000008375981390159590278_">
		<path class="st0" d="M268.07,207.79c0-0.78,0.63-1.42,1.42-1.42h36.85c0.78,0,1.42,0.63,1.42,1.42v36.85
			c0,0.78-0.63,1.42-1.42,1.42h-36.85c-0.78,0-1.42-0.63-1.42-1.42V207.79z"/>
	</g>
	<g id="LWPOLYLINE_00000018223200811609042810000016325449762096548995_">
		<path class="st0" d="M323.48,246.06c-0.78,0-1.42-0.63-1.42-1.42v-36.85c0-0.78,0.63-1.42,1.42-1.42h36.85
			c0.78,0,1.42,0.63,1.42,1.42v36.85c0,0.78-0.63,1.42-1.42,1.42H323.48z"/>
	</g>
	<g id="LWPOLYLINE_00000108990412243568596280000002815425765113572026_">
		<path class="st0" d="M484.07,207.79c0-0.78,0.63-1.42,1.42-1.42h36.85c0.78,0,1.42,0.63,1.42,1.42v36.85
			c0,0.78-0.63,1.42-1.42,1.42h-36.85c-0.78,0-1.42-0.63-1.42-1.42V207.79z"/>
	</g>
	<g id="LWPOLYLINE_00000125564772542678921180000012230562313764371332_">
		<path class="st0" d="M576.33,206.37c0.78,0,1.42,0.63,1.42,1.42v36.85c0,0.78-0.63,1.42-1.42,1.42h-36.85
			c-0.78,0-1.42-0.63-1.42-1.42v-36.85c0-0.78,0.63-1.42,1.42-1.42H576.33z"/>
	</g>
	<g id="LWPOLYLINE_00000100380847353249227610000005254191836689985458_">
		<path class="st0" d="M630.33,206.37c0.78,0,1.42,0.63,1.42,1.42v36.85c0,0.78-0.63,1.42-1.42,1.42h-36.85
			c-0.78,0-1.42-0.63-1.42-1.42v-36.85c0-0.78,0.63-1.42,1.42-1.42H630.33z"/>
	</g>
	<g id="LWPOLYLINE_00000142160500521305618510000008218629743032225419_">
		<path class="st0" d="M468.33,246.06h-36.85c-0.78,0-1.42-0.63-1.42-1.42v-36.85c0-0.78,0.63-1.42,1.42-1.42h36.85
			c0.78,0,1.42,0.63,1.42,1.42v36.85C469.75,245.42,469.12,246.06,468.33,246.06z"/>
	</g>
	<g id="LWPOLYLINE_00000089569845454995239790000006277962166470360235_">
		<path class="st0" d="M160.07,261.79c0-0.78,0.63-1.42,1.42-1.42h36.85c0.78,0,1.42,0.63,1.42,1.42v36.85
			c0,0.78-0.63,1.42-1.42,1.42h-36.85c-0.78,0-1.42-0.63-1.42-1.42V261.79z"/>
	</g>
	<path class="st0" d="M307.75,298.64c0,0.78-0.63,1.42-1.42,1.42h-36.85c-0.78,0-1.42-0.63-1.42-1.42v-36.85
		c0-0.78,0.63-1.42,1.42-1.42h36.85c0.78,0,1.42,0.63,1.42,1.42V298.64z"/>
	<g id="LWPOLYLINE_00000106855503560985994520000007927538170049776524_">
		<path class="st0" d="M322.07,261.79c0-0.78,0.63-1.42,1.42-1.42h36.85c0.78,0,1.42,0.63,1.42,1.42v36.85
			c0,0.78-0.63,1.42-1.42,1.42h-36.85c-0.78,0-1.42-0.63-1.42-1.42V261.79z"/>
	</g>
	<g id="LWPOLYLINE_00000122714692056669326770000006070463326609877389_">
		<path class="st0" d="M214.07,261.79c0-0.78,0.63-1.42,1.42-1.42h36.85c0.78,0,1.42,0.63,1.42,1.42v36.85
			c0,0.78-0.63,1.42-1.42,1.42h-36.85c-0.78,0-1.42-0.63-1.42-1.42V261.79z"/>
	</g>
	<g id="LWPOLYLINE_00000149355483029500313360000015814587498930385029_">
		<path class="st0" d="M53.48,300.06c-0.78,0-1.42-0.63-1.42-1.42v-36.85c0-0.78,0.63-1.42,1.42-1.42h36.85
			c0.78,0,1.42,0.63,1.42,1.42v36.85c0,0.78-0.63,1.42-1.42,1.42H53.48z"/>
	</g>
	<g id="LWPOLYLINE_00000140014367799746836500000011099727432753346433_">
		<path class="st0" d="M700.07,207.79c0-0.78,0.63-1.42,1.42-1.42h36.85c0.78,0,1.42,0.63,1.42,1.42v36.85
			c0,0.78-0.63,1.42-1.42,1.42h-36.85c-0.78,0-1.42-0.63-1.42-1.42V207.79z"/>
	</g>
	<g id="LWPOLYLINE_00000109711123820626128690000003957336649603034297_">
		<path class="st0" d="M144.33,260.37c0.78,0,1.42,0.63,1.42,1.42v36.85c0,0.78-0.63,1.42-1.42,1.42h-36.85
			c-0.78,0-1.42-0.63-1.42-1.42v-36.85c0-0.78,0.63-1.42,1.42-1.42H144.33z"/>
	</g>
	<g id="LWPOLYLINE_00000036973970837048472010000012626714013144433810_">
		<path class="st0" d="M646.07,244.64v-36.85c0-0.78,0.63-1.42,1.42-1.42h36.85c0.78,0,1.42,0.63,1.42,1.42v36.85
			c0,0.78-0.63,1.42-1.42,1.42h-36.85C646.7,246.06,646.07,245.42,646.07,244.64z"/>
	</g>
	<g id="LWPOLYLINE_00000083779838652063536650000009458348641698936208_">
		<path class="st0" d="M91.75,244.64c0,0.78-0.63,1.42-1.42,1.42H53.48c-0.78,0-1.42-0.63-1.42-1.42v-36.85
			c0-0.78,0.63-1.42,1.42-1.42h36.85c0.78,0,1.42,0.63,1.42,1.42V244.64z"/>
	</g>
	<g id="LWPOLYLINE_00000157309373401736411310000014379860392667758503_">
		<path class="st0" d="M107.48,246.06c-0.78,0-1.42-0.63-1.42-1.42v-36.85c0-0.78,0.63-1.42,1.42-1.42h36.85
			c0.78,0,1.42,0.63,1.42,1.42v36.85c0,0.78-0.63,1.42-1.42,1.42H107.48z"/>
	</g>
	<g id="LWPOLYLINE_00000010302784999912649580000017757227099702093973_">
		<path class="st0" d="M161.48,246.06c-0.78,0-1.42-0.63-1.42-1.42v-36.85c0-0.78,0.63-1.42,1.42-1.42h36.85
			c0.78,0,1.42,0.63,1.42,1.42v36.85c0,0.78-0.63,1.42-1.42,1.42H161.48z"/>
	</g>
	<g id="LWPOLYLINE_00000056417045160308931730000007458691111546641042_">
		<path class="st0" d="M252.33,246.06h-36.85c-0.78,0-1.42-0.63-1.42-1.42v-36.85c0-0.78,0.63-1.42,1.42-1.42h36.85
			c0.78,0,1.42,0.63,1.42,1.42v36.85C253.75,245.42,253.12,246.06,252.33,246.06z"/>
	</g>
	<g id="LWPOLYLINE_00000089538436458669965540000011920394271305331075_">
		<path class="st0" d="M430.07,261.79c0-0.78,0.63-1.42,1.42-1.42h36.85c0.78,0,1.42,0.63,1.42,1.42v36.85
			c0,0.78-0.63,1.42-1.42,1.42h-36.85c-0.78,0-1.42-0.63-1.42-1.42V261.79z"/>
	</g>
	<g id="LWPOLYLINE_00000067211239217658436670000001001441416937627547_">
		<path class="st0" d="M172.75,315.79v36.85c0,0.78-0.63,1.42-1.42,1.42h-36.85c-0.78,0-1.42-0.63-1.42-1.42v-36.85
			c0-0.78,0.63-1.42,1.42-1.42h36.85C172.12,314.37,172.75,315.01,172.75,315.79z"/>
	</g>
	<g id="LWPOLYLINE_00000032631798666613428770000016378233682957802687_">
		<path class="st0" d="M631.75,261.79v36.85c0,0.78-0.63,1.42-1.42,1.42h-36.85c-0.78,0-1.42-0.63-1.42-1.42v-36.85
			c0-0.78,0.63-1.42,1.42-1.42h36.85C631.12,260.37,631.75,261.01,631.75,261.79z"/>
	</g>
	<g id="LWPOLYLINE_00000170280764872962003490000002933164026994223797_">
		<path class="st0" d="M701.48,300.06c-0.78,0-1.42-0.63-1.42-1.42v-36.85c0-0.78,0.63-1.42,1.42-1.42h36.85
			c0.78,0,1.42,0.63,1.42,1.42v36.85c0,0.78-0.63,1.42-1.42,1.42H701.48z"/>
	</g>
	<g id="LWPOLYLINE_00000137841697722120704870000008213003382041009814_">
		<path class="st0" d="M522.33,300.06h-36.85c-0.78,0-1.42-0.63-1.42-1.42v-36.85c0-0.78,0.63-1.42,1.42-1.42h36.85
			c0.78,0,1.42,0.63,1.42,1.42v36.85C523.75,299.42,523.12,300.06,522.33,300.06z"/>
	</g>
	<g id="LWPOLYLINE_00000176038140443413683900000001882050640750120837_">
		<path class="st0" d="M577.75,298.64c0,0.78-0.63,1.42-1.42,1.42h-36.85c-0.78,0-1.42-0.63-1.42-1.42v-36.85
			c0-0.78,0.63-1.42,1.42-1.42h36.85c0.78,0,1.42,0.63,1.42,1.42V298.64z"/>
	</g>
	<g id="LWPOLYLINE_00000167386415547929887710000000528298908718976929_">
		<path class="st0" d="M646.07,298.64v-36.85c0-0.78,0.63-1.42,1.42-1.42h36.85c0.78,0,1.42,0.63,1.42,1.42v36.85
			c0,0.78-0.63,1.42-1.42,1.42h-36.85C646.7,300.06,646.07,299.42,646.07,298.64z"/>
	</g>
	<g id="LWPOLYLINE_00000135689539392243230020000002805000396399972995_">
		<path class="st0" d="M334.75,352.64c0,0.78-0.63,1.42-1.42,1.42h-36.85c-0.78,0-1.42-0.63-1.42-1.42v-36.85
			c0-0.78,0.63-1.42,1.42-1.42h36.85c0.78,0,1.42,0.63,1.42,1.42V352.64z"/>
	</g>
	<g id="LWPOLYLINE_00000111873253904830987940000013579501793382941359_">
		<path class="st0" d="M350.48,354.06c-0.78,0-1.42-0.63-1.42-1.42v-36.85c0-0.78,0.63-1.42,1.42-1.42h36.85
			c0.78,0,1.42,0.63,1.42,1.42v36.85c0,0.78-0.63,1.42-1.42,1.42H350.48z"/>
	</g>
	<g id="LWPOLYLINE_00000170236948727472974450000015311633273642534835_">
		<path class="st0" d="M280.75,352.64c0,0.78-0.63,1.42-1.42,1.42h-36.85c-0.78,0-1.42-0.63-1.42-1.42v-36.85
			c0-0.78,0.63-1.42,1.42-1.42h36.85c0.78,0,1.42,0.63,1.42,1.42V352.64z"/>
	</g>
	<g id="LWPOLYLINE_00000182520879711528682580000001767563997158449081_">
		<path class="st0" d="M225.33,314.37c0.78,0,1.42,0.63,1.42,1.42v36.85c0,0.78-0.63,1.42-1.42,1.42h-36.85
			c-0.78,0-1.42-0.63-1.42-1.42v-36.85c0-0.78,0.63-1.42,1.42-1.42H225.33z"/>
	</g>
	<g id="LWPOLYLINE_00000054962527698736658670000004581318067880886918_">
		<path class="st0" d="M403.07,352.64v-36.85c0-0.78,0.63-1.42,1.42-1.42h36.85c0.78,0,1.42,0.63,1.42,1.42v36.85
			c0,0.78-0.63,1.42-1.42,1.42h-36.85C403.7,354.06,403.07,353.42,403.07,352.64z"/>
	</g>
	<g id="LWPOLYLINE_00000159446086535441507800000013995608491905499296_">
		<path class="st0" d="M458.48,314.37h36.85c0.78,0,1.42,0.63,1.42,1.42v36.85c0,0.78-0.63,1.42-1.42,1.42h-36.85
			c-0.78,0-1.42-0.63-1.42-1.42v-36.85C457.07,315.01,457.7,314.37,458.48,314.37z"/>
	</g>
	<g id="LWPOLYLINE_00000160885420758994516940000014175237940049932453_">
		<path class="st0" d="M512.48,354.06c-0.78,0-1.42-0.63-1.42-1.42v-36.85c0-0.78,0.63-1.42,1.42-1.42h36.85
			c0.78,0,1.42,0.63,1.42,1.42v36.85c0,0.78-0.63,1.42-1.42,1.42H512.48z"/>
	</g>
	<g id="LWPOLYLINE_00000013909130432685443970000005008026453677915305_">
		<path class="st0" d="M619.07,352.64v-36.85c0-0.78,0.63-1.42,1.42-1.42h36.85c0.78,0,1.42,0.63,1.42,1.42v36.85
			c0,0.78-0.63,1.42-1.42,1.42h-36.85C619.7,354.06,619.07,353.42,619.07,352.64z"/>
	</g>
	<g id="LWPOLYLINE_00000054250752963068749880000012171167242735415697_">
		<path class="st0" d="M565.07,315.79c0-0.78,0.63-1.42,1.42-1.42h36.85c0.78,0,1.42,0.63,1.42,1.42v36.85
			c0,0.78-0.63,1.42-1.42,1.42h-36.85c-0.78,0-1.42-0.63-1.42-1.42V315.79z"/>
	</g>
	<path class="st0" d="M117.34,314.37h-13.5H80.48h-13.5c-0.78,0-1.42,0.63-1.42,1.42v36.85c0,0.78,0.63,1.42,1.42,1.42h13.5h23.35
		h13.5c0.78,0,1.42-0.63,1.42-1.42v-36.85C118.75,315.01,118.12,314.37,117.34,314.37z"/>
	<path class="st0" d="M724.83,314.37h-13.5h-23.35h-13.5c-0.78,0-1.42,0.63-1.42,1.42v36.85c0,0.78,0.63,1.42,1.42,1.42h13.5h23.35
		h13.5c0.78,0,1.42-0.63,1.42-1.42v-36.85C726.25,315.01,725.62,314.37,724.83,314.37z"/>
	<path class="st1" d="M208.31,231.86h-2.8c-0.8,0-1.4-0.6-1.4-1.4v-8.5c0-0.8,0.6-1.4,1.4-1.4h2.8c0.8,0,1.4,0.6,1.4,1.4v8.5
		C209.71,231.16,209.11,231.86,208.31,231.86z"/>
	<g id="Layer_7">
	</g>
	<path class="st0" d="M373.83,368.37h-6.75h-30.1h-6.75c-0.78,0-1.42,0.63-1.42,1.42v36.85c0,0.78,0.63,1.42,1.42,1.42h6.75h30.1
		h6.75c0.78,0,1.42-0.63,1.42-1.42v-36.85C375.25,369.01,374.62,368.37,373.83,368.37z"/>
	<path class="st0" d="M178.08,368.37h-13.5h-23.35h-13.5c-0.78,0-1.42,0.63-1.42,1.42v36.85c0,0.78,0.63,1.42,1.42,1.42h13.5h23.35
		h13.5c0.78,0,1.42-0.63,1.42-1.42v-36.85C179.5,369.01,178.87,368.37,178.08,368.37z"/>
	<path class="st0" d="M306.33,368.37h-13.5h-6.75h-16.6h-13.5h-3.65h-3.1h-17.15h-6.75h-9.85h-20.25h-6.75
		c-0.78,0-1.42,0.63-1.42,1.42v36.85c0,0.78,0.63,1.42,1.42,1.42h6.75h20.25h9.85h6.75h17.15h3.1h3.65h13.5h16.6h6.75h13.5
		c0.78,0,1.42-0.63,1.42-1.42v-36.85C307.75,369.01,307.12,368.37,306.33,368.37z"/>
	<path class="st0" d="M417.98,408.06h6.75h30.1h6.75c0.78,0,1.42-0.63,1.42-1.42v-36.85c0-0.78-0.63-1.42-1.42-1.42h-6.75h-30.1
		h-6.75c-0.78,0-1.42,0.63-1.42,1.42v36.85C416.57,407.42,417.2,408.06,417.98,408.06z"/>
	<path class="st0" d="M613.73,408.06h13.5h23.35h13.5c0.78,0,1.42-0.63,1.42-1.42v-36.85c0-0.78-0.63-1.42-1.42-1.42h-13.5h-23.35
		h-13.5c-0.78,0-1.42,0.63-1.42,1.42v36.85C612.32,407.42,612.95,408.06,613.73,408.06z"/>
	<path class="st0" d="M485.48,408.06h13.5h6.75h16.6h13.5h3.65h3.1h17.15h6.75h9.85h20.25h6.75c0.78,0,1.42-0.63,1.42-1.42v-36.85
		c0-0.78-0.63-1.42-1.42-1.42h-6.75h-20.25h-9.85h-6.75h-17.15h-3.1h-3.65h-13.5h-16.6h-6.75h-13.5c-0.78,0-1.42,0.63-1.42,1.42
		v36.85C484.07,407.42,484.7,408.06,485.48,408.06z"/>
</g>
<g id="trackpoint_-_slanted">
	<g>
		<g>
			<circle class="st0" cx="373.23" cy="207.71" r="2.8"/>
			<circle class="st0" cx="418.59" cy="207.71" r="2.8"/>
		</g>
		<g>
			<circle class="st0" cx="373.23" cy="298.71" r="2.8"/>
			<circle class="st0" cx="418.59" cy="298.71" r="2.8"/>
		</g>
	</g>
	<path class="st0" d="M410.79,304.24h-29.77c-0.78,0-1.42-0.63-1.42-1.42v-99.21c0-0.78,0.63-1.42,1.42-1.42h29.77
		c0.78,0,1.42,0.63,1.42,1.42v99.21C412.21,303.6,411.58,304.24,410.79,304.24z"/>
</g>
<g id="preimum">
	<g>
		<g id="LWPOLYLINE_00000020386786363331050510000001924262046357702061_">
			<path class="st2" d="M128.44,190.36c1.16-4.49,4.67-8,9.16-9.16c6.82-1.76,13.78,2.34,15.54,9.16c0.48,1.88,2.18,3.19,4.12,3.19
				h477.3c1.94,0,3.63-1.31,4.12-3.19c1.16-4.49,4.67-8,9.16-9.16c6.82-1.76,13.78,2.34,15.54,9.16c0.48,1.88,2.18,3.19,4.12,3.19
				h80.83c2.35,0,4.25,1.9,4.25,4.25v218.83c0,2.35-1.9,4.25-4.25,4.25h-80.83c-1.94,0-3.63,1.31-4.12,3.19
				c-1.16,4.49-4.67,8-9.16,9.16c-6.82,1.76-13.78-2.34-15.54-9.16c-0.48-1.88-2.18-3.19-4.12-3.19h-477.3
				c-1.94,0-3.63,1.31-4.12,3.19c-1.16,4.49-4.67,8-9.16,9.16c-6.82,1.76-13.78-2.34-15.54-9.16c-0.48-1.88-2.18-3.19-4.12-3.19
				H43.49c-2.35,0-4.25-1.9-4.25-4.25V197.8c0-2.35,1.9-4.25,4.25-4.25h80.83C126.26,193.54,127.96,192.23,128.44,190.36z"/>
		</g>
		<g id="CIRCLE_00000001661232769050465070000003848199327397839023_">
			<circle class="st2" cx="140.79" cy="187.88" r="3.12"/>
		</g>
		<g id="CIRCLE_00000101791469884261205920000016357132337044282499_">
			<circle class="st2" cx="140.79" cy="426.55" r="3.12"/>
		</g>
		<g id="CIRCLE_00000138543819881070937750000004340767275581781431_">
			<circle class="st2" cx="651.03" cy="426.55" r="3.12"/>
		</g>
		<g id="CIRCLE_00000136389416028774162180000004227483840692186540_">
			<circle class="st2" cx="651.03" cy="187.88" r="3.12"/>
		</g>
	</g>
</g>
</svg>
