  0
SECTION
  2
HEADER
  9
$ACADVER
  1
AC1032
  9
$ACADMAINTVER
 90
      228
  9
$DWGCODEPAGE
  3
ANSI_1252
  9
$REQUIREDVERSIONS
160
                 0
  9
$INSBASE
 10
0.0
 20
0.0
 30
0.0
  9
$EXTMIN
 10
1.000000000000000E+20
 20
1.000000000000000E+20
 30
1.000000000000000E+20
  9
$EXTMAX
 10
-1.000000000000000E+20
 20
-1.000000000000000E+20
 30
-1.000000000000000E+20
  9
$LIMMIN
 10
0.0
 20
0.0
  9
$LIMMAX
 10
12.0
 20
9.0
  9
$ORTHOMODE
 70
     0
  9
$REGENMODE
 70
     1
  9
$FILLMODE
 70
     1
  9
$QTEXTMODE
 70
     0
  9
$MIRRTEXT
 70
     0
  9
$LTSCALE
 40
1.0
  9
$ATTMODE
 70
     1
  9
$TEXTSIZE
 40
0.2
  9
$TRACEWID
 40
0.05
  9
$TEXTSTYLE
  7
Standard
  9
$CLAYER
  8
0
  9
$CELTYPE
  6
ByLayer
  9
$CECOLOR
 62
   256
  9
$CELTSCALE
 40
1.0
  9
$DISPSILH
 70
     0
  9
$DIMSCALE
 40
1.0
  9
$DIMASZ
 40
0.18
  9
$DIMEXO
 40
0.0625
  9
$DIMDLI
 40
0.38
  9
$DIMRND
 40
0.0
  9
$DIMDLE
 40
0.0
  9
$DIMEXE
 40
0.18
  9
$DIMTP
 40
0.0
  9
$DIMTM
 40
0.0
  9
$DIMTXT
 40
0.18
  9
$DIMCEN
 40
0.09
  9
$DIMTSZ
 40
0.0
  9
$DIMTOL
 70
     0
  9
$DIMLIM
 70
     0
  9
$DIMTIH
 70
     1
  9
$DIMTOH
 70
     1
  9
$DIMSE1
 70
     0
  9
$DIMSE2
 70
     0
  9
$DIMTAD
 70
     0
  9
$DIMZIN
 70
     0
  9
$DIMBLK
  1

  9
$DIMASO
 70
     1
  9
$DIMSHO
 70
     1
  9
$DIMPOST
  1

  9
$DIMAPOST
  1

  9
$DIMALT
 70
     0
  9
$DIMALTD
 70
     2
  9
$DIMALTF
 40
25.4
  9
$DIMLFAC
 40
1.0
  9
$DIMTOFL
 70
     0
  9
$DIMTVP
 40
0.0
  9
$DIMTIX
 70
     0
  9
$DIMSOXD
 70
     0
  9
$DIMSAH
 70
     0
  9
$DIMBLK1
  1

  9
$DIMBLK2
  1

  9
$DIMSTYLE
  2
Standard
  9
$DIMCLRD
 70
     0
  9
$DIMCLRE
 70
     0
  9
$DIMCLRT
 70
     0
  9
$DIMTFAC
 40
1.0
  9
$DIMGAP
 40
0.09
  9
$DIMJUST
 70
     0
  9
$DIMSD1
 70
     0
  9
$DIMSD2
 70
     0
  9
$DIMTOLJ
 70
     1
  9
$DIMTZIN
 70
     0
  9
$DIMALTZ
 70
     0
  9
$DIMALTTZ
 70
     0
  9
$DIMUPT
 70
     0
  9
$DIMDEC
 70
     4
  9
$DIMTDEC
 70
     4
  9
$DIMALTU
 70
     2
  9
$DIMALTTD
 70
     2
  9
$DIMTXSTY
  7
Standard
  9
$DIMAUNIT
 70
     0
  9
$DIMADEC
 70
     0
  9
$DIMALTRND
 40
0.0
  9
$DIMAZIN
 70
     0
  9
$DIMDSEP
 70
    46
  9
$DIMATFIT
 70
     3
  9
$DIMFRAC
 70
     0
  9
$DIMLDRBLK
  1

  9
$DIMLUNIT
 70
     2
  9
$DIMLWD
 70
    -2
  9
$DIMLWE
 70
    -2
  9
$DIMTMOVE
 70
     0
  9
$DIMFXL
 40
1.0
  9
$DIMFXLON
 70
     0
  9
$DIMJOGANG
 40
0.7853981633974483
  9
$DIMTFILL
 70
     0
  9
$DIMTFILLCLR
 70
     0
  9
$DIMARCSYM
 70
     0
  9
$DIMLTYPE
  6

  9
$DIMLTEX1
  6

  9
$DIMLTEX2
  6

  9
$DIMTXTDIRECTION
 70
     0
  9
$LUNITS
 70
     2
  9
$LUPREC
 70
     4
  9
$SKETCHINC
 40
0.1
  9
$FILLETRAD
 40
0.0
  9
$AUNITS
 70
     0
  9
$AUPREC
 70
     0
  9
$MENU
  1
.
  9
$ELEVATION
 40
0.0
  9
$PELEVATION
 40
0.0
  9
$THICKNESS
 40
0.0
  9
$LIMCHECK
 70
     0
  9
$CHAMFERA
 40
0.0
  9
$CHAMFERB
 40
0.0
  9
$CHAMFERC
 40
0.0
  9
$CHAMFERD
 40
0.0
  9
$SKPOLY
 70
     0
  9
$TDCREATE
 40
2460015.687673611
  9
$TDUCREATE
 40
2460015.896006945
  9
$TDUPDATE
 40
2460015.687673611
  9
$TDUUPDATE
 40
2460015.896006945
  9
$TDINDWG
 40
0.0000000000
  9
$TDUSRTIMER
 40
0.0000000000
  9
$USRTIMER
 70
     1
  9
$ANGBASE
 50
0.0
  9
$ANGDIR
 70
     0
  9
$PDMODE
 70
     0
  9
$PDSIZE
 40
0.0
  9
$PLINEWID
 40
0.0
  9
$SPLFRAME
 70
     0
  9
$SPLINETYPE
 70
     6
  9
$SPLINESEGS
 70
     8
  9
$HANDSEED
  5
D7
  9
$SURFTAB1
 70
     6
  9
$SURFTAB2
 70
     6
  9
$SURFTYPE
 70
     6
  9
$SURFU
 70
     6
  9
$SURFV
 70
     6
  9
$UCSBASE
  2

  9
$UCSNAME
  2

  9
$UCSORG
 10
0.0
 20
0.0
 30
0.0
  9
$UCSXDIR
 10
1.0
 20
0.0
 30
0.0
  9
$UCSYDIR
 10
0.0
 20
1.0
 30
0.0
  9
$UCSORTHOREF
  2

  9
$UCSORTHOVIEW
 70
     0
  9
$UCSORGTOP
 10
0.0
 20
0.0
 30
0.0
  9
$UCSORGBOTTOM
 10
0.0
 20
0.0
 30
0.0
  9
$UCSORGLEFT
 10
0.0
 20
0.0
 30
0.0
  9
$UCSORGRIGHT
 10
0.0
 20
0.0
 30
0.0
  9
$UCSORGFRONT
 10
0.0
 20
0.0
 30
0.0
  9
$UCSORGBACK
 10
0.0
 20
0.0
 30
0.0
  9
$PUCSBASE
  2

  9
$PUCSNAME
  2

  9
$PUCSORG
 10
0.0
 20
0.0
 30
0.0
  9
$PUCSXDIR
 10
1.0
 20
0.0
 30
0.0
  9
$PUCSYDIR
 10
0.0
 20
1.0
 30
0.0
  9
$PUCSORTHOREF
  2

  9
$PUCSORTHOVIEW
 70
     0
  9
$PUCSORGTOP
 10
0.0
 20
0.0
 30
0.0
  9
$PUCSORGBOTTOM
 10
0.0
 20
0.0
 30
0.0
  9
$PUCSORGLEFT
 10
0.0
 20
0.0
 30
0.0
  9
$PUCSORGRIGHT
 10
0.0
 20
0.0
 30
0.0
  9
$PUCSORGFRONT
 10
0.0
 20
0.0
 30
0.0
  9
$PUCSORGBACK
 10
0.0
 20
0.0
 30
0.0
  9
$USERI1
 70
     0
  9
$USERI2
 70
     0
  9
$USERI3
 70
     0
  9
$USERI4
 70
     0
  9
$USERI5
 70
     0
  9
$USERR1
 40
0.0
  9
$USERR2
 40
0.0
  9
$USERR3
 40
0.0
  9
$USERR4
 40
0.0
  9
$USERR5
 40
0.0
  9
$WORLDVIEW
 70
     1
  9
$SHADEDGE
 70
     3
  9
$SHADEDIF
 70
    70
  9
$TILEMODE
 70
     1
  9
$MAXACTVP
 70
    64
  9
$PINSBASE
 10
0.0
 20
0.0
 30
0.0
  9
$PLIMCHECK
 70
     0
  9
$PEXTMIN
 10
1.000000000000000E+20
 20
1.000000000000000E+20
 30
1.000000000000000E+20
  9
$PEXTMAX
 10
-1.000000000000000E+20
 20
-1.000000000000000E+20
 30
-1.000000000000000E+20
  9
$PLIMMIN
 10
0.0
 20
0.0
  9
$PLIMMAX
 10
12.0
 20
9.0
  9
$UNITMODE
 70
     0
  9
$VISRETAIN
 70
     1
  9
$PLINEGEN
 70
     0
  9
$PSLTSCALE
 70
     1
  9
$TREEDEPTH
 70
  3020
  9
$CMLSTYLE
  2
Standard
  9
$CMLJUST
 70
     0
  9
$CMLSCALE
 40
1.0
  9
$PROXYGRAPHICS
 70
     1
  9
$MEASUREMENT
 70
     0
  9
$CELWEIGHT
370
    -1
  9
$ENDCAPS
280
     0
  9
$JOINSTYLE
280
     0
  9
$LWDISPLAY
290
     1
  9
$INSUNITS
 70
     4
  9
$HYPERLINKBASE
  1

  9
$STYLESHEET
  1

  9
$XEDIT
290
     1
  9
$CEPSNTYPE
380
     0
  9
$PSTYLEMODE
290
     1
  9
$FINGERPRINTGUID
  2
{5EE2BE65-8869-0D44-99F4-CACA4BAF0BC5}
  9
$VERSIONGUID
  2
{ECB76D3B-3319-8045-8BD2-68F29ADCB61A}
  9
$EXTNAMES
290
     1
  9
$PSVPSCALE
 40
0.0
  9
$OLESTARTUP
290
     0
  9
$SORTENTS
280
   127
  9
$INDEXCTL
280
     0
  9
$HIDETEXT
280
     1
  9
$XCLIPFRAME
280
     2
  9
$HALOGAP
280
     0
  9
$OBSCOLOR
 70
   257
  9
$OBSLTYPE
280
     0
  9
$INTERSECTIONDISPLAY
280
     0
  9
$INTERSECTIONCOLOR
 70
   257
  9
$DIMASSOC
280
     2
  9
$PROJECTNAME
  1

  9
$CAMERADISPLAY
290
     0
  9
$LENSLENGTH
 40
50.0
  9
$CAMERAHEIGHT
 40
0.0
  9
$STEPSPERSEC
 40
2.0
  9
$STEPSIZE
 40
6.0
  9
$3DDWFPREC
 40
2.0
  9
$PSOLWIDTH
 40
0.25
  9
$PSOLHEIGHT
 40
4.0
  9
$LOFTANG1
 40
1.570796326794896
  9
$LOFTANG2
 40
1.570796326794896
  9
$LOFTMAG1
 40
0.0
  9
$LOFTMAG2
 40
0.0
  9
$LOFTPARAM
 70
     7
  9
$LOFTNORMALS
280
     1
  9
$LATITUDE
 40
37.795
  9
$LONGITUDE
 40
-122.394
  9
$NORTHDIRECTION
 40
0.0
  9
$TIMEZONE
 70
 -8000
  9
$LIGHTGLYPHDISPLAY
280
     1
  9
$TILEMODELIGHTSYNCH
280
     1
  9
$CMATERIAL
347
11
  9
$SOLIDHIST
280
     0
  9
$SHOWHIST
280
     1
  9
$DWFFRAME
280
     2
  9
$DGNFRAME
280
     0
  9
$REALWORLDSCALE
290
     1
  9
$INTERFERECOLOR
 62
     1
  9
$INTERFEREOBJVS
345
33
  9
$INTERFEREVPVS
346
30
  9
$CSHADOW
280
     0
  9
$SHADOWPLANELOCATION
 40
0.0
  0
ENDSEC
  0
SECTION
  2
CLASSES
  0
CLASS
  1
ACDBDICTIONARYWDFLT
  2
AcDbDictionaryWithDefault
  3
ObjectDBX Classes
 90
        0
 91
        1
280
     0
281
     0
  0
CLASS
  1
MATERIAL
  2
AcDbMaterial
  3
ObjectDBX Classes
 90
     1153
 91
        3
280
     0
281
     0
  0
CLASS
  1
VISUALSTYLE
  2
AcDbVisualStyle
  3
ObjectDBX Classes
 90
     4095
 91
       24
280
     0
281
     0
  0
CLASS
  1
SCALE
  2
AcDbScale
  3
ObjectDBX Classes
 90
     1153
 91
       17
280
     0
281
     0
  0
CLASS
  1
TABLESTYLE
  2
AcDbTableStyle
  3
ObjectDBX Classes
 90
     4095
 91
        1
280
     0
281
     0
  0
CLASS
  1
MLEADERSTYLE
  2
AcDbMLeaderStyle
  3
ACDB_MLEADERSTYLE_CLASS
 90
     4095
 91
        1
280
     0
281
     0
  0
CLASS
  1
ACDBSECTIONVIEWSTYLE
  2
AcDbSectionViewStyle
  3
ObjectDBX Classes
 90
     1025
 91
        1
280
     0
281
     0
  0
CLASS
  1
ACDBDETAILVIEWSTYLE
  2
AcDbDetailViewStyle
  3
ObjectDBX Classes
 90
     1025
 91
        1
280
     0
281
     0
  0
CLASS
  1
DICTIONARYVAR
  2
AcDbDictionaryVar
  3
ObjectDBX Classes
 90
        0
 91
        5
280
     0
281
     0
  0
CLASS
  1
CELLSTYLEMAP
  2
AcDbCellStyleMap
  3
ObjectDBX Classes
 90
     1152
 91
        1
280
     0
281
     0
  0
ENDSEC
  0
SECTION
  2
TABLES
  0
TABLE
  2
VPORT
  5
8
330
0
100
AcDbSymbolTable
 70
     1
  0
VPORT
  5
57
330
8
100
AcDbSymbolTableRecord
100
AcDbViewportTableRecord
  2
*Active
 70
     0
 10
0.0
 20
0.0
 11
1.0
 21
1.0
 12
0.0
 22
0.0
 13
0.0
 23
0.0
 14
1.0
 24
1.0
 15
0.0
 25
0.0
 16
0.0
 26
0.0
 36
1.0
 17
139.699999965075
 27
-107.9499999730125
 37
0.0
 40
220.2179999449455
 41
1.294117647058823
 42
50.0
 43
0.0
 44
0.0
 50
0.0
 51
0.0
 71
     0
 72
   100
 73
     1
 74
     1
 75
     0
 76
     0
 77
     0
 78
     0
281
     0
 65
     1
110
0.0
120
0.0
130
0.0
111
1.0
121
0.0
131
0.0
112
0.0
122
1.0
132
0.0
 79
     0
146
0.0
 60
     3
 61
     5
292
     1
282
     1
141
0.0
142
0.0
 63
   250
421
  3355443
  0
ENDTAB
  0
TABLE
  2
LTYPE
  5
5
330
0
100
AcDbSymbolTable
 70
     1
  0
LTYPE
  5
5B
330
5
100
AcDbSymbolTableRecord
100
AcDbLinetypeTableRecord
  2
ByBlock
 70
     0
  3

 72
    65
 73
     0
 40
0.0
  0
LTYPE
  5
5C
330
5
100
AcDbSymbolTableRecord
100
AcDbLinetypeTableRecord
  2
ByLayer
 70
     0
  3

 72
    65
 73
     0
 40
0.0
  0
LTYPE
  5
5D
330
5
100
AcDbSymbolTableRecord
100
AcDbLinetypeTableRecord
  2
Continuous
 70
     0
  3
Solid line
 72
    65
 73
     0
 40
0.0
  0
ENDTAB
  0
TABLE
  2
LAYER
  5
2
330
0
100
AcDbSymbolTable
 70
     2
  0
LAYER
  5
54
330
2
100
AcDbSymbolTableRecord
100
AcDbLayerTableRecord
  2
0
 70
     0
 62
     7
  6
Continuous
370
    -3
390
F
347
21
348
0
  0
LAYER
  5
78
330
2
100
AcDbSymbolTableRecord
100
AcDbLayerTableRecord
  2
preimum
 70
     0
 62
     7
  6
Continuous
370
     0
390
F
347
21
348
0
  0
ENDTAB
  0
TABLE
  2
STYLE
  5
3
330
0
100
AcDbSymbolTable
 70
     2
  0
STYLE
  5
55
330
3
100
AcDbSymbolTableRecord
100
AcDbTextStyleTableRecord
  2
Standard
 70
     0
 40
0.0
 41
1.0
 50
0.0
 71
     0
 42
0.2
  3
txt
  4

  0
STYLE
  5
5A
330
3
100
AcDbSymbolTableRecord
100
AcDbTextStyleTableRecord
  2
Annotative
 70
     0
 40
0.0
 41
1.0
 50
0.0
 71
     0
 42
0.2
  3
txt
  4

1001
AcadAnnotative
1000
AnnotativeData
1002
{
1070
     1
1070
     1
1002
}
  0
ENDTAB
  0
TABLE
  2
VIEW
  5
6
330
0
100
AcDbSymbolTable
 70
     0
  0
ENDTAB
  0
TABLE
  2
UCS
  5
7
330
0
100
AcDbSymbolTable
 70
     0
  0
ENDTAB
  0
TABLE
  2
APPID
  5
9
330
0
100
AcDbSymbolTable
 70
     2
  0
APPID
  5
56
330
9
100
AcDbSymbolTableRecord
100
AcDbRegAppTableRecord
  2
ACAD
 70
     0
  0
APPID
  5
5E
330
9
100
AcDbSymbolTableRecord
100
AcDbRegAppTableRecord
  2
AcadAnnotative
 70
     0
  0
ENDTAB
  0
TABLE
  2
DIMSTYLE
  5
A
330
0
100
AcDbSymbolTable
 70
     2
100
AcDbDimStyleTable
 71
     0
  0
DIMSTYLE
105
58
330
A
100
AcDbSymbolTableRecord
100
AcDbDimStyleTableRecord
  2
Standard
 70
     0
340
55
  0
DIMSTYLE
105
59
330
A
100
AcDbSymbolTableRecord
100
AcDbDimStyleTableRecord
  2
Annotative
 70
     0
340
55
1001
AcadAnnotative
1000
AnnotativeData
1002
{
1070
     1
1070
     1
1002
}
  0
ENDTAB
  0
TABLE
  2
BLOCK_RECORD
  5
1
330
0
100
AcDbSymbolTable
 70
     7
  0
BLOCK_RECORD
  5
70
330
1
100
AcDbSymbolTableRecord
100
AcDbBlockTableRecord
  2
*Model_Space
340
73
 70
     0
280
     1
281
     0
  0
BLOCK_RECORD
  5
6C
330
1
100
AcDbSymbolTableRecord
100
AcDbBlockTableRecord
  2
*Paper_Space
340
6F
 70
     0
280
     1
281
     0
  0
BLOCK_RECORD
  5
74
330
1
100
AcDbSymbolTableRecord
100
AcDbBlockTableRecord
  2
*Paper_Space0
340
77
 70
     0
280
     1
281
     0
  0
BLOCK_RECORD
  5
89
330
1
100
AcDbSymbolTableRecord
100
AcDbBlockTableRecord
  2
Block_0
340
0
102
{BLKREFS
331
8A
102
}
 70
     0
280
     1
281
     0
  0
BLOCK_RECORD
  5
8F
330
1
100
AcDbSymbolTableRecord
100
AcDbBlockTableRecord
  2
Block_1
340
0
102
{BLKREFS
331
90
102
}
 70
     0
280
     1
281
     0
  0
BLOCK_RECORD
  5
B5
330
1
100
AcDbSymbolTableRecord
100
AcDbBlockTableRecord
  2
Block_2
340
0
102
{BLKREFS
331
B6
102
}
 70
     0
280
     1
281
     0
  0
BLOCK_RECORD
  5
B9
330
1
100
AcDbSymbolTableRecord
100
AcDbBlockTableRecord
  2
Block_3
340
0
102
{BLKREFS
331
BA
102
}
 70
     0
280
     1
281
     0
  0
BLOCK_RECORD
  5
BF
330
1
100
AcDbSymbolTableRecord
100
AcDbBlockTableRecord
  2
Block_4
340
0
102
{BLKREFS
331
C0
102
}
 70
     0
280
     1
281
     0
  0
BLOCK_RECORD
  5
C5
330
1
100
AcDbSymbolTableRecord
100
AcDbBlockTableRecord
  2
Block_5
340
0
102
{BLKREFS
331
C6
102
}
 70
     0
280
     1
281
     0
  0
ENDTAB
  0
ENDSEC
  0
SECTION
  2
BLOCKS
  0
BLOCK
  5
71
330
70
100
AcDbEntity
  8
0
100
AcDbBlockBegin
  2
*Model_Space
 70
     0
 10
0.0
 20
0.0
 30
0.0
  3
*Model_Space
  1

  0
ENDBLK
  5
72
330
70
100
AcDbEntity
  8
0
100
AcDbBlockEnd
  0
BLOCK
  5
6D
330
6C
100
AcDbEntity
 67
     1
  8
0
100
AcDbBlockBegin
  2
*Paper_Space
 70
     0
 10
0.0
 20
0.0
 30
0.0
  3
*Paper_Space
  1

  0
ENDBLK
  5
6E
330
6C
100
AcDbEntity
 67
     1
  8
0
100
AcDbBlockEnd
  0
BLOCK
  5
75
330
74
100
AcDbEntity
 67
     1
  8
0
100
AcDbBlockBegin
  2
*Paper_Space0
 70
     0
 10
0.0
 20
0.0
 30
0.0
  3
*Paper_Space0
  1

  0
ENDBLK
  5
76
330
74
100
AcDbEntity
 67
     1
  8
0
100
AcDbBlockEnd
  0
BLOCK
  5
8B
330
89
100
AcDbEntity
  8
0
100
AcDbBlockBegin
  2
Block_0
 70
     0
 10
0.0
 20
0.0
 30
0.0
  3
Block_0
  1

  0
LWPOLYLINE
  5
8D
330
89
100
AcDbEntity
  8
preimum
 62
    18
420
    65793
370
     5
100
AcDbPolyline
 90
        1
 70
     0
 43
0.0
 10
70.46792927531171
 20
-82.80326631665763
  0
SPLINE
  5
8E
330
89
100
AcDbEntity
  8
preimum
 62
    18
420
    65793
370
     5
100
AcDbSpline
210
0.0
220
0.0
230
1.0
 70
     8
 71
     3
 72
    32
 73
    28
 74
     0
 42
0.0000000001
 43
0.0000000001
 40
0.0
 40
0.0
 40
0.0
 40
0.0
 40
1.0
 40
1.0
 40
1.0
 40
2.0
 40
2.0
 40
2.0
 40
3.0
 40
3.0
 40
3.0
 40
4.0
 40
4.0
 40
4.0
 40
5.0
 40
5.0
 40
5.0
 40
6.0
 40
6.0
 40
6.0
 40
7.0
 40
7.0
 40
7.0
 40
8.0
 40
8.0
 40
8.0
 40
9.0
 40
9.0
 40
9.0
 40
9.0
 10
70.46792927531171
 20
-82.80326631665763
 30
0.0
 10
70.46792927531171
 20
-82.80326631665763
 30
0.0
 10
70.46792927531171
 20
-86.30305092716186
 30
0.0
 10
70.46792927531171
 20
-86.30305092716186
 30
0.0
 10
70.46792927531171
 20
-86.57919330200803
 30
0.0
 10
70.244071650283
 20
-86.80305092703674
 30
0.0
 10
69.9679292754365
 20
-86.80305092703674
 30
0.0
 10
69.9679292754365
 20
-86.80305092703674
 30
0.0
 10
56.96792927868625
 20
-86.80305092703674
 30
0.0
 10
56.96792927868625
 20
-86.80305092703674
 30
0.0
 10
56.69178690383976
 20
-86.80305092703674
 30
0.0
 10
56.46792927881168
 20
-86.57919330200803
 30
0.0
 10
56.46792927881168
 20
-86.30305092716186
 30
0.0
 10
56.46792927881168
 20
-86.30305092716186
 30
0.0
 10
56.46792927881168
 20
-73.30305093041194
 30
0.0
 10
56.46792927881168
 20
-73.30305093041194
 30
0.0
 10
56.46792927881168
 20
-73.02690855556576
 30
0.0
 10
56.69178690383976
 20
-72.80305093053673
 30
0.0
 10
56.96792927868625
 20
-72.80305093053673
 30
0.0
 10
56.96792927868625
 20
-72.80305093053673
 30
0.0
 10
69.9679292754365
 20
-72.80305093053673
 30
0.0
 10
69.9679292754365
 20
-72.80305093053673
 30
0.0
 10
70.244071650283
 20
-72.80305093053673
 30
0.0
 10
70.46792927531171
 20
-73.02690855556576
 30
0.0
 10
70.46792927531171
 20
-73.30305093041194
 30
0.0
 10
70.46792927531171
 20
-73.30305093041194
 30
0.0
 10
70.46792927531171
 20
-76.80283840557748
 30
0.0
 10
70.46792927531171
 20
-76.80283840557748
 30
0.0
  0
ENDBLK
  5
8C
330
89
100
AcDbEntity
  8
0
100
AcDbBlockEnd
  0
BLOCK
  5
91
330
8F
100
AcDbEntity
  8
0
100
AcDbBlockBegin
  2
Block_1
 70
     0
 10
0.0
 20
0.0
 30
0.0
  3
Block_1
  1

  0
LWPOLYLINE
  5
93
330
8F
100
AcDbEntity
  8
preimum
 62
    18
420
    65793
370
     5
100
AcDbPolyline
 90
        1
 70
     0
 43
0.0
 10
75.51792927404919
 20
-76.80283554091682
  0
SPLINE
  5
94
330
8F
100
AcDbEntity
  8
preimum
 62
    18
420
    65793
370
     5
100
AcDbSpline
210
0.0
220
0.0
230
1.0
 70
     8
 71
     3
 72
    32
 73
    28
 74
     0
 42
0.0000000001
 43
0.0000000001
 40
0.0
 40
0.0
 40
0.0
 40
0.0
 40
1.0
 40
1.0
 40
1.0
 40
2.0
 40
2.0
 40
2.0
 40
3.0
 40
3.0
 40
3.0
 40
4.0
 40
4.0
 40
4.0
 40
5.0
 40
5.0
 40
5.0
 40
6.0
 40
6.0
 40
6.0
 40
7.0
 40
7.0
 40
7.0
 40
8.0
 40
8.0
 40
8.0
 40
9.0
 40
9.0
 40
9.0
 40
9.0
 10
75.51792927404919
 20
-76.80283554091682
 30
0.0
 10
75.51792927404919
 20
-76.80283554091682
 30
0.0
 10
75.51792927404919
 20
-73.30305093041194
 30
0.0
 10
75.51792927404919
 20
-73.30305093041194
 30
0.0
 10
75.51792927404919
 20
-73.02690855556576
 30
0.0
 10
75.74178689907789
 20
-72.80305093053673
 30
0.0
 10
76.01792927392375
 20
-72.80305093053673
 30
0.0
 10
76.01792927392375
 20
-72.80305093053673
 30
0.0
 10
89.017929270674
 20
-72.80305093053673
 30
0.0
 10
89.017929270674
 20
-72.80305093053673
 30
0.0
 10
89.29407164552051
 20
-72.80305093053673
 30
0.0
 10
89.51792927054922
 20
-73.02690855556576
 30
0.0
 10
89.51792927054922
 20
-73.30305093041194
 30
0.0
 10
89.51792927054922
 20
-73.30305093041194
 30
0.0
 10
89.51792927054922
 20
-86.30305092716186
 30
0.0
 10
89.51792927054922
 20
-86.30305092716186
 30
0.0
 10
89.51792927054922
 20
-86.57919330200803
 30
0.0
 10
89.29407164552051
 20
-86.80305092703674
 30
0.0
 10
89.017929270674
 20
-86.80305092703674
 30
0.0
 10
89.017929270674
 20
-86.80305092703674
 30
0.0
 10
76.01792927392375
 20
-86.80305092703674
 30
0.0
 10
76.01792927392375
 20
-86.80305092703674
 30
0.0
 10
75.74178689907789
 20
-86.80305092703674
 30
0.0
 10
75.51792927404919
 20
-86.57919330200803
 30
0.0
 10
75.51792927404919
 20
-86.30305092716186
 30
0.0
 10
75.51792927404919
 20
-86.30305092716186
 30
0.0
 10
75.51792927404919
 20
-82.80326674268836
 30
0.0
 10
75.51792927404919
 20
-82.80326674268836
 30
0.0
  0
ENDBLK
  5
92
330
8F
100
AcDbEntity
  8
0
100
AcDbBlockEnd
  0
BLOCK
  5
B7
330
B5
100
AcDbEntity
  8
0
100
AcDbBlockBegin
  2
Block_2
 70
     0
 10
0.0
 20
0.0
 30
0.0
  3
Block_2
  1

  0
INSERT
  5
BA
330
B5
100
AcDbEntity
  8
preimum
100
AcDbBlockReference
  2
Block_3
 10
0.0
 20
0.0
 30
0.0
  0
INSERT
  5
C0
330
B5
100
AcDbEntity
  8
preimum
100
AcDbBlockReference
  2
Block_4
 10
0.0
 20
0.0
 30
0.0
  0
ENDBLK
  5
B8
330
B5
100
AcDbEntity
  8
0
100
AcDbBlockEnd
  0
BLOCK
  5
BB
330
B9
100
AcDbEntity
  8
0
100
AcDbBlockBegin
  2
Block_3
 70
     0
 10
0.0
 20
0.0
 30
0.0
  3
Block_3
  1

  0
CIRCLE
  5
BD
330
B9
100
AcDbEntity
  8
preimum
 62
    18
420
    65793
370
     5
100
AcDbCircle
 10
131.6680425243072
 20
-73.27666178920344
 30
0.0
 40
0.987888796122171
  0
CIRCLE
  5
BE
330
B9
100
AcDbEntity
  8
preimum
 62
    18
420
    65793
370
     5
100
AcDbCircle
 10
147.6680425203074
 20
-73.27666178920344
 30
0.0
 40
0.9877755318265027
  0
ENDBLK
  5
BC
330
B9
100
AcDbEntity
  8
0
100
AcDbBlockEnd
  0
BLOCK
  5
C1
330
BF
100
AcDbEntity
  8
0
100
AcDbBlockBegin
  2
Block_4
 70
     0
 10
0.0
 20
0.0
 30
0.0
  3
Block_4
  1

  0
CIRCLE
  5
C3
330
BF
100
AcDbEntity
  8
preimum
 62
    18
420
    65793
370
     5
100
AcDbCircle
 10
131.6680425243072
 20
-105.3794390543028
 30
0.0
 40
0.987888796122171
  0
CIRCLE
  5
C4
330
BF
100
AcDbEntity
  8
preimum
 62
    18
420
    65793
370
     5
100
AcDbCircle
 10
147.6680425203074
 20
-105.3794390543028
 30
0.0
 40
0.9877755318265027
  0
ENDBLK
  5
C2
330
BF
100
AcDbEntity
  8
0
100
AcDbBlockEnd
  0
BLOCK
  5
C7
330
C5
100
AcDbEntity
  8
0
100
AcDbBlockBegin
  2
Block_5
 70
     0
 10
0.0
 20
0.0
 30
0.0
  3
Block_5
  1

  0
SPLINE
  5
C9
330
C5
100
AcDbEntity
  8
preimum
 62
    18
420
    65793
370
     5
100
AcDbSpline
210
0.0
220
0.0
230
1.0
 70
     9
 71
     3
 72
    89
 73
    85
 74
     0
 42
0.0000000001
 43
0.0000000001
 40
0.0
 40
0.0
 40
0.0
 40
0.0
 40
1.0
 40
1.0
 40
1.0
 40
2.0
 40
2.0
 40
2.0
 40
3.0
 40
3.0
 40
3.0
 40
4.0
 40
4.0
 40
4.0
 40
5.0
 40
5.0
 40
5.0
 40
6.0
 40
6.0
 40
6.0
 40
7.0
 40
7.0
 40
7.0
 40
8.0
 40
8.0
 40
8.0
 40
9.0
 40
9.0
 40
9.0
 40
10.0
 40
10.0
 40
10.0
 40
11.0
 40
11.0
 40
11.0
 40
12.0
 40
12.0
 40
12.0
 40
13.0
 40
13.0
 40
13.0
 40
14.0
 40
14.0
 40
14.0
 40
15.0
 40
15.0
 40
15.0
 40
16.0
 40
16.0
 40
16.0
 40
17.0
 40
17.0
 40
17.0
 40
18.0
 40
18.0
 40
18.0
 40
19.0
 40
19.0
 40
19.0
 40
20.0
 40
20.0
 40
20.0
 40
21.0
 40
21.0
 40
21.0
 40
22.0
 40
22.0
 40
22.0
 40
23.0
 40
23.0
 40
23.0
 40
24.0
 40
24.0
 40
24.0
 40
25.0
 40
25.0
 40
25.0
 40
26.0
 40
26.0
 40
26.0
 40
27.0
 40
27.0
 40
27.0
 40
28.0
 40
28.0
 40
28.0
 40
28.0
 10
45.31082301711896
 20
-67.15312720533997
 30
0.0
 10
45.72008621601097
 20
-65.56805765181467
 30
0.0
 10
46.9578597272679
 20
-64.33028414055773
 30
0.0
 10
48.54292928079417
 20
-63.92102094166509
 30
0.0
 10
50.94929262345889
 20
-63.29970059826127
 30
0.0
 10
53.4037152005024
 20
-64.74676386267558
 30
0.0
 10
54.02503554390686
 20
-67.15312720533997
 30
0.0
 10
54.19603490042387
 20
-67.81540486534341
 30
0.0
 10
54.79340687230334
 20
-68.27812720505935
 30
0.0
 10
55.4774042983714
 20
-68.27812720505935
 30
0.0
 10
55.4774042983714
 20
-68.27812720505935
 30
0.0
 10
223.8584542176546
 20
-68.27812720505935
 30
0.0
 10
223.8584542176546
 20
-68.27812720505935
 30
0.0
 10
224.5424516437227
 20
-68.27812720505935
 30
0.0
 10
225.1398236156011
 20
-67.81540486534341
 30
0.0
 10
225.3108229721191
 20
-67.15312720533997
 30
0.0
 10
225.7200861710118
 20
-65.56805765181467
 30
0.0
 10
226.9578596822687
 20
-64.33028414055773
 30
0.0
 10
228.5429292357946
 20
-63.92102094166509
 30
0.0
 10
230.949292578459
 20
-63.29970059826063
 30
0.0
 10
233.4037151555026
 20
-64.74676386267558
 30
0.0
 10
234.0250354989076
 20
-67.15312720533997
 30
0.0
 10
234.1960348554243
 20
-67.81540486534341
 30
0.0
 10
234.7934068273028
 20
-68.27812720505935
 30
0.0
 10
235.4774042533709
 20
-68.27812720505935
 30
0.0
 10
235.4774042533709
 20
-68.27812720505935
 30
0.0
 10
263.9929292269323
 20
-68.27812720505935
 30
0.0
 10
263.9929292269323
 20
-68.27812720505935
 30
0.0
 10
264.8213563514698
 20
-68.27812720505935
 30
0.0
 10
265.492929226556
 20
-68.94970008014485
 30
0.0
 10
265.492929226556
 20
-69.77812720468434
 30
0.0
 10
265.492929226556
 20
-69.77812720468434
 30
0.0
 10
265.492929226556
 20
-146.9781271853841
 30
0.0
 10
265.492929226556
 20
-146.9781271853841
 30
0.0
 10
265.492929226556
 20
-147.8065543099229
 30
0.0
 10
264.8213563514698
 20
-148.4781271850091
 30
0.0
 10
263.9929292269323
 20
-148.4781271850091
 30
0.0
 10
263.9929292269323
 20
-148.4781271850091
 30
0.0
 10
235.4774042533709
 20
-148.4781271850091
 30
0.0
 10
235.4774042533709
 20
-148.4781271850091
 30
0.0
 10
234.7934068273028
 20
-148.4781271850091
 30
0.0
 10
234.1960348554243
 20
-148.940849524725
 30
0.0
 10
234.0250354989076
 20
-149.6031271847284
 30
0.0
 10
233.6157723000137
 20
-151.1881967382544
 30
0.0
 10
232.3779987887568
 20
-152.4259702495113
 30
0.0
 10
230.7929292352309
 20
-152.8352334484027
 30
0.0
 10
228.3865658925664
 20
-153.4565537918078
 30
0.0
 10
225.9321433155229
 20
-152.0094905273928
 30
0.0
 10
225.3108229721191
 20
-149.6031271847284
 30
0.0
 10
225.1398236156011
 20
-148.940849524725
 30
0.0
 10
224.5424516437227
 20
-148.4781271850091
 30
0.0
 10
223.8584542176546
 20
-148.4781271850091
 30
0.0
 10
223.8584542176546
 20
-148.4781271850091
 30
0.0
 10
55.4774042983714
 20
-148.4781271850091
 30
0.0
 10
55.4774042983714
 20
-148.4781271850091
 30
0.0
 10
54.79340687230334
 20
-148.4781271850091
 30
0.0
 10
54.19603490042419
 20
-148.940849524725
 30
0.0
 10
54.02503554390686
 20
-149.6031271847284
 30
0.0
 10
53.61577234501421
 20
-151.1881967382544
 30
0.0
 10
52.37799883375728
 20
-152.4259702495113
 30
0.0
 10
50.79292928023132
 20
-152.835233448404
 30
0.0
 10
48.38656593756693
 20
-153.4565537918078
 30
0.0
 10
45.93214336052278
 20
-152.0094905273928
 30
0.0
 10
45.31082301711896
 20
-149.6031271847284
 30
0.0
 10
45.13982366060163
 20
-148.940849524725
 30
0.0
 10
44.54245168872248
 20
-148.4781271850091
 30
0.0
 10
43.85845426265379
 20
-148.4781271850091
 30
0.0
 10
43.85845426265379
 20
-148.4781271850091
 30
0.0
 10
15.3429292890937
 20
-148.4781271850091
 30
0.0
 10
15.3429292890937
 20
-148.4781271850091
 30
0.0
 10
14.51450216455486
 20
-148.4781271850091
 30
0.0
 10
13.84292928946872
 20
-147.8065543099229
 30
0.0
 10
13.84292928946872
 20
-146.9781271853841
 30
0.0
 10
13.84292928946872
 20
-146.9781271853841
 30
0.0
 10
13.84292928946872
 20
-69.77812720468434
 30
0.0
 10
13.84292928946872
 20
-69.77812720468434
 30
0.0
 10
13.84292928946872
 20
-68.94970008014485
 30
0.0
 10
14.51450216455486
 20
-68.27812720505935
 30
0.0
 10
15.3429292890937
 20
-68.27812720505935
 30
0.0
 10
15.3429292890937
 20
-68.27812720505935
 30
0.0
 10
43.85845426265379
 20
-68.27812720505935
 30
0.0
 10
43.85845426265379
 20
-68.27812720505935
 30
0.0
 10
44.54245168872248
 20
-68.27812720505935
 30
0.0
 10
45.13982366060163
 20
-67.81540486534341
 30
0.0
 10
45.31082301711896
 20
-67.15312720533997
 30
0.0
  0
CIRCLE
  5
CA
330
C5
100
AcDbEntity
  8
preimum
 62
    18
420
    65793
370
     5
100
AcDbCircle
 10
49.66792928051259
 20
-66.278127205559
 30
0.0
 40
1.09999999972499
  0
CIRCLE
  5
CB
330
C5
100
AcDbEntity
  8
preimum
 62
    18
420
    65793
370
     5
100
AcDbCircle
 10
49.66792928051259
 20
-150.4781271845089
 30
0.0
 40
1.099999999724589
  0
CIRCLE
  5
CC
330
C5
100
AcDbEntity
  8
preimum
 62
    18
420
    65793
370
     5
100
AcDbCircle
 10
229.6679292355127
 20
-150.4781271845089
 30
0.0
 40
1.099999999724589
  0
CIRCLE
  5
CD
330
C5
100
AcDbEntity
  8
preimum
 62
    18
420
    65793
370
     5
100
AcDbCircle
 10
229.6679292355127
 20
-66.278127205559
 30
0.0
 40
1.09999999972499
  0
ENDBLK
  5
C8
330
C5
100
AcDbEntity
  8
0
100
AcDbBlockEnd
  0
ENDSEC
  0
SECTION
  2
ENTITIES
  0
SPLINE
  5
79
330
70
100
AcDbEntity
  8
preimum
 62
    18
420
    65793
370
     5
100
AcDbSpline
210
0.0
220
0.0
230
1.0
 70
     9
 71
     3
 72
    29
 73
    25
 74
     0
 42
0.0000000001
 43
0.0000000001
 40
0.0
 40
0.0
 40
0.0
 40
0.0
 40
1.0
 40
1.0
 40
1.0
 40
2.0
 40
2.0
 40
2.0
 40
3.0
 40
3.0
 40
3.0
 40
4.0
 40
4.0
 40
4.0
 40
5.0
 40
5.0
 40
5.0
 40
6.0
 40
6.0
 40
6.0
 40
7.0
 40
7.0
 40
7.0
 40
8.0
 40
8.0
 40
8.0
 40
8.0
 10
94.56792926928669
 20
-73.30305093041194
 30
0.0
 10
94.56792926928669
 20
-73.02690855556576
 30
0.0
 10
94.79178689431476
 20
-72.80305093053673
 30
0.0
 10
95.06792926916125
 20
-72.80305093053673
 30
0.0
 10
95.06792926916125
 20
-72.80305093053673
 30
0.0
 10
108.0679292659115
 20
-72.80305093053673
 30
0.0
 10
108.0679292659115
 20
-72.80305093053673
 30
0.0
 10
108.344071640758
 20
-72.80305093053673
 30
0.0
 10
108.5679292657867
 20
-73.02690855556576
 30
0.0
 10
108.5679292657867
 20
-73.30305093041194
 30
0.0
 10
108.5679292657867
 20
-73.30305093041194
 30
0.0
 10
108.5679292657867
 20
-86.30305092716186
 30
0.0
 10
108.5679292657867
 20
-86.30305092716186
 30
0.0
 10
108.5679292657867
 20
-86.57919330200803
 30
0.0
 10
108.344071640758
 20
-86.80305092703674
 30
0.0
 10
108.0679292659115
 20
-86.80305092703674
 30
0.0
 10
108.0679292659115
 20
-86.80305092703674
 30
0.0
 10
95.06792926916125
 20
-86.80305092703674
 30
0.0
 10
95.06792926916125
 20
-86.80305092703674
 30
0.0
 10
94.7917868943154
 20
-86.80305092703674
 30
0.0
 10
94.56792926928669
 20
-86.57919330200803
 30
0.0
 10
94.56792926928669
 20
-86.30305092716186
 30
0.0
 10
94.56792926928669
 20
-86.30305092716186
 30
0.0
 10
94.56792926928669
 20
-73.30305093041194
 30
0.0
 10
94.56792926928669
 20
-73.30305093041194
 30
0.0
  0
SPLINE
  5
7A
330
70
100
AcDbEntity
  8
preimum
 62
    18
420
    65793
370
     5
100
AcDbSpline
210
0.0
220
0.0
230
1.0
 70
     9
 71
     3
 72
    29
 73
    25
 74
     0
 42
0.0000000001
 43
0.0000000001
 40
0.0
 40
0.0
 40
0.0
 40
0.0
 40
1.0
 40
1.0
 40
1.0
 40
2.0
 40
2.0
 40
2.0
 40
3.0
 40
3.0
 40
3.0
 40
4.0
 40
4.0
 40
4.0
 40
5.0
 40
5.0
 40
5.0
 40
6.0
 40
6.0
 40
6.0
 40
7.0
 40
7.0
 40
7.0
 40
8.0
 40
8.0
 40
8.0
 40
8.0
 10
114.1179292643987
 20
-86.80305092703674
 30
0.0
 10
113.8417868895529
 20
-86.80305092703674
 30
0.0
 10
113.6179292645242
 20
-86.57919330200803
 30
0.0
 10
113.6179292645242
 20
-86.30305092716186
 30
0.0
 10
113.6179292645242
 20
-86.30305092716186
 30
0.0
 10
113.6179292645242
 20
-73.30305093041194
 30
0.0
 10
113.6179292645242
 20
-73.30305093041194
 30
0.0
 10
113.6179292645242
 20
-73.02690855556576
 30
0.0
 10
113.8417868895529
 20
-72.80305093053673
 30
0.0
 10
114.1179292643987
 20
-72.80305093053673
 30
0.0
 10
114.1179292643987
 20
-72.80305093053673
 30
0.0
 10
127.117929261149
 20
-72.80305093053673
 30
0.0
 10
127.117929261149
 20
-72.80305093053673
 30
0.0
 10
127.3940716359955
 20
-72.80305093053673
 30
0.0
 10
127.6179292610242
 20
-73.02690855556576
 30
0.0
 10
127.6179292610242
 20
-73.30305093041194
 30
0.0
 10
127.6179292610242
 20
-73.30305093041194
 30
0.0
 10
127.6179292610242
 20
-86.30305092716186
 30
0.0
 10
127.6179292610242
 20
-86.30305092716186
 30
0.0
 10
127.6179292610242
 20
-86.57919330200803
 30
0.0
 10
127.3940716359955
 20
-86.80305092703674
 30
0.0
 10
127.117929261149
 20
-86.80305092703674
 30
0.0
 10
127.117929261149
 20
-86.80305092703674
 30
0.0
 10
114.1179292643987
 20
-86.80305092703674
 30
0.0
 10
114.1179292643987
 20
-86.80305092703674
 30
0.0
  0
SPLINE
  5
7B
330
70
100
AcDbEntity
  8
preimum
 62
    18
420
    65793
370
     5
100
AcDbSpline
210
0.0
220
0.0
230
1.0
 70
     9
 71
     3
 72
    29
 73
    25
 74
     0
 42
0.0000000001
 43
0.0000000001
 40
0.0
 40
0.0
 40
0.0
 40
0.0
 40
1.0
 40
1.0
 40
1.0
 40
2.0
 40
2.0
 40
2.0
 40
3.0
 40
3.0
 40
3.0
 40
4.0
 40
4.0
 40
4.0
 40
5.0
 40
5.0
 40
5.0
 40
6.0
 40
6.0
 40
6.0
 40
7.0
 40
7.0
 40
7.0
 40
8.0
 40
8.0
 40
8.0
 40
8.0
 10
170.767929250236
 20
-73.30305093041194
 30
0.0
 10
170.767929250236
 20
-73.02690855556576
 30
0.0
 10
170.9917868752647
 20
-72.80305093053673
 30
0.0
 10
171.2679292501132
 20
-72.80305093053673
 30
0.0
 10
171.2679292501132
 20
-72.80305093053673
 30
0.0
 10
184.2679292468621
 20
-72.80305093053673
 30
0.0
 10
184.2679292468621
 20
-72.80305093053673
 30
0.0
 10
184.544071621708
 20
-72.80305093053673
 30
0.0
 10
184.7679292467367
 20
-73.02690855556576
 30
0.0
 10
184.7679292467367
 20
-73.30305093041194
 30
0.0
 10
184.7679292467367
 20
-73.30305093041194
 30
0.0
 10
184.7679292467367
 20
-86.30305092716186
 30
0.0
 10
184.7679292467367
 20
-86.30305092716186
 30
0.0
 10
184.7679292467367
 20
-86.57919330200803
 30
0.0
 10
184.544071621708
 20
-86.80305092703674
 30
0.0
 10
184.2679292468621
 20
-86.80305092703674
 30
0.0
 10
184.2679292468621
 20
-86.80305092703674
 30
0.0
 10
171.2679292501132
 20
-86.80305092703674
 30
0.0
 10
171.2679292501132
 20
-86.80305092703674
 30
0.0
 10
170.9917868752647
 20
-86.80305092703674
 30
0.0
 10
170.767929250236
 20
-86.57919330200803
 30
0.0
 10
170.767929250236
 20
-86.30305092716186
 30
0.0
 10
170.767929250236
 20
-86.30305092716186
 30
0.0
 10
170.767929250236
 20
-73.30305093041194
 30
0.0
 10
170.767929250236
 20
-73.30305093041194
 30
0.0
  0
SPLINE
  5
7C
330
70
100
AcDbEntity
  8
preimum
 62
    18
420
    65793
370
     5
100
AcDbSpline
210
0.0
220
0.0
230
1.0
 70
     9
 71
     3
 72
    29
 73
    25
 74
     0
 42
0.0000000001
 43
0.0000000001
 40
0.0
 40
0.0
 40
0.0
 40
0.0
 40
1.0
 40
1.0
 40
1.0
 40
2.0
 40
2.0
 40
2.0
 40
3.0
 40
3.0
 40
3.0
 40
4.0
 40
4.0
 40
4.0
 40
5.0
 40
5.0
 40
5.0
 40
6.0
 40
6.0
 40
6.0
 40
7.0
 40
7.0
 40
7.0
 40
8.0
 40
8.0
 40
8.0
 40
8.0
 10
203.3179292420983
 20
-72.80305093053673
 30
0.0
 10
203.5940716169455
 20
-72.80305093053673
 30
0.0
 10
203.8179292419742
 20
-73.02690855556576
 30
0.0
 10
203.8179292419742
 20
-73.30305093041194
 30
0.0
 10
203.8179292419742
 20
-73.30305093041194
 30
0.0
 10
203.8179292419742
 20
-86.30305092716186
 30
0.0
 10
203.8179292419742
 20
-86.30305092716186
 30
0.0
 10
203.8179292419742
 20
-86.57919330200803
 30
0.0
 10
203.5940716169455
 20
-86.80305092703674
 30
0.0
 10
203.3179292420983
 20
-86.80305092703674
 30
0.0
 10
203.3179292420983
 20
-86.80305092703674
 30
0.0
 10
190.3179292453494
 20
-86.80305092703674
 30
0.0
 10
190.3179292453494
 20
-86.80305092703674
 30
0.0
 10
190.0417868705035
 20
-86.80305092703674
 30
0.0
 10
189.8179292454748
 20
-86.57919330200803
 30
0.0
 10
189.8179292454748
 20
-86.30305092716186
 30
0.0
 10
189.8179292454748
 20
-86.30305092716186
 30
0.0
 10
189.8179292454748
 20
-73.30305093041194
 30
0.0
 10
189.8179292454748
 20
-73.30305093041194
 30
0.0
 10
189.8179292454748
 20
-73.02690855556576
 30
0.0
 10
190.0417868705035
 20
-72.80305093053673
 30
0.0
 10
190.3179292453494
 20
-72.80305093053673
 30
0.0
 10
190.3179292453494
 20
-72.80305093053673
 30
0.0
 10
203.3179292420983
 20
-72.80305093053673
 30
0.0
 10
203.3179292420983
 20
-72.80305093053673
 30
0.0
  0
SPLINE
  5
7D
330
70
100
AcDbEntity
  8
preimum
 62
    18
420
    65793
370
     5
100
AcDbSpline
210
0.0
220
0.0
230
1.0
 70
     9
 71
     3
 72
    29
 73
    25
 74
     0
 42
0.0000000001
 43
0.0000000001
 40
0.0
 40
0.0
 40
0.0
 40
0.0
 40
1.0
 40
1.0
 40
1.0
 40
2.0
 40
2.0
 40
2.0
 40
3.0
 40
3.0
 40
3.0
 40
4.0
 40
4.0
 40
4.0
 40
5.0
 40
5.0
 40
5.0
 40
6.0
 40
6.0
 40
6.0
 40
7.0
 40
7.0
 40
7.0
 40
8.0
 40
8.0
 40
8.0
 40
8.0
 10
222.3679292373372
 20
-72.80305093053673
 30
0.0
 10
222.644071612183
 20
-72.80305093053673
 30
0.0
 10
222.8679292372117
 20
-73.02690855556576
 30
0.0
 10
222.8679292372117
 20
-73.30305093041194
 30
0.0
 10
222.8679292372117
 20
-73.30305093041194
 30
0.0
 10
222.8679292372117
 20
-86.30305092716186
 30
0.0
 10
222.8679292372117
 20
-86.30305092716186
 30
0.0
 10
222.8679292372117
 20
-86.57919330200803
 30
0.0
 10
222.644071612183
 20
-86.80305092703674
 30
0.0
 10
222.3679292373372
 20
-86.80305092703674
 30
0.0
 10
222.3679292373372
 20
-86.80305092703674
 30
0.0
 10
209.3679292405856
 20
-86.80305092703674
 30
0.0
 10
209.3679292405856
 20
-86.80305092703674
 30
0.0
 10
209.0917868657411
 20
-86.80305092703674
 30
0.0
 10
208.867929240711
 20
-86.57919330200803
 30
0.0
 10
208.867929240711
 20
-86.30305092716186
 30
0.0
 10
208.867929240711
 20
-86.30305092716186
 30
0.0
 10
208.867929240711
 20
-73.30305093041194
 30
0.0
 10
208.867929240711
 20
-73.30305093041194
 30
0.0
 10
208.867929240711
 20
-73.02690855556576
 30
0.0
 10
209.0917868657411
 20
-72.80305093053673
 30
0.0
 10
209.3679292405856
 20
-72.80305093053673
 30
0.0
 10
209.3679292405856
 20
-72.80305093053673
 30
0.0
 10
222.3679292373372
 20
-72.80305093053673
 30
0.0
 10
222.3679292373372
 20
-72.80305093053673
 30
0.0
  0
SPLINE
  5
7E
330
70
100
AcDbEntity
  8
preimum
 62
    18
420
    65793
370
     5
100
AcDbSpline
210
0.0
220
0.0
230
1.0
 70
     9
 71
     3
 72
    29
 73
    25
 74
     0
 42
0.0000000001
 43
0.0000000001
 40
0.0
 40
0.0
 40
0.0
 40
0.0
 40
1.0
 40
1.0
 40
1.0
 40
2.0
 40
2.0
 40
2.0
 40
3.0
 40
3.0
 40
3.0
 40
4.0
 40
4.0
 40
4.0
 40
5.0
 40
5.0
 40
5.0
 40
6.0
 40
6.0
 40
6.0
 40
7.0
 40
7.0
 40
7.0
 40
8.0
 40
8.0
 40
8.0
 40
8.0
 10
165.2179292516246
 20
-86.80305092703674
 30
0.0
 10
165.2179292516246
 20
-86.80305092703674
 30
0.0
 10
152.2179292548757
 20
-86.80305092703674
 30
0.0
 10
152.2179292548757
 20
-86.80305092703674
 30
0.0
 10
151.9417868800272
 20
-86.80305092703674
 30
0.0
 10
151.7179292549985
 20
-86.57919330200803
 30
0.0
 10
151.7179292549985
 20
-86.30305092716186
 30
0.0
 10
151.7179292549985
 20
-86.30305092716186
 30
0.0
 10
151.7179292549985
 20
-73.30305093041194
 30
0.0
 10
151.7179292549985
 20
-73.30305093041194
 30
0.0
 10
151.7179292549985
 20
-73.02690855556576
 30
0.0
 10
151.9417868800272
 20
-72.80305093053673
 30
0.0
 10
152.2179292548757
 20
-72.80305093053673
 30
0.0
 10
152.2179292548757
 20
-72.80305093053673
 30
0.0
 10
165.2179292516246
 20
-72.80305093053673
 30
0.0
 10
165.2179292516246
 20
-72.80305093053673
 30
0.0
 10
165.4940716264705
 20
-72.80305093053673
 30
0.0
 10
165.7179292514992
 20
-73.02690855556576
 30
0.0
 10
165.7179292514992
 20
-73.30305093041194
 30
0.0
 10
165.7179292514992
 20
-73.30305093041194
 30
0.0
 10
165.7179292514992
 20
-86.30305092716186
 30
0.0
 10
165.7179292514992
 20
-86.30305092716186
 30
0.0
 10
165.7179292514992
 20
-86.57919330200803
 30
0.0
 10
165.4940716264705
 20
-86.80305092703674
 30
0.0
 10
165.2179292516246
 20
-86.80305092703674
 30
0.0
  0
SPLINE
  5
7F
330
70
100
AcDbEntity
  8
preimum
 62
    18
420
    65793
370
     5
100
AcDbSpline
210
0.0
220
0.0
230
1.0
 70
     9
 71
     3
 72
    29
 73
    25
 74
     0
 42
0.0000000001
 43
0.0000000001
 40
0.0
 40
0.0
 40
0.0
 40
0.0
 40
1.0
 40
1.0
 40
1.0
 40
2.0
 40
2.0
 40
2.0
 40
3.0
 40
3.0
 40
3.0
 40
4.0
 40
4.0
 40
4.0
 40
5.0
 40
5.0
 40
5.0
 40
6.0
 40
6.0
 40
6.0
 40
7.0
 40
7.0
 40
7.0
 40
8.0
 40
8.0
 40
8.0
 40
8.0
 10
56.46792927881168
 20
-92.35305092564944
 30
0.0
 10
56.46792927881168
 20
-92.07690855080294
 30
0.0
 10
56.69178690383976
 20
-91.85305092577456
 30
0.0
 10
56.96792927868625
 20
-91.85305092577456
 30
0.0
 10
56.96792927868625
 20
-91.85305092577456
 30
0.0
 10
69.9679292754365
 20
-91.85305092577456
 30
0.0
 10
69.9679292754365
 20
-91.85305092577456
 30
0.0
 10
70.244071650283
 20
-91.85305092577456
 30
0.0
 10
70.46792927531171
 20
-92.07690855080294
 30
0.0
 10
70.46792927531171
 20
-92.35305092564944
 30
0.0
 10
70.46792927531171
 20
-92.35305092564944
 30
0.0
 10
70.46792927531171
 20
-105.3530509223993
 30
0.0
 10
70.46792927531171
 20
-105.3530509223993
 30
0.0
 10
70.46792927531171
 20
-105.6291932972458
 30
0.0
 10
70.244071650283
 20
-105.8530509222745
 30
0.0
 10
69.9679292754365
 20
-105.8530509222745
 30
0.0
 10
69.9679292754365
 20
-105.8530509222745
 30
0.0
 10
56.96792927868625
 20
-105.8530509222745
 30
0.0
 10
56.96792927868625
 20
-105.8530509222745
 30
0.0
 10
56.69178690383976
 20
-105.8530509222745
 30
0.0
 10
56.46792927881168
 20
-105.6291932972455
 30
0.0
 10
56.46792927881168
 20
-105.3530509223993
 30
0.0
 10
56.46792927881168
 20
-105.3530509223993
 30
0.0
 10
56.46792927881168
 20
-92.35305092564944
 30
0.0
 10
56.46792927881168
 20
-92.35305092564944
 30
0.0
  0
SPLINE
  5
80
330
70
100
AcDbEntity
  8
preimum
 62
    18
420
    65793
370
     5
100
AcDbSpline
210
0.0
220
0.0
230
1.0
 70
     9
 71
     3
 72
    29
 73
    25
 74
     0
 42
0.0000000001
 43
0.0000000001
 40
0.0
 40
0.0
 40
0.0
 40
0.0
 40
1.0
 40
1.0
 40
1.0
 40
2.0
 40
2.0
 40
2.0
 40
3.0
 40
3.0
 40
3.0
 40
4.0
 40
4.0
 40
4.0
 40
5.0
 40
5.0
 40
5.0
 40
6.0
 40
6.0
 40
6.0
 40
7.0
 40
7.0
 40
7.0
 40
8.0
 40
8.0
 40
8.0
 40
8.0
 10
108.5679292657867
 20
-105.3530509223993
 30
0.0
 10
108.5679292657867
 20
-105.6291932972458
 30
0.0
 10
108.344071640758
 20
-105.8530509222745
 30
0.0
 10
108.0679292659115
 20
-105.8530509222745
 30
0.0
 10
108.0679292659115
 20
-105.8530509222745
 30
0.0
 10
95.06792926916125
 20
-105.8530509222745
 30
0.0
 10
95.06792926916125
 20
-105.8530509222745
 30
0.0
 10
94.79178689431476
 20
-105.8530509222745
 30
0.0
 10
94.56792926928669
 20
-105.6291932972455
 30
0.0
 10
94.56792926928669
 20
-105.3530509223993
 30
0.0
 10
94.56792926928669
 20
-105.3530509223993
 30
0.0
 10
94.56792926928669
 20
-92.35305092564944
 30
0.0
 10
94.56792926928669
 20
-92.35305092564944
 30
0.0
 10
94.56792926928669
 20
-92.07690855080294
 30
0.0
 10
94.7917868943154
 20
-91.85305092577456
 30
0.0
 10
95.06792926916125
 20
-91.85305092577456
 30
0.0
 10
95.06792926916125
 20
-91.85305092577456
 30
0.0
 10
108.0679292659115
 20
-91.85305092577456
 30
0.0
 10
108.0679292659115
 20
-91.85305092577456
 30
0.0
 10
108.344071640758
 20
-91.85305092577456
 30
0.0
 10
108.5679292657867
 20
-92.07690855080294
 30
0.0
 10
108.5679292657867
 20
-92.35305092564944
 30
0.0
 10
108.5679292657867
 20
-92.35305092564944
 30
0.0
 10
108.5679292657867
 20
-105.3530509223993
 30
0.0
 10
108.5679292657867
 20
-105.3530509223993
 30
0.0
  0
SPLINE
  5
81
330
70
100
AcDbEntity
  8
preimum
 62
    18
420
    65793
370
     5
100
AcDbSpline
210
0.0
220
0.0
230
1.0
 70
     9
 71
     3
 72
    29
 73
    25
 74
     0
 42
0.0000000001
 43
0.0000000001
 40
0.0
 40
0.0
 40
0.0
 40
0.0
 40
1.0
 40
1.0
 40
1.0
 40
2.0
 40
2.0
 40
2.0
 40
3.0
 40
3.0
 40
3.0
 40
4.0
 40
4.0
 40
4.0
 40
5.0
 40
5.0
 40
5.0
 40
6.0
 40
6.0
 40
6.0
 40
7.0
 40
7.0
 40
7.0
 40
8.0
 40
8.0
 40
8.0
 40
8.0
 10
113.6179292645242
 20
-92.35305092564944
 30
0.0
 10
113.6179292645242
 20
-92.07690855080294
 30
0.0
 10
113.8417868895529
 20
-91.85305092577456
 30
0.0
 10
114.1179292643987
 20
-91.85305092577456
 30
0.0
 10
114.1179292643987
 20
-91.85305092577456
 30
0.0
 10
127.117929261149
 20
-91.85305092577456
 30
0.0
 10
127.117929261149
 20
-91.85305092577456
 30
0.0
 10
127.3940716359955
 20
-91.85305092577456
 30
0.0
 10
127.6179292610242
 20
-92.07690855080294
 30
0.0
 10
127.6179292610242
 20
-92.35305092564944
 30
0.0
 10
127.6179292610242
 20
-92.35305092564944
 30
0.0
 10
127.6179292610242
 20
-105.3530509223993
 30
0.0
 10
127.6179292610242
 20
-105.3530509223993
 30
0.0
 10
127.6179292610242
 20
-105.6291932972458
 30
0.0
 10
127.3940716359955
 20
-105.8530509222745
 30
0.0
 10
127.117929261149
 20
-105.8530509222745
 30
0.0
 10
127.117929261149
 20
-105.8530509222745
 30
0.0
 10
114.1179292643987
 20
-105.8530509222745
 30
0.0
 10
114.1179292643987
 20
-105.8530509222745
 30
0.0
 10
113.8417868895529
 20
-105.8530509222745
 30
0.0
 10
113.6179292645242
 20
-105.6291932972455
 30
0.0
 10
113.6179292645242
 20
-105.3530509223993
 30
0.0
 10
113.6179292645242
 20
-105.3530509223993
 30
0.0
 10
113.6179292645242
 20
-92.35305092564944
 30
0.0
 10
113.6179292645242
 20
-92.35305092564944
 30
0.0
  0
SPLINE
  5
82
330
70
100
AcDbEntity
  8
preimum
 62
    18
420
    65793
370
     5
100
AcDbSpline
210
0.0
220
0.0
230
1.0
 70
     9
 71
     3
 72
    29
 73
    25
 74
     0
 42
0.0000000001
 43
0.0000000001
 40
0.0
 40
0.0
 40
0.0
 40
0.0
 40
1.0
 40
1.0
 40
1.0
 40
2.0
 40
2.0
 40
2.0
 40
3.0
 40
3.0
 40
3.0
 40
4.0
 40
4.0
 40
4.0
 40
5.0
 40
5.0
 40
5.0
 40
6.0
 40
6.0
 40
6.0
 40
7.0
 40
7.0
 40
7.0
 40
8.0
 40
8.0
 40
8.0
 40
8.0
 10
75.51792927404919
 20
-92.35305092564944
 30
0.0
 10
75.51792927404919
 20
-92.07690855080294
 30
0.0
 10
75.74178689907789
 20
-91.85305092577456
 30
0.0
 10
76.01792927392375
 20
-91.85305092577456
 30
0.0
 10
76.01792927392375
 20
-91.85305092577456
 30
0.0
 10
89.017929270674
 20
-91.85305092577456
 30
0.0
 10
89.017929270674
 20
-91.85305092577456
 30
0.0
 10
89.29407164552051
 20
-91.85305092577456
 30
0.0
 10
89.51792927054922
 20
-92.07690855080294
 30
0.0
 10
89.51792927054922
 20
-92.35305092564944
 30
0.0
 10
89.51792927054922
 20
-92.35305092564944
 30
0.0
 10
89.51792927054922
 20
-105.3530509223993
 30
0.0
 10
89.51792927054922
 20
-105.3530509223993
 30
0.0
 10
89.51792927054922
 20
-105.6291932972458
 30
0.0
 10
89.29407164552051
 20
-105.8530509222745
 30
0.0
 10
89.017929270674
 20
-105.8530509222745
 30
0.0
 10
89.017929270674
 20
-105.8530509222745
 30
0.0
 10
76.01792927392375
 20
-105.8530509222745
 30
0.0
 10
76.01792927392375
 20
-105.8530509222745
 30
0.0
 10
75.74178689907789
 20
-105.8530509222745
 30
0.0
 10
75.51792927404919
 20
-105.6291932972455
 30
0.0
 10
75.51792927404919
 20
-105.3530509223993
 30
0.0
 10
75.51792927404919
 20
-105.3530509223993
 30
0.0
 10
75.51792927404919
 20
-92.35305092564944
 30
0.0
 10
75.51792927404919
 20
-92.35305092564944
 30
0.0
  0
SPLINE
  5
83
330
70
100
AcDbEntity
  8
preimum
 62
    18
420
    65793
370
     5
100
AcDbSpline
210
0.0
220
0.0
230
1.0
 70
     9
 71
     3
 72
    29
 73
    25
 74
     0
 42
0.0000000001
 43
0.0000000001
 40
0.0
 40
0.0
 40
0.0
 40
0.0
 40
1.0
 40
1.0
 40
1.0
 40
2.0
 40
2.0
 40
2.0
 40
3.0
 40
3.0
 40
3.0
 40
4.0
 40
4.0
 40
4.0
 40
5.0
 40
5.0
 40
5.0
 40
6.0
 40
6.0
 40
6.0
 40
7.0
 40
7.0
 40
7.0
 40
8.0
 40
8.0
 40
8.0
 40
8.0
 10
18.86792928821125
 20
-105.8530509222745
 30
0.0
 10
18.59178691336476
 20
-105.8530509222745
 30
0.0
 10
18.36792928833668
 20
-105.6291932972455
 30
0.0
 10
18.36792928833668
 20
-105.3530509223993
 30
0.0
 10
18.36792928833668
 20
-105.3530509223993
 30
0.0
 10
18.36792928833668
 20
-92.35305092564944
 30
0.0
 10
18.36792928833668
 20
-92.35305092564944
 30
0.0
 10
18.36792928833668
 20
-92.07690855080294
 30
0.0
 10
18.59178691336476
 20
-91.85305092577456
 30
0.0
 10
18.86792928821125
 20
-91.85305092577456
 30
0.0
 10
18.86792928821125
 20
-91.85305092577456
 30
0.0
 10
31.86792928496151
 20
-91.85305092577456
 30
0.0
 10
31.86792928496151
 20
-91.85305092577456
 30
0.0
 10
32.144071659808
 20
-91.85305092577456
 30
0.0
 10
32.36792928483672
 20
-92.07690855080294
 30
0.0
 10
32.36792928483672
 20
-92.35305092564944
 30
0.0
 10
32.36792928483672
 20
-92.35305092564944
 30
0.0
 10
32.36792928483672
 20
-105.3530509223993
 30
0.0
 10
32.36792928483672
 20
-105.3530509223993
 30
0.0
 10
32.36792928483672
 20
-105.6291932972458
 30
0.0
 10
32.144071659808
 20
-105.8530509222745
 30
0.0
 10
31.86792928496151
 20
-105.8530509222745
 30
0.0
 10
31.86792928496151
 20
-105.8530509222745
 30
0.0
 10
18.86792928821125
 20
-105.8530509222745
 30
0.0
 10
18.86792928821125
 20
-105.8530509222745
 30
0.0
  0
SPLINE
  5
84
330
70
100
AcDbEntity
  8
preimum
 62
    18
420
    65793
370
     5
100
AcDbSpline
210
0.0
220
0.0
230
1.0
 70
     9
 71
     3
 72
    29
 73
    25
 74
     0
 42
0.0000000001
 43
0.0000000001
 40
0.0
 40
0.0
 40
0.0
 40
0.0
 40
1.0
 40
1.0
 40
1.0
 40
2.0
 40
2.0
 40
2.0
 40
3.0
 40
3.0
 40
3.0
 40
4.0
 40
4.0
 40
4.0
 40
5.0
 40
5.0
 40
5.0
 40
6.0
 40
6.0
 40
6.0
 40
7.0
 40
7.0
 40
7.0
 40
8.0
 40
8.0
 40
8.0
 40
8.0
 10
246.9679292311873
 20
-73.30305093041194
 30
0.0
 10
246.9679292311873
 20
-73.02690855556576
 30
0.0
 10
247.1917868562148
 20
-72.80305093053673
 30
0.0
 10
247.4679292310619
 20
-72.80305093053673
 30
0.0
 10
247.4679292310619
 20
-72.80305093053673
 30
0.0
 10
260.4679292278121
 20
-72.80305093053673
 30
0.0
 10
260.4679292278121
 20
-72.80305093053673
 30
0.0
 10
260.744071602658
 20
-72.80305093053673
 30
0.0
 10
260.967929227688
 20
-73.02690855556576
 30
0.0
 10
260.967929227688
 20
-73.30305093041194
 30
0.0
 10
260.967929227688
 20
-73.30305093041194
 30
0.0
 10
260.967929227688
 20
-86.30305092716186
 30
0.0
 10
260.967929227688
 20
-86.30305092716186
 30
0.0
 10
260.967929227688
 20
-86.57919330200803
 30
0.0
 10
260.744071602658
 20
-86.80305092703674
 30
0.0
 10
260.4679292278121
 20
-86.80305092703674
 30
0.0
 10
260.4679292278121
 20
-86.80305092703674
 30
0.0
 10
247.4679292310619
 20
-86.80305092703674
 30
0.0
 10
247.4679292310619
 20
-86.80305092703674
 30
0.0
 10
247.1917868562148
 20
-86.80305092703674
 30
0.0
 10
246.9679292311873
 20
-86.57919330200803
 30
0.0
 10
246.9679292311873
 20
-86.30305092716186
 30
0.0
 10
246.9679292311873
 20
-86.30305092716186
 30
0.0
 10
246.9679292311873
 20
-73.30305093041194
 30
0.0
 10
246.9679292311873
 20
-73.30305093041194
 30
0.0
  0
SPLINE
  5
85
330
70
100
AcDbEntity
  8
preimum
 62
    18
420
    65793
370
     5
100
AcDbSpline
210
0.0
220
0.0
230
1.0
 70
     9
 71
     3
 72
    29
 73
    25
 74
     0
 42
0.0000000001
 43
0.0000000001
 40
0.0
 40
0.0
 40
0.0
 40
0.0
 40
1.0
 40
1.0
 40
1.0
 40
2.0
 40
2.0
 40
2.0
 40
3.0
 40
3.0
 40
3.0
 40
4.0
 40
4.0
 40
4.0
 40
5.0
 40
5.0
 40
5.0
 40
6.0
 40
6.0
 40
6.0
 40
7.0
 40
7.0
 40
7.0
 40
8.0
 40
8.0
 40
8.0
 40
8.0
 10
50.917929280199
 20
-91.85305092577456
 30
0.0
 10
51.1940716550455
 20
-91.85305092577456
 30
0.0
 10
51.41792928007421
 20
-92.07690855080294
 30
0.0
 10
51.41792928007421
 20
-92.35305092564944
 30
0.0
 10
51.41792928007421
 20
-92.35305092564944
 30
0.0
 10
51.41792928007421
 20
-105.3530509223993
 30
0.0
 10
51.41792928007421
 20
-105.3530509223993
 30
0.0
 10
51.41792928007421
 20
-105.6291932972458
 30
0.0
 10
51.1940716550455
 20
-105.8530509222745
 30
0.0
 10
50.917929280199
 20
-105.8530509222745
 30
0.0
 10
50.917929280199
 20
-105.8530509222745
 30
0.0
 10
37.91792928344875
 20
-105.8530509222745
 30
0.0
 10
37.91792928344875
 20
-105.8530509222745
 30
0.0
 10
37.64178690860226
 20
-105.8530509222745
 30
0.0
 10
37.41792928357419
 20
-105.6291932972455
 30
0.0
 10
37.41792928357419
 20
-105.3530509223993
 30
0.0
 10
37.41792928357419
 20
-105.3530509223993
 30
0.0
 10
37.41792928357419
 20
-92.35305092564944
 30
0.0
 10
37.41792928357419
 20
-92.35305092564944
 30
0.0
 10
37.41792928357419
 20
-92.07690855080294
 30
0.0
 10
37.64178690860226
 20
-91.85305092577456
 30
0.0
 10
37.91792928344875
 20
-91.85305092577456
 30
0.0
 10
37.91792928344875
 20
-91.85305092577456
 30
0.0
 10
50.917929280199
 20
-91.85305092577456
 30
0.0
 10
50.917929280199
 20
-91.85305092577456
 30
0.0
  0
SPLINE
  5
86
330
70
100
AcDbEntity
  8
preimum
 62
    18
420
    65793
370
     5
100
AcDbSpline
210
0.0
220
0.0
230
1.0
 70
     9
 71
     3
 72
    29
 73
    25
 74
     0
 42
0.0000000001
 43
0.0000000001
 40
0.0
 40
0.0
 40
0.0
 40
0.0
 40
1.0
 40
1.0
 40
1.0
 40
2.0
 40
2.0
 40
2.0
 40
3.0
 40
3.0
 40
3.0
 40
4.0
 40
4.0
 40
4.0
 40
5.0
 40
5.0
 40
5.0
 40
6.0
 40
6.0
 40
6.0
 40
7.0
 40
7.0
 40
7.0
 40
8.0
 40
8.0
 40
8.0
 40
8.0
 10
227.9179292359486
 20
-86.30305092716186
 30
0.0
 10
227.9179292359486
 20
-86.30305092716186
 30
0.0
 10
227.9179292359486
 20
-73.30305093041194
 30
0.0
 10
227.9179292359486
 20
-73.30305093041194
 30
0.0
 10
227.9179292359486
 20
-73.02690855556576
 30
0.0
 10
228.1417868609786
 20
-72.80305093053673
 30
0.0
 10
228.4179292358244
 20
-72.80305093053673
 30
0.0
 10
228.4179292358244
 20
-72.80305093053673
 30
0.0
 10
241.4179292325747
 20
-72.80305093053673
 30
0.0
 10
241.4179292325747
 20
-72.80305093053673
 30
0.0
 10
241.6940716074205
 20
-72.80305093053673
 30
0.0
 10
241.9179292324492
 20
-73.02690855556576
 30
0.0
 10
241.9179292324492
 20
-73.30305093041194
 30
0.0
 10
241.9179292324492
 20
-73.30305093041194
 30
0.0
 10
241.9179292324492
 20
-86.30305092716186
 30
0.0
 10
241.9179292324492
 20
-86.30305092716186
 30
0.0
 10
241.9179292324492
 20
-86.57919330200803
 30
0.0
 10
241.6940716074205
 20
-86.80305092703674
 30
0.0
 10
241.4179292325747
 20
-86.80305092703674
 30
0.0
 10
241.4179292325747
 20
-86.80305092703674
 30
0.0
 10
228.4179292358244
 20
-86.80305092703674
 30
0.0
 10
228.4179292358244
 20
-86.80305092703674
 30
0.0
 10
228.1417868609786
 20
-86.80305092703674
 30
0.0
 10
227.9179292359486
 20
-86.57919330200803
 30
0.0
 10
227.9179292359486
 20
-86.30305092716186
 30
0.0
  0
SPLINE
  5
87
330
70
100
AcDbEntity
  8
preimum
 62
    18
420
    65793
370
     5
100
AcDbSpline
210
0.0
220
0.0
230
1.0
 70
     9
 71
     3
 72
    29
 73
    25
 74
     0
 42
0.0000000001
 43
0.0000000001
 40
0.0
 40
0.0
 40
0.0
 40
0.0
 40
1.0
 40
1.0
 40
1.0
 40
2.0
 40
2.0
 40
2.0
 40
3.0
 40
3.0
 40
3.0
 40
4.0
 40
4.0
 40
4.0
 40
5.0
 40
5.0
 40
5.0
 40
6.0
 40
6.0
 40
6.0
 40
7.0
 40
7.0
 40
7.0
 40
8.0
 40
8.0
 40
8.0
 40
8.0
 10
32.36792928483672
 20
-86.30305092716186
 30
0.0
 10
32.36792928483672
 20
-86.57919330200803
 30
0.0
 10
32.144071659808
 20
-86.80305092703674
 30
0.0
 10
31.86792928496151
 20
-86.80305092703674
 30
0.0
 10
31.86792928496151
 20
-86.80305092703674
 30
0.0
 10
18.86792928821125
 20
-86.80305092703674
 30
0.0
 10
18.86792928821125
 20
-86.80305092703674
 30
0.0
 10
18.59178691336476
 20
-86.80305092703674
 30
0.0
 10
18.36792928833668
 20
-86.57919330200803
 30
0.0
 10
18.36792928833668
 20
-86.30305092716186
 30
0.0
 10
18.36792928833668
 20
-86.30305092716186
 30
0.0
 10
18.36792928833668
 20
-73.30305093041194
 30
0.0
 10
18.36792928833668
 20
-73.30305093041194
 30
0.0
 10
18.36792928833668
 20
-73.02690855556576
 30
0.0
 10
18.59178691336476
 20
-72.80305093053673
 30
0.0
 10
18.86792928821125
 20
-72.80305093053673
 30
0.0
 10
18.86792928821125
 20
-72.80305093053673
 30
0.0
 10
31.86792928496151
 20
-72.80305093053673
 30
0.0
 10
31.86792928496151
 20
-72.80305093053673
 30
0.0
 10
32.144071659808
 20
-72.80305093053673
 30
0.0
 10
32.36792928483672
 20
-73.02690855556576
 30
0.0
 10
32.36792928483672
 20
-73.30305093041194
 30
0.0
 10
32.36792928483672
 20
-73.30305093041194
 30
0.0
 10
32.36792928483672
 20
-86.30305092716186
 30
0.0
 10
32.36792928483672
 20
-86.30305092716186
 30
0.0
  0
SPLINE
  5
88
330
70
100
AcDbEntity
  8
preimum
 62
    18
420
    65793
370
     5
100
AcDbSpline
210
0.0
220
0.0
230
1.0
 70
     9
 71
     3
 72
    29
 73
    25
 74
     0
 42
0.0000000001
 43
0.0000000001
 40
0.0
 40
0.0
 40
0.0
 40
0.0
 40
1.0
 40
1.0
 40
1.0
 40
2.0
 40
2.0
 40
2.0
 40
3.0
 40
3.0
 40
3.0
 40
4.0
 40
4.0
 40
4.0
 40
5.0
 40
5.0
 40
5.0
 40
6.0
 40
6.0
 40
6.0
 40
7.0
 40
7.0
 40
7.0
 40
8.0
 40
8.0
 40
8.0
 40
8.0
 10
37.91792928344875
 20
-86.80305092703674
 30
0.0
 10
37.64178690860226
 20
-86.80305092703674
 30
0.0
 10
37.41792928357419
 20
-86.57919330200803
 30
0.0
 10
37.41792928357419
 20
-86.30305092716186
 30
0.0
 10
37.41792928357419
 20
-86.30305092716186
 30
0.0
 10
37.41792928357419
 20
-73.30305093041194
 30
0.0
 10
37.41792928357419
 20
-73.30305093041194
 30
0.0
 10
37.41792928357419
 20
-73.02690855556576
 30
0.0
 10
37.64178690860226
 20
-72.80305093053673
 30
0.0
 10
37.91792928344875
 20
-72.80305093053673
 30
0.0
 10
37.91792928344875
 20
-72.80305093053673
 30
0.0
 10
50.917929280199
 20
-72.80305093053673
 30
0.0
 10
50.917929280199
 20
-72.80305093053673
 30
0.0
 10
51.1940716550455
 20
-72.80305093053673
 30
0.0
 10
51.41792928007421
 20
-73.02690855556576
 30
0.0
 10
51.41792928007421
 20
-73.30305093041194
 30
0.0
 10
51.41792928007421
 20
-73.30305093041194
 30
0.0
 10
51.41792928007421
 20
-86.30305092716186
 30
0.0
 10
51.41792928007421
 20
-86.30305092716186
 30
0.0
 10
51.41792928007421
 20
-86.57919330200803
 30
0.0
 10
51.1940716550455
 20
-86.80305092703674
 30
0.0
 10
50.917929280199
 20
-86.80305092703674
 30
0.0
 10
50.917929280199
 20
-86.80305092703674
 30
0.0
 10
37.91792928344875
 20
-86.80305092703674
 30
0.0
 10
37.91792928344875
 20
-86.80305092703674
 30
0.0
  0
INSERT
  5
8A
330
70
100
AcDbEntity
  8
preimum
100
AcDbBlockReference
  2
Block_0
 10
0.0
 20
0.0
 30
0.0
  0
INSERT
  5
90
330
70
100
AcDbEntity
  8
preimum
100
AcDbBlockReference
  2
Block_1
 10
0.0
 20
0.0
 30
0.0
  0
SPLINE
  5
95
330
70
100
AcDbEntity
  8
preimum
 62
    18
420
    65793
370
     5
100
AcDbSpline
210
0.0
220
0.0
230
1.0
 70
     9
 71
     3
 72
    29
 73
    25
 74
     0
 42
0.0000000001
 43
0.0000000001
 40
0.0
 40
0.0
 40
0.0
 40
0.0
 40
1.0
 40
1.0
 40
1.0
 40
2.0
 40
2.0
 40
2.0
 40
3.0
 40
3.0
 40
3.0
 40
4.0
 40
4.0
 40
4.0
 40
5.0
 40
5.0
 40
5.0
 40
6.0
 40
6.0
 40
6.0
 40
7.0
 40
7.0
 40
7.0
 40
8.0
 40
8.0
 40
8.0
 40
8.0
 10
151.7179292549985
 20
-92.35305092564944
 30
0.0
 10
151.7179292549985
 20
-92.07690855080294
 30
0.0
 10
151.9417868800272
 20
-91.85305092577456
 30
0.0
 10
152.2179292548757
 20
-91.85305092577456
 30
0.0
 10
152.2179292548757
 20
-91.85305092577456
 30
0.0
 10
165.2179292516246
 20
-91.85305092577456
 30
0.0
 10
165.2179292516246
 20
-91.85305092577456
 30
0.0
 10
165.4940716264705
 20
-91.85305092577456
 30
0.0
 10
165.7179292514992
 20
-92.07690855080294
 30
0.0
 10
165.7179292514992
 20
-92.35305092564944
 30
0.0
 10
165.7179292514992
 20
-92.35305092564944
 30
0.0
 10
165.7179292514992
 20
-105.3530509223993
 30
0.0
 10
165.7179292514992
 20
-105.3530509223993
 30
0.0
 10
165.7179292514992
 20
-105.6291932972458
 30
0.0
 10
165.4940716264705
 20
-105.8530509222745
 30
0.0
 10
165.2179292516246
 20
-105.8530509222745
 30
0.0
 10
165.2179292516246
 20
-105.8530509222745
 30
0.0
 10
152.2179292548757
 20
-105.8530509222745
 30
0.0
 10
152.2179292548757
 20
-105.8530509222745
 30
0.0
 10
151.9417868800272
 20
-105.8530509222745
 30
0.0
 10
151.7179292549985
 20
-105.6291932972458
 30
0.0
 10
151.7179292549985
 20
-105.3530509223993
 30
0.0
 10
151.7179292549985
 20
-105.3530509223993
 30
0.0
 10
151.7179292549985
 20
-92.35305092564944
 30
0.0
 10
151.7179292549985
 20
-92.35305092564944
 30
0.0
  0
SPLINE
  5
96
330
70
100
AcDbEntity
  8
preimum
 62
    18
420
    65793
370
     5
100
AcDbSpline
210
0.0
220
0.0
230
1.0
 70
     9
 71
     3
 72
    29
 73
    25
 74
     0
 42
0.0000000001
 43
0.0000000001
 40
0.0
 40
0.0
 40
0.0
 40
0.0
 40
1.0
 40
1.0
 40
1.0
 40
2.0
 40
2.0
 40
2.0
 40
3.0
 40
3.0
 40
3.0
 40
4.0
 40
4.0
 40
4.0
 40
5.0
 40
5.0
 40
5.0
 40
6.0
 40
6.0
 40
6.0
 40
7.0
 40
7.0
 40
7.0
 40
8.0
 40
8.0
 40
8.0
 40
8.0
 10
60.94299998476277
 20
-111.4030509208863
 30
0.0
 10
60.94299998476277
 20
-111.4030509208863
 30
0.0
 10
60.94299998476277
 20
-124.4030509176365
 30
0.0
 10
60.94299998476277
 20
-124.4030509176365
 30
0.0
 10
60.94299998476277
 20
-124.6791932924837
 30
0.0
 10
60.71914235973405
 20
-124.9030509175124
 30
0.0
 10
60.44299998488757
 20
-124.9030509175124
 30
0.0
 10
60.44299998488757
 20
-124.9030509175124
 30
0.0
 10
47.44299998813795
 20
-124.9030509175124
 30
0.0
 10
47.44299998813795
 20
-124.9030509175124
 30
0.0
 10
47.16685761329145
 20
-124.9030509175124
 30
0.0
 10
46.94299998826275
 20
-124.6791932924837
 30
0.0
 10
46.94299998826275
 20
-124.4030509176365
 30
0.0
 10
46.94299998826275
 20
-124.4030509176365
 30
0.0
 10
46.94299998826275
 20
-111.4030509208863
 30
0.0
 10
46.94299998826275
 20
-111.4030509208863
 30
0.0
 10
46.94299998826275
 20
-111.1269085460404
 30
0.0
 10
47.16685761329145
 20
-110.9030509210117
 30
0.0
 10
47.44299998813795
 20
-110.9030509210117
 30
0.0
 10
47.44299998813795
 20
-110.9030509210117
 30
0.0
 10
60.44299998488757
 20
-110.9030509210117
 30
0.0
 10
60.44299998488757
 20
-110.9030509210117
 30
0.0
 10
60.71914235973405
 20
-110.9030509210117
 30
0.0
 10
60.94299998476277
 20
-111.1269085460404
 30
0.0
 10
60.94299998476277
 20
-111.4030509208863
 30
0.0
  0
SPLINE
  5
97
330
70
100
AcDbEntity
  8
preimum
 62
    18
420
    65793
370
     5
100
AcDbSpline
210
0.0
220
0.0
230
1.0
 70
     9
 71
     3
 72
    29
 73
    25
 74
     0
 42
0.0000000001
 43
0.0000000001
 40
0.0
 40
0.0
 40
0.0
 40
0.0
 40
1.0
 40
1.0
 40
1.0
 40
2.0
 40
2.0
 40
2.0
 40
3.0
 40
3.0
 40
3.0
 40
4.0
 40
4.0
 40
4.0
 40
5.0
 40
5.0
 40
5.0
 40
6.0
 40
6.0
 40
6.0
 40
7.0
 40
7.0
 40
7.0
 40
8.0
 40
8.0
 40
8.0
 40
8.0
 10
222.8679292372117
 20
-92.35305092564944
 30
0.0
 10
222.8679292372117
 20
-92.35305092564944
 30
0.0
 10
222.8679292372117
 20
-105.3530509223993
 30
0.0
 10
222.8679292372117
 20
-105.3530509223993
 30
0.0
 10
222.8679292372117
 20
-105.6291932972458
 30
0.0
 10
222.644071612183
 20
-105.8530509222745
 30
0.0
 10
222.3679292373372
 20
-105.8530509222745
 30
0.0
 10
222.3679292373372
 20
-105.8530509222745
 30
0.0
 10
209.3679292405856
 20
-105.8530509222745
 30
0.0
 10
209.3679292405856
 20
-105.8530509222745
 30
0.0
 10
209.0917868657411
 20
-105.8530509222745
 30
0.0
 10
208.867929240711
 20
-105.6291932972458
 30
0.0
 10
208.867929240711
 20
-105.3530509223993
 30
0.0
 10
208.867929240711
 20
-105.3530509223993
 30
0.0
 10
208.867929240711
 20
-92.35305092564944
 30
0.0
 10
208.867929240711
 20
-92.35305092564944
 30
0.0
 10
208.867929240711
 20
-92.07690855080294
 30
0.0
 10
209.0917868657411
 20
-91.85305092577456
 30
0.0
 10
209.3679292405856
 20
-91.85305092577456
 30
0.0
 10
209.3679292405856
 20
-91.85305092577456
 30
0.0
 10
222.3679292373372
 20
-91.85305092577456
 30
0.0
 10
222.3679292373372
 20
-91.85305092577456
 30
0.0
 10
222.644071612183
 20
-91.85305092577456
 30
0.0
 10
222.8679292372117
 20
-92.07690855080294
 30
0.0
 10
222.8679292372117
 20
-92.35305092564944
 30
0.0
  0
SPLINE
  5
98
330
70
100
AcDbEntity
  8
preimum
 62
    18
420
    65793
370
     5
100
AcDbSpline
210
0.0
220
0.0
230
1.0
 70
     9
 71
     3
 72
    29
 73
    25
 74
     0
 42
0.0000000001
 43
0.0000000001
 40
0.0
 40
0.0
 40
0.0
 40
0.0
 40
1.0
 40
1.0
 40
1.0
 40
2.0
 40
2.0
 40
2.0
 40
3.0
 40
3.0
 40
3.0
 40
4.0
 40
4.0
 40
4.0
 40
5.0
 40
5.0
 40
5.0
 40
6.0
 40
6.0
 40
6.0
 40
7.0
 40
7.0
 40
7.0
 40
8.0
 40
8.0
 40
8.0
 40
8.0
 10
247.4679292310619
 20
-105.8530509222745
 30
0.0
 10
247.1917868562148
 20
-105.8530509222745
 30
0.0
 10
246.9679292311873
 20
-105.6291932972458
 30
0.0
 10
246.9679292311873
 20
-105.3530509223993
 30
0.0
 10
246.9679292311873
 20
-105.3530509223993
 30
0.0
 10
246.9679292311873
 20
-92.35305092564944
 30
0.0
 10
246.9679292311873
 20
-92.35305092564944
 30
0.0
 10
246.9679292311873
 20
-92.07690855080294
 30
0.0
 10
247.1917868562148
 20
-91.85305092577456
 30
0.0
 10
247.4679292310619
 20
-91.85305092577456
 30
0.0
 10
247.4679292310619
 20
-91.85305092577456
 30
0.0
 10
260.4679292278121
 20
-91.85305092577456
 30
0.0
 10
260.4679292278121
 20
-91.85305092577456
 30
0.0
 10
260.744071602658
 20
-91.85305092577456
 30
0.0
 10
260.967929227688
 20
-92.07690855080294
 30
0.0
 10
260.967929227688
 20
-92.35305092564944
 30
0.0
 10
260.967929227688
 20
-92.35305092564944
 30
0.0
 10
260.967929227688
 20
-105.3530509223993
 30
0.0
 10
260.967929227688
 20
-105.3530509223993
 30
0.0
 10
260.967929227688
 20
-105.6291932972458
 30
0.0
 10
260.744071602658
 20
-105.8530509222745
 30
0.0
 10
260.4679292278121
 20
-105.8530509222745
 30
0.0
 10
260.4679292278121
 20
-105.8530509222745
 30
0.0
 10
247.4679292310619
 20
-105.8530509222745
 30
0.0
 10
247.4679292310619
 20
-105.8530509222745
 30
0.0
  0
SPLINE
  5
99
330
70
100
AcDbEntity
  8
preimum
 62
    18
420
    65793
370
     5
100
AcDbSpline
210
0.0
220
0.0
230
1.0
 70
     9
 71
     3
 72
    29
 73
    25
 74
     0
 42
0.0000000001
 43
0.0000000001
 40
0.0
 40
0.0
 40
0.0
 40
0.0
 40
1.0
 40
1.0
 40
1.0
 40
2.0
 40
2.0
 40
2.0
 40
3.0
 40
3.0
 40
3.0
 40
4.0
 40
4.0
 40
4.0
 40
5.0
 40
5.0
 40
5.0
 40
6.0
 40
6.0
 40
6.0
 40
7.0
 40
7.0
 40
7.0
 40
8.0
 40
8.0
 40
8.0
 40
8.0
 10
184.2679292468621
 20
-105.8530509222745
 30
0.0
 10
184.2679292468621
 20
-105.8530509222745
 30
0.0
 10
171.2679292501132
 20
-105.8530509222745
 30
0.0
 10
171.2679292501132
 20
-105.8530509222745
 30
0.0
 10
170.9917868752647
 20
-105.8530509222745
 30
0.0
 10
170.767929250236
 20
-105.6291932972458
 30
0.0
 10
170.767929250236
 20
-105.3530509223993
 30
0.0
 10
170.767929250236
 20
-105.3530509223993
 30
0.0
 10
170.767929250236
 20
-92.35305092564944
 30
0.0
 10
170.767929250236
 20
-92.35305092564944
 30
0.0
 10
170.767929250236
 20
-92.07690855080294
 30
0.0
 10
170.9917868752647
 20
-91.85305092577456
 30
0.0
 10
171.2679292501132
 20
-91.85305092577456
 30
0.0
 10
171.2679292501132
 20
-91.85305092577456
 30
0.0
 10
184.2679292468621
 20
-91.85305092577456
 30
0.0
 10
184.2679292468621
 20
-91.85305092577456
 30
0.0
 10
184.544071621708
 20
-91.85305092577456
 30
0.0
 10
184.7679292467367
 20
-92.07690855080294
 30
0.0
 10
184.7679292467367
 20
-92.35305092564944
 30
0.0
 10
184.7679292467367
 20
-92.35305092564944
 30
0.0
 10
184.7679292467367
 20
-105.3530509223993
 30
0.0
 10
184.7679292467367
 20
-105.3530509223993
 30
0.0
 10
184.7679292467367
 20
-105.6291932972458
 30
0.0
 10
184.544071621708
 20
-105.8530509222745
 30
0.0
 10
184.2679292468621
 20
-105.8530509222745
 30
0.0
  0
SPLINE
  5
9A
330
70
100
AcDbEntity
  8
preimum
 62
    18
420
    65793
370
     5
100
AcDbSpline
210
0.0
220
0.0
230
1.0
 70
     9
 71
     3
 72
    29
 73
    25
 74
     0
 42
0.0000000001
 43
0.0000000001
 40
0.0
 40
0.0
 40
0.0
 40
0.0
 40
1.0
 40
1.0
 40
1.0
 40
2.0
 40
2.0
 40
2.0
 40
3.0
 40
3.0
 40
3.0
 40
4.0
 40
4.0
 40
4.0
 40
5.0
 40
5.0
 40
5.0
 40
6.0
 40
6.0
 40
6.0
 40
7.0
 40
7.0
 40
7.0
 40
8.0
 40
8.0
 40
8.0
 40
8.0
 10
203.8179292419742
 20
-105.3530509223993
 30
0.0
 10
203.8179292419742
 20
-105.6291932972458
 30
0.0
 10
203.5940716169455
 20
-105.8530509222745
 30
0.0
 10
203.3179292420983
 20
-105.8530509222745
 30
0.0
 10
203.3179292420983
 20
-105.8530509222745
 30
0.0
 10
190.3179292453494
 20
-105.8530509222745
 30
0.0
 10
190.3179292453494
 20
-105.8530509222745
 30
0.0
 10
190.0417868705035
 20
-105.8530509222745
 30
0.0
 10
189.8179292454748
 20
-105.6291932972458
 30
0.0
 10
189.8179292454748
 20
-105.3530509223993
 30
0.0
 10
189.8179292454748
 20
-105.3530509223993
 30
0.0
 10
189.8179292454748
 20
-92.35305092564944
 30
0.0
 10
189.8179292454748
 20
-92.35305092564944
 30
0.0
 10
189.8179292454748
 20
-92.07690855080294
 30
0.0
 10
190.0417868705035
 20
-91.85305092577456
 30
0.0
 10
190.3179292453494
 20
-91.85305092577456
 30
0.0
 10
190.3179292453494
 20
-91.85305092577456
 30
0.0
 10
203.3179292420983
 20
-91.85305092577456
 30
0.0
 10
203.3179292420983
 20
-91.85305092577456
 30
0.0
 10
203.5940716169455
 20
-91.85305092577456
 30
0.0
 10
203.8179292419742
 20
-92.07690855080294
 30
0.0
 10
203.8179292419742
 20
-92.35305092564944
 30
0.0
 10
203.8179292419742
 20
-92.35305092564944
 30
0.0
 10
203.8179292419742
 20
-105.3530509223993
 30
0.0
 10
203.8179292419742
 20
-105.3530509223993
 30
0.0
  0
SPLINE
  5
9B
330
70
100
AcDbEntity
  8
preimum
 62
    18
420
    65793
370
     5
100
AcDbSpline
210
0.0
220
0.0
230
1.0
 70
     9
 71
     3
 72
    29
 73
    25
 74
     0
 42
0.0000000001
 43
0.0000000001
 40
0.0
 40
0.0
 40
0.0
 40
0.0
 40
1.0
 40
1.0
 40
1.0
 40
2.0
 40
2.0
 40
2.0
 40
3.0
 40
3.0
 40
3.0
 40
4.0
 40
4.0
 40
4.0
 40
5.0
 40
5.0
 40
5.0
 40
6.0
 40
6.0
 40
6.0
 40
7.0
 40
7.0
 40
7.0
 40
8.0
 40
8.0
 40
8.0
 40
8.0
 10
227.9179292359486
 20
-105.3530509223993
 30
0.0
 10
227.9179292359486
 20
-105.3530509223993
 30
0.0
 10
227.9179292359486
 20
-92.35305092564944
 30
0.0
 10
227.9179292359486
 20
-92.35305092564944
 30
0.0
 10
227.9179292359486
 20
-92.07690855080294
 30
0.0
 10
228.1417868609786
 20
-91.85305092577456
 30
0.0
 10
228.4179292358244
 20
-91.85305092577456
 30
0.0
 10
228.4179292358244
 20
-91.85305092577456
 30
0.0
 10
241.4179292325747
 20
-91.85305092577456
 30
0.0
 10
241.4179292325747
 20
-91.85305092577456
 30
0.0
 10
241.6940716074205
 20
-91.85305092577456
 30
0.0
 10
241.9179292324492
 20
-92.07690855080294
 30
0.0
 10
241.9179292324492
 20
-92.35305092564944
 30
0.0
 10
241.9179292324492
 20
-92.35305092564944
 30
0.0
 10
241.9179292324492
 20
-105.3530509223993
 30
0.0
 10
241.9179292324492
 20
-105.3530509223993
 30
0.0
 10
241.9179292324492
 20
-105.6291932972458
 30
0.0
 10
241.6940716074205
 20
-105.8530509222745
 30
0.0
 10
241.4179292325747
 20
-105.8530509222745
 30
0.0
 10
241.4179292325747
 20
-105.8530509222745
 30
0.0
 10
228.4179292358244
 20
-105.8530509222745
 30
0.0
 10
228.4179292358244
 20
-105.8530509222745
 30
0.0
 10
228.1417868609786
 20
-105.8530509222745
 30
0.0
 10
227.9179292359486
 20
-105.6291932972458
 30
0.0
 10
227.9179292359486
 20
-105.3530509223993
 30
0.0
  0
SPLINE
  5
9C
330
70
100
AcDbEntity
  8
preimum
 62
    18
420
    65793
370
     5
100
AcDbSpline
210
0.0
220
0.0
230
1.0
 70
     9
 71
     3
 72
    29
 73
    25
 74
     0
 42
0.0000000001
 43
0.0000000001
 40
0.0
 40
0.0
 40
0.0
 40
0.0
 40
1.0
 40
1.0
 40
1.0
 40
2.0
 40
2.0
 40
2.0
 40
3.0
 40
3.0
 40
3.0
 40
4.0
 40
4.0
 40
4.0
 40
5.0
 40
5.0
 40
5.0
 40
6.0
 40
6.0
 40
6.0
 40
7.0
 40
7.0
 40
7.0
 40
8.0
 40
8.0
 40
8.0
 40
8.0
 10
118.0929999704753
 20
-124.4030509176365
 30
0.0
 10
118.0929999704753
 20
-124.6791932924837
 30
0.0
 10
117.8691423454472
 20
-124.9030509175124
 30
0.0
 10
117.5929999706007
 20
-124.9030509175124
 30
0.0
 10
117.5929999706007
 20
-124.9030509175124
 30
0.0
 10
104.5929999738504
 20
-124.9030509175124
 30
0.0
 10
104.5929999738504
 20
-124.9030509175124
 30
0.0
 10
104.3168575990039
 20
-124.9030509175124
 30
0.0
 10
104.0929999739752
 20
-124.6791932924824
 30
0.0
 10
104.0929999739752
 20
-124.4030509176365
 30
0.0
 10
104.0929999739752
 20
-124.4030509176365
 30
0.0
 10
104.0929999739752
 20
-111.4030509208863
 30
0.0
 10
104.0929999739752
 20
-111.4030509208863
 30
0.0
 10
104.0929999739752
 20
-111.1269085460404
 30
0.0
 10
104.3168575990039
 20
-110.9030509210117
 30
0.0
 10
104.5929999738504
 20
-110.9030509210117
 30
0.0
 10
104.5929999738504
 20
-110.9030509210117
 30
0.0
 10
117.5929999706007
 20
-110.9030509210117
 30
0.0
 10
117.5929999706007
 20
-110.9030509210117
 30
0.0
 10
117.8691423454472
 20
-110.9030509210117
 30
0.0
 10
118.0929999704753
 20
-111.1269085460404
 30
0.0
 10
118.0929999704753
 20
-111.4030509208863
 30
0.0
 10
118.0929999704753
 20
-111.4030509208863
 30
0.0
 10
118.0929999704753
 20
-124.4030509176365
 30
0.0
 10
118.0929999704753
 20
-124.4030509176365
 30
0.0
  0
SPLINE
  5
9D
330
70
100
AcDbEntity
  8
preimum
 62
    18
420
    65793
370
     5
100
AcDbSpline
210
0.0
220
0.0
230
1.0
 70
     9
 71
     3
 72
    29
 73
    25
 74
     0
 42
0.0000000001
 43
0.0000000001
 40
0.0
 40
0.0
 40
0.0
 40
0.0
 40
1.0
 40
1.0
 40
1.0
 40
2.0
 40
2.0
 40
2.0
 40
3.0
 40
3.0
 40
3.0
 40
4.0
 40
4.0
 40
4.0
 40
5.0
 40
5.0
 40
5.0
 40
6.0
 40
6.0
 40
6.0
 40
7.0
 40
7.0
 40
7.0
 40
8.0
 40
8.0
 40
8.0
 40
8.0
 10
123.6429999690879
 20
-124.9030509175124
 30
0.0
 10
123.3668575942414
 20
-124.9030509175124
 30
0.0
 10
123.1429999692127
 20
-124.6791932924837
 30
0.0
 10
123.1429999692127
 20
-124.4030509176365
 30
0.0
 10
123.1429999692127
 20
-124.4030509176365
 30
0.0
 10
123.1429999692127
 20
-111.4030509208863
 30
0.0
 10
123.1429999692127
 20
-111.4030509208863
 30
0.0
 10
123.1429999692127
 20
-111.1269085460404
 30
0.0
 10
123.3668575942414
 20
-110.9030509210117
 30
0.0
 10
123.6429999690879
 20
-110.9030509210117
 30
0.0
 10
123.6429999690879
 20
-110.9030509210117
 30
0.0
 10
136.6429999658382
 20
-110.9030509210117
 30
0.0
 10
136.6429999658382
 20
-110.9030509210117
 30
0.0
 10
136.9191423406847
 20
-110.9030509210117
 30
0.0
 10
137.1429999657134
 20
-111.1269085460404
 30
0.0
 10
137.1429999657134
 20
-111.4030509208863
 30
0.0
 10
137.1429999657134
 20
-111.4030509208863
 30
0.0
 10
137.1429999657134
 20
-124.4030509176365
 30
0.0
 10
137.1429999657134
 20
-124.4030509176365
 30
0.0
 10
137.1429999657134
 20
-124.6791932924837
 30
0.0
 10
136.9191423406847
 20
-124.9030509175124
 30
0.0
 10
136.6429999658382
 20
-124.9030509175124
 30
0.0
 10
136.6429999658382
 20
-124.9030509175124
 30
0.0
 10
123.6429999690879
 20
-124.9030509175124
 30
0.0
 10
123.6429999690879
 20
-124.9030509175124
 30
0.0
  0
SPLINE
  5
9E
330
70
100
AcDbEntity
  8
preimum
 62
    18
420
    65793
370
     5
100
AcDbSpline
210
0.0
220
0.0
230
1.0
 70
     9
 71
     3
 72
    29
 73
    25
 74
     0
 42
0.0000000001
 43
0.0000000001
 40
0.0
 40
0.0
 40
0.0
 40
0.0
 40
1.0
 40
1.0
 40
1.0
 40
2.0
 40
2.0
 40
2.0
 40
3.0
 40
3.0
 40
3.0
 40
4.0
 40
4.0
 40
4.0
 40
5.0
 40
5.0
 40
5.0
 40
6.0
 40
6.0
 40
6.0
 40
7.0
 40
7.0
 40
7.0
 40
8.0
 40
8.0
 40
8.0
 40
8.0
 10
99.04299997523779
 20
-124.4030509176365
 30
0.0
 10
99.04299997523779
 20
-124.6791932924837
 30
0.0
 10
98.81914235020907
 20
-124.9030509175124
 30
0.0
 10
98.54299997536321
 20
-124.9030509175124
 30
0.0
 10
98.54299997536321
 20
-124.9030509175124
 30
0.0
 10
85.54299997861296
 20
-124.9030509175124
 30
0.0
 10
85.54299997861296
 20
-124.9030509175124
 30
0.0
 10
85.26685760376645
 20
-124.9030509175124
 30
0.0
 10
85.04299997873776
 20
-124.6791932924837
 30
0.0
 10
85.04299997873776
 20
-124.4030509176365
 30
0.0
 10
85.04299997873776
 20
-124.4030509176365
 30
0.0
 10
85.04299997873776
 20
-111.4030509208863
 30
0.0
 10
85.04299997873776
 20
-111.4030509208863
 30
0.0
 10
85.04299997873776
 20
-111.1269085460404
 30
0.0
 10
85.26685760376645
 20
-110.9030509210117
 30
0.0
 10
85.54299997861296
 20
-110.9030509210117
 30
0.0
 10
85.54299997861296
 20
-110.9030509210117
 30
0.0
 10
98.54299997536321
 20
-110.9030509210117
 30
0.0
 10
98.54299997536321
 20
-110.9030509210117
 30
0.0
 10
98.81914235020907
 20
-110.9030509210117
 30
0.0
 10
99.04299997523779
 20
-111.1269085460404
 30
0.0
 10
99.04299997523779
 20
-111.4030509208863
 30
0.0
 10
99.04299997523779
 20
-111.4030509208863
 30
0.0
 10
99.04299997523779
 20
-124.4030509176365
 30
0.0
 10
99.04299997523779
 20
-124.4030509176365
 30
0.0
  0
SPLINE
  5
9F
330
70
100
AcDbEntity
  8
preimum
 62
    18
420
    65793
370
     5
100
AcDbSpline
210
0.0
220
0.0
230
1.0
 70
     9
 71
     3
 72
    29
 73
    25
 74
     0
 42
0.0000000001
 43
0.0000000001
 40
0.0
 40
0.0
 40
0.0
 40
0.0
 40
1.0
 40
1.0
 40
1.0
 40
2.0
 40
2.0
 40
2.0
 40
3.0
 40
3.0
 40
3.0
 40
4.0
 40
4.0
 40
4.0
 40
5.0
 40
5.0
 40
5.0
 40
6.0
 40
6.0
 40
6.0
 40
7.0
 40
7.0
 40
7.0
 40
8.0
 40
8.0
 40
8.0
 40
8.0
 10
79.49299998012506
 20
-110.9030509210117
 30
0.0
 10
79.76914235497156
 20
-110.9030509210117
 30
0.0
 10
79.99299998000028
 20
-111.1269085460404
 30
0.0
 10
79.99299998000028
 20
-111.4030509208863
 30
0.0
 10
79.99299998000028
 20
-111.4030509208863
 30
0.0
 10
79.99299998000028
 20
-124.4030509176365
 30
0.0
 10
79.99299998000028
 20
-124.4030509176365
 30
0.0
 10
79.99299998000028
 20
-124.6791932924837
 30
0.0
 10
79.76914235497156
 20
-124.9030509175124
 30
0.0
 10
79.49299998012506
 20
-124.9030509175124
 30
0.0
 10
79.49299998012506
 20
-124.9030509175124
 30
0.0
 10
66.49299998337546
 20
-124.9030509175124
 30
0.0
 10
66.49299998337546
 20
-124.9030509175124
 30
0.0
 10
66.21685760852895
 20
-124.9030509175124
 30
0.0
 10
65.99299998350024
 20
-124.6791932924837
 30
0.0
 10
65.99299998350024
 20
-124.4030509176365
 30
0.0
 10
65.99299998350024
 20
-124.4030509176365
 30
0.0
 10
65.99299998350024
 20
-111.4030509208863
 30
0.0
 10
65.99299998350024
 20
-111.4030509208863
 30
0.0
 10
65.99299998350024
 20
-111.1269085460404
 30
0.0
 10
66.21685760852895
 20
-110.9030509210117
 30
0.0
 10
66.49299998337546
 20
-110.9030509210117
 30
0.0
 10
66.49299998337546
 20
-110.9030509210117
 30
0.0
 10
79.49299998012506
 20
-110.9030509210117
 30
0.0
 10
79.49299998012506
 20
-110.9030509210117
 30
0.0
  0
SPLINE
  5
A0
330
70
100
AcDbEntity
  8
preimum
 62
    18
420
    65793
370
     5
100
AcDbSpline
210
0.0
220
0.0
230
1.0
 70
     9
 71
     3
 72
    29
 73
    25
 74
     0
 42
0.0000000001
 43
0.0000000001
 40
0.0
 40
0.0
 40
0.0
 40
0.0
 40
1.0
 40
1.0
 40
1.0
 40
2.0
 40
2.0
 40
2.0
 40
3.0
 40
3.0
 40
3.0
 40
4.0
 40
4.0
 40
4.0
 40
5.0
 40
5.0
 40
5.0
 40
6.0
 40
6.0
 40
6.0
 40
7.0
 40
7.0
 40
7.0
 40
8.0
 40
8.0
 40
8.0
 40
8.0
 10
142.192999964449
 20
-124.4030509176365
 30
0.0
 10
142.192999964449
 20
-124.4030509176365
 30
0.0
 10
142.192999964449
 20
-111.4030509208863
 30
0.0
 10
142.192999964449
 20
-111.4030509208863
 30
0.0
 10
142.192999964449
 20
-111.1269085460404
 30
0.0
 10
142.4168575894777
 20
-110.9030509210117
 30
0.0
 10
142.6929999643261
 20
-110.9030509210117
 30
0.0
 10
142.6929999643261
 20
-110.9030509210117
 30
0.0
 10
155.692999961075
 20
-110.9030509210117
 30
0.0
 10
155.692999961075
 20
-110.9030509210117
 30
0.0
 10
155.9691423359209
 20
-110.9030509210117
 30
0.0
 10
156.1929999609496
 20
-111.1269085460404
 30
0.0
 10
156.1929999609496
 20
-111.4030509208863
 30
0.0
 10
156.1929999609496
 20
-111.4030509208863
 30
0.0
 10
156.1929999609496
 20
-124.4030509176365
 30
0.0
 10
156.1929999609496
 20
-124.4030509176365
 30
0.0
 10
156.1929999609496
 20
-124.6791932924837
 30
0.0
 10
155.9691423359209
 20
-124.9030509175124
 30
0.0
 10
155.692999961075
 20
-124.9030509175124
 30
0.0
 10
155.692999961075
 20
-124.9030509175124
 30
0.0
 10
142.6929999643261
 20
-124.9030509175124
 30
0.0
 10
142.6929999643261
 20
-124.9030509175124
 30
0.0
 10
142.4168575894777
 20
-124.9030509175124
 30
0.0
 10
142.192999964449
 20
-124.6791932924837
 30
0.0
 10
142.192999964449
 20
-124.4030509176365
 30
0.0
  0
SPLINE
  5
A1
330
70
100
AcDbEntity
  8
preimum
 62
    18
420
    65793
370
     5
100
AcDbSpline
210
0.0
220
0.0
230
1.0
 70
     9
 71
     3
 72
    29
 73
    25
 74
     0
 42
0.0000000001
 43
0.0000000001
 40
0.0
 40
0.0
 40
0.0
 40
0.0
 40
1.0
 40
1.0
 40
1.0
 40
2.0
 40
2.0
 40
2.0
 40
3.0
 40
3.0
 40
3.0
 40
4.0
 40
4.0
 40
4.0
 40
5.0
 40
5.0
 40
5.0
 40
6.0
 40
6.0
 40
6.0
 40
7.0
 40
7.0
 40
7.0
 40
8.0
 40
8.0
 40
8.0
 40
8.0
 10
161.7429999595636
 20
-110.9030509210117
 30
0.0
 10
161.7429999595636
 20
-110.9030509210117
 30
0.0
 10
174.7429999563125
 20
-110.9030509210117
 30
0.0
 10
174.7429999563125
 20
-110.9030509210117
 30
0.0
 10
175.0191423311584
 20
-110.9030509210117
 30
0.0
 10
175.2429999561871
 20
-111.1269085460404
 30
0.0
 10
175.2429999561871
 20
-111.4030509208863
 30
0.0
 10
175.2429999561871
 20
-111.4030509208863
 30
0.0
 10
175.2429999561871
 20
-124.4030509176365
 30
0.0
 10
175.2429999561871
 20
-124.4030509176365
 30
0.0
 10
175.2429999561871
 20
-124.6791932924837
 30
0.0
 10
175.0191423311584
 20
-124.9030509175124
 30
0.0
 10
174.7429999563125
 20
-124.9030509175124
 30
0.0
 10
174.7429999563125
 20
-124.9030509175124
 30
0.0
 10
161.7429999595636
 20
-124.9030509175124
 30
0.0
 10
161.7429999595636
 20
-124.9030509175124
 30
0.0
 10
161.4668575847151
 20
-124.9030509175124
 30
0.0
 10
161.2429999596864
 20
-124.6791932924837
 30
0.0
 10
161.2429999596864
 20
-124.4030509176365
 30
0.0
 10
161.2429999596864
 20
-124.4030509176365
 30
0.0
 10
161.2429999596864
 20
-111.4030509208863
 30
0.0
 10
161.2429999596864
 20
-111.4030509208863
 30
0.0
 10
161.2429999596864
 20
-111.1269085460404
 30
0.0
 10
161.4668575847151
 20
-110.9030509210117
 30
0.0
 10
161.7429999595636
 20
-110.9030509210117
 30
0.0
  0
SPLINE
  5
A2
330
70
100
AcDbEntity
  8
preimum
 62
    18
420
    65793
370
     5
100
AcDbSpline
210
0.0
220
0.0
230
1.0
 70
     9
 71
     3
 72
    29
 73
    25
 74
     0
 42
0.0000000001
 43
0.0000000001
 40
0.0
 40
0.0
 40
0.0
 40
0.0
 40
1.0
 40
1.0
 40
1.0
 40
2.0
 40
2.0
 40
2.0
 40
3.0
 40
3.0
 40
3.0
 40
4.0
 40
4.0
 40
4.0
 40
5.0
 40
5.0
 40
5.0
 40
6.0
 40
6.0
 40
6.0
 40
7.0
 40
7.0
 40
7.0
 40
8.0
 40
8.0
 40
8.0
 40
8.0
 10
180.7929999547998
 20
-124.9030509175124
 30
0.0
 10
180.5168575799539
 20
-124.9030509175124
 30
0.0
 10
180.2929999549252
 20
-124.6791932924837
 30
0.0
 10
180.2929999549252
 20
-124.4030509176365
 30
0.0
 10
180.2929999549252
 20
-124.4030509176365
 30
0.0
 10
180.2929999549252
 20
-111.4030509208863
 30
0.0
 10
180.2929999549252
 20
-111.4030509208863
 30
0.0
 10
180.2929999549252
 20
-111.1269085460404
 30
0.0
 10
180.5168575799539
 20
-110.9030509210117
 30
0.0
 10
180.7929999547998
 20
-110.9030509210117
 30
0.0
 10
180.7929999547998
 20
-110.9030509210117
 30
0.0
 10
193.7929999515488
 20
-110.9030509210117
 30
0.0
 10
193.7929999515488
 20
-110.9030509210117
 30
0.0
 10
194.0691423263959
 20
-110.9030509210117
 30
0.0
 10
194.2929999514246
 20
-111.1269085460404
 30
0.0
 10
194.2929999514246
 20
-111.4030509208863
 30
0.0
 10
194.2929999514246
 20
-111.4030509208863
 30
0.0
 10
194.2929999514246
 20
-124.4030509176365
 30
0.0
 10
194.2929999514246
 20
-124.4030509176365
 30
0.0
 10
194.2929999514246
 20
-124.6791932924837
 30
0.0
 10
194.0691423263959
 20
-124.9030509175124
 30
0.0
 10
193.7929999515488
 20
-124.9030509175124
 30
0.0
 10
193.7929999515488
 20
-124.9030509175124
 30
0.0
 10
180.7929999547998
 20
-124.9030509175124
 30
0.0
 10
180.7929999547998
 20
-124.9030509175124
 30
0.0
  0
SPLINE
  5
A3
330
70
100
AcDbEntity
  8
preimum
 62
    18
420
    65793
370
     5
100
AcDbSpline
210
0.0
220
0.0
230
1.0
 70
     9
 71
     3
 72
    29
 73
    25
 74
     0
 42
0.0000000001
 43
0.0000000001
 40
0.0
 40
0.0
 40
0.0
 40
0.0
 40
1.0
 40
1.0
 40
1.0
 40
2.0
 40
2.0
 40
2.0
 40
3.0
 40
3.0
 40
3.0
 40
4.0
 40
4.0
 40
4.0
 40
5.0
 40
5.0
 40
5.0
 40
6.0
 40
6.0
 40
6.0
 40
7.0
 40
7.0
 40
7.0
 40
8.0
 40
8.0
 40
8.0
 40
8.0
 10
218.392999945399
 20
-124.4030509176365
 30
0.0
 10
218.392999945399
 20
-124.4030509176365
 30
0.0
 10
218.392999945399
 20
-111.4030509208863
 30
0.0
 10
218.392999945399
 20
-111.4030509208863
 30
0.0
 10
218.392999945399
 20
-111.1269085460404
 30
0.0
 10
218.616857570429
 20
-110.9030509210117
 30
0.0
 10
218.8929999452748
 20
-110.9030509210117
 30
0.0
 10
218.8929999452748
 20
-110.9030509210117
 30
0.0
 10
231.8929999420251
 20
-110.9030509210117
 30
0.0
 10
231.8929999420251
 20
-110.9030509210117
 30
0.0
 10
232.1691423168709
 20
-110.9030509210117
 30
0.0
 10
232.3929999418997
 20
-111.1269085460404
 30
0.0
 10
232.3929999418997
 20
-111.4030509208863
 30
0.0
 10
232.3929999418997
 20
-111.4030509208863
 30
0.0
 10
232.3929999418997
 20
-124.4030509176365
 30
0.0
 10
232.3929999418997
 20
-124.4030509176365
 30
0.0
 10
232.3929999418997
 20
-124.6791932924837
 30
0.0
 10
232.1691423168709
 20
-124.9030509175124
 30
0.0
 10
231.8929999420251
 20
-124.9030509175124
 30
0.0
 10
231.8929999420251
 20
-124.9030509175124
 30
0.0
 10
218.8929999452748
 20
-124.9030509175124
 30
0.0
 10
218.8929999452748
 20
-124.9030509175124
 30
0.0
 10
218.616857570429
 20
-124.9030509175124
 30
0.0
 10
218.392999945399
 20
-124.6791932924837
 30
0.0
 10
218.392999945399
 20
-124.4030509176365
 30
0.0
  0
SPLINE
  5
A4
330
70
100
AcDbEntity
  8
preimum
 62
    18
420
    65793
370
     5
100
AcDbSpline
210
0.0
220
0.0
230
1.0
 70
     9
 71
     3
 72
    29
 73
    25
 74
     0
 42
0.0000000001
 43
0.0000000001
 40
0.0
 40
0.0
 40
0.0
 40
0.0
 40
1.0
 40
1.0
 40
1.0
 40
2.0
 40
2.0
 40
2.0
 40
3.0
 40
3.0
 40
3.0
 40
4.0
 40
4.0
 40
4.0
 40
5.0
 40
5.0
 40
5.0
 40
6.0
 40
6.0
 40
6.0
 40
7.0
 40
7.0
 40
7.0
 40
8.0
 40
8.0
 40
8.0
 40
8.0
 10
199.3429999501614
 20
-111.4030509208863
 30
0.0
 10
199.3429999501614
 20
-111.1269085460404
 30
0.0
 10
199.5668575751914
 20
-110.9030509210117
 30
0.0
 10
199.842999950036
 20
-110.9030509210117
 30
0.0
 10
199.842999950036
 20
-110.9030509210117
 30
0.0
 10
212.8429999467876
 20
-110.9030509210117
 30
0.0
 10
212.8429999467876
 20
-110.9030509210117
 30
0.0
 10
213.1191423216334
 20
-110.9030509210117
 30
0.0
 10
213.3429999466621
 20
-111.1269085460404
 30
0.0
 10
213.3429999466621
 20
-111.4030509208863
 30
0.0
 10
213.3429999466621
 20
-111.4030509208863
 30
0.0
 10
213.3429999466621
 20
-124.4030509176365
 30
0.0
 10
213.3429999466621
 20
-124.4030509176365
 30
0.0
 10
213.3429999466621
 20
-124.6791932924837
 30
0.0
 10
213.1191423216334
 20
-124.9030509175124
 30
0.0
 10
212.8429999467876
 20
-124.9030509175124
 30
0.0
 10
212.8429999467876
 20
-124.9030509175124
 30
0.0
 10
199.842999950036
 20
-124.9030509175124
 30
0.0
 10
199.842999950036
 20
-124.9030509175124
 30
0.0
 10
199.5668575751914
 20
-124.9030509175124
 30
0.0
 10
199.3429999501614
 20
-124.6791932924837
 30
0.0
 10
199.3429999501614
 20
-124.4030509176365
 30
0.0
 10
199.3429999501614
 20
-124.4030509176365
 30
0.0
 10
199.3429999501614
 20
-111.4030509208863
 30
0.0
 10
199.3429999501614
 20
-111.4030509208863
 30
0.0
  0
SPLINE
  5
A5
330
70
100
AcDbEntity
  8
preimum
 62
    18
420
    65793
370
     5
100
AcDbSpline
210
0.0
220
0.0
230
1.0
 70
     9
 71
     3
 72
    29
 73
    25
 74
     0
 42
0.0000000001
 43
0.0000000001
 40
0.0
 40
0.0
 40
0.0
 40
0.0
 40
1.0
 40
1.0
 40
1.0
 40
2.0
 40
2.0
 40
2.0
 40
3.0
 40
3.0
 40
3.0
 40
4.0
 40
4.0
 40
4.0
 40
5.0
 40
5.0
 40
5.0
 40
6.0
 40
6.0
 40
6.0
 40
7.0
 40
7.0
 40
7.0
 40
8.0
 40
8.0
 40
8.0
 40
8.0
 10
36.63049999084197
 20
-110.9030509210117
 30
0.0
 10
36.90664236568911
 20
-110.9030509210117
 30
0.0
 10
37.13049999071782
 20
-111.1269085460404
 30
0.0
 10
37.13049999071782
 20
-111.4030509208869
 30
0.0
 10
37.13049999071782
 20
-111.4030509208869
 30
0.0
 10
37.13049999071782
 20
-124.4030509176365
 30
0.0
 10
37.13049999071782
 20
-124.4030509176365
 30
0.0
 10
37.13049999071782
 20
-124.6791932924837
 30
0.0
 10
36.90664236568911
 20
-124.9030509175124
 30
0.0
 10
36.63049999084197
 20
-124.9030509175124
 30
0.0
 10
36.63049999084197
 20
-124.9030509175124
 30
0.0
 10
23.63049999409172
 20
-124.9030509175124
 30
0.0
 10
23.63049999409172
 20
-124.9030509175124
 30
0.0
 10
23.35435761924522
 20
-124.9030509175124
 30
0.0
 10
23.13049999421715
 20
-124.679193292483
 30
0.0
 10
23.13049999421715
 20
-124.4030509176365
 30
0.0
 10
23.13049999421715
 20
-124.4030509176365
 30
0.0
 10
23.13049999421715
 20
-111.4030509208869
 30
0.0
 10
23.13049999421715
 20
-111.4030509208869
 30
0.0
 10
23.13049999421715
 20
-111.1269085460404
 30
0.0
 10
23.35435761924522
 20
-110.9030509210117
 30
0.0
 10
23.63049999409172
 20
-110.9030509210117
 30
0.0
 10
23.63049999409172
 20
-110.9030509210117
 30
0.0
 10
36.63049999084197
 20
-110.9030509210117
 30
0.0
 10
36.63049999084197
 20
-110.9030509210117
 30
0.0
  0
SPLINE
  5
A6
330
70
100
AcDbEntity
  8
preimum
 62
    18
420
    65793
370
     5
100
AcDbSpline
210
0.0
220
0.0
230
1.0
 70
     9
 71
     3
 72
    29
 73
    25
 74
     0
 42
0.0000000001
 43
0.0000000001
 40
0.0
 40
0.0
 40
0.0
 40
0.0
 40
1.0
 40
1.0
 40
1.0
 40
2.0
 40
2.0
 40
2.0
 40
3.0
 40
3.0
 40
3.0
 40
4.0
 40
4.0
 40
4.0
 40
5.0
 40
5.0
 40
5.0
 40
6.0
 40
6.0
 40
6.0
 40
7.0
 40
7.0
 40
7.0
 40
8.0
 40
8.0
 40
8.0
 40
8.0
 10
255.7054999360732
 20
-110.9030509210117
 30
0.0
 10
255.9816423109204
 20
-110.9030509210117
 30
0.0
 10
256.2054999359491
 20
-111.1269085460404
 30
0.0
 10
256.2054999359491
 20
-111.4030509208869
 30
0.0
 10
256.2054999359491
 20
-111.4030509208869
 30
0.0
 10
256.2054999359491
 20
-124.4030509176365
 30
0.0
 10
256.2054999359491
 20
-124.4030509176365
 30
0.0
 10
256.2054999359491
 20
-124.6791932924837
 30
0.0
 10
255.9816423109204
 20
-124.9030509175124
 30
0.0
 10
255.7054999360732
 20
-124.9030509175124
 30
0.0
 10
255.7054999360732
 20
-124.9030509175124
 30
0.0
 10
242.705499939323
 20
-124.9030509175124
 30
0.0
 10
242.705499939323
 20
-124.9030509175124
 30
0.0
 10
242.4293575644765
 20
-124.9030509175124
 30
0.0
 10
242.2054999394484
 20
-124.679193292483
 30
0.0
 10
242.2054999394484
 20
-124.4030509176365
 30
0.0
 10
242.2054999394484
 20
-124.4030509176365
 30
0.0
 10
242.2054999394484
 20
-111.4030509208869
 30
0.0
 10
242.2054999394484
 20
-111.4030509208869
 30
0.0
 10
242.2054999394484
 20
-111.1269085460404
 30
0.0
 10
242.4293575644765
 20
-110.9030509210117
 30
0.0
 10
242.705499939323
 20
-110.9030509210117
 30
0.0
 10
242.705499939323
 20
-110.9030509210117
 30
0.0
 10
255.7054999360732
 20
-110.9030509210117
 30
0.0
 10
255.7054999360732
 20
-110.9030509210117
 30
0.0
  0
SPLINE
  5
A7
330
70
100
AcDbEntity
  8
preimum
 62
    18
420
    65793
370
     5
100
AcDbSpline
210
0.0
220
0.0
230
1.0
 70
     9
 71
     3
 72
    29
 73
    25
 74
     0
 42
0.0000000001
 43
0.0000000001
 40
0.0
 40
0.0
 40
0.0
 40
0.0
 40
1.0
 40
1.0
 40
1.0
 40
2.0
 40
2.0
 40
2.0
 40
3.0
 40
3.0
 40
3.0
 40
4.0
 40
4.0
 40
4.0
 40
5.0
 40
5.0
 40
5.0
 40
6.0
 40
6.0
 40
6.0
 40
7.0
 40
7.0
 40
7.0
 40
8.0
 40
8.0
 40
8.0
 40
8.0
 10
100.9242499747672
 20
-129.9530423157373
 30
0.0
 10
101.2003923496144
 20
-129.9530423157373
 30
0.0
 10
101.4242499746431
 20
-130.176899940766
 30
0.0
 10
101.4242499746431
 20
-130.4530423156125
 30
0.0
 10
101.4242499746431
 20
-130.4530423156125
 30
0.0
 10
101.4242499746431
 20
-143.4530423123621
 30
0.0
 10
101.4242499746431
 20
-143.4530423123621
 30
0.0
 10
101.4242499746431
 20
-143.7291846872092
 30
0.0
 10
101.2003923496144
 20
-143.953042312238
 30
0.0
 10
100.9242499747672
 20
-143.953042312238
 30
0.0
 10
100.9242499747672
 20
-143.953042312238
 30
0.0
 10
87.92424997801731
 20
-143.953042312238
 30
0.0
 10
87.92424997801731
 20
-143.953042312238
 30
0.0
 10
87.64810760317082
 20
-143.953042312238
 30
0.0
 10
87.42424997814275
 20
-143.7291846872086
 30
0.0
 10
87.42424997814275
 20
-143.4530423123621
 30
0.0
 10
87.42424997814275
 20
-143.4530423123621
 30
0.0
 10
87.42424997814275
 20
-130.4530423156125
 30
0.0
 10
87.42424997814275
 20
-130.4530423156125
 30
0.0
 10
87.42424997814275
 20
-130.176899940766
 30
0.0
 10
87.64810760317082
 20
-129.9530423157373
 30
0.0
 10
87.92424997801731
 20
-129.9530423157373
 30
0.0
 10
87.92424997801731
 20
-129.9530423157373
 30
0.0
 10
100.9242499747672
 20
-129.9530423157373
 30
0.0
 10
100.9242499747672
 20
-129.9530423157373
 30
0.0
  0
SPLINE
  5
A8
330
70
100
AcDbEntity
  8
preimum
 62
    18
420
    65793
370
     5
100
AcDbSpline
210
0.0
220
0.0
230
1.0
 70
     9
 71
     3
 72
    29
 73
    25
 74
     0
 42
0.0000000001
 43
0.0000000001
 40
0.0
 40
0.0
 40
0.0
 40
0.0
 40
1.0
 40
1.0
 40
1.0
 40
2.0
 40
2.0
 40
2.0
 40
3.0
 40
3.0
 40
3.0
 40
4.0
 40
4.0
 40
4.0
 40
5.0
 40
5.0
 40
5.0
 40
6.0
 40
6.0
 40
6.0
 40
7.0
 40
7.0
 40
7.0
 40
8.0
 40
8.0
 40
8.0
 40
8.0
 10
129.4992499676235
 20
-129.9530423157373
 30
0.0
 10
129.7753923424706
 20
-129.9530423157373
 30
0.0
 10
129.9992499674993
 20
-130.176899940766
 30
0.0
 10
129.9992499674993
 20
-130.4530423156125
 30
0.0
 10
129.9992499674993
 20
-130.4530423156125
 30
0.0
 10
129.9992499674993
 20
-143.4530423123621
 30
0.0
 10
129.9992499674993
 20
-143.4530423123621
 30
0.0
 10
129.9992499674993
 20
-143.7291846872092
 30
0.0
 10
129.7753923424706
 20
-143.953042312238
 30
0.0
 10
129.4992499676235
 20
-143.953042312238
 30
0.0
 10
129.4992499676235
 20
-143.953042312238
 30
0.0
 10
116.4992499708732
 20
-143.953042312238
 30
0.0
 10
116.4992499708732
 20
-143.953042312238
 30
0.0
 10
116.2231075960267
 20
-143.953042312238
 30
0.0
 10
115.9992499709987
 20
-143.7291846872086
 30
0.0
 10
115.9992499709987
 20
-143.4530423123621
 30
0.0
 10
115.9992499709987
 20
-143.4530423123621
 30
0.0
 10
115.9992499709987
 20
-130.4530423156125
 30
0.0
 10
115.9992499709987
 20
-130.4530423156125
 30
0.0
 10
115.9992499709987
 20
-130.176899940766
 30
0.0
 10
116.2231075960267
 20
-129.9530423157373
 30
0.0
 10
116.4992499708732
 20
-129.9530423157373
 30
0.0
 10
116.4992499708732
 20
-129.9530423157373
 30
0.0
 10
129.4992499676235
 20
-129.9530423157373
 30
0.0
 10
129.4992499676235
 20
-129.9530423157373
 30
0.0
  0
SPLINE
  5
A9
330
70
100
AcDbEntity
  8
preimum
 62
    18
420
    65793
370
     5
100
AcDbSpline
210
0.0
220
0.0
230
1.0
 70
     9
 71
     3
 72
    29
 73
    25
 74
     0
 42
0.0000000001
 43
0.0000000001
 40
0.0
 40
0.0
 40
0.0
 40
0.0
 40
1.0
 40
1.0
 40
1.0
 40
2.0
 40
2.0
 40
2.0
 40
3.0
 40
3.0
 40
3.0
 40
4.0
 40
4.0
 40
4.0
 40
5.0
 40
5.0
 40
5.0
 40
6.0
 40
6.0
 40
6.0
 40
7.0
 40
7.0
 40
7.0
 40
8.0
 40
8.0
 40
8.0
 40
8.0
 10
162.8367499592878
 20
-129.9530423157373
 30
0.0
 10
163.112892334135
 20
-129.9530423157373
 30
0.0
 10
163.3367499591637
 20
-130.176899940766
 30
0.0
 10
163.3367499591637
 20
-130.4530423156125
 30
0.0
 10
163.3367499591637
 20
-130.4530423156125
 30
0.0
 10
163.3367499591637
 20
-143.4530423123621
 30
0.0
 10
163.3367499591637
 20
-143.4530423123621
 30
0.0
 10
163.3367499591637
 20
-143.7291846872092
 30
0.0
 10
163.112892334135
 20
-143.953042312238
 30
0.0
 10
162.8367499592878
 20
-143.953042312238
 30
0.0
 10
162.8367499592878
 20
-143.953042312238
 30
0.0
 10
149.8367499625376
 20
-143.953042312238
 30
0.0
 10
149.8367499625376
 20
-143.953042312238
 30
0.0
 10
149.5606075876911
 20
-143.953042312238
 30
0.0
 10
149.336749962663
 20
-143.7291846872086
 30
0.0
 10
149.336749962663
 20
-143.4530423123621
 30
0.0
 10
149.336749962663
 20
-143.4530423123621
 30
0.0
 10
149.336749962663
 20
-130.4530423156125
 30
0.0
 10
149.336749962663
 20
-130.4530423156125
 30
0.0
 10
149.336749962663
 20
-130.176899940766
 30
0.0
 10
149.5606075876911
 20
-129.9530423157373
 30
0.0
 10
149.8367499625376
 20
-129.9530423157373
 30
0.0
 10
149.8367499625376
 20
-129.9530423157373
 30
0.0
 10
162.8367499592878
 20
-129.9530423157373
 30
0.0
 10
162.8367499592878
 20
-129.9530423157373
 30
0.0
  0
SPLINE
  5
AA
330
70
100
AcDbEntity
  8
preimum
 62
    18
420
    65793
370
     5
100
AcDbSpline
210
0.0
220
0.0
230
1.0
 70
     9
 71
     3
 72
    29
 73
    25
 74
     0
 42
0.0000000001
 43
0.0000000001
 40
0.0
 40
0.0
 40
0.0
 40
0.0
 40
1.0
 40
1.0
 40
1.0
 40
2.0
 40
2.0
 40
2.0
 40
3.0
 40
3.0
 40
3.0
 40
4.0
 40
4.0
 40
4.0
 40
5.0
 40
5.0
 40
5.0
 40
6.0
 40
6.0
 40
6.0
 40
7.0
 40
7.0
 40
7.0
 40
8.0
 40
8.0
 40
8.0
 40
8.0
 10
191.4117499521441
 20
-129.9530423157373
 30
0.0
 10
191.6878923269912
 20
-129.9530423157373
 30
0.0
 10
191.9117499520199
 20
-130.176899940766
 30
0.0
 10
191.9117499520199
 20
-130.4530423156125
 30
0.0
 10
191.9117499520199
 20
-130.4530423156125
 30
0.0
 10
191.9117499520199
 20
-143.4530423123621
 30
0.0
 10
191.9117499520199
 20
-143.4530423123621
 30
0.0
 10
191.9117499520199
 20
-143.7291846872092
 30
0.0
 10
191.6878923269912
 20
-143.953042312238
 30
0.0
 10
191.4117499521441
 20
-143.953042312238
 30
0.0
 10
191.4117499521441
 20
-143.953042312238
 30
0.0
 10
178.4117499553938
 20
-143.953042312238
 30
0.0
 10
178.4117499553938
 20
-143.953042312238
 30
0.0
 10
178.1356075805473
 20
-143.953042312238
 30
0.0
 10
177.9117499555193
 20
-143.7291846872086
 30
0.0
 10
177.9117499555193
 20
-143.4530423123621
 30
0.0
 10
177.9117499555193
 20
-143.4530423123621
 30
0.0
 10
177.9117499555193
 20
-130.4530423156125
 30
0.0
 10
177.9117499555193
 20
-130.4530423156125
 30
0.0
 10
177.9117499555193
 20
-130.176899940766
 30
0.0
 10
178.1356075805473
 20
-129.9530423157373
 30
0.0
 10
178.4117499553938
 20
-129.9530423157373
 30
0.0
 10
178.4117499553938
 20
-129.9530423157373
 30
0.0
 10
191.4117499521441
 20
-129.9530423157373
 30
0.0
 10
191.4117499521441
 20
-129.9530423157373
 30
0.0
  0
LINE
  5
AB
330
70
100
AcDbEntity
  8
preimum
 62
   250
420
  2301728
370
     5
100
AcDbLine
 10
70.71792927524931
 20
-77.0528366437602
 30
0.0
 11
75.2679292741119
 21
-77.0528366437602
 31
0.0
  0
SPLINE
  5
AC
330
70
100
AcDbEntity
  8
preimum
 62
   250
420
  2301728
370
     5
100
AcDbSpline
210
0.0
220
0.0
230
1.0
 70
     8
 71
     3
 72
     8
 73
     4
 74
     0
 42
0.0000000001
 43
0.0000000001
 40
0.0
 40
0.0
 40
0.0
 40
0.0
 40
1.0
 40
1.0
 40
1.0
 40
1.0
 10
70.71792927524931
 20
-77.0528366437602
 30
0.0
 10
70.57985808783377
 20
-77.0528366437602
 30
0.0
 10
70.46792927531171
 20
-76.94090783123815
 30
0.0
 10
70.46792927531171
 20
-76.80283664382291
 30
0.0
  0
SPLINE
  5
AD
330
70
100
AcDbEntity
  8
preimum
 62
   250
420
  2301728
370
     5
100
AcDbSpline
210
0.0
220
0.0
230
1.0
 70
     8
 71
     3
 72
     8
 73
     4
 74
     0
 42
0.0000000001
 43
0.0000000001
 40
0.0
 40
0.0
 40
0.0
 40
0.0
 40
1.0
 40
1.0
 40
1.0
 40
1.0
 10
75.51792927404919
 20
-76.80283664382291
 30
0.0
 10
75.51792927404919
 20
-76.94090783123815
 30
0.0
 10
75.40600046152713
 20
-77.0528366437602
 30
0.0
 10
75.2679292741119
 20
-77.0528366437602
 30
0.0
  0
SPLINE
  5
AE
330
70
100
AcDbEntity
  8
preimum
 62
   250
420
  2301728
370
     5
100
AcDbSpline
210
0.0
220
0.0
230
1.0
 70
     8
 71
     3
 72
     8
 73
     4
 74
     0
 42
0.0000000001
 43
0.0000000001
 40
0.0
 40
0.0
 40
0.0
 40
0.0
 40
1.0
 40
1.0
 40
1.0
 40
1.0
 10
70.46792927531171
 20
-82.80326521375057
 30
0.0
 10
70.46792927531171
 20
-82.66519402633534
 30
0.0
 10
70.57985808783377
 20
-82.55326521381329
 30
0.0
 10
70.71792927524899
 20
-82.55326521381329
 30
0.0
  0
SPLINE
  5
AF
330
70
100
AcDbEntity
  8
preimum
 62
   250
420
  2301728
370
     5
100
AcDbSpline
210
0.0
220
0.0
230
1.0
 70
     8
 71
     3
 72
     8
 73
     4
 74
     0
 42
0.0000000001
 43
0.0000000001
 40
0.0
 40
0.0
 40
0.0
 40
0.0
 40
1.0
 40
1.0
 40
1.0
 40
1.0
 10
75.26792927411158
 20
-82.55326521381329
 30
0.0
 10
75.40600046152713
 20
-82.55326521381329
 30
0.0
 10
75.51792927404919
 20
-82.66519402633534
 30
0.0
 10
75.51792927404919
 20
-82.80326521375057
 30
0.0
  0
LINE
  5
B0
330
70
100
AcDbEntity
  8
preimum
 62
   250
420
  2301728
370
     5
100
AcDbLine
 10
70.71792927524931
 20
-82.55326521381329
 30
0.0
 11
75.2679292741119
 21
-82.55326521381329
 31
0.0
  0
SPLINE
  5
B1
330
70
100
AcDbEntity
  8
preimum
 62
    18
420
    65793
370
     5
100
AcDbSpline
210
0.0
220
0.0
230
1.0
 70
     9
 71
     3
 72
    29
 73
    25
 74
     0
 42
0.0000000001
 43
0.0000000001
 40
0.0
 40
0.0
 40
0.0
 40
0.0
 40
1.0
 40
1.0
 40
1.0
 40
2.0
 40
2.0
 40
2.0
 40
3.0
 40
3.0
 40
3.0
 40
4.0
 40
4.0
 40
4.0
 40
5.0
 40
5.0
 40
5.0
 40
6.0
 40
6.0
 40
6.0
 40
7.0
 40
7.0
 40
7.0
 40
8.0
 40
8.0
 40
8.0
 40
8.0
 10
58.07378966801945
 20
-143.953042312238
 30
0.0
 10
58.07378966801945
 20
-143.953042312238
 30
0.0
 10
42.68078967186765
 20
-143.953042312238
 30
0.0
 10
42.68078967186765
 20
-143.953042312238
 30
0.0
 10
42.40464729702147
 20
-143.953042312238
 30
0.0
 10
42.18078967199276
 20
-143.7291846872092
 30
0.0
 10
42.18078967199276
 20
-143.4530423123628
 30
0.0
 10
42.18078967199276
 20
-143.4530423123628
 30
0.0
 10
42.18078967199276
 20
-130.4530423156125
 30
0.0
 10
42.18078967199276
 20
-130.4530423156125
 30
0.0
 10
42.18078967199276
 20
-130.176899940766
 30
0.0
 10
42.40464729702147
 20
-129.9530423157373
 30
0.0
 10
42.68078967186765
 20
-129.9530423157373
 30
0.0
 10
42.68078967186765
 20
-129.9530423157373
 30
0.0
 10
58.07378966801945
 20
-129.9530423157373
 30
0.0
 10
58.07378966801945
 20
-129.9530423157373
 30
0.0
 10
58.34993204286562
 20
-129.9530423157373
 30
0.0
 10
58.57378966789434
 20
-130.176899940766
 30
0.0
 10
58.57378966789434
 20
-130.4530423156125
 30
0.0
 10
58.57378966789434
 20
-130.4530423156125
 30
0.0
 10
58.57378966789434
 20
-143.4530423123628
 30
0.0
 10
58.57378966789434
 20
-143.4530423123628
 30
0.0
 10
58.57378966789434
 20
-143.7291846872092
 30
0.0
 10
58.34993204286562
 20
-143.953042312238
 30
0.0
 10
58.07378966801945
 20
-143.953042312238
 30
0.0
  0
SPLINE
  5
B2
330
70
100
AcDbEntity
  8
preimum
 62
    18
420
    65793
370
     5
100
AcDbSpline
210
0.0
220
0.0
230
1.0
 70
     9
 71
     3
 72
    29
 73
    25
 74
     0
 42
0.0000000001
 43
0.0000000001
 40
0.0
 40
0.0
 40
0.0
 40
0.0
 40
1.0
 40
1.0
 40
1.0
 40
2.0
 40
2.0
 40
2.0
 40
3.0
 40
3.0
 40
3.0
 40
4.0
 40
4.0
 40
4.0
 40
5.0
 40
5.0
 40
5.0
 40
6.0
 40
6.0
 40
6.0
 40
7.0
 40
7.0
 40
7.0
 40
8.0
 40
8.0
 40
8.0
 40
8.0
 10
79.50524998012244
 20
-143.953042312238
 30
0.0
 10
79.50524998012244
 20
-143.953042312238
 30
0.0
 10
64.11224998397064
 20
-143.953042312238
 30
0.0
 10
64.11224998397064
 20
-143.953042312238
 30
0.0
 10
63.83610760912446
 20
-143.953042312238
 30
0.0
 10
63.61224998409575
 20
-143.7291846872092
 30
0.0
 10
63.61224998409575
 20
-143.4530423123628
 30
0.0
 10
63.61224998409575
 20
-143.4530423123628
 30
0.0
 10
63.61224998409575
 20
-130.4530423156125
 30
0.0
 10
63.61224998409575
 20
-130.4530423156125
 30
0.0
 10
63.61224998409575
 20
-130.176899940766
 30
0.0
 10
63.83610760912446
 20
-129.9530423157373
 30
0.0
 10
64.11224998397064
 20
-129.9530423157373
 30
0.0
 10
64.11224998397064
 20
-129.9530423157373
 30
0.0
 10
79.50524998012244
 20
-129.9530423157373
 30
0.0
 10
79.50524998012244
 20
-129.9530423157373
 30
0.0
 10
79.78139235496861
 20
-129.9530423157373
 30
0.0
 10
80.00524997999733
 20
-130.176899940766
 30
0.0
 10
80.00524997999733
 20
-130.4530423156125
 30
0.0
 10
80.00524997999733
 20
-130.4530423156125
 30
0.0
 10
80.00524997999733
 20
-143.4530423123628
 30
0.0
 10
80.00524997999733
 20
-143.4530423123628
 30
0.0
 10
80.00524997999733
 20
-143.7291846872092
 30
0.0
 10
79.78139235496861
 20
-143.953042312238
 30
0.0
 10
79.50524998012244
 20
-143.953042312238
 30
0.0
  0
SPLINE
  5
B3
330
70
100
AcDbEntity
  8
preimum
 62
    18
420
    65793
370
     5
100
AcDbSpline
210
0.0
220
0.0
230
1.0
 70
     9
 71
     3
 72
    29
 73
    25
 74
     0
 42
0.0000000001
 43
0.0000000001
 40
0.0
 40
0.0
 40
0.0
 40
0.0
 40
1.0
 40
1.0
 40
1.0
 40
2.0
 40
2.0
 40
2.0
 40
3.0
 40
3.0
 40
3.0
 40
4.0
 40
4.0
 40
4.0
 40
5.0
 40
5.0
 40
5.0
 40
6.0
 40
6.0
 40
6.0
 40
7.0
 40
7.0
 40
7.0
 40
8.0
 40
8.0
 40
8.0
 40
8.0
 10
215.2237499461921
 20
-143.953042312238
 30
0.0
 10
215.2237499461921
 20
-143.953042312238
 30
0.0
 10
199.8307499500399
 20
-143.953042312238
 30
0.0
 10
199.8307499500399
 20
-143.953042312238
 30
0.0
 10
199.5546075751941
 20
-143.953042312238
 30
0.0
 10
199.3307499501653
 20
-143.7291846872092
 30
0.0
 10
199.3307499501653
 20
-143.4530423123628
 30
0.0
 10
199.3307499501653
 20
-143.4530423123628
 30
0.0
 10
199.3307499501653
 20
-130.4530423156125
 30
0.0
 10
199.3307499501653
 20
-130.4530423156125
 30
0.0
 10
199.3307499501653
 20
-130.176899940766
 30
0.0
 10
199.5546075751941
 20
-129.9530423157373
 30
0.0
 10
199.8307499500399
 20
-129.9530423157373
 30
0.0
 10
199.8307499500399
 20
-129.9530423157373
 30
0.0
 10
215.2237499461921
 20
-129.9530423157373
 30
0.0
 10
215.2237499461921
 20
-129.9530423157373
 30
0.0
 10
215.4998923210379
 20
-129.9530423157373
 30
0.0
 10
215.7237499460666
 20
-130.176899940766
 30
0.0
 10
215.7237499460666
 20
-130.4530423156125
 30
0.0
 10
215.7237499460666
 20
-130.4530423156125
 30
0.0
 10
215.7237499460666
 20
-143.4530423123628
 30
0.0
 10
215.7237499460666
 20
-143.4530423123628
 30
0.0
 10
215.7237499460666
 20
-143.7291846872092
 30
0.0
 10
215.4998923210379
 20
-143.953042312238
 30
0.0
 10
215.2237499461921
 20
-143.953042312238
 30
0.0
  0
SPLINE
  5
B4
330
70
100
AcDbEntity
  8
preimum
 62
    18
420
    65793
370
     5
100
AcDbSpline
210
0.0
220
0.0
230
1.0
 70
     9
 71
     3
 72
    29
 73
    25
 74
     0
 42
0.0000000001
 43
0.0000000001
 40
0.0
 40
0.0
 40
0.0
 40
0.0
 40
1.0
 40
1.0
 40
1.0
 40
2.0
 40
2.0
 40
2.0
 40
3.0
 40
3.0
 40
3.0
 40
4.0
 40
4.0
 40
4.0
 40
5.0
 40
5.0
 40
5.0
 40
6.0
 40
6.0
 40
6.0
 40
7.0
 40
7.0
 40
7.0
 40
8.0
 40
8.0
 40
8.0
 40
8.0
 10
236.6552102582951
 20
-143.953042312238
 30
0.0
 10
236.6552102582951
 20
-143.953042312238
 30
0.0
 10
221.2622102621429
 20
-143.953042312238
 30
0.0
 10
221.2622102621429
 20
-143.953042312238
 30
0.0
 10
220.9860678872971
 20
-143.953042312238
 30
0.0
 10
220.7622102622683
 20
-143.7291846872092
 30
0.0
 10
220.7622102622683
 20
-143.4530423123628
 30
0.0
 10
220.7622102622683
 20
-143.4530423123628
 30
0.0
 10
220.7622102622683
 20
-130.4530423156125
 30
0.0
 10
220.7622102622683
 20
-130.4530423156125
 30
0.0
 10
220.7622102622683
 20
-130.176899940766
 30
0.0
 10
220.9860678872971
 20
-129.9530423157373
 30
0.0
 10
221.2622102621429
 20
-129.9530423157373
 30
0.0
 10
221.2622102621429
 20
-129.9530423157373
 30
0.0
 10
236.6552102582951
 20
-129.9530423157373
 30
0.0
 10
236.6552102582951
 20
-129.9530423157373
 30
0.0
 10
236.9313526331409
 20
-129.9530423157373
 30
0.0
 10
237.1552102581696
 20
-130.176899940766
 30
0.0
 10
237.1552102581696
 20
-130.4530423156125
 30
0.0
 10
237.1552102581696
 20
-130.4530423156125
 30
0.0
 10
237.1552102581696
 20
-143.4530423123628
 30
0.0
 10
237.1552102581696
 20
-143.4530423123628
 30
0.0
 10
237.1552102581696
 20
-143.7291846872092
 30
0.0
 10
236.9313526331409
 20
-143.953042312238
 30
0.0
 10
236.6552102582951
 20
-143.953042312238
 30
0.0
  0
INSERT
  5
B6
330
70
100
AcDbEntity
  8
preimum
100
AcDbBlockReference
  2
Block_2
 10
0.0
 20
0.0
 30
0.0
  0
INSERT
  5
C6
330
70
100
AcDbEntity
  8
preimum
100
AcDbBlockReference
  2
Block_5
 10
0.0
 20
0.0
 30
0.0
  0
ENDSEC
  0
SECTION
  2
OBJECTS
  0
DICTIONARY
  5
C
330
0
100
AcDbDictionary
281
     1
  3
ACAD_COLOR
350
63
  3
ACAD_DETAILVIEWSTYLE
350
6A
  3
ACAD_GROUP
350
D
  3
ACAD_LAYOUT
350
62
  3
ACAD_MATERIAL
350
10
  3
ACAD_MLEADERSTYLE
350
66
  3
ACAD_MLINESTYLE
350
5F
  3
ACAD_PLOTSETTINGS
350
61
  3
ACAD_PLOTSTYLENAME
350
E
  3
ACAD_SCALELIST
350
42
  3
ACAD_SECTIONVIEWSTYLE
350
68
  3
ACAD_TABLESTYLE
350
64
  3
ACAD_VISUALSTYLE
350
29
  3
ACDB_RECOMPOSE_DATA
350
D6
  3
AcDbVariableDictionary
350
CE
  0
DICTIONARY
  5
63
102
{ACAD_REACTORS
330
C
102
}
330
C
100
AcDbDictionary
281
     1
  0
DICTIONARY
  5
6A
102
{ACAD_REACTORS
330
C
102
}
330
C
100
AcDbDictionary
281
     1
  3
Imperial24
350
6B
  0
DICTIONARY
  5
D
102
{ACAD_REACTORS
330
C
102
}
330
C
100
AcDbDictionary
281
     1
  0
DICTIONARY
  5
62
102
{ACAD_REACTORS
330
C
102
}
330
C
100
AcDbDictionary
281
     1
  3
Layout1
350
6F
  3
Layout2
350
77
  3
Model
350
73
  0
DICTIONARY
  5
10
102
{ACAD_REACTORS
330
C
102
}
330
C
100
AcDbDictionary
281
     1
  3
ByBlock
350
19
  3
ByLayer
350
11
  3
Global
350
21
  0
DICTIONARY
  5
66
102
{ACAD_REACTORS
330
C
102
}
330
C
100
AcDbDictionary
281
     1
  3
Standard
350
67
  0
DICTIONARY
  5
5F
102
{ACAD_REACTORS
330
C
102
}
330
C
100
AcDbDictionary
281
     1
  3
Standard
350
60
  0
DICTIONARY
  5
61
102
{ACAD_REACTORS
330
C
102
}
330
C
100
AcDbDictionary
281
     1
  0
ACDBDICTIONARYWDFLT
  5
E
102
{ACAD_REACTORS
330
C
102
}
330
C
100
AcDbDictionary
281
     1
  3
Normal
350
F
100
AcDbDictionaryWithDefault
340
F
  0
DICTIONARY
  5
42
102
{ACAD_REACTORS
330
C
102
}
330
C
100
AcDbDictionary
281
     1
  3
A0
350
43
  3
A1
350
44
  3
A2
350
45
  3
A3
350
46
  3
A4
350
47
  3
A5
350
48
  3
A6
350
49
  3
A7
350
4A
  3
A8
350
4B
  3
A9
350
4C
  3
B0
350
4D
  3
B1
350
4E
  3
B2
350
4F
  3
B3
350
50
  3
B4
350
51
  3
B5
350
52
  3
B6
350
53
  0
DICTIONARY
  5
68
102
{ACAD_REACTORS
330
C
102
}
330
C
100
AcDbDictionary
281
     1
  3
Imperial24
350
69
  0
DICTIONARY
  5
64
102
{ACAD_REACTORS
330
C
102
}
330
C
100
AcDbDictionary
281
     1
  3
Standard
350
65
  0
DICTIONARY
  5
29
102
{ACAD_REACTORS
330
C
102
}
330
C
100
AcDbDictionary
281
     1
  3
2dWireframe
350
2F
  3
Basic
350
2E
  3
Brighten
350
35
  3
ColorChange
350
39
  3
Conceptual
350
32
  3
Dim
350
34
  3
EdgeColorOff
350
41
  3
Facepattern
350
38
  3
Flat
350
2A
  3
FlatWithEdges
350
2B
  3
Gouraud
350
2C
  3
GouraudWithEdges
350
2D
  3
Hidden
350
31
  3
JitterOff
350
3F
  3
Linepattern
350
37
  3
OverhangOff
350
40
  3
Realistic
350
33
  3
Shaded
350
3E
  3
Shaded with edges
350
3D
  3
Shades of Gray
350
3A
  3
Sketchy
350
3B
  3
Thicken
350
36
  3
Wireframe
350
30
  3
X-Ray
350
3C
  0
XRECORD
  5
D6
102
{ACAD_REACTORS
330
C
102
}
330
C
100
AcDbXrecord
280
     1
 90
        1
330
65
  0
DICTIONARY
  5
CE
102
{ACAD_REACTORS
330
C
102
}
330
C
100
AcDbDictionary
281
     1
  3
CANNOSCALE
350
D3
  3
CMLEADERSTYLE
350
D0
  3
CTABLESTYLE
350
CF
  3
CVIEWDETAILSTYLE
350
D1
  3
CVIEWSECTIONSTYLE
350
D2
  0
ACDBDETAILVIEWSTYLE
  5
6B
102
{ACAD_REACTORS
330
6A
102
}
330
6A
100
AcDbModelDocViewStyle
 70
     0
  3
Imperial24
290
     1
300
Imperial24
 90
        0
100
AcDbDetailViewStyle
 70
     0
 71
     0
 90
        3
 71
     1
340
55
 62
   256
 40
0.24
340
0
 62
   256
 40
0.24
300

 40
0.36
280
     3
 71
     2
340
5D
 90
       25
 62
   256
 71
     3
340
55
 62
   256
 40
0.24
 90
        1
 40
0.75
 90
        1
300
%<\AcVar ViewType \f "%tc1">% %<\AcVar ViewDetailId>%\PSCALE %<\AcVar ViewScale \f "%sn">%
 71
     4
340
5D
 90
       25
 62
   256
340
5D
 90
       25
 62
   256
280
     0
  0
LAYOUT
  5
6F
102
{ACAD_REACTORS
330
62
102
}
330
62
100
AcDbPlotSettings
  1

  2

  4

  6

 40
0.0
 41
0.0
 42
0.0
 43
0.0
 44
0.0
 45
0.0
 46
0.0
 47
0.0
 48
0.0
 49
0.0
140
0.0
141
0.0
142
1.0
143
1.0
 70
   688
 72
     0
 73
     0
 74
     5
  7

 75
    16
147
1.0
 76
     0
 77
     2
 78
   300
148
0.0
149
0.0
100
AcDbLayout
  1
Layout1
 70
     1
 71
     1
 10
0.0
 20
0.0
 11
12.0
 21
9.0
 12
0.0
 22
0.0
 32
0.0
 14
0.0
 24
0.0
 34
0.0
 15
0.0
 25
0.0
 35
0.0
146
0.0
 13
0.0
 23
0.0
 33
0.0
 16
1.0
 26
0.0
 36
0.0
 17
0.0
 27
1.0
 37
0.0
 76
     0
330
6C
  0
LAYOUT
  5
77
102
{ACAD_REACTORS
330
62
102
}
330
62
100
AcDbPlotSettings
  1

  2

  4

  6

 40
0.0
 41
0.0
 42
0.0
 43
0.0
 44
0.0
 45
0.0
 46
0.0
 47
0.0
 48
0.0
 49
0.0
140
0.0
141
0.0
142
1.0
143
1.0
 70
   688
 72
     0
 73
     0
 74
     5
  7

 75
    16
147
1.0
 76
     0
 77
     2
 78
   300
148
0.0
149
0.0
100
AcDbLayout
  1
Layout2
 70
     1
 71
     2
 10
0.0
 20
0.0
 11
12.0
 21
9.0
 12
0.0
 22
0.0
 32
0.0
 14
0.0
 24
0.0
 34
0.0
 15
0.0
 25
0.0
 35
0.0
146
0.0
 13
0.0
 23
0.0
 33
0.0
 16
1.0
 26
0.0
 36
0.0
 17
0.0
 27
1.0
 37
0.0
 76
     0
330
74
  0
LAYOUT
  5
73
102
{ACAD_REACTORS
330
62
102
}
330
62
100
AcDbPlotSettings
  1

  2

  4

  6

 40
0.0
 41
0.0
 42
0.0
 43
0.0
 44
0.0
 45
0.0
 46
0.0
 47
0.0
 48
0.0
 49
0.0
140
0.0
141
0.0
142
1.0
143
1.0
 70
  1712
 72
     0
 73
     0
 74
     0
  7

 75
     0
147
1.0
 76
     0
 77
     2
 78
   300
148
0.0
149
0.0
100
AcDbLayout
  1
Model
 70
     1
 71
     0
 10
0.0
 20
0.0
 11
12.0
 21
9.0
 12
0.0
 22
0.0
 32
0.0
 14
0.0
 24
0.0
 34
0.0
 15
0.0
 25
0.0
 35
0.0
146
0.0
 13
0.0
 23
0.0
 33
0.0
 16
1.0
 26
0.0
 36
0.0
 17
0.0
 27
1.0
 37
0.0
 76
     0
330
70
  0
MATERIAL
  5
19
102
{ACAD_XDICTIONARY
360
1A
102
}
102
{ACAD_REACTORS
330
10
102
}
330
10
100
AcDbMaterial
  1
ByBlock
 72
     0
 43
0.0208333333333333
 43
0.0
 43
0.0
 43
0.0
 43
0.0
 43
0.0208333333333333
 43
0.0
 43
0.0
 43
0.0
 43
0.0
 43
1.0
 43
0.0
 43
0.0
 43
0.0
 43
0.0
 43
1.0
 77
     0
 47
0.0208333333333333
 47
0.0
 47
0.0
 47
0.0
 47
0.0
 47
0.0208333333333333
 47
0.0
 47
0.0
 47
0.0
 47
0.0
 47
1.0
 47
0.0
 47
0.0
 47
0.0
 47
0.0
 47
1.0
171
     0
 49
0.0208333333333333
 49
0.0
 49
0.0
 49
0.0
 49
0.0
 49
0.0208333333333333
 49
0.0
 49
0.0
 49
0.0
 49
0.0
 49
1.0
 49
0.0
 49
0.0
 49
0.0
 49
0.0
 49
1.0
175
     0
142
0.0208333333333333
142
0.0
142
0.0
142
0.0
142
0.0
142
0.0208333333333333
142
0.0
142
0.0
142
0.0
142
0.0
142
1.0
142
0.0
142
0.0
142
0.0
142
0.0
142
1.0
179
     0
144
0.0208333333333333
144
0.0
144
0.0
144
0.0
144
0.0
144
0.0208333333333333
144
0.0
144
0.0
144
0.0
144
0.0
144
1.0
144
0.0
144
0.0
144
0.0
144
0.0
144
1.0
147
0.0208333333333333
147
0.0
147
0.0
147
0.0
147
0.0
147
0.0208333333333333
147
0.0
147
0.0
147
0.0
147
0.0
147
1.0
147
0.0
147
0.0
147
0.0
147
0.0
147
1.0
  0
MATERIAL
  5
11
102
{ACAD_XDICTIONARY
360
12
102
}
102
{ACAD_REACTORS
330
10
102
}
330
10
100
AcDbMaterial
  1
ByLayer
 72
     0
 43
0.0208333333333333
 43
0.0
 43
0.0
 43
0.0
 43
0.0
 43
0.0208333333333333
 43
0.0
 43
0.0
 43
0.0
 43
0.0
 43
1.0
 43
0.0
 43
0.0
 43
0.0
 43
0.0
 43
1.0
 77
     0
 47
0.0208333333333333
 47
0.0
 47
0.0
 47
0.0
 47
0.0
 47
0.0208333333333333
 47
0.0
 47
0.0
 47
0.0
 47
0.0
 47
1.0
 47
0.0
 47
0.0
 47
0.0
 47
0.0
 47
1.0
171
     0
 49
0.0208333333333333
 49
0.0
 49
0.0
 49
0.0
 49
0.0
 49
0.0208333333333333
 49
0.0
 49
0.0
 49
0.0
 49
0.0
 49
1.0
 49
0.0
 49
0.0
 49
0.0
 49
0.0
 49
1.0
175
     0
142
0.0208333333333333
142
0.0
142
0.0
142
0.0
142
0.0
142
0.0208333333333333
142
0.0
142
0.0
142
0.0
142
0.0
142
1.0
142
0.0
142
0.0
142
0.0
142
0.0
142
1.0
179
     0
144
0.0208333333333333
144
0.0
144
0.0
144
0.0
144
0.0
144
0.0208333333333333
144
0.0
144
0.0
144
0.0
144
0.0
144
1.0
144
0.0
144
0.0
144
0.0
144
0.0
144
1.0
147
0.0208333333333333
147
0.0
147
0.0
147
0.0
147
0.0
147
0.0208333333333333
147
0.0
147
0.0
147
0.0
147
0.0
147
1.0
147
0.0
147
0.0
147
0.0
147
0.0
147
1.0
  0
MATERIAL
  5
21
102
{ACAD_XDICTIONARY
360
22
102
}
102
{ACAD_REACTORS
330
10
102
}
330
10
100
AcDbMaterial
  1
Global
 72
     0
 43
0.0208333333333333
 43
0.0
 43
0.0
 43
0.0
 43
0.0
 43
0.0208333333333333
 43
0.0
 43
0.0
 43
0.0
 43
0.0
 43
1.0
 43
0.0
 43
0.0
 43
0.0
 43
0.0
 43
1.0
 77
     0
 47
0.0208333333333333
 47
0.0
 47
0.0
 47
0.0
 47
0.0
 47
0.0208333333333333
 47
0.0
 47
0.0
 47
0.0
 47
0.0
 47
1.0
 47
0.0
 47
0.0
 47
0.0
 47
0.0
 47
1.0
171
     0
 49
0.0208333333333333
 49
0.0
 49
0.0
 49
0.0
 49
0.0
 49
0.0208333333333333
 49
0.0
 49
0.0
 49
0.0
 49
0.0
 49
1.0
 49
0.0
 49
0.0
 49
0.0
 49
0.0
 49
1.0
175
     0
142
0.0208333333333333
142
0.0
142
0.0
142
0.0
142
0.0
142
0.0208333333333333
142
0.0
142
0.0
142
0.0
142
0.0
142
1.0
142
0.0
142
0.0
142
0.0
142
0.0
142
1.0
179
     0
144
0.0208333333333333
144
0.0
144
0.0
144
0.0
144
0.0
144
0.0208333333333333
144
0.0
144
0.0
144
0.0
144
0.0
144
1.0
144
0.0
144
0.0
144
0.0
144
0.0
144
1.0
147
0.0208333333333333
147
0.0
147
0.0
147
0.0
147
0.0
147
0.0208333333333333
147
0.0
147
0.0
147
0.0
147
0.0
147
1.0
147
0.0
147
0.0
147
0.0
147
0.0
147
1.0
  0
MLEADERSTYLE
  5
67
102
{ACAD_REACTORS
330
66
102
}
330
66
100
AcDbMLeaderStyle
179
     2
170
     2
171
     1
172
     0
 90
        2
 40
0.0
 41
0.0
173
     1
 91
-1056964608
340
5B
 92
       -2
290
     1
 42
0.09
291
     1
 43
0.36
  3
Standard
 44
0.18
300

342
55
174
     1
178
     6
175
     1
176
     0
 93
-1056964608
 45
0.18
292
     0
297
     0
 46
0.18
 94
-1056964608
 47
1.0
 49
1.0
140
1.0
293
     1
141
0.0
294
     1
177
     0
142
1.0
295
     1
296
     0
143
0.125
271
     0
272
     9
273
     9
298
     1
  0
MLINESTYLE
  5
60
102
{ACAD_REACTORS
330
5F
102
}
330
5F
100
AcDbMlineStyle
  2
STANDARD
 70
     0
  3

 62
   256
 51
90.0
 52
90.0
 71
     2
 49
0.5
 62
   256
  6
BYLAYER
 49
-0.5
 62
   256
  6
BYLAYER
  0
ACDBPLACEHOLDER
  5
F
102
{ACAD_REACTORS
330
E
102
}
330
E
  0
SCALE
  5
43
102
{ACAD_REACTORS
330
42
102
}
330
42
100
AcDbScale
 70
     0
300
1:1
140
1.0
141
1.0
290
     1
  0
SCALE
  5
44
102
{ACAD_REACTORS
330
42
102
}
330
42
100
AcDbScale
 70
     0
300
1/128" = 1'-0"
140
0.0078125
141
12.0
290
     0
  0
SCALE
  5
45
102
{ACAD_REACTORS
330
42
102
}
330
42
100
AcDbScale
 70
     0
300
1/64" = 1'-0"
140
0.015625
141
12.0
290
     0
  0
SCALE
  5
46
102
{ACAD_REACTORS
330
42
102
}
330
42
100
AcDbScale
 70
     0
300
1/32" = 1'-0"
140
0.03125
141
12.0
290
     0
  0
SCALE
  5
47
102
{ACAD_REACTORS
330
42
102
}
330
42
100
AcDbScale
 70
     0
300
1/16" = 1'-0"
140
0.0625
141
12.0
290
     0
  0
SCALE
  5
48
102
{ACAD_REACTORS
330
42
102
}
330
42
100
AcDbScale
 70
     0
300
3/32" = 1'-0"
140
0.09375
141
12.0
290
     0
  0
SCALE
  5
49
102
{ACAD_REACTORS
330
42
102
}
330
42
100
AcDbScale
 70
     0
300
1/8" = 1'-0"
140
0.125
141
12.0
290
     0
  0
SCALE
  5
4A
102
{ACAD_REACTORS
330
42
102
}
330
42
100
AcDbScale
 70
     0
300
3/16" = 1'-0"
140
0.1875
141
12.0
290
     0
  0
SCALE
  5
4B
102
{ACAD_REACTORS
330
42
102
}
330
42
100
AcDbScale
 70
     0
300
1/4" = 1'-0"
140
0.25
141
12.0
290
     0
  0
SCALE
  5
4C
102
{ACAD_REACTORS
330
42
102
}
330
42
100
AcDbScale
 70
     0
300
3/8" = 1'-0"
140
0.375
141
12.0
290
     0
  0
SCALE
  5
4D
102
{ACAD_REACTORS
330
42
102
}
330
42
100
AcDbScale
 70
     0
300
1/2" = 1'-0"
140
0.5
141
12.0
290
     0
  0
SCALE
  5
4E
102
{ACAD_REACTORS
330
42
102
}
330
42
100
AcDbScale
 70
     0
300
3/4" = 1'-0"
140
0.75
141
12.0
290
     0
  0
SCALE
  5
4F
102
{ACAD_REACTORS
330
42
102
}
330
42
100
AcDbScale
 70
     0
300
1" = 1'-0"
140
1.0
141
12.0
290
     0
  0
SCALE
  5
50
102
{ACAD_REACTORS
330
42
102
}
330
42
100
AcDbScale
 70
     0
300
1-1/2" = 1'-0"
140
1.5
141
12.0
290
     0
  0
SCALE
  5
51
102
{ACAD_REACTORS
330
42
102
}
330
42
100
AcDbScale
 70
     0
300
3" = 1'-0"
140
3.0
141
12.0
290
     0
  0
SCALE
  5
52
102
{ACAD_REACTORS
330
42
102
}
330
42
100
AcDbScale
 70
     0
300
6" = 1'-0"
140
6.0
141
12.0
290
     0
  0
SCALE
  5
53
102
{ACAD_REACTORS
330
42
102
}
330
42
100
AcDbScale
 70
     0
300
1'-0" = 1'-0"
140
12.0
141
12.0
290
     0
  0
ACDBSECTIONVIEWSTYLE
  5
69
102
{ACAD_REACTORS
330
68
102
}
330
68
100
AcDbModelDocViewStyle
 70
     0
  3
Imperial24
290
     1
300
Imperial24
 90
        0
100
AcDbSectionViewStyle
 70
     0
 71
     0
 90
       78
 71
     1
340
55
 62
   256
 40
0.24
340
0
340
0
 62
   256
 40
0.24
300
I, O, Q, S, X, Z
 40
0.48
 90
        3
 40
0.18
 90
        1
 71
     2
340
5D
 90
       25
 62
   256
340
5D
 90
       50
 62
   256
 40
0.24
 40
0.0
 40
0.24
 71
     3
340
55
 62
   256
 40
0.24
 90
        1
 40
0.75
 90
        1
300
%<\AcVar ViewType \f "%tc1">% %<\AcVar ViewSectionStartId>%-%<\AcVar ViewSectionEndId>%\PSCALE %<\AcVar ViewScale \f "%sn">%
 71
     4
 62
   256
 62
   257
300
ANSI31
 40
1.0
 90
        0
290
     0
290
     0
 90
        6
 40
0.0
 40
1.570796326794896
 40
0.2617993877991494
 40
1.308996938995747
 40
-0.2617993877991494
 40
1.832595714594046
  0
TABLESTYLE
  5
65
102
{ACAD_XDICTIONARY
360
D4
102
}
102
{ACAD_REACTORS
330
64
102
}
330
64
100
AcDbTableStyle
280
     0
  3
Standard
 70
     0
 71
     0
 40
0.06
 41
0.06
280
     0
281
     0
  7
Standard
140
0.18
170
     2
 62
     0
 63
     7
283
     0
 90
      512
 91
        0
  1

274
    -2
284
     1
 64
     0
275
    -2
285
     1
 65
     0
276
    -2
286
     1
 66
     0
277
    -2
287
     1
 67
     0
278
    -2
288
     1
 68
     0
279
    -2
289
     1
 69
     0
  7
Standard
140
0.25
170
     5
 62
     0
 63
     7
283
     0
 90
      512
 91
        0
  1

274
    -2
284
     1
 64
     0
275
    -2
285
     1
 65
     0
276
    -2
286
     1
 66
     0
277
    -2
287
     1
 67
     0
278
    -2
288
     1
 68
     0
279
    -2
289
     1
 69
     0
  7
Standard
140
0.18
170
     5
 62
     0
 63
     7
283
     0
 90
      512
 91
        0
  1

274
    -2
284
     1
 64
     0
275
    -2
285
     1
 65
     0
276
    -2
286
     1
 66
     0
277
    -2
287
     1
 67
     0
278
    -2
288
     1
 68
     0
279
    -2
289
     1
 69
     0
  0
VISUALSTYLE
  5
2F
102
{ACAD_REACTORS
330
29
102
}
330
29
100
AcDbVisualStyle
  2
2dWireframe
 70
     4
177
     3
291
     0
 70
    58
 90
        0
176
     1
 90
        2
176
     1
 90
        0
176
     1
 90
        0
176
     1
 40
0.6
176
     1
 40
30.0
176
     1
 62
     7
420
 16777215
176
     1
 90
        1
176
     1
 90
        4
176
     1
 62
     7
176
     1
 62
   257
176
     1
 90
        1
176
     1
 90
        1
176
     1
 40
1.0
176
     1
 90
        0
176
     1
 62
   257
176
     1
 40
1.0
176
     1
 90
        1
176
     1
 90
        6
176
     1
 90
        2
176
     1
 62
     7
176
     1
 90
        5
176
     1
 90
        0
176
     1
 90
        0
176
     1
290
     0
176
     1
 90
        1
176
     1
 40
0.0
176
     1
 90
        0
176
     1
290
     1
176
     1
290
     1
176
     1
290
     0
176
     1
290
     0
176
     1
290
     0
176
     1
290
     0
176
     1
290
     0
176
     1
290
     0
176
     1
290
     0
176
     1
 90
       50
176
     1
 40
0.0
176
     1
 40
1.0
176
     1
 90
        0
176
     1
 62
    18
420
        0
176
     1
 90
       50
176
     1
 90
        3
176
     1
 62
     5
420
      255
176
     1
290
     0
176
     1
 90
       50
176
     1
 90
       50
176
     1
 90
       50
176
     1
290
     0
176
     1
 90
       50
176
     1
 62
   256
176
     0
 40
1.0
176
     0
 90
        2
176
     1
  1
strokes_ogs.tif
176
     1
290
     0
176
     1
 40
1.0
176
     1
 40
1.0
176
     1
  0
VISUALSTYLE
  5
2E
102
{ACAD_REACTORS
330
29
102
}
330
29
100
AcDbVisualStyle
  2
Basic
 70
     7
177
     3
291
     1
 70
    58
 90
        1
176
     1
 90
        0
176
     1
 90
        1
176
     1
 90
        0
176
     1
 40
0.6
176
     1
 40
30.0
176
     1
 62
     7
420
 16777215
176
     1
 90
        0
176
     1
 90
        4
176
     1
 62
     7
176
     1
 62
   257
176
     1
 90
        1
176
     1
 90
        1
176
     1
 40
1.0
176
     1
 90
        8
176
     1
 62
     7
176
     1
 40
1.0
176
     1
 90
        1
176
     1
 90
        6
176
     1
 90
        2
176
     1
 62
     7
176
     1
 90
        5
176
     1
 90
        0
176
     1
 90
        0
176
     1
290
     0
176
     1
 90
        1
176
     1
 40
0.0
176
     1
 90
        0
176
     1
290
     0
176
     1
290
     1
176
     1
290
     1
176
     1
290
     0
176
     1
290
     0
176
     1
290
     0
176
     1
290
     0
176
     1
290
     0
176
     1
290
     0
176
     1
 90
       50
176
     1
 40
0.0
176
     1
 40
1.0
176
     1
 90
        0
176
     1
 62
    18
420
        0
176
     1
 90
       50
176
     1
 90
        3
176
     1
 62
     5
420
      255
176
     1
290
     0
176
     1
 90
       50
176
     1
 90
       50
176
     1
 90
       50
176
     1
290
     0
176
     1
 90
       50
176
     1
 62
   256
176
     0
 40
1.0
176
     0
 90
        2
176
     1
  1
strokes_ogs.tif
176
     1
290
     0
176
     1
 40
1.0
176
     1
 40
1.0
176
     1
  0
VISUALSTYLE
  5
35
102
{ACAD_REACTORS
330
29
102
}
330
29
100
AcDbVisualStyle
  2
Brighten
 70
    12
177
     3
291
     1
 70
    58
 90
        2
176
     1
 90
        2
176
     1
 90
        0
176
     1
 90
        0
176
     1
 40
0.6
176
     1
 40
30.0
176
     1
 62
     7
420
 16777215
176
     1
 90
        1
176
     1
 90
        4
176
     1
 62
     7
176
     1
 62
   257
176
     1
 90
        1
176
     1
 90
        1
176
     1
 40
1.0
176
     1
 90
        8
176
     1
 62
     7
176
     1
 40
1.0
176
     1
 90
        1
176
     1
 90
        6
176
     1
 90
        2
176
     1
 62
     7
176
     1
 90
        5
176
     1
 90
        0
176
     1
 90
        0
176
     1
290
     0
176
     1
 90
        1
176
     1
 40
50.0
176
     1
 90
        0
176
     1
290
     0
176
     1
290
     1
176
     1
290
     1
176
     1
290
     0
176
     1
290
     0
176
     1
290
     0
176
     1
290
     0
176
     1
290
     0
176
     1
290
     0
176
     1
 90
       50
176
     1
 40
0.0
176
     1
 40
1.0
176
     1
 90
        0
176
     1
 62
    18
420
        0
176
     1
 90
       50
176
     1
 90
        3
176
     1
 62
     5
420
      255
176
     1
290
     0
176
     1
 90
       50
176
     1
 90
       50
176
     1
 90
       50
176
     1
290
     0
176
     1
 90
       50
176
     1
 62
   256
176
     0
 40
1.0
176
     0
 90
        2
176
     1
  1
strokes_ogs.tif
176
     1
290
     0
176
     1
 40
1.0
176
     1
 40
1.0
176
     1
  0
VISUALSTYLE
  5
39
102
{ACAD_REACTORS
330
29
102
}
330
29
100
AcDbVisualStyle
  2
ColorChange
 70
    16
177
     3
291
     1
 70
    58
 90
        2
176
     1
 90
        2
176
     1
 90
        3
176
     1
 90
        0
176
     1
 40
0.6
176
     1
 40
30.0
176
     1
 62
     8
420
  8421504
176
     1
 90
        1
176
     1
 90
        4
176
     1
 62
     7
176
     1
 62
   257
176
     1
 90
        1
176
     1
 90
        1
176
     1
 40
1.0
176
     1
 90
        8
176
     1
 62
     8
420
  8421504
176
     1
 40
1.0
176
     1
 90
        1
176
     1
 90
        6
176
     1
 90
        2
176
     1
 62
     7
176
     1
 90
        5
176
     1
 90
        0
176
     1
 90
        0
176
     1
290
     0
176
     1
 90
        1
176
     1
 40
0.0
176
     1
 90
        0
176
     1
290
     0
176
     1
290
     1
176
     1
290
     1
176
     1
290
     0
176
     1
290
     0
176
     1
290
     0
176
     1
290
     0
176
     1
290
     0
176
     1
290
     0
176
     1
 90
       50
176
     1
 40
0.0
176
     1
 40
1.0
176
     1
 90
        0
176
     1
 62
    18
420
        0
176
     1
 90
       50
176
     1
 90
        3
176
     1
 62
     5
420
      255
176
     1
290
     0
176
     1
 90
       50
176
     1
 90
       50
176
     1
 90
       50
176
     1
290
     0
176
     1
 90
       50
176
     1
 62
   256
176
     0
 40
1.0
176
     0
 90
        2
176
     1
  1
strokes_ogs.tif
176
     1
290
     0
176
     1
 40
1.0
176
     1
 40
1.0
176
     1
  0
VISUALSTYLE
  5
32
102
{ACAD_REACTORS
330
29
102
}
330
29
100
AcDbVisualStyle
  2
Conceptual
 70
     9
177
     3
291
     0
 70
    58
 90
        3
176
     1
 90
        2
176
     1
 90
        0
176
     1
 90
        0
176
     1
 40
0.6
176
     1
 40
30.0
176
     1
 62
     7
420
 16777215
176
     1
 90
        2
176
     1
 90
        2
176
     1
 62
     7
176
     1
 62
   257
176
     1
 90
        1
176
     1
 90
        1
176
     1
 40
179.0
176
     1
 90
        8
176
     1
 62
     7
176
     1
 40
1.0
176
     1
 90
        1
176
     1
 90
        6
176
     1
 90
        2
176
     1
 62
     7
176
     1
 90
        3
176
     1
 90
        0
176
     1
 90
        0
176
     1
290
     0
176
     1
 90
        1
176
     1
 40
0.0
176
     1
 90
        0
176
     1
290
     0
176
     1
290
     1
176
     1
290
     1
176
     1
290
     0
176
     1
290
     0
176
     1
290
     0
176
     1
290
     0
176
     1
290
     0
176
     1
290
     0
176
     1
 90
       50
176
     1
 40
0.0
176
     1
 40
1.0
176
     1
 90
        0
176
     1
 62
    18
420
        0
176
     1
 90
       50
176
     1
 90
        3
176
     1
 62
     5
420
      255
176
     1
290
     0
176
     1
 90
       50
176
     1
 90
       50
176
     1
 90
       50
176
     1
290
     0
176
     1
 90
       50
176
     1
 62
   256
176
     0
 40
1.0
176
     0
 90
        2
176
     1
  1
strokes_ogs.tif
176
     1
290
     0
176
     1
 40
1.0
176
     1
 40
1.0
176
     1
  0
VISUALSTYLE
  5
34
102
{ACAD_REACTORS
330
29
102
}
330
29
100
AcDbVisualStyle
  2
Dim
 70
    11
177
     3
291
     1
 70
    58
 90
        2
176
     1
 90
        2
176
     1
 90
        0
176
     1
 90
        0
176
     1
 40
0.6
176
     1
 40
30.0
176
     1
 62
     7
420
 16777215
176
     1
 90
        1
176
     1
 90
        4
176
     1
 62
     7
176
     1
 62
   257
176
     1
 90
        1
176
     1
 90
        1
176
     1
 40
1.0
176
     1
 90
        8
176
     1
 62
     7
176
     1
 40
1.0
176
     1
 90
        1
176
     1
 90
        6
176
     1
 90
        2
176
     1
 62
     7
176
     1
 90
        5
176
     1
 90
        0
176
     1
 90
        0
176
     1
290
     0
176
     1
 90
        1
176
     1
 40
-50.0
176
     1
 90
        0
176
     1
290
     0
176
     1
290
     1
176
     1
290
     1
176
     1
290
     0
176
     1
290
     0
176
     1
290
     0
176
     1
290
     0
176
     1
290
     0
176
     1
290
     0
176
     1
 90
       50
176
     1
 40
0.0
176
     1
 40
1.0
176
     1
 90
        0
176
     1
 62
    18
420
        0
176
     1
 90
       50
176
     1
 90
        3
176
     1
 62
     5
420
      255
176
     1
290
     0
176
     1
 90
       50
176
     1
 90
       50
176
     1
 90
       50
176
     1
290
     0
176
     1
 90
       50
176
     1
 62
   256
176
     0
 40
1.0
176
     0
 90
        2
176
     1
  1
strokes_ogs.tif
176
     1
290
     0
176
     1
 40
1.0
176
     1
 40
1.0
176
     1
  0
VISUALSTYLE
  5
41
102
{ACAD_REACTORS
330
29
102
}
330
29
100
AcDbVisualStyle
  2
EdgeColorOff
 70
    22
177
     3
291
     1
 70
    58
 90
        2
176
     0
 90
        2
176
     0
 90
        0
176
     0
 90
        0
176
     0
 40
0.6
176
     0
 40
30.0
176
     0
 62
     7
420
 16777215
176
     0
 90
        1
176
     0
 90
        4
176
     0
 62
     7
176
     0
 62
   257
176
     0
 90
        1
176
     0
 90
        1
176
     0
 40
1.0
176
     0
 90
        8
176
     2
 62
     7
176
     0
 40
1.0
176
     0
 90
        1
176
     0
 90
        6
176
     0
 90
        2
176
     0
 62
     7
176
     0
 90
        5
176
     0
 90
        0
176
     0
 90
        0
176
     0
290
     0
176
     0
 90
        1
176
     0
 40
0.0
176
     0
 90
        0
176
     0
290
     0
176
     0
290
     1
176
     0
290
     1
176
     0
290
     0
176
     0
290
     0
176
     0
290
     0
176
     0
290
     0
176
     0
290
     0
176
     0
290
     0
176
     0
 90
       50
176
     0
 40
0.0
176
     0
 40
1.0
176
     0
 90
        0
176
     0
 62
    18
420
        0
176
     0
 90
       50
176
     0
 90
        3
176
     0
 62
     5
420
      255
176
     0
290
     0
176
     0
 90
       50
176
     0
 90
       50
176
     0
 90
       50
176
     0
290
     0
176
     0
 90
       50
176
     0
 62
   256
176
     0
 40
1.0
176
     0
 90
        2
176
     0
  1
strokes_ogs.tif
176
     0
290
     0
176
     0
 40
1.0
176
     0
 40
1.0
176
     0
  0
VISUALSTYLE
  5
38
102
{ACAD_REACTORS
330
29
102
}
330
29
100
AcDbVisualStyle
  2
Facepattern
 70
    15
177
     3
291
     1
 70
    58
 90
        2
176
     1
 90
        2
176
     1
 90
        0
176
     1
 90
        0
176
     1
 40
0.6
176
     1
 40
30.0
176
     1
 62
     7
420
 16777215
176
     1
 90
        1
176
     1
 90
        4
176
     1
 62
     7
176
     1
 62
   257
176
     1
 90
        1
176
     1
 90
        1
176
     1
 40
1.0
176
     1
 90
        8
176
     1
 62
     7
176
     1
 40
1.0
176
     1
 90
        1
176
     1
 90
        6
176
     1
 90
        2
176
     1
 62
     7
176
     1
 90
        5
176
     1
 90
        0
176
     1
 90
        0
176
     1
290
     0
176
     1
 90
        1
176
     1
 40
0.0
176
     1
 90
        0
176
     1
290
     0
176
     1
290
     1
176
     1
290
     1
176
     1
290
     0
176
     1
290
     0
176
     1
290
     0
176
     1
290
     0
176
     1
290
     0
176
     1
290
     0
176
     1
 90
       50
176
     1
 40
0.0
176
     1
 40
1.0
176
     1
 90
        0
176
     1
 62
    18
420
        0
176
     1
 90
       50
176
     1
 90
        3
176
     1
 62
     5
420
      255
176
     1
290
     0
176
     1
 90
       50
176
     1
 90
       50
176
     1
 90
       50
176
     1
290
     0
176
     1
 90
       50
176
     1
 62
   256
176
     0
 40
1.0
176
     0
 90
        2
176
     1
  1
strokes_ogs.tif
176
     1
290
     0
176
     1
 40
1.0
176
     1
 40
1.0
176
     1
  0
VISUALSTYLE
  5
2A
102
{ACAD_REACTORS
330
29
102
}
330
29
100
AcDbVisualStyle
  2
Flat
 70
     0
177
     3
291
     1
 70
    58
 90
        2
176
     1
 90
        1
176
     1
 90
        1
176
     1
 90
        2
176
     1
 40
0.6
176
     1
 40
30.0
176
     1
 62
     7
420
 16777215
176
     1
 90
        0
176
     1
 90
        0
176
     1
 62
     7
176
     1
 62
   257
176
     1
 90
        1
176
     1
 90
        1
176
     1
 40
1.0
176
     1
 90
        8
176
     1
 62
     7
176
     1
 40
1.0
176
     1
 90
        1
176
     1
 90
        6
176
     1
 90
        2
176
     1
 62
     7
176
     1
 90
        5
176
     1
 90
        0
176
     1
 90
        0
176
     1
290
     0
176
     1
 90
       13
176
     1
 40
0.0
176
     1
 90
        0
176
     1
290
     0
176
     1
290
     1
176
     1
290
     1
176
     1
290
     0
176
     1
290
     0
176
     1
290
     0
176
     1
290
     0
176
     1
290
     0
176
     1
290
     0
176
     1
 90
       50
176
     1
 40
0.0
176
     1
 40
1.0
176
     1
 90
        0
176
     1
 62
    18
420
        0
176
     1
 90
       50
176
     1
 90
        3
176
     1
 62
     5
420
      255
176
     1
290
     0
176
     1
 90
       50
176
     1
 90
       50
176
     1
 90
       50
176
     1
290
     0
176
     1
 90
       50
176
     1
 62
   256
176
     0
 40
1.0
176
     0
 90
        2
176
     1
  1
strokes_ogs.tif
176
     1
290
     0
176
     1
 40
1.0
176
     1
 40
1.0
176
     1
  0
VISUALSTYLE
  5
2B
102
{ACAD_REACTORS
330
29
102
}
330
29
100
AcDbVisualStyle
  2
FlatWithEdges
 70
     1
177
     3
291
     1
 70
    58
 90
        2
176
     1
 90
        1
176
     1
 90
        1
176
     1
 90
        2
176
     1
 40
0.6
176
     1
 40
30.0
176
     1
 62
     7
420
 16777215
176
     1
 90
        1
176
     1
 90
        0
176
     1
 62
     7
176
     1
 62
   257
176
     1
 90
        1
176
     1
 90
        1
176
     1
 40
1.0
176
     1
 90
        0
176
     1
 62
   257
176
     1
 40
1.0
176
     1
 90
        1
176
     1
 90
        6
176
     1
 90
        2
176
     1
 62
     7
176
     1
 90
        5
176
     1
 90
        0
176
     1
 90
        0
176
     1
290
     0
176
     1
 90
       13
176
     1
 40
0.0
176
     1
 90
        0
176
     1
290
     0
176
     1
290
     1
176
     1
290
     1
176
     1
290
     0
176
     1
290
     0
176
     1
290
     0
176
     1
290
     0
176
     1
290
     0
176
     1
290
     0
176
     1
 90
       50
176
     1
 40
0.0
176
     1
 40
1.0
176
     1
 90
        0
176
     1
 62
    18
420
        0
176
     1
 90
       50
176
     1
 90
        3
176
     1
 62
     5
420
      255
176
     1
290
     0
176
     1
 90
       50
176
     1
 90
       50
176
     1
 90
       50
176
     1
290
     0
176
     1
 90
       50
176
     1
 62
   256
176
     0
 40
1.0
176
     0
 90
        2
176
     1
  1
strokes_ogs.tif
176
     1
290
     0
176
     1
 40
1.0
176
     1
 40
1.0
176
     1
  0
VISUALSTYLE
  5
2C
102
{ACAD_REACTORS
330
29
102
}
330
29
100
AcDbVisualStyle
  2
Gouraud
 70
     2
177
     3
291
     1
 70
    58
 90
        2
176
     1
 90
        2
176
     1
 90
        1
176
     1
 90
        2
176
     1
 40
0.6
176
     1
 40
30.0
176
     1
 62
     7
420
 16777215
176
     1
 90
        0
176
     1
 90
        0
176
     1
 62
     7
176
     1
 62
   257
176
     1
 90
        1
176
     1
 90
        1
176
     1
 40
1.0
176
     1
 90
        0
176
     1
 62
     7
176
     1
 40
1.0
176
     1
 90
        1
176
     1
 90
        6
176
     1
 90
        2
176
     1
 62
     7
176
     1
 90
        5
176
     1
 90
        0
176
     1
 90
        0
176
     1
290
     0
176
     1
 90
       13
176
     1
 40
0.0
176
     1
 90
        0
176
     1
290
     0
176
     1
290
     1
176
     1
290
     1
176
     1
290
     0
176
     1
290
     0
176
     1
290
     0
176
     1
290
     0
176
     1
290
     0
176
     1
290
     0
176
     1
 90
       50
176
     1
 40
0.0
176
     1
 40
1.0
176
     1
 90
        0
176
     1
 62
    18
420
        0
176
     1
 90
       50
176
     1
 90
        3
176
     1
 62
     5
420
      255
176
     1
290
     0
176
     1
 90
       50
176
     1
 90
       50
176
     1
 90
       50
176
     1
290
     0
176
     1
 90
       50
176
     1
 62
   256
176
     0
 40
1.0
176
     0
 90
        2
176
     1
  1
strokes_ogs.tif
176
     1
290
     0
176
     1
 40
1.0
176
     1
 40
1.0
176
     1
  0
VISUALSTYLE
  5
2D
102
{ACAD_REACTORS
330
29
102
}
330
29
100
AcDbVisualStyle
  2
GouraudWithEdges
 70
     3
177
     3
291
     1
 70
    58
 90
        2
176
     1
 90
        2
176
     1
 90
        1
176
     1
 90
        2
176
     1
 40
0.6
176
     1
 40
30.0
176
     1
 62
     7
420
 16777215
176
     1
 90
        1
176
     1
 90
        0
176
     1
 62
     7
176
     1
 62
   257
176
     1
 90
        1
176
     1
 90
        1
176
     1
 40
1.0
176
     1
 90
        0
176
     1
 62
   257
176
     1
 40
1.0
176
     1
 90
        1
176
     1
 90
        6
176
     1
 90
        2
176
     1
 62
     7
176
     1
 90
        5
176
     1
 90
        0
176
     1
 90
        0
176
     1
290
     0
176
     1
 90
       13
176
     1
 40
0.0
176
     1
 90
        0
176
     1
290
     0
176
     1
290
     1
176
     1
290
     1
176
     1
290
     0
176
     1
290
     0
176
     1
290
     0
176
     1
290
     0
176
     1
290
     0
176
     1
290
     0
176
     1
 90
       50
176
     1
 40
0.0
176
     1
 40
1.0
176
     1
 90
        0
176
     1
 62
    18
420
        0
176
     1
 90
       50
176
     1
 90
        3
176
     1
 62
     5
420
      255
176
     1
290
     0
176
     1
 90
       50
176
     1
 90
       50
176
     1
 90
       50
176
     1
290
     0
176
     1
 90
       50
176
     1
 62
   256
176
     0
 40
1.0
176
     0
 90
        2
176
     1
  1
strokes_ogs.tif
176
     1
290
     0
176
     1
 40
1.0
176
     1
 40
1.0
176
     1
  0
VISUALSTYLE
  5
31
102
{ACAD_REACTORS
330
29
102
}
330
29
100
AcDbVisualStyle
  2
Hidden
 70
     6
177
     3
291
     0
 70
    58
 90
        1
176
     1
 90
        2
176
     1
 90
        2
176
     1
 90
        0
176
     1
 40
0.6
176
     1
 40
30.0
176
     1
 62
     7
420
 16777215
176
     1
 90
        2
176
     1
 90
        2
176
     1
 62
     7
176
     1
 62
   257
176
     1
 90
        2
176
     1
 90
        1
176
     1
 40
40.0
176
     1
 90
        0
176
     1
 62
   257
176
     1
 40
1.0
176
     1
 90
        1
176
     1
 90
        6
176
     1
 90
        2
176
     1
 62
     7
176
     1
 90
        3
176
     1
 90
        0
176
     1
 90
        0
176
     1
290
     0
176
     1
 90
        1
176
     1
 40
0.0
176
     1
 90
        0
176
     1
290
     0
176
     1
290
     1
176
     1
290
     1
176
     1
290
     0
176
     1
290
     0
176
     1
290
     0
176
     1
290
     0
176
     1
290
     0
176
     1
290
     0
176
     1
 90
       50
176
     1
 40
0.0
176
     1
 40
1.0
176
     1
 90
        0
176
     1
 62
    18
420
        0
176
     1
 90
       50
176
     1
 90
        3
176
     1
 62
     5
420
      255
176
     1
290
     0
176
     1
 90
       50
176
     1
 90
       50
176
     1
 90
       50
176
     1
290
     0
176
     1
 90
       50
176
     1
 62
   256
176
     0
 40
1.0
176
     0
 90
        2
176
     1
  1
strokes_ogs.tif
176
     1
290
     0
176
     1
 40
1.0
176
     1
 40
1.0
176
     1
  0
VISUALSTYLE
  5
3F
102
{ACAD_REACTORS
330
29
102
}
330
29
100
AcDbVisualStyle
  2
JitterOff
 70
    20
177
     3
291
     1
 70
    58
 90
        2
176
     0
 90
        2
176
     0
 90
        0
176
     0
 90
        0
176
     0
 40
0.6
176
     0
 40
30.0
176
     0
 62
     7
420
 16777215
176
     0
 90
        1
176
     0
 90
        4
176
     0
 62
     7
176
     0
 62
   257
176
     0
 90
        1
176
     0
 90
        1
176
     0
 40
1.0
176
     0
 90
       10
176
     2
 62
     7
176
     0
 40
1.0
176
     0
 90
        1
176
     0
 90
        6
176
     0
 90
        2
176
     0
 62
     7
176
     0
 90
        5
176
     0
 90
        0
176
     0
 90
        0
176
     0
290
     0
176
     0
 90
        1
176
     0
 40
0.0
176
     0
 90
        0
176
     0
290
     0
176
     0
290
     1
176
     0
290
     1
176
     0
290
     0
176
     0
290
     0
176
     0
290
     0
176
     0
290
     0
176
     0
290
     0
176
     0
290
     0
176
     0
 90
       50
176
     0
 40
0.0
176
     0
 40
1.0
176
     0
 90
        0
176
     0
 62
    18
420
        0
176
     0
 90
       50
176
     0
 90
        3
176
     0
 62
     5
420
      255
176
     0
290
     0
176
     0
 90
       50
176
     0
 90
       50
176
     0
 90
       50
176
     0
290
     0
176
     0
 90
       50
176
     0
 62
   256
176
     0
 40
1.0
176
     0
 90
        2
176
     0
  1
strokes_ogs.tif
176
     0
290
     0
176
     0
 40
1.0
176
     0
 40
1.0
176
     0
  0
VISUALSTYLE
  5
37
102
{ACAD_REACTORS
330
29
102
}
330
29
100
AcDbVisualStyle
  2
Linepattern
 70
    14
177
     3
291
     1
 70
    58
 90
        2
176
     1
 90
        2
176
     1
 90
        0
176
     1
 90
        0
176
     1
 40
0.6
176
     1
 40
30.0
176
     1
 62
     7
420
 16777215
176
     1
 90
        1
176
     1
 90
        4
176
     1
 62
     7
176
     1
 62
   257
176
     1
 90
        7
176
     1
 90
        7
176
     1
 40
1.0
176
     1
 90
        8
176
     1
 62
     7
176
     1
 40
1.0
176
     1
 90
        1
176
     1
 90
        6
176
     1
 90
        2
176
     1
 62
     7
176
     1
 90
        5
176
     1
 90
        0
176
     1
 90
        0
176
     1
290
     0
176
     1
 90
        1
176
     1
 40
0.0
176
     1
 90
        0
176
     1
290
     0
176
     1
290
     1
176
     1
290
     1
176
     1
290
     0
176
     1
290
     0
176
     1
290
     0
176
     1
290
     0
176
     1
290
     0
176
     1
290
     0
176
     1
 90
       50
176
     1
 40
0.0
176
     1
 40
1.0
176
     1
 90
        0
176
     1
 62
    18
420
        0
176
     1
 90
       50
176
     1
 90
        3
176
     1
 62
     5
420
      255
176
     1
290
     0
176
     1
 90
       50
176
     1
 90
       50
176
     1
 90
       50
176
     1
290
     0
176
     1
 90
       50
176
     1
 62
   256
176
     0
 40
1.0
176
     0
 90
        2
176
     1
  1
strokes_ogs.tif
176
     1
290
     0
176
     1
 40
1.0
176
     1
 40
1.0
176
     1
  0
VISUALSTYLE
  5
40
102
{ACAD_REACTORS
330
29
102
}
330
29
100
AcDbVisualStyle
  2
OverhangOff
 70
    21
177
     3
291
     1
 70
    58
 90
        2
176
     0
 90
        2
176
     0
 90
        0
176
     0
 90
        0
176
     0
 40
0.6
176
     0
 40
30.0
176
     0
 62
     7
420
 16777215
176
     0
 90
        1
176
     0
 90
        4
176
     0
 62
     7
176
     0
 62
   257
176
     0
 90
        1
176
     0
 90
        1
176
     0
 40
1.0
176
     0
 90
        9
176
     2
 62
     7
176
     0
 40
1.0
176
     0
 90
        1
176
     0
 90
        6
176
     0
 90
        2
176
     0
 62
     7
176
     0
 90
        5
176
     0
 90
        0
176
     0
 90
        0
176
     0
290
     0
176
     0
 90
        1
176
     0
 40
0.0
176
     0
 90
        0
176
     0
290
     0
176
     0
290
     1
176
     0
290
     1
176
     0
290
     0
176
     0
290
     0
176
     0
290
     0
176
     0
290
     0
176
     0
290
     0
176
     0
290
     0
176
     0
 90
       50
176
     0
 40
0.0
176
     0
 40
1.0
176
     0
 90
        0
176
     0
 62
    18
420
        0
176
     0
 90
       50
176
     0
 90
        3
176
     0
 62
     5
420
      255
176
     0
290
     0
176
     0
 90
       50
176
     0
 90
       50
176
     0
 90
       50
176
     0
290
     0
176
     0
 90
       50
176
     0
 62
   256
176
     0
 40
1.0
176
     0
 90
        2
176
     0
  1
strokes_ogs.tif
176
     0
290
     0
176
     0
 40
1.0
176
     0
 40
1.0
176
     0
  0
VISUALSTYLE
  5
33
102
{ACAD_REACTORS
330
29
102
}
330
29
100
AcDbVisualStyle
  2
Realistic
 70
     8
177
     3
291
     0
 70
    58
 90
        2
176
     1
 90
        3
176
     1
 90
        0
176
     1
 90
        2
176
     1
 40
0.6
176
     1
 40
30.0
176
     1
 62
     7
420
 16777215
176
     1
 90
        0
176
     1
 90
        0
176
     1
 62
     7
176
     1
 62
   257
176
     1
 90
        1
176
     1
 90
        1
176
     1
 40
1.0
176
     1
 90
        8
176
     1
 62
   257
176
     1
 40
1.0
176
     1
 90
        1
176
     1
 90
        6
176
     1
 90
        2
176
     1
 62
     7
176
     1
 90
        3
176
     1
 90
        0
176
     1
 90
        0
176
     1
290
     0
176
     1
 90
       13
176
     1
 40
0.0
176
     1
 90
        0
176
     1
290
     0
176
     1
290
     1
176
     1
290
     1
176
     1
290
     0
176
     1
290
     0
176
     1
290
     0
176
     1
290
     0
176
     1
290
     0
176
     1
290
     0
176
     1
 90
       50
176
     1
 40
0.0
176
     1
 40
1.0
176
     1
 90
        0
176
     1
 62
    18
420
        0
176
     1
 90
       50
176
     1
 90
        3
176
     1
 62
     5
420
      255
176
     1
290
     0
176
     1
 90
       50
176
     1
 90
       50
176
     1
 90
       50
176
     1
290
     0
176
     1
 90
       50
176
     1
 62
   256
176
     0
 40
1.0
176
     0
 90
        2
176
     1
  1
strokes_ogs.tif
176
     1
290
     0
176
     1
 40
1.0
176
     1
 40
1.0
176
     1
  0
VISUALSTYLE
  5
3E
102
{ACAD_REACTORS
330
29
102
}
330
29
100
AcDbVisualStyle
  2
Shaded
 70
    27
177
     3
291
     0
 70
    58
 90
        2
176
     1
 90
        2
176
     1
 90
        1
176
     1
 90
        2
176
     1
 40
0.6
176
     1
 40
30.0
176
     1
 62
     7
420
 16777215
176
     1
 90
        0
176
     1
 90
        4
176
     1
 62
     7
176
     1
 62
   257
176
     1
 90
        1
176
     1
 90
        1
176
     1
 40
1.0
176
     1
 90
        8
176
     1
 62
   257
176
     1
 40
1.0
176
     1
 90
        1
176
     1
 90
        6
176
     1
 90
        2
176
     1
 62
     8
420
  7895160
176
     1
 90
        3
176
     1
 90
        0
176
     1
 90
        0
176
     1
290
     0
176
     1
 90
        5
176
     1
 40
0.0
176
     1
 90
        0
176
     1
290
     0
176
     1
290
     1
176
     1
290
     1
176
     1
290
     0
176
     1
290
     0
176
     1
290
     0
176
     1
290
     0
176
     1
290
     0
176
     1
290
     0
176
     1
 90
       50
176
     1
 40
0.0
176
     1
 40
1.0
176
     1
 90
        0
176
     1
 62
    18
420
        0
176
     1
 90
       50
176
     1
 90
        3
176
     1
 62
     5
420
      255
176
     1
290
     0
176
     1
 90
       50
176
     1
 90
       50
176
     1
 90
       50
176
     1
290
     0
176
     1
 90
       50
176
     1
 62
   256
176
     0
 40
1.0
176
     0
 90
        2
176
     1
  1
strokes_ogs.tif
176
     1
290
     0
176
     1
 40
1.0
176
     1
 40
1.0
176
     1
  0
VISUALSTYLE
  5
3D
102
{ACAD_REACTORS
330
29
102
}
330
29
100
AcDbVisualStyle
  2
Shaded with edges
 70
    26
177
     3
291
     0
 70
    58
 90
        2
176
     1
 90
        2
176
     1
 90
        1
176
     1
 90
        2
176
     1
 40
0.6
176
     1
 40
30.0
176
     1
 62
     7
420
 16777215
176
     1
 90
        1
176
     1
 90
        2
176
     1
 62
     7
176
     1
 62
   257
176
     1
 90
        2
176
     1
 90
        1
176
     1
 40
1.0
176
     1
 90
        8
176
     1
 62
   257
176
     1
 40
1.0
176
     1
 90
        1
176
     1
 90
        6
176
     1
 90
        2
176
     1
 62
     7
176
     1
 90
        3
176
     1
 90
        0
176
     1
 90
        0
176
     1
290
     0
176
     1
 90
        5
176
     1
 40
0.0
176
     1
 90
        0
176
     1
290
     0
176
     1
290
     1
176
     1
290
     1
176
     1
290
     0
176
     1
290
     0
176
     1
290
     0
176
     1
290
     0
176
     1
290
     0
176
     1
290
     0
176
     1
 90
       50
176
     1
 40
0.0
176
     1
 40
1.0
176
     1
 90
        0
176
     1
 62
    18
420
        0
176
     1
 90
       50
176
     1
 90
        3
176
     1
 62
     5
420
      255
176
     1
290
     0
176
     1
 90
       50
176
     1
 90
       50
176
     1
 90
       50
176
     1
290
     0
176
     1
 90
       50
176
     1
 62
   256
176
     0
 40
1.0
176
     0
 90
        2
176
     1
  1
strokes_ogs.tif
176
     1
290
     0
176
     1
 40
1.0
176
     1
 40
1.0
176
     1
  0
VISUALSTYLE
  5
3A
102
{ACAD_REACTORS
330
29
102
}
330
29
100
AcDbVisualStyle
  2
Shades of Gray
 70
    23
177
     3
291
     0
 70
    58
 90
        2
176
     1
 90
        2
176
     1
 90
        3
176
     1
 90
        0
176
     1
 40
0.6
176
     1
 40
30.0
176
     1
 62
     7
420
 16777215
176
     1
 90
        2
176
     1
 90
        2
176
     1
 62
     7
176
     1
 62
     7
176
     1
 90
        1
176
     1
 90
        1
176
     1
 40
40.0
176
     1
 90
        8
176
     1
 62
     7
176
     1
 40
1.0
176
     1
 90
        1
176
     1
 90
        6
176
     1
 90
        2
176
     1
 62
     7
176
     1
 90
        3
176
     1
 90
        0
176
     1
 90
        0
176
     1
290
     0
176
     1
 90
        1
176
     1
 40
0.0
176
     1
 90
        0
176
     1
290
     0
176
     1
290
     1
176
     1
290
     1
176
     1
290
     0
176
     1
290
     0
176
     1
290
     0
176
     1
290
     0
176
     1
290
     0
176
     1
290
     0
176
     1
 90
       50
176
     1
 40
0.0
176
     1
 40
1.0
176
     1
 90
        0
176
     1
 62
    18
420
        0
176
     1
 90
       50
176
     1
 90
        3
176
     1
 62
     5
420
      255
176
     1
290
     0
176
     1
 90
       50
176
     1
 90
       50
176
     1
 90
       50
176
     1
290
     0
176
     1
 90
       50
176
     1
 62
   256
176
     0
 40
1.0
176
     0
 90
        2
176
     1
  1
strokes_ogs.tif
176
     1
290
     0
176
     1
 40
1.0
176
     1
 40
1.0
176
     1
  0
VISUALSTYLE
  5
3B
102
{ACAD_REACTORS
330
29
102
}
330
29
100
AcDbVisualStyle
  2
Sketchy
 70
    24
177
     3
291
     0
 70
    58
 90
        1
176
     1
 90
        2
176
     1
 90
        2
176
     1
 90
        0
176
     1
 40
0.6
176
     1
 40
30.0
176
     1
 62
     7
420
 16777215
176
     1
 90
        2
176
     1
 90
        2
176
     1
 62
     7
176
     1
 62
     7
176
     1
 90
        1
176
     1
 90
        1
176
     1
 40
40.0
176
     1
 90
       11
176
     1
 62
     7
176
     1
 40
1.0
176
     1
 90
        1
176
     1
 90
        6
176
     1
 90
        2
176
     1
 62
     7
176
     1
 90
        6
176
     1
 90
        0
176
     1
 90
        0
176
     1
290
     0
176
     1
 90
        1
176
     1
 40
0.0
176
     1
 90
        0
176
     1
290
     0
176
     1
290
     1
176
     1
290
     1
176
     1
290
     0
176
     1
290
     0
176
     1
290
     0
176
     1
290
     0
176
     1
290
     0
176
     1
290
     0
176
     1
 90
       50
176
     1
 40
0.0
176
     1
 40
1.0
176
     1
 90
        0
176
     1
 62
    18
420
        0
176
     1
 90
       50
176
     1
 90
        3
176
     1
 62
     5
420
      255
176
     1
290
     0
176
     1
 90
       50
176
     1
 90
       50
176
     1
 90
       50
176
     1
290
     0
176
     1
 90
       50
176
     1
 62
   256
176
     0
 40
1.0
176
     0
 90
        2
176
     1
  1
strokes_ogs.tif
176
     1
290
     0
176
     1
 40
1.0
176
     1
 40
1.0
176
     1
  0
VISUALSTYLE
  5
36
102
{ACAD_REACTORS
330
29
102
}
330
29
100
AcDbVisualStyle
  2
Thicken
 70
    13
177
     3
291
     1
 70
    58
 90
        2
176
     1
 90
        2
176
     1
 90
        0
176
     1
 90
        0
176
     1
 40
0.6
176
     1
 40
30.0
176
     1
 62
     7
420
 16777215
176
     1
 90
        1
176
     1
 90
        4
176
     1
 62
     7
176
     1
 62
   257
176
     1
 90
        1
176
     1
 90
        1
176
     1
 40
1.0
176
     1
 90
       12
176
     1
 62
     7
176
     1
 40
1.0
176
     1
 90
        1
176
     1
 90
        6
176
     1
 90
        2
176
     1
 62
     7
176
     1
 90
        5
176
     1
 90
        0
176
     1
 90
        0
176
     1
290
     0
176
     1
 90
        1
176
     1
 40
0.0
176
     1
 90
        0
176
     1
290
     0
176
     1
290
     1
176
     1
290
     1
176
     1
290
     0
176
     1
290
     0
176
     1
290
     0
176
     1
290
     0
176
     1
290
     0
176
     1
290
     0
176
     1
 90
       50
176
     1
 40
0.0
176
     1
 40
1.0
176
     1
 90
        0
176
     1
 62
    18
420
        0
176
     1
 90
       50
176
     1
 90
        3
176
     1
 62
     5
420
      255
176
     1
290
     0
176
     1
 90
       50
176
     1
 90
       50
176
     1
 90
       50
176
     1
290
     0
176
     1
 90
       50
176
     1
 62
   256
176
     0
 40
1.0
176
     0
 90
        2
176
     1
  1
strokes_ogs.tif
176
     1
290
     0
176
     1
 40
1.0
176
     1
 40
1.0
176
     1
  0
VISUALSTYLE
  5
30
102
{ACAD_REACTORS
330
29
102
}
330
29
100
AcDbVisualStyle
  2
Wireframe
 70
     5
177
     3
291
     0
 70
    58
 90
        0
176
     1
 90
        2
176
     1
 90
        0
176
     1
 90
        0
176
     1
 40
0.6
176
     1
 40
30.0
176
     1
 62
     7
420
 16777215
176
     1
 90
        1
176
     1
 90
        4
176
     1
 62
     7
176
     1
 62
   257
176
     1
 90
        1
176
     1
 90
        1
176
     1
 40
1.0
176
     1
 90
        0
176
     1
 62
   257
176
     1
 40
1.0
176
     1
 90
        1
176
     1
 90
        6
176
     1
 90
        2
176
     1
 62
     7
176
     1
 90
        3
176
     1
 90
        0
176
     1
 90
        0
176
     1
290
     0
176
     1
 90
        1
176
     1
 40
0.0
176
     1
 90
        0
176
     1
290
     0
176
     1
290
     1
176
     1
290
     1
176
     1
290
     0
176
     1
290
     0
176
     1
290
     0
176
     1
290
     0
176
     1
290
     0
176
     1
290
     0
176
     1
 90
       50
176
     1
 40
0.0
176
     1
 40
1.0
176
     1
 90
        0
176
     1
 62
    18
420
        0
176
     1
 90
       50
176
     1
 90
        3
176
     1
 62
     5
420
      255
176
     1
290
     0
176
     1
 90
       50
176
     1
 90
       50
176
     1
 90
       50
176
     1
290
     0
176
     1
 90
       50
176
     1
 62
   256
176
     0
 40
1.0
176
     0
 90
        2
176
     1
  1
strokes_ogs.tif
176
     1
290
     0
176
     1
 40
1.0
176
     1
 40
1.0
176
     1
  0
VISUALSTYLE
  5
3C
102
{ACAD_REACTORS
330
29
102
}
330
29
100
AcDbVisualStyle
  2
X-Ray
 70
    25
177
     3
291
     0
 70
    58
 90
        2
176
     1
 90
        2
176
     1
 90
        1
176
     1
 90
        1
176
     1
 40
0.5
176
     1
 40
30.0
176
     1
 62
     7
420
 16777215
176
     1
 90
        1
176
     1
 90
        0
176
     1
 62
     7
176
     1
 62
   257
176
     1
 90
        1
176
     1
 90
        1
176
     1
 40
1.0
176
     1
 90
        8
176
     1
 62
     7
176
     1
 40
1.0
176
     1
 90
        1
176
     1
 90
        6
176
     1
 90
        2
176
     1
 62
     7
176
     1
 90
        3
176
     1
 90
        0
176
     1
 90
        0
176
     1
290
     0
176
     1
 90
       13
176
     1
 40
0.0
176
     1
 90
        0
176
     1
290
     0
176
     1
290
     1
176
     1
290
     1
176
     1
290
     0
176
     1
290
     0
176
     1
290
     0
176
     1
290
     0
176
     1
290
     0
176
     1
290
     0
176
     1
 90
       50
176
     1
 40
0.0
176
     1
 40
1.0
176
     1
 90
        0
176
     1
 62
    18
420
        0
176
     1
 90
       50
176
     1
 90
        3
176
     1
 62
     5
420
      255
176
     1
290
     0
176
     1
 90
       50
176
     1
 90
       50
176
     1
 90
       50
176
     1
290
     0
176
     1
 90
       50
176
     1
 62
   256
176
     0
 40
1.0
176
     0
 90
        2
176
     1
  1
strokes_ogs.tif
176
     1
290
     0
176
     1
 40
1.0
176
     1
 40
1.0
176
     1
  0
DICTIONARYVAR
  5
D3
102
{ACAD_REACTORS
330
CE
102
}
330
CE
100
DictionaryVariables
280
     0
  1
1:1
  0
DICTIONARYVAR
  5
D0
102
{ACAD_REACTORS
330
CE
102
}
330
CE
100
DictionaryVariables
280
     0
  1
STANDARD
  0
DICTIONARYVAR
  5
CF
102
{ACAD_REACTORS
330
CE
102
}
330
CE
100
DictionaryVariables
280
     0
  1
STANDARD
  0
DICTIONARYVAR
  5
D1
102
{ACAD_REACTORS
330
CE
102
}
330
CE
100
DictionaryVariables
280
     0
  1
Imperial24
  0
DICTIONARYVAR
  5
D2
102
{ACAD_REACTORS
330
CE
102
}
330
CE
100
DictionaryVariables
280
     0
  1
Imperial24
  0
DICTIONARY
  5
1A
330
19
100
AcDbDictionary
280
     1
281
     1
  3
BUMPTILE
360
1C
  3
DIFFUSETILE
360
1B
  3
OPACITYTILE
360
1F
  3
REFLECTIONTILE
360
1E
  3
REFRACTIONTILE
360
20
  3
SPECULARTILE
360
1D
  0
DICTIONARY
  5
12
330
11
100
AcDbDictionary
280
     1
281
     1
  3
BUMPTILE
360
14
  3
DIFFUSETILE
360
13
  3
OPACITYTILE
360
17
  3
REFLECTIONTILE
360
16
  3
REFRACTIONTILE
360
18
  3
SPECULARTILE
360
15
  0
DICTIONARY
  5
22
330
21
100
AcDbDictionary
280
     1
281
     1
  3
BUMPTILE
360
24
  3
DIFFUSETILE
360
23
  3
OPACITYTILE
360
27
  3
REFLECTIONTILE
360
26
  3
REFRACTIONTILE
360
28
  3
SPECULARTILE
360
25
  0
DICTIONARY
  5
D4
330
65
100
AcDbDictionary
280
     1
281
     1
  3
ACAD_ROUNDTRIP_2008_TABLESTYLE_CELLSTYLEMAP
360
D5
  0
XRECORD
  5
1C
102
{ACAD_REACTORS
330
1A
102
}
330
1A
100
AcDbXrecord
280
     1
270
     1
271
     1
  0
XRECORD
  5
1B
102
{ACAD_REACTORS
330
1A
102
}
330
1A
100
AcDbXrecord
280
     1
270
     1
271
     1
  0
XRECORD
  5
1F
102
{ACAD_REACTORS
330
1A
102
}
330
1A
100
AcDbXrecord
280
     1
270
     1
271
     1
  0
XRECORD
  5
1E
102
{ACAD_REACTORS
330
1A
102
}
330
1A
100
AcDbXrecord
280
     1
270
     1
271
     1
  0
XRECORD
  5
20
102
{ACAD_REACTORS
330
1A
102
}
330
1A
100
AcDbXrecord
280
     1
270
     1
271
     1
  0
XRECORD
  5
1D
102
{ACAD_REACTORS
330
1A
102
}
330
1A
100
AcDbXrecord
280
     1
270
     1
271
     1
  0
XRECORD
  5
14
102
{ACAD_REACTORS
330
12
102
}
330
12
100
AcDbXrecord
280
     1
270
     1
271
     1
  0
XRECORD
  5
13
102
{ACAD_REACTORS
330
12
102
}
330
12
100
AcDbXrecord
280
     1
270
     1
271
     1
  0
XRECORD
  5
17
102
{ACAD_REACTORS
330
12
102
}
330
12
100
AcDbXrecord
280
     1
270
     1
271
     1
  0
XRECORD
  5
16
102
{ACAD_REACTORS
330
12
102
}
330
12
100
AcDbXrecord
280
     1
270
     1
271
     1
  0
XRECORD
  5
18
102
{ACAD_REACTORS
330
12
102
}
330
12
100
AcDbXrecord
280
     1
270
     1
271
     1
  0
XRECORD
  5
15
102
{ACAD_REACTORS
330
12
102
}
330
12
100
AcDbXrecord
280
     1
270
     1
271
     1
  0
XRECORD
  5
24
102
{ACAD_REACTORS
330
22
102
}
330
22
100
AcDbXrecord
280
     1
270
     1
271
     1
  0
XRECORD
  5
23
102
{ACAD_REACTORS
330
22
102
}
330
22
100
AcDbXrecord
280
     1
270
     1
271
     1
  0
XRECORD
  5
27
102
{ACAD_REACTORS
330
22
102
}
330
22
100
AcDbXrecord
280
     1
270
     1
271
     1
  0
XRECORD
  5
26
102
{ACAD_REACTORS
330
22
102
}
330
22
100
AcDbXrecord
280
     1
270
     1
271
     1
  0
XRECORD
  5
28
102
{ACAD_REACTORS
330
22
102
}
330
22
100
AcDbXrecord
280
     1
270
     1
271
     1
  0
XRECORD
  5
25
102
{ACAD_REACTORS
330
22
102
}
330
22
100
AcDbXrecord
280
     1
270
     1
271
     1
  0
CELLSTYLEMAP
  5
D5
102
{ACAD_REACTORS
330
D4
102
}
330
D4
100
AcDbCellStyleMap
 90
        3
300
CELLSTYLE
  1
TABLEFORMAT_BEGIN
 90
        5
170
     1
 91
        0
 92
    32768
 62
   257
 93
        1
300
CONTENTFORMAT
  1
CONTENTFORMAT_BEGIN
 90
        0
 91
        0
 92
      512
 93
        0
300

 40
0.0
140
1.0
 94
        5
 62
     0
340
55
144
0.25
309
CONTENTFORMAT_END
171
     0
 94
        0
309
TABLEFORMAT_END
  1
CELLSTYLE_BEGIN
 90
        1
 91
        1
300
_TITLE
309
CELLSTYLE_END
300
CELLSTYLE
  1
TABLEFORMAT_BEGIN
 90
        5
170
     1
 91
        0
 92
        0
 62
   257
 93
        1
300
CONTENTFORMAT
  1
CONTENTFORMAT_BEGIN
 90
        0
 91
        0
 92
      512
 93
        0
300

 40
0.0
140
1.0
 94
        5
 62
     0
340
55
144
0.18
309
CONTENTFORMAT_END
171
     0
 94
        0
309
TABLEFORMAT_END
  1
CELLSTYLE_BEGIN
 90
        2
 91
        1
300
_HEADER
309
CELLSTYLE_END
300
CELLSTYLE
  1
TABLEFORMAT_BEGIN
 90
        5
170
     1
 91
        0
 92
        0
 62
   257
 93
        1
300
CONTENTFORMAT
  1
CONTENTFORMAT_BEGIN
 90
        0
 91
        0
 92
      512
 93
        0
300

 40
0.0
140
1.0
 94
        2
 62
     0
340
55
144
0.18
309
CONTENTFORMAT_END
171
     0
 94
        0
309
TABLEFORMAT_END
  1
CELLSTYLE_BEGIN
 90
        3
 91
        2
300
_DATA
309
CELLSTYLE_END
  0
ENDSEC
  0
EOF
