<?xml version="1.0" encoding="UTF-8"?>
<svg id="preimum" xmlns="http://www.w3.org/2000/svg" viewBox="0 0 713.48 253">
  <defs>
    <style>
      .cls-1 {
        stroke-width: .14px;
      }

      .cls-1, .cls-2, .cls-3 {
        fill: none;
      }

      .cls-1, .cls-3 {
        stroke: #010101;
        stroke-linecap: round;
        stroke-linejoin: round;
      }

      .cls-2 {
        stroke: #231f20;
        stroke-miterlimit: 10;
        stroke-width: .14px;
      }

      .cls-3 {
        stroke-width: .14px;
      }
    </style>
  </defs>
  <g id="LWPOLYLINE">
    <rect class="cls-3" x="228.9" y="25.66" width="39.69" height="39.69" rx="1.42" ry="1.42"/>
  </g>
  <g id="LWPOLYLINE-2" data-name="LWPOLYLINE">
    <rect class="cls-3" x="282.9" y="25.66" width="39.69" height="39.69" rx="1.42" ry="1.42"/>
  </g>
  <g id="LWPOLYLINE-3" data-name="LWPOLYLINE">
    <rect class="cls-3" x="444.9" y="25.66" width="39.69" height="39.69" rx="1.42" ry="1.42"/>
  </g>
  <g id="LWPOLYLINE-4" data-name="LWPOLYLINE">
    <rect class="cls-3" x="498.9" y="25.66" width="39.69" height="39.69" rx="1.42" ry="1.42"/>
  </g>
  <g id="LWPOLYLINE-5" data-name="LWPOLYLINE">
    <rect class="cls-3" x="552.9" y="25.66" width="39.69" height="39.69" rx="1.42" ry="1.42"/>
  </g>
  <g id="LWPOLYLINE-6" data-name="LWPOLYLINE">
    <rect class="cls-3" x="390.9" y="25.66" width="39.69" height="39.69" rx="1.42" ry="1.42"/>
  </g>
  <g id="LWPOLYLINE-7" data-name="LWPOLYLINE">
    <rect class="cls-3" x="120.9" y="79.66" width="39.69" height="39.69" rx="1.42" ry="1.42"/>
  </g>
  <rect class="cls-3" x="228.9" y="79.66" width="39.69" height="39.69" rx="1.42" ry="1.42"/>
  <g id="LWPOLYLINE-8" data-name="LWPOLYLINE">
    <rect class="cls-3" x="282.9" y="79.66" width="39.69" height="39.69" rx="1.42" ry="1.42"/>
  </g>
  <g id="LWPOLYLINE-9" data-name="LWPOLYLINE">
    <rect class="cls-3" x="174.9" y="79.66" width="39.69" height="39.69" rx="1.42" ry="1.42"/>
  </g>
  <g id="LWPOLYLINE-10" data-name="LWPOLYLINE">
    <rect class="cls-3" x="12.9" y="79.66" width="39.69" height="39.69" rx="1.42" ry="1.42"/>
  </g>
  <g id="LWPOLYLINE-11" data-name="LWPOLYLINE">
    <rect class="cls-3" x="660.9" y="25.66" width="39.69" height="39.69" rx="1.42" ry="1.42"/>
  </g>
  <g id="LWPOLYLINE-12" data-name="LWPOLYLINE">
    <rect class="cls-3" x="66.9" y="79.66" width="39.69" height="39.69" rx="1.42" ry="1.42"/>
  </g>
  <g id="LWPOLYLINE-13" data-name="LWPOLYLINE">
    <rect class="cls-3" x="606.9" y="25.66" width="39.69" height="39.69" rx="1.42" ry="1.42"/>
  </g>
  <g id="LWPOLYLINE-14" data-name="LWPOLYLINE">
    <rect class="cls-3" x="12.9" y="25.66" width="39.69" height="39.69" rx="1.42" ry="1.42"/>
  </g>
  <g id="LWPOLYLINE-15" data-name="LWPOLYLINE">
    <rect class="cls-3" x="66.9" y="25.66" width="39.69" height="39.69" rx="1.42" ry="1.42"/>
  </g>
  <g id="LWPOLYLINE-16" data-name="LWPOLYLINE">
    <path class="cls-3" d="m160.58,54v9.92c0,.78-.63,1.42-1.42,1.42h-36.85c-.78,0-1.42-.63-1.42-1.42V27.07c0-.78.63-1.42,1.42-1.42h36.85c.78,0,1.42.63,1.42,1.42v9.92"/>
  </g>
  <g id="LWPOLYLINE-17" data-name="LWPOLYLINE">
    <path class="cls-3" d="m174.9,36.99v-9.92c0-.78.63-1.42,1.42-1.42h36.85c.78,0,1.42.63,1.42,1.42v36.85c0,.78-.63,1.42-1.42,1.42h-36.85c-.78,0-1.42-.63-1.42-1.42v-9.92"/>
  </g>
  <g id="LWPOLYLINE-18" data-name="LWPOLYLINE">
    <rect class="cls-3" x="390.9" y="79.66" width="39.69" height="39.69" rx="1.42" ry="1.42"/>
  </g>
  <g id="LWPOLYLINE-19" data-name="LWPOLYLINE">
    <rect class="cls-3" x="93.9" y="133.66" width="39.69" height="39.69" rx="1.42" ry="1.42"/>
  </g>
  <g id="LWPOLYLINE-20" data-name="LWPOLYLINE">
    <rect class="cls-3" x="552.9" y="79.66" width="39.69" height="39.69" rx="1.42" ry="1.42"/>
  </g>
  <g id="LWPOLYLINE-21" data-name="LWPOLYLINE">
    <rect class="cls-3" x="660.9" y="79.66" width="39.69" height="39.69" rx="1.42" ry="1.42"/>
  </g>
  <g id="LWPOLYLINE-22" data-name="LWPOLYLINE">
    <rect class="cls-3" x="444.9" y="79.66" width="39.69" height="39.69" rx="1.42" ry="1.42"/>
  </g>
  <g id="LWPOLYLINE-23" data-name="LWPOLYLINE">
    <rect class="cls-3" x="498.9" y="79.66" width="39.69" height="39.69" rx="1.42" ry="1.42"/>
  </g>
  <g id="LWPOLYLINE-24" data-name="LWPOLYLINE">
    <rect class="cls-3" x="606.9" y="79.66" width="39.69" height="39.69" rx="1.42" ry="1.42"/>
  </g>
  <g id="LWPOLYLINE-25" data-name="LWPOLYLINE">
    <rect class="cls-3" x="255.9" y="133.66" width="39.69" height="39.69" rx="1.42" ry="1.42"/>
  </g>
  <g id="LWPOLYLINE-26" data-name="LWPOLYLINE">
    <rect class="cls-3" x="309.9" y="133.66" width="39.69" height="39.69" rx="1.42" ry="1.42"/>
  </g>
  <g id="LWPOLYLINE-27" data-name="LWPOLYLINE">
    <rect class="cls-3" x="201.9" y="133.66" width="39.69" height="39.69" rx="1.42" ry="1.42"/>
  </g>
  <g id="LWPOLYLINE-28" data-name="LWPOLYLINE">
    <rect class="cls-3" x="147.9" y="133.66" width="39.69" height="39.69" rx="1.42" ry="1.42"/>
  </g>
  <g id="LWPOLYLINE-29" data-name="LWPOLYLINE">
    <rect class="cls-3" x="363.9" y="133.66" width="39.69" height="39.69" rx="1.42" ry="1.42"/>
  </g>
  <g id="LWPOLYLINE-30" data-name="LWPOLYLINE">
    <rect class="cls-3" x="417.9" y="133.66" width="39.69" height="39.69" rx="1.42" ry="1.42"/>
  </g>
  <g id="LWPOLYLINE-31" data-name="LWPOLYLINE">
    <rect class="cls-3" x="471.9" y="133.66" width="39.69" height="39.69" rx="1.42" ry="1.42"/>
  </g>
  <g id="LWPOLYLINE-32" data-name="LWPOLYLINE">
    <rect class="cls-3" x="579.9" y="133.66" width="39.69" height="39.69" rx="1.42" ry="1.42"/>
  </g>
  <g id="LWPOLYLINE-33" data-name="LWPOLYLINE">
    <rect class="cls-3" x="525.9" y="133.66" width="39.69" height="39.69" rx="1.42" ry="1.42"/>
  </g>
  <g id="LWPOLYLINE-34" data-name="LWPOLYLINE">
    <rect class="cls-3" x="26.4" y="133.66" width="39.69" height="39.69" rx="1.42" ry="1.42"/>
  </g>
  <g id="LWPOLYLINE-35" data-name="LWPOLYLINE">
    <rect class="cls-3" x="647.4" y="133.66" width="39.69" height="39.69" rx="1.42" ry="1.42"/>
  </g>
  <g id="LWPOLYLINE-36" data-name="LWPOLYLINE">
    <rect class="cls-3" x="208.65" y="187.66" width="39.69" height="39.69" rx="1.42" ry="1.42"/>
  </g>
  <g id="LWPOLYLINE-37" data-name="LWPOLYLINE">
    <rect class="cls-3" x="289.65" y="187.66" width="39.69" height="39.69" rx="1.42" ry="1.42"/>
  </g>
  <g id="LWPOLYLINE-38" data-name="LWPOLYLINE">
    <rect class="cls-3" x="384.15" y="187.66" width="39.69" height="39.69" rx="1.42" ry="1.42"/>
  </g>
  <g id="LWPOLYLINE-39" data-name="LWPOLYLINE">
    <rect class="cls-3" x="465.15" y="187.66" width="39.69" height="39.69" rx="1.42" ry="1.42"/>
  </g>
  <line class="cls-2" x1="161.29" y1="37.7" x2="174.19" y2="37.7"/>
  <path class="cls-2" d="m161.29,37.7c-.39,0-.71-.32-.71-.71"/>
  <path class="cls-2" d="m174.9,36.99c0,.39-.32.71-.71.71"/>
  <path class="cls-2" d="m160.58,54c0-.39.32-.71.71-.71"/>
  <path class="cls-2" d="m174.19,53.29c.39,0,.71.32.71.71"/>
  <line class="cls-2" x1="161.29" y1="53.29" x2="174.19" y2="53.29"/>
  <rect class="cls-3" x="80.4" y="187.66" width="46.47" height="39.69" rx="1.42" ry="1.42"/>
  <rect class="cls-3" x="141.15" y="187.66" width="46.47" height="39.69" rx="1.42" ry="1.42"/>
  <rect class="cls-3" x="525.86" y="187.66" width="46.47" height="39.69" rx="1.42" ry="1.42"/>
  <rect class="cls-3" x="586.61" y="187.66" width="46.47" height="39.69" rx="1.42" ry="1.42"/>
  <g>
    <g>
      <circle class="cls-3" cx="334.06" cy="27" r="2.8"/>
      <circle class="cls-3" cx="379.42" cy="27" r="2.8"/>
    </g>
    <g>
      <circle class="cls-3" cx="334.06" cy="118" r="2.8"/>
      <circle class="cls-3" cx="379.42" cy="118" r="2.8"/>
    </g>
  </g>
  <g>
    <g id="LWPOLYLINE-40" data-name="LWPOLYLINE">
      <path class="cls-1" d="m89.27,9.64c1.16-4.49,4.67-8,9.16-9.16,6.82-1.76,13.78,2.34,15.54,9.16.48,1.88,2.18,3.19,4.12,3.19h477.3c1.94,0,3.63-1.31,4.12-3.19,1.16-4.49,4.67-8,9.16-9.16,6.82-1.76,13.78,2.34,15.54,9.16.48,1.88,2.18,3.19,4.12,3.19h80.83c2.35,0,4.25,1.9,4.25,4.25v218.83c0,2.35-1.9,4.25-4.25,4.25h-80.83c-1.94,0-3.63,1.31-4.12,3.19-1.16,4.49-4.67,8-9.16,9.16-6.82,1.76-13.78-2.34-15.54-9.16-.48-1.88-2.18-3.19-4.12-3.19H118.09c-1.94,0-3.63,1.31-4.12,3.19-1.16,4.49-4.67,8-9.16,9.16-6.82,1.76-13.78-2.34-15.54-9.16-.48-1.88-2.18-3.19-4.12-3.19H4.32c-2.35,0-4.25-1.9-4.25-4.25V17.08c0-2.35,1.9-4.25,4.25-4.25h80.83c1.94,0,3.63-1.31,4.12-3.19Z"/>
    </g>
    <g id="CIRCLE">
      <circle class="cls-1" cx="101.62" cy="7.16" r="3.12"/>
    </g>
    <g id="CIRCLE-2" data-name="CIRCLE">
      <circle class="cls-1" cx="101.62" cy="245.84" r="3.12"/>
    </g>
    <g id="CIRCLE-3" data-name="CIRCLE">
      <circle class="cls-1" cx="611.86" cy="245.84" r="3.12"/>
    </g>
    <g id="CIRCLE-4" data-name="CIRCLE">
      <circle class="cls-1" cx="611.86" cy="7.16" r="3.12"/>
    </g>
  </g>
</svg>