<?xml version="1.0" encoding="utf-8"?>
<!-- Generator: Adobe Illustrator 26.5.0, SVG Export Plug-In . SVG Version: 6.00 Build 0)  -->
<svg version="1.1" id="Layer_1" xmlns="http://www.w3.org/2000/svg" xmlns:xlink="http://www.w3.org/1999/xlink" x="0px" y="0px"
	 viewBox="0 0 56.69 141.73" style="enable-background:new 0 0 56.69 141.73;" xml:space="preserve">
<style type="text/css">
	.st0{fill:none;stroke:#010101;stroke-width:0.142;stroke-miterlimit:10;}
	.st1{fill:none;stroke:#010101;stroke-width:0.142;stroke-linecap:round;stroke-linejoin:round;stroke-miterlimit:10;}
</style>
<path class="st0" d="M50.93,119.65c-1.55,0-2.8-1.25-2.8-2.8c0-1.55,1.25-2.8,2.8-2.8c1.08,0,2.01,0.62,2.47,1.51V27.14
	c-0.47,0.9-1.39,1.51-2.47,1.51c-1.55,0-2.8-1.25-2.8-2.8c0-1.55,1.25-2.8,2.8-2.8c1.08,0,2.01,0.62,2.47,1.51v-5.05
	c0-0.39-0.32-0.71-0.71-0.71H3.81c-0.39,0-0.71,0.32-0.71,0.71v5.05c0.47-0.9,1.39-1.51,2.47-1.51c1.55,0,2.8,1.25,2.8,2.8
	c0,1.55-1.25,2.8-2.8,2.8c-1.08,0-2.01-0.62-2.47-1.51v88.43c0.47-0.9,1.39-1.51,2.47-1.51c1.55,0,2.8,1.25,2.8,2.8
	c0,1.55-1.25,2.8-2.8,2.8c-1.08,0-2.01-0.62-2.47-1.51v5.05c0,0.39,0.32,0.71,0.71,0.71H52.7c0.39,0,0.71-0.32,0.71-0.71v-5.05
	C52.94,119.03,52.01,119.65,50.93,119.65z"/>
<g>
	<circle class="st1" cx="28.26" cy="44.37" r="11.34"/>
	<g>
		<circle class="st1" cx="14.79" cy="30.9" r="2.8"/>
	</g>
	<g>
		<circle class="st1" cx="14.79" cy="57.83" r="2.8"/>
	</g>
	<g>
		<circle class="st1" cx="41.72" cy="30.87" r="2.8"/>
	</g>
	<g>
		<circle class="st1" cx="41.72" cy="57.8" r="2.8"/>
	</g>
</g>
</svg>
