M48
; DRILL file {KiCad (6.0.5)} date Mon Sep 12 09:14:38 2022
; FORMAT={-:-/ absolute / inch / decimal}
; #@! TF.CreationDate,2022-09-12T09:14:38-04:00
; #@! TF.GenerationSoftware,Kicad,Pcbnew,(6.0.5)
; #@! TF.FileFunction,Plated,1,2,PTH
FMAT,2
INCH
; #@! TA.AperFunction,Plated,PTH,ComponentDrill
T1C0.0079
; #@! TA.AperFunction,Plated,PTH,ViaDrill
T2C0.0118
; #@! TA.AperFunction,Plated,PTH,ViaDrill
T3C0.0157
; #@! TA.AperFunction,Plated,PTH,ComponentDrill
T4C0.0197
; #@! TA.AperFunction,Plated,PTH,ComponentDrill
T5C0.0236
; #@! TA.AperFunction,Plated,PTH,ComponentDrill
T6C0.0320
; #@! TA.AperFunction,Plated,PTH,ComponentDrill
T7C0.0394
; #@! TA.AperFunction,Plated,PTH,ComponentDrill
T8C0.0579
%
G90
G05
T1
X5.7825Y-1.7262
X5.7825Y-1.7725
X5.7825Y-1.8187
X5.7825Y-1.865
X5.7825Y-1.9113
X5.8287Y-1.7262
X5.8287Y-1.7725
X5.8287Y-1.8187
X5.8287Y-1.865
X5.8287Y-1.9113
X5.875Y-1.7262
X5.875Y-1.7725
X5.875Y-1.8187
X5.875Y-1.865
X5.875Y-1.9113
X5.9213Y-1.7262
X5.9213Y-1.7725
X5.9213Y-1.8187
X5.9213Y-1.865
X5.9213Y-1.9113
X5.9675Y-1.7262
X5.9675Y-1.7725
X5.9675Y-1.8187
X5.9675Y-1.865
X5.9675Y-1.9113
T2
X1.6175Y-1.6096
X1.6564Y-1.4335
X1.6765Y-1.4042
X1.8029Y-1.4335
X1.8446Y-1.4042
X1.8783Y-1.4101
X5.4062Y-1.7812
X5.5Y-1.7287
X5.5637Y-1.4063
X5.5864Y-1.9447
X5.6245Y-1.5556
X5.6416Y-2.1255
X5.642Y-2.2612
X5.6875Y-1.375
X5.737Y-2.1264
X5.8279Y-1.2185
X5.9209Y-2.5603
X5.9806Y-1.2201
X6.125Y-2.1562
X6.125Y-2.1989
X6.1875Y-1.6995
X6.221Y-2.096
X6.2433Y-1.5735
T3
X1.5597Y-1.5646
X1.9432Y-1.5655
X3.3227Y-1.4002
X3.3229Y-1.5362
X5.125Y-1.7033
X5.297Y-1.565
X5.2992Y-2.3144
X5.3545Y-1.5415
X5.45Y-1.4831
X5.4681Y-1.4279
X5.525Y-2.2875
X5.5477Y-1.6643
X5.6562Y-2.0312
X5.9375Y-2.131
X5.9375Y-3.0312
X5.9707Y-1.5389
X5.9736Y-2.1283
X6.0625Y-1.5938
X6.0797Y-1.3062
X6.093Y-1.4299
X6.1532Y-1.304
X6.2188Y-1.9222
X6.2888Y-2.2935
X6.6567Y-3.0317
X6.9087Y-3.815
T4
X5.6875Y-2.3438
X5.7812Y-2.3438
X5.875Y-2.3438
X5.9688Y-2.3438
X6.0625Y-2.3438
T6
X5.725Y-1.1457
X5.825Y-1.1457
X5.925Y-1.1457
X6.025Y-1.1457
T7
X5.5125Y-1.1812
X5.5125Y-1.2812
X5.5125Y-1.3812
X5.6125Y-1.1812
X5.6125Y-1.2812
X5.6125Y-1.3812
X6.1516Y-2.6922
X6.1516Y-3.2631
X6.25Y-3.2631
X6.3484Y-2.6922
X6.3484Y-3.2631
T8
X1.225Y-1.3687
X1.225Y-2.1187
X1.4125Y-2.8687
X1.475Y-1.2688
X1.475Y-2.0187
X1.5062Y-2.8687
X1.6Y-2.8687
X1.6625Y-2.7687
X1.7562Y-2.7687
X1.85Y-2.7687
X1.975Y-1.3687
X1.975Y-2.1187
X2.225Y-1.2688
X2.225Y-2.0187
X2.2563Y-3.6187
X2.35Y-2.8687
X2.4438Y-3.6187
X2.5063Y-3.5187
X2.6Y-2.7687
X2.6938Y-3.5187
X2.725Y-1.3687
X2.725Y-2.1187
X2.975Y-1.2688
X2.975Y-2.0187
X3.1Y-2.8687
X3.1Y-3.6187
X3.1938Y-3.6187
X3.35Y-2.7687
X3.35Y-3.5187
X3.4438Y-3.5187
X3.475Y-1.3687
X3.475Y-2.1187
X3.475Y-3.6187
X3.725Y-1.2688
X3.725Y-2.0187
X3.725Y-3.5187
X3.85Y-2.8687
X3.9438Y-3.6187
X4.0375Y-3.6187
X4.1Y-2.7687
X4.1937Y-3.5187
X4.225Y-1.3687
X4.225Y-2.1187
X4.225Y-3.6187
X4.2875Y-3.5187
X4.475Y-1.2688
X4.475Y-2.0187
X4.475Y-3.5187
X4.6Y-2.8687
X4.85Y-2.7687
X4.975Y-1.3687
X4.975Y-2.1187
X5.0687Y-3.6187
X5.1625Y-3.6187
X5.225Y-1.2688
X5.225Y-2.0187
X5.3187Y-3.5187
X5.35Y-2.8687
X5.4125Y-3.5187
X5.6Y-2.7687
X6.1Y-2.8687
X6.2875Y-3.6187
X6.35Y-2.7687
X6.3812Y-3.6187
X6.475Y-1.3687
X6.475Y-2.1187
X6.5375Y-3.5187
X6.6312Y-3.5187
X6.725Y-1.2688
X6.725Y-2.0187
X6.85Y-2.8687
X7.1Y-2.7687
X7.225Y-1.3687
X7.225Y-2.1187
X7.225Y-3.6187
X7.4125Y-3.6187
X7.475Y-1.2688
X7.475Y-2.0187
X7.475Y-3.5187
X7.5062Y-3.6187
X7.6Y-2.8687
X7.6625Y-3.5187
X7.7562Y-3.5187
X7.85Y-2.7687
X7.975Y-1.3687
X7.975Y-2.1187
X7.975Y-3.6187
X8.225Y-1.2688
X8.225Y-2.0187
X8.225Y-3.5187
X8.2562Y-3.6187
X8.35Y-2.8687
X8.35Y-3.6187
X8.5062Y-3.5187
X8.6Y-2.7687
X8.6Y-3.5187
X8.725Y-1.3687
X8.725Y-2.1187
X8.975Y-1.2688
X8.975Y-2.0187
X9.0062Y-3.6187
X9.1Y-2.8687
X9.1937Y-3.6187
X9.2562Y-3.5187
X9.35Y-2.7687
X9.4437Y-3.5187
X9.475Y-1.3687
X9.475Y-2.1187
X9.725Y-1.2688
X9.725Y-2.0187
X9.85Y-2.8687
X9.9437Y-2.8687
X10.0375Y-2.8687
X10.1Y-2.7687
X10.1937Y-2.7687
X10.225Y-1.3687
X10.225Y-2.1187
X10.2875Y-2.7687
X10.475Y-1.2688
X10.475Y-2.0187
T4
G00X1.5799Y-1.0921
M15
G01X1.5799Y-1.1196
M16
G05
G00X1.9201Y-1.0921
M15
G01X1.9201Y-1.1196
M16
G05
T5
G00X1.5799Y-1.2488
M15
G01X1.5799Y-1.2921
M16
G05
G00X1.9201Y-1.2488
M15
G01X1.9201Y-1.2921
M16
G05
T0
M30
