G04 #@! TF.GenerationSoftware,KiCad,Pcbnew,(6.0.5)*
G04 #@! TF.CreationDate,2022-09-13T03:02:11-04:00*
G04 #@! TF.ProjectId,phoenix45_alpha-rounded,70686f65-6e69-4783-9435-5f616c706861,rev?*
G04 #@! TF.SameCoordinates,Original*
G04 #@! TF.FileFunction,Legend,Top*
G04 #@! TF.FilePolarity,Positive*
%FSLAX46Y46*%
G04 Gerber Fmt 4.6, Leading zero omitted, Abs format (unit mm)*
G04 Created by KiCad (PCBNEW (6.0.5)) date 2022-09-13 03:02:11*
%MOMM*%
%LPD*%
G01*
G04 APERTURE LIST*
G04 Aperture macros list*
%AMRoundRect*
0 Rectangle with rounded corners*
0 $1 Rounding radius*
0 $2 $3 $4 $5 $6 $7 $8 $9 X,Y pos of 4 corners*
0 Add a 4 corners polygon primitive as box body*
4,1,4,$2,$3,$4,$5,$6,$7,$8,$9,$2,$3,0*
0 Add four circle primitives for the rounded corners*
1,1,$1+$1,$2,$3*
1,1,$1+$1,$4,$5*
1,1,$1+$1,$6,$7*
1,1,$1+$1,$8,$9*
0 Add four rect primitives between the rounded corners*
20,1,$1+$1,$2,$3,$4,$5,0*
20,1,$1+$1,$4,$5,$6,$7,0*
20,1,$1+$1,$6,$7,$8,$9,0*
20,1,$1+$1,$8,$9,$2,$3,0*%
G04 Aperture macros list end*
%ADD10C,0.150000*%
%ADD11C,0.120000*%
%ADD12C,1.397000*%
%ADD13C,1.750000*%
%ADD14C,3.987800*%
%ADD15C,2.000000*%
%ADD16R,2.000000X2.000000*%
%ADD17O,1.500000X2.800000*%
%ADD18R,1.100000X1.800000*%
%ADD19R,1.000000X1.000000*%
%ADD20O,1.000000X2.100000*%
%ADD21O,0.800000X1.600000*%
%ADD22C,0.650000*%
%ADD23C,1.700000*%
%ADD24RoundRect,0.250000X-0.600000X-0.600000X0.600000X-0.600000X0.600000X0.600000X-0.600000X0.600000X0*%
G04 APERTURE END LIST*
D10*
X165604903Y-98755857D02*
X165652522Y-98708238D01*
X165747760Y-98660618D01*
X165985856Y-98660618D01*
X166081094Y-98708238D01*
X166128713Y-98755857D01*
X166176332Y-98851095D01*
X166176332Y-98946333D01*
X166128713Y-99089190D01*
X165557284Y-99660618D01*
X166176332Y-99660618D01*
X106648214Y-98083630D02*
X106076785Y-98083630D01*
X106362500Y-98083630D02*
X106362500Y-97083630D01*
X106267261Y-97226488D01*
X106172023Y-97321726D01*
X106076785Y-97369345D01*
X91740547Y-97073118D02*
X92359595Y-97073118D01*
X92026261Y-97454071D01*
X92169119Y-97454071D01*
X92264357Y-97501690D01*
X92311976Y-97549309D01*
X92359595Y-97644547D01*
X92359595Y-97882642D01*
X92311976Y-97977880D01*
X92264357Y-98025499D01*
X92169119Y-98073118D01*
X91883404Y-98073118D01*
X91788166Y-98025499D01*
X91740547Y-97977880D01*
X132270535Y-98766369D02*
X132318154Y-98718750D01*
X132413392Y-98671130D01*
X132651488Y-98671130D01*
X132746726Y-98718750D01*
X132794345Y-98766369D01*
X132841964Y-98861607D01*
X132841964Y-98956845D01*
X132794345Y-99099702D01*
X132222916Y-99671130D01*
X132841964Y-99671130D01*
X65546126Y-97073118D02*
X66165174Y-97073118D01*
X65831840Y-97454071D01*
X65974698Y-97454071D01*
X66069936Y-97501690D01*
X66117555Y-97549309D01*
X66165174Y-97644547D01*
X66165174Y-97882642D01*
X66117555Y-97977880D01*
X66069936Y-98025499D01*
X65974698Y-98073118D01*
X65688983Y-98073118D01*
X65593745Y-98025499D01*
X65546126Y-97977880D01*
X82255115Y-97168357D02*
X82302734Y-97120738D01*
X82397972Y-97073118D01*
X82636068Y-97073118D01*
X82731306Y-97120738D01*
X82778925Y-97168357D01*
X82826544Y-97263595D01*
X82826544Y-97358833D01*
X82778925Y-97501690D01*
X82207496Y-98073118D01*
X82826544Y-98073118D01*
X134604166Y-97083630D02*
X135223214Y-97083630D01*
X134889880Y-97464583D01*
X135032738Y-97464583D01*
X135127976Y-97512202D01*
X135175595Y-97559821D01*
X135223214Y-97655059D01*
X135223214Y-97893154D01*
X135175595Y-97988392D01*
X135127976Y-98036011D01*
X135032738Y-98083630D01*
X134747023Y-98083630D01*
X134651785Y-98036011D01*
X134604166Y-97988392D01*
X61404464Y-98083630D02*
X60833035Y-98083630D01*
X61118750Y-98083630D02*
X61118750Y-97083630D01*
X61023511Y-97226488D01*
X60928273Y-97321726D01*
X60833035Y-97369345D01*
X166176332Y-98073118D02*
X165604903Y-98073118D01*
X165890618Y-98073118D02*
X165890618Y-97073118D01*
X165795379Y-97215976D01*
X165700141Y-97311214D01*
X165604903Y-97358833D01*
X186985180Y-97073118D02*
X187604228Y-97073118D01*
X187270894Y-97454071D01*
X187413752Y-97454071D01*
X187508990Y-97501690D01*
X187556609Y-97549309D01*
X187604228Y-97644547D01*
X187604228Y-97882642D01*
X187556609Y-97977880D01*
X187508990Y-98025499D01*
X187413752Y-98073118D01*
X187128037Y-98073118D01*
X187032799Y-98025499D01*
X186985180Y-97977880D01*
X85216963Y-98073118D02*
X84645534Y-98073118D01*
X84931249Y-98073118D02*
X84931249Y-97073118D01*
X84836010Y-97215976D01*
X84740772Y-97311214D01*
X84645534Y-97358833D01*
X192370753Y-98073118D02*
X191799324Y-98073118D01*
X192085039Y-98073118D02*
X192085039Y-97073118D01*
X191989800Y-97215976D01*
X191894562Y-97311214D01*
X191799324Y-97358833D01*
X194175430Y-97168357D02*
X194223049Y-97120738D01*
X194318287Y-97073118D01*
X194556383Y-97073118D01*
X194651621Y-97120738D01*
X194699240Y-97168357D01*
X194746859Y-97263595D01*
X194746859Y-97358833D01*
X194699240Y-97501690D01*
X194127811Y-98073118D01*
X194746859Y-98073118D01*
X103695535Y-97178869D02*
X103743154Y-97131250D01*
X103838392Y-97083630D01*
X104076488Y-97083630D01*
X104171726Y-97131250D01*
X104219345Y-97178869D01*
X104266964Y-97274107D01*
X104266964Y-97369345D01*
X104219345Y-97512202D01*
X103647916Y-98083630D01*
X104266964Y-98083630D01*
X132841964Y-98083630D02*
X132270535Y-98083630D01*
X132556250Y-98083630D02*
X132556250Y-97083630D01*
X132461011Y-97226488D01*
X132365773Y-97321726D01*
X132270535Y-97369345D01*
X163179166Y-97083630D02*
X163798214Y-97083630D01*
X163464880Y-97464583D01*
X163607738Y-97464583D01*
X163702976Y-97512202D01*
X163750595Y-97559821D01*
X163798214Y-97655059D01*
X163798214Y-97893154D01*
X163750595Y-97988392D01*
X163702976Y-98036011D01*
X163607738Y-98083630D01*
X163322023Y-98083630D01*
X163226785Y-98036011D01*
X163179166Y-97988392D01*
X215614285Y-97178869D02*
X215661904Y-97131250D01*
X215757142Y-97083630D01*
X215995238Y-97083630D01*
X216090476Y-97131250D01*
X216138095Y-97178869D01*
X216185714Y-97274107D01*
X216185714Y-97369345D01*
X216138095Y-97512202D01*
X215566666Y-98083630D01*
X216185714Y-98083630D01*
X237045535Y-98766369D02*
X237093154Y-98718750D01*
X237188392Y-98671130D01*
X237426488Y-98671130D01*
X237521726Y-98718750D01*
X237569345Y-98766369D01*
X237616964Y-98861607D01*
X237616964Y-98956845D01*
X237569345Y-99099702D01*
X236997916Y-99671130D01*
X237616964Y-99671130D01*
X237616964Y-98083630D02*
X237045535Y-98083630D01*
X237331250Y-98083630D02*
X237331250Y-97083630D01*
X237236011Y-97226488D01*
X237140773Y-97321726D01*
X237045535Y-97369345D01*
X206041666Y-97083630D02*
X206660714Y-97083630D01*
X206327380Y-97464583D01*
X206470238Y-97464583D01*
X206565476Y-97512202D01*
X206613095Y-97559821D01*
X206660714Y-97655059D01*
X206660714Y-97893154D01*
X206613095Y-97988392D01*
X206565476Y-98036011D01*
X206470238Y-98083630D01*
X206184523Y-98083630D01*
X206089285Y-98036011D01*
X206041666Y-97988392D01*
X232235416Y-97083630D02*
X232854464Y-97083630D01*
X232521130Y-97464583D01*
X232663988Y-97464583D01*
X232759226Y-97512202D01*
X232806845Y-97559821D01*
X232854464Y-97655059D01*
X232854464Y-97893154D01*
X232806845Y-97988392D01*
X232759226Y-98036011D01*
X232663988Y-98083630D01*
X232378273Y-98083630D01*
X232283035Y-98036011D01*
X232235416Y-97988392D01*
X60833035Y-98766369D02*
X60880654Y-98718750D01*
X60975892Y-98671130D01*
X61213988Y-98671130D01*
X61309226Y-98718750D01*
X61356845Y-98766369D01*
X61404464Y-98861607D01*
X61404464Y-98956845D01*
X61356845Y-99099702D01*
X60785416Y-99671130D01*
X61404464Y-99671130D01*
X110849592Y-96944293D02*
X111468640Y-96944293D01*
X111135306Y-97325246D01*
X111278164Y-97325246D01*
X111373402Y-97372865D01*
X111421021Y-97420484D01*
X111468640Y-97515722D01*
X111468640Y-97753817D01*
X111421021Y-97849055D01*
X111373402Y-97896674D01*
X111278164Y-97944293D01*
X110992449Y-97944293D01*
X110897211Y-97896674D01*
X110849592Y-97849055D01*
X213804464Y-98083630D02*
X213233035Y-98083630D01*
X213518750Y-98083630D02*
X213518750Y-97083630D01*
X213423511Y-97226488D01*
X213328273Y-97321726D01*
X213233035Y-97369345D01*
X81216666Y-32948511D02*
X81359523Y-32996130D01*
X81597619Y-32996130D01*
X81692857Y-32948511D01*
X81740476Y-32900892D01*
X81788095Y-32805654D01*
X81788095Y-32710416D01*
X81740476Y-32615178D01*
X81692857Y-32567559D01*
X81597619Y-32519940D01*
X81407142Y-32472321D01*
X81311904Y-32424702D01*
X81264285Y-32377083D01*
X81216666Y-32281845D01*
X81216666Y-32186607D01*
X81264285Y-32091369D01*
X81311904Y-32043750D01*
X81407142Y-31996130D01*
X81645238Y-31996130D01*
X81788095Y-32043750D01*
X82121428Y-31996130D02*
X82359523Y-32996130D01*
X82550000Y-32281845D01*
X82740476Y-32996130D01*
X82978571Y-31996130D01*
X83311904Y-32091369D02*
X83359523Y-32043750D01*
X83454761Y-31996130D01*
X83692857Y-31996130D01*
X83788095Y-32043750D01*
X83835714Y-32091369D01*
X83883333Y-32186607D01*
X83883333Y-32281845D01*
X83835714Y-32424702D01*
X83264285Y-32996130D01*
X83883333Y-32996130D01*
X147772619Y-30103630D02*
X147963095Y-30103630D01*
X148058333Y-30151250D01*
X148153571Y-30246488D01*
X148201190Y-30436964D01*
X148201190Y-30770297D01*
X148153571Y-30960773D01*
X148058333Y-31056011D01*
X147963095Y-31103630D01*
X147772619Y-31103630D01*
X147677380Y-31056011D01*
X147582142Y-30960773D01*
X147534523Y-30770297D01*
X147534523Y-30436964D01*
X147582142Y-30246488D01*
X147677380Y-30151250D01*
X147772619Y-30103630D01*
X149105952Y-31103630D02*
X148629761Y-31103630D01*
X148629761Y-30103630D01*
X149439285Y-30579821D02*
X149772619Y-30579821D01*
X149915476Y-31103630D02*
X149439285Y-31103630D01*
X149439285Y-30103630D01*
X149915476Y-30103630D01*
X150344047Y-31103630D02*
X150344047Y-30103630D01*
X150582142Y-30103630D01*
X150725000Y-30151250D01*
X150820238Y-30246488D01*
X150867857Y-30341726D01*
X150915476Y-30532202D01*
X150915476Y-30675059D01*
X150867857Y-30865535D01*
X150820238Y-30960773D01*
X150725000Y-31056011D01*
X150582142Y-31103630D01*
X150344047Y-31103630D01*
D11*
X158250000Y-75382951D02*
X159250000Y-75382951D01*
X158750000Y-75882951D02*
X158750000Y-74882951D01*
X79830000Y-38756250D02*
X80320000Y-39246250D01*
X85270000Y-38756250D02*
X85270000Y-35856250D01*
X85270000Y-35856250D02*
X84780000Y-35366250D01*
X79830000Y-35856250D02*
X80320000Y-35366250D01*
X83590000Y-34586250D02*
X81510000Y-34586250D01*
X85270000Y-38756250D02*
X84780000Y-39246250D01*
X79830000Y-38756250D02*
X79830000Y-35856250D01*
X83590000Y-40026250D02*
X81510000Y-40026250D01*
X149925000Y-58831250D02*
X149925000Y-60231250D01*
X148525000Y-60231250D02*
X148525000Y-58831250D01*
X148525000Y-58831250D02*
X149925000Y-58831250D01*
X149925000Y-60231250D02*
X148525000Y-60231250D01*
X146143750Y-58831250D02*
X147543750Y-58831250D01*
X147543750Y-58831250D02*
X147543750Y-60231250D01*
X147543750Y-60231250D02*
X146143750Y-60231250D01*
X146143750Y-60231250D02*
X146143750Y-58831250D01*
X143762500Y-58831250D02*
X145162500Y-58831250D01*
X145162500Y-60231250D02*
X143762500Y-60231250D01*
X143762500Y-60231250D02*
X143762500Y-58831250D01*
X145162500Y-58831250D02*
X145162500Y-60231250D01*
X152306250Y-58831250D02*
X152306250Y-60231250D01*
X152306250Y-60231250D02*
X150906250Y-60231250D01*
X150906250Y-60231250D02*
X150906250Y-58831250D01*
X150906250Y-58831250D02*
X152306250Y-58831250D01*
X154687500Y-60231250D02*
X153287500Y-60231250D01*
X153287500Y-60231250D02*
X153287500Y-58831250D01*
X153287500Y-58831250D02*
X154687500Y-58831250D01*
X154687500Y-58831250D02*
X154687500Y-60231250D01*
D12*
X145415000Y-29101250D03*
X147955000Y-29101250D03*
X150495000Y-29101250D03*
X153035000Y-29101250D03*
%LPC*%
D13*
X106680000Y-75406250D03*
X96520000Y-75406250D03*
D14*
X101600000Y-75406250D03*
D13*
X56038750Y-94456250D03*
D14*
X61118750Y-94456250D03*
D13*
X66198750Y-94456250D03*
X125730000Y-75406250D03*
X115570000Y-75406250D03*
D14*
X120650000Y-75406250D03*
X232568750Y-94456250D03*
D13*
X237648750Y-94456250D03*
X227488750Y-94456250D03*
X229870000Y-75406250D03*
D14*
X234950000Y-75406250D03*
D13*
X240030000Y-75406250D03*
X192405000Y-56356250D03*
D14*
X187325000Y-56356250D03*
D13*
X182245000Y-56356250D03*
D15*
X156250000Y-68382951D03*
X161250000Y-68382951D03*
X158750000Y-82882951D03*
X161250000Y-82882951D03*
D16*
X156250000Y-82882951D03*
D17*
X164350000Y-75382951D03*
X153150000Y-75345651D03*
D14*
X225425000Y-37306250D03*
D13*
X220345000Y-37306250D03*
X230505000Y-37306250D03*
X248920000Y-75406250D03*
X259080000Y-75406250D03*
D14*
X254000000Y-75406250D03*
X103981250Y-94456250D03*
D13*
X109061250Y-94456250D03*
X98901250Y-94456250D03*
D14*
X34925000Y-37306250D03*
D13*
X29845000Y-37306250D03*
X40005000Y-37306250D03*
D18*
X84400000Y-40406250D03*
X84400000Y-34206250D03*
X80700000Y-40406250D03*
X80700000Y-34206250D03*
D13*
X210820000Y-94456250D03*
X220980000Y-94456250D03*
D14*
X215900000Y-94456250D03*
X92075000Y-94456250D03*
D13*
X86995000Y-94456250D03*
X97155000Y-94456250D03*
X239395000Y-37306250D03*
D14*
X244475000Y-37306250D03*
D13*
X249555000Y-37306250D03*
D19*
X149225000Y-59531250D03*
D13*
X90011250Y-94456250D03*
D14*
X84931250Y-94456250D03*
D13*
X79851250Y-94456250D03*
D14*
X206375000Y-37306250D03*
D13*
X211455000Y-37306250D03*
X201295000Y-37306250D03*
X210820000Y-75406250D03*
X220980000Y-75406250D03*
D14*
X215900000Y-75406250D03*
D13*
X220345000Y-56356250D03*
D14*
X225425000Y-56356250D03*
D13*
X230505000Y-56356250D03*
D14*
X187325000Y-37306250D03*
D13*
X182245000Y-37306250D03*
X192405000Y-37306250D03*
D14*
X53975000Y-56356250D03*
D13*
X59055000Y-56356250D03*
X48895000Y-56356250D03*
X47148750Y-75406250D03*
D14*
X42068750Y-75406250D03*
D13*
X36988750Y-75406250D03*
D14*
X206375000Y-94456250D03*
D13*
X201295000Y-94456250D03*
X211455000Y-94456250D03*
D14*
X65881250Y-94456250D03*
D13*
X70961250Y-94456250D03*
X60801250Y-94456250D03*
D14*
X111125000Y-94456250D03*
D13*
X116205000Y-94456250D03*
X106045000Y-94456250D03*
D19*
X146843750Y-59531250D03*
D13*
X97155000Y-56356250D03*
X86995000Y-56356250D03*
D14*
X92075000Y-56356250D03*
X158750000Y-75406250D03*
D13*
X153670000Y-75406250D03*
X163830000Y-75406250D03*
X77470000Y-94456250D03*
X87630000Y-94456250D03*
D14*
X82550000Y-94456250D03*
D13*
X67945000Y-56356250D03*
D14*
X73025000Y-56356250D03*
D13*
X78105000Y-56356250D03*
D19*
X144462500Y-59531250D03*
D14*
X244475000Y-56356250D03*
D13*
X249555000Y-56356250D03*
X239395000Y-56356250D03*
D14*
X192087500Y-94456250D03*
D13*
X197167500Y-94456250D03*
X187007500Y-94456250D03*
D14*
X168275000Y-56356250D03*
D13*
X163195000Y-56356250D03*
X173355000Y-56356250D03*
X68580000Y-75406250D03*
D14*
X63500000Y-75406250D03*
D13*
X58420000Y-75406250D03*
D19*
X151606250Y-59531250D03*
D13*
X127476250Y-94456250D03*
D14*
X132556250Y-94456250D03*
D13*
X137636250Y-94456250D03*
X182880000Y-75406250D03*
D14*
X177800000Y-75406250D03*
D13*
X172720000Y-75406250D03*
X135255000Y-37306250D03*
X125095000Y-37306250D03*
D14*
X130175000Y-37306250D03*
D13*
X40005000Y-56356250D03*
D14*
X34925000Y-56356250D03*
D13*
X29845000Y-56356250D03*
X140017500Y-94456250D03*
X129857500Y-94456250D03*
D14*
X134937500Y-94456250D03*
D13*
X182245000Y-94456250D03*
X192405000Y-94456250D03*
D14*
X187325000Y-94456250D03*
D19*
X153987500Y-59531250D03*
D14*
X39687500Y-75406250D03*
D13*
X34607500Y-75406250D03*
X44767500Y-75406250D03*
D14*
X73025000Y-37306250D03*
D13*
X78105000Y-37306250D03*
X67945000Y-37306250D03*
X101282500Y-94456250D03*
X111442500Y-94456250D03*
D14*
X106362500Y-94456250D03*
D13*
X125095000Y-56356250D03*
D14*
X130175000Y-56356250D03*
D13*
X135255000Y-56356250D03*
X258445000Y-37306250D03*
X268605000Y-37306250D03*
D14*
X263525000Y-37306250D03*
X111125000Y-37306250D03*
D13*
X116205000Y-37306250D03*
X106045000Y-37306250D03*
X268605000Y-56356250D03*
X258445000Y-56356250D03*
D14*
X263525000Y-56356250D03*
D13*
X263842500Y-75406250D03*
D14*
X258762500Y-75406250D03*
D13*
X253682500Y-75406250D03*
D14*
X196850000Y-75406250D03*
D13*
X191770000Y-75406250D03*
X201930000Y-75406250D03*
X261461250Y-75406250D03*
D14*
X256381250Y-75406250D03*
D13*
X251301250Y-75406250D03*
X170973750Y-94456250D03*
D14*
X165893750Y-94456250D03*
D13*
X160813750Y-94456250D03*
X232251250Y-94456250D03*
X242411250Y-94456250D03*
D14*
X237331250Y-94456250D03*
X111125000Y-56356250D03*
D13*
X106045000Y-56356250D03*
X116205000Y-56356250D03*
X168592500Y-94456250D03*
D14*
X163512500Y-94456250D03*
D13*
X158432500Y-94456250D03*
X189388750Y-94456250D03*
D14*
X194468750Y-94456250D03*
D13*
X199548750Y-94456250D03*
D14*
X168275000Y-37306250D03*
D13*
X173355000Y-37306250D03*
X163195000Y-37306250D03*
D14*
X44450000Y-75406250D03*
D13*
X49530000Y-75406250D03*
X39370000Y-75406250D03*
X144780000Y-75406250D03*
D14*
X139700000Y-75406250D03*
D13*
X134620000Y-75406250D03*
X218598750Y-94456250D03*
D14*
X213518750Y-94456250D03*
D13*
X208438750Y-94456250D03*
D14*
X82550000Y-75406250D03*
D13*
X77470000Y-75406250D03*
X87630000Y-75406250D03*
X201295000Y-56356250D03*
X211455000Y-56356250D03*
D14*
X206375000Y-56356250D03*
D13*
X59055000Y-37306250D03*
D14*
X53975000Y-37306250D03*
D13*
X48895000Y-37306250D03*
X97155000Y-37306250D03*
D14*
X92075000Y-37306250D03*
D13*
X86995000Y-37306250D03*
D20*
X40130000Y-32268600D03*
D21*
X48770000Y-28088600D03*
X40130000Y-28088600D03*
D20*
X48770000Y-32268600D03*
D22*
X47340000Y-31738600D03*
X41560000Y-31738600D03*
D23*
X142557500Y-30003750D03*
X140017500Y-30003750D03*
X142557500Y-32543750D03*
X140017500Y-32543750D03*
X142557500Y-35083750D03*
D24*
X140017500Y-35083750D03*
M02*
