M48
; DRILL file {KiCad (6.0.5)} date Sun Jul 31 23:30:23 2022
; FORMAT={-:-/ absolute / inch / decimal}
; #@! TF.CreationDate,2022-07-31T23:30:23-04:00
; #@! TF.GenerationSoftware,Kicad,Pcbnew,(6.0.5)
; #@! TF.FileFunction,Plated,1,2,PTH
FMAT,2
INCH
; #@! TA.AperFunction,Plated,PTH,ComponentDrill
T1C0.0079
; #@! TA.AperFunction,Plated,PTH,ViaDrill
T2C0.0118
; #@! TA.AperFunction,Plated,PTH,ViaDrill
T3C0.0157
; #@! TA.AperFunction,Plated,PTH,ComponentDrill
T4C0.0197
; #@! TA.AperFunction,Plated,PTH,ComponentDrill
T5C0.0236
; #@! TA.AperFunction,Plated,PTH,ComponentDrill
T6C0.0320
; #@! TA.AperFunction,Plated,PTH,ComponentDrill
T7C0.0394
; #@! TA.AperFunction,Plated,PTH,ComponentDrill
T8C0.0579
%
G90
G05
T1
X5.7825Y-1.7512
X5.7825Y-1.7975
X5.7825Y-1.8438
X5.7825Y-1.89
X5.7825Y-1.9363
X5.8287Y-1.7512
X5.8287Y-1.7975
X5.8287Y-1.8438
X5.8287Y-1.89
X5.8287Y-1.9363
X5.875Y-1.7512
X5.875Y-1.7975
X5.875Y-1.8438
X5.875Y-1.89
X5.875Y-1.9363
X5.9213Y-1.7512
X5.9213Y-1.7975
X5.9213Y-1.8438
X5.9213Y-1.89
X5.9213Y-1.9363
X5.9675Y-1.7512
X5.9675Y-1.7975
X5.9675Y-1.8438
X5.9675Y-1.89
X5.9675Y-1.9363
T2
X1.6564Y-1.4335
X1.6765Y-1.4042
X1.8029Y-1.4335
X1.8446Y-1.4042
X1.8783Y-1.4101
X1.9062Y-1.8438
X2.1875Y-1.8438
X5.5358Y-1.7731
X5.6424Y-1.9378
X5.6683Y-1.8597
X5.6875Y-1.5625
X5.6888Y-2.1064
X5.6925Y-1.995
X5.6968Y-1.8126
X5.7631Y-1.3362
X5.8836Y-1.337
X5.9744Y-2.1071
X6.0093Y-1.3347
X6.0938Y-2.0312
X6.1444Y-1.661
X6.1562Y-1.75
T3
X1.5597Y-1.5646
X1.9432Y-1.5655
X3.3238Y-1.4574
X5.3125Y-2.3125
X5.4062Y-1.625
X5.469Y-1.6842
X5.4993Y-1.7351
X5.5255Y-1.7085
X5.6427Y-1.8127
X5.9062Y-1.6562
X5.9375Y-2.3125
X6.1539Y-1.4391
X6.4375Y-2.3125
X6.6567Y-3.0317
X6.8125Y-3.8125
T6
X5.725Y-1.1457
X5.825Y-1.1457
X5.925Y-1.1457
X6.025Y-1.1457
T7
X5.5125Y-1.3375
X5.5125Y-1.4375
X5.5125Y-1.5375
X5.6125Y-1.3375
X5.6125Y-1.4375
X5.6125Y-1.5375
T8
X1.225Y-1.3687
X1.225Y-2.1187
X1.4125Y-2.8687
X1.475Y-1.2688
X1.475Y-2.0187
X1.6Y-2.8687
X1.6625Y-2.7687
X1.85Y-2.7687
X1.975Y-1.3687
X1.975Y-2.1187
X2.225Y-1.2688
X2.225Y-2.0187
X2.2563Y-3.6187
X2.35Y-2.8687
X2.5063Y-3.5187
X2.6Y-2.7687
X2.725Y-1.3687
X2.725Y-2.1187
X2.975Y-1.2688
X2.975Y-2.0187
X3.1Y-2.8687
X3.1Y-3.6187
X3.35Y-2.7687
X3.35Y-3.5187
X3.475Y-1.3687
X3.475Y-2.1187
X3.725Y-1.2688
X3.725Y-2.0187
X3.85Y-2.8687
X3.9438Y-3.6187
X4.1Y-2.7687
X4.1937Y-3.5187
X4.225Y-1.3687
X4.225Y-2.1187
X4.475Y-1.2688
X4.475Y-2.0187
X4.6Y-2.8687
X4.85Y-2.7687
X4.975Y-1.3687
X4.975Y-2.1187
X5.0687Y-3.6187
X5.225Y-1.2688
X5.225Y-2.0187
X5.3187Y-3.5187
X5.35Y-2.8687
X5.6Y-2.7687
X6.1Y-2.8687
X6.35Y-2.7687
X6.3812Y-3.6187
X6.475Y-1.3687
X6.475Y-2.1187
X6.6312Y-3.5187
X6.725Y-1.2688
X6.725Y-2.0187
X6.85Y-2.8687
X7.1Y-2.7687
X7.225Y-1.3687
X7.225Y-2.1187
X7.475Y-1.2688
X7.475Y-2.0187
X7.5062Y-3.6187
X7.6Y-2.8687
X7.7562Y-3.5187
X7.85Y-2.7687
X7.975Y-1.3687
X7.975Y-2.1187
X8.225Y-1.2688
X8.225Y-2.0187
X8.35Y-2.8687
X8.35Y-3.6187
X8.6Y-2.7687
X8.6Y-3.5187
X8.725Y-1.3687
X8.725Y-2.1187
X8.975Y-1.2688
X8.975Y-2.0187
X9.1Y-2.8687
X9.1937Y-3.6187
X9.35Y-2.7687
X9.4437Y-3.5187
X9.475Y-1.3687
X9.475Y-2.1187
X9.725Y-1.2688
X9.725Y-2.0187
X9.85Y-2.8687
X10.0375Y-2.8687
X10.1Y-2.7687
X10.225Y-1.3687
X10.225Y-2.1187
X10.2875Y-2.7687
X10.475Y-1.2688
X10.475Y-2.0187
T4
G00X1.5799Y-1.0921
M15
G01X1.5799Y-1.1196
M16
G05
G00X1.9201Y-1.0921
M15
G01X1.9201Y-1.1196
M16
G05
T5
G00X1.5799Y-1.2488
M15
G01X1.5799Y-1.2921
M16
G05
G00X1.9201Y-1.2488
M15
G01X1.9201Y-1.2921
M16
G05
T0
M30
