M48
; DRILL file {KiCad (6.0.5)} date Tue Sep 13 03:02:24 2022
; FORMAT={-:-/ absolute / inch / decimal}
; #@! TF.CreationDate,2022-09-13T03:02:24-04:00
; #@! TF.GenerationSoftware,Kicad,Pcbnew,(6.0.5)
; #@! TF.FileFunction,Plated,1,2,PTH
FMAT,2
INCH
; #@! TA.AperFunction,Plated,PTH,ComponentDrill
T1C0.0079
; #@! TA.AperFunction,Plated,PTH,ViaDrill
T2C0.0118
; #@! TA.AperFunction,Plated,PTH,ViaDrill
T3C0.0157
; #@! TA.AperFunction,Plated,PTH,ComponentDrill
T4C0.0197
; #@! TA.AperFunction,Plated,PTH,ComponentDrill
T5C0.0236
; #@! TA.AperFunction,Plated,PTH,ComponentDrill
T6C0.0320
; #@! TA.AperFunction,Plated,PTH,ComponentDrill
T7C0.0394
; #@! TA.AperFunction,Plated,PTH,ComponentDrill
T8C0.0579
%
G90
G05
T1
X5.7825Y-1.7262
X5.7825Y-1.7725
X5.7825Y-1.8187
X5.7825Y-1.865
X5.7825Y-1.9113
X5.8287Y-1.7262
X5.8287Y-1.7725
X5.8287Y-1.8187
X5.8287Y-1.865
X5.8287Y-1.9113
X5.875Y-1.7262
X5.875Y-1.7725
X5.875Y-1.8187
X5.875Y-1.865
X5.875Y-1.9113
X5.9213Y-1.7262
X5.9213Y-1.7725
X5.9213Y-1.8187
X5.9213Y-1.865
X5.9213Y-1.9113
X5.9675Y-1.7262
X5.9675Y-1.7725
X5.9675Y-1.8187
X5.9675Y-1.865
X5.9675Y-1.9113
T2
X1.2964Y-1.3002
X1.625Y-1.5938
X1.6564Y-1.4335
X1.6765Y-1.4042
X1.8029Y-1.4335
X1.8446Y-1.4042
X1.8783Y-1.4101
X2.047Y-1.2182
X2.5625Y-1.7812
X3.177Y-1.6543
X3.1777Y-1.4582
X5.4688Y-1.75
X5.5938Y-1.4688
X5.6255Y-1.7041
X5.642Y-2.2612
X5.6521Y-1.5473
X5.6834Y-1.8353
X5.6875Y-1.9062
X5.7388Y-2.064
X5.7473Y-1.5266
X5.7805Y-2.0878
X5.8477Y-1.305
X5.9209Y-2.5603
X6.0004Y-1.3066
X6.0312Y-2.0625
X6.0368Y-2.1072
X6.1459Y-1.7369
X6.1583Y-1.6329
X6.2183Y-1.9692
T3
X1.5511Y-1.5647
X1.9522Y-1.5654
X3.3227Y-1.4002
X3.3229Y-1.5362
X4.3125Y-1.625
X4.9764Y-1.6622
X5.297Y-1.565
X5.2992Y-2.3144
X5.3545Y-1.5415
X5.4681Y-1.4279
X5.4688Y-1.4688
X5.525Y-2.2875
X5.9569Y-2.2647
X5.9688Y-1.617
X6.0132Y-1.6478
X6.1082Y-2.2647
X6.1256Y-1.3739
X6.1502Y-1.3488
X6.1875Y-2.4375
X6.2188Y-1.9375
X6.25Y-1.5
X6.2888Y-2.2858
X6.7279Y-3.039
X6.9087Y-3.815
T4
X5.6875Y-2.3438
X5.7812Y-2.3438
X5.875Y-2.3438
X5.9688Y-2.3438
X6.0625Y-2.3438
T6
X5.725Y-1.1457
X5.825Y-1.1457
X5.925Y-1.1457
X6.025Y-1.1457
T7
X5.5125Y-1.1812
X5.5125Y-1.2812
X5.5125Y-1.3812
X5.6125Y-1.1812
X5.6125Y-1.2812
X5.6125Y-1.3812
X6.1516Y-2.6922
X6.1516Y-3.2631
X6.25Y-3.2631
X6.3484Y-2.6922
X6.3484Y-3.2631
T8
X1.225Y-1.3687
X1.225Y-2.1187
X1.4125Y-2.8687
X1.475Y-1.2688
X1.475Y-2.0187
X1.5062Y-2.8687
X1.6Y-2.8687
X1.6625Y-2.7687
X1.7562Y-2.7687
X1.85Y-2.7687
X1.975Y-1.3687
X1.975Y-2.1187
X2.225Y-1.2688
X2.225Y-2.0187
X2.2563Y-3.6187
X2.35Y-2.8687
X2.4438Y-3.6187
X2.5063Y-3.5187
X2.6Y-2.7687
X2.6938Y-3.5187
X2.725Y-1.3687
X2.725Y-2.1187
X2.975Y-1.2688
X2.975Y-2.0187
X3.1Y-2.8687
X3.1Y-3.6187
X3.1938Y-3.6187
X3.35Y-2.7687
X3.35Y-3.5187
X3.4438Y-3.5187
X3.475Y-1.3687
X3.475Y-2.1187
X3.475Y-3.6187
X3.725Y-1.2688
X3.725Y-2.0187
X3.725Y-3.5187
X3.85Y-2.8687
X3.9438Y-3.6187
X4.0375Y-3.6187
X4.1Y-2.7687
X4.1937Y-3.5187
X4.225Y-1.3687
X4.225Y-2.1187
X4.225Y-3.6187
X4.2875Y-3.5187
X4.475Y-1.2688
X4.475Y-2.0187
X4.475Y-3.5187
X4.6Y-2.8687
X4.85Y-2.7687
X4.975Y-1.3687
X4.975Y-2.1187
X5.0687Y-3.6187
X5.1625Y-3.6187
X5.225Y-1.2688
X5.225Y-2.0187
X5.3187Y-3.5187
X5.35Y-2.8687
X5.4125Y-3.5187
X5.6Y-2.7687
X6.1Y-2.8687
X6.2875Y-3.6187
X6.35Y-2.7687
X6.3812Y-3.6187
X6.475Y-1.3687
X6.475Y-2.1187
X6.5375Y-3.5187
X6.6312Y-3.5187
X6.725Y-1.2688
X6.725Y-2.0187
X6.85Y-2.8687
X7.1Y-2.7687
X7.225Y-1.3687
X7.225Y-2.1187
X7.225Y-3.6187
X7.4125Y-3.6187
X7.475Y-1.2688
X7.475Y-2.0187
X7.475Y-3.5187
X7.5062Y-3.6187
X7.6Y-2.8687
X7.6625Y-3.5187
X7.7562Y-3.5187
X7.85Y-2.7687
X7.975Y-1.3687
X7.975Y-2.1187
X7.975Y-3.6187
X8.225Y-1.2688
X8.225Y-2.0187
X8.225Y-3.5187
X8.2562Y-3.6187
X8.35Y-2.8687
X8.35Y-3.6187
X8.5062Y-3.5187
X8.6Y-2.7687
X8.6Y-3.5187
X8.725Y-1.3687
X8.725Y-2.1187
X8.975Y-1.2688
X8.975Y-2.0187
X9.0062Y-3.6187
X9.1Y-2.8687
X9.1937Y-3.6187
X9.2562Y-3.5187
X9.35Y-2.7687
X9.4437Y-3.5187
X9.475Y-1.3687
X9.475Y-2.1187
X9.725Y-1.2688
X9.725Y-2.0187
X9.85Y-2.8687
X9.9437Y-2.8687
X10.0375Y-2.8687
X10.1Y-2.7687
X10.1937Y-2.7687
X10.225Y-1.3687
X10.225Y-2.1187
X10.2875Y-2.7687
X10.475Y-1.2688
X10.475Y-2.0187
T4
G00X1.5799Y-1.0921
M15
G01X1.5799Y-1.1196
M16
G05
G00X1.9201Y-1.0921
M15
G01X1.9201Y-1.1196
M16
G05
T5
G00X1.5799Y-1.2488
M15
G01X1.5799Y-1.2921
M16
G05
G00X1.9201Y-1.2488
M15
G01X1.9201Y-1.2921
M16
G05
T0
M30
