G04 #@! TF.GenerationSoftware,KiCad,Pcbnew,(6.0.5)*
G04 #@! TF.CreationDate,2022-09-12T09:14:35-04:00*
G04 #@! TF.ProjectId,phoenix45_alpha-rounded,70686f65-6e69-4783-9435-5f616c706861,rev?*
G04 #@! TF.SameCoordinates,Original*
G04 #@! TF.FileFunction,Profile,NP*
%FSLAX46Y46*%
G04 Gerber Fmt 4.6, Leading zero omitted, Abs format (unit mm)*
G04 Created by KiCad (PCBNEW (6.0.5)) date 2022-09-12 09:14:35*
%MOMM*%
%LPD*%
G01*
G04 APERTURE LIST*
%ADD10C,0.090000*%
G04 APERTURE END LIST*
D10*
X48713455Y-26405375D02*
X40213436Y-26405375D01*
X271063342Y-103905382D02*
X271063449Y-103905382D01*
X273063435Y-101905375D02*
X273063435Y-29705367D01*
X27413334Y-103905382D02*
X27413442Y-103905382D01*
X25413327Y-101905375D02*
X25415929Y-102008294D01*
X25423652Y-102109862D01*
X25436371Y-102209953D01*
X25453960Y-102308442D01*
X25476293Y-102405204D01*
X25503244Y-102500111D01*
X25534688Y-102593039D01*
X25570499Y-102683863D01*
X25610551Y-102772455D01*
X25654719Y-102858692D01*
X25702877Y-102942446D01*
X25754899Y-103023592D01*
X25810660Y-103102006D01*
X25870035Y-103177560D01*
X25932896Y-103250130D01*
X25999119Y-103319589D01*
X26068578Y-103385812D01*
X26141148Y-103448673D01*
X26216702Y-103508048D01*
X26295116Y-103563809D01*
X26376262Y-103615831D01*
X26460016Y-103663989D01*
X26546253Y-103708157D01*
X26634845Y-103748209D01*
X26725669Y-103784020D01*
X26818597Y-103815464D01*
X26913504Y-103842415D01*
X27010266Y-103864748D01*
X27108755Y-103882337D01*
X27208846Y-103895056D01*
X27310414Y-103902779D01*
X27413334Y-103905382D01*
X39713445Y-27546751D02*
X39679315Y-27635105D01*
X39661407Y-27655579D01*
X49213446Y-27550433D02*
X49213446Y-26905366D01*
X271063449Y-103905382D02*
X271166368Y-103902779D01*
X271267936Y-103895056D01*
X271368027Y-103882337D01*
X271466516Y-103864748D01*
X271563277Y-103842415D01*
X271658184Y-103815464D01*
X271751111Y-103784020D01*
X271841934Y-103748209D01*
X271930526Y-103708157D01*
X272016761Y-103663989D01*
X272100515Y-103615831D01*
X272181660Y-103563809D01*
X272260073Y-103508048D01*
X272335626Y-103448673D01*
X272408194Y-103385812D01*
X272477653Y-103319589D01*
X272543875Y-103250130D01*
X272606735Y-103177560D01*
X272666108Y-103102006D01*
X272721869Y-103023592D01*
X272773890Y-102942446D01*
X272822047Y-102858692D01*
X272866214Y-102772455D01*
X272906266Y-102683863D01*
X272942076Y-102593039D01*
X272973519Y-102500111D01*
X273000470Y-102405204D01*
X273022802Y-102308442D01*
X273040390Y-102209953D01*
X273053109Y-102109862D01*
X273060832Y-102008294D01*
X273063435Y-101905375D01*
X49362102Y-27705382D02*
X49277124Y-27673877D01*
X49252352Y-27650966D01*
X25413327Y-29705367D02*
X25413327Y-101905375D01*
X271063342Y-27705382D02*
X49362102Y-27705382D01*
X40213436Y-26405375D02*
X40112674Y-26415533D01*
X40018822Y-26444668D01*
X39933892Y-26490769D01*
X39859894Y-26551824D01*
X39798839Y-26625822D01*
X39752738Y-26710752D01*
X39723603Y-26804604D01*
X39713445Y-26905366D01*
X27413334Y-27705382D02*
X27310414Y-27707984D01*
X27208846Y-27715707D01*
X27108755Y-27728426D01*
X27010266Y-27746014D01*
X26913504Y-27768346D01*
X26818597Y-27795297D01*
X26725669Y-27826740D01*
X26634845Y-27862550D01*
X26546253Y-27902602D01*
X26460016Y-27946769D01*
X26376262Y-27994926D01*
X26295116Y-28046947D01*
X26216702Y-28102707D01*
X26141148Y-28162081D01*
X26068578Y-28224941D01*
X25999119Y-28291163D01*
X25932896Y-28360621D01*
X25870035Y-28433190D01*
X25810660Y-28508743D01*
X25754899Y-28587156D01*
X25702877Y-28668301D01*
X25654719Y-28752055D01*
X25610551Y-28838290D01*
X25570499Y-28926882D01*
X25534688Y-29017704D01*
X25503244Y-29110632D01*
X25476293Y-29205539D01*
X25453960Y-29302300D01*
X25436371Y-29400788D01*
X25423652Y-29500880D01*
X25415929Y-29602447D01*
X25413327Y-29705367D01*
X273063435Y-29705367D02*
X273060832Y-29602447D01*
X273053109Y-29500880D01*
X273040390Y-29400788D01*
X273022802Y-29302300D01*
X273000470Y-29205539D01*
X272973519Y-29110632D01*
X272942076Y-29017704D01*
X272906266Y-28926882D01*
X272866214Y-28838290D01*
X272822047Y-28752055D01*
X272773890Y-28668301D01*
X272721869Y-28587156D01*
X272666108Y-28508743D01*
X272606735Y-28433190D01*
X272543875Y-28360621D01*
X272477653Y-28291163D01*
X272408194Y-28224941D01*
X272335626Y-28162081D01*
X272260073Y-28102707D01*
X272181660Y-28046947D01*
X272100515Y-27994926D01*
X272016761Y-27946769D01*
X271930526Y-27902602D01*
X271841934Y-27862550D01*
X271751111Y-27826740D01*
X271658184Y-27795297D01*
X271563277Y-27768346D01*
X271466516Y-27746014D01*
X271368027Y-27728426D01*
X271267936Y-27715707D01*
X271166368Y-27707984D01*
X271063449Y-27705382D01*
X49252352Y-27650966D02*
X49215047Y-27568703D01*
X49213446Y-27550433D01*
X27413442Y-27705382D02*
X27413334Y-27705382D01*
X39713445Y-26905366D02*
X39713445Y-27546751D01*
X39535971Y-27705382D02*
X27413442Y-27705382D01*
X271063449Y-27705382D02*
X271063342Y-27705382D01*
X49213446Y-26905366D02*
X49203287Y-26804604D01*
X49174152Y-26710752D01*
X49128052Y-26625822D01*
X49066997Y-26551824D01*
X48992999Y-26490769D01*
X48908068Y-26444668D01*
X48814217Y-26415533D01*
X48713455Y-26405375D01*
X27413442Y-103905382D02*
X271063342Y-103905382D01*
X39661407Y-27655579D02*
X39579983Y-27700157D01*
X39535971Y-27705382D01*
M02*
