M48
; DRILL file {KiCad (6.0.5)} date Thu Aug 11 09:24:03 2022
; FORMAT={-:-/ absolute / inch / decimal}
; #@! TF.CreationDate,2022-08-11T09:24:03-04:00
; #@! TF.GenerationSoftware,Kicad,Pcbnew,(6.0.5)
; #@! TF.FileFunction,NonPlated,1,2,NPTH
FMAT,2
INCH
; #@! TA.AperFunction,NonPlated,NPTH,ComponentDrill
T1C0.0256
; #@! TA.AperFunction,NonPlated,NPTH,ComponentDrill
T2C0.0689
; #@! TA.AperFunction,NonPlated,NPTH,ComponentDrill
T3C0.1570
%
G90
G05
T1
X1.6362Y-1.2496
X1.8638Y-1.2496
T2
X1.175Y-1.4688
X1.175Y-2.2188
X1.3625Y-2.9688
X1.55Y-2.9688
X1.575Y-1.4688
X1.575Y-2.2188
X1.7625Y-2.9688
X1.925Y-1.4688
X1.925Y-2.2188
X1.95Y-2.9688
X2.2062Y-3.7188
X2.3Y-2.9688
X2.325Y-1.4688
X2.325Y-2.2188
X2.6062Y-3.7188
X2.675Y-1.4688
X2.675Y-2.2188
X2.7Y-2.9688
X3.05Y-2.9688
X3.05Y-3.7188
X3.075Y-1.4688
X3.075Y-2.2188
X3.425Y-1.4688
X3.425Y-2.2188
X3.45Y-2.9688
X3.45Y-3.7188
X3.8Y-2.9688
X3.825Y-1.4688
X3.825Y-2.2188
X3.8937Y-3.7188
X4.175Y-1.4688
X4.175Y-2.2188
X4.2Y-2.9688
X4.2938Y-3.7188
X4.55Y-2.9688
X4.575Y-1.4688
X4.575Y-2.2188
X4.925Y-1.4688
X4.925Y-2.2188
X4.95Y-2.9688
X5.0187Y-3.7188
X5.3Y-2.9688
X5.325Y-1.4688
X5.325Y-2.2188
X5.4188Y-3.7188
X5.7Y-2.9688
X6.05Y-2.9688
X6.3312Y-3.7188
X6.425Y-1.4688
X6.425Y-2.2188
X6.45Y-2.9688
X6.7313Y-3.7188
X6.8Y-2.9688
X6.825Y-1.4688
X6.825Y-2.2188
X7.175Y-1.4688
X7.175Y-2.2188
X7.2Y-2.9688
X7.4562Y-3.7188
X7.55Y-2.9688
X7.575Y-1.4688
X7.575Y-2.2188
X7.8563Y-3.7188
X7.925Y-1.4688
X7.925Y-2.2188
X7.95Y-2.9688
X8.3Y-2.9688
X8.3Y-3.7188
X8.325Y-1.4688
X8.325Y-2.2188
X8.675Y-1.4688
X8.675Y-2.2188
X8.7Y-2.9688
X8.7Y-3.7188
X9.05Y-2.9688
X9.075Y-1.4688
X9.075Y-2.2188
X9.1437Y-3.7188
X9.425Y-1.4688
X9.425Y-2.2188
X9.45Y-2.9688
X9.5437Y-3.7188
X9.8Y-2.9688
X9.825Y-1.4688
X9.825Y-2.2188
X9.9875Y-2.9688
X10.175Y-1.4688
X10.175Y-2.2188
X10.2Y-2.9688
X10.3875Y-2.9688
X10.575Y-1.4688
X10.575Y-2.2188
T3
X1.375Y-1.4688
X1.375Y-2.2188
X1.5625Y-2.9688
X1.75Y-2.9688
X2.125Y-1.4688
X2.125Y-2.2188
X2.4062Y-3.7188
X2.5Y-2.9688
X2.875Y-1.4688
X2.875Y-2.2188
X3.25Y-2.9688
X3.25Y-3.7188
X3.625Y-1.4688
X3.625Y-2.2188
X4.0Y-2.9688
X4.0938Y-3.7188
X4.375Y-1.4688
X4.375Y-2.2188
X4.75Y-2.9688
X5.125Y-1.4688
X5.125Y-2.2188
X5.2188Y-3.7188
X5.5Y-2.9688
X6.25Y-2.9688
X6.5312Y-3.7188
X6.625Y-1.4688
X6.625Y-2.2188
X7.0Y-2.9688
X7.375Y-1.4688
X7.375Y-2.2188
X7.6562Y-3.7188
X7.75Y-2.9688
X8.125Y-1.4688
X8.125Y-2.2188
X8.5Y-2.9688
X8.5Y-3.7188
X8.875Y-1.4688
X8.875Y-2.2188
X9.25Y-2.9688
X9.3438Y-3.7188
X9.625Y-1.4688
X9.625Y-2.2188
X10.0Y-2.9688
X10.1875Y-2.9688
X10.375Y-1.4688
X10.375Y-2.2188
T0
M30
