G04 #@! TF.GenerationSoftware,KiCad,Pcbnew,(6.0.5)*
G04 #@! TF.CreationDate,2022-09-12T09:14:35-04:00*
G04 #@! TF.ProjectId,phoenix45_alpha-rounded,70686f65-6e69-4783-9435-5f616c706861,rev?*
G04 #@! TF.SameCoordinates,Original*
G04 #@! TF.FileFunction,Legend,Bot*
G04 #@! TF.FilePolarity,Positive*
%FSLAX46Y46*%
G04 Gerber Fmt 4.6, Leading zero omitted, Abs format (unit mm)*
G04 Created by KiCad (PCBNEW (6.0.5)) date 2022-09-12 09:14:35*
%MOMM*%
%LPD*%
G01*
G04 APERTURE LIST*
G04 Aperture macros list*
%AMRoundRect*
0 Rectangle with rounded corners*
0 $1 Rounding radius*
0 $2 $3 $4 $5 $6 $7 $8 $9 X,Y pos of 4 corners*
0 Add a 4 corners polygon primitive as box body*
4,1,4,$2,$3,$4,$5,$6,$7,$8,$9,$2,$3,0*
0 Add four circle primitives for the rounded corners*
1,1,$1+$1,$2,$3*
1,1,$1+$1,$4,$5*
1,1,$1+$1,$6,$7*
1,1,$1+$1,$8,$9*
0 Add four rect primitives between the rounded corners*
20,1,$1+$1,$2,$3,$4,$5,0*
20,1,$1+$1,$4,$5,$6,$7,0*
20,1,$1+$1,$6,$7,$8,$9,0*
20,1,$1+$1,$8,$9,$2,$3,0*%
%AMRotRect*
0 Rectangle, with rotation*
0 The origin of the aperture is its center*
0 $1 length*
0 $2 width*
0 $3 Rotation angle, in degrees counterclockwise*
0 Add horizontal line*
21,1,$1,$2,0,0,$3*%
G04 Aperture macros list end*
%ADD10C,0.150000*%
%ADD11C,0.125000*%
%ADD12C,0.120000*%
%ADD13C,3.987800*%
%ADD14C,1.750000*%
%ADD15C,2.250000*%
%ADD16O,1.500000X2.800000*%
%ADD17R,2.000000X2.000000*%
%ADD18C,2.000000*%
%ADD19R,1.000000X1.000000*%
%ADD20C,1.397000*%
%ADD21R,1.200000X0.900000*%
%ADD22RoundRect,0.250000X-0.350000X-0.450000X0.350000X-0.450000X0.350000X0.450000X-0.350000X0.450000X0*%
%ADD23RotRect,2.100000X1.800000X225.000000*%
%ADD24RoundRect,0.250000X0.475000X-0.337500X0.475000X0.337500X-0.475000X0.337500X-0.475000X-0.337500X0*%
%ADD25RoundRect,0.250000X-0.337500X-0.475000X0.337500X-0.475000X0.337500X0.475000X-0.337500X0.475000X0*%
%ADD26RoundRect,0.250000X0.450000X-0.350000X0.450000X0.350000X-0.450000X0.350000X-0.450000X-0.350000X0*%
%ADD27RoundRect,0.062500X-0.475000X-0.062500X0.475000X-0.062500X0.475000X0.062500X-0.475000X0.062500X0*%
%ADD28RoundRect,0.062500X-0.062500X-0.475000X0.062500X-0.475000X0.062500X0.475000X-0.062500X0.475000X0*%
%ADD29R,5.200000X5.200000*%
%ADD30R,1.100000X1.800000*%
%ADD31RoundRect,0.250000X0.097227X-0.574524X0.574524X-0.097227X-0.097227X0.574524X-0.574524X0.097227X0*%
%ADD32RoundRect,0.250000X0.337500X0.475000X-0.337500X0.475000X-0.337500X-0.475000X0.337500X-0.475000X0*%
%ADD33RoundRect,0.250000X-0.450000X0.350000X-0.450000X-0.350000X0.450000X-0.350000X0.450000X0.350000X0*%
%ADD34C,0.650000*%
%ADD35R,0.600000X2.450000*%
%ADD36R,0.300000X2.450000*%
%ADD37RoundRect,0.250000X-0.600000X-0.600000X0.600000X-0.600000X0.600000X0.600000X-0.600000X0.600000X0*%
%ADD38C,1.700000*%
%ADD39R,1.560000X0.650000*%
%ADD40R,1.500000X0.550000*%
%ADD41R,0.550000X1.500000*%
%ADD42RoundRect,0.250000X0.574524X0.097227X0.097227X0.574524X-0.574524X-0.097227X-0.097227X-0.574524X0*%
%ADD43RoundRect,0.210527X-0.389473X-0.664473X0.389473X-0.664473X0.389473X0.664473X-0.389473X0.664473X0*%
%ADD44RoundRect,0.250000X0.350000X0.450000X-0.350000X0.450000X-0.350000X-0.450000X0.350000X-0.450000X0*%
G04 APERTURE END LIST*
D10*
X132270535Y-98083630D02*
X132841964Y-98083630D01*
X132556250Y-98083630D02*
X132556250Y-97083630D01*
X132651488Y-97226488D01*
X132746726Y-97321726D01*
X132841964Y-97369345D01*
X60833035Y-98083630D02*
X61404464Y-98083630D01*
X61118750Y-98083630D02*
X61118750Y-97083630D01*
X61213988Y-97226488D01*
X61309226Y-97321726D01*
X61404464Y-97369345D01*
X132841964Y-98766369D02*
X132794345Y-98718750D01*
X132699107Y-98671130D01*
X132461011Y-98671130D01*
X132365773Y-98718750D01*
X132318154Y-98766369D01*
X132270535Y-98861607D01*
X132270535Y-98956845D01*
X132318154Y-99099702D01*
X132889583Y-99671130D01*
X132270535Y-99671130D01*
X111458333Y-96952380D02*
X110839285Y-96952380D01*
X111172619Y-97333333D01*
X111029761Y-97333333D01*
X110934523Y-97380952D01*
X110886904Y-97428571D01*
X110839285Y-97523809D01*
X110839285Y-97761904D01*
X110886904Y-97857142D01*
X110934523Y-97904761D01*
X111029761Y-97952380D01*
X111315476Y-97952380D01*
X111410714Y-97904761D01*
X111458333Y-97857142D01*
X42521130Y-78811607D02*
X42521130Y-78240178D01*
X42521130Y-78525892D02*
X41521130Y-78525892D01*
X41663988Y-78430654D01*
X41759226Y-78335416D01*
X41806845Y-78240178D01*
X42425892Y-79240178D02*
X42473511Y-79287797D01*
X42521130Y-79240178D01*
X42473511Y-79192559D01*
X42425892Y-79240178D01*
X42521130Y-79240178D01*
X41616369Y-79668750D02*
X41568750Y-79716369D01*
X41521130Y-79811607D01*
X41521130Y-80049702D01*
X41568750Y-80144940D01*
X41616369Y-80192559D01*
X41711607Y-80240178D01*
X41806845Y-80240178D01*
X41949702Y-80192559D01*
X42521130Y-79621130D01*
X42521130Y-80240178D01*
X41521130Y-81144940D02*
X41521130Y-80668750D01*
X41997321Y-80621130D01*
X41949702Y-80668750D01*
X41902083Y-80763988D01*
X41902083Y-81002083D01*
X41949702Y-81097321D01*
X41997321Y-81144940D01*
X42092559Y-81192559D01*
X42330654Y-81192559D01*
X42425892Y-81144940D01*
X42473511Y-81097321D01*
X42521130Y-81002083D01*
X42521130Y-80763988D01*
X42473511Y-80668750D01*
X42425892Y-80621130D01*
X41854464Y-82049702D02*
X42521130Y-82049702D01*
X41854464Y-81621130D02*
X42378273Y-81621130D01*
X42473511Y-81668750D01*
X42521130Y-81763988D01*
X42521130Y-81906845D01*
X42473511Y-82002083D01*
X42425892Y-82049702D01*
X104266964Y-97178869D02*
X104219345Y-97131250D01*
X104124107Y-97083630D01*
X103886011Y-97083630D01*
X103790773Y-97131250D01*
X103743154Y-97178869D01*
X103695535Y-97274107D01*
X103695535Y-97369345D01*
X103743154Y-97512202D01*
X104314583Y-98083630D01*
X103695535Y-98083630D01*
X61404464Y-98766369D02*
X61356845Y-98718750D01*
X61261607Y-98671130D01*
X61023511Y-98671130D01*
X60928273Y-98718750D01*
X60880654Y-98766369D01*
X60833035Y-98861607D01*
X60833035Y-98956845D01*
X60880654Y-99099702D01*
X61452083Y-99671130D01*
X60833035Y-99671130D01*
X106076785Y-98083630D02*
X106648214Y-98083630D01*
X106362500Y-98083630D02*
X106362500Y-97083630D01*
X106457738Y-97226488D01*
X106552976Y-97321726D01*
X106648214Y-97369345D01*
X216185714Y-97178869D02*
X216138095Y-97131250D01*
X216042857Y-97083630D01*
X215804761Y-97083630D01*
X215709523Y-97131250D01*
X215661904Y-97178869D01*
X215614285Y-97274107D01*
X215614285Y-97369345D01*
X215661904Y-97512202D01*
X216233333Y-98083630D01*
X215614285Y-98083630D01*
X84645535Y-98083630D02*
X85216964Y-98083630D01*
X84931250Y-98083630D02*
X84931250Y-97083630D01*
X85026488Y-97226488D01*
X85121726Y-97321726D01*
X85216964Y-97369345D01*
X187658333Y-97083630D02*
X187039285Y-97083630D01*
X187372619Y-97464583D01*
X187229761Y-97464583D01*
X187134523Y-97512202D01*
X187086904Y-97559821D01*
X187039285Y-97655059D01*
X187039285Y-97893154D01*
X187086904Y-97988392D01*
X187134523Y-98036011D01*
X187229761Y-98083630D01*
X187515476Y-98083630D01*
X187610714Y-98036011D01*
X187658333Y-97988392D01*
X259214880Y-78811606D02*
X259214880Y-78240178D01*
X259214880Y-78525892D02*
X258214880Y-78525892D01*
X258357738Y-78430654D01*
X258452976Y-78335416D01*
X258500595Y-78240178D01*
X259119642Y-79240178D02*
X259167261Y-79287797D01*
X259214880Y-79240178D01*
X259167261Y-79192559D01*
X259119642Y-79240178D01*
X259214880Y-79240178D01*
X258214880Y-80192559D02*
X258214880Y-79716368D01*
X258691071Y-79668749D01*
X258643452Y-79716368D01*
X258595833Y-79811606D01*
X258595833Y-80049701D01*
X258643452Y-80144939D01*
X258691071Y-80192559D01*
X258786309Y-80240178D01*
X259024404Y-80240178D01*
X259119642Y-80192559D01*
X259167261Y-80144939D01*
X259214880Y-80049701D01*
X259214880Y-79811606D01*
X259167261Y-79716368D01*
X259119642Y-79668749D01*
X258548214Y-81097320D02*
X259214880Y-81097320D01*
X258548214Y-80668749D02*
X259072023Y-80668749D01*
X259167261Y-80716368D01*
X259214880Y-80811606D01*
X259214880Y-80954463D01*
X259167261Y-81049701D01*
X259119642Y-81097320D01*
X40139880Y-78811606D02*
X40139880Y-78240178D01*
X40139880Y-78525892D02*
X39139880Y-78525892D01*
X39282738Y-78430654D01*
X39377976Y-78335416D01*
X39425595Y-78240178D01*
X40044642Y-79240178D02*
X40092261Y-79287797D01*
X40139880Y-79240178D01*
X40092261Y-79192559D01*
X40044642Y-79240178D01*
X40139880Y-79240178D01*
X39139880Y-80192559D02*
X39139880Y-79716368D01*
X39616071Y-79668749D01*
X39568452Y-79716368D01*
X39520833Y-79811606D01*
X39520833Y-80049701D01*
X39568452Y-80144939D01*
X39616071Y-80192559D01*
X39711309Y-80240178D01*
X39949404Y-80240178D01*
X40044642Y-80192559D01*
X40092261Y-80144939D01*
X40139880Y-80049701D01*
X40139880Y-79811606D01*
X40092261Y-79716368D01*
X40044642Y-79668749D01*
X39473214Y-81097320D02*
X40139880Y-81097320D01*
X39473214Y-80668749D02*
X39997023Y-80668749D01*
X40092261Y-80716368D01*
X40139880Y-80811606D01*
X40139880Y-80954463D01*
X40092261Y-81049701D01*
X40044642Y-81097320D01*
X256833630Y-78811607D02*
X256833630Y-78240178D01*
X256833630Y-78525892D02*
X255833630Y-78525892D01*
X255976488Y-78430654D01*
X256071726Y-78335416D01*
X256119345Y-78240178D01*
X256738392Y-79240178D02*
X256786011Y-79287797D01*
X256833630Y-79240178D01*
X256786011Y-79192559D01*
X256738392Y-79240178D01*
X256833630Y-79240178D01*
X255928869Y-79668750D02*
X255881250Y-79716369D01*
X255833630Y-79811607D01*
X255833630Y-80049702D01*
X255881250Y-80144940D01*
X255928869Y-80192559D01*
X256024107Y-80240178D01*
X256119345Y-80240178D01*
X256262202Y-80192559D01*
X256833630Y-79621130D01*
X256833630Y-80240178D01*
X255833630Y-81144940D02*
X255833630Y-80668750D01*
X256309821Y-80621130D01*
X256262202Y-80668750D01*
X256214583Y-80763988D01*
X256214583Y-81002083D01*
X256262202Y-81097321D01*
X256309821Y-81144940D01*
X256405059Y-81192559D01*
X256643154Y-81192559D01*
X256738392Y-81144940D01*
X256786011Y-81097321D01*
X256833630Y-81002083D01*
X256833630Y-80763988D01*
X256786011Y-80668750D01*
X256738392Y-80621130D01*
X256166964Y-82049702D02*
X256833630Y-82049702D01*
X256166964Y-81621130D02*
X256690773Y-81621130D01*
X256786011Y-81668750D01*
X256833630Y-81763988D01*
X256833630Y-81906845D01*
X256786011Y-82002083D01*
X256738392Y-82049702D01*
X237045535Y-98083630D02*
X237616964Y-98083630D01*
X237331250Y-98083630D02*
X237331250Y-97083630D01*
X237426488Y-97226488D01*
X237521726Y-97321726D01*
X237616964Y-97369345D01*
X135270833Y-97083630D02*
X134651785Y-97083630D01*
X134985119Y-97464583D01*
X134842261Y-97464583D01*
X134747023Y-97512202D01*
X134699404Y-97559821D01*
X134651785Y-97655059D01*
X134651785Y-97893154D01*
X134699404Y-97988392D01*
X134747023Y-98036011D01*
X134842261Y-98083630D01*
X135127976Y-98083630D01*
X135223214Y-98036011D01*
X135270833Y-97988392D01*
X206708333Y-97083630D02*
X206089285Y-97083630D01*
X206422619Y-97464583D01*
X206279761Y-97464583D01*
X206184523Y-97512202D01*
X206136904Y-97559821D01*
X206089285Y-97655059D01*
X206089285Y-97893154D01*
X206136904Y-97988392D01*
X206184523Y-98036011D01*
X206279761Y-98083630D01*
X206565476Y-98083630D01*
X206660714Y-98036011D01*
X206708333Y-97988392D01*
X232902083Y-97083630D02*
X232283035Y-97083630D01*
X232616369Y-97464583D01*
X232473511Y-97464583D01*
X232378273Y-97512202D01*
X232330654Y-97559821D01*
X232283035Y-97655059D01*
X232283035Y-97893154D01*
X232330654Y-97988392D01*
X232378273Y-98036011D01*
X232473511Y-98083630D01*
X232759226Y-98083630D01*
X232854464Y-98036011D01*
X232902083Y-97988392D01*
X165608035Y-98083630D02*
X166179464Y-98083630D01*
X165893750Y-98083630D02*
X165893750Y-97083630D01*
X165988988Y-97226488D01*
X166084226Y-97321726D01*
X166179464Y-97369345D01*
X191801785Y-98083630D02*
X192373214Y-98083630D01*
X192087500Y-98083630D02*
X192087500Y-97083630D01*
X192182738Y-97226488D01*
X192277976Y-97321726D01*
X192373214Y-97369345D01*
X213233035Y-98083630D02*
X213804464Y-98083630D01*
X213518750Y-98083630D02*
X213518750Y-97083630D01*
X213613988Y-97226488D01*
X213709226Y-97321726D01*
X213804464Y-97369345D01*
X163845833Y-97083630D02*
X163226785Y-97083630D01*
X163560119Y-97464583D01*
X163417261Y-97464583D01*
X163322023Y-97512202D01*
X163274404Y-97559821D01*
X163226785Y-97655059D01*
X163226785Y-97893154D01*
X163274404Y-97988392D01*
X163322023Y-98036011D01*
X163417261Y-98083630D01*
X163702976Y-98083630D01*
X163798214Y-98036011D01*
X163845833Y-97988392D01*
X44902380Y-78811607D02*
X44902380Y-78240178D01*
X44902380Y-78525893D02*
X43902380Y-78525893D01*
X44045238Y-78430654D01*
X44140476Y-78335416D01*
X44188095Y-78240178D01*
X44235714Y-79668750D02*
X44902380Y-79668750D01*
X44235714Y-79240178D02*
X44759523Y-79240178D01*
X44854761Y-79287797D01*
X44902380Y-79383035D01*
X44902380Y-79525893D01*
X44854761Y-79621131D01*
X44807142Y-79668750D01*
X254452380Y-78811607D02*
X254452380Y-78240178D01*
X254452380Y-78525893D02*
X253452380Y-78525893D01*
X253595238Y-78430654D01*
X253690476Y-78335416D01*
X253738095Y-78240178D01*
X253785714Y-79668750D02*
X254452380Y-79668750D01*
X253785714Y-79240178D02*
X254309523Y-79240178D01*
X254404761Y-79287797D01*
X254452380Y-79383035D01*
X254452380Y-79525893D01*
X254404761Y-79621131D01*
X254357142Y-79668750D01*
X166179464Y-98766369D02*
X166131845Y-98718750D01*
X166036607Y-98671130D01*
X165798511Y-98671130D01*
X165703273Y-98718750D01*
X165655654Y-98766369D01*
X165608035Y-98861607D01*
X165608035Y-98956845D01*
X165655654Y-99099702D01*
X166227083Y-99671130D01*
X165608035Y-99671130D01*
X92408333Y-97083630D02*
X91789285Y-97083630D01*
X92122619Y-97464583D01*
X91979761Y-97464583D01*
X91884523Y-97512202D01*
X91836904Y-97559821D01*
X91789285Y-97655059D01*
X91789285Y-97893154D01*
X91836904Y-97988392D01*
X91884523Y-98036011D01*
X91979761Y-98083630D01*
X92265476Y-98083630D01*
X92360714Y-98036011D01*
X92408333Y-97988392D01*
X237616964Y-98766369D02*
X237569345Y-98718750D01*
X237474107Y-98671130D01*
X237236011Y-98671130D01*
X237140773Y-98718750D01*
X237093154Y-98766369D01*
X237045535Y-98861607D01*
X237045535Y-98956845D01*
X237093154Y-99099702D01*
X237664583Y-99671130D01*
X237045535Y-99671130D01*
X194754464Y-97178869D02*
X194706845Y-97131250D01*
X194611607Y-97083630D01*
X194373511Y-97083630D01*
X194278273Y-97131250D01*
X194230654Y-97178869D01*
X194183035Y-97274107D01*
X194183035Y-97369345D01*
X194230654Y-97512202D01*
X194802083Y-98083630D01*
X194183035Y-98083630D01*
X66214583Y-97083630D02*
X65595535Y-97083630D01*
X65928869Y-97464583D01*
X65786011Y-97464583D01*
X65690773Y-97512202D01*
X65643154Y-97559821D01*
X65595535Y-97655059D01*
X65595535Y-97893154D01*
X65643154Y-97988392D01*
X65690773Y-98036011D01*
X65786011Y-98083630D01*
X66071726Y-98083630D01*
X66166964Y-98036011D01*
X66214583Y-97988392D01*
X82835714Y-97178869D02*
X82788095Y-97131250D01*
X82692857Y-97083630D01*
X82454761Y-97083630D01*
X82359523Y-97131250D01*
X82311904Y-97178869D01*
X82264285Y-97274107D01*
X82264285Y-97369345D01*
X82311904Y-97512202D01*
X82883333Y-98083630D01*
X82264285Y-98083630D01*
X148677380Y-54165773D02*
X148677380Y-54737202D01*
X149677380Y-54451488D02*
X148677380Y-54451488D01*
X149677380Y-55070535D02*
X148677380Y-55070535D01*
X148677380Y-55451488D01*
X148725000Y-55546726D01*
X148772619Y-55594345D01*
X148867857Y-55641964D01*
X149010714Y-55641964D01*
X149105952Y-55594345D01*
X149153571Y-55546726D01*
X149201190Y-55451488D01*
X149201190Y-55070535D01*
X149582142Y-56641964D02*
X149629761Y-56594345D01*
X149677380Y-56451488D01*
X149677380Y-56356250D01*
X149629761Y-56213392D01*
X149534523Y-56118154D01*
X149439285Y-56070535D01*
X149248809Y-56022916D01*
X149105952Y-56022916D01*
X148915476Y-56070535D01*
X148820238Y-56118154D01*
X148725000Y-56213392D01*
X148677380Y-56356250D01*
X148677380Y-56451488D01*
X148725000Y-56594345D01*
X148772619Y-56641964D01*
X149677380Y-57546726D02*
X149677380Y-57070535D01*
X148677380Y-57070535D01*
X149677380Y-57880059D02*
X148677380Y-57880059D01*
X149677380Y-58451488D02*
X149105952Y-58022916D01*
X148677380Y-58451488D02*
X149248809Y-57880059D01*
X146296130Y-54046726D02*
X146296130Y-54618154D01*
X147296130Y-54332440D02*
X146296130Y-54332440D01*
X147296130Y-54951488D02*
X146296130Y-54951488D01*
X146296130Y-55332440D01*
X146343750Y-55427678D01*
X146391369Y-55475297D01*
X146486607Y-55522916D01*
X146629464Y-55522916D01*
X146724702Y-55475297D01*
X146772321Y-55427678D01*
X146819940Y-55332440D01*
X146819940Y-54951488D01*
X146343750Y-56475297D02*
X146296130Y-56380059D01*
X146296130Y-56237202D01*
X146343750Y-56094345D01*
X146438988Y-55999107D01*
X146534226Y-55951488D01*
X146724702Y-55903869D01*
X146867559Y-55903869D01*
X147058035Y-55951488D01*
X147153273Y-55999107D01*
X147248511Y-56094345D01*
X147296130Y-56237202D01*
X147296130Y-56332440D01*
X147248511Y-56475297D01*
X147200892Y-56522916D01*
X146867559Y-56522916D01*
X146867559Y-56332440D01*
X147296130Y-56951488D02*
X146296130Y-56951488D01*
X147296130Y-57522916D01*
X146296130Y-57522916D01*
X147296130Y-57999107D02*
X146296130Y-57999107D01*
X146296130Y-58237202D01*
X146343750Y-58380059D01*
X146438988Y-58475297D01*
X146534226Y-58522916D01*
X146724702Y-58570535D01*
X146867559Y-58570535D01*
X147058035Y-58522916D01*
X147153273Y-58475297D01*
X147248511Y-58380059D01*
X147296130Y-58237202D01*
X147296130Y-57999107D01*
X143501785Y-58983630D02*
X142930357Y-58983630D01*
X143216071Y-59983630D02*
X143216071Y-58983630D01*
X142597023Y-59983630D02*
X142597023Y-58983630D01*
X142216071Y-58983630D01*
X142120833Y-59031250D01*
X142073214Y-59078869D01*
X142025595Y-59174107D01*
X142025595Y-59316964D01*
X142073214Y-59412202D01*
X142120833Y-59459821D01*
X142216071Y-59507440D01*
X142597023Y-59507440D01*
X141739880Y-58983630D02*
X141406547Y-59983630D01*
X141073214Y-58983630D01*
X140168452Y-59888392D02*
X140216071Y-59936011D01*
X140358928Y-59983630D01*
X140454166Y-59983630D01*
X140597023Y-59936011D01*
X140692261Y-59840773D01*
X140739880Y-59745535D01*
X140787500Y-59555059D01*
X140787500Y-59412202D01*
X140739880Y-59221726D01*
X140692261Y-59126488D01*
X140597023Y-59031250D01*
X140454166Y-58983630D01*
X140358928Y-58983630D01*
X140216071Y-59031250D01*
X140168452Y-59078869D01*
X139168452Y-59888392D02*
X139216071Y-59936011D01*
X139358928Y-59983630D01*
X139454166Y-59983630D01*
X139597023Y-59936011D01*
X139692261Y-59840773D01*
X139739880Y-59745535D01*
X139787500Y-59555059D01*
X139787500Y-59412202D01*
X139739880Y-59221726D01*
X139692261Y-59126488D01*
X139597023Y-59031250D01*
X139454166Y-58983630D01*
X139358928Y-58983630D01*
X139216071Y-59031250D01*
X139168452Y-59078869D01*
X151058630Y-54213392D02*
X151058630Y-54784821D01*
X152058630Y-54499107D02*
X151058630Y-54499107D01*
X152058630Y-55118154D02*
X151058630Y-55118154D01*
X151058630Y-55499107D01*
X151106250Y-55594345D01*
X151153869Y-55641964D01*
X151249107Y-55689583D01*
X151391964Y-55689583D01*
X151487202Y-55641964D01*
X151534821Y-55594345D01*
X151582440Y-55499107D01*
X151582440Y-55118154D01*
X152058630Y-56689583D02*
X151582440Y-56356250D01*
X152058630Y-56118154D02*
X151058630Y-56118154D01*
X151058630Y-56499107D01*
X151106250Y-56594345D01*
X151153869Y-56641964D01*
X151249107Y-56689583D01*
X151391964Y-56689583D01*
X151487202Y-56641964D01*
X151534821Y-56594345D01*
X151582440Y-56499107D01*
X151582440Y-56118154D01*
X152011011Y-57070535D02*
X152058630Y-57213392D01*
X152058630Y-57451488D01*
X152011011Y-57546726D01*
X151963392Y-57594345D01*
X151868154Y-57641964D01*
X151772916Y-57641964D01*
X151677678Y-57594345D01*
X151630059Y-57546726D01*
X151582440Y-57451488D01*
X151534821Y-57261011D01*
X151487202Y-57165773D01*
X151439583Y-57118154D01*
X151344345Y-57070535D01*
X151249107Y-57070535D01*
X151153869Y-57118154D01*
X151106250Y-57165773D01*
X151058630Y-57261011D01*
X151058630Y-57499107D01*
X151106250Y-57641964D01*
X151058630Y-57927678D02*
X151058630Y-58499107D01*
X152058630Y-58213392D02*
X151058630Y-58213392D01*
X160480059Y-58983630D02*
X159908630Y-58983630D01*
X160194345Y-59983630D02*
X160194345Y-58983630D01*
X159575297Y-59983630D02*
X159575297Y-58983630D01*
X159194345Y-58983630D01*
X159099107Y-59031250D01*
X159051488Y-59078869D01*
X159003869Y-59174107D01*
X159003869Y-59316964D01*
X159051488Y-59412202D01*
X159099107Y-59459821D01*
X159194345Y-59507440D01*
X159575297Y-59507440D01*
X158575297Y-59983630D02*
X158575297Y-58983630D01*
X158337202Y-58983630D01*
X158194345Y-59031250D01*
X158099107Y-59126488D01*
X158051488Y-59221726D01*
X158003869Y-59412202D01*
X158003869Y-59555059D01*
X158051488Y-59745535D01*
X158099107Y-59840773D01*
X158194345Y-59936011D01*
X158337202Y-59983630D01*
X158575297Y-59983630D01*
X157622916Y-59697916D02*
X157146726Y-59697916D01*
X157718154Y-59983630D02*
X157384821Y-58983630D01*
X157051488Y-59983630D01*
X156861011Y-58983630D02*
X156289583Y-58983630D01*
X156575297Y-59983630D02*
X156575297Y-58983630D01*
X156003869Y-59697916D02*
X155527678Y-59697916D01*
X156099107Y-59983630D02*
X155765773Y-58983630D01*
X155432440Y-59983630D01*
X137786904Y-46283630D02*
X137786904Y-47093154D01*
X137739285Y-47188392D01*
X137691666Y-47236011D01*
X137596428Y-47283630D01*
X137405952Y-47283630D01*
X137310714Y-47236011D01*
X137263095Y-47188392D01*
X137215476Y-47093154D01*
X137215476Y-46283630D01*
X136167857Y-47283630D02*
X136501190Y-46807440D01*
X136739285Y-47283630D02*
X136739285Y-46283630D01*
X136358333Y-46283630D01*
X136263095Y-46331250D01*
X136215476Y-46378869D01*
X136167857Y-46474107D01*
X136167857Y-46616964D01*
X136215476Y-46712202D01*
X136263095Y-46759821D01*
X136358333Y-46807440D01*
X136739285Y-46807440D01*
X135786904Y-46378869D02*
X135739285Y-46331250D01*
X135644047Y-46283630D01*
X135405952Y-46283630D01*
X135310714Y-46331250D01*
X135263095Y-46378869D01*
X135215476Y-46474107D01*
X135215476Y-46569345D01*
X135263095Y-46712202D01*
X135834523Y-47283630D01*
X135215476Y-47283630D01*
X151290138Y-36531058D02*
X151525840Y-37709569D01*
X150818734Y-37002462D02*
X151997245Y-37238164D01*
X150886077Y-38349332D02*
X151290138Y-37945271D01*
X151088108Y-38147302D02*
X150381001Y-37440195D01*
X150549360Y-37473867D01*
X150684047Y-37473867D01*
X150785062Y-37440195D01*
D11*
X147185923Y-38259042D02*
X147152251Y-38259042D01*
X147101744Y-38275878D01*
X147017564Y-38360058D01*
X147000728Y-38410565D01*
X147000728Y-38444237D01*
X147017564Y-38494745D01*
X147051236Y-38528416D01*
X147118579Y-38562088D01*
X147522640Y-38562088D01*
X147303774Y-38780955D01*
X145030366Y-35803404D02*
X144811500Y-36022270D01*
X145064038Y-36039106D01*
X145013530Y-36089614D01*
X144996694Y-36140121D01*
X144996694Y-36173793D01*
X145013530Y-36224301D01*
X145097710Y-36308480D01*
X145148217Y-36325316D01*
X145181889Y-36325316D01*
X145232397Y-36308480D01*
X145333412Y-36207465D01*
X145350248Y-36156957D01*
X145350248Y-36123285D01*
X149591650Y-31367076D02*
X149827352Y-31602778D01*
X149541142Y-31148209D02*
X149877859Y-31316568D01*
X149658993Y-31535434D01*
X152535858Y-34706686D02*
X152737889Y-34504655D01*
X152636873Y-34605670D02*
X152283320Y-34252117D01*
X152367499Y-34268953D01*
X152434843Y-34268953D01*
X152485350Y-34252117D01*
D10*
X51017153Y-28816028D02*
X51064772Y-28863647D01*
X51207629Y-28911266D01*
X51302867Y-28911266D01*
X51445725Y-28863647D01*
X51540963Y-28768409D01*
X51588582Y-28673171D01*
X51636201Y-28482695D01*
X51636201Y-28339838D01*
X51588582Y-28149362D01*
X51540963Y-28054124D01*
X51445725Y-27958886D01*
X51302867Y-27911266D01*
X51207629Y-27911266D01*
X51064772Y-27958886D01*
X51017153Y-28006505D01*
X50398106Y-27911266D02*
X50302867Y-27911266D01*
X50207629Y-27958886D01*
X50160010Y-28006505D01*
X50112391Y-28101743D01*
X50064772Y-28292219D01*
X50064772Y-28530314D01*
X50112391Y-28720790D01*
X50160010Y-28816028D01*
X50207629Y-28863647D01*
X50302867Y-28911266D01*
X50398106Y-28911266D01*
X50493344Y-28863647D01*
X50540963Y-28816028D01*
X50588582Y-28720790D01*
X50636201Y-28530314D01*
X50636201Y-28292219D01*
X50588582Y-28101743D01*
X50540963Y-28006505D01*
X50493344Y-27958886D01*
X50398106Y-27911266D01*
X143466395Y-56012142D02*
X143514014Y-56059761D01*
X143656871Y-56107380D01*
X143752109Y-56107380D01*
X143894967Y-56059761D01*
X143990205Y-55964523D01*
X144037824Y-55869285D01*
X144085443Y-55678809D01*
X144085443Y-55535952D01*
X144037824Y-55345476D01*
X143990205Y-55250238D01*
X143894967Y-55155000D01*
X143752109Y-55107380D01*
X143656871Y-55107380D01*
X143514014Y-55155000D01*
X143466395Y-55202619D01*
X143085443Y-55202619D02*
X143037824Y-55155000D01*
X142942586Y-55107380D01*
X142704490Y-55107380D01*
X142609252Y-55155000D01*
X142561633Y-55202619D01*
X142514014Y-55297857D01*
X142514014Y-55393095D01*
X142561633Y-55535952D01*
X143133062Y-56107380D01*
X142514014Y-56107380D01*
X159882684Y-50869422D02*
X159406494Y-50536089D01*
X159882684Y-50297993D02*
X158882684Y-50297993D01*
X158882684Y-50678946D01*
X158930304Y-50774184D01*
X158977923Y-50821803D01*
X159073161Y-50869422D01*
X159216018Y-50869422D01*
X159311256Y-50821803D01*
X159358875Y-50774184D01*
X159406494Y-50678946D01*
X159406494Y-50297993D01*
X158977923Y-51250374D02*
X158930304Y-51297993D01*
X158882684Y-51393231D01*
X158882684Y-51631327D01*
X158930304Y-51726565D01*
X158977923Y-51774184D01*
X159073161Y-51821803D01*
X159168399Y-51821803D01*
X159311256Y-51774184D01*
X159882684Y-51202755D01*
X159882684Y-51821803D01*
X154017308Y-50019182D02*
X154017308Y-50828706D01*
X153969689Y-50923944D01*
X153922070Y-50971563D01*
X153826832Y-51019182D01*
X153636356Y-51019182D01*
X153541118Y-50971563D01*
X153493499Y-50923944D01*
X153445880Y-50828706D01*
X153445880Y-50019182D01*
X153017308Y-50114421D02*
X152969689Y-50066802D01*
X152874451Y-50019182D01*
X152636356Y-50019182D01*
X152541118Y-50066802D01*
X152493499Y-50114421D01*
X152445880Y-50209659D01*
X152445880Y-50304897D01*
X152493499Y-50447754D01*
X153064927Y-51019182D01*
X152445880Y-51019182D01*
X83883333Y-32948511D02*
X83740476Y-32996130D01*
X83502380Y-32996130D01*
X83407142Y-32948511D01*
X83359523Y-32900892D01*
X83311904Y-32805654D01*
X83311904Y-32710416D01*
X83359523Y-32615178D01*
X83407142Y-32567559D01*
X83502380Y-32519940D01*
X83692857Y-32472321D01*
X83788095Y-32424702D01*
X83835714Y-32377083D01*
X83883333Y-32281845D01*
X83883333Y-32186607D01*
X83835714Y-32091369D01*
X83788095Y-32043750D01*
X83692857Y-31996130D01*
X83454761Y-31996130D01*
X83311904Y-32043750D01*
X82978571Y-31996130D02*
X82740476Y-32996130D01*
X82550000Y-32281845D01*
X82359523Y-32996130D01*
X82121428Y-31996130D01*
X81216666Y-32996130D02*
X81788095Y-32996130D01*
X81502380Y-32996130D02*
X81502380Y-31996130D01*
X81597619Y-32138988D01*
X81692857Y-32234226D01*
X81788095Y-32281845D01*
X145239889Y-31984557D02*
X145307232Y-31984557D01*
X145441919Y-31917213D01*
X145509263Y-31849869D01*
X145576606Y-31715182D01*
X145576606Y-31580495D01*
X145542935Y-31479480D01*
X145441919Y-31311121D01*
X145340904Y-31210106D01*
X145172545Y-31109091D01*
X145071530Y-31075419D01*
X144936843Y-31075419D01*
X144802156Y-31142763D01*
X144734812Y-31210106D01*
X144667469Y-31344793D01*
X144667469Y-31412137D01*
X144499110Y-32051900D02*
X144532782Y-31950885D01*
X144532782Y-31883541D01*
X144499110Y-31782526D01*
X144465438Y-31748854D01*
X144364423Y-31715182D01*
X144297080Y-31715182D01*
X144196064Y-31748854D01*
X144061377Y-31883541D01*
X144027706Y-31984557D01*
X144027706Y-32051900D01*
X144061377Y-32152915D01*
X144095049Y-32186587D01*
X144196064Y-32220259D01*
X144263408Y-32220259D01*
X144364423Y-32186587D01*
X144499110Y-32051900D01*
X144600125Y-32018228D01*
X144667469Y-32018228D01*
X144768484Y-32051900D01*
X144903171Y-32186587D01*
X144936843Y-32287602D01*
X144936843Y-32354946D01*
X144903171Y-32455961D01*
X144768484Y-32590648D01*
X144667469Y-32624320D01*
X144600125Y-32624320D01*
X144499110Y-32590648D01*
X144364423Y-32455961D01*
X144330751Y-32354946D01*
X144330751Y-32287602D01*
X144364423Y-32186587D01*
X139866666Y-43776044D02*
X139914285Y-43823663D01*
X140057142Y-43871282D01*
X140152380Y-43871282D01*
X140295238Y-43823663D01*
X140390476Y-43728425D01*
X140438095Y-43633187D01*
X140485714Y-43442711D01*
X140485714Y-43299854D01*
X140438095Y-43109378D01*
X140390476Y-43014140D01*
X140295238Y-42918902D01*
X140152380Y-42871282D01*
X140057142Y-42871282D01*
X139914285Y-42918902D01*
X139866666Y-42966521D01*
X139009523Y-42871282D02*
X139200000Y-42871282D01*
X139295238Y-42918902D01*
X139342857Y-42966521D01*
X139438095Y-43109378D01*
X139485714Y-43299854D01*
X139485714Y-43680806D01*
X139438095Y-43776044D01*
X139390476Y-43823663D01*
X139295238Y-43871282D01*
X139104761Y-43871282D01*
X139009523Y-43823663D01*
X138961904Y-43776044D01*
X138914285Y-43680806D01*
X138914285Y-43442711D01*
X138961904Y-43347473D01*
X139009523Y-43299854D01*
X139104761Y-43252235D01*
X139295238Y-43252235D01*
X139390476Y-43299854D01*
X139438095Y-43347473D01*
X139485714Y-43442711D01*
X54451191Y-33114106D02*
X54451191Y-33923630D01*
X54403572Y-34018868D01*
X54355953Y-34066487D01*
X54260715Y-34114106D01*
X54070239Y-34114106D01*
X53975001Y-34066487D01*
X53927382Y-34018868D01*
X53879763Y-33923630D01*
X53879763Y-33114106D01*
X52832144Y-34114106D02*
X53165477Y-33637916D01*
X53403572Y-34114106D02*
X53403572Y-33114106D01*
X53022620Y-33114106D01*
X52927382Y-33161726D01*
X52879763Y-33209345D01*
X52832144Y-33304583D01*
X52832144Y-33447440D01*
X52879763Y-33542678D01*
X52927382Y-33590297D01*
X53022620Y-33637916D01*
X53403572Y-33637916D01*
X52498810Y-33114106D02*
X51879763Y-33114106D01*
X52213096Y-33495059D01*
X52070239Y-33495059D01*
X51975001Y-33542678D01*
X51927382Y-33590297D01*
X51879763Y-33685535D01*
X51879763Y-33923630D01*
X51927382Y-34018868D01*
X51975001Y-34066487D01*
X52070239Y-34114106D01*
X52355953Y-34114106D01*
X52451191Y-34066487D01*
X52498810Y-34018868D01*
X159229642Y-40802789D02*
X159277261Y-40755170D01*
X159324880Y-40612313D01*
X159324880Y-40517075D01*
X159277261Y-40374217D01*
X159182023Y-40278979D01*
X159086785Y-40231360D01*
X158896309Y-40183741D01*
X158753452Y-40183741D01*
X158562976Y-40231360D01*
X158467738Y-40278979D01*
X158372500Y-40374217D01*
X158324880Y-40517075D01*
X158324880Y-40612313D01*
X158372500Y-40755170D01*
X158420119Y-40802789D01*
X158658214Y-41659932D02*
X159324880Y-41659932D01*
X158277261Y-41421836D02*
X158991547Y-41183741D01*
X158991547Y-41802789D01*
X65537142Y-42701697D02*
X65584761Y-42654078D01*
X65632380Y-42511221D01*
X65632380Y-42415983D01*
X65584761Y-42273125D01*
X65489523Y-42177887D01*
X65394285Y-42130268D01*
X65203809Y-42082649D01*
X65060952Y-42082649D01*
X64870476Y-42130268D01*
X64775238Y-42177887D01*
X64680000Y-42273125D01*
X64632380Y-42415983D01*
X64632380Y-42511221D01*
X64680000Y-42654078D01*
X64727619Y-42701697D01*
X65632380Y-43654078D02*
X65632380Y-43082649D01*
X65632380Y-43368364D02*
X64632380Y-43368364D01*
X64775238Y-43273125D01*
X64870476Y-43177887D01*
X64918095Y-43082649D01*
X29552380Y-29694345D02*
X30361904Y-29694345D01*
X30457142Y-29741964D01*
X30504761Y-29789583D01*
X30552380Y-29884821D01*
X30552380Y-30075297D01*
X30504761Y-30170535D01*
X30457142Y-30218154D01*
X30361904Y-30265773D01*
X29552380Y-30265773D01*
X30552380Y-31313392D02*
X30076190Y-30980059D01*
X30552380Y-30741964D02*
X29552380Y-30741964D01*
X29552380Y-31122916D01*
X29600000Y-31218154D01*
X29647619Y-31265773D01*
X29742857Y-31313392D01*
X29885714Y-31313392D01*
X29980952Y-31265773D01*
X30028571Y-31218154D01*
X30076190Y-31122916D01*
X30076190Y-30741964D01*
X29885714Y-32170535D02*
X30552380Y-32170535D01*
X29504761Y-31932440D02*
X30219047Y-31694345D01*
X30219047Y-32313392D01*
X147804166Y-65444642D02*
X147851785Y-65492261D01*
X147994642Y-65539880D01*
X148089880Y-65539880D01*
X148232738Y-65492261D01*
X148327976Y-65397023D01*
X148375595Y-65301785D01*
X148423214Y-65111309D01*
X148423214Y-64968452D01*
X148375595Y-64777976D01*
X148327976Y-64682738D01*
X148232738Y-64587500D01*
X148089880Y-64539880D01*
X147994642Y-64539880D01*
X147851785Y-64587500D01*
X147804166Y-64635119D01*
X147327976Y-65539880D02*
X147137500Y-65539880D01*
X147042261Y-65492261D01*
X146994642Y-65444642D01*
X146899404Y-65301785D01*
X146851785Y-65111309D01*
X146851785Y-64730357D01*
X146899404Y-64635119D01*
X146947023Y-64587500D01*
X147042261Y-64539880D01*
X147232738Y-64539880D01*
X147327976Y-64587500D01*
X147375595Y-64635119D01*
X147423214Y-64730357D01*
X147423214Y-64968452D01*
X147375595Y-65063690D01*
X147327976Y-65111309D01*
X147232738Y-65158928D01*
X147042261Y-65158928D01*
X146947023Y-65111309D01*
X146899404Y-65063690D01*
X146851785Y-64968452D01*
X152074404Y-64539880D02*
X152074404Y-65349404D01*
X152026785Y-65444642D01*
X151979166Y-65492261D01*
X151883928Y-65539880D01*
X151693452Y-65539880D01*
X151598214Y-65492261D01*
X151550595Y-65444642D01*
X151502976Y-65349404D01*
X151502976Y-64539880D01*
X150455357Y-65539880D02*
X150788690Y-65063690D01*
X151026785Y-65539880D02*
X151026785Y-64539880D01*
X150645833Y-64539880D01*
X150550595Y-64587500D01*
X150502976Y-64635119D01*
X150455357Y-64730357D01*
X150455357Y-64873214D01*
X150502976Y-64968452D01*
X150550595Y-65016071D01*
X150645833Y-65063690D01*
X151026785Y-65063690D01*
X149883928Y-64968452D02*
X149979166Y-64920833D01*
X150026785Y-64873214D01*
X150074404Y-64777976D01*
X150074404Y-64730357D01*
X150026785Y-64635119D01*
X149979166Y-64587500D01*
X149883928Y-64539880D01*
X149693452Y-64539880D01*
X149598214Y-64587500D01*
X149550595Y-64635119D01*
X149502976Y-64730357D01*
X149502976Y-64777976D01*
X149550595Y-64873214D01*
X149598214Y-64920833D01*
X149693452Y-64968452D01*
X149883928Y-64968452D01*
X149979166Y-65016071D01*
X150026785Y-65063690D01*
X150074404Y-65158928D01*
X150074404Y-65349404D01*
X150026785Y-65444642D01*
X149979166Y-65492261D01*
X149883928Y-65539880D01*
X149693452Y-65539880D01*
X149598214Y-65492261D01*
X149550595Y-65444642D01*
X149502976Y-65349404D01*
X149502976Y-65158928D01*
X149550595Y-65063690D01*
X149598214Y-65016071D01*
X149693452Y-64968452D01*
X35410218Y-33057949D02*
X35410218Y-33867473D01*
X35362599Y-33962711D01*
X35314980Y-34010330D01*
X35219742Y-34057949D01*
X35029266Y-34057949D01*
X34934028Y-34010330D01*
X34886409Y-33962711D01*
X34838790Y-33867473D01*
X34838790Y-33057949D01*
X33791171Y-34057949D02*
X34124504Y-33581759D01*
X34362599Y-34057949D02*
X34362599Y-33057949D01*
X33981647Y-33057949D01*
X33886409Y-33105569D01*
X33838790Y-33153188D01*
X33791171Y-33248426D01*
X33791171Y-33391283D01*
X33838790Y-33486521D01*
X33886409Y-33534140D01*
X33981647Y-33581759D01*
X34362599Y-33581759D01*
X32886409Y-33057949D02*
X33362599Y-33057949D01*
X33410218Y-33534140D01*
X33362599Y-33486521D01*
X33267361Y-33438902D01*
X33029266Y-33438902D01*
X32934028Y-33486521D01*
X32886409Y-33534140D01*
X32838790Y-33629378D01*
X32838790Y-33867473D01*
X32886409Y-33962711D01*
X32934028Y-34010330D01*
X33029266Y-34057949D01*
X33267361Y-34057949D01*
X33362599Y-34010330D01*
X33410218Y-33962711D01*
X46188095Y-35140980D02*
X46188095Y-35950504D01*
X46140476Y-36045742D01*
X46092857Y-36093361D01*
X45997619Y-36140980D01*
X45807142Y-36140980D01*
X45711904Y-36093361D01*
X45664285Y-36045742D01*
X45616666Y-35950504D01*
X45616666Y-35140980D01*
X45188095Y-36093361D02*
X45045238Y-36140980D01*
X44807142Y-36140980D01*
X44711904Y-36093361D01*
X44664285Y-36045742D01*
X44616666Y-35950504D01*
X44616666Y-35855266D01*
X44664285Y-35760028D01*
X44711904Y-35712409D01*
X44807142Y-35664790D01*
X44997619Y-35617171D01*
X45092857Y-35569552D01*
X45140476Y-35521933D01*
X45188095Y-35426695D01*
X45188095Y-35331457D01*
X45140476Y-35236219D01*
X45092857Y-35188600D01*
X44997619Y-35140980D01*
X44759523Y-35140980D01*
X44616666Y-35188600D01*
X43854761Y-35617171D02*
X43711904Y-35664790D01*
X43664285Y-35712409D01*
X43616666Y-35807647D01*
X43616666Y-35950504D01*
X43664285Y-36045742D01*
X43711904Y-36093361D01*
X43807142Y-36140980D01*
X44188095Y-36140980D01*
X44188095Y-35140980D01*
X43854761Y-35140980D01*
X43759523Y-35188600D01*
X43711904Y-35236219D01*
X43664285Y-35331457D01*
X43664285Y-35426695D01*
X43711904Y-35521933D01*
X43759523Y-35569552D01*
X43854761Y-35617171D01*
X44188095Y-35617171D01*
X42664285Y-36140980D02*
X43235714Y-36140980D01*
X42950000Y-36140980D02*
X42950000Y-35140980D01*
X43045238Y-35283838D01*
X43140476Y-35379076D01*
X43235714Y-35426695D01*
D11*
X48403189Y-34309205D02*
X48117475Y-34309205D01*
X48260332Y-34309205D02*
X48260332Y-34809205D01*
X48212713Y-34737776D01*
X48165094Y-34690157D01*
X48117475Y-34666348D01*
X48593666Y-34761586D02*
X48617475Y-34785396D01*
X48665094Y-34809205D01*
X48784142Y-34809205D01*
X48831761Y-34785396D01*
X48855570Y-34761586D01*
X48879380Y-34713967D01*
X48879380Y-34666348D01*
X48855570Y-34594919D01*
X48569856Y-34309205D01*
X48879380Y-34309205D01*
X40448610Y-34266829D02*
X40162895Y-34266829D01*
X40305753Y-34266829D02*
X40305753Y-34766829D01*
X40258133Y-34695400D01*
X40210514Y-34647781D01*
X40162895Y-34623972D01*
D10*
X45211904Y-42703854D02*
X45211904Y-43513378D01*
X45164285Y-43608616D01*
X45116666Y-43656235D01*
X45021428Y-43703854D01*
X44830952Y-43703854D01*
X44735714Y-43656235D01*
X44688095Y-43608616D01*
X44640476Y-43513378D01*
X44640476Y-42703854D01*
X43640476Y-43703854D02*
X44211904Y-43703854D01*
X43926190Y-43703854D02*
X43926190Y-42703854D01*
X44021428Y-42846712D01*
X44116666Y-42941950D01*
X44211904Y-42989569D01*
X155543154Y-51839880D02*
X155543154Y-52649404D01*
X155495535Y-52744642D01*
X155447916Y-52792261D01*
X155352678Y-52839880D01*
X155162202Y-52839880D01*
X155066964Y-52792261D01*
X155019345Y-52744642D01*
X154971726Y-52649404D01*
X154971726Y-51839880D01*
X154590773Y-51839880D02*
X153971726Y-51839880D01*
X154305059Y-52220833D01*
X154162202Y-52220833D01*
X154066964Y-52268452D01*
X154019345Y-52316071D01*
X153971726Y-52411309D01*
X153971726Y-52649404D01*
X154019345Y-52744642D01*
X154066964Y-52792261D01*
X154162202Y-52839880D01*
X154447916Y-52839880D01*
X154543154Y-52792261D01*
X154590773Y-52744642D01*
X156836904Y-62952380D02*
X156836904Y-63761904D01*
X156789285Y-63857142D01*
X156741666Y-63904761D01*
X156646428Y-63952380D01*
X156455952Y-63952380D01*
X156360714Y-63904761D01*
X156313095Y-63857142D01*
X156265476Y-63761904D01*
X156265476Y-62952380D01*
X155217857Y-63952380D02*
X155551190Y-63476190D01*
X155789285Y-63952380D02*
X155789285Y-62952380D01*
X155408333Y-62952380D01*
X155313095Y-63000000D01*
X155265476Y-63047619D01*
X155217857Y-63142857D01*
X155217857Y-63285714D01*
X155265476Y-63380952D01*
X155313095Y-63428571D01*
X155408333Y-63476190D01*
X155789285Y-63476190D01*
X154884523Y-62952380D02*
X154217857Y-62952380D01*
X154646428Y-63952380D01*
X153099321Y-31047875D02*
X153099321Y-30980532D01*
X153031977Y-30845845D01*
X152964634Y-30778501D01*
X152829946Y-30711158D01*
X152695259Y-30711158D01*
X152594244Y-30744829D01*
X152425885Y-30845845D01*
X152324870Y-30946860D01*
X152223855Y-31115219D01*
X152190183Y-31216234D01*
X152190183Y-31350921D01*
X152257527Y-31485608D01*
X152324870Y-31552952D01*
X152459557Y-31620295D01*
X152526901Y-31620295D01*
X152695259Y-31923341D02*
X153166664Y-32394745D01*
X153570725Y-31384593D01*
X48918373Y-43830390D02*
X49251706Y-43830390D01*
X49251706Y-44354199D02*
X49251706Y-43354199D01*
X48775516Y-43354199D01*
X47870754Y-44354199D02*
X48442182Y-44354199D01*
X48156468Y-44354199D02*
X48156468Y-43354199D01*
X48251706Y-43497057D01*
X48346944Y-43592295D01*
X48442182Y-43639914D01*
X140961904Y-50314880D02*
X140961904Y-51124404D01*
X140914285Y-51219642D01*
X140866666Y-51267261D01*
X140771428Y-51314880D01*
X140580952Y-51314880D01*
X140485714Y-51267261D01*
X140438095Y-51219642D01*
X140390476Y-51124404D01*
X140390476Y-50314880D01*
X139342857Y-51314880D02*
X139676190Y-50838690D01*
X139914285Y-51314880D02*
X139914285Y-50314880D01*
X139533333Y-50314880D01*
X139438095Y-50362500D01*
X139390476Y-50410119D01*
X139342857Y-50505357D01*
X139342857Y-50648214D01*
X139390476Y-50743452D01*
X139438095Y-50791071D01*
X139533333Y-50838690D01*
X139914285Y-50838690D01*
X138390476Y-51314880D02*
X138961904Y-51314880D01*
X138676190Y-51314880D02*
X138676190Y-50314880D01*
X138771428Y-50457738D01*
X138866666Y-50552976D01*
X138961904Y-50600595D01*
X80845456Y-43155088D02*
X81178790Y-42678898D01*
X81416885Y-43155088D02*
X81416885Y-42155088D01*
X81035932Y-42155088D01*
X80940694Y-42202708D01*
X80893075Y-42250327D01*
X80845456Y-42345565D01*
X80845456Y-42488422D01*
X80893075Y-42583660D01*
X80940694Y-42631279D01*
X81035932Y-42678898D01*
X81416885Y-42678898D01*
X79893075Y-43155088D02*
X80464504Y-43155088D01*
X80178790Y-43155088D02*
X80178790Y-42155088D01*
X80274028Y-42297946D01*
X80369266Y-42393184D01*
X80464504Y-42440803D01*
X144136904Y-62952380D02*
X144136904Y-63761904D01*
X144089285Y-63857142D01*
X144041666Y-63904761D01*
X143946428Y-63952380D01*
X143755952Y-63952380D01*
X143660714Y-63904761D01*
X143613095Y-63857142D01*
X143565476Y-63761904D01*
X143565476Y-62952380D01*
X142517857Y-63952380D02*
X142851190Y-63476190D01*
X143089285Y-63952380D02*
X143089285Y-62952380D01*
X142708333Y-62952380D01*
X142613095Y-63000000D01*
X142565476Y-63047619D01*
X142517857Y-63142857D01*
X142517857Y-63285714D01*
X142565476Y-63380952D01*
X142613095Y-63428571D01*
X142708333Y-63476190D01*
X143089285Y-63476190D01*
X141660714Y-62952380D02*
X141851190Y-62952380D01*
X141946428Y-63000000D01*
X141994047Y-63047619D01*
X142089285Y-63190476D01*
X142136904Y-63380952D01*
X142136904Y-63761904D01*
X142089285Y-63857142D01*
X142041666Y-63904761D01*
X141946428Y-63952380D01*
X141755952Y-63952380D01*
X141660714Y-63904761D01*
X141613095Y-63857142D01*
X141565476Y-63761904D01*
X141565476Y-63523809D01*
X141613095Y-63428571D01*
X141660714Y-63380952D01*
X141755952Y-63333333D01*
X141946428Y-63333333D01*
X142041666Y-63380952D01*
X142089285Y-63428571D01*
X142136904Y-63523809D01*
X140341201Y-38551989D02*
X140388820Y-38599608D01*
X140531677Y-38647227D01*
X140626915Y-38647227D01*
X140769773Y-38599608D01*
X140865011Y-38504370D01*
X140912630Y-38409132D01*
X140960249Y-38218656D01*
X140960249Y-38075799D01*
X140912630Y-37885323D01*
X140865011Y-37790085D01*
X140769773Y-37694847D01*
X140626915Y-37647227D01*
X140531677Y-37647227D01*
X140388820Y-37694847D01*
X140341201Y-37742466D01*
X139436439Y-37647227D02*
X139912630Y-37647227D01*
X139960249Y-38123418D01*
X139912630Y-38075799D01*
X139817392Y-38028180D01*
X139579296Y-38028180D01*
X139484058Y-38075799D01*
X139436439Y-38123418D01*
X139388820Y-38218656D01*
X139388820Y-38456751D01*
X139436439Y-38551989D01*
X139484058Y-38599608D01*
X139579296Y-38647227D01*
X139817392Y-38647227D01*
X139912630Y-38599608D01*
X139960249Y-38551989D01*
X156213321Y-56060495D02*
X156260940Y-56108114D01*
X156403797Y-56155733D01*
X156499035Y-56155733D01*
X156641893Y-56108114D01*
X156737131Y-56012876D01*
X156784750Y-55917638D01*
X156832369Y-55727162D01*
X156832369Y-55584305D01*
X156784750Y-55393829D01*
X156737131Y-55298591D01*
X156641893Y-55203353D01*
X156499035Y-55155733D01*
X156403797Y-55155733D01*
X156260940Y-55203353D01*
X156213321Y-55250972D01*
X155879988Y-55155733D02*
X155260940Y-55155733D01*
X155594274Y-55536686D01*
X155451416Y-55536686D01*
X155356178Y-55584305D01*
X155308559Y-55631924D01*
X155260940Y-55727162D01*
X155260940Y-55965257D01*
X155308559Y-56060495D01*
X155356178Y-56108114D01*
X155451416Y-56155733D01*
X155737131Y-56155733D01*
X155832369Y-56108114D01*
X155879988Y-56060495D01*
D12*
X86650630Y-78450000D02*
X84650630Y-78450000D01*
X86650630Y-78450000D02*
X86650630Y-74550000D01*
X84650630Y-78450000D02*
X84650630Y-74550000D01*
X139472936Y-46445500D02*
X139927064Y-46445500D01*
X139472936Y-47915500D02*
X139927064Y-47915500D01*
X149041892Y-31609274D02*
X152223873Y-34791255D01*
X152223873Y-34791255D02*
X148405496Y-38609632D01*
X51535000Y-31217502D02*
X51535000Y-30694998D01*
X50065000Y-31217502D02*
X50065000Y-30694998D01*
X105701418Y-78450000D02*
X103701418Y-78450000D01*
X105701418Y-78450000D02*
X105701418Y-74550000D01*
X103701418Y-78450000D02*
X103701418Y-74550000D01*
X174037500Y-97500000D02*
X172037500Y-97500000D01*
X174037500Y-97500000D02*
X174037500Y-93600000D01*
X172037500Y-97500000D02*
X172037500Y-93600000D01*
X265626512Y-59400000D02*
X265626512Y-55500000D01*
X267626512Y-59400000D02*
X265626512Y-59400000D01*
X267626512Y-59400000D02*
X267626512Y-55500000D01*
X191426512Y-59400000D02*
X191426512Y-55500000D01*
X189426512Y-59400000D02*
X189426512Y-55500000D01*
X191426512Y-59400000D02*
X189426512Y-59400000D01*
X75118439Y-59400000D02*
X75118439Y-55500000D01*
X77118439Y-59400000D02*
X77118439Y-55500000D01*
X77118439Y-59400000D02*
X75118439Y-59400000D01*
X267626512Y-40350000D02*
X267626512Y-36450000D01*
X267626512Y-40350000D02*
X265626512Y-40350000D01*
X265626512Y-40350000D02*
X265626512Y-36450000D01*
X143081250Y-97500000D02*
X141081250Y-97500000D01*
X143081250Y-97500000D02*
X143081250Y-93600000D01*
X141081250Y-97500000D02*
X141081250Y-93600000D01*
X181181250Y-97500000D02*
X179181250Y-97500000D01*
X179181250Y-97500000D02*
X179181250Y-93600000D01*
X181181250Y-97500000D02*
X181181250Y-93600000D01*
X143038477Y-54710000D02*
X143560981Y-54710000D01*
X143038477Y-53240000D02*
X143560981Y-53240000D01*
X157045304Y-51263153D02*
X157045304Y-50809025D01*
X158515304Y-51263153D02*
X158515304Y-50809025D01*
X246576512Y-59400000D02*
X246576512Y-55500000D01*
X248576512Y-59400000D02*
X248576512Y-55500000D01*
X248576512Y-59400000D02*
X246576512Y-59400000D01*
X152835000Y-49806072D02*
X152835000Y-49081072D01*
X152110000Y-42586072D02*
X152835000Y-42586072D01*
X146340000Y-49806072D02*
X145615000Y-49806072D01*
X146340000Y-42586072D02*
X145615000Y-42586072D01*
X152835000Y-42586072D02*
X152835000Y-43311072D01*
X145615000Y-42586072D02*
X145615000Y-43311072D01*
X152110000Y-49806072D02*
X152835000Y-49806072D01*
X67599842Y-78450000D02*
X67599842Y-74550000D01*
X65599842Y-78450000D02*
X65599842Y-74550000D01*
X67599842Y-78450000D02*
X65599842Y-78450000D01*
X266906250Y-78450000D02*
X266906250Y-74550000D01*
X264906250Y-78450000D02*
X264906250Y-74550000D01*
X266906250Y-78450000D02*
X264906250Y-78450000D01*
X85270000Y-35856250D02*
X85270000Y-38756250D01*
X79830000Y-35856250D02*
X79830000Y-38756250D01*
X85270000Y-38756250D02*
X84780000Y-39246250D01*
X79830000Y-35856250D02*
X80320000Y-35366250D01*
X79830000Y-38756250D02*
X80320000Y-39246250D01*
X85270000Y-35856250D02*
X84780000Y-35366250D01*
X83590000Y-34586250D02*
X81510000Y-34586250D01*
X83590000Y-40026250D02*
X81510000Y-40026250D01*
X146677434Y-33432660D02*
X147046901Y-33063193D01*
X145637987Y-32393213D02*
X146007454Y-32023746D01*
X58069135Y-40350000D02*
X56069135Y-40350000D01*
X56069135Y-40350000D02*
X56069135Y-36450000D01*
X58069135Y-40350000D02*
X58069135Y-36450000D01*
X139961252Y-44363902D02*
X139438748Y-44363902D01*
X139961252Y-45833902D02*
X139438748Y-45833902D01*
X39019831Y-59400000D02*
X37019831Y-59400000D01*
X39019831Y-59400000D02*
X39019831Y-55500000D01*
X37019831Y-59400000D02*
X37019831Y-55500000D01*
X53916250Y-30729186D02*
X53916250Y-31183314D01*
X52446250Y-30729186D02*
X52446250Y-31183314D01*
X222043750Y-97500000D02*
X222043750Y-93600000D01*
X224043750Y-97500000D02*
X222043750Y-97500000D01*
X224043750Y-97500000D02*
X224043750Y-93600000D01*
X227526512Y-40350000D02*
X227526512Y-36450000D01*
X229526512Y-40350000D02*
X227526512Y-40350000D01*
X229526512Y-40350000D02*
X229526512Y-36450000D01*
X156457500Y-41230708D02*
X156457500Y-40708204D01*
X157927500Y-41230708D02*
X157927500Y-40708204D01*
X96167743Y-40350000D02*
X96167743Y-36450000D01*
X94167743Y-40350000D02*
X94167743Y-36450000D01*
X96167743Y-40350000D02*
X94167743Y-40350000D01*
X172376512Y-40350000D02*
X172376512Y-36450000D01*
X172376512Y-40350000D02*
X170376512Y-40350000D01*
X170376512Y-40350000D02*
X170376512Y-36450000D01*
X64235000Y-43129616D02*
X64235000Y-42607112D01*
X62765000Y-43129616D02*
X62765000Y-42607112D01*
X134266352Y-59400000D02*
X132266352Y-59400000D01*
X132266352Y-59400000D02*
X132266352Y-55500000D01*
X134266352Y-59400000D02*
X134266352Y-55500000D01*
X115223659Y-97500000D02*
X113223659Y-97500000D01*
X113223659Y-97500000D02*
X113223659Y-93600000D01*
X115223659Y-97500000D02*
X115223659Y-93600000D01*
X31015000Y-30729186D02*
X31015000Y-31183314D01*
X32485000Y-30729186D02*
X32485000Y-31183314D01*
X248576512Y-40350000D02*
X248576512Y-36450000D01*
X248576512Y-40350000D02*
X246576512Y-40350000D01*
X246576512Y-40350000D02*
X246576512Y-36450000D01*
X208476512Y-59400000D02*
X208476512Y-55500000D01*
X210476512Y-59400000D02*
X210476512Y-55500000D01*
X210476512Y-59400000D02*
X208476512Y-59400000D01*
X148740590Y-62967502D02*
X148740590Y-62444998D01*
X147270590Y-62967502D02*
X147270590Y-62444998D01*
X149651840Y-62479186D02*
X149651840Y-62933314D01*
X151121840Y-62479186D02*
X151121840Y-62933314D01*
X162853782Y-78450000D02*
X162853782Y-74550000D01*
X160853782Y-78450000D02*
X160853782Y-74550000D01*
X162853782Y-78450000D02*
X160853782Y-78450000D01*
X200955358Y-78450000D02*
X198955358Y-78450000D01*
X198955358Y-78450000D02*
X198955358Y-74550000D01*
X200955358Y-78450000D02*
X200955358Y-74550000D01*
X33396250Y-30729186D02*
X33396250Y-31183314D01*
X34866250Y-30729186D02*
X34866250Y-31183314D01*
X143802994Y-78450000D02*
X143802994Y-74550000D01*
X143802994Y-78450000D02*
X141802994Y-78450000D01*
X141802994Y-78450000D02*
X141802994Y-74550000D01*
X77118439Y-40350000D02*
X77118439Y-36450000D01*
X75118439Y-40350000D02*
X75118439Y-36450000D01*
X77118439Y-40350000D02*
X75118439Y-40350000D01*
X227526512Y-59400000D02*
X227526512Y-55500000D01*
X229526512Y-59400000D02*
X227526512Y-59400000D01*
X229526512Y-59400000D02*
X229526512Y-55500000D01*
X122752206Y-78450000D02*
X122752206Y-74550000D01*
X124752206Y-78450000D02*
X124752206Y-74550000D01*
X124752206Y-78450000D02*
X122752206Y-78450000D01*
X220006146Y-78450000D02*
X220006146Y-74550000D01*
X220006146Y-78450000D02*
X218006146Y-78450000D01*
X218006146Y-78450000D02*
X218006146Y-74550000D01*
X43550000Y-38741474D02*
X45350000Y-38741474D01*
X45350000Y-41961474D02*
X42400000Y-41961474D01*
D10*
X144050000Y-50796072D02*
X142775000Y-50796072D01*
X154400000Y-51371072D02*
X153725000Y-51371072D01*
X144050000Y-51371072D02*
X144050000Y-50796072D01*
X144050000Y-41021072D02*
X144725000Y-41021072D01*
X144050000Y-41021072D02*
X144050000Y-41696072D01*
X154400000Y-41021072D02*
X153725000Y-41021072D01*
X154400000Y-51371072D02*
X154400000Y-50696072D01*
X154400000Y-41021072D02*
X154400000Y-41696072D01*
X144050000Y-51371072D02*
X144725000Y-51371072D01*
D12*
X153928750Y-62479186D02*
X153928750Y-62933314D01*
X152458750Y-62479186D02*
X152458750Y-62933314D01*
X151441705Y-33310661D02*
X151072238Y-32941194D01*
X152481152Y-32271214D02*
X152111685Y-31901747D01*
X239056940Y-78450000D02*
X239056940Y-74550000D01*
X239056940Y-78450000D02*
X237056940Y-78450000D01*
X237056940Y-78450000D02*
X237056940Y-74550000D01*
X208476512Y-40350000D02*
X208476512Y-36450000D01*
X210476512Y-40350000D02*
X210476512Y-36450000D01*
X210476512Y-40350000D02*
X208476512Y-40350000D01*
X134266352Y-40350000D02*
X134266352Y-36450000D01*
X132266352Y-40350000D02*
X132266352Y-36450000D01*
X134266352Y-40350000D02*
X132266352Y-40350000D01*
X51951726Y-42991819D02*
X53155854Y-42991819D01*
X51951726Y-44811819D02*
X53155854Y-44811819D01*
X115217047Y-40350000D02*
X115217047Y-36450000D01*
X113217047Y-40350000D02*
X113217047Y-36450000D01*
X115217047Y-40350000D02*
X113217047Y-40350000D01*
X52593750Y-78450000D02*
X52593750Y-74550000D01*
X50593750Y-78450000D02*
X50593750Y-74550000D01*
X52593750Y-78450000D02*
X50593750Y-78450000D01*
X94185728Y-97500000D02*
X94185728Y-93600000D01*
X96185728Y-97500000D02*
X94185728Y-97500000D01*
X96185728Y-97500000D02*
X96185728Y-93600000D01*
X181904570Y-78450000D02*
X179904570Y-78450000D01*
X181904570Y-78450000D02*
X181904570Y-74550000D01*
X179904570Y-78450000D02*
X179904570Y-74550000D01*
X172376512Y-59400000D02*
X170376512Y-59400000D01*
X170376512Y-59400000D02*
X170376512Y-55500000D01*
X172376512Y-59400000D02*
X172376512Y-55500000D01*
X115217047Y-59400000D02*
X113217047Y-59400000D01*
X115217047Y-59400000D02*
X115217047Y-55500000D01*
X113217047Y-59400000D02*
X113217047Y-55500000D01*
X189426512Y-40350000D02*
X189426512Y-36450000D01*
X191426512Y-40350000D02*
X189426512Y-40350000D01*
X191426512Y-40350000D02*
X191426512Y-36450000D01*
X139472936Y-49947500D02*
X139927064Y-49947500D01*
X139472936Y-48477500D02*
X139927064Y-48477500D01*
X83777064Y-41923741D02*
X83322936Y-41923741D01*
X83777064Y-43393741D02*
X83322936Y-43393741D01*
X96167743Y-59400000D02*
X94167743Y-59400000D01*
X96167743Y-59400000D02*
X96167743Y-55500000D01*
X94167743Y-59400000D02*
X94167743Y-55500000D01*
X58069135Y-59400000D02*
X58069135Y-55500000D01*
X56069135Y-59400000D02*
X56069135Y-55500000D01*
X58069135Y-59400000D02*
X56069135Y-59400000D01*
X146197500Y-62933314D02*
X146197500Y-62479186D01*
X144727500Y-62933314D02*
X144727500Y-62479186D01*
X39019831Y-40350000D02*
X39019831Y-36450000D01*
X37019831Y-40350000D02*
X37019831Y-36450000D01*
X39019831Y-40350000D02*
X37019831Y-40350000D01*
X143136252Y-37365000D02*
X142613748Y-37365000D01*
X143136252Y-38835000D02*
X142613748Y-38835000D01*
X155836252Y-53199251D02*
X155313748Y-53199251D01*
X155836252Y-54669251D02*
X155313748Y-54669251D01*
X69973547Y-97500000D02*
X69973547Y-93600000D01*
X69973547Y-97500000D02*
X67973547Y-97500000D01*
X67973547Y-97500000D02*
X67973547Y-93600000D01*
X241412720Y-97500000D02*
X241412720Y-93600000D01*
X239412720Y-97500000D02*
X239412720Y-93600000D01*
X241412720Y-97500000D02*
X239412720Y-97500000D01*
%LPC*%
D13*
X101600000Y-75406250D03*
D14*
X96520000Y-75406250D03*
X106680000Y-75406250D03*
D15*
X97790000Y-72866250D03*
X104140000Y-70326250D03*
D14*
X66198750Y-94456250D03*
D13*
X61118750Y-94456250D03*
D14*
X56038750Y-94456250D03*
D15*
X57308750Y-91916250D03*
X63658750Y-89376250D03*
D13*
X120650000Y-75406250D03*
D14*
X115570000Y-75406250D03*
X125730000Y-75406250D03*
D15*
X116840000Y-72866250D03*
X123190000Y-70326250D03*
D14*
X227488750Y-94456250D03*
X237648750Y-94456250D03*
D13*
X232568750Y-94456250D03*
D15*
X228758750Y-91916250D03*
X235108750Y-89376250D03*
D14*
X240030000Y-75406250D03*
D13*
X234950000Y-75406250D03*
D14*
X229870000Y-75406250D03*
D15*
X231140000Y-72866250D03*
X237490000Y-70326250D03*
D14*
X182245000Y-56356250D03*
D13*
X187325000Y-56356250D03*
D14*
X192405000Y-56356250D03*
D15*
X183515000Y-53816250D03*
X189865000Y-51276250D03*
D16*
X153150000Y-75345651D03*
X164350000Y-75382951D03*
D17*
X156250000Y-82882951D03*
D18*
X161250000Y-82882951D03*
X158750000Y-82882951D03*
X161250000Y-68382951D03*
X156250000Y-68382951D03*
D14*
X230505000Y-37306250D03*
X220345000Y-37306250D03*
D13*
X225425000Y-37306250D03*
D15*
X221615000Y-34766250D03*
X227965000Y-32226250D03*
D13*
X254000000Y-75406250D03*
D14*
X259080000Y-75406250D03*
X248920000Y-75406250D03*
D15*
X250190000Y-72866250D03*
X256540000Y-70326250D03*
D14*
X98901250Y-94456250D03*
X109061250Y-94456250D03*
D13*
X103981250Y-94456250D03*
D15*
X100171250Y-91916250D03*
X106521250Y-89376250D03*
D14*
X40005000Y-37306250D03*
X29845000Y-37306250D03*
D13*
X34925000Y-37306250D03*
D15*
X31115000Y-34766250D03*
X37465000Y-32226250D03*
D13*
X215900000Y-94456250D03*
D14*
X220980000Y-94456250D03*
X210820000Y-94456250D03*
D15*
X212090000Y-91916250D03*
X218440000Y-89376250D03*
D14*
X97155000Y-94456250D03*
X86995000Y-94456250D03*
D13*
X92075000Y-94456250D03*
D15*
X88265000Y-91916250D03*
X94615000Y-89376250D03*
D14*
X249555000Y-37306250D03*
D13*
X244475000Y-37306250D03*
D14*
X239395000Y-37306250D03*
D15*
X240665000Y-34766250D03*
X247015000Y-32226250D03*
D19*
X149225000Y-59531250D03*
D14*
X79851250Y-94456250D03*
D13*
X84931250Y-94456250D03*
D14*
X90011250Y-94456250D03*
D15*
X81121250Y-91916250D03*
X87471250Y-89376250D03*
D14*
X201295000Y-37306250D03*
X211455000Y-37306250D03*
D13*
X206375000Y-37306250D03*
D15*
X202565000Y-34766250D03*
X208915000Y-32226250D03*
D13*
X215900000Y-75406250D03*
D14*
X220980000Y-75406250D03*
X210820000Y-75406250D03*
D15*
X212090000Y-72866250D03*
X218440000Y-70326250D03*
D14*
X230505000Y-56356250D03*
D13*
X225425000Y-56356250D03*
D14*
X220345000Y-56356250D03*
D15*
X221615000Y-53816250D03*
X227965000Y-51276250D03*
D14*
X192405000Y-37306250D03*
X182245000Y-37306250D03*
D13*
X187325000Y-37306250D03*
D15*
X183515000Y-34766250D03*
X189865000Y-32226250D03*
D14*
X48895000Y-56356250D03*
X59055000Y-56356250D03*
D13*
X53975000Y-56356250D03*
D15*
X50165000Y-53816250D03*
X56515000Y-51276250D03*
D14*
X36988750Y-75406250D03*
D13*
X42068750Y-75406250D03*
D14*
X47148750Y-75406250D03*
D15*
X38258750Y-72866250D03*
X44608750Y-70326250D03*
D14*
X211455000Y-94456250D03*
X201295000Y-94456250D03*
D13*
X206375000Y-94456250D03*
D15*
X202565000Y-91916250D03*
X208915000Y-89376250D03*
D14*
X60801250Y-94456250D03*
X70961250Y-94456250D03*
D13*
X65881250Y-94456250D03*
D15*
X62071250Y-91916250D03*
X68421250Y-89376250D03*
D14*
X106045000Y-94456250D03*
X116205000Y-94456250D03*
D13*
X111125000Y-94456250D03*
D15*
X107315000Y-91916250D03*
X113665000Y-89376250D03*
D19*
X146843750Y-59531250D03*
D13*
X92075000Y-56356250D03*
D14*
X86995000Y-56356250D03*
X97155000Y-56356250D03*
D15*
X88265000Y-53816250D03*
X94615000Y-51276250D03*
D14*
X163830000Y-75406250D03*
X153670000Y-75406250D03*
D13*
X158750000Y-75406250D03*
D15*
X154940000Y-72866250D03*
X161290000Y-70326250D03*
D13*
X82550000Y-94456250D03*
D14*
X87630000Y-94456250D03*
X77470000Y-94456250D03*
D15*
X78740000Y-91916250D03*
X85090000Y-89376250D03*
D14*
X78105000Y-56356250D03*
D13*
X73025000Y-56356250D03*
D14*
X67945000Y-56356250D03*
D15*
X69215000Y-53816250D03*
X75565000Y-51276250D03*
D19*
X144462500Y-59531250D03*
D14*
X239395000Y-56356250D03*
X249555000Y-56356250D03*
D13*
X244475000Y-56356250D03*
D15*
X240665000Y-53816250D03*
X247015000Y-51276250D03*
D14*
X187007500Y-94456250D03*
X197167500Y-94456250D03*
D13*
X192087500Y-94456250D03*
D15*
X188277500Y-91916250D03*
X194627500Y-89376250D03*
D14*
X173355000Y-56356250D03*
X163195000Y-56356250D03*
D13*
X168275000Y-56356250D03*
D15*
X164465000Y-53816250D03*
X170815000Y-51276250D03*
D14*
X58420000Y-75406250D03*
D13*
X63500000Y-75406250D03*
D14*
X68580000Y-75406250D03*
D15*
X59690000Y-72866250D03*
X66040000Y-70326250D03*
D19*
X151606250Y-59531250D03*
D14*
X137636250Y-94456250D03*
D13*
X132556250Y-94456250D03*
D14*
X127476250Y-94456250D03*
D15*
X128746250Y-91916250D03*
X135096250Y-89376250D03*
D14*
X172720000Y-75406250D03*
D13*
X177800000Y-75406250D03*
D14*
X182880000Y-75406250D03*
D15*
X173990000Y-72866250D03*
X180340000Y-70326250D03*
D13*
X130175000Y-37306250D03*
D14*
X125095000Y-37306250D03*
X135255000Y-37306250D03*
D15*
X126365000Y-34766250D03*
X132715000Y-32226250D03*
D14*
X29845000Y-56356250D03*
D13*
X34925000Y-56356250D03*
D14*
X40005000Y-56356250D03*
D15*
X31115000Y-53816250D03*
X37465000Y-51276250D03*
D13*
X134937500Y-94456250D03*
D14*
X129857500Y-94456250D03*
X140017500Y-94456250D03*
D15*
X131127500Y-91916250D03*
X137477500Y-89376250D03*
D13*
X187325000Y-94456250D03*
D14*
X192405000Y-94456250D03*
X182245000Y-94456250D03*
D15*
X183515000Y-91916250D03*
X189865000Y-89376250D03*
D19*
X153987500Y-59531250D03*
D14*
X44767500Y-75406250D03*
X34607500Y-75406250D03*
D13*
X39687500Y-75406250D03*
D15*
X35877500Y-72866250D03*
X42227500Y-70326250D03*
D14*
X67945000Y-37306250D03*
X78105000Y-37306250D03*
D13*
X73025000Y-37306250D03*
D15*
X69215000Y-34766250D03*
X75565000Y-32226250D03*
D13*
X106362500Y-94456250D03*
D14*
X111442500Y-94456250D03*
X101282500Y-94456250D03*
D15*
X102552500Y-91916250D03*
X108902500Y-89376250D03*
D14*
X135255000Y-56356250D03*
D13*
X130175000Y-56356250D03*
D14*
X125095000Y-56356250D03*
D15*
X126365000Y-53816250D03*
X132715000Y-51276250D03*
D13*
X263525000Y-37306250D03*
D14*
X268605000Y-37306250D03*
X258445000Y-37306250D03*
D15*
X259715000Y-34766250D03*
X266065000Y-32226250D03*
D14*
X106045000Y-37306250D03*
X116205000Y-37306250D03*
D13*
X111125000Y-37306250D03*
D15*
X107315000Y-34766250D03*
X113665000Y-32226250D03*
D13*
X263525000Y-56356250D03*
D14*
X258445000Y-56356250D03*
X268605000Y-56356250D03*
D15*
X259715000Y-53816250D03*
X266065000Y-51276250D03*
D14*
X253682500Y-75406250D03*
D13*
X258762500Y-75406250D03*
D14*
X263842500Y-75406250D03*
D15*
X254952500Y-72866250D03*
X261302500Y-70326250D03*
D14*
X201930000Y-75406250D03*
X191770000Y-75406250D03*
D13*
X196850000Y-75406250D03*
D15*
X193040000Y-72866250D03*
X199390000Y-70326250D03*
D14*
X251301250Y-75406250D03*
D13*
X256381250Y-75406250D03*
D14*
X261461250Y-75406250D03*
D15*
X252571250Y-72866250D03*
X258921250Y-70326250D03*
D14*
X160813750Y-94456250D03*
D13*
X165893750Y-94456250D03*
D14*
X170973750Y-94456250D03*
D15*
X162083750Y-91916250D03*
X168433750Y-89376250D03*
D20*
X153035000Y-29101250D03*
X150495000Y-29101250D03*
X147955000Y-29101250D03*
X145415000Y-29101250D03*
D13*
X237331250Y-94456250D03*
D14*
X242411250Y-94456250D03*
X232251250Y-94456250D03*
D15*
X233521250Y-91916250D03*
X239871250Y-89376250D03*
D14*
X116205000Y-56356250D03*
X106045000Y-56356250D03*
D13*
X111125000Y-56356250D03*
D15*
X107315000Y-53816250D03*
X113665000Y-51276250D03*
D14*
X158432500Y-94456250D03*
D13*
X163512500Y-94456250D03*
D14*
X168592500Y-94456250D03*
D15*
X159702500Y-91916250D03*
X166052500Y-89376250D03*
D14*
X199548750Y-94456250D03*
D13*
X194468750Y-94456250D03*
D14*
X189388750Y-94456250D03*
D15*
X190658750Y-91916250D03*
X197008750Y-89376250D03*
D14*
X163195000Y-37306250D03*
X173355000Y-37306250D03*
D13*
X168275000Y-37306250D03*
D15*
X164465000Y-34766250D03*
X170815000Y-32226250D03*
D14*
X39370000Y-75406250D03*
X49530000Y-75406250D03*
D13*
X44450000Y-75406250D03*
D15*
X40640000Y-72866250D03*
X46990000Y-70326250D03*
D14*
X134620000Y-75406250D03*
D13*
X139700000Y-75406250D03*
D14*
X144780000Y-75406250D03*
D15*
X135890000Y-72866250D03*
X142240000Y-70326250D03*
D14*
X208438750Y-94456250D03*
D13*
X213518750Y-94456250D03*
D14*
X218598750Y-94456250D03*
D15*
X209708750Y-91916250D03*
X216058750Y-89376250D03*
D14*
X87630000Y-75406250D03*
X77470000Y-75406250D03*
D13*
X82550000Y-75406250D03*
D15*
X78740000Y-72866250D03*
X85090000Y-70326250D03*
D13*
X206375000Y-56356250D03*
D14*
X211455000Y-56356250D03*
X201295000Y-56356250D03*
D15*
X202565000Y-53816250D03*
X208915000Y-51276250D03*
D14*
X48895000Y-37306250D03*
D13*
X53975000Y-37306250D03*
D14*
X59055000Y-37306250D03*
D15*
X50165000Y-34766250D03*
X56515000Y-32226250D03*
D14*
X86995000Y-37306250D03*
D13*
X92075000Y-37306250D03*
D14*
X97155000Y-37306250D03*
D15*
X88265000Y-34766250D03*
X94615000Y-32226250D03*
D21*
X85650630Y-77850000D03*
X85650630Y-74550000D03*
D22*
X138700000Y-47180500D03*
X140700000Y-47180500D03*
D23*
X150562172Y-34897321D03*
X148511562Y-36947931D03*
X146885216Y-35321585D03*
X148935826Y-33270975D03*
D24*
X50800000Y-31993750D03*
X50800000Y-29918750D03*
D21*
X104701418Y-77850000D03*
X104701418Y-74550000D03*
X173037500Y-96900000D03*
X173037500Y-93600000D03*
X266626512Y-58800000D03*
X266626512Y-55500000D03*
X190426512Y-58800000D03*
X190426512Y-55500000D03*
X76118439Y-58800000D03*
X76118439Y-55500000D03*
X266626512Y-39750000D03*
X266626512Y-36450000D03*
X142081250Y-96900000D03*
X142081250Y-93600000D03*
X180181250Y-96900000D03*
X180181250Y-93600000D03*
D25*
X142262229Y-53975000D03*
X144337229Y-53975000D03*
D26*
X157780304Y-52036089D03*
X157780304Y-50036089D03*
D21*
X247576512Y-58800000D03*
X247576512Y-55500000D03*
D27*
X145887500Y-48696072D03*
X145887500Y-48196072D03*
X145887500Y-47696072D03*
X145887500Y-47196072D03*
X145887500Y-46696072D03*
X145887500Y-46196072D03*
X145887500Y-45696072D03*
X145887500Y-45196072D03*
X145887500Y-44696072D03*
X145887500Y-44196072D03*
X145887500Y-43696072D03*
D28*
X146725000Y-42858572D03*
X147225000Y-42858572D03*
X147725000Y-42858572D03*
X148225000Y-42858572D03*
X148725000Y-42858572D03*
X149225000Y-42858572D03*
X149725000Y-42858572D03*
X150225000Y-42858572D03*
X150725000Y-42858572D03*
X151225000Y-42858572D03*
X151725000Y-42858572D03*
D27*
X152562500Y-43696072D03*
X152562500Y-44196072D03*
X152562500Y-44696072D03*
X152562500Y-45196072D03*
X152562500Y-45696072D03*
X152562500Y-46196072D03*
X152562500Y-46696072D03*
X152562500Y-47196072D03*
X152562500Y-47696072D03*
X152562500Y-48196072D03*
X152562500Y-48696072D03*
D28*
X151725000Y-49533572D03*
X151225000Y-49533572D03*
X150725000Y-49533572D03*
X150225000Y-49533572D03*
X149725000Y-49533572D03*
X149225000Y-49533572D03*
X148725000Y-49533572D03*
X148225000Y-49533572D03*
X147725000Y-49533572D03*
X147225000Y-49533572D03*
X146725000Y-49533572D03*
D29*
X149225000Y-46196072D03*
D21*
X66599842Y-77850000D03*
X66599842Y-74550000D03*
X265906250Y-77850000D03*
X265906250Y-74550000D03*
D30*
X80700000Y-40406250D03*
X80700000Y-34206250D03*
X84400000Y-34206250D03*
X84400000Y-40406250D03*
D31*
X145608821Y-33461826D03*
X147076067Y-31994580D03*
D21*
X57069135Y-39750000D03*
X57069135Y-36450000D03*
D32*
X140737500Y-45098902D03*
X138662500Y-45098902D03*
D21*
X38019831Y-58800000D03*
X38019831Y-55500000D03*
D33*
X53181250Y-29956250D03*
X53181250Y-31956250D03*
D21*
X223043750Y-96900000D03*
X223043750Y-93600000D03*
X228526512Y-39750000D03*
X228526512Y-36450000D03*
D24*
X157192500Y-42006956D03*
X157192500Y-39931956D03*
D21*
X95167743Y-39750000D03*
X95167743Y-36450000D03*
X171376512Y-39750000D03*
X171376512Y-36450000D03*
D24*
X63500000Y-43905864D03*
X63500000Y-41830864D03*
D21*
X133266352Y-58800000D03*
X133266352Y-55500000D03*
X114223659Y-96900000D03*
X114223659Y-93600000D03*
D33*
X31750000Y-29956250D03*
X31750000Y-31956250D03*
D21*
X247576512Y-39750000D03*
X247576512Y-36450000D03*
X209476512Y-58800000D03*
X209476512Y-55500000D03*
D24*
X148005590Y-63743750D03*
X148005590Y-61668750D03*
D33*
X150386840Y-61706250D03*
X150386840Y-63706250D03*
D21*
X161853782Y-77850000D03*
X161853782Y-74550000D03*
X199955358Y-77850000D03*
X199955358Y-74550000D03*
D33*
X34131250Y-29956250D03*
X34131250Y-31956250D03*
D34*
X41560000Y-31738600D03*
X47340000Y-31738600D03*
D35*
X41225000Y-33683600D03*
X42000000Y-33683600D03*
D36*
X42700000Y-33683600D03*
X43200000Y-33683600D03*
X43700000Y-33683600D03*
X44200000Y-33683600D03*
X44700000Y-33683600D03*
X45200000Y-33683600D03*
X45700000Y-33683600D03*
X46200000Y-33683600D03*
D35*
X46900000Y-33683600D03*
X47675000Y-33683600D03*
D21*
X142802994Y-77850000D03*
X142802994Y-74550000D03*
X76118439Y-39750000D03*
X76118439Y-36450000D03*
X228526512Y-58800000D03*
X228526512Y-55500000D03*
D37*
X140017500Y-35083750D03*
D38*
X142557500Y-35083750D03*
X140017500Y-32543750D03*
X142557500Y-32543750D03*
X140017500Y-30003750D03*
X142557500Y-30003750D03*
D21*
X123752206Y-77850000D03*
X123752206Y-74550000D03*
X219006146Y-77850000D03*
X219006146Y-74550000D03*
D39*
X43100000Y-41301474D03*
X43100000Y-40351474D03*
X43100000Y-39401474D03*
X45800000Y-39401474D03*
X45800000Y-40351474D03*
X45800000Y-41301474D03*
D40*
X143525000Y-50196072D03*
X143525000Y-49396072D03*
X143525000Y-48596072D03*
X143525000Y-47796072D03*
X143525000Y-46996072D03*
X143525000Y-46196072D03*
X143525000Y-45396072D03*
X143525000Y-44596072D03*
X143525000Y-43796072D03*
X143525000Y-42996072D03*
X143525000Y-42196072D03*
D41*
X145225000Y-40496072D03*
X146025000Y-40496072D03*
X146825000Y-40496072D03*
X147625000Y-40496072D03*
X148425000Y-40496072D03*
X149225000Y-40496072D03*
X150025000Y-40496072D03*
X150825000Y-40496072D03*
X151625000Y-40496072D03*
X152425000Y-40496072D03*
X153225000Y-40496072D03*
D40*
X154925000Y-42196072D03*
X154925000Y-42996072D03*
X154925000Y-43796072D03*
X154925000Y-44596072D03*
X154925000Y-45396072D03*
X154925000Y-46196072D03*
X154925000Y-46996072D03*
X154925000Y-47796072D03*
X154925000Y-48596072D03*
X154925000Y-49396072D03*
X154925000Y-50196072D03*
D41*
X153225000Y-51896072D03*
X152425000Y-51896072D03*
X151625000Y-51896072D03*
X150825000Y-51896072D03*
X150025000Y-51896072D03*
X149225000Y-51896072D03*
X148425000Y-51896072D03*
X147625000Y-51896072D03*
X146825000Y-51896072D03*
X146025000Y-51896072D03*
X145225000Y-51896072D03*
D33*
X153193750Y-61706250D03*
X153193750Y-63706250D03*
D42*
X152510318Y-33339827D03*
X151043072Y-31872581D03*
D21*
X238056940Y-77850000D03*
X238056940Y-74550000D03*
X209476512Y-39750000D03*
X209476512Y-36450000D03*
X133266352Y-39750000D03*
X133266352Y-36450000D03*
D43*
X50853790Y-43901819D03*
X54253790Y-43901819D03*
D21*
X114217047Y-39750000D03*
X114217047Y-36450000D03*
X51593750Y-77850000D03*
X51593750Y-74550000D03*
X95185728Y-96900000D03*
X95185728Y-93600000D03*
X180904570Y-77850000D03*
X180904570Y-74550000D03*
X171376512Y-58800000D03*
X171376512Y-55500000D03*
X114217047Y-58800000D03*
X114217047Y-55500000D03*
X190426512Y-39750000D03*
X190426512Y-36450000D03*
D22*
X138700000Y-49212500D03*
X140700000Y-49212500D03*
D44*
X84550000Y-42658741D03*
X82550000Y-42658741D03*
D21*
X95167743Y-58800000D03*
X95167743Y-55500000D03*
X57069135Y-58800000D03*
X57069135Y-55500000D03*
D26*
X145462500Y-63706250D03*
X145462500Y-61706250D03*
D21*
X38019831Y-39750000D03*
X38019831Y-36450000D03*
D32*
X143912500Y-38100000D03*
X141837500Y-38100000D03*
X156612500Y-53934251D03*
X154537500Y-53934251D03*
D21*
X68973547Y-96900000D03*
X68973547Y-93600000D03*
X240412720Y-96900000D03*
X240412720Y-93600000D03*
M02*
