G04 #@! TF.GenerationSoftware,KiCad,Pcbnew,(6.0.5)*
G04 #@! TF.CreationDate,2022-09-13T03:02:11-04:00*
G04 #@! TF.ProjectId,phoenix45_alpha-rounded,70686f65-6e69-4783-9435-5f616c706861,rev?*
G04 #@! TF.SameCoordinates,Original*
G04 #@! TF.FileFunction,Soldermask,Top*
G04 #@! TF.FilePolarity,Negative*
%FSLAX46Y46*%
G04 Gerber Fmt 4.6, Leading zero omitted, Abs format (unit mm)*
G04 Created by KiCad (PCBNEW (6.0.5)) date 2022-09-13 03:02:11*
%MOMM*%
%LPD*%
G01*
G04 APERTURE LIST*
G04 Aperture macros list*
%AMRoundRect*
0 Rectangle with rounded corners*
0 $1 Rounding radius*
0 $2 $3 $4 $5 $6 $7 $8 $9 X,Y pos of 4 corners*
0 Add a 4 corners polygon primitive as box body*
4,1,4,$2,$3,$4,$5,$6,$7,$8,$9,$2,$3,0*
0 Add four circle primitives for the rounded corners*
1,1,$1+$1,$2,$3*
1,1,$1+$1,$4,$5*
1,1,$1+$1,$6,$7*
1,1,$1+$1,$8,$9*
0 Add four rect primitives between the rounded corners*
20,1,$1+$1,$2,$3,$4,$5,0*
20,1,$1+$1,$4,$5,$6,$7,0*
20,1,$1+$1,$6,$7,$8,$9,0*
20,1,$1+$1,$8,$9,$2,$3,0*%
G04 Aperture macros list end*
%ADD10C,1.750000*%
%ADD11C,3.987800*%
%ADD12C,2.000000*%
%ADD13R,2.000000X2.000000*%
%ADD14O,1.500000X2.800000*%
%ADD15R,1.100000X1.800000*%
%ADD16R,1.000000X1.000000*%
%ADD17O,1.000000X2.100000*%
%ADD18O,0.800000X1.600000*%
%ADD19C,0.650000*%
%ADD20C,1.700000*%
%ADD21RoundRect,0.250000X-0.600000X-0.600000X0.600000X-0.600000X0.600000X0.600000X-0.600000X0.600000X0*%
G04 APERTURE END LIST*
D10*
X106680000Y-75406250D03*
X96520000Y-75406250D03*
D11*
X101600000Y-75406250D03*
D10*
X56038750Y-94456250D03*
D11*
X61118750Y-94456250D03*
D10*
X66198750Y-94456250D03*
X125730000Y-75406250D03*
X115570000Y-75406250D03*
D11*
X120650000Y-75406250D03*
X232568750Y-94456250D03*
D10*
X237648750Y-94456250D03*
X227488750Y-94456250D03*
X229870000Y-75406250D03*
D11*
X234950000Y-75406250D03*
D10*
X240030000Y-75406250D03*
X192405000Y-56356250D03*
D11*
X187325000Y-56356250D03*
D10*
X182245000Y-56356250D03*
D12*
X156250000Y-68382951D03*
X161250000Y-68382951D03*
X158750000Y-82882951D03*
X161250000Y-82882951D03*
D13*
X156250000Y-82882951D03*
D14*
X164350000Y-75382951D03*
X153150000Y-75345651D03*
D11*
X225425000Y-37306250D03*
D10*
X220345000Y-37306250D03*
X230505000Y-37306250D03*
X248920000Y-75406250D03*
X259080000Y-75406250D03*
D11*
X254000000Y-75406250D03*
X103981250Y-94456250D03*
D10*
X109061250Y-94456250D03*
X98901250Y-94456250D03*
D11*
X34925000Y-37306250D03*
D10*
X29845000Y-37306250D03*
X40005000Y-37306250D03*
D15*
X84400000Y-40406250D03*
X84400000Y-34206250D03*
X80700000Y-40406250D03*
X80700000Y-34206250D03*
D10*
X210820000Y-94456250D03*
X220980000Y-94456250D03*
D11*
X215900000Y-94456250D03*
X92075000Y-94456250D03*
D10*
X86995000Y-94456250D03*
X97155000Y-94456250D03*
X239395000Y-37306250D03*
D11*
X244475000Y-37306250D03*
D10*
X249555000Y-37306250D03*
D16*
X149225000Y-59531250D03*
D10*
X90011250Y-94456250D03*
D11*
X84931250Y-94456250D03*
D10*
X79851250Y-94456250D03*
D11*
X206375000Y-37306250D03*
D10*
X211455000Y-37306250D03*
X201295000Y-37306250D03*
X210820000Y-75406250D03*
X220980000Y-75406250D03*
D11*
X215900000Y-75406250D03*
D10*
X220345000Y-56356250D03*
D11*
X225425000Y-56356250D03*
D10*
X230505000Y-56356250D03*
D11*
X187325000Y-37306250D03*
D10*
X182245000Y-37306250D03*
X192405000Y-37306250D03*
D11*
X53975000Y-56356250D03*
D10*
X59055000Y-56356250D03*
X48895000Y-56356250D03*
X47148750Y-75406250D03*
D11*
X42068750Y-75406250D03*
D10*
X36988750Y-75406250D03*
D11*
X206375000Y-94456250D03*
D10*
X201295000Y-94456250D03*
X211455000Y-94456250D03*
D11*
X65881250Y-94456250D03*
D10*
X70961250Y-94456250D03*
X60801250Y-94456250D03*
D11*
X111125000Y-94456250D03*
D10*
X116205000Y-94456250D03*
X106045000Y-94456250D03*
D16*
X146843750Y-59531250D03*
D10*
X97155000Y-56356250D03*
X86995000Y-56356250D03*
D11*
X92075000Y-56356250D03*
X158750000Y-75406250D03*
D10*
X153670000Y-75406250D03*
X163830000Y-75406250D03*
X77470000Y-94456250D03*
X87630000Y-94456250D03*
D11*
X82550000Y-94456250D03*
D10*
X67945000Y-56356250D03*
D11*
X73025000Y-56356250D03*
D10*
X78105000Y-56356250D03*
D16*
X144462500Y-59531250D03*
D11*
X244475000Y-56356250D03*
D10*
X249555000Y-56356250D03*
X239395000Y-56356250D03*
D11*
X192087500Y-94456250D03*
D10*
X197167500Y-94456250D03*
X187007500Y-94456250D03*
D11*
X168275000Y-56356250D03*
D10*
X163195000Y-56356250D03*
X173355000Y-56356250D03*
X68580000Y-75406250D03*
D11*
X63500000Y-75406250D03*
D10*
X58420000Y-75406250D03*
D16*
X151606250Y-59531250D03*
D10*
X127476250Y-94456250D03*
D11*
X132556250Y-94456250D03*
D10*
X137636250Y-94456250D03*
X182880000Y-75406250D03*
D11*
X177800000Y-75406250D03*
D10*
X172720000Y-75406250D03*
X135255000Y-37306250D03*
X125095000Y-37306250D03*
D11*
X130175000Y-37306250D03*
D10*
X40005000Y-56356250D03*
D11*
X34925000Y-56356250D03*
D10*
X29845000Y-56356250D03*
X140017500Y-94456250D03*
X129857500Y-94456250D03*
D11*
X134937500Y-94456250D03*
D10*
X182245000Y-94456250D03*
X192405000Y-94456250D03*
D11*
X187325000Y-94456250D03*
D16*
X153987500Y-59531250D03*
D11*
X39687500Y-75406250D03*
D10*
X34607500Y-75406250D03*
X44767500Y-75406250D03*
D11*
X73025000Y-37306250D03*
D10*
X78105000Y-37306250D03*
X67945000Y-37306250D03*
X101282500Y-94456250D03*
X111442500Y-94456250D03*
D11*
X106362500Y-94456250D03*
D10*
X125095000Y-56356250D03*
D11*
X130175000Y-56356250D03*
D10*
X135255000Y-56356250D03*
X258445000Y-37306250D03*
X268605000Y-37306250D03*
D11*
X263525000Y-37306250D03*
X111125000Y-37306250D03*
D10*
X116205000Y-37306250D03*
X106045000Y-37306250D03*
X268605000Y-56356250D03*
X258445000Y-56356250D03*
D11*
X263525000Y-56356250D03*
D10*
X263842500Y-75406250D03*
D11*
X258762500Y-75406250D03*
D10*
X253682500Y-75406250D03*
D11*
X196850000Y-75406250D03*
D10*
X191770000Y-75406250D03*
X201930000Y-75406250D03*
X261461250Y-75406250D03*
D11*
X256381250Y-75406250D03*
D10*
X251301250Y-75406250D03*
X170973750Y-94456250D03*
D11*
X165893750Y-94456250D03*
D10*
X160813750Y-94456250D03*
X232251250Y-94456250D03*
X242411250Y-94456250D03*
D11*
X237331250Y-94456250D03*
X111125000Y-56356250D03*
D10*
X106045000Y-56356250D03*
X116205000Y-56356250D03*
X168592500Y-94456250D03*
D11*
X163512500Y-94456250D03*
D10*
X158432500Y-94456250D03*
X189388750Y-94456250D03*
D11*
X194468750Y-94456250D03*
D10*
X199548750Y-94456250D03*
D11*
X168275000Y-37306250D03*
D10*
X173355000Y-37306250D03*
X163195000Y-37306250D03*
D11*
X44450000Y-75406250D03*
D10*
X49530000Y-75406250D03*
X39370000Y-75406250D03*
X144780000Y-75406250D03*
D11*
X139700000Y-75406250D03*
D10*
X134620000Y-75406250D03*
X218598750Y-94456250D03*
D11*
X213518750Y-94456250D03*
D10*
X208438750Y-94456250D03*
D11*
X82550000Y-75406250D03*
D10*
X77470000Y-75406250D03*
X87630000Y-75406250D03*
X201295000Y-56356250D03*
X211455000Y-56356250D03*
D11*
X206375000Y-56356250D03*
D10*
X59055000Y-37306250D03*
D11*
X53975000Y-37306250D03*
D10*
X48895000Y-37306250D03*
X97155000Y-37306250D03*
D11*
X92075000Y-37306250D03*
D10*
X86995000Y-37306250D03*
D17*
X40130000Y-32268600D03*
D18*
X48770000Y-28088600D03*
X40130000Y-28088600D03*
D17*
X48770000Y-32268600D03*
D19*
X47340000Y-31738600D03*
X41560000Y-31738600D03*
D20*
X142557500Y-30003750D03*
X140017500Y-30003750D03*
X142557500Y-32543750D03*
X140017500Y-32543750D03*
X142557500Y-35083750D03*
D21*
X140017500Y-35083750D03*
M02*
