G04 #@! TF.GenerationSoftware,KiCad,Pcbnew,(6.0.5)*
G04 #@! TF.CreationDate,2022-09-13T03:02:11-04:00*
G04 #@! TF.ProjectId,phoenix45_alpha-rounded,70686f65-6e69-4783-9435-5f616c706861,rev?*
G04 #@! TF.SameCoordinates,Original*
G04 #@! TF.FileFunction,Legend,Bot*
G04 #@! TF.FilePolarity,Positive*
%FSLAX46Y46*%
G04 Gerber Fmt 4.6, Leading zero omitted, Abs format (unit mm)*
G04 Created by KiCad (PCBNEW (6.0.5)) date 2022-09-13 03:02:11*
%MOMM*%
%LPD*%
G01*
G04 APERTURE LIST*
G04 Aperture macros list*
%AMRoundRect*
0 Rectangle with rounded corners*
0 $1 Rounding radius*
0 $2 $3 $4 $5 $6 $7 $8 $9 X,Y pos of 4 corners*
0 Add a 4 corners polygon primitive as box body*
4,1,4,$2,$3,$4,$5,$6,$7,$8,$9,$2,$3,0*
0 Add four circle primitives for the rounded corners*
1,1,$1+$1,$2,$3*
1,1,$1+$1,$4,$5*
1,1,$1+$1,$6,$7*
1,1,$1+$1,$8,$9*
0 Add four rect primitives between the rounded corners*
20,1,$1+$1,$2,$3,$4,$5,0*
20,1,$1+$1,$4,$5,$6,$7,0*
20,1,$1+$1,$6,$7,$8,$9,0*
20,1,$1+$1,$8,$9,$2,$3,0*%
%AMRotRect*
0 Rectangle, with rotation*
0 The origin of the aperture is its center*
0 $1 length*
0 $2 width*
0 $3 Rotation angle, in degrees counterclockwise*
0 Add horizontal line*
21,1,$1,$2,0,0,$3*%
G04 Aperture macros list end*
%ADD10C,0.150000*%
%ADD11C,0.125000*%
%ADD12C,0.120000*%
%ADD13C,2.250000*%
%ADD14C,1.750000*%
%ADD15C,3.987800*%
%ADD16C,2.000000*%
%ADD17R,2.000000X2.000000*%
%ADD18O,1.500000X2.800000*%
%ADD19R,1.000000X1.000000*%
%ADD20C,1.397000*%
%ADD21R,1.200000X0.900000*%
%ADD22RoundRect,0.250000X-0.350000X-0.450000X0.350000X-0.450000X0.350000X0.450000X-0.350000X0.450000X0*%
%ADD23RotRect,2.100000X1.800000X225.000000*%
%ADD24RoundRect,0.250000X0.475000X-0.337500X0.475000X0.337500X-0.475000X0.337500X-0.475000X-0.337500X0*%
%ADD25RoundRect,0.250000X-0.337500X-0.475000X0.337500X-0.475000X0.337500X0.475000X-0.337500X0.475000X0*%
%ADD26RoundRect,0.250000X0.350000X0.450000X-0.350000X0.450000X-0.350000X-0.450000X0.350000X-0.450000X0*%
%ADD27R,5.200000X5.200000*%
%ADD28RoundRect,0.062500X-0.062500X-0.475000X0.062500X-0.475000X0.062500X0.475000X-0.062500X0.475000X0*%
%ADD29RoundRect,0.062500X-0.475000X-0.062500X0.475000X-0.062500X0.475000X0.062500X-0.475000X0.062500X0*%
%ADD30R,1.100000X1.800000*%
%ADD31RoundRect,0.250000X0.097227X-0.574524X0.574524X-0.097227X-0.097227X0.574524X-0.574524X0.097227X0*%
%ADD32RoundRect,0.250000X0.337500X0.475000X-0.337500X0.475000X-0.337500X-0.475000X0.337500X-0.475000X0*%
%ADD33RoundRect,0.250000X-0.450000X0.350000X-0.450000X-0.350000X0.450000X-0.350000X0.450000X0.350000X0*%
%ADD34RoundRect,0.250000X-0.475000X0.337500X-0.475000X-0.337500X0.475000X-0.337500X0.475000X0.337500X0*%
%ADD35R,0.600000X2.450000*%
%ADD36R,0.300000X2.450000*%
%ADD37C,0.650000*%
%ADD38C,1.700000*%
%ADD39RoundRect,0.250000X-0.600000X-0.600000X0.600000X-0.600000X0.600000X0.600000X-0.600000X0.600000X0*%
%ADD40R,1.560000X0.650000*%
%ADD41RoundRect,0.250000X0.574524X0.097227X0.097227X0.574524X-0.574524X-0.097227X-0.097227X-0.574524X0*%
%ADD42RoundRect,0.210527X-0.389473X-0.664473X0.389473X-0.664473X0.389473X0.664473X-0.389473X0.664473X0*%
%ADD43RoundRect,0.250000X0.450000X-0.350000X0.450000X0.350000X-0.450000X0.350000X-0.450000X-0.350000X0*%
G04 APERTURE END LIST*
D10*
X132270535Y-98083630D02*
X132841964Y-98083630D01*
X132556250Y-98083630D02*
X132556250Y-97083630D01*
X132651488Y-97226488D01*
X132746726Y-97321726D01*
X132841964Y-97369345D01*
X60833035Y-98083630D02*
X61404464Y-98083630D01*
X61118750Y-98083630D02*
X61118750Y-97083630D01*
X61213988Y-97226488D01*
X61309226Y-97321726D01*
X61404464Y-97369345D01*
X132841964Y-98766369D02*
X132794345Y-98718750D01*
X132699107Y-98671130D01*
X132461011Y-98671130D01*
X132365773Y-98718750D01*
X132318154Y-98766369D01*
X132270535Y-98861607D01*
X132270535Y-98956845D01*
X132318154Y-99099702D01*
X132889583Y-99671130D01*
X132270535Y-99671130D01*
X111458333Y-96952380D02*
X110839285Y-96952380D01*
X111172619Y-97333333D01*
X111029761Y-97333333D01*
X110934523Y-97380952D01*
X110886904Y-97428571D01*
X110839285Y-97523809D01*
X110839285Y-97761904D01*
X110886904Y-97857142D01*
X110934523Y-97904761D01*
X111029761Y-97952380D01*
X111315476Y-97952380D01*
X111410714Y-97904761D01*
X111458333Y-97857142D01*
X42521130Y-78811607D02*
X42521130Y-78240178D01*
X42521130Y-78525892D02*
X41521130Y-78525892D01*
X41663988Y-78430654D01*
X41759226Y-78335416D01*
X41806845Y-78240178D01*
X42425892Y-79240178D02*
X42473511Y-79287797D01*
X42521130Y-79240178D01*
X42473511Y-79192559D01*
X42425892Y-79240178D01*
X42521130Y-79240178D01*
X41616369Y-79668750D02*
X41568750Y-79716369D01*
X41521130Y-79811607D01*
X41521130Y-80049702D01*
X41568750Y-80144940D01*
X41616369Y-80192559D01*
X41711607Y-80240178D01*
X41806845Y-80240178D01*
X41949702Y-80192559D01*
X42521130Y-79621130D01*
X42521130Y-80240178D01*
X41521130Y-81144940D02*
X41521130Y-80668750D01*
X41997321Y-80621130D01*
X41949702Y-80668750D01*
X41902083Y-80763988D01*
X41902083Y-81002083D01*
X41949702Y-81097321D01*
X41997321Y-81144940D01*
X42092559Y-81192559D01*
X42330654Y-81192559D01*
X42425892Y-81144940D01*
X42473511Y-81097321D01*
X42521130Y-81002083D01*
X42521130Y-80763988D01*
X42473511Y-80668750D01*
X42425892Y-80621130D01*
X41854464Y-82049702D02*
X42521130Y-82049702D01*
X41854464Y-81621130D02*
X42378273Y-81621130D01*
X42473511Y-81668750D01*
X42521130Y-81763988D01*
X42521130Y-81906845D01*
X42473511Y-82002083D01*
X42425892Y-82049702D01*
X104266964Y-97178869D02*
X104219345Y-97131250D01*
X104124107Y-97083630D01*
X103886011Y-97083630D01*
X103790773Y-97131250D01*
X103743154Y-97178869D01*
X103695535Y-97274107D01*
X103695535Y-97369345D01*
X103743154Y-97512202D01*
X104314583Y-98083630D01*
X103695535Y-98083630D01*
X61404464Y-98766369D02*
X61356845Y-98718750D01*
X61261607Y-98671130D01*
X61023511Y-98671130D01*
X60928273Y-98718750D01*
X60880654Y-98766369D01*
X60833035Y-98861607D01*
X60833035Y-98956845D01*
X60880654Y-99099702D01*
X61452083Y-99671130D01*
X60833035Y-99671130D01*
X106076785Y-98083630D02*
X106648214Y-98083630D01*
X106362500Y-98083630D02*
X106362500Y-97083630D01*
X106457738Y-97226488D01*
X106552976Y-97321726D01*
X106648214Y-97369345D01*
X216185714Y-97178869D02*
X216138095Y-97131250D01*
X216042857Y-97083630D01*
X215804761Y-97083630D01*
X215709523Y-97131250D01*
X215661904Y-97178869D01*
X215614285Y-97274107D01*
X215614285Y-97369345D01*
X215661904Y-97512202D01*
X216233333Y-98083630D01*
X215614285Y-98083630D01*
X84645535Y-98083630D02*
X85216964Y-98083630D01*
X84931250Y-98083630D02*
X84931250Y-97083630D01*
X85026488Y-97226488D01*
X85121726Y-97321726D01*
X85216964Y-97369345D01*
X187658333Y-97083630D02*
X187039285Y-97083630D01*
X187372619Y-97464583D01*
X187229761Y-97464583D01*
X187134523Y-97512202D01*
X187086904Y-97559821D01*
X187039285Y-97655059D01*
X187039285Y-97893154D01*
X187086904Y-97988392D01*
X187134523Y-98036011D01*
X187229761Y-98083630D01*
X187515476Y-98083630D01*
X187610714Y-98036011D01*
X187658333Y-97988392D01*
X259214880Y-78811606D02*
X259214880Y-78240178D01*
X259214880Y-78525892D02*
X258214880Y-78525892D01*
X258357738Y-78430654D01*
X258452976Y-78335416D01*
X258500595Y-78240178D01*
X259119642Y-79240178D02*
X259167261Y-79287797D01*
X259214880Y-79240178D01*
X259167261Y-79192559D01*
X259119642Y-79240178D01*
X259214880Y-79240178D01*
X258214880Y-80192559D02*
X258214880Y-79716368D01*
X258691071Y-79668749D01*
X258643452Y-79716368D01*
X258595833Y-79811606D01*
X258595833Y-80049701D01*
X258643452Y-80144939D01*
X258691071Y-80192559D01*
X258786309Y-80240178D01*
X259024404Y-80240178D01*
X259119642Y-80192559D01*
X259167261Y-80144939D01*
X259214880Y-80049701D01*
X259214880Y-79811606D01*
X259167261Y-79716368D01*
X259119642Y-79668749D01*
X258548214Y-81097320D02*
X259214880Y-81097320D01*
X258548214Y-80668749D02*
X259072023Y-80668749D01*
X259167261Y-80716368D01*
X259214880Y-80811606D01*
X259214880Y-80954463D01*
X259167261Y-81049701D01*
X259119642Y-81097320D01*
X40139880Y-78811606D02*
X40139880Y-78240178D01*
X40139880Y-78525892D02*
X39139880Y-78525892D01*
X39282738Y-78430654D01*
X39377976Y-78335416D01*
X39425595Y-78240178D01*
X40044642Y-79240178D02*
X40092261Y-79287797D01*
X40139880Y-79240178D01*
X40092261Y-79192559D01*
X40044642Y-79240178D01*
X40139880Y-79240178D01*
X39139880Y-80192559D02*
X39139880Y-79716368D01*
X39616071Y-79668749D01*
X39568452Y-79716368D01*
X39520833Y-79811606D01*
X39520833Y-80049701D01*
X39568452Y-80144939D01*
X39616071Y-80192559D01*
X39711309Y-80240178D01*
X39949404Y-80240178D01*
X40044642Y-80192559D01*
X40092261Y-80144939D01*
X40139880Y-80049701D01*
X40139880Y-79811606D01*
X40092261Y-79716368D01*
X40044642Y-79668749D01*
X39473214Y-81097320D02*
X40139880Y-81097320D01*
X39473214Y-80668749D02*
X39997023Y-80668749D01*
X40092261Y-80716368D01*
X40139880Y-80811606D01*
X40139880Y-80954463D01*
X40092261Y-81049701D01*
X40044642Y-81097320D01*
X256833630Y-78811607D02*
X256833630Y-78240178D01*
X256833630Y-78525892D02*
X255833630Y-78525892D01*
X255976488Y-78430654D01*
X256071726Y-78335416D01*
X256119345Y-78240178D01*
X256738392Y-79240178D02*
X256786011Y-79287797D01*
X256833630Y-79240178D01*
X256786011Y-79192559D01*
X256738392Y-79240178D01*
X256833630Y-79240178D01*
X255928869Y-79668750D02*
X255881250Y-79716369D01*
X255833630Y-79811607D01*
X255833630Y-80049702D01*
X255881250Y-80144940D01*
X255928869Y-80192559D01*
X256024107Y-80240178D01*
X256119345Y-80240178D01*
X256262202Y-80192559D01*
X256833630Y-79621130D01*
X256833630Y-80240178D01*
X255833630Y-81144940D02*
X255833630Y-80668750D01*
X256309821Y-80621130D01*
X256262202Y-80668750D01*
X256214583Y-80763988D01*
X256214583Y-81002083D01*
X256262202Y-81097321D01*
X256309821Y-81144940D01*
X256405059Y-81192559D01*
X256643154Y-81192559D01*
X256738392Y-81144940D01*
X256786011Y-81097321D01*
X256833630Y-81002083D01*
X256833630Y-80763988D01*
X256786011Y-80668750D01*
X256738392Y-80621130D01*
X256166964Y-82049702D02*
X256833630Y-82049702D01*
X256166964Y-81621130D02*
X256690773Y-81621130D01*
X256786011Y-81668750D01*
X256833630Y-81763988D01*
X256833630Y-81906845D01*
X256786011Y-82002083D01*
X256738392Y-82049702D01*
X237045535Y-98083630D02*
X237616964Y-98083630D01*
X237331250Y-98083630D02*
X237331250Y-97083630D01*
X237426488Y-97226488D01*
X237521726Y-97321726D01*
X237616964Y-97369345D01*
X135270833Y-97083630D02*
X134651785Y-97083630D01*
X134985119Y-97464583D01*
X134842261Y-97464583D01*
X134747023Y-97512202D01*
X134699404Y-97559821D01*
X134651785Y-97655059D01*
X134651785Y-97893154D01*
X134699404Y-97988392D01*
X134747023Y-98036011D01*
X134842261Y-98083630D01*
X135127976Y-98083630D01*
X135223214Y-98036011D01*
X135270833Y-97988392D01*
X206708333Y-97083630D02*
X206089285Y-97083630D01*
X206422619Y-97464583D01*
X206279761Y-97464583D01*
X206184523Y-97512202D01*
X206136904Y-97559821D01*
X206089285Y-97655059D01*
X206089285Y-97893154D01*
X206136904Y-97988392D01*
X206184523Y-98036011D01*
X206279761Y-98083630D01*
X206565476Y-98083630D01*
X206660714Y-98036011D01*
X206708333Y-97988392D01*
X232902083Y-97083630D02*
X232283035Y-97083630D01*
X232616369Y-97464583D01*
X232473511Y-97464583D01*
X232378273Y-97512202D01*
X232330654Y-97559821D01*
X232283035Y-97655059D01*
X232283035Y-97893154D01*
X232330654Y-97988392D01*
X232378273Y-98036011D01*
X232473511Y-98083630D01*
X232759226Y-98083630D01*
X232854464Y-98036011D01*
X232902083Y-97988392D01*
X165608035Y-98083630D02*
X166179464Y-98083630D01*
X165893750Y-98083630D02*
X165893750Y-97083630D01*
X165988988Y-97226488D01*
X166084226Y-97321726D01*
X166179464Y-97369345D01*
X191801785Y-98083630D02*
X192373214Y-98083630D01*
X192087500Y-98083630D02*
X192087500Y-97083630D01*
X192182738Y-97226488D01*
X192277976Y-97321726D01*
X192373214Y-97369345D01*
X213233035Y-98083630D02*
X213804464Y-98083630D01*
X213518750Y-98083630D02*
X213518750Y-97083630D01*
X213613988Y-97226488D01*
X213709226Y-97321726D01*
X213804464Y-97369345D01*
X163845833Y-97083630D02*
X163226785Y-97083630D01*
X163560119Y-97464583D01*
X163417261Y-97464583D01*
X163322023Y-97512202D01*
X163274404Y-97559821D01*
X163226785Y-97655059D01*
X163226785Y-97893154D01*
X163274404Y-97988392D01*
X163322023Y-98036011D01*
X163417261Y-98083630D01*
X163702976Y-98083630D01*
X163798214Y-98036011D01*
X163845833Y-97988392D01*
X44902380Y-78811607D02*
X44902380Y-78240178D01*
X44902380Y-78525893D02*
X43902380Y-78525893D01*
X44045238Y-78430654D01*
X44140476Y-78335416D01*
X44188095Y-78240178D01*
X44235714Y-79668750D02*
X44902380Y-79668750D01*
X44235714Y-79240178D02*
X44759523Y-79240178D01*
X44854761Y-79287797D01*
X44902380Y-79383035D01*
X44902380Y-79525893D01*
X44854761Y-79621131D01*
X44807142Y-79668750D01*
X254452380Y-78811607D02*
X254452380Y-78240178D01*
X254452380Y-78525893D02*
X253452380Y-78525893D01*
X253595238Y-78430654D01*
X253690476Y-78335416D01*
X253738095Y-78240178D01*
X253785714Y-79668750D02*
X254452380Y-79668750D01*
X253785714Y-79240178D02*
X254309523Y-79240178D01*
X254404761Y-79287797D01*
X254452380Y-79383035D01*
X254452380Y-79525893D01*
X254404761Y-79621131D01*
X254357142Y-79668750D01*
X166179464Y-98766369D02*
X166131845Y-98718750D01*
X166036607Y-98671130D01*
X165798511Y-98671130D01*
X165703273Y-98718750D01*
X165655654Y-98766369D01*
X165608035Y-98861607D01*
X165608035Y-98956845D01*
X165655654Y-99099702D01*
X166227083Y-99671130D01*
X165608035Y-99671130D01*
X92408333Y-97083630D02*
X91789285Y-97083630D01*
X92122619Y-97464583D01*
X91979761Y-97464583D01*
X91884523Y-97512202D01*
X91836904Y-97559821D01*
X91789285Y-97655059D01*
X91789285Y-97893154D01*
X91836904Y-97988392D01*
X91884523Y-98036011D01*
X91979761Y-98083630D01*
X92265476Y-98083630D01*
X92360714Y-98036011D01*
X92408333Y-97988392D01*
X237616964Y-98766369D02*
X237569345Y-98718750D01*
X237474107Y-98671130D01*
X237236011Y-98671130D01*
X237140773Y-98718750D01*
X237093154Y-98766369D01*
X237045535Y-98861607D01*
X237045535Y-98956845D01*
X237093154Y-99099702D01*
X237664583Y-99671130D01*
X237045535Y-99671130D01*
X194754464Y-97178869D02*
X194706845Y-97131250D01*
X194611607Y-97083630D01*
X194373511Y-97083630D01*
X194278273Y-97131250D01*
X194230654Y-97178869D01*
X194183035Y-97274107D01*
X194183035Y-97369345D01*
X194230654Y-97512202D01*
X194802083Y-98083630D01*
X194183035Y-98083630D01*
X66214583Y-97083630D02*
X65595535Y-97083630D01*
X65928869Y-97464583D01*
X65786011Y-97464583D01*
X65690773Y-97512202D01*
X65643154Y-97559821D01*
X65595535Y-97655059D01*
X65595535Y-97893154D01*
X65643154Y-97988392D01*
X65690773Y-98036011D01*
X65786011Y-98083630D01*
X66071726Y-98083630D01*
X66166964Y-98036011D01*
X66214583Y-97988392D01*
X82835714Y-97178869D02*
X82788095Y-97131250D01*
X82692857Y-97083630D01*
X82454761Y-97083630D01*
X82359523Y-97131250D01*
X82311904Y-97178869D01*
X82264285Y-97274107D01*
X82264285Y-97369345D01*
X82311904Y-97512202D01*
X82883333Y-98083630D01*
X82264285Y-98083630D01*
X148677380Y-54165773D02*
X148677380Y-54737202D01*
X149677380Y-54451488D02*
X148677380Y-54451488D01*
X149677380Y-55070535D02*
X148677380Y-55070535D01*
X148677380Y-55451488D01*
X148725000Y-55546726D01*
X148772619Y-55594345D01*
X148867857Y-55641964D01*
X149010714Y-55641964D01*
X149105952Y-55594345D01*
X149153571Y-55546726D01*
X149201190Y-55451488D01*
X149201190Y-55070535D01*
X149582142Y-56641964D02*
X149629761Y-56594345D01*
X149677380Y-56451488D01*
X149677380Y-56356250D01*
X149629761Y-56213392D01*
X149534523Y-56118154D01*
X149439285Y-56070535D01*
X149248809Y-56022916D01*
X149105952Y-56022916D01*
X148915476Y-56070535D01*
X148820238Y-56118154D01*
X148725000Y-56213392D01*
X148677380Y-56356250D01*
X148677380Y-56451488D01*
X148725000Y-56594345D01*
X148772619Y-56641964D01*
X149677380Y-57546726D02*
X149677380Y-57070535D01*
X148677380Y-57070535D01*
X149677380Y-57880059D02*
X148677380Y-57880059D01*
X149677380Y-58451488D02*
X149105952Y-58022916D01*
X148677380Y-58451488D02*
X149248809Y-57880059D01*
X146296130Y-54046726D02*
X146296130Y-54618154D01*
X147296130Y-54332440D02*
X146296130Y-54332440D01*
X147296130Y-54951488D02*
X146296130Y-54951488D01*
X146296130Y-55332440D01*
X146343750Y-55427678D01*
X146391369Y-55475297D01*
X146486607Y-55522916D01*
X146629464Y-55522916D01*
X146724702Y-55475297D01*
X146772321Y-55427678D01*
X146819940Y-55332440D01*
X146819940Y-54951488D01*
X146343750Y-56475297D02*
X146296130Y-56380059D01*
X146296130Y-56237202D01*
X146343750Y-56094345D01*
X146438988Y-55999107D01*
X146534226Y-55951488D01*
X146724702Y-55903869D01*
X146867559Y-55903869D01*
X147058035Y-55951488D01*
X147153273Y-55999107D01*
X147248511Y-56094345D01*
X147296130Y-56237202D01*
X147296130Y-56332440D01*
X147248511Y-56475297D01*
X147200892Y-56522916D01*
X146867559Y-56522916D01*
X146867559Y-56332440D01*
X147296130Y-56951488D02*
X146296130Y-56951488D01*
X147296130Y-57522916D01*
X146296130Y-57522916D01*
X147296130Y-57999107D02*
X146296130Y-57999107D01*
X146296130Y-58237202D01*
X146343750Y-58380059D01*
X146438988Y-58475297D01*
X146534226Y-58522916D01*
X146724702Y-58570535D01*
X146867559Y-58570535D01*
X147058035Y-58522916D01*
X147153273Y-58475297D01*
X147248511Y-58380059D01*
X147296130Y-58237202D01*
X147296130Y-57999107D01*
X143501785Y-58983630D02*
X142930357Y-58983630D01*
X143216071Y-59983630D02*
X143216071Y-58983630D01*
X142597023Y-59983630D02*
X142597023Y-58983630D01*
X142216071Y-58983630D01*
X142120833Y-59031250D01*
X142073214Y-59078869D01*
X142025595Y-59174107D01*
X142025595Y-59316964D01*
X142073214Y-59412202D01*
X142120833Y-59459821D01*
X142216071Y-59507440D01*
X142597023Y-59507440D01*
X141739880Y-58983630D02*
X141406547Y-59983630D01*
X141073214Y-58983630D01*
X140168452Y-59888392D02*
X140216071Y-59936011D01*
X140358928Y-59983630D01*
X140454166Y-59983630D01*
X140597023Y-59936011D01*
X140692261Y-59840773D01*
X140739880Y-59745535D01*
X140787500Y-59555059D01*
X140787500Y-59412202D01*
X140739880Y-59221726D01*
X140692261Y-59126488D01*
X140597023Y-59031250D01*
X140454166Y-58983630D01*
X140358928Y-58983630D01*
X140216071Y-59031250D01*
X140168452Y-59078869D01*
X139168452Y-59888392D02*
X139216071Y-59936011D01*
X139358928Y-59983630D01*
X139454166Y-59983630D01*
X139597023Y-59936011D01*
X139692261Y-59840773D01*
X139739880Y-59745535D01*
X139787500Y-59555059D01*
X139787500Y-59412202D01*
X139739880Y-59221726D01*
X139692261Y-59126488D01*
X139597023Y-59031250D01*
X139454166Y-58983630D01*
X139358928Y-58983630D01*
X139216071Y-59031250D01*
X139168452Y-59078869D01*
X151058630Y-54213392D02*
X151058630Y-54784821D01*
X152058630Y-54499107D02*
X151058630Y-54499107D01*
X152058630Y-55118154D02*
X151058630Y-55118154D01*
X151058630Y-55499107D01*
X151106250Y-55594345D01*
X151153869Y-55641964D01*
X151249107Y-55689583D01*
X151391964Y-55689583D01*
X151487202Y-55641964D01*
X151534821Y-55594345D01*
X151582440Y-55499107D01*
X151582440Y-55118154D01*
X152058630Y-56689583D02*
X151582440Y-56356250D01*
X152058630Y-56118154D02*
X151058630Y-56118154D01*
X151058630Y-56499107D01*
X151106250Y-56594345D01*
X151153869Y-56641964D01*
X151249107Y-56689583D01*
X151391964Y-56689583D01*
X151487202Y-56641964D01*
X151534821Y-56594345D01*
X151582440Y-56499107D01*
X151582440Y-56118154D01*
X152011011Y-57070535D02*
X152058630Y-57213392D01*
X152058630Y-57451488D01*
X152011011Y-57546726D01*
X151963392Y-57594345D01*
X151868154Y-57641964D01*
X151772916Y-57641964D01*
X151677678Y-57594345D01*
X151630059Y-57546726D01*
X151582440Y-57451488D01*
X151534821Y-57261011D01*
X151487202Y-57165773D01*
X151439583Y-57118154D01*
X151344345Y-57070535D01*
X151249107Y-57070535D01*
X151153869Y-57118154D01*
X151106250Y-57165773D01*
X151058630Y-57261011D01*
X151058630Y-57499107D01*
X151106250Y-57641964D01*
X151058630Y-57927678D02*
X151058630Y-58499107D01*
X152058630Y-58213392D02*
X151058630Y-58213392D01*
X160480059Y-58983630D02*
X159908630Y-58983630D01*
X160194345Y-59983630D02*
X160194345Y-58983630D01*
X159575297Y-59983630D02*
X159575297Y-58983630D01*
X159194345Y-58983630D01*
X159099107Y-59031250D01*
X159051488Y-59078869D01*
X159003869Y-59174107D01*
X159003869Y-59316964D01*
X159051488Y-59412202D01*
X159099107Y-59459821D01*
X159194345Y-59507440D01*
X159575297Y-59507440D01*
X158575297Y-59983630D02*
X158575297Y-58983630D01*
X158337202Y-58983630D01*
X158194345Y-59031250D01*
X158099107Y-59126488D01*
X158051488Y-59221726D01*
X158003869Y-59412202D01*
X158003869Y-59555059D01*
X158051488Y-59745535D01*
X158099107Y-59840773D01*
X158194345Y-59936011D01*
X158337202Y-59983630D01*
X158575297Y-59983630D01*
X157622916Y-59697916D02*
X157146726Y-59697916D01*
X157718154Y-59983630D02*
X157384821Y-58983630D01*
X157051488Y-59983630D01*
X156861011Y-58983630D02*
X156289583Y-58983630D01*
X156575297Y-59983630D02*
X156575297Y-58983630D01*
X156003869Y-59697916D02*
X155527678Y-59697916D01*
X156099107Y-59983630D02*
X155765773Y-58983630D01*
X155432440Y-59983630D01*
X140198154Y-45580633D02*
X140198154Y-46390157D01*
X140150535Y-46485395D01*
X140102916Y-46533014D01*
X140007678Y-46580633D01*
X139817202Y-46580633D01*
X139721964Y-46533014D01*
X139674345Y-46485395D01*
X139626726Y-46390157D01*
X139626726Y-45580633D01*
X138579107Y-46580633D02*
X138912440Y-46104443D01*
X139150535Y-46580633D02*
X139150535Y-45580633D01*
X138769583Y-45580633D01*
X138674345Y-45628253D01*
X138626726Y-45675872D01*
X138579107Y-45771110D01*
X138579107Y-45913967D01*
X138626726Y-46009205D01*
X138674345Y-46056824D01*
X138769583Y-46104443D01*
X139150535Y-46104443D01*
X138198154Y-45675872D02*
X138150535Y-45628253D01*
X138055297Y-45580633D01*
X137817202Y-45580633D01*
X137721964Y-45628253D01*
X137674345Y-45675872D01*
X137626726Y-45771110D01*
X137626726Y-45866348D01*
X137674345Y-46009205D01*
X138245773Y-46580633D01*
X137626726Y-46580633D01*
X151791444Y-38727855D02*
X152027146Y-39906366D01*
X151320040Y-39199259D02*
X152498551Y-39434961D01*
X151387383Y-40546129D02*
X151791444Y-40142068D01*
X151589414Y-40344099D02*
X150882307Y-39636992D01*
X151050666Y-39670664D01*
X151185353Y-39670664D01*
X151286368Y-39636992D01*
D11*
X153037164Y-36903483D02*
X153239195Y-36701452D01*
X153138179Y-36802467D02*
X152784626Y-36448914D01*
X152868805Y-36465750D01*
X152936149Y-36465750D01*
X152986656Y-36448914D01*
X150092956Y-33563873D02*
X150328658Y-33799575D01*
X150042448Y-33345006D02*
X150379165Y-33513365D01*
X150160299Y-33732231D01*
X145531672Y-38000201D02*
X145312806Y-38219067D01*
X145565344Y-38235903D01*
X145514836Y-38286411D01*
X145498000Y-38336918D01*
X145498000Y-38370590D01*
X145514836Y-38421098D01*
X145599016Y-38505277D01*
X145649523Y-38522113D01*
X145683195Y-38522113D01*
X145733703Y-38505277D01*
X145834718Y-38404262D01*
X145851554Y-38353754D01*
X145851554Y-38320082D01*
D10*
X51017153Y-28816028D02*
X51064772Y-28863647D01*
X51207629Y-28911266D01*
X51302867Y-28911266D01*
X51445725Y-28863647D01*
X51540963Y-28768409D01*
X51588582Y-28673171D01*
X51636201Y-28482695D01*
X51636201Y-28339838D01*
X51588582Y-28149362D01*
X51540963Y-28054124D01*
X51445725Y-27958886D01*
X51302867Y-27911266D01*
X51207629Y-27911266D01*
X51064772Y-27958886D01*
X51017153Y-28006505D01*
X50398106Y-27911266D02*
X50302867Y-27911266D01*
X50207629Y-27958886D01*
X50160010Y-28006505D01*
X50112391Y-28101743D01*
X50064772Y-28292219D01*
X50064772Y-28530314D01*
X50112391Y-28720790D01*
X50160010Y-28816028D01*
X50207629Y-28863647D01*
X50302867Y-28911266D01*
X50398106Y-28911266D01*
X50493344Y-28863647D01*
X50540963Y-28816028D01*
X50588582Y-28720790D01*
X50636201Y-28530314D01*
X50636201Y-28292219D01*
X50588582Y-28101743D01*
X50540963Y-28006505D01*
X50493344Y-27958886D01*
X50398106Y-27911266D01*
X145972916Y-53630892D02*
X146020535Y-53678511D01*
X146163392Y-53726130D01*
X146258630Y-53726130D01*
X146401488Y-53678511D01*
X146496726Y-53583273D01*
X146544345Y-53488035D01*
X146591964Y-53297559D01*
X146591964Y-53154702D01*
X146544345Y-52964226D01*
X146496726Y-52868988D01*
X146401488Y-52773750D01*
X146258630Y-52726130D01*
X146163392Y-52726130D01*
X146020535Y-52773750D01*
X145972916Y-52821369D01*
X145591964Y-52821369D02*
X145544345Y-52773750D01*
X145449107Y-52726130D01*
X145211011Y-52726130D01*
X145115773Y-52773750D01*
X145068154Y-52821369D01*
X145020535Y-52916607D01*
X145020535Y-53011845D01*
X145068154Y-53154702D01*
X145639583Y-53726130D01*
X145020535Y-53726130D01*
X155490457Y-48225965D02*
X155823791Y-47749775D01*
X156061886Y-48225965D02*
X156061886Y-47225965D01*
X155680933Y-47225965D01*
X155585695Y-47273585D01*
X155538076Y-47321204D01*
X155490457Y-47416442D01*
X155490457Y-47559299D01*
X155538076Y-47654537D01*
X155585695Y-47702156D01*
X155680933Y-47749775D01*
X156061886Y-47749775D01*
X155109505Y-47321204D02*
X155061886Y-47273585D01*
X154966648Y-47225965D01*
X154728552Y-47225965D01*
X154633314Y-47273585D01*
X154585695Y-47321204D01*
X154538076Y-47416442D01*
X154538076Y-47511680D01*
X154585695Y-47654537D01*
X155157124Y-48225965D01*
X154538076Y-48225965D01*
X146739404Y-40727380D02*
X146739404Y-41536904D01*
X146691785Y-41632142D01*
X146644166Y-41679761D01*
X146548928Y-41727380D01*
X146358452Y-41727380D01*
X146263214Y-41679761D01*
X146215595Y-41632142D01*
X146167976Y-41536904D01*
X146167976Y-40727380D01*
X145739404Y-40822619D02*
X145691785Y-40775000D01*
X145596547Y-40727380D01*
X145358452Y-40727380D01*
X145263214Y-40775000D01*
X145215595Y-40822619D01*
X145167976Y-40917857D01*
X145167976Y-41013095D01*
X145215595Y-41155952D01*
X145787023Y-41727380D01*
X145167976Y-41727380D01*
X83883333Y-32948511D02*
X83740476Y-32996130D01*
X83502380Y-32996130D01*
X83407142Y-32948511D01*
X83359523Y-32900892D01*
X83311904Y-32805654D01*
X83311904Y-32710416D01*
X83359523Y-32615178D01*
X83407142Y-32567559D01*
X83502380Y-32519940D01*
X83692857Y-32472321D01*
X83788095Y-32424702D01*
X83835714Y-32377083D01*
X83883333Y-32281845D01*
X83883333Y-32186607D01*
X83835714Y-32091369D01*
X83788095Y-32043750D01*
X83692857Y-31996130D01*
X83454761Y-31996130D01*
X83311904Y-32043750D01*
X82978571Y-31996130D02*
X82740476Y-32996130D01*
X82550000Y-32281845D01*
X82359523Y-32996130D01*
X82121428Y-31996130D01*
X81216666Y-32996130D02*
X81788095Y-32996130D01*
X81502380Y-32996130D02*
X81502380Y-31996130D01*
X81597619Y-32138988D01*
X81692857Y-32234226D01*
X81788095Y-32281845D01*
X145741195Y-34181354D02*
X145808538Y-34181354D01*
X145943225Y-34114010D01*
X146010569Y-34046667D01*
X146077912Y-33911979D01*
X146077912Y-33777292D01*
X146044241Y-33676277D01*
X145943225Y-33507918D01*
X145842210Y-33406903D01*
X145673851Y-33305888D01*
X145572836Y-33272216D01*
X145438149Y-33272216D01*
X145303462Y-33339560D01*
X145236118Y-33406903D01*
X145168775Y-33541590D01*
X145168775Y-33608934D01*
X145000416Y-34248697D02*
X145034088Y-34147682D01*
X145034088Y-34080338D01*
X145000416Y-33979323D01*
X144966744Y-33945651D01*
X144865729Y-33911979D01*
X144798386Y-33911979D01*
X144697370Y-33945651D01*
X144562683Y-34080338D01*
X144529012Y-34181354D01*
X144529012Y-34248697D01*
X144562683Y-34349712D01*
X144596355Y-34383384D01*
X144697370Y-34417056D01*
X144764714Y-34417056D01*
X144865729Y-34383384D01*
X145000416Y-34248697D01*
X145101431Y-34215025D01*
X145168775Y-34215025D01*
X145269790Y-34248697D01*
X145404477Y-34383384D01*
X145438149Y-34484399D01*
X145438149Y-34551743D01*
X145404477Y-34652758D01*
X145269790Y-34787445D01*
X145168775Y-34821117D01*
X145101431Y-34821117D01*
X145000416Y-34787445D01*
X144865729Y-34652758D01*
X144832057Y-34551743D01*
X144832057Y-34484399D01*
X144865729Y-34383384D01*
X141454166Y-43127142D02*
X141501785Y-43174761D01*
X141644642Y-43222380D01*
X141739880Y-43222380D01*
X141882738Y-43174761D01*
X141977976Y-43079523D01*
X142025595Y-42984285D01*
X142073214Y-42793809D01*
X142073214Y-42650952D01*
X142025595Y-42460476D01*
X141977976Y-42365238D01*
X141882738Y-42270000D01*
X141739880Y-42222380D01*
X141644642Y-42222380D01*
X141501785Y-42270000D01*
X141454166Y-42317619D01*
X140597023Y-42222380D02*
X140787500Y-42222380D01*
X140882738Y-42270000D01*
X140930357Y-42317619D01*
X141025595Y-42460476D01*
X141073214Y-42650952D01*
X141073214Y-43031904D01*
X141025595Y-43127142D01*
X140977976Y-43174761D01*
X140882738Y-43222380D01*
X140692261Y-43222380D01*
X140597023Y-43174761D01*
X140549404Y-43127142D01*
X140501785Y-43031904D01*
X140501785Y-42793809D01*
X140549404Y-42698571D01*
X140597023Y-42650952D01*
X140692261Y-42603333D01*
X140882738Y-42603333D01*
X140977976Y-42650952D01*
X141025595Y-42698571D01*
X141073214Y-42793809D01*
X54451191Y-33114106D02*
X54451191Y-33923630D01*
X54403572Y-34018868D01*
X54355953Y-34066487D01*
X54260715Y-34114106D01*
X54070239Y-34114106D01*
X53975001Y-34066487D01*
X53927382Y-34018868D01*
X53879763Y-33923630D01*
X53879763Y-33114106D01*
X52832144Y-34114106D02*
X53165477Y-33637916D01*
X53403572Y-34114106D02*
X53403572Y-33114106D01*
X53022620Y-33114106D01*
X52927382Y-33161726D01*
X52879763Y-33209345D01*
X52832144Y-33304583D01*
X52832144Y-33447440D01*
X52879763Y-33542678D01*
X52927382Y-33590297D01*
X53022620Y-33637916D01*
X53403572Y-33637916D01*
X52498810Y-33114106D02*
X51879763Y-33114106D01*
X52213096Y-33495059D01*
X52070239Y-33495059D01*
X51975001Y-33542678D01*
X51927382Y-33590297D01*
X51879763Y-33685535D01*
X51879763Y-33923630D01*
X51927382Y-34018868D01*
X51975001Y-34066487D01*
X52070239Y-34114106D01*
X52355953Y-34114106D01*
X52451191Y-34066487D01*
X52498810Y-34018868D01*
X156802691Y-42360887D02*
X156850310Y-42313268D01*
X156897929Y-42170411D01*
X156897929Y-42075173D01*
X156850310Y-41932315D01*
X156755072Y-41837077D01*
X156659834Y-41789458D01*
X156469358Y-41741839D01*
X156326501Y-41741839D01*
X156136025Y-41789458D01*
X156040787Y-41837077D01*
X155945549Y-41932315D01*
X155897929Y-42075173D01*
X155897929Y-42170411D01*
X155945549Y-42313268D01*
X155993168Y-42360887D01*
X156231263Y-43218030D02*
X156897929Y-43218030D01*
X155850310Y-42979934D02*
X156564596Y-42741839D01*
X156564596Y-43360887D01*
X62192842Y-43950132D02*
X62240461Y-43902513D01*
X62288080Y-43759656D01*
X62288080Y-43664418D01*
X62240461Y-43521560D01*
X62145223Y-43426322D01*
X62049985Y-43378703D01*
X61859509Y-43331084D01*
X61716652Y-43331084D01*
X61526176Y-43378703D01*
X61430938Y-43426322D01*
X61335700Y-43521560D01*
X61288080Y-43664418D01*
X61288080Y-43759656D01*
X61335700Y-43902513D01*
X61383319Y-43950132D01*
X62288080Y-44902513D02*
X62288080Y-44331084D01*
X62288080Y-44616799D02*
X61288080Y-44616799D01*
X61430938Y-44521560D01*
X61526176Y-44426322D01*
X61573795Y-44331084D01*
X29552380Y-29694345D02*
X30361904Y-29694345D01*
X30457142Y-29741964D01*
X30504761Y-29789583D01*
X30552380Y-29884821D01*
X30552380Y-30075297D01*
X30504761Y-30170535D01*
X30457142Y-30218154D01*
X30361904Y-30265773D01*
X29552380Y-30265773D01*
X30552380Y-31313392D02*
X30076190Y-30980059D01*
X30552380Y-30741964D02*
X29552380Y-30741964D01*
X29552380Y-31122916D01*
X29600000Y-31218154D01*
X29647619Y-31265773D01*
X29742857Y-31313392D01*
X29885714Y-31313392D01*
X29980952Y-31265773D01*
X30028571Y-31218154D01*
X30076190Y-31122916D01*
X30076190Y-30741964D01*
X29885714Y-32170535D02*
X30552380Y-32170535D01*
X29504761Y-31932440D02*
X30219047Y-31694345D01*
X30219047Y-32313392D01*
X147804166Y-65444642D02*
X147851785Y-65492261D01*
X147994642Y-65539880D01*
X148089880Y-65539880D01*
X148232738Y-65492261D01*
X148327976Y-65397023D01*
X148375595Y-65301785D01*
X148423214Y-65111309D01*
X148423214Y-64968452D01*
X148375595Y-64777976D01*
X148327976Y-64682738D01*
X148232738Y-64587500D01*
X148089880Y-64539880D01*
X147994642Y-64539880D01*
X147851785Y-64587500D01*
X147804166Y-64635119D01*
X147327976Y-65539880D02*
X147137500Y-65539880D01*
X147042261Y-65492261D01*
X146994642Y-65444642D01*
X146899404Y-65301785D01*
X146851785Y-65111309D01*
X146851785Y-64730357D01*
X146899404Y-64635119D01*
X146947023Y-64587500D01*
X147042261Y-64539880D01*
X147232738Y-64539880D01*
X147327976Y-64587500D01*
X147375595Y-64635119D01*
X147423214Y-64730357D01*
X147423214Y-64968452D01*
X147375595Y-65063690D01*
X147327976Y-65111309D01*
X147232738Y-65158928D01*
X147042261Y-65158928D01*
X146947023Y-65111309D01*
X146899404Y-65063690D01*
X146851785Y-64968452D01*
X152074404Y-64539880D02*
X152074404Y-65349404D01*
X152026785Y-65444642D01*
X151979166Y-65492261D01*
X151883928Y-65539880D01*
X151693452Y-65539880D01*
X151598214Y-65492261D01*
X151550595Y-65444642D01*
X151502976Y-65349404D01*
X151502976Y-64539880D01*
X150455357Y-65539880D02*
X150788690Y-65063690D01*
X151026785Y-65539880D02*
X151026785Y-64539880D01*
X150645833Y-64539880D01*
X150550595Y-64587500D01*
X150502976Y-64635119D01*
X150455357Y-64730357D01*
X150455357Y-64873214D01*
X150502976Y-64968452D01*
X150550595Y-65016071D01*
X150645833Y-65063690D01*
X151026785Y-65063690D01*
X149883928Y-64968452D02*
X149979166Y-64920833D01*
X150026785Y-64873214D01*
X150074404Y-64777976D01*
X150074404Y-64730357D01*
X150026785Y-64635119D01*
X149979166Y-64587500D01*
X149883928Y-64539880D01*
X149693452Y-64539880D01*
X149598214Y-64587500D01*
X149550595Y-64635119D01*
X149502976Y-64730357D01*
X149502976Y-64777976D01*
X149550595Y-64873214D01*
X149598214Y-64920833D01*
X149693452Y-64968452D01*
X149883928Y-64968452D01*
X149979166Y-65016071D01*
X150026785Y-65063690D01*
X150074404Y-65158928D01*
X150074404Y-65349404D01*
X150026785Y-65444642D01*
X149979166Y-65492261D01*
X149883928Y-65539880D01*
X149693452Y-65539880D01*
X149598214Y-65492261D01*
X149550595Y-65444642D01*
X149502976Y-65349404D01*
X149502976Y-65158928D01*
X149550595Y-65063690D01*
X149598214Y-65016071D01*
X149693452Y-64968452D01*
X35410218Y-33057949D02*
X35410218Y-33867473D01*
X35362599Y-33962711D01*
X35314980Y-34010330D01*
X35219742Y-34057949D01*
X35029266Y-34057949D01*
X34934028Y-34010330D01*
X34886409Y-33962711D01*
X34838790Y-33867473D01*
X34838790Y-33057949D01*
X33791171Y-34057949D02*
X34124504Y-33581759D01*
X34362599Y-34057949D02*
X34362599Y-33057949D01*
X33981647Y-33057949D01*
X33886409Y-33105569D01*
X33838790Y-33153188D01*
X33791171Y-33248426D01*
X33791171Y-33391283D01*
X33838790Y-33486521D01*
X33886409Y-33534140D01*
X33981647Y-33581759D01*
X34362599Y-33581759D01*
X32886409Y-33057949D02*
X33362599Y-33057949D01*
X33410218Y-33534140D01*
X33362599Y-33486521D01*
X33267361Y-33438902D01*
X33029266Y-33438902D01*
X32934028Y-33486521D01*
X32886409Y-33534140D01*
X32838790Y-33629378D01*
X32838790Y-33867473D01*
X32886409Y-33962711D01*
X32934028Y-34010330D01*
X33029266Y-34057949D01*
X33267361Y-34057949D01*
X33362599Y-34010330D01*
X33410218Y-33962711D01*
X46188095Y-35140980D02*
X46188095Y-35950504D01*
X46140476Y-36045742D01*
X46092857Y-36093361D01*
X45997619Y-36140980D01*
X45807142Y-36140980D01*
X45711904Y-36093361D01*
X45664285Y-36045742D01*
X45616666Y-35950504D01*
X45616666Y-35140980D01*
X45188095Y-36093361D02*
X45045238Y-36140980D01*
X44807142Y-36140980D01*
X44711904Y-36093361D01*
X44664285Y-36045742D01*
X44616666Y-35950504D01*
X44616666Y-35855266D01*
X44664285Y-35760028D01*
X44711904Y-35712409D01*
X44807142Y-35664790D01*
X44997619Y-35617171D01*
X45092857Y-35569552D01*
X45140476Y-35521933D01*
X45188095Y-35426695D01*
X45188095Y-35331457D01*
X45140476Y-35236219D01*
X45092857Y-35188600D01*
X44997619Y-35140980D01*
X44759523Y-35140980D01*
X44616666Y-35188600D01*
X43854761Y-35617171D02*
X43711904Y-35664790D01*
X43664285Y-35712409D01*
X43616666Y-35807647D01*
X43616666Y-35950504D01*
X43664285Y-36045742D01*
X43711904Y-36093361D01*
X43807142Y-36140980D01*
X44188095Y-36140980D01*
X44188095Y-35140980D01*
X43854761Y-35140980D01*
X43759523Y-35188600D01*
X43711904Y-35236219D01*
X43664285Y-35331457D01*
X43664285Y-35426695D01*
X43711904Y-35521933D01*
X43759523Y-35569552D01*
X43854761Y-35617171D01*
X44188095Y-35617171D01*
X42664285Y-36140980D02*
X43235714Y-36140980D01*
X42950000Y-36140980D02*
X42950000Y-35140980D01*
X43045238Y-35283838D01*
X43140476Y-35379076D01*
X43235714Y-35426695D01*
D11*
X40448610Y-34266829D02*
X40162895Y-34266829D01*
X40305753Y-34266829D02*
X40305753Y-34766829D01*
X40258133Y-34695400D01*
X40210514Y-34647781D01*
X40162895Y-34623972D01*
X48403189Y-34309205D02*
X48117475Y-34309205D01*
X48260332Y-34309205D02*
X48260332Y-34809205D01*
X48212713Y-34737776D01*
X48165094Y-34690157D01*
X48117475Y-34666348D01*
X48593666Y-34761586D02*
X48617475Y-34785396D01*
X48665094Y-34809205D01*
X48784142Y-34809205D01*
X48831761Y-34785396D01*
X48855570Y-34761586D01*
X48879380Y-34713967D01*
X48879380Y-34666348D01*
X48855570Y-34594919D01*
X48569856Y-34309205D01*
X48879380Y-34309205D01*
D10*
X45211904Y-42703854D02*
X45211904Y-43513378D01*
X45164285Y-43608616D01*
X45116666Y-43656235D01*
X45021428Y-43703854D01*
X44830952Y-43703854D01*
X44735714Y-43656235D01*
X44688095Y-43608616D01*
X44640476Y-43513378D01*
X44640476Y-42703854D01*
X43640476Y-43703854D02*
X44211904Y-43703854D01*
X43926190Y-43703854D02*
X43926190Y-42703854D01*
X44021428Y-42846712D01*
X44116666Y-42941950D01*
X44211904Y-42989569D01*
X156836904Y-62952380D02*
X156836904Y-63761904D01*
X156789285Y-63857142D01*
X156741666Y-63904761D01*
X156646428Y-63952380D01*
X156455952Y-63952380D01*
X156360714Y-63904761D01*
X156313095Y-63857142D01*
X156265476Y-63761904D01*
X156265476Y-62952380D01*
X155217857Y-63952380D02*
X155551190Y-63476190D01*
X155789285Y-63952380D02*
X155789285Y-62952380D01*
X155408333Y-62952380D01*
X155313095Y-63000000D01*
X155265476Y-63047619D01*
X155217857Y-63142857D01*
X155217857Y-63285714D01*
X155265476Y-63380952D01*
X155313095Y-63428571D01*
X155408333Y-63476190D01*
X155789285Y-63476190D01*
X154884523Y-62952380D02*
X154217857Y-62952380D01*
X154646428Y-63952380D01*
X153600627Y-33244672D02*
X153600627Y-33177329D01*
X153533283Y-33042642D01*
X153465940Y-32975298D01*
X153331252Y-32907955D01*
X153196565Y-32907955D01*
X153095550Y-32941626D01*
X152927191Y-33042642D01*
X152826176Y-33143657D01*
X152725161Y-33312016D01*
X152691489Y-33413031D01*
X152691489Y-33547718D01*
X152758833Y-33682405D01*
X152826176Y-33749749D01*
X152960863Y-33817092D01*
X153028207Y-33817092D01*
X153196565Y-34120138D02*
X153667970Y-34591542D01*
X154072031Y-33581390D01*
X48868964Y-43061469D02*
X49202297Y-43061469D01*
X49202297Y-43585278D02*
X49202297Y-42585278D01*
X48726107Y-42585278D01*
X47821345Y-43585278D02*
X48392773Y-43585278D01*
X48107059Y-43585278D02*
X48107059Y-42585278D01*
X48202297Y-42728136D01*
X48297535Y-42823374D01*
X48392773Y-42870993D01*
X143373154Y-49611883D02*
X143373154Y-50421407D01*
X143325535Y-50516645D01*
X143277916Y-50564264D01*
X143182678Y-50611883D01*
X142992202Y-50611883D01*
X142896964Y-50564264D01*
X142849345Y-50516645D01*
X142801726Y-50421407D01*
X142801726Y-49611883D01*
X141754107Y-50611883D02*
X142087440Y-50135693D01*
X142325535Y-50611883D02*
X142325535Y-49611883D01*
X141944583Y-49611883D01*
X141849345Y-49659503D01*
X141801726Y-49707122D01*
X141754107Y-49802360D01*
X141754107Y-49945217D01*
X141801726Y-50040455D01*
X141849345Y-50088074D01*
X141944583Y-50135693D01*
X142325535Y-50135693D01*
X140801726Y-50611883D02*
X141373154Y-50611883D01*
X141087440Y-50611883D02*
X141087440Y-49611883D01*
X141182678Y-49754741D01*
X141277916Y-49849979D01*
X141373154Y-49897598D01*
X91584192Y-42031205D02*
X91917526Y-41555015D01*
X92155621Y-42031205D02*
X92155621Y-41031205D01*
X91774668Y-41031205D01*
X91679430Y-41078825D01*
X91631811Y-41126444D01*
X91584192Y-41221682D01*
X91584192Y-41364539D01*
X91631811Y-41459777D01*
X91679430Y-41507396D01*
X91774668Y-41555015D01*
X92155621Y-41555015D01*
X90631811Y-42031205D02*
X91203240Y-42031205D01*
X90917526Y-42031205D02*
X90917526Y-41031205D01*
X91012764Y-41174063D01*
X91108002Y-41269301D01*
X91203240Y-41316920D01*
X144136904Y-62952380D02*
X144136904Y-63761904D01*
X144089285Y-63857142D01*
X144041666Y-63904761D01*
X143946428Y-63952380D01*
X143755952Y-63952380D01*
X143660714Y-63904761D01*
X143613095Y-63857142D01*
X143565476Y-63761904D01*
X143565476Y-62952380D01*
X142517857Y-63952380D02*
X142851190Y-63476190D01*
X143089285Y-63952380D02*
X143089285Y-62952380D01*
X142708333Y-62952380D01*
X142613095Y-63000000D01*
X142565476Y-63047619D01*
X142517857Y-63142857D01*
X142517857Y-63285714D01*
X142565476Y-63380952D01*
X142613095Y-63428571D01*
X142708333Y-63476190D01*
X143089285Y-63476190D01*
X141660714Y-62952380D02*
X141851190Y-62952380D01*
X141946428Y-63000000D01*
X141994047Y-63047619D01*
X142089285Y-63190476D01*
X142136904Y-63380952D01*
X142136904Y-63761904D01*
X142089285Y-63857142D01*
X142041666Y-63904761D01*
X141946428Y-63952380D01*
X141755952Y-63952380D01*
X141660714Y-63904761D01*
X141613095Y-63857142D01*
X141565476Y-63761904D01*
X141565476Y-63523809D01*
X141613095Y-63428571D01*
X141660714Y-63380952D01*
X141755952Y-63333333D01*
X141946428Y-63333333D01*
X142041666Y-63380952D01*
X142089285Y-63428571D01*
X142136904Y-63523809D01*
X142136987Y-36668504D02*
X142136987Y-36601161D01*
X142069643Y-36466474D01*
X142002300Y-36399130D01*
X141867612Y-36331787D01*
X141732925Y-36331787D01*
X141631910Y-36365458D01*
X141463551Y-36466474D01*
X141362536Y-36567489D01*
X141261521Y-36735848D01*
X141227849Y-36836863D01*
X141227849Y-36971550D01*
X141295193Y-37106237D01*
X141362536Y-37173581D01*
X141497223Y-37240924D01*
X141564567Y-37240924D01*
X142136987Y-37948031D02*
X141800269Y-37611313D01*
X142103315Y-37240924D01*
X142103315Y-37308268D01*
X142136987Y-37409283D01*
X142305345Y-37577642D01*
X142406361Y-37611313D01*
X142473704Y-37611313D01*
X142574719Y-37577642D01*
X142743078Y-37409283D01*
X142776750Y-37308268D01*
X142776750Y-37240924D01*
X142743078Y-37139909D01*
X142574719Y-36971550D01*
X142473704Y-36937878D01*
X142406361Y-36937878D01*
X153832071Y-53719994D02*
X153879690Y-53767613D01*
X154022547Y-53815232D01*
X154117785Y-53815232D01*
X154260643Y-53767613D01*
X154355881Y-53672375D01*
X154403500Y-53577137D01*
X154451119Y-53386661D01*
X154451119Y-53243804D01*
X154403500Y-53053328D01*
X154355881Y-52958090D01*
X154260643Y-52862852D01*
X154117785Y-52815232D01*
X154022547Y-52815232D01*
X153879690Y-52862852D01*
X153832071Y-52910471D01*
X153498738Y-52815232D02*
X152879690Y-52815232D01*
X153213024Y-53196185D01*
X153070166Y-53196185D01*
X152974928Y-53243804D01*
X152927309Y-53291423D01*
X152879690Y-53386661D01*
X152879690Y-53624756D01*
X152927309Y-53719994D01*
X152974928Y-53767613D01*
X153070166Y-53815232D01*
X153355881Y-53815232D01*
X153451119Y-53767613D01*
X153498738Y-53719994D01*
D12*
X84650630Y-78450000D02*
X84650630Y-74550000D01*
X86650630Y-78450000D02*
X86650630Y-74550000D01*
X86650630Y-78450000D02*
X84650630Y-78450000D01*
X141884186Y-47212503D02*
X142338314Y-47212503D01*
X141884186Y-45742503D02*
X142338314Y-45742503D01*
X152725179Y-36988052D02*
X148906802Y-40806429D01*
X149543198Y-33806071D02*
X152725179Y-36988052D01*
X50065000Y-31217502D02*
X50065000Y-30694998D01*
X51535000Y-31217502D02*
X51535000Y-30694998D01*
X103701418Y-78450000D02*
X103701418Y-74550000D01*
X105701418Y-78450000D02*
X105701418Y-74550000D01*
X105701418Y-78450000D02*
X103701418Y-78450000D01*
X172037500Y-97500000D02*
X172037500Y-93600000D01*
X174037500Y-97500000D02*
X174037500Y-93600000D01*
X174037500Y-97500000D02*
X172037500Y-97500000D01*
X267626512Y-59400000D02*
X267626512Y-55500000D01*
X267626512Y-59400000D02*
X265626512Y-59400000D01*
X265626512Y-59400000D02*
X265626512Y-55500000D01*
X191426512Y-59400000D02*
X189426512Y-59400000D01*
X189426512Y-59400000D02*
X189426512Y-55500000D01*
X191426512Y-59400000D02*
X191426512Y-55500000D01*
X77118439Y-59400000D02*
X75118439Y-59400000D01*
X77118439Y-59400000D02*
X77118439Y-55500000D01*
X75118439Y-59400000D02*
X75118439Y-55500000D01*
X265626512Y-40350000D02*
X265626512Y-36450000D01*
X267626512Y-40350000D02*
X265626512Y-40350000D01*
X267626512Y-40350000D02*
X267626512Y-36450000D01*
X141081250Y-97500000D02*
X141081250Y-93600000D01*
X143081250Y-97500000D02*
X143081250Y-93600000D01*
X143081250Y-97500000D02*
X141081250Y-97500000D01*
X181181250Y-97500000D02*
X181181250Y-93600000D01*
X179181250Y-97500000D02*
X179181250Y-93600000D01*
X181181250Y-97500000D02*
X179181250Y-97500000D01*
X145544998Y-50858750D02*
X146067502Y-50858750D01*
X145544998Y-52328750D02*
X146067502Y-52328750D01*
X155550855Y-48688585D02*
X155096727Y-48688585D01*
X155550855Y-50158585D02*
X155096727Y-50158585D01*
X248576512Y-59400000D02*
X246576512Y-59400000D01*
X248576512Y-59400000D02*
X248576512Y-55500000D01*
X246576512Y-59400000D02*
X246576512Y-55500000D01*
X152110000Y-49806072D02*
X152835000Y-49806072D01*
X145615000Y-42586072D02*
X145615000Y-43311072D01*
X152835000Y-42586072D02*
X152835000Y-43311072D01*
X146340000Y-42586072D02*
X145615000Y-42586072D01*
X146340000Y-49806072D02*
X145615000Y-49806072D01*
X152110000Y-42586072D02*
X152835000Y-42586072D01*
X152835000Y-49806072D02*
X152835000Y-49081072D01*
X67599842Y-78450000D02*
X65599842Y-78450000D01*
X65599842Y-78450000D02*
X65599842Y-74550000D01*
X67599842Y-78450000D02*
X67599842Y-74550000D01*
X266906250Y-78450000D02*
X264906250Y-78450000D01*
X264906250Y-78450000D02*
X264906250Y-74550000D01*
X266906250Y-78450000D02*
X266906250Y-74550000D01*
X83590000Y-40026250D02*
X81510000Y-40026250D01*
X83590000Y-34586250D02*
X81510000Y-34586250D01*
X85270000Y-35856250D02*
X84780000Y-35366250D01*
X79830000Y-38756250D02*
X80320000Y-39246250D01*
X79830000Y-35856250D02*
X80320000Y-35366250D01*
X85270000Y-38756250D02*
X84780000Y-39246250D01*
X79830000Y-35856250D02*
X79830000Y-38756250D01*
X85270000Y-35856250D02*
X85270000Y-38756250D01*
X146139293Y-34590010D02*
X146508760Y-34220543D01*
X147178740Y-35629457D02*
X147548207Y-35259990D01*
X58069135Y-40350000D02*
X58069135Y-36450000D01*
X56069135Y-40350000D02*
X56069135Y-36450000D01*
X58069135Y-40350000D02*
X56069135Y-40350000D01*
X141548752Y-45185000D02*
X141026248Y-45185000D01*
X141548752Y-43715000D02*
X141026248Y-43715000D01*
X37019831Y-59400000D02*
X37019831Y-55500000D01*
X39019831Y-59400000D02*
X39019831Y-55500000D01*
X39019831Y-59400000D02*
X37019831Y-59400000D01*
X52446250Y-30729186D02*
X52446250Y-31183314D01*
X53916250Y-30729186D02*
X53916250Y-31183314D01*
X224043750Y-97500000D02*
X224043750Y-93600000D01*
X224043750Y-97500000D02*
X222043750Y-97500000D01*
X222043750Y-97500000D02*
X222043750Y-93600000D01*
X229526512Y-40350000D02*
X229526512Y-36450000D01*
X229526512Y-40350000D02*
X227526512Y-40350000D01*
X227526512Y-40350000D02*
X227526512Y-36450000D01*
X155500549Y-42788806D02*
X155500549Y-42266302D01*
X154030549Y-42788806D02*
X154030549Y-42266302D01*
X96167743Y-40350000D02*
X94167743Y-40350000D01*
X94167743Y-40350000D02*
X94167743Y-36450000D01*
X96167743Y-40350000D02*
X96167743Y-36450000D01*
X170376512Y-40350000D02*
X170376512Y-36450000D01*
X172376512Y-40350000D02*
X170376512Y-40350000D01*
X172376512Y-40350000D02*
X172376512Y-36450000D01*
X64250700Y-43855547D02*
X64250700Y-44378051D01*
X62780700Y-43855547D02*
X62780700Y-44378051D01*
X134266352Y-59400000D02*
X134266352Y-55500000D01*
X132266352Y-59400000D02*
X132266352Y-55500000D01*
X134266352Y-59400000D02*
X132266352Y-59400000D01*
X115223659Y-97500000D02*
X115223659Y-93600000D01*
X113223659Y-97500000D02*
X113223659Y-93600000D01*
X115223659Y-97500000D02*
X113223659Y-97500000D01*
X32485000Y-30729186D02*
X32485000Y-31183314D01*
X31015000Y-30729186D02*
X31015000Y-31183314D01*
X246576512Y-40350000D02*
X246576512Y-36450000D01*
X248576512Y-40350000D02*
X246576512Y-40350000D01*
X248576512Y-40350000D02*
X248576512Y-36450000D01*
X210476512Y-59400000D02*
X208476512Y-59400000D01*
X210476512Y-59400000D02*
X210476512Y-55500000D01*
X208476512Y-59400000D02*
X208476512Y-55500000D01*
X147270590Y-62967502D02*
X147270590Y-62444998D01*
X148740590Y-62967502D02*
X148740590Y-62444998D01*
X151121840Y-62479186D02*
X151121840Y-62933314D01*
X149651840Y-62479186D02*
X149651840Y-62933314D01*
X162853782Y-78450000D02*
X160853782Y-78450000D01*
X160853782Y-78450000D02*
X160853782Y-74550000D01*
X162853782Y-78450000D02*
X162853782Y-74550000D01*
X200955358Y-78450000D02*
X200955358Y-74550000D01*
X198955358Y-78450000D02*
X198955358Y-74550000D01*
X200955358Y-78450000D02*
X198955358Y-78450000D01*
X34866250Y-30729186D02*
X34866250Y-31183314D01*
X33396250Y-30729186D02*
X33396250Y-31183314D01*
X141802994Y-78450000D02*
X141802994Y-74550000D01*
X143802994Y-78450000D02*
X141802994Y-78450000D01*
X143802994Y-78450000D02*
X143802994Y-74550000D01*
X77118439Y-40350000D02*
X75118439Y-40350000D01*
X75118439Y-40350000D02*
X75118439Y-36450000D01*
X77118439Y-40350000D02*
X77118439Y-36450000D01*
X229526512Y-59400000D02*
X229526512Y-55500000D01*
X229526512Y-59400000D02*
X227526512Y-59400000D01*
X227526512Y-59400000D02*
X227526512Y-55500000D01*
X124752206Y-78450000D02*
X122752206Y-78450000D01*
X124752206Y-78450000D02*
X124752206Y-74550000D01*
X122752206Y-78450000D02*
X122752206Y-74550000D01*
X218006146Y-78450000D02*
X218006146Y-74550000D01*
X220006146Y-78450000D02*
X218006146Y-78450000D01*
X220006146Y-78450000D02*
X220006146Y-74550000D01*
X45350000Y-41961474D02*
X42400000Y-41961474D01*
X43550000Y-38741474D02*
X45350000Y-38741474D01*
X152458750Y-62479186D02*
X152458750Y-62933314D01*
X153928750Y-62479186D02*
X153928750Y-62933314D01*
X152982458Y-34468011D02*
X152612991Y-34098544D01*
X151943011Y-35507458D02*
X151573544Y-35137991D01*
X237056940Y-78450000D02*
X237056940Y-74550000D01*
X239056940Y-78450000D02*
X237056940Y-78450000D01*
X239056940Y-78450000D02*
X239056940Y-74550000D01*
X210476512Y-40350000D02*
X208476512Y-40350000D01*
X210476512Y-40350000D02*
X210476512Y-36450000D01*
X208476512Y-40350000D02*
X208476512Y-36450000D01*
X134266352Y-40350000D02*
X132266352Y-40350000D01*
X132266352Y-40350000D02*
X132266352Y-36450000D01*
X134266352Y-40350000D02*
X134266352Y-36450000D01*
X51902317Y-44042898D02*
X53106445Y-44042898D01*
X51902317Y-42222898D02*
X53106445Y-42222898D01*
X115217047Y-40350000D02*
X113217047Y-40350000D01*
X113217047Y-40350000D02*
X113217047Y-36450000D01*
X115217047Y-40350000D02*
X115217047Y-36450000D01*
X52593750Y-78450000D02*
X50593750Y-78450000D01*
X50593750Y-78450000D02*
X50593750Y-74550000D01*
X52593750Y-78450000D02*
X52593750Y-74550000D01*
X96185728Y-97500000D02*
X96185728Y-93600000D01*
X96185728Y-97500000D02*
X94185728Y-97500000D01*
X94185728Y-97500000D02*
X94185728Y-93600000D01*
X179904570Y-78450000D02*
X179904570Y-74550000D01*
X181904570Y-78450000D02*
X181904570Y-74550000D01*
X181904570Y-78450000D02*
X179904570Y-78450000D01*
X172376512Y-59400000D02*
X172376512Y-55500000D01*
X170376512Y-59400000D02*
X170376512Y-55500000D01*
X172376512Y-59400000D02*
X170376512Y-59400000D01*
X113217047Y-59400000D02*
X113217047Y-55500000D01*
X115217047Y-59400000D02*
X115217047Y-55500000D01*
X115217047Y-59400000D02*
X113217047Y-59400000D01*
X191426512Y-40350000D02*
X191426512Y-36450000D01*
X191426512Y-40350000D02*
X189426512Y-40350000D01*
X189426512Y-40350000D02*
X189426512Y-36450000D01*
X141884186Y-47774503D02*
X142338314Y-47774503D01*
X141884186Y-49244503D02*
X142338314Y-49244503D01*
X88319252Y-40887792D02*
X88773380Y-40887792D01*
X88319252Y-42357792D02*
X88773380Y-42357792D01*
X94167743Y-59400000D02*
X94167743Y-55500000D01*
X96167743Y-59400000D02*
X96167743Y-55500000D01*
X96167743Y-59400000D02*
X94167743Y-59400000D01*
X58069135Y-59400000D02*
X56069135Y-59400000D01*
X56069135Y-59400000D02*
X56069135Y-55500000D01*
X58069135Y-59400000D02*
X58069135Y-55500000D01*
X144727500Y-62933314D02*
X144727500Y-62479186D01*
X146197500Y-62933314D02*
X146197500Y-62479186D01*
X39019831Y-40350000D02*
X37019831Y-40350000D01*
X37019831Y-40350000D02*
X37019831Y-36450000D01*
X39019831Y-40350000D02*
X39019831Y-36450000D01*
X143643894Y-39585801D02*
X143274427Y-39216334D01*
X144683341Y-38546354D02*
X144313874Y-38176887D01*
X153455002Y-52328750D02*
X152932498Y-52328750D01*
X153455002Y-50858750D02*
X152932498Y-50858750D01*
X67973547Y-97500000D02*
X67973547Y-93600000D01*
X69973547Y-97500000D02*
X67973547Y-97500000D01*
X69973547Y-97500000D02*
X69973547Y-93600000D01*
X241412720Y-97500000D02*
X239412720Y-97500000D01*
X239412720Y-97500000D02*
X239412720Y-93600000D01*
X241412720Y-97500000D02*
X241412720Y-93600000D01*
%LPC*%
D13*
X104140000Y-70326250D03*
X97790000Y-72866250D03*
D14*
X106680000Y-75406250D03*
X96520000Y-75406250D03*
D15*
X101600000Y-75406250D03*
D13*
X63658750Y-89376250D03*
X57308750Y-91916250D03*
D14*
X56038750Y-94456250D03*
D15*
X61118750Y-94456250D03*
D14*
X66198750Y-94456250D03*
D13*
X123190000Y-70326250D03*
X116840000Y-72866250D03*
D14*
X125730000Y-75406250D03*
X115570000Y-75406250D03*
D15*
X120650000Y-75406250D03*
D13*
X235108750Y-89376250D03*
X228758750Y-91916250D03*
D15*
X232568750Y-94456250D03*
D14*
X237648750Y-94456250D03*
X227488750Y-94456250D03*
D13*
X237490000Y-70326250D03*
X231140000Y-72866250D03*
D14*
X229870000Y-75406250D03*
D15*
X234950000Y-75406250D03*
D14*
X240030000Y-75406250D03*
D13*
X189865000Y-51276250D03*
X183515000Y-53816250D03*
D14*
X192405000Y-56356250D03*
D15*
X187325000Y-56356250D03*
D14*
X182245000Y-56356250D03*
D16*
X156250000Y-68382951D03*
X161250000Y-68382951D03*
X158750000Y-82882951D03*
X161250000Y-82882951D03*
D17*
X156250000Y-82882951D03*
D18*
X164350000Y-75382951D03*
X153150000Y-75345651D03*
D13*
X227965000Y-32226250D03*
X221615000Y-34766250D03*
D15*
X225425000Y-37306250D03*
D14*
X220345000Y-37306250D03*
X230505000Y-37306250D03*
D13*
X256540000Y-70326250D03*
X250190000Y-72866250D03*
D14*
X248920000Y-75406250D03*
X259080000Y-75406250D03*
D15*
X254000000Y-75406250D03*
D13*
X106521250Y-89376250D03*
X100171250Y-91916250D03*
D15*
X103981250Y-94456250D03*
D14*
X109061250Y-94456250D03*
X98901250Y-94456250D03*
D13*
X37465000Y-32226250D03*
X31115000Y-34766250D03*
D15*
X34925000Y-37306250D03*
D14*
X29845000Y-37306250D03*
X40005000Y-37306250D03*
D13*
X218440000Y-89376250D03*
X212090000Y-91916250D03*
D14*
X210820000Y-94456250D03*
X220980000Y-94456250D03*
D15*
X215900000Y-94456250D03*
D13*
X94615000Y-89376250D03*
X88265000Y-91916250D03*
D15*
X92075000Y-94456250D03*
D14*
X86995000Y-94456250D03*
X97155000Y-94456250D03*
D13*
X247015000Y-32226250D03*
X240665000Y-34766250D03*
D14*
X239395000Y-37306250D03*
D15*
X244475000Y-37306250D03*
D14*
X249555000Y-37306250D03*
D19*
X149225000Y-59531250D03*
D13*
X87471250Y-89376250D03*
X81121250Y-91916250D03*
D14*
X90011250Y-94456250D03*
D15*
X84931250Y-94456250D03*
D14*
X79851250Y-94456250D03*
D13*
X208915000Y-32226250D03*
X202565000Y-34766250D03*
D15*
X206375000Y-37306250D03*
D14*
X211455000Y-37306250D03*
X201295000Y-37306250D03*
D13*
X218440000Y-70326250D03*
X212090000Y-72866250D03*
D14*
X210820000Y-75406250D03*
X220980000Y-75406250D03*
D15*
X215900000Y-75406250D03*
D13*
X227965000Y-51276250D03*
X221615000Y-53816250D03*
D14*
X220345000Y-56356250D03*
D15*
X225425000Y-56356250D03*
D14*
X230505000Y-56356250D03*
D13*
X189865000Y-32226250D03*
X183515000Y-34766250D03*
D15*
X187325000Y-37306250D03*
D14*
X182245000Y-37306250D03*
X192405000Y-37306250D03*
D13*
X56515000Y-51276250D03*
X50165000Y-53816250D03*
D15*
X53975000Y-56356250D03*
D14*
X59055000Y-56356250D03*
X48895000Y-56356250D03*
D13*
X44608750Y-70326250D03*
X38258750Y-72866250D03*
D14*
X47148750Y-75406250D03*
D15*
X42068750Y-75406250D03*
D14*
X36988750Y-75406250D03*
D13*
X208915000Y-89376250D03*
X202565000Y-91916250D03*
D15*
X206375000Y-94456250D03*
D14*
X201295000Y-94456250D03*
X211455000Y-94456250D03*
D13*
X68421250Y-89376250D03*
X62071250Y-91916250D03*
D15*
X65881250Y-94456250D03*
D14*
X70961250Y-94456250D03*
X60801250Y-94456250D03*
D13*
X113665000Y-89376250D03*
X107315000Y-91916250D03*
D15*
X111125000Y-94456250D03*
D14*
X116205000Y-94456250D03*
X106045000Y-94456250D03*
D19*
X146843750Y-59531250D03*
D13*
X94615000Y-51276250D03*
X88265000Y-53816250D03*
D14*
X97155000Y-56356250D03*
X86995000Y-56356250D03*
D15*
X92075000Y-56356250D03*
D13*
X161290000Y-70326250D03*
X154940000Y-72866250D03*
D15*
X158750000Y-75406250D03*
D14*
X153670000Y-75406250D03*
X163830000Y-75406250D03*
D13*
X85090000Y-89376250D03*
X78740000Y-91916250D03*
D14*
X77470000Y-94456250D03*
X87630000Y-94456250D03*
D15*
X82550000Y-94456250D03*
D13*
X75565000Y-51276250D03*
X69215000Y-53816250D03*
D14*
X67945000Y-56356250D03*
D15*
X73025000Y-56356250D03*
D14*
X78105000Y-56356250D03*
D19*
X144462500Y-59531250D03*
D13*
X247015000Y-51276250D03*
X240665000Y-53816250D03*
D15*
X244475000Y-56356250D03*
D14*
X249555000Y-56356250D03*
X239395000Y-56356250D03*
D13*
X194627500Y-89376250D03*
X188277500Y-91916250D03*
D15*
X192087500Y-94456250D03*
D14*
X197167500Y-94456250D03*
X187007500Y-94456250D03*
D13*
X170815000Y-51276250D03*
X164465000Y-53816250D03*
D15*
X168275000Y-56356250D03*
D14*
X163195000Y-56356250D03*
X173355000Y-56356250D03*
D13*
X66040000Y-70326250D03*
X59690000Y-72866250D03*
D14*
X68580000Y-75406250D03*
D15*
X63500000Y-75406250D03*
D14*
X58420000Y-75406250D03*
D19*
X151606250Y-59531250D03*
D13*
X135096250Y-89376250D03*
X128746250Y-91916250D03*
D14*
X127476250Y-94456250D03*
D15*
X132556250Y-94456250D03*
D14*
X137636250Y-94456250D03*
D13*
X180340000Y-70326250D03*
X173990000Y-72866250D03*
D14*
X182880000Y-75406250D03*
D15*
X177800000Y-75406250D03*
D14*
X172720000Y-75406250D03*
D13*
X132715000Y-32226250D03*
X126365000Y-34766250D03*
D14*
X135255000Y-37306250D03*
X125095000Y-37306250D03*
D15*
X130175000Y-37306250D03*
D13*
X37465000Y-51276250D03*
X31115000Y-53816250D03*
D14*
X40005000Y-56356250D03*
D15*
X34925000Y-56356250D03*
D14*
X29845000Y-56356250D03*
D13*
X137477500Y-89376250D03*
X131127500Y-91916250D03*
D14*
X140017500Y-94456250D03*
X129857500Y-94456250D03*
D15*
X134937500Y-94456250D03*
D13*
X189865000Y-89376250D03*
X183515000Y-91916250D03*
D14*
X182245000Y-94456250D03*
X192405000Y-94456250D03*
D15*
X187325000Y-94456250D03*
D19*
X153987500Y-59531250D03*
D13*
X42227500Y-70326250D03*
X35877500Y-72866250D03*
D15*
X39687500Y-75406250D03*
D14*
X34607500Y-75406250D03*
X44767500Y-75406250D03*
D13*
X75565000Y-32226250D03*
X69215000Y-34766250D03*
D15*
X73025000Y-37306250D03*
D14*
X78105000Y-37306250D03*
X67945000Y-37306250D03*
D13*
X108902500Y-89376250D03*
X102552500Y-91916250D03*
D14*
X101282500Y-94456250D03*
X111442500Y-94456250D03*
D15*
X106362500Y-94456250D03*
D13*
X132715000Y-51276250D03*
X126365000Y-53816250D03*
D14*
X125095000Y-56356250D03*
D15*
X130175000Y-56356250D03*
D14*
X135255000Y-56356250D03*
D13*
X266065000Y-32226250D03*
X259715000Y-34766250D03*
D14*
X258445000Y-37306250D03*
X268605000Y-37306250D03*
D15*
X263525000Y-37306250D03*
D13*
X113665000Y-32226250D03*
X107315000Y-34766250D03*
D15*
X111125000Y-37306250D03*
D14*
X116205000Y-37306250D03*
X106045000Y-37306250D03*
D13*
X266065000Y-51276250D03*
X259715000Y-53816250D03*
D14*
X268605000Y-56356250D03*
X258445000Y-56356250D03*
D15*
X263525000Y-56356250D03*
D13*
X261302500Y-70326250D03*
X254952500Y-72866250D03*
D14*
X263842500Y-75406250D03*
D15*
X258762500Y-75406250D03*
D14*
X253682500Y-75406250D03*
D13*
X199390000Y-70326250D03*
X193040000Y-72866250D03*
D15*
X196850000Y-75406250D03*
D14*
X191770000Y-75406250D03*
X201930000Y-75406250D03*
D13*
X258921250Y-70326250D03*
X252571250Y-72866250D03*
D14*
X261461250Y-75406250D03*
D15*
X256381250Y-75406250D03*
D14*
X251301250Y-75406250D03*
D13*
X168433750Y-89376250D03*
X162083750Y-91916250D03*
D14*
X170973750Y-94456250D03*
D15*
X165893750Y-94456250D03*
D14*
X160813750Y-94456250D03*
D20*
X145415000Y-29101250D03*
X147955000Y-29101250D03*
X150495000Y-29101250D03*
X153035000Y-29101250D03*
D13*
X239871250Y-89376250D03*
X233521250Y-91916250D03*
D14*
X232251250Y-94456250D03*
X242411250Y-94456250D03*
D15*
X237331250Y-94456250D03*
D13*
X113665000Y-51276250D03*
X107315000Y-53816250D03*
D15*
X111125000Y-56356250D03*
D14*
X106045000Y-56356250D03*
X116205000Y-56356250D03*
D13*
X166052500Y-89376250D03*
X159702500Y-91916250D03*
D14*
X168592500Y-94456250D03*
D15*
X163512500Y-94456250D03*
D14*
X158432500Y-94456250D03*
D13*
X197008750Y-89376250D03*
X190658750Y-91916250D03*
D14*
X189388750Y-94456250D03*
D15*
X194468750Y-94456250D03*
D14*
X199548750Y-94456250D03*
D13*
X170815000Y-32226250D03*
X164465000Y-34766250D03*
D15*
X168275000Y-37306250D03*
D14*
X173355000Y-37306250D03*
X163195000Y-37306250D03*
D13*
X46990000Y-70326250D03*
X40640000Y-72866250D03*
D15*
X44450000Y-75406250D03*
D14*
X49530000Y-75406250D03*
X39370000Y-75406250D03*
D13*
X142240000Y-70326250D03*
X135890000Y-72866250D03*
D14*
X144780000Y-75406250D03*
D15*
X139700000Y-75406250D03*
D14*
X134620000Y-75406250D03*
D13*
X216058750Y-89376250D03*
X209708750Y-91916250D03*
D14*
X218598750Y-94456250D03*
D15*
X213518750Y-94456250D03*
D14*
X208438750Y-94456250D03*
D13*
X85090000Y-70326250D03*
X78740000Y-72866250D03*
D15*
X82550000Y-75406250D03*
D14*
X77470000Y-75406250D03*
X87630000Y-75406250D03*
D13*
X208915000Y-51276250D03*
X202565000Y-53816250D03*
D14*
X201295000Y-56356250D03*
X211455000Y-56356250D03*
D15*
X206375000Y-56356250D03*
D13*
X56515000Y-32226250D03*
X50165000Y-34766250D03*
D14*
X59055000Y-37306250D03*
D15*
X53975000Y-37306250D03*
D14*
X48895000Y-37306250D03*
D13*
X94615000Y-32226250D03*
X88265000Y-34766250D03*
D14*
X97155000Y-37306250D03*
D15*
X92075000Y-37306250D03*
D14*
X86995000Y-37306250D03*
D21*
X85650630Y-74550000D03*
X85650630Y-77850000D03*
D22*
X143111250Y-46477503D03*
X141111250Y-46477503D03*
D23*
X149437132Y-35467772D03*
X147386522Y-37518382D03*
X149012868Y-39144728D03*
X151063478Y-37094118D03*
D24*
X50800000Y-29918750D03*
X50800000Y-31993750D03*
D21*
X104701418Y-74550000D03*
X104701418Y-77850000D03*
X173037500Y-93600000D03*
X173037500Y-96900000D03*
X266626512Y-55500000D03*
X266626512Y-58800000D03*
X190426512Y-55500000D03*
X190426512Y-58800000D03*
X76118439Y-55500000D03*
X76118439Y-58800000D03*
X266626512Y-36450000D03*
X266626512Y-39750000D03*
X142081250Y-93600000D03*
X142081250Y-96900000D03*
X180181250Y-93600000D03*
X180181250Y-96900000D03*
D25*
X146843750Y-51593750D03*
X144768750Y-51593750D03*
D26*
X154323791Y-49423585D03*
X156323791Y-49423585D03*
D21*
X247576512Y-55500000D03*
X247576512Y-58800000D03*
D27*
X149225000Y-46196072D03*
D28*
X146725000Y-49533572D03*
X147225000Y-49533572D03*
X147725000Y-49533572D03*
X148225000Y-49533572D03*
X148725000Y-49533572D03*
X149225000Y-49533572D03*
X149725000Y-49533572D03*
X150225000Y-49533572D03*
X150725000Y-49533572D03*
X151225000Y-49533572D03*
X151725000Y-49533572D03*
D29*
X152562500Y-48696072D03*
X152562500Y-48196072D03*
X152562500Y-47696072D03*
X152562500Y-47196072D03*
X152562500Y-46696072D03*
X152562500Y-46196072D03*
X152562500Y-45696072D03*
X152562500Y-45196072D03*
X152562500Y-44696072D03*
X152562500Y-44196072D03*
X152562500Y-43696072D03*
D28*
X151725000Y-42858572D03*
X151225000Y-42858572D03*
X150725000Y-42858572D03*
X150225000Y-42858572D03*
X149725000Y-42858572D03*
X149225000Y-42858572D03*
X148725000Y-42858572D03*
X148225000Y-42858572D03*
X147725000Y-42858572D03*
X147225000Y-42858572D03*
X146725000Y-42858572D03*
D29*
X145887500Y-43696072D03*
X145887500Y-44196072D03*
X145887500Y-44696072D03*
X145887500Y-45196072D03*
X145887500Y-45696072D03*
X145887500Y-46196072D03*
X145887500Y-46696072D03*
X145887500Y-47196072D03*
X145887500Y-47696072D03*
X145887500Y-48196072D03*
X145887500Y-48696072D03*
D21*
X66599842Y-74550000D03*
X66599842Y-77850000D03*
X265906250Y-74550000D03*
X265906250Y-77850000D03*
D30*
X84400000Y-40406250D03*
X84400000Y-34206250D03*
X80700000Y-34206250D03*
X80700000Y-40406250D03*
D31*
X147577373Y-34191377D03*
X146110127Y-35658623D03*
D21*
X57069135Y-36450000D03*
X57069135Y-39750000D03*
D32*
X140250000Y-44450000D03*
X142325000Y-44450000D03*
D21*
X38019831Y-55500000D03*
X38019831Y-58800000D03*
D33*
X53181250Y-31956250D03*
X53181250Y-29956250D03*
D21*
X223043750Y-93600000D03*
X223043750Y-96900000D03*
X228526512Y-36450000D03*
X228526512Y-39750000D03*
D24*
X154765549Y-41490054D03*
X154765549Y-43565054D03*
D21*
X95167743Y-36450000D03*
X95167743Y-39750000D03*
X171376512Y-36450000D03*
X171376512Y-39750000D03*
D34*
X63515700Y-45154299D03*
X63515700Y-43079299D03*
D21*
X133266352Y-55500000D03*
X133266352Y-58800000D03*
X114223659Y-93600000D03*
X114223659Y-96900000D03*
D33*
X31750000Y-31956250D03*
X31750000Y-29956250D03*
D21*
X247576512Y-36450000D03*
X247576512Y-39750000D03*
X209476512Y-55500000D03*
X209476512Y-58800000D03*
D24*
X148005590Y-61668750D03*
X148005590Y-63743750D03*
D33*
X150386840Y-63706250D03*
X150386840Y-61706250D03*
D21*
X161853782Y-74550000D03*
X161853782Y-77850000D03*
X199955358Y-74550000D03*
X199955358Y-77850000D03*
D33*
X34131250Y-31956250D03*
X34131250Y-29956250D03*
D35*
X47675000Y-33683600D03*
X46900000Y-33683600D03*
D36*
X46200000Y-33683600D03*
X45700000Y-33683600D03*
X45200000Y-33683600D03*
X44700000Y-33683600D03*
X44200000Y-33683600D03*
X43700000Y-33683600D03*
X43200000Y-33683600D03*
X42700000Y-33683600D03*
D35*
X42000000Y-33683600D03*
X41225000Y-33683600D03*
D37*
X47340000Y-31738600D03*
X41560000Y-31738600D03*
D21*
X142802994Y-74550000D03*
X142802994Y-77850000D03*
X76118439Y-36450000D03*
X76118439Y-39750000D03*
X228526512Y-55500000D03*
X228526512Y-58800000D03*
D38*
X142557500Y-30003750D03*
X140017500Y-30003750D03*
X142557500Y-32543750D03*
X140017500Y-32543750D03*
X142557500Y-35083750D03*
D39*
X140017500Y-35083750D03*
D21*
X123752206Y-74550000D03*
X123752206Y-77850000D03*
X219006146Y-74550000D03*
X219006146Y-77850000D03*
D40*
X45800000Y-41301474D03*
X45800000Y-40351474D03*
X45800000Y-39401474D03*
X43100000Y-39401474D03*
X43100000Y-40351474D03*
X43100000Y-41301474D03*
D33*
X153193750Y-63706250D03*
X153193750Y-61706250D03*
D41*
X151544378Y-34069378D03*
X153011624Y-35536624D03*
D21*
X238056940Y-74550000D03*
X238056940Y-77850000D03*
X209476512Y-36450000D03*
X209476512Y-39750000D03*
X133266352Y-36450000D03*
X133266352Y-39750000D03*
D42*
X54204381Y-43132898D03*
X50804381Y-43132898D03*
D21*
X114217047Y-36450000D03*
X114217047Y-39750000D03*
X51593750Y-74550000D03*
X51593750Y-77850000D03*
X95185728Y-93600000D03*
X95185728Y-96900000D03*
X180904570Y-74550000D03*
X180904570Y-77850000D03*
X171376512Y-55500000D03*
X171376512Y-58800000D03*
X114217047Y-55500000D03*
X114217047Y-58800000D03*
X190426512Y-36450000D03*
X190426512Y-39750000D03*
D22*
X143111250Y-48509503D03*
X141111250Y-48509503D03*
X89546316Y-41622792D03*
X87546316Y-41622792D03*
D21*
X95167743Y-55500000D03*
X95167743Y-58800000D03*
X57069135Y-55500000D03*
X57069135Y-58800000D03*
D43*
X145462500Y-61706250D03*
X145462500Y-63706250D03*
D21*
X38019831Y-36450000D03*
X38019831Y-39750000D03*
D41*
X143245261Y-38147721D03*
X144712507Y-39614967D03*
D32*
X152156250Y-51593750D03*
X154231250Y-51593750D03*
D21*
X68973547Y-93600000D03*
X68973547Y-96900000D03*
X240412720Y-93600000D03*
X240412720Y-96900000D03*
M02*
