M48
; DRILL file {KiCad (6.0.5)} date Thu Aug 11 23:07:07 2022
; FORMAT={-:-/ absolute / inch / decimal}
; #@! TF.CreationDate,2022-08-11T23:07:07-04:00
; #@! TF.GenerationSoftware,Kicad,Pcbnew,(6.0.5)
; #@! TF.FileFunction,NonPlated,1,2,NPTH
FMAT,2
INCH
; #@! TA.AperFunction,NonPlated,NPTH,ComponentDrill
T1C0.0256
; #@! TA.AperFunction,NonPlated,NPTH,ComponentDrill
T2C0.0669
; #@! TA.AperFunction,NonPlated,NPTH,ComponentDrill
T3C0.0748
; #@! TA.AperFunction,NonPlated,NPTH,ComponentDrill
T4C0.1575
%
G90
G05
T1
X1.6362Y-1.2496
X1.8638Y-1.2496
T2
X1.175Y-1.4688
X1.175Y-2.2188
X1.3625Y-2.9688
X1.575Y-1.4688
X1.575Y-2.2188
X1.7625Y-2.9688
X1.925Y-1.4688
X1.925Y-2.2188
X2.3Y-2.9688
X2.325Y-1.4688
X2.325Y-2.2188
X2.3937Y-3.7188
X2.675Y-1.4688
X2.675Y-2.2188
X2.7Y-2.9688
X2.7937Y-3.7188
X3.05Y-2.9688
X3.075Y-1.4688
X3.075Y-2.2188
X3.425Y-1.4688
X3.425Y-2.2188
X3.425Y-3.7188
X3.45Y-2.9688
X3.8Y-2.9688
X3.825Y-1.4688
X3.825Y-2.2188
X3.825Y-3.7188
X4.175Y-1.4688
X4.175Y-2.2188
X4.175Y-3.7188
X4.2Y-2.9688
X4.55Y-2.9688
X4.575Y-1.4688
X4.575Y-2.2188
X4.575Y-3.7188
X4.925Y-1.4688
X4.925Y-2.2188
X4.95Y-2.9688
X5.1125Y-3.7188
X5.3Y-2.9688
X5.325Y-1.4688
X5.325Y-2.2188
X5.5125Y-3.7188
X5.7Y-2.9688
X6.05Y-2.9688
X6.2375Y-3.7188
X6.425Y-1.4688
X6.425Y-2.2188
X6.45Y-2.9688
X6.6375Y-3.7188
X6.8Y-2.9688
X6.825Y-1.4688
X6.825Y-2.2188
X7.175Y-1.4688
X7.175Y-2.2188
X7.175Y-3.7188
X7.2Y-2.9688
X7.55Y-2.9688
X7.575Y-1.4688
X7.575Y-2.2188
X7.575Y-3.7188
X7.925Y-1.4688
X7.925Y-2.2188
X7.925Y-3.7188
X7.95Y-2.9688
X8.3Y-2.9688
X8.325Y-1.4688
X8.325Y-2.2188
X8.325Y-3.7188
X8.675Y-1.4688
X8.675Y-2.2188
X8.7Y-2.9688
X8.9562Y-3.7188
X9.05Y-2.9688
X9.075Y-1.4688
X9.075Y-2.2188
X9.3562Y-3.7188
X9.425Y-1.4688
X9.425Y-2.2188
X9.45Y-2.9688
X9.825Y-1.4688
X9.825Y-2.2188
X9.9875Y-2.9688
X10.175Y-1.4688
X10.175Y-2.2188
X10.3875Y-2.9688
X10.575Y-1.4688
X10.575Y-2.2188
T3
X1.1585Y-1.4688
X1.1585Y-2.2188
X1.346Y-2.9688
X1.5915Y-1.4688
X1.5915Y-2.2188
X1.779Y-2.9688
X1.9085Y-1.4688
X1.9085Y-2.2188
X2.2835Y-2.9688
X2.3415Y-1.4688
X2.3415Y-2.2188
X2.3772Y-3.7188
X2.6585Y-1.4688
X2.6585Y-2.2188
X2.7165Y-2.9688
X2.8103Y-3.7188
X3.0335Y-2.9688
X3.0915Y-1.4688
X3.0915Y-2.2188
X3.4085Y-1.4688
X3.4085Y-2.2188
X3.4085Y-3.7188
X3.4665Y-2.9688
X3.7835Y-2.9688
X3.8415Y-1.4688
X3.8415Y-2.2188
X3.8415Y-3.7188
X4.1585Y-1.4688
X4.1585Y-2.2188
X4.1585Y-3.7188
X4.2165Y-2.9688
X4.5335Y-2.9688
X4.5915Y-1.4688
X4.5915Y-2.2188
X4.5915Y-3.7188
X4.9085Y-1.4688
X4.9085Y-2.2188
X4.9665Y-2.9688
X5.096Y-3.7188
X5.2835Y-2.9688
X5.3415Y-1.4688
X5.3415Y-2.2188
X5.529Y-3.7188
X5.7165Y-2.9688
X6.0335Y-2.9688
X6.221Y-3.7188
X6.4085Y-1.4688
X6.4085Y-2.2188
X6.4665Y-2.9688
X6.654Y-3.7188
X6.7835Y-2.9688
X6.8415Y-1.4688
X6.8415Y-2.2188
X7.1585Y-1.4688
X7.1585Y-2.2188
X7.1585Y-3.7188
X7.2165Y-2.9688
X7.5335Y-2.9688
X7.5915Y-1.4688
X7.5915Y-2.2188
X7.5915Y-3.7188
X7.9085Y-1.4688
X7.9085Y-2.2188
X7.9085Y-3.7188
X7.9665Y-2.9688
X8.2835Y-2.9688
X8.3415Y-1.4688
X8.3415Y-2.2188
X8.3415Y-3.7188
X8.6585Y-1.4688
X8.6585Y-2.2188
X8.7165Y-2.9688
X8.9397Y-3.7188
X9.0335Y-2.9688
X9.0915Y-1.4688
X9.0915Y-2.2188
X9.3728Y-3.7188
X9.4085Y-1.4688
X9.4085Y-2.2188
X9.4665Y-2.9688
X9.8415Y-1.4688
X9.8415Y-2.2188
X9.971Y-2.9688
X10.1585Y-1.4688
X10.1585Y-2.2188
X10.404Y-2.9688
X10.5915Y-1.4688
X10.5915Y-2.2188
T4
X1.375Y-1.4688
X1.375Y-2.2188
X1.5625Y-2.9688
X2.125Y-1.4688
X2.125Y-2.2188
X2.5Y-2.9688
X2.5938Y-3.7188
X2.875Y-1.4688
X2.875Y-2.2188
X3.25Y-2.9688
X3.625Y-1.4688
X3.625Y-2.2188
X3.625Y-3.7188
X4.0Y-2.9688
X4.375Y-1.4688
X4.375Y-2.2188
X4.375Y-3.7188
X4.75Y-2.9688
X5.125Y-1.4688
X5.125Y-2.2188
X5.3125Y-3.7188
X5.5Y-2.9688
X6.25Y-2.9688
X6.4375Y-3.7188
X6.625Y-1.4688
X6.625Y-2.2188
X7.0Y-2.9688
X7.375Y-1.4688
X7.375Y-2.2188
X7.375Y-3.7188
X7.75Y-2.9688
X8.125Y-1.4688
X8.125Y-2.2188
X8.125Y-3.7188
X8.5Y-2.9688
X8.875Y-1.4688
X8.875Y-2.2188
X9.1562Y-3.7188
X9.25Y-2.9688
X9.625Y-1.4688
X9.625Y-2.2188
X10.1875Y-2.9688
X10.375Y-1.4688
X10.375Y-2.2188
T0
M30
