M48
; DRILL file {KiCad (6.0.5)} date Thu Aug 11 09:24:03 2022
; FORMAT={-:-/ absolute / inch / decimal}
; #@! TF.CreationDate,2022-08-11T09:24:03-04:00
; #@! TF.GenerationSoftware,Kicad,Pcbnew,(6.0.5)
; #@! TF.FileFunction,Plated,1,2,PTH
FMAT,2
INCH
; #@! TA.AperFunction,Plated,PTH,ComponentDrill
T1C0.0079
; #@! TA.AperFunction,Plated,PTH,ViaDrill
T2C0.0118
; #@! TA.AperFunction,Plated,PTH,ViaDrill
T3C0.0157
; #@! TA.AperFunction,Plated,PTH,ComponentDrill
T4C0.0197
; #@! TA.AperFunction,Plated,PTH,ComponentDrill
T5C0.0236
; #@! TA.AperFunction,Plated,PTH,ComponentDrill
T6C0.0315
; #@! TA.AperFunction,Plated,PTH,ComponentDrill
T7C0.0320
; #@! TA.AperFunction,Plated,PTH,ComponentDrill
T8C0.0394
; #@! TA.AperFunction,Plated,PTH,ComponentDrill
T9C0.0579
%
G90
G05
T1
X5.7825Y-1.7262
X5.7825Y-1.7725
X5.7825Y-1.8187
X5.7825Y-1.865
X5.7825Y-1.9113
X5.8287Y-1.7262
X5.8287Y-1.7725
X5.8287Y-1.8187
X5.8287Y-1.865
X5.8287Y-1.9113
X5.875Y-1.7262
X5.875Y-1.7725
X5.875Y-1.8187
X5.875Y-1.865
X5.875Y-1.9113
X5.9213Y-1.7262
X5.9213Y-1.7725
X5.9213Y-1.8187
X5.9213Y-1.865
X5.9213Y-1.9113
X5.9675Y-1.7262
X5.9675Y-1.7725
X5.9675Y-1.8187
X5.9675Y-1.865
X5.9675Y-1.9113
T2
X1.6175Y-1.6096
X1.6564Y-1.4335
X1.6765Y-1.4042
X1.8029Y-1.4335
X1.8446Y-1.4042
X1.8783Y-1.4101
X5.4062Y-1.7812
X5.5312Y-1.5
X5.5862Y-1.7287
X5.5864Y-1.9447
X5.6245Y-1.5243
X5.6416Y-2.1255
X5.6875Y-1.375
X5.7524Y-2.1195
X5.8279Y-1.2185
X5.9069Y-2.2611
X5.9806Y-1.2201
X6.125Y-2.1562
X6.125Y-2.1989
X6.2192Y-1.6995
X6.2433Y-1.5735
X6.2487Y-2.0388
T3
X1.5597Y-1.5646
X1.9432Y-1.5655
X3.3227Y-1.4002
X3.3229Y-1.5362
X5.2992Y-2.3144
X5.3438Y-1.6875
X5.4067Y-1.592
X5.4452Y-1.5967
X5.446Y-1.4561
X5.4688Y-1.5698
X5.525Y-2.2875
X5.6562Y-1.5938
X5.6562Y-2.0312
X5.8278Y-2.5763
X5.973Y-2.131
X6.0224Y-2.1297
X6.0409Y-1.531
X6.0625Y-1.5938
X6.1151Y-1.304
X6.1532Y-1.304
X6.1562Y-1.4688
X6.4375Y-2.3125
X6.6567Y-3.0317
X6.8125Y-3.8125
T5
X5.832Y-2.4332
X5.832Y-2.4922
T6
X5.5326Y-2.3411
X5.8326Y-2.3411
X5.9169Y-2.3411
X5.9176Y-2.4633
X6.2169Y-2.3411
X6.2176Y-2.4633
T7
X5.725Y-1.1457
X5.825Y-1.1457
X5.925Y-1.1457
X6.025Y-1.1457
T8
X5.5125Y-1.1812
X5.5125Y-1.2812
X5.5125Y-1.3812
X5.6125Y-1.1812
X5.6125Y-1.2812
X5.6125Y-1.3812
T9
X1.225Y-1.3687
X1.225Y-2.1187
X1.4125Y-2.8687
X1.475Y-1.2688
X1.475Y-2.0187
X1.6Y-2.8687
X1.6625Y-2.7687
X1.85Y-2.7687
X1.975Y-1.3687
X1.975Y-2.1187
X2.225Y-1.2688
X2.225Y-2.0187
X2.2563Y-3.6187
X2.35Y-2.8687
X2.5063Y-3.5187
X2.6Y-2.7687
X2.725Y-1.3687
X2.725Y-2.1187
X2.975Y-1.2688
X2.975Y-2.0187
X3.1Y-2.8687
X3.1Y-3.6187
X3.35Y-2.7687
X3.35Y-3.5187
X3.475Y-1.3687
X3.475Y-2.1187
X3.725Y-1.2688
X3.725Y-2.0187
X3.85Y-2.8687
X3.9438Y-3.6187
X4.1Y-2.7687
X4.1937Y-3.5187
X4.225Y-1.3687
X4.225Y-2.1187
X4.475Y-1.2688
X4.475Y-2.0187
X4.6Y-2.8687
X4.85Y-2.7687
X4.975Y-1.3687
X4.975Y-2.1187
X5.0687Y-3.6187
X5.225Y-1.2688
X5.225Y-2.0187
X5.3187Y-3.5187
X5.35Y-2.8687
X5.6Y-2.7687
X6.1Y-2.8687
X6.35Y-2.7687
X6.3812Y-3.6187
X6.475Y-1.3687
X6.475Y-2.1187
X6.6312Y-3.5187
X6.725Y-1.2688
X6.725Y-2.0187
X6.85Y-2.8687
X7.1Y-2.7687
X7.225Y-1.3687
X7.225Y-2.1187
X7.475Y-1.2688
X7.475Y-2.0187
X7.5062Y-3.6187
X7.6Y-2.8687
X7.7562Y-3.5187
X7.85Y-2.7687
X7.975Y-1.3687
X7.975Y-2.1187
X8.225Y-1.2688
X8.225Y-2.0187
X8.35Y-2.8687
X8.35Y-3.6187
X8.6Y-2.7687
X8.6Y-3.5187
X8.725Y-1.3687
X8.725Y-2.1187
X8.975Y-1.2688
X8.975Y-2.0187
X9.1Y-2.8687
X9.1937Y-3.6187
X9.35Y-2.7687
X9.4437Y-3.5187
X9.475Y-1.3687
X9.475Y-2.1187
X9.725Y-1.2688
X9.725Y-2.0187
X9.85Y-2.8687
X10.0375Y-2.8687
X10.1Y-2.7687
X10.225Y-1.3687
X10.225Y-2.1187
X10.2875Y-2.7687
X10.475Y-1.2688
X10.475Y-2.0187
T4
G00X1.5799Y-1.0921
M15
G01X1.5799Y-1.1196
M16
G05
G00X1.9201Y-1.0921
M15
G01X1.9201Y-1.1196
M16
G05
T5
G00X1.5799Y-1.2488
M15
G01X1.5799Y-1.2921
M16
G05
G00X1.9201Y-1.2488
M15
G01X1.9201Y-1.2921
M16
G05
T0
M30
