G04 #@! TF.GenerationSoftware,KiCad,Pcbnew,(6.0.5)*
G04 #@! TF.CreationDate,2022-08-11T23:07:05-04:00*
G04 #@! TF.ProjectId,phoenix45_alpha-rounded,70686f65-6e69-4783-9435-5f616c706861,rev?*
G04 #@! TF.SameCoordinates,Original*
G04 #@! TF.FileFunction,Soldermask,Bot*
G04 #@! TF.FilePolarity,Negative*
%FSLAX46Y46*%
G04 Gerber Fmt 4.6, Leading zero omitted, Abs format (unit mm)*
G04 Created by KiCad (PCBNEW (6.0.5)) date 2022-08-11 23:07:05*
%MOMM*%
%LPD*%
G01*
G04 APERTURE LIST*
G04 Aperture macros list*
%AMRoundRect*
0 Rectangle with rounded corners*
0 $1 Rounding radius*
0 $2 $3 $4 $5 $6 $7 $8 $9 X,Y pos of 4 corners*
0 Add a 4 corners polygon primitive as box body*
4,1,4,$2,$3,$4,$5,$6,$7,$8,$9,$2,$3,0*
0 Add four circle primitives for the rounded corners*
1,1,$1+$1,$2,$3*
1,1,$1+$1,$4,$5*
1,1,$1+$1,$6,$7*
1,1,$1+$1,$8,$9*
0 Add four rect primitives between the rounded corners*
20,1,$1+$1,$2,$3,$4,$5,0*
20,1,$1+$1,$4,$5,$6,$7,0*
20,1,$1+$1,$6,$7,$8,$9,0*
20,1,$1+$1,$8,$9,$2,$3,0*%
%AMRotRect*
0 Rectangle, with rotation*
0 The origin of the aperture is its center*
0 $1 length*
0 $2 width*
0 $3 Rotation angle, in degrees counterclockwise*
0 Add horizontal line*
21,1,$1,$2,0,0,$3*%
G04 Aperture macros list end*
%ADD10C,1.900000*%
%ADD11O,2.500000X2.000000*%
%ADD12C,2.100000*%
%ADD13C,4.000000*%
%ADD14R,1.200000X1.200000*%
%ADD15C,1.200000*%
%ADD16C,1.600000*%
%ADD17O,1.600000X1.600000*%
%ADD18C,1.397000*%
%ADD19R,1.200000X0.900000*%
%ADD20RoundRect,0.250000X-0.350000X-0.450000X0.350000X-0.450000X0.350000X0.450000X-0.350000X0.450000X0*%
%ADD21RotRect,2.100000X1.800000X225.000000*%
%ADD22RoundRect,0.250000X0.475000X-0.337500X0.475000X0.337500X-0.475000X0.337500X-0.475000X-0.337500X0*%
%ADD23RoundRect,0.250000X-0.337500X-0.475000X0.337500X-0.475000X0.337500X0.475000X-0.337500X0.475000X0*%
%ADD24RoundRect,0.250000X0.350000X0.450000X-0.350000X0.450000X-0.350000X-0.450000X0.350000X-0.450000X0*%
%ADD25R,5.200000X5.200000*%
%ADD26RoundRect,0.062500X-0.062500X-0.475000X0.062500X-0.475000X0.062500X0.475000X-0.062500X0.475000X0*%
%ADD27RoundRect,0.062500X-0.475000X-0.062500X0.475000X-0.062500X0.475000X0.062500X-0.475000X0.062500X0*%
%ADD28R,1.100000X1.800000*%
%ADD29RoundRect,0.250000X0.097227X-0.574524X0.574524X-0.097227X-0.097227X0.574524X-0.574524X0.097227X0*%
%ADD30RoundRect,0.250000X0.337500X0.475000X-0.337500X0.475000X-0.337500X-0.475000X0.337500X-0.475000X0*%
%ADD31RoundRect,0.250000X-0.450000X0.350000X-0.450000X-0.350000X0.450000X-0.350000X0.450000X0.350000X0*%
%ADD32R,0.600000X2.450000*%
%ADD33R,0.300000X2.450000*%
%ADD34C,0.650000*%
%ADD35RoundRect,0.250000X-0.600000X-0.600000X0.600000X-0.600000X0.600000X0.600000X-0.600000X0.600000X0*%
%ADD36C,1.700000*%
%ADD37R,1.560000X0.650000*%
%ADD38R,1.500000X0.550000*%
%ADD39R,0.550000X1.500000*%
%ADD40RoundRect,0.250000X0.574524X0.097227X0.097227X0.574524X-0.574524X-0.097227X-0.097227X-0.574524X0*%
%ADD41RoundRect,0.210527X-0.389473X-0.664473X0.389473X-0.664473X0.389473X0.664473X-0.389473X0.664473X0*%
G04 APERTURE END LIST*
D10*
X34607500Y-75406250D03*
X44767500Y-75406250D03*
D11*
X35877500Y-72866250D03*
X42227500Y-70326250D03*
X39687500Y-81306250D03*
D12*
X45187500Y-75406250D03*
X34187500Y-75406250D03*
D13*
X39687500Y-75406250D03*
D11*
X34587500Y-79306250D03*
D10*
X227488750Y-94456250D03*
X237648750Y-94456250D03*
D11*
X228758750Y-91916250D03*
X235108750Y-89376250D03*
X232568750Y-100356250D03*
D12*
X238068750Y-94456250D03*
X227068750Y-94456250D03*
D13*
X232568750Y-94456250D03*
D11*
X227468750Y-98356250D03*
D10*
X60801250Y-94456250D03*
X70961250Y-94456250D03*
D11*
X62071250Y-91916250D03*
X68421250Y-89376250D03*
X65881250Y-100356250D03*
D12*
X71381250Y-94456250D03*
X60381250Y-94456250D03*
D13*
X65881250Y-94456250D03*
D11*
X60781250Y-98356250D03*
X201275000Y-98356250D03*
D13*
X206375000Y-94456250D03*
D12*
X200875000Y-94456250D03*
X211875000Y-94456250D03*
D11*
X206375000Y-100356250D03*
X208915000Y-89376250D03*
X202565000Y-91916250D03*
D10*
X211455000Y-94456250D03*
X201295000Y-94456250D03*
D11*
X182225000Y-98356250D03*
D13*
X187325000Y-94456250D03*
D12*
X181825000Y-94456250D03*
X192825000Y-94456250D03*
D11*
X187325000Y-100356250D03*
X189865000Y-89376250D03*
X183515000Y-91916250D03*
D10*
X192405000Y-94456250D03*
X182245000Y-94456250D03*
X158432500Y-94456250D03*
X168592500Y-94456250D03*
D11*
X159702500Y-91916250D03*
X166052500Y-89376250D03*
X163512500Y-100356250D03*
D12*
X169012500Y-94456250D03*
X158012500Y-94456250D03*
D13*
X163512500Y-94456250D03*
D11*
X158412500Y-98356250D03*
D10*
X129857500Y-94456250D03*
X140017500Y-94456250D03*
D11*
X131127500Y-91916250D03*
X137477500Y-89376250D03*
X134937500Y-100356250D03*
D12*
X140437500Y-94456250D03*
X129437500Y-94456250D03*
D13*
X134937500Y-94456250D03*
D11*
X129837500Y-98356250D03*
X106025000Y-98356250D03*
D13*
X111125000Y-94456250D03*
D12*
X105625000Y-94456250D03*
X116625000Y-94456250D03*
D11*
X111125000Y-100356250D03*
X113665000Y-89376250D03*
X107315000Y-91916250D03*
D10*
X116205000Y-94456250D03*
X106045000Y-94456250D03*
D11*
X86975000Y-98356250D03*
D13*
X92075000Y-94456250D03*
D12*
X86575000Y-94456250D03*
X97575000Y-94456250D03*
D11*
X92075000Y-100356250D03*
X94615000Y-89376250D03*
X88265000Y-91916250D03*
D10*
X97155000Y-94456250D03*
X86995000Y-94456250D03*
D11*
X229850000Y-79306250D03*
D13*
X234950000Y-75406250D03*
D12*
X229450000Y-75406250D03*
X240450000Y-75406250D03*
D11*
X234950000Y-81306250D03*
X237490000Y-70326250D03*
X231140000Y-72866250D03*
D10*
X240030000Y-75406250D03*
X229870000Y-75406250D03*
D11*
X210800000Y-79306250D03*
D13*
X215900000Y-75406250D03*
D12*
X210400000Y-75406250D03*
X221400000Y-75406250D03*
D11*
X215900000Y-81306250D03*
X218440000Y-70326250D03*
X212090000Y-72866250D03*
D10*
X220980000Y-75406250D03*
X210820000Y-75406250D03*
D11*
X191750000Y-79306250D03*
D13*
X196850000Y-75406250D03*
D12*
X191350000Y-75406250D03*
X202350000Y-75406250D03*
D11*
X196850000Y-81306250D03*
X199390000Y-70326250D03*
X193040000Y-72866250D03*
D10*
X201930000Y-75406250D03*
X191770000Y-75406250D03*
D11*
X172700000Y-79306250D03*
D13*
X177800000Y-75406250D03*
D12*
X172300000Y-75406250D03*
X183300000Y-75406250D03*
D11*
X177800000Y-81306250D03*
X180340000Y-70326250D03*
X173990000Y-72866250D03*
D10*
X182880000Y-75406250D03*
X172720000Y-75406250D03*
D11*
X153650000Y-79306250D03*
D13*
X158750000Y-75406250D03*
D12*
X153250000Y-75406250D03*
X164250000Y-75406250D03*
D11*
X158750000Y-81306250D03*
X161290000Y-70326250D03*
X154940000Y-72866250D03*
D10*
X163830000Y-75406250D03*
X153670000Y-75406250D03*
D11*
X134600000Y-79306250D03*
D13*
X139700000Y-75406250D03*
D12*
X134200000Y-75406250D03*
X145200000Y-75406250D03*
D11*
X139700000Y-81306250D03*
X142240000Y-70326250D03*
X135890000Y-72866250D03*
D10*
X144780000Y-75406250D03*
X134620000Y-75406250D03*
D11*
X115550000Y-79306250D03*
D13*
X120650000Y-75406250D03*
D12*
X115150000Y-75406250D03*
X126150000Y-75406250D03*
D11*
X120650000Y-81306250D03*
X123190000Y-70326250D03*
X116840000Y-72866250D03*
D10*
X125730000Y-75406250D03*
X115570000Y-75406250D03*
D11*
X96500000Y-79306250D03*
D13*
X101600000Y-75406250D03*
D12*
X96100000Y-75406250D03*
X107100000Y-75406250D03*
D11*
X101600000Y-81306250D03*
X104140000Y-70326250D03*
X97790000Y-72866250D03*
D10*
X106680000Y-75406250D03*
X96520000Y-75406250D03*
D11*
X77450000Y-79306250D03*
D13*
X82550000Y-75406250D03*
D12*
X77050000Y-75406250D03*
X88050000Y-75406250D03*
D11*
X82550000Y-81306250D03*
X85090000Y-70326250D03*
X78740000Y-72866250D03*
D10*
X87630000Y-75406250D03*
X77470000Y-75406250D03*
D11*
X58400000Y-79306250D03*
D13*
X63500000Y-75406250D03*
D12*
X58000000Y-75406250D03*
X69000000Y-75406250D03*
D11*
X63500000Y-81306250D03*
X66040000Y-70326250D03*
X59690000Y-72866250D03*
D10*
X68580000Y-75406250D03*
X58420000Y-75406250D03*
D11*
X258425000Y-60256250D03*
D13*
X263525000Y-56356250D03*
D12*
X258025000Y-56356250D03*
X269025000Y-56356250D03*
D11*
X263525000Y-62256250D03*
X266065000Y-51276250D03*
X259715000Y-53816250D03*
D10*
X268605000Y-56356250D03*
X258445000Y-56356250D03*
D11*
X239375000Y-60256250D03*
D13*
X244475000Y-56356250D03*
D12*
X238975000Y-56356250D03*
X249975000Y-56356250D03*
D11*
X244475000Y-62256250D03*
X247015000Y-51276250D03*
X240665000Y-53816250D03*
D10*
X249555000Y-56356250D03*
X239395000Y-56356250D03*
D11*
X220325000Y-60256250D03*
D13*
X225425000Y-56356250D03*
D12*
X219925000Y-56356250D03*
X230925000Y-56356250D03*
D11*
X225425000Y-62256250D03*
X227965000Y-51276250D03*
X221615000Y-53816250D03*
D10*
X230505000Y-56356250D03*
X220345000Y-56356250D03*
D11*
X201275000Y-60256250D03*
D13*
X206375000Y-56356250D03*
D12*
X200875000Y-56356250D03*
X211875000Y-56356250D03*
D11*
X206375000Y-62256250D03*
X208915000Y-51276250D03*
X202565000Y-53816250D03*
D10*
X211455000Y-56356250D03*
X201295000Y-56356250D03*
D11*
X182225000Y-60256250D03*
D13*
X187325000Y-56356250D03*
D12*
X181825000Y-56356250D03*
X192825000Y-56356250D03*
D11*
X187325000Y-62256250D03*
X189865000Y-51276250D03*
X183515000Y-53816250D03*
D10*
X192405000Y-56356250D03*
X182245000Y-56356250D03*
D11*
X163175000Y-60256250D03*
D13*
X168275000Y-56356250D03*
D12*
X162775000Y-56356250D03*
X173775000Y-56356250D03*
D11*
X168275000Y-62256250D03*
X170815000Y-51276250D03*
X164465000Y-53816250D03*
D10*
X173355000Y-56356250D03*
X163195000Y-56356250D03*
X253682500Y-75406250D03*
X263842500Y-75406250D03*
D11*
X254952500Y-72866250D03*
X261302500Y-70326250D03*
X258762500Y-81306250D03*
D12*
X264262500Y-75406250D03*
X253262500Y-75406250D03*
D13*
X258762500Y-75406250D03*
D11*
X253662500Y-79306250D03*
X125075000Y-60256250D03*
D13*
X130175000Y-56356250D03*
D12*
X124675000Y-56356250D03*
X135675000Y-56356250D03*
D11*
X130175000Y-62256250D03*
X132715000Y-51276250D03*
X126365000Y-53816250D03*
D10*
X135255000Y-56356250D03*
X125095000Y-56356250D03*
D11*
X106025000Y-60256250D03*
D13*
X111125000Y-56356250D03*
D12*
X105625000Y-56356250D03*
X116625000Y-56356250D03*
D11*
X111125000Y-62256250D03*
X113665000Y-51276250D03*
X107315000Y-53816250D03*
D10*
X116205000Y-56356250D03*
X106045000Y-56356250D03*
D11*
X86975000Y-60256250D03*
D13*
X92075000Y-56356250D03*
D12*
X86575000Y-56356250D03*
X97575000Y-56356250D03*
D11*
X92075000Y-62256250D03*
X94615000Y-51276250D03*
X88265000Y-53816250D03*
D10*
X97155000Y-56356250D03*
X86995000Y-56356250D03*
D11*
X67925000Y-60256250D03*
D13*
X73025000Y-56356250D03*
D12*
X67525000Y-56356250D03*
X78525000Y-56356250D03*
D11*
X73025000Y-62256250D03*
X75565000Y-51276250D03*
X69215000Y-53816250D03*
D10*
X78105000Y-56356250D03*
X67945000Y-56356250D03*
D11*
X48875000Y-60256250D03*
D13*
X53975000Y-56356250D03*
D12*
X48475000Y-56356250D03*
X59475000Y-56356250D03*
D11*
X53975000Y-62256250D03*
X56515000Y-51276250D03*
X50165000Y-53816250D03*
D10*
X59055000Y-56356250D03*
X48895000Y-56356250D03*
D11*
X29825000Y-60256250D03*
D13*
X34925000Y-56356250D03*
D12*
X29425000Y-56356250D03*
X40425000Y-56356250D03*
D11*
X34925000Y-62256250D03*
X37465000Y-51276250D03*
X31115000Y-53816250D03*
D10*
X40005000Y-56356250D03*
X29845000Y-56356250D03*
D11*
X258425000Y-41206250D03*
D13*
X263525000Y-37306250D03*
D12*
X258025000Y-37306250D03*
X269025000Y-37306250D03*
D11*
X263525000Y-43206250D03*
X266065000Y-32226250D03*
X259715000Y-34766250D03*
D10*
X268605000Y-37306250D03*
X258445000Y-37306250D03*
D11*
X239375000Y-41206250D03*
D13*
X244475000Y-37306250D03*
D12*
X238975000Y-37306250D03*
X249975000Y-37306250D03*
D11*
X244475000Y-43206250D03*
X247015000Y-32226250D03*
X240665000Y-34766250D03*
D10*
X249555000Y-37306250D03*
X239395000Y-37306250D03*
D11*
X220325000Y-41206250D03*
D13*
X225425000Y-37306250D03*
D12*
X219925000Y-37306250D03*
X230925000Y-37306250D03*
D11*
X225425000Y-43206250D03*
X227965000Y-32226250D03*
X221615000Y-34766250D03*
D10*
X230505000Y-37306250D03*
X220345000Y-37306250D03*
D11*
X201275000Y-41206250D03*
D13*
X206375000Y-37306250D03*
D12*
X200875000Y-37306250D03*
X211875000Y-37306250D03*
D11*
X206375000Y-43206250D03*
X208915000Y-32226250D03*
X202565000Y-34766250D03*
D10*
X211455000Y-37306250D03*
X201295000Y-37306250D03*
D11*
X182225000Y-41206250D03*
D13*
X187325000Y-37306250D03*
D12*
X181825000Y-37306250D03*
X192825000Y-37306250D03*
D11*
X187325000Y-43206250D03*
X189865000Y-32226250D03*
X183515000Y-34766250D03*
D10*
X192405000Y-37306250D03*
X182245000Y-37306250D03*
D11*
X163175000Y-41206250D03*
D13*
X168275000Y-37306250D03*
D12*
X162775000Y-37306250D03*
X173775000Y-37306250D03*
D11*
X168275000Y-43206250D03*
X170815000Y-32226250D03*
X164465000Y-34766250D03*
D10*
X173355000Y-37306250D03*
X163195000Y-37306250D03*
D11*
X125075000Y-41206250D03*
D13*
X130175000Y-37306250D03*
D12*
X124675000Y-37306250D03*
X135675000Y-37306250D03*
D11*
X130175000Y-43206250D03*
X132715000Y-32226250D03*
X126365000Y-34766250D03*
D10*
X135255000Y-37306250D03*
X125095000Y-37306250D03*
D11*
X106025000Y-41206250D03*
D13*
X111125000Y-37306250D03*
D12*
X105625000Y-37306250D03*
X116625000Y-37306250D03*
D11*
X111125000Y-43206250D03*
X113665000Y-32226250D03*
X107315000Y-34766250D03*
D10*
X116205000Y-37306250D03*
X106045000Y-37306250D03*
D11*
X86975000Y-41206250D03*
D13*
X92075000Y-37306250D03*
D12*
X86575000Y-37306250D03*
X97575000Y-37306250D03*
D11*
X92075000Y-43206250D03*
X94615000Y-32226250D03*
X88265000Y-34766250D03*
D10*
X97155000Y-37306250D03*
X86995000Y-37306250D03*
D11*
X67925000Y-41206250D03*
D13*
X73025000Y-37306250D03*
D12*
X67525000Y-37306250D03*
X78525000Y-37306250D03*
D11*
X73025000Y-43206250D03*
X75565000Y-32226250D03*
X69215000Y-34766250D03*
D10*
X78105000Y-37306250D03*
X67945000Y-37306250D03*
D11*
X48875000Y-41206250D03*
D13*
X53975000Y-37306250D03*
D12*
X48475000Y-37306250D03*
X59475000Y-37306250D03*
D11*
X53975000Y-43206250D03*
X56515000Y-32226250D03*
X50165000Y-34766250D03*
D10*
X59055000Y-37306250D03*
X48895000Y-37306250D03*
D11*
X29825000Y-41206250D03*
D13*
X34925000Y-37306250D03*
D12*
X29425000Y-37306250D03*
X40425000Y-37306250D03*
D11*
X34925000Y-43206250D03*
X37465000Y-32226250D03*
X31115000Y-34766250D03*
D10*
X40005000Y-37306250D03*
X29845000Y-37306250D03*
D14*
X148132817Y-61802044D03*
D15*
X148132817Y-63302044D03*
D16*
X150307081Y-62567507D03*
D17*
X157927081Y-62567507D03*
D16*
X157908196Y-59462814D03*
D17*
X150288196Y-59462814D03*
D18*
X153035000Y-29101250D03*
X150495000Y-29101250D03*
X147955000Y-29101250D03*
X145415000Y-29101250D03*
D16*
X148147035Y-59462814D03*
D17*
X140527035Y-59462814D03*
D19*
X85650630Y-84200000D03*
X85650630Y-80900000D03*
D20*
X138700000Y-47180500D03*
X140700000Y-47180500D03*
D21*
X150562172Y-34897321D03*
X148511562Y-36947931D03*
X146885216Y-35321585D03*
X148935826Y-33270975D03*
D22*
X50800000Y-31993750D03*
X50800000Y-29918750D03*
D19*
X104701418Y-84200000D03*
X104701418Y-80900000D03*
X166687500Y-102456250D03*
X166687500Y-99156250D03*
X266626512Y-65150000D03*
X266626512Y-61850000D03*
X190426512Y-65150000D03*
X190426512Y-61850000D03*
X76118439Y-65150000D03*
X76118439Y-61850000D03*
X266626512Y-42800000D03*
X266626512Y-46100000D03*
X138112500Y-102456250D03*
X138112500Y-99156250D03*
X190500000Y-102456250D03*
X190500000Y-99156250D03*
D23*
X142262229Y-53975000D03*
X144337229Y-53975000D03*
D24*
X156931209Y-51855707D03*
X158931209Y-51855707D03*
D19*
X247576512Y-65150000D03*
X247576512Y-61850000D03*
D25*
X149225000Y-46196072D03*
D26*
X146725000Y-49533572D03*
X147225000Y-49533572D03*
X147725000Y-49533572D03*
X148225000Y-49533572D03*
X148725000Y-49533572D03*
X149225000Y-49533572D03*
X149725000Y-49533572D03*
X150225000Y-49533572D03*
X150725000Y-49533572D03*
X151225000Y-49533572D03*
X151725000Y-49533572D03*
D27*
X152562500Y-48696072D03*
X152562500Y-48196072D03*
X152562500Y-47696072D03*
X152562500Y-47196072D03*
X152562500Y-46696072D03*
X152562500Y-46196072D03*
X152562500Y-45696072D03*
X152562500Y-45196072D03*
X152562500Y-44696072D03*
X152562500Y-44196072D03*
X152562500Y-43696072D03*
D26*
X151725000Y-42858572D03*
X151225000Y-42858572D03*
X150725000Y-42858572D03*
X150225000Y-42858572D03*
X149725000Y-42858572D03*
X149225000Y-42858572D03*
X148725000Y-42858572D03*
X148225000Y-42858572D03*
X147725000Y-42858572D03*
X147225000Y-42858572D03*
X146725000Y-42858572D03*
D27*
X145887500Y-43696072D03*
X145887500Y-44196072D03*
X145887500Y-44696072D03*
X145887500Y-45196072D03*
X145887500Y-45696072D03*
X145887500Y-46196072D03*
X145887500Y-46696072D03*
X145887500Y-47196072D03*
X145887500Y-47696072D03*
X145887500Y-48196072D03*
X145887500Y-48696072D03*
D19*
X66599842Y-84200000D03*
X66599842Y-80900000D03*
X261848144Y-84200000D03*
X261848144Y-80900000D03*
D28*
X80700000Y-40406250D03*
X80700000Y-34206250D03*
X84400000Y-34206250D03*
X84400000Y-40406250D03*
D29*
X145608821Y-33461826D03*
X147076067Y-31994580D03*
D19*
X57069135Y-42800000D03*
X57069135Y-46100000D03*
D30*
X140737500Y-45098902D03*
X138662500Y-45098902D03*
D19*
X38100000Y-65150000D03*
X38100000Y-61850000D03*
D31*
X53181250Y-29956250D03*
X53181250Y-31956250D03*
D19*
X209550000Y-102456250D03*
X209550000Y-99156250D03*
X228526512Y-42800000D03*
X228526512Y-46100000D03*
D22*
X157192500Y-42006956D03*
X157192500Y-39931956D03*
D19*
X95167743Y-42800000D03*
X95167743Y-46100000D03*
X171376512Y-42800000D03*
X171376512Y-46100000D03*
D22*
X64796359Y-44764993D03*
X64796359Y-42689993D03*
D19*
X133266352Y-65150000D03*
X133266352Y-61850000D03*
X114300000Y-102456250D03*
X114300000Y-99156250D03*
D31*
X31750000Y-29956250D03*
X31750000Y-31956250D03*
D19*
X247576512Y-42800000D03*
X247576512Y-46100000D03*
X209476512Y-65150000D03*
X209476512Y-61850000D03*
X161853782Y-84200000D03*
X161853782Y-80900000D03*
X199955358Y-84200000D03*
X199955358Y-80900000D03*
D31*
X34131250Y-29956250D03*
X34131250Y-31956250D03*
D32*
X47675000Y-33683600D03*
X46900000Y-33683600D03*
D33*
X46200000Y-33683600D03*
X45700000Y-33683600D03*
X45200000Y-33683600D03*
X44700000Y-33683600D03*
X44200000Y-33683600D03*
X43700000Y-33683600D03*
X43200000Y-33683600D03*
X42700000Y-33683600D03*
D32*
X42000000Y-33683600D03*
X41225000Y-33683600D03*
D34*
X47340000Y-31738600D03*
X41560000Y-31738600D03*
D19*
X142802994Y-84200000D03*
X142802994Y-80900000D03*
X76118439Y-42800000D03*
X76118439Y-46100000D03*
X228526512Y-65150000D03*
X228526512Y-61850000D03*
D35*
X140017500Y-35083750D03*
D36*
X142557500Y-35083750D03*
X140017500Y-32543750D03*
X142557500Y-32543750D03*
X140017500Y-30003750D03*
X142557500Y-30003750D03*
D19*
X123752206Y-84200000D03*
X123752206Y-80900000D03*
X219006146Y-84200000D03*
X219006146Y-80900000D03*
D37*
X43100000Y-41301474D03*
X43100000Y-40351474D03*
X43100000Y-39401474D03*
X45800000Y-39401474D03*
X45800000Y-40351474D03*
X45800000Y-41301474D03*
D38*
X143525000Y-50196072D03*
X143525000Y-49396072D03*
X143525000Y-48596072D03*
X143525000Y-47796072D03*
X143525000Y-46996072D03*
X143525000Y-46196072D03*
X143525000Y-45396072D03*
X143525000Y-44596072D03*
X143525000Y-43796072D03*
X143525000Y-42996072D03*
X143525000Y-42196072D03*
D39*
X145225000Y-40496072D03*
X146025000Y-40496072D03*
X146825000Y-40496072D03*
X147625000Y-40496072D03*
X148425000Y-40496072D03*
X149225000Y-40496072D03*
X150025000Y-40496072D03*
X150825000Y-40496072D03*
X151625000Y-40496072D03*
X152425000Y-40496072D03*
X153225000Y-40496072D03*
D38*
X154925000Y-42196072D03*
X154925000Y-42996072D03*
X154925000Y-43796072D03*
X154925000Y-44596072D03*
X154925000Y-45396072D03*
X154925000Y-46196072D03*
X154925000Y-46996072D03*
X154925000Y-47796072D03*
X154925000Y-48596072D03*
X154925000Y-49396072D03*
X154925000Y-50196072D03*
D39*
X153225000Y-51896072D03*
X152425000Y-51896072D03*
X151625000Y-51896072D03*
X150825000Y-51896072D03*
X150025000Y-51896072D03*
X149225000Y-51896072D03*
X148425000Y-51896072D03*
X147625000Y-51896072D03*
X146825000Y-51896072D03*
X146025000Y-51896072D03*
X145225000Y-51896072D03*
D40*
X152510318Y-33339827D03*
X151043072Y-31872581D03*
D19*
X238056940Y-84200000D03*
X238056940Y-80900000D03*
X209476512Y-42800000D03*
X209476512Y-46100000D03*
X133266352Y-42800000D03*
X133266352Y-46100000D03*
D41*
X62735449Y-44827522D03*
X59335449Y-44827522D03*
D19*
X114217047Y-42800000D03*
X114217047Y-46100000D03*
X42862500Y-84200000D03*
X42862500Y-80900000D03*
X95250000Y-102456250D03*
X95250000Y-99156250D03*
X180904570Y-84200000D03*
X180904570Y-80900000D03*
X171376512Y-65150000D03*
X171376512Y-61850000D03*
X114217047Y-65150000D03*
X114217047Y-61850000D03*
X190426512Y-42800000D03*
X190426512Y-46100000D03*
D20*
X138700000Y-49212500D03*
X140700000Y-49212500D03*
D24*
X84550000Y-42658741D03*
X82550000Y-42658741D03*
D19*
X95167743Y-65150000D03*
X95167743Y-61850000D03*
X57069135Y-65150000D03*
X57069135Y-61850000D03*
X38019831Y-42800000D03*
X38019831Y-46100000D03*
D30*
X143912500Y-38100000D03*
X141837500Y-38100000D03*
X156612500Y-53934251D03*
X154537500Y-53934251D03*
D19*
X69056250Y-102456250D03*
X69056250Y-99156250D03*
X235743750Y-102456250D03*
X235743750Y-99156250D03*
M02*
