M48
; DRILL file {KiCad (6.0.5)} date Thu Aug 11 23:07:07 2022
; FORMAT={-:-/ absolute / inch / decimal}
; #@! TF.CreationDate,2022-08-11T23:07:07-04:00
; #@! TF.GenerationSoftware,Kicad,Pcbnew,(6.0.5)
; #@! TF.FileFunction,Plated,1,2,PTH
FMAT,2
INCH
; #@! TA.AperFunction,Plated,PTH,ComponentDrill
T1C0.0079
; #@! TA.AperFunction,Plated,PTH,ViaDrill
T2C0.0118
; #@! TA.AperFunction,Plated,PTH,ViaDrill
T3C0.0157
; #@! TA.AperFunction,Plated,PTH,ComponentDrill
T4C0.0197
; #@! TA.AperFunction,Plated,PTH,ComponentDrill
T5C0.0236
; #@! TA.AperFunction,Plated,PTH,ComponentDrill
T6C0.0315
; #@! TA.AperFunction,Plated,PTH,ComponentDrill
T7C0.0320
; #@! TA.AperFunction,Plated,PTH,ComponentDrill
T8C0.0394
%
G90
G05
T1
X5.7825Y-1.7262
X5.7825Y-1.7725
X5.7825Y-1.8187
X5.7825Y-1.865
X5.7825Y-1.9113
X5.8287Y-1.7262
X5.8287Y-1.7725
X5.8287Y-1.8187
X5.8287Y-1.865
X5.8287Y-1.9113
X5.875Y-1.7262
X5.875Y-1.7725
X5.875Y-1.8187
X5.875Y-1.865
X5.875Y-1.9113
X5.9213Y-1.7262
X5.9213Y-1.7725
X5.9213Y-1.8187
X5.9213Y-1.865
X5.9213Y-1.9113
X5.9675Y-1.7262
X5.9675Y-1.7725
X5.9675Y-1.8187
X5.9675Y-1.865
X5.9675Y-1.9113
T2
X1.3438Y-1.3125
X1.6175Y-1.6096
X1.6564Y-1.4335
X1.6765Y-1.4042
X1.8029Y-1.4335
X1.8446Y-1.4042
X1.8783Y-1.4101
X2.0938Y-1.3125
X5.4062Y-1.7812
X5.5312Y-1.5
X5.5862Y-1.7287
X5.5864Y-1.9447
X5.6245Y-1.5243
X5.6416Y-2.1255
X5.6875Y-1.375
X5.759Y-2.1063
X5.8279Y-1.2185
X5.9069Y-2.2611
X5.9806Y-1.2201
X6.125Y-2.1562
X6.125Y-2.1989
X6.2192Y-1.6995
X6.2495Y-1.5942
X6.2567Y-2.1039
T3
X1.7177Y-1.8136
X1.8438Y-1.8125
X3.3227Y-1.4002
X3.3229Y-1.5362
X5.3017Y-1.8129
X5.3125Y-2.5625
X5.3438Y-1.6875
X5.4067Y-1.592
X5.4452Y-1.5967
X5.4688Y-1.5698
X5.4705Y-2.5903
X5.6562Y-1.5938
X5.6562Y-2.0312
X5.8278Y-2.5763
X5.973Y-2.131
X6.0224Y-2.1297
X6.0409Y-1.531
X6.0625Y-1.5938
X6.1151Y-1.304
X6.1532Y-1.304
X6.2188Y-1.5312
X6.3513Y-2.6073
X6.6275Y-4.0337
X6.6562Y-3.2812
T5
X5.832Y-2.4332
X5.832Y-2.4922
T6
X5.5326Y-2.3411
X5.8326Y-2.3411
X5.9169Y-2.3411
X5.9176Y-2.4633
X6.2169Y-2.3411
X6.2176Y-2.4633
T7
X5.725Y-1.1457
X5.825Y-1.1457
X5.925Y-1.1457
X6.025Y-1.1457
T8
X5.5125Y-1.1812
X5.5125Y-1.2812
X5.5125Y-1.3812
X5.6125Y-1.1812
X5.6125Y-1.2812
X5.6125Y-1.3812
T4
G00X1.5799Y-1.0921
M15
G01X1.5799Y-1.1196
M16
G05
G00X1.9201Y-1.0921
M15
G01X1.9201Y-1.1196
M16
G05
T5
G00X1.5799Y-1.2488
M15
G01X1.5799Y-1.2921
M16
G05
G00X1.9201Y-1.2488
M15
G01X1.9201Y-1.2921
M16
G05
T6
G00X1.1663Y-1.6223
M15
G01X1.1821Y-1.6223
M16
G05
G00X1.1663Y-2.3723
M15
G01X1.1821Y-2.3723
M16
G05
G00X1.2171Y-1.3687
M15
G01X1.2329Y-1.3687
M16
G05
G00X1.2171Y-2.1187
M15
G01X1.2329Y-2.1187
M16
G05
G00X1.3538Y-3.1223
M15
G01X1.3696Y-3.1223
M16
G05
G00X1.3671Y-1.701
M15
G01X1.3829Y-1.701
M16
G05
G00X1.3671Y-2.451
M15
G01X1.3829Y-2.451
M16
G05
G00X1.4046Y-2.8687
M15
G01X1.4204Y-2.8687
M16
G05
G00X1.4671Y-1.2688
M15
G01X1.4829Y-1.2688
M16
G05
G00X1.4671Y-2.0187
M15
G01X1.4829Y-2.0187
M16
G05
G00X1.5546Y-3.201
M15
G01X1.5704Y-3.201
M16
G05
G00X1.6546Y-2.7687
M15
G01X1.6704Y-2.7687
M16
G05
G00X1.9163Y-1.6223
M15
G01X1.9321Y-1.6223
M16
G05
G00X1.9163Y-2.3723
M15
G01X1.9321Y-2.3723
M16
G05
G00X1.9671Y-1.3687
M15
G01X1.9829Y-1.3687
M16
G05
G00X1.9671Y-2.1187
M15
G01X1.9829Y-2.1187
M16
G05
G00X2.1171Y-1.701
M15
G01X2.1329Y-1.701
M16
G05
G00X2.1171Y-2.451
M15
G01X2.1329Y-2.451
M16
G05
G00X2.2171Y-1.2688
M15
G01X2.2329Y-1.2688
M16
G05
G00X2.2171Y-2.0187
M15
G01X2.2329Y-2.0187
M16
G05
G00X2.2913Y-3.1223
M15
G01X2.3071Y-3.1223
M16
G05
G00X2.3421Y-2.8687
M15
G01X2.3579Y-2.8687
M16
G05
G00X2.3851Y-3.8723
M15
G01X2.4008Y-3.8723
M16
G05
G00X2.4359Y-3.6187
M15
G01X2.4516Y-3.6187
M16
G05
G00X2.4921Y-3.201
M15
G01X2.5079Y-3.201
M16
G05
G00X2.5859Y-3.951
M15
G01X2.6016Y-3.951
M16
G05
G00X2.5921Y-2.7687
M15
G01X2.6079Y-2.7687
M16
G05
G00X2.6663Y-1.6223
M15
G01X2.6821Y-1.6223
M16
G05
G00X2.6663Y-2.3723
M15
G01X2.6821Y-2.3723
M16
G05
G00X2.6859Y-3.5187
M15
G01X2.7016Y-3.5187
M16
G05
G00X2.7171Y-1.3687
M15
G01X2.7329Y-1.3687
M16
G05
G00X2.7171Y-2.1187
M15
G01X2.7329Y-2.1187
M16
G05
G00X2.8671Y-1.701
M15
G01X2.8829Y-1.701
M16
G05
G00X2.8671Y-2.451
M15
G01X2.8829Y-2.451
M16
G05
G00X2.9671Y-1.2688
M15
G01X2.9829Y-1.2688
M16
G05
G00X2.9671Y-2.0187
M15
G01X2.9829Y-2.0187
M16
G05
G00X3.0413Y-3.1223
M15
G01X3.0571Y-3.1223
M16
G05
G00X3.0921Y-2.8687
M15
G01X3.1079Y-2.8687
M16
G05
G00X3.2421Y-3.201
M15
G01X3.2579Y-3.201
M16
G05
G00X3.3421Y-2.7687
M15
G01X3.3579Y-2.7687
M16
G05
G00X3.4163Y-1.6223
M15
G01X3.4321Y-1.6223
M16
G05
G00X3.4163Y-2.3723
M15
G01X3.4321Y-2.3723
M16
G05
G00X3.4163Y-3.8723
M15
G01X3.4321Y-3.8723
M16
G05
G00X3.4671Y-1.3687
M15
G01X3.4829Y-1.3687
M16
G05
G00X3.4671Y-2.1187
M15
G01X3.4829Y-2.1187
M16
G05
G00X3.4671Y-3.6187
M15
G01X3.4829Y-3.6187
M16
G05
G00X3.6171Y-1.701
M15
G01X3.6329Y-1.701
M16
G05
G00X3.6171Y-2.451
M15
G01X3.6329Y-2.451
M16
G05
G00X3.6171Y-3.951
M15
G01X3.6329Y-3.951
M16
G05
G00X3.7171Y-1.2688
M15
G01X3.7329Y-1.2688
M16
G05
G00X3.7171Y-2.0187
M15
G01X3.7329Y-2.0187
M16
G05
G00X3.7171Y-3.5187
M15
G01X3.7329Y-3.5187
M16
G05
G00X3.7913Y-3.1223
M15
G01X3.8071Y-3.1223
M16
G05
G00X3.8421Y-2.8687
M15
G01X3.8579Y-2.8687
M16
G05
G00X3.9921Y-3.201
M15
G01X4.0079Y-3.201
M16
G05
G00X4.0921Y-2.7687
M15
G01X4.1079Y-2.7687
M16
G05
G00X4.1663Y-1.6223
M15
G01X4.1821Y-1.6223
M16
G05
G00X4.1663Y-2.3723
M15
G01X4.1821Y-2.3723
M16
G05
G00X4.1663Y-3.8723
M15
G01X4.1821Y-3.8723
M16
G05
G00X4.2171Y-1.3687
M15
G01X4.2329Y-1.3687
M16
G05
G00X4.2171Y-2.1187
M15
G01X4.2329Y-2.1187
M16
G05
G00X4.2171Y-3.6187
M15
G01X4.2329Y-3.6187
M16
G05
G00X4.3671Y-1.701
M15
G01X4.3829Y-1.701
M16
G05
G00X4.3671Y-2.451
M15
G01X4.3829Y-2.451
M16
G05
G00X4.3671Y-3.951
M15
G01X4.3829Y-3.951
M16
G05
G00X4.4671Y-1.2688
M15
G01X4.4829Y-1.2688
M16
G05
G00X4.4671Y-2.0187
M15
G01X4.4829Y-2.0187
M16
G05
G00X4.4671Y-3.5187
M15
G01X4.4829Y-3.5187
M16
G05
G00X4.5413Y-3.1223
M15
G01X4.5571Y-3.1223
M16
G05
G00X4.5921Y-2.8687
M15
G01X4.6079Y-2.8687
M16
G05
G00X4.7421Y-3.201
M15
G01X4.7579Y-3.201
M16
G05
G00X4.8421Y-2.7687
M15
G01X4.8579Y-2.7687
M16
G05
G00X4.9163Y-1.6223
M15
G01X4.9321Y-1.6223
M16
G05
G00X4.9163Y-2.3723
M15
G01X4.9321Y-2.3723
M16
G05
G00X4.9671Y-1.3687
M15
G01X4.9829Y-1.3687
M16
G05
G00X4.9671Y-2.1187
M15
G01X4.9829Y-2.1187
M16
G05
G00X5.1038Y-3.8723
M15
G01X5.1196Y-3.8723
M16
G05
G00X5.1171Y-1.701
M15
G01X5.1329Y-1.701
M16
G05
G00X5.1171Y-2.451
M15
G01X5.1329Y-2.451
M16
G05
G00X5.1546Y-3.6187
M15
G01X5.1704Y-3.6187
M16
G05
G00X5.2171Y-1.2688
M15
G01X5.2329Y-1.2688
M16
G05
G00X5.2171Y-2.0187
M15
G01X5.2329Y-2.0187
M16
G05
G00X5.2913Y-3.1223
M15
G01X5.3071Y-3.1223
M16
G05
G00X5.3046Y-3.951
M15
G01X5.3204Y-3.951
M16
G05
G00X5.3421Y-2.8687
M15
G01X5.3579Y-2.8687
M16
G05
G00X5.4046Y-3.5187
M15
G01X5.4204Y-3.5187
M16
G05
G00X5.4921Y-3.201
M15
G01X5.5079Y-3.201
M16
G05
G00X5.5921Y-2.7687
M15
G01X5.6079Y-2.7687
M16
G05
G00X6.0413Y-3.1223
M15
G01X6.0571Y-3.1223
M16
G05
G00X6.0921Y-2.8687
M15
G01X6.1079Y-2.8687
M16
G05
G00X6.2288Y-3.8723
M15
G01X6.2446Y-3.8723
M16
G05
G00X6.2421Y-3.201
M15
G01X6.2579Y-3.201
M16
G05
G00X6.2796Y-3.6187
M15
G01X6.2954Y-3.6187
M16
G05
G00X6.3421Y-2.7687
M15
G01X6.3579Y-2.7687
M16
G05
G00X6.4163Y-1.6223
M15
G01X6.4321Y-1.6223
M16
G05
G00X6.4163Y-2.3723
M15
G01X6.4321Y-2.3723
M16
G05
G00X6.4296Y-3.951
M15
G01X6.4454Y-3.951
M16
G05
G00X6.4671Y-1.3687
M15
G01X6.4829Y-1.3687
M16
G05
G00X6.4671Y-2.1187
M15
G01X6.4829Y-2.1187
M16
G05
G00X6.5296Y-3.5187
M15
G01X6.5454Y-3.5187
M16
G05
G00X6.6171Y-1.701
M15
G01X6.6329Y-1.701
M16
G05
G00X6.6171Y-2.451
M15
G01X6.6329Y-2.451
M16
G05
G00X6.7171Y-1.2688
M15
G01X6.7329Y-1.2688
M16
G05
G00X6.7171Y-2.0187
M15
G01X6.7329Y-2.0187
M16
G05
G00X6.7913Y-3.1223
M15
G01X6.8071Y-3.1223
M16
G05
G00X6.8421Y-2.8687
M15
G01X6.8579Y-2.8687
M16
G05
G00X6.9921Y-3.201
M15
G01X7.0079Y-3.201
M16
G05
G00X7.0921Y-2.7687
M15
G01X7.1079Y-2.7687
M16
G05
G00X7.1663Y-1.6223
M15
G01X7.1821Y-1.6223
M16
G05
G00X7.1663Y-2.3723
M15
G01X7.1821Y-2.3723
M16
G05
G00X7.1663Y-3.8723
M15
G01X7.1821Y-3.8723
M16
G05
G00X7.2171Y-1.3687
M15
G01X7.2329Y-1.3687
M16
G05
G00X7.2171Y-2.1187
M15
G01X7.2329Y-2.1187
M16
G05
G00X7.2171Y-3.6187
M15
G01X7.2329Y-3.6187
M16
G05
G00X7.3671Y-1.701
M15
G01X7.3829Y-1.701
M16
G05
G00X7.3671Y-2.451
M15
G01X7.3829Y-2.451
M16
G05
G00X7.3671Y-3.951
M15
G01X7.3829Y-3.951
M16
G05
G00X7.4671Y-1.2688
M15
G01X7.4829Y-1.2688
M16
G05
G00X7.4671Y-2.0187
M15
G01X7.4829Y-2.0187
M16
G05
G00X7.4671Y-3.5187
M15
G01X7.4829Y-3.5187
M16
G05
G00X7.5413Y-3.1223
M15
G01X7.5571Y-3.1223
M16
G05
G00X7.5921Y-2.8687
M15
G01X7.6079Y-2.8687
M16
G05
G00X7.7421Y-3.201
M15
G01X7.7579Y-3.201
M16
G05
G00X7.8421Y-2.7687
M15
G01X7.8579Y-2.7687
M16
G05
G00X7.9163Y-1.6223
M15
G01X7.9321Y-1.6223
M16
G05
G00X7.9163Y-2.3723
M15
G01X7.9321Y-2.3723
M16
G05
G00X7.9163Y-3.8723
M15
G01X7.9321Y-3.8723
M16
G05
G00X7.9671Y-1.3687
M15
G01X7.9829Y-1.3687
M16
G05
G00X7.9671Y-2.1187
M15
G01X7.9829Y-2.1187
M16
G05
G00X7.9671Y-3.6187
M15
G01X7.9829Y-3.6187
M16
G05
G00X8.1171Y-1.701
M15
G01X8.1329Y-1.701
M16
G05
G00X8.1171Y-2.451
M15
G01X8.1329Y-2.451
M16
G05
G00X8.1171Y-3.951
M15
G01X8.1329Y-3.951
M16
G05
G00X8.2171Y-1.2688
M15
G01X8.2329Y-1.2688
M16
G05
G00X8.2171Y-2.0187
M15
G01X8.2329Y-2.0187
M16
G05
G00X8.2171Y-3.5187
M15
G01X8.2329Y-3.5187
M16
G05
G00X8.2913Y-3.1223
M15
G01X8.3071Y-3.1223
M16
G05
G00X8.3421Y-2.8687
M15
G01X8.3579Y-2.8687
M16
G05
G00X8.4921Y-3.201
M15
G01X8.5079Y-3.201
M16
G05
G00X8.5921Y-2.7687
M15
G01X8.6079Y-2.7687
M16
G05
G00X8.6663Y-1.6223
M15
G01X8.6821Y-1.6223
M16
G05
G00X8.6663Y-2.3723
M15
G01X8.6821Y-2.3723
M16
G05
G00X8.7171Y-1.3687
M15
G01X8.7329Y-1.3687
M16
G05
G00X8.7171Y-2.1187
M15
G01X8.7329Y-2.1187
M16
G05
G00X8.8671Y-1.701
M15
G01X8.8829Y-1.701
M16
G05
G00X8.8671Y-2.451
M15
G01X8.8829Y-2.451
M16
G05
G00X8.9476Y-3.8723
M15
G01X8.9633Y-3.8723
M16
G05
G00X8.9671Y-1.2688
M15
G01X8.9829Y-1.2688
M16
G05
G00X8.9671Y-2.0187
M15
G01X8.9829Y-2.0187
M16
G05
G00X8.9984Y-3.6187
M15
G01X9.0141Y-3.6187
M16
G05
G00X9.0413Y-3.1223
M15
G01X9.0571Y-3.1223
M16
G05
G00X9.0921Y-2.8687
M15
G01X9.1079Y-2.8687
M16
G05
G00X9.1484Y-3.951
M15
G01X9.1641Y-3.951
M16
G05
G00X9.2421Y-3.201
M15
G01X9.2579Y-3.201
M16
G05
G00X9.2484Y-3.5187
M15
G01X9.2641Y-3.5187
M16
G05
G00X9.3421Y-2.7687
M15
G01X9.3579Y-2.7687
M16
G05
G00X9.4163Y-1.6223
M15
G01X9.4321Y-1.6223
M16
G05
G00X9.4163Y-2.3723
M15
G01X9.4321Y-2.3723
M16
G05
G00X9.4671Y-1.3687
M15
G01X9.4829Y-1.3687
M16
G05
G00X9.4671Y-2.1187
M15
G01X9.4829Y-2.1187
M16
G05
G00X9.6171Y-1.701
M15
G01X9.6329Y-1.701
M16
G05
G00X9.6171Y-2.451
M15
G01X9.6329Y-2.451
M16
G05
G00X9.7171Y-1.2688
M15
G01X9.7329Y-1.2688
M16
G05
G00X9.7171Y-2.0187
M15
G01X9.7329Y-2.0187
M16
G05
G00X9.9788Y-3.1223
M15
G01X9.9946Y-3.1223
M16
G05
G00X10.0296Y-2.8687
M15
G01X10.0454Y-2.8687
M16
G05
G00X10.1663Y-1.6223
M15
G01X10.1821Y-1.6223
M16
G05
G00X10.1663Y-2.3723
M15
G01X10.1821Y-2.3723
M16
G05
G00X10.1796Y-3.201
M15
G01X10.1954Y-3.201
M16
G05
G00X10.2171Y-1.3687
M15
G01X10.2329Y-1.3687
M16
G05
G00X10.2171Y-2.1187
M15
G01X10.2329Y-2.1187
M16
G05
G00X10.2796Y-2.7687
M15
G01X10.2954Y-2.7687
M16
G05
G00X10.3671Y-1.701
M15
G01X10.3829Y-1.701
M16
G05
G00X10.3671Y-2.451
M15
G01X10.3829Y-2.451
M16
G05
G00X10.4671Y-1.2688
M15
G01X10.4829Y-1.2688
M16
G05
G00X10.4671Y-2.0187
M15
G01X10.4829Y-2.0187
M16
G05
T0
M30
